<?xml version="1.0" encoding="utf-8" standalone="no"?>
<!DOCTYPE svg PUBLIC "-//W3C//DTD SVG 1.1//EN"
  "http://www.w3.org/Graphics/SVG/1.1/DTD/svg11.dtd">
<svg height="345.6pt" version="1.1" viewBox="0 0 460.8 345.6" width="460.8pt" xmlns="http://www.w3.org/2000/svg" xmlns:xlink="http://www.w3.org/1999/xlink">
 <metadata>
  <rdf:RDF xmlns:cc="http://creativecommons.org/ns#" xmlns:dc="http://purl.org/dc/elements/1.1/" xmlns:rdf="http://www.w3.org/1999/02/22-rdf-syntax-ns#">
   <cc:Work>
    <dc:type rdf:resource="http://purl.org/dc/dcmitype/StillImage"/>
    <dc:date>2022-06-03T23:57:04.875414</dc:date>
    <dc:format>image/svg+xml</dc:format>
    <dc:creator>
     <cc:Agent>
      <dc:title>Matplotlib v3.4.1, https://matplotlib.org/</dc:title>
     </cc:Agent>
    </dc:creator>
   </cc:Work>
  </rdf:RDF>
 </metadata>
 <defs>
  <style type="text/css">*{stroke-linecap:butt;stroke-linejoin:round;}</style>
 </defs>
 <g id="figure_1">
  <g id="patch_1">
   <path d="M 0 345.6 
L 460.8 345.6 
L 460.8 0 
L 0 0 
z
" style="fill:#ffffff;"/>
  </g>
  <g id="axes_1">
   <g id="patch_2">
    <path d="M 57.6 307.584 
L 414.72 307.584 
L 414.72 41.472 
L 57.6 41.472 
z
" style="fill:#ffffff;"/>
   </g>
   <g id="matplotlib.axis_1">
    <g id="xtick_1">
     <g id="line2d_1">
      <defs>
       <path d="M 0 0 
L 0 3.5 
" id="ma184d63bed" style="stroke:#000000;stroke-width:0.8;"/>
      </defs>
      <g>
       <use style="stroke:#000000;stroke-width:0.8;" x="102.929605" xlink:href="#ma184d63bed" y="307.584"/>
      </g>
     </g>
     <g id="text_1">
      <!-- 400 -->
      <g transform="translate(93.385855 322.182437)scale(0.1 -0.1)">
       <defs>
        <path d="M 2419 4116 
L 825 1625 
L 2419 1625 
L 2419 4116 
z
M 2253 4666 
L 3047 4666 
L 3047 1625 
L 3713 1625 
L 3713 1100 
L 3047 1100 
L 3047 0 
L 2419 0 
L 2419 1100 
L 313 1100 
L 313 1709 
L 2253 4666 
z
" id="DejaVuSans-34" transform="scale(0.015625)"/>
        <path d="M 2034 4250 
Q 1547 4250 1301 3770 
Q 1056 3291 1056 2328 
Q 1056 1369 1301 889 
Q 1547 409 2034 409 
Q 2525 409 2770 889 
Q 3016 1369 3016 2328 
Q 3016 3291 2770 3770 
Q 2525 4250 2034 4250 
z
M 2034 4750 
Q 2819 4750 3233 4129 
Q 3647 3509 3647 2328 
Q 3647 1150 3233 529 
Q 2819 -91 2034 -91 
Q 1250 -91 836 529 
Q 422 1150 422 2328 
Q 422 3509 836 4129 
Q 1250 4750 2034 4750 
z
" id="DejaVuSans-30" transform="scale(0.015625)"/>
       </defs>
       <use xlink:href="#DejaVuSans-34"/>
       <use x="63.623047" xlink:href="#DejaVuSans-30"/>
       <use x="127.246094" xlink:href="#DejaVuSans-30"/>
      </g>
     </g>
    </g>
    <g id="xtick_2">
     <g id="line2d_2">
      <g>
       <use style="stroke:#000000;stroke-width:0.8;" x="160.931952" xlink:href="#ma184d63bed" y="307.584"/>
      </g>
     </g>
     <g id="text_2">
      <!-- 600 -->
      <g transform="translate(151.388202 322.182437)scale(0.1 -0.1)">
       <defs>
        <path d="M 2113 2584 
Q 1688 2584 1439 2293 
Q 1191 2003 1191 1497 
Q 1191 994 1439 701 
Q 1688 409 2113 409 
Q 2538 409 2786 701 
Q 3034 994 3034 1497 
Q 3034 2003 2786 2293 
Q 2538 2584 2113 2584 
z
M 3366 4563 
L 3366 3988 
Q 3128 4100 2886 4159 
Q 2644 4219 2406 4219 
Q 1781 4219 1451 3797 
Q 1122 3375 1075 2522 
Q 1259 2794 1537 2939 
Q 1816 3084 2150 3084 
Q 2853 3084 3261 2657 
Q 3669 2231 3669 1497 
Q 3669 778 3244 343 
Q 2819 -91 2113 -91 
Q 1303 -91 875 529 
Q 447 1150 447 2328 
Q 447 3434 972 4092 
Q 1497 4750 2381 4750 
Q 2619 4750 2861 4703 
Q 3103 4656 3366 4563 
z
" id="DejaVuSans-36" transform="scale(0.015625)"/>
       </defs>
       <use xlink:href="#DejaVuSans-36"/>
       <use x="63.623047" xlink:href="#DejaVuSans-30"/>
       <use x="127.246094" xlink:href="#DejaVuSans-30"/>
      </g>
     </g>
    </g>
    <g id="xtick_3">
     <g id="line2d_3">
      <g>
       <use style="stroke:#000000;stroke-width:0.8;" x="218.9343" xlink:href="#ma184d63bed" y="307.584"/>
      </g>
     </g>
     <g id="text_3">
      <!-- 800 -->
      <g transform="translate(209.39055 322.182437)scale(0.1 -0.1)">
       <defs>
        <path d="M 2034 2216 
Q 1584 2216 1326 1975 
Q 1069 1734 1069 1313 
Q 1069 891 1326 650 
Q 1584 409 2034 409 
Q 2484 409 2743 651 
Q 3003 894 3003 1313 
Q 3003 1734 2745 1975 
Q 2488 2216 2034 2216 
z
M 1403 2484 
Q 997 2584 770 2862 
Q 544 3141 544 3541 
Q 544 4100 942 4425 
Q 1341 4750 2034 4750 
Q 2731 4750 3128 4425 
Q 3525 4100 3525 3541 
Q 3525 3141 3298 2862 
Q 3072 2584 2669 2484 
Q 3125 2378 3379 2068 
Q 3634 1759 3634 1313 
Q 3634 634 3220 271 
Q 2806 -91 2034 -91 
Q 1263 -91 848 271 
Q 434 634 434 1313 
Q 434 1759 690 2068 
Q 947 2378 1403 2484 
z
M 1172 3481 
Q 1172 3119 1398 2916 
Q 1625 2713 2034 2713 
Q 2441 2713 2670 2916 
Q 2900 3119 2900 3481 
Q 2900 3844 2670 4047 
Q 2441 4250 2034 4250 
Q 1625 4250 1398 4047 
Q 1172 3844 1172 3481 
z
" id="DejaVuSans-38" transform="scale(0.015625)"/>
       </defs>
       <use xlink:href="#DejaVuSans-38"/>
       <use x="63.623047" xlink:href="#DejaVuSans-30"/>
       <use x="127.246094" xlink:href="#DejaVuSans-30"/>
      </g>
     </g>
    </g>
    <g id="xtick_4">
     <g id="line2d_4">
      <g>
       <use style="stroke:#000000;stroke-width:0.8;" x="276.936647" xlink:href="#ma184d63bed" y="307.584"/>
      </g>
     </g>
     <g id="text_4">
      <!-- 1000 -->
      <g transform="translate(264.211647 322.182437)scale(0.1 -0.1)">
       <defs>
        <path d="M 794 531 
L 1825 531 
L 1825 4091 
L 703 3866 
L 703 4441 
L 1819 4666 
L 2450 4666 
L 2450 531 
L 3481 531 
L 3481 0 
L 794 0 
L 794 531 
z
" id="DejaVuSans-31" transform="scale(0.015625)"/>
       </defs>
       <use xlink:href="#DejaVuSans-31"/>
       <use x="63.623047" xlink:href="#DejaVuSans-30"/>
       <use x="127.246094" xlink:href="#DejaVuSans-30"/>
       <use x="190.869141" xlink:href="#DejaVuSans-30"/>
      </g>
     </g>
    </g>
    <g id="xtick_5">
     <g id="line2d_5">
      <g>
       <use style="stroke:#000000;stroke-width:0.8;" x="334.938995" xlink:href="#ma184d63bed" y="307.584"/>
      </g>
     </g>
     <g id="text_5">
      <!-- 1200 -->
      <g transform="translate(322.213995 322.182437)scale(0.1 -0.1)">
       <defs>
        <path d="M 1228 531 
L 3431 531 
L 3431 0 
L 469 0 
L 469 531 
Q 828 903 1448 1529 
Q 2069 2156 2228 2338 
Q 2531 2678 2651 2914 
Q 2772 3150 2772 3378 
Q 2772 3750 2511 3984 
Q 2250 4219 1831 4219 
Q 1534 4219 1204 4116 
Q 875 4013 500 3803 
L 500 4441 
Q 881 4594 1212 4672 
Q 1544 4750 1819 4750 
Q 2544 4750 2975 4387 
Q 3406 4025 3406 3419 
Q 3406 3131 3298 2873 
Q 3191 2616 2906 2266 
Q 2828 2175 2409 1742 
Q 1991 1309 1228 531 
z
" id="DejaVuSans-32" transform="scale(0.015625)"/>
       </defs>
       <use xlink:href="#DejaVuSans-31"/>
       <use x="63.623047" xlink:href="#DejaVuSans-32"/>
       <use x="127.246094" xlink:href="#DejaVuSans-30"/>
       <use x="190.869141" xlink:href="#DejaVuSans-30"/>
      </g>
     </g>
    </g>
    <g id="xtick_6">
     <g id="line2d_6">
      <g>
       <use style="stroke:#000000;stroke-width:0.8;" x="392.941342" xlink:href="#ma184d63bed" y="307.584"/>
      </g>
     </g>
     <g id="text_6">
      <!-- 1400 -->
      <g transform="translate(380.216342 322.182437)scale(0.1 -0.1)">
       <use xlink:href="#DejaVuSans-31"/>
       <use x="63.623047" xlink:href="#DejaVuSans-34"/>
       <use x="127.246094" xlink:href="#DejaVuSans-30"/>
       <use x="190.869141" xlink:href="#DejaVuSans-30"/>
      </g>
     </g>
    </g>
    <g id="text_7">
     <!-- Wavelength [nm] -->
     <g transform="translate(192.967812 335.860562)scale(0.1 -0.1)">
      <defs>
       <path d="M 213 4666 
L 850 4666 
L 1831 722 
L 2809 4666 
L 3519 4666 
L 4500 722 
L 5478 4666 
L 6119 4666 
L 4947 0 
L 4153 0 
L 3169 4050 
L 2175 0 
L 1381 0 
L 213 4666 
z
" id="DejaVuSans-57" transform="scale(0.015625)"/>
       <path d="M 2194 1759 
Q 1497 1759 1228 1600 
Q 959 1441 959 1056 
Q 959 750 1161 570 
Q 1363 391 1709 391 
Q 2188 391 2477 730 
Q 2766 1069 2766 1631 
L 2766 1759 
L 2194 1759 
z
M 3341 1997 
L 3341 0 
L 2766 0 
L 2766 531 
Q 2569 213 2275 61 
Q 1981 -91 1556 -91 
Q 1019 -91 701 211 
Q 384 513 384 1019 
Q 384 1609 779 1909 
Q 1175 2209 1959 2209 
L 2766 2209 
L 2766 2266 
Q 2766 2663 2505 2880 
Q 2244 3097 1772 3097 
Q 1472 3097 1187 3025 
Q 903 2953 641 2809 
L 641 3341 
Q 956 3463 1253 3523 
Q 1550 3584 1831 3584 
Q 2591 3584 2966 3190 
Q 3341 2797 3341 1997 
z
" id="DejaVuSans-61" transform="scale(0.015625)"/>
       <path d="M 191 3500 
L 800 3500 
L 1894 563 
L 2988 3500 
L 3597 3500 
L 2284 0 
L 1503 0 
L 191 3500 
z
" id="DejaVuSans-76" transform="scale(0.015625)"/>
       <path d="M 3597 1894 
L 3597 1613 
L 953 1613 
Q 991 1019 1311 708 
Q 1631 397 2203 397 
Q 2534 397 2845 478 
Q 3156 559 3463 722 
L 3463 178 
Q 3153 47 2828 -22 
Q 2503 -91 2169 -91 
Q 1331 -91 842 396 
Q 353 884 353 1716 
Q 353 2575 817 3079 
Q 1281 3584 2069 3584 
Q 2775 3584 3186 3129 
Q 3597 2675 3597 1894 
z
M 3022 2063 
Q 3016 2534 2758 2815 
Q 2500 3097 2075 3097 
Q 1594 3097 1305 2825 
Q 1016 2553 972 2059 
L 3022 2063 
z
" id="DejaVuSans-65" transform="scale(0.015625)"/>
       <path d="M 603 4863 
L 1178 4863 
L 1178 0 
L 603 0 
L 603 4863 
z
" id="DejaVuSans-6c" transform="scale(0.015625)"/>
       <path d="M 3513 2113 
L 3513 0 
L 2938 0 
L 2938 2094 
Q 2938 2591 2744 2837 
Q 2550 3084 2163 3084 
Q 1697 3084 1428 2787 
Q 1159 2491 1159 1978 
L 1159 0 
L 581 0 
L 581 3500 
L 1159 3500 
L 1159 2956 
Q 1366 3272 1645 3428 
Q 1925 3584 2291 3584 
Q 2894 3584 3203 3211 
Q 3513 2838 3513 2113 
z
" id="DejaVuSans-6e" transform="scale(0.015625)"/>
       <path d="M 2906 1791 
Q 2906 2416 2648 2759 
Q 2391 3103 1925 3103 
Q 1463 3103 1205 2759 
Q 947 2416 947 1791 
Q 947 1169 1205 825 
Q 1463 481 1925 481 
Q 2391 481 2648 825 
Q 2906 1169 2906 1791 
z
M 3481 434 
Q 3481 -459 3084 -895 
Q 2688 -1331 1869 -1331 
Q 1566 -1331 1297 -1286 
Q 1028 -1241 775 -1147 
L 775 -588 
Q 1028 -725 1275 -790 
Q 1522 -856 1778 -856 
Q 2344 -856 2625 -561 
Q 2906 -266 2906 331 
L 2906 616 
Q 2728 306 2450 153 
Q 2172 0 1784 0 
Q 1141 0 747 490 
Q 353 981 353 1791 
Q 353 2603 747 3093 
Q 1141 3584 1784 3584 
Q 2172 3584 2450 3431 
Q 2728 3278 2906 2969 
L 2906 3500 
L 3481 3500 
L 3481 434 
z
" id="DejaVuSans-67" transform="scale(0.015625)"/>
       <path d="M 1172 4494 
L 1172 3500 
L 2356 3500 
L 2356 3053 
L 1172 3053 
L 1172 1153 
Q 1172 725 1289 603 
Q 1406 481 1766 481 
L 2356 481 
L 2356 0 
L 1766 0 
Q 1100 0 847 248 
Q 594 497 594 1153 
L 594 3053 
L 172 3053 
L 172 3500 
L 594 3500 
L 594 4494 
L 1172 4494 
z
" id="DejaVuSans-74" transform="scale(0.015625)"/>
       <path d="M 3513 2113 
L 3513 0 
L 2938 0 
L 2938 2094 
Q 2938 2591 2744 2837 
Q 2550 3084 2163 3084 
Q 1697 3084 1428 2787 
Q 1159 2491 1159 1978 
L 1159 0 
L 581 0 
L 581 4863 
L 1159 4863 
L 1159 2956 
Q 1366 3272 1645 3428 
Q 1925 3584 2291 3584 
Q 2894 3584 3203 3211 
Q 3513 2838 3513 2113 
z
" id="DejaVuSans-68" transform="scale(0.015625)"/>
       <path id="DejaVuSans-20" transform="scale(0.015625)"/>
       <path d="M 550 4863 
L 1875 4863 
L 1875 4416 
L 1125 4416 
L 1125 -397 
L 1875 -397 
L 1875 -844 
L 550 -844 
L 550 4863 
z
" id="DejaVuSans-5b" transform="scale(0.015625)"/>
       <path d="M 3328 2828 
Q 3544 3216 3844 3400 
Q 4144 3584 4550 3584 
Q 5097 3584 5394 3201 
Q 5691 2819 5691 2113 
L 5691 0 
L 5113 0 
L 5113 2094 
Q 5113 2597 4934 2840 
Q 4756 3084 4391 3084 
Q 3944 3084 3684 2787 
Q 3425 2491 3425 1978 
L 3425 0 
L 2847 0 
L 2847 2094 
Q 2847 2600 2669 2842 
Q 2491 3084 2119 3084 
Q 1678 3084 1418 2786 
Q 1159 2488 1159 1978 
L 1159 0 
L 581 0 
L 581 3500 
L 1159 3500 
L 1159 2956 
Q 1356 3278 1631 3431 
Q 1906 3584 2284 3584 
Q 2666 3584 2933 3390 
Q 3200 3197 3328 2828 
z
" id="DejaVuSans-6d" transform="scale(0.015625)"/>
       <path d="M 1947 4863 
L 1947 -844 
L 622 -844 
L 622 -397 
L 1369 -397 
L 1369 4416 
L 622 4416 
L 622 4863 
L 1947 4863 
z
" id="DejaVuSans-5d" transform="scale(0.015625)"/>
      </defs>
      <use xlink:href="#DejaVuSans-57"/>
      <use x="92.501953" xlink:href="#DejaVuSans-61"/>
      <use x="153.78125" xlink:href="#DejaVuSans-76"/>
      <use x="212.960938" xlink:href="#DejaVuSans-65"/>
      <use x="274.484375" xlink:href="#DejaVuSans-6c"/>
      <use x="302.267578" xlink:href="#DejaVuSans-65"/>
      <use x="363.791016" xlink:href="#DejaVuSans-6e"/>
      <use x="427.169922" xlink:href="#DejaVuSans-67"/>
      <use x="490.646484" xlink:href="#DejaVuSans-74"/>
      <use x="529.855469" xlink:href="#DejaVuSans-68"/>
      <use x="593.234375" xlink:href="#DejaVuSans-20"/>
      <use x="625.021484" xlink:href="#DejaVuSans-5b"/>
      <use x="664.035156" xlink:href="#DejaVuSans-6e"/>
      <use x="727.414062" xlink:href="#DejaVuSans-6d"/>
      <use x="824.826172" xlink:href="#DejaVuSans-5d"/>
     </g>
    </g>
   </g>
   <g id="matplotlib.axis_2">
    <g id="ytick_1">
     <g id="line2d_7">
      <defs>
       <path d="M 0 0 
L -3.5 0 
" id="mb45f43435f" style="stroke:#000000;stroke-width:0.8;"/>
      </defs>
      <g>
       <use style="stroke:#000000;stroke-width:0.8;" x="57.6" xlink:href="#mb45f43435f" y="296.999141"/>
      </g>
     </g>
     <g id="text_8">
      <!-- 1000 -->
      <g transform="translate(25.15 300.79836)scale(0.1 -0.1)">
       <use xlink:href="#DejaVuSans-31"/>
       <use x="63.623047" xlink:href="#DejaVuSans-30"/>
       <use x="127.246094" xlink:href="#DejaVuSans-30"/>
       <use x="190.869141" xlink:href="#DejaVuSans-30"/>
      </g>
     </g>
    </g>
    <g id="ytick_2">
     <g id="line2d_8">
      <g>
       <use style="stroke:#000000;stroke-width:0.8;" x="57.6" xlink:href="#mb45f43435f" y="262.655019"/>
      </g>
     </g>
     <g id="text_9">
      <!-- 2000 -->
      <g transform="translate(25.15 266.454237)scale(0.1 -0.1)">
       <use xlink:href="#DejaVuSans-32"/>
       <use x="63.623047" xlink:href="#DejaVuSans-30"/>
       <use x="127.246094" xlink:href="#DejaVuSans-30"/>
       <use x="190.869141" xlink:href="#DejaVuSans-30"/>
      </g>
     </g>
    </g>
    <g id="ytick_3">
     <g id="line2d_9">
      <g>
       <use style="stroke:#000000;stroke-width:0.8;" x="57.6" xlink:href="#mb45f43435f" y="228.310896"/>
      </g>
     </g>
     <g id="text_10">
      <!-- 3000 -->
      <g transform="translate(25.15 232.110115)scale(0.1 -0.1)">
       <defs>
        <path d="M 2597 2516 
Q 3050 2419 3304 2112 
Q 3559 1806 3559 1356 
Q 3559 666 3084 287 
Q 2609 -91 1734 -91 
Q 1441 -91 1130 -33 
Q 819 25 488 141 
L 488 750 
Q 750 597 1062 519 
Q 1375 441 1716 441 
Q 2309 441 2620 675 
Q 2931 909 2931 1356 
Q 2931 1769 2642 2001 
Q 2353 2234 1838 2234 
L 1294 2234 
L 1294 2753 
L 1863 2753 
Q 2328 2753 2575 2939 
Q 2822 3125 2822 3475 
Q 2822 3834 2567 4026 
Q 2313 4219 1838 4219 
Q 1578 4219 1281 4162 
Q 984 4106 628 3988 
L 628 4550 
Q 988 4650 1302 4700 
Q 1616 4750 1894 4750 
Q 2613 4750 3031 4423 
Q 3450 4097 3450 3541 
Q 3450 3153 3228 2886 
Q 3006 2619 2597 2516 
z
" id="DejaVuSans-33" transform="scale(0.015625)"/>
       </defs>
       <use xlink:href="#DejaVuSans-33"/>
       <use x="63.623047" xlink:href="#DejaVuSans-30"/>
       <use x="127.246094" xlink:href="#DejaVuSans-30"/>
       <use x="190.869141" xlink:href="#DejaVuSans-30"/>
      </g>
     </g>
    </g>
    <g id="ytick_4">
     <g id="line2d_10">
      <g>
       <use style="stroke:#000000;stroke-width:0.8;" x="57.6" xlink:href="#mb45f43435f" y="193.966773"/>
      </g>
     </g>
     <g id="text_11">
      <!-- 4000 -->
      <g transform="translate(25.15 197.765992)scale(0.1 -0.1)">
       <use xlink:href="#DejaVuSans-34"/>
       <use x="63.623047" xlink:href="#DejaVuSans-30"/>
       <use x="127.246094" xlink:href="#DejaVuSans-30"/>
       <use x="190.869141" xlink:href="#DejaVuSans-30"/>
      </g>
     </g>
    </g>
    <g id="ytick_5">
     <g id="line2d_11">
      <g>
       <use style="stroke:#000000;stroke-width:0.8;" x="57.6" xlink:href="#mb45f43435f" y="159.622651"/>
      </g>
     </g>
     <g id="text_12">
      <!-- 5000 -->
      <g transform="translate(25.15 163.42187)scale(0.1 -0.1)">
       <defs>
        <path d="M 691 4666 
L 3169 4666 
L 3169 4134 
L 1269 4134 
L 1269 2991 
Q 1406 3038 1543 3061 
Q 1681 3084 1819 3084 
Q 2600 3084 3056 2656 
Q 3513 2228 3513 1497 
Q 3513 744 3044 326 
Q 2575 -91 1722 -91 
Q 1428 -91 1123 -41 
Q 819 9 494 109 
L 494 744 
Q 775 591 1075 516 
Q 1375 441 1709 441 
Q 2250 441 2565 725 
Q 2881 1009 2881 1497 
Q 2881 1984 2565 2268 
Q 2250 2553 1709 2553 
Q 1456 2553 1204 2497 
Q 953 2441 691 2322 
L 691 4666 
z
" id="DejaVuSans-35" transform="scale(0.015625)"/>
       </defs>
       <use xlink:href="#DejaVuSans-35"/>
       <use x="63.623047" xlink:href="#DejaVuSans-30"/>
       <use x="127.246094" xlink:href="#DejaVuSans-30"/>
       <use x="190.869141" xlink:href="#DejaVuSans-30"/>
      </g>
     </g>
    </g>
    <g id="ytick_6">
     <g id="line2d_12">
      <g>
       <use style="stroke:#000000;stroke-width:0.8;" x="57.6" xlink:href="#mb45f43435f" y="125.278528"/>
      </g>
     </g>
     <g id="text_13">
      <!-- 6000 -->
      <g transform="translate(25.15 129.077747)scale(0.1 -0.1)">
       <use xlink:href="#DejaVuSans-36"/>
       <use x="63.623047" xlink:href="#DejaVuSans-30"/>
       <use x="127.246094" xlink:href="#DejaVuSans-30"/>
       <use x="190.869141" xlink:href="#DejaVuSans-30"/>
      </g>
     </g>
    </g>
    <g id="ytick_7">
     <g id="line2d_13">
      <g>
       <use style="stroke:#000000;stroke-width:0.8;" x="57.6" xlink:href="#mb45f43435f" y="90.934405"/>
      </g>
     </g>
     <g id="text_14">
      <!-- 7000 -->
      <g transform="translate(25.15 94.733624)scale(0.1 -0.1)">
       <defs>
        <path d="M 525 4666 
L 3525 4666 
L 3525 4397 
L 1831 0 
L 1172 0 
L 2766 4134 
L 525 4134 
L 525 4666 
z
" id="DejaVuSans-37" transform="scale(0.015625)"/>
       </defs>
       <use xlink:href="#DejaVuSans-37"/>
       <use x="63.623047" xlink:href="#DejaVuSans-30"/>
       <use x="127.246094" xlink:href="#DejaVuSans-30"/>
       <use x="190.869141" xlink:href="#DejaVuSans-30"/>
      </g>
     </g>
    </g>
    <g id="ytick_8">
     <g id="line2d_14">
      <g>
       <use style="stroke:#000000;stroke-width:0.8;" x="57.6" xlink:href="#mb45f43435f" y="56.590283"/>
      </g>
     </g>
     <g id="text_15">
      <!-- 8000 -->
      <g transform="translate(25.15 60.389502)scale(0.1 -0.1)">
       <use xlink:href="#DejaVuSans-38"/>
       <use x="63.623047" xlink:href="#DejaVuSans-30"/>
       <use x="127.246094" xlink:href="#DejaVuSans-30"/>
       <use x="190.869141" xlink:href="#DejaVuSans-30"/>
      </g>
     </g>
    </g>
    <g id="text_16">
     <!-- Counts -->
     <g transform="translate(19.070312 191.981125)rotate(-90)scale(0.1 -0.1)">
      <defs>
       <path d="M 4122 4306 
L 4122 3641 
Q 3803 3938 3442 4084 
Q 3081 4231 2675 4231 
Q 1875 4231 1450 3742 
Q 1025 3253 1025 2328 
Q 1025 1406 1450 917 
Q 1875 428 2675 428 
Q 3081 428 3442 575 
Q 3803 722 4122 1019 
L 4122 359 
Q 3791 134 3420 21 
Q 3050 -91 2638 -91 
Q 1578 -91 968 557 
Q 359 1206 359 2328 
Q 359 3453 968 4101 
Q 1578 4750 2638 4750 
Q 3056 4750 3426 4639 
Q 3797 4528 4122 4306 
z
" id="DejaVuSans-43" transform="scale(0.015625)"/>
       <path d="M 1959 3097 
Q 1497 3097 1228 2736 
Q 959 2375 959 1747 
Q 959 1119 1226 758 
Q 1494 397 1959 397 
Q 2419 397 2687 759 
Q 2956 1122 2956 1747 
Q 2956 2369 2687 2733 
Q 2419 3097 1959 3097 
z
M 1959 3584 
Q 2709 3584 3137 3096 
Q 3566 2609 3566 1747 
Q 3566 888 3137 398 
Q 2709 -91 1959 -91 
Q 1206 -91 779 398 
Q 353 888 353 1747 
Q 353 2609 779 3096 
Q 1206 3584 1959 3584 
z
" id="DejaVuSans-6f" transform="scale(0.015625)"/>
       <path d="M 544 1381 
L 544 3500 
L 1119 3500 
L 1119 1403 
Q 1119 906 1312 657 
Q 1506 409 1894 409 
Q 2359 409 2629 706 
Q 2900 1003 2900 1516 
L 2900 3500 
L 3475 3500 
L 3475 0 
L 2900 0 
L 2900 538 
Q 2691 219 2414 64 
Q 2138 -91 1772 -91 
Q 1169 -91 856 284 
Q 544 659 544 1381 
z
M 1991 3584 
L 1991 3584 
z
" id="DejaVuSans-75" transform="scale(0.015625)"/>
       <path d="M 2834 3397 
L 2834 2853 
Q 2591 2978 2328 3040 
Q 2066 3103 1784 3103 
Q 1356 3103 1142 2972 
Q 928 2841 928 2578 
Q 928 2378 1081 2264 
Q 1234 2150 1697 2047 
L 1894 2003 
Q 2506 1872 2764 1633 
Q 3022 1394 3022 966 
Q 3022 478 2636 193 
Q 2250 -91 1575 -91 
Q 1294 -91 989 -36 
Q 684 19 347 128 
L 347 722 
Q 666 556 975 473 
Q 1284 391 1588 391 
Q 1994 391 2212 530 
Q 2431 669 2431 922 
Q 2431 1156 2273 1281 
Q 2116 1406 1581 1522 
L 1381 1569 
Q 847 1681 609 1914 
Q 372 2147 372 2553 
Q 372 3047 722 3315 
Q 1072 3584 1716 3584 
Q 2034 3584 2315 3537 
Q 2597 3491 2834 3397 
z
" id="DejaVuSans-73" transform="scale(0.015625)"/>
      </defs>
      <use xlink:href="#DejaVuSans-43"/>
      <use x="69.824219" xlink:href="#DejaVuSans-6f"/>
      <use x="131.005859" xlink:href="#DejaVuSans-75"/>
      <use x="194.384766" xlink:href="#DejaVuSans-6e"/>
      <use x="257.763672" xlink:href="#DejaVuSans-74"/>
      <use x="296.972656" xlink:href="#DejaVuSans-73"/>
     </g>
    </g>
   </g>
   <g id="line2d_15">
    <path clip-path="url(#p0a3c081fae)" d="M 73.832727 248.779993 
L 73.991327 261.006501 
L 74.149928 249.329499 
L 74.308528 225.975496 
L 74.467128 254.549806 
L 74.625728 242.185922 
L 74.784328 268.150078 
L 74.942928 266.50156 
L 75.101529 276.255291 
L 75.418729 239.438392 
L 75.577329 262.517642 
L 75.894529 228.17352 
L 76.21173 238.476756 
L 76.37033 220.892566 
L 76.52893 254.0003 
L 76.68753 251.25277 
L 76.84613 276.804797 
L 77.004731 259.220606 
L 77.163331 257.022583 
L 77.321931 258.945853 
L 77.480531 254.0003 
L 77.639131 204.68214 
L 77.797731 263.891407 
L 77.956332 203.170998 
L 78.114932 257.022583 
L 78.273532 232.569567 
L 78.432132 284.772634 
L 78.590732 279.140198 
L 78.749333 246.032463 
L 78.907933 271.034985 
L 79.066533 255.236688 
L 79.225133 253.176041 
L 79.383733 258.945853 
L 79.700934 284.91001 
L 80.018134 250.428511 
L 80.176734 275.843162 
L 80.335334 250.978017 
L 80.493934 264.16616 
L 80.652535 264.303537 
L 80.811135 277.216927 
L 80.969735 231.058426 
L 81.128335 253.862923 
L 81.286935 256.74783 
L 81.445535 268.836961 
L 81.762736 257.022583 
L 81.921336 220.892566 
L 82.079936 264.715666 
L 82.238536 258.671101 
L 82.555737 271.309738 
L 82.714337 271.309738 
L 82.872937 258.945853 
L 83.031537 278.865445 
L 83.190137 277.903809 
L 83.348737 239.713145 
L 83.507338 273.507761 
L 83.665938 249.879005 
L 83.824538 277.629056 
L 84.141738 243.971816 
L 84.300338 260.044865 
L 84.458939 260.319618 
L 84.776139 278.178562 
L 85.251939 237.652497 
L 85.41054 277.766433 
L 85.56914 264.715666 
L 85.72774 271.309738 
L 85.88634 253.725547 
L 86.20354 287.108034 
L 86.362141 226.937131 
L 86.679341 271.859244 
L 86.837941 250.016382 
L 86.996541 244.658698 
L 87.155141 265.952055 
L 87.472342 244.933451 
L 87.789542 279.002821 
L 87.948142 215.397506 
L 88.106742 268.150078 
L 88.265343 265.539925 
L 88.423943 277.354303 
L 88.582543 271.309738 
L 88.741143 258.533724 
L 89.058343 274.469397 
L 89.216944 266.364184 
L 89.375544 239.575768 
L 89.534144 285.871646 
L 89.692744 263.616654 
L 89.851344 280.651339 
L 90.009944 246.994099 
L 90.327145 281.338221 
L 90.485745 233.119073 
L 90.644345 279.002821 
L 90.802945 275.156279 
L 90.961545 263.204525 
L 91.120146 271.859244 
L 91.278746 266.089431 
L 91.437346 266.50156 
L 91.595946 285.871646 
L 91.754546 257.572089 
L 91.913147 266.226807 
L 92.071747 249.741629 
L 92.230347 277.903809 
L 92.388947 279.689704 
L 92.547547 233.668579 
L 92.864748 270.760232 
L 93.023348 274.881526 
L 93.181948 287.245411 
L 93.340548 259.08323 
L 93.657748 285.734269 
L 93.816349 257.572089 
L 94.133549 259.632736 
L 94.450749 269.386467 
L 94.609349 264.303537 
L 94.76795 270.897608 
L 94.92655 267.051066 
L 95.08515 220.892566 
L 95.24375 250.428511 
L 95.40235 253.58817 
L 95.56095 261.006501 
L 95.719551 247.268852 
L 95.878151 277.903809 
L 96.195351 264.853043 
L 96.353951 233.668579 
L 96.512551 259.357983 
L 96.671152 262.655019 
L 96.829752 242.735428 
L 96.988352 280.926092 
L 97.146952 271.721867 
L 97.305552 249.741629 
L 97.464152 250.291135 
L 97.622753 272.683503 
L 97.781353 254.137676 
L 97.939953 252.763911 
L 98.098553 270.073349 
L 98.257153 253.58817 
L 98.415753 264.990419 
L 98.574354 263.891407 
L 98.732954 242.598051 
L 98.891554 249.054746 
L 99.050154 268.012702 
L 99.208754 268.287455 
L 99.367354 275.293656 
L 99.525955 265.127796 
L 99.684555 233.943332 
L 99.843155 280.651339 
L 100.001755 268.562208 
L 100.160355 270.210726 
L 100.318955 293.015223 
L 100.477556 268.562208 
L 100.636156 272.683503 
L 100.953356 222.403707 
L 101.111956 267.188443 
L 101.270556 245.482957 
L 101.429157 290.542446 
L 101.587757 275.568409 
L 101.746357 279.82708 
L 101.904957 227.898767 
L 102.222157 273.645138 
L 102.380758 267.051066 
L 102.539358 280.788716 
L 102.856558 242.048545 
L 103.173758 279.277574 
L 103.490959 228.860402 
L 103.649559 268.424831 
L 103.808159 268.836961 
L 103.966759 259.357983 
L 104.12536 268.012702 
L 104.28396 243.559687 
L 104.60116 251.939652 
L 104.91836 271.721867 
L 105.076961 259.632736 
L 105.235561 267.463196 
L 105.394161 224.601731 
L 105.552761 256.885206 
L 105.711361 258.396348 
L 105.869961 263.067148 
L 106.028562 282.849363 
L 106.187162 266.364184 
L 106.504362 277.216927 
L 106.821562 268.836961 
L 106.980163 251.390147 
L 107.138763 271.309738 
L 107.297363 254.275053 
L 107.455963 260.319618 
L 107.614563 277.629056 
L 107.931764 246.994099 
L 108.090364 266.226807 
L 108.248964 260.731748 
L 108.407564 250.978017 
L 108.566164 284.497881 
L 108.724764 252.901288 
L 108.883365 270.897608 
L 109.041965 259.220606 
L 109.200565 269.111714 
L 109.359165 237.652497 
L 109.517765 272.683503 
L 109.676365 275.843162 
L 109.834966 243.971816 
L 110.152166 275.843162 
L 110.310766 262.380266 
L 110.469366 273.233009 
L 110.786567 262.517642 
L 110.945167 277.903809 
L 111.103767 252.077029 
L 111.420967 272.133997 
L 111.579567 277.216927 
L 111.738168 240.812157 
L 111.896768 283.398869 
L 112.055368 225.700743 
L 112.372568 248.91737 
L 112.531168 279.414951 
L 112.689769 269.24909 
L 113.006969 284.360504 
L 113.165569 268.836961 
L 113.324169 283.810998 
L 113.79997 252.901288 
L 113.95857 268.974337 
L 114.11717 268.699584 
L 114.27577 273.507761 
L 114.43437 255.374065 
L 114.592971 280.23921 
L 114.751571 275.980538 
L 114.910171 280.23921 
L 115.227371 249.329499 
L 115.544572 289.718187 
L 115.703172 273.370385 
L 115.861772 241.636416 
L 116.178972 285.871646 
L 116.337573 205.231646 
L 116.496173 247.680981 
L 116.654773 245.208204 
L 116.813373 178.305853 
L 116.971973 272.546126 
L 117.130573 225.700743 
L 117.289174 278.590692 
L 117.447774 273.782514 
L 117.606374 291.916211 
L 117.923574 264.303537 
L 118.240775 292.465717 
L 118.399375 244.383945 
L 119.192376 281.887727 
L 119.350976 284.223128 
L 119.509576 270.622855 
L 119.668176 267.875325 
L 119.985376 275.568409 
L 120.302577 242.048545 
L 120.461177 278.728068 
L 120.619777 284.772634 
L 120.778377 281.612974 
L 120.936977 189.570726 
L 121.095578 264.853043 
L 121.254178 268.836961 
L 121.412778 265.265172 
L 121.571378 270.210726 
L 121.729978 253.038664 
L 121.888578 283.398869 
L 122.047179 268.836961 
L 122.205779 273.645138 
L 122.364379 271.99662 
L 122.522979 283.810998 
L 122.681579 263.479278 
L 122.99878 280.788716 
L 123.15738 279.414951 
L 123.31598 272.271373 
L 123.47458 271.172361 
L 123.63318 287.108034 
L 123.950381 247.406228 
L 124.108981 272.133997 
L 124.426181 255.374065 
L 124.584781 273.095632 
L 124.743381 243.147557 
L 124.901982 283.261492 
L 125.219182 254.412429 
L 125.694982 281.887727 
L 125.853583 210.726705 
L 126.012183 266.91369 
L 126.170783 260.182242 
L 126.329383 264.028784 
L 126.487983 272.958256 
L 126.646583 254.275053 
L 126.805184 268.562208 
L 126.963784 258.945853 
L 127.122384 262.929772 
L 127.280984 272.40875 
L 127.439584 290.40507 
L 127.756785 279.277574 
L 127.915385 267.325819 
L 128.073985 284.635257 
L 128.232585 268.974337 
L 128.391185 229.409908 
L 128.708386 271.584491 
L 128.866986 262.380266 
L 129.025586 275.156279 
L 129.342786 271.309738 
L 129.501387 281.750351 
L 129.659987 274.469397 
L 129.818587 273.645138 
L 129.977187 259.08323 
L 130.135787 275.568409 
L 130.294387 270.622855 
L 130.452988 285.32214 
L 130.611588 269.66122 
L 130.770188 278.453315 
L 131.087388 258.945853 
L 131.404589 277.766433 
L 131.563189 295.213247 
L 131.880389 249.054746 
L 132.038989 265.952055 
L 132.35619 240.67478 
L 132.51479 287.65754 
L 132.67339 260.319618 
L 132.83199 264.303537 
L 132.99059 261.281254 
L 133.14919 279.689704 
L 133.466391 264.715666 
L 133.624991 265.814678 
L 133.783591 248.642617 
L 133.942191 269.111714 
L 134.100791 260.182242 
L 134.259392 286.970658 
L 134.893792 248.367864 
L 135.052392 283.810998 
L 135.210993 270.622855 
L 135.369593 291.366705 
L 135.528193 253.313417 
L 135.686793 288.344422 
L 135.845393 292.465717 
L 136.003993 264.440913 
L 136.162594 265.402549 
L 136.321194 265.402549 
L 136.479794 274.74415 
L 136.638394 274.74415 
L 136.796994 279.964457 
L 136.955594 279.277574 
L 137.114195 266.089431 
L 137.272795 280.926092 
L 137.589995 253.58817 
L 137.748595 265.402549 
L 137.907195 255.374065 
L 138.224396 281.063468 
L 138.382996 262.242889 
L 138.541596 276.804797 
L 138.700196 270.897608 
L 139.017397 294.114235 
L 139.175997 255.099312 
L 139.334597 262.655019 
L 139.493197 284.085751 
L 139.651797 264.303537 
L 139.810397 268.699584 
L 139.968998 281.750351 
L 140.127598 280.101833 
L 140.286198 264.028784 
L 140.444798 269.523843 
L 140.603398 279.689704 
L 140.761998 278.315939 
L 140.920599 281.200845 
L 141.079199 261.143877 
L 141.237799 266.776313 
L 141.396399 263.616654 
L 141.554999 275.843162 
L 141.7136 273.095632 
L 141.8722 254.549806 
L 142.0308 273.782514 
L 142.1894 278.453315 
L 142.5066 243.83444 
L 142.665201 268.562208 
L 142.823801 256.610453 
L 143.141001 280.513963 
L 143.299601 240.125274 
L 143.458201 272.546126 
L 143.775402 259.770112 
L 143.934002 278.041186 
L 144.092602 259.08323 
L 144.251202 281.750351 
L 144.409802 247.268852 
L 144.568403 249.604252 
L 144.885603 281.887727 
L 145.202803 258.808477 
L 145.361403 261.556007 
L 145.520004 246.581969 
L 145.837204 267.875325 
L 146.154404 258.258971 
L 146.313004 281.612974 
L 146.471605 273.507761 
L 146.630205 281.750351 
L 146.788805 237.92725 
L 146.947405 263.204525 
L 147.264605 240.537404 
L 147.423206 281.338221 
L 147.581806 257.297336 
L 147.899006 286.283775 
L 148.057606 257.984218 
L 148.216206 253.862923 
L 148.374807 280.651339 
L 148.533407 246.444593 
L 148.850607 273.645138 
L 149.009207 280.926092 
L 149.167807 267.875325 
L 149.485008 286.833281 
L 149.643608 228.585649 
L 149.802208 239.438392 
L 149.960808 258.533724 
L 150.119408 232.706944 
L 150.278009 270.622855 
L 150.436609 256.885206 
L 150.595209 276.530044 
L 150.753809 242.048545 
L 150.912409 263.754031 
L 151.071009 256.74783 
L 151.22961 293.976859 
L 151.38821 260.456995 
L 151.54681 274.881526 
L 151.70541 279.140198 
L 151.86401 279.964457 
L 152.02261 241.361663 
L 152.181211 266.91369 
L 152.498411 276.667421 
L 152.657011 267.188443 
L 152.815611 268.836961 
L 152.974211 257.984218 
L 153.132812 257.297336 
L 153.291412 283.398869 
L 153.450012 270.348102 
L 153.608612 275.705785 
L 153.767212 249.741629 
L 153.925812 257.159959 
L 154.243013 282.437233 
L 154.401613 246.444593 
L 154.560213 275.568409 
L 154.718813 271.309738 
L 154.877414 286.695905 
L 155.036014 279.414951 
L 155.194614 260.594371 
L 155.511814 281.887727 
L 155.670414 261.006501 
L 155.829015 271.172361 
L 155.987615 266.50156 
L 156.146215 251.390147 
L 156.304815 269.523843 
L 156.622015 247.680981 
L 156.780616 265.677302 
L 157.097816 258.533724 
L 157.256416 243.559687 
L 157.415016 264.57829 
L 157.573616 268.562208 
L 157.732217 254.549806 
L 157.890817 281.338221 
L 158.049417 268.287455 
L 158.208017 273.919891 
L 158.366617 271.721867 
L 158.525217 281.475598 
L 158.842418 265.814678 
L 159.001018 258.808477 
L 159.159618 260.456995 
L 159.318218 288.619175 
L 159.476818 226.112872 
L 159.635419 272.271373 
L 159.952619 274.469397 
L 160.111219 251.939652 
L 160.269819 256.473077 
L 160.428419 270.760232 
L 160.58702 248.91737 
L 160.74562 287.794917 
L 160.90422 288.619175 
L 161.06282 276.942174 
L 161.22142 283.810998 
L 161.38002 269.24909 
L 161.538621 282.025104 
L 161.697221 251.115394 
L 162.014421 276.530044 
L 162.173021 265.952055 
L 162.331621 271.447114 
L 162.490222 289.580811 
L 162.648822 288.207046 
L 162.807422 256.610453 
L 162.966022 274.606773 
L 163.124622 273.095632 
L 163.283222 244.521322 
L 163.600423 289.443434 
L 163.759023 257.984218 
L 163.917623 285.734269 
L 164.234823 263.067148 
L 164.393424 257.572089 
L 164.552024 268.562208 
L 164.710624 257.984218 
L 164.869224 268.699584 
L 165.027824 268.287455 
L 165.186424 216.908647 
L 165.503625 270.760232 
L 165.662225 271.034985 
L 165.820825 266.089431 
L 165.979425 274.469397 
L 166.138025 259.495359 
L 166.296626 267.325819 
L 166.455226 249.879005 
L 166.613826 275.980538 
L 166.772426 277.354303 
L 166.931026 253.038664 
L 167.248227 270.760232 
L 167.406827 246.032463 
L 167.565427 271.584491 
L 167.724027 211.550964 
L 168.041228 280.513963 
L 168.199828 259.907489 
L 168.358428 276.117915 
L 168.517028 275.705785 
L 168.675628 280.926092 
L 169.151429 266.50156 
L 169.310029 270.348102 
L 169.468629 235.454474 
L 169.627229 263.479278 
L 169.785829 250.428511 
L 169.94443 270.760232 
L 170.10303 275.843162 
L 170.26163 259.220606 
L 170.42023 282.16248 
L 170.57883 268.974337 
L 170.73743 278.178562 
L 171.054631 252.901288 
L 171.213231 272.271373 
L 171.371831 252.901288 
L 171.689031 283.673622 
L 171.847632 273.233009 
L 172.006232 246.307216 
L 172.323432 272.546126 
L 172.482032 253.176041 
L 172.640632 258.533724 
L 172.799233 284.085751 
L 173.116433 256.3357 
L 173.592233 283.810998 
L 173.750834 264.028784 
L 173.909434 263.616654 
L 174.068034 262.792395 
L 174.226634 267.737949 
L 174.385234 259.220606 
L 174.543834 258.396348 
L 174.861035 282.986739 
L 175.019635 282.299857 
L 175.336835 263.754031 
L 175.654036 271.99662 
L 175.812636 270.760232 
L 175.971236 265.952055 
L 176.129836 276.942174 
L 176.288436 272.271373 
L 176.447036 289.580811 
L 176.605637 281.338221 
L 176.764237 246.307216 
L 176.922837 255.786194 
L 177.081437 234.630215 
L 177.240037 257.434712 
L 177.398637 251.802276 
L 177.557238 261.968136 
L 177.715838 255.511441 
L 177.874438 254.0003 
L 178.033038 267.875325 
L 178.191638 265.814678 
L 178.350238 275.568409 
L 178.667439 259.220606 
L 178.826039 257.709465 
L 178.984639 251.25277 
L 179.143239 256.74783 
L 179.301839 285.184763 
L 179.46044 264.303537 
L 179.93624 291.366705 
L 180.09484 269.66122 
L 180.570641 252.626535 
L 180.729241 250.565888 
L 180.887841 280.101833 
L 181.046441 259.495359 
L 181.205042 270.210726 
L 181.363642 249.054746 
L 181.522242 275.293656 
L 181.680842 261.83076 
L 181.839442 265.677302 
L 181.998042 259.495359 
L 182.156643 260.456995 
L 182.315243 264.16616 
L 182.473843 250.565888 
L 182.632443 226.799755 
L 182.791043 278.315939 
L 182.949643 251.939652 
L 183.108244 272.820879 
L 183.266844 257.572089 
L 183.584044 282.711986 
L 183.742644 279.414951 
L 183.901244 292.74047 
L 184.059845 254.275053 
L 184.377045 266.089431 
L 184.535645 266.776313 
L 184.852845 250.978017 
L 185.170046 290.130317 
L 185.328646 267.737949 
L 185.487246 262.242889 
L 185.645846 275.980538 
L 185.804446 241.224286 
L 186.121647 278.041186 
L 186.280247 270.485479 
L 186.438847 277.766433 
L 186.597447 254.824559 
L 187.073248 273.233009 
L 187.231848 234.355462 
L 187.549048 276.255291 
L 187.707648 289.99294 
L 187.866249 269.24909 
L 188.024849 280.651339 
L 188.183449 252.763911 
L 188.342049 284.772634 
L 188.500649 269.24909 
L 188.659249 273.919891 
L 188.81785 245.208204 
L 189.13505 268.974337 
L 189.29365 252.626535 
L 189.45225 252.214405 
L 189.61085 286.283775 
L 189.769451 257.846842 
L 189.928051 259.495359 
L 190.086651 274.881526 
L 190.245251 256.060947 
L 190.562451 265.539925 
L 190.721052 255.923571 
L 190.879652 275.843162 
L 191.038252 262.792395 
L 191.196852 262.517642 
L 191.355452 249.879005 
L 191.514052 251.390147 
L 191.831253 264.440913 
L 191.989853 257.572089 
L 192.148453 261.968136 
L 192.307053 275.568409 
L 192.465654 270.073349 
L 192.624254 257.572089 
L 192.782854 227.211884 
L 192.941454 273.233009 
L 193.100054 278.178562 
L 193.417255 263.754031 
L 193.575855 279.277574 
L 193.734455 274.74415 
L 193.893055 254.549806 
L 194.051655 266.776313 
L 194.210255 255.374065 
L 194.368856 279.277574 
L 194.686056 257.846842 
L 194.844656 263.341901 
L 195.003256 252.901288 
L 195.161856 266.638937 
L 195.479057 244.933451 
L 195.796257 263.754031 
L 195.954857 259.495359 
L 196.272058 287.794917 
L 196.430658 240.400027 
L 196.747858 279.964457 
L 196.906458 257.022583 
L 197.065058 279.82708 
L 197.223659 260.319618 
L 197.382259 257.709465 
L 197.540859 264.853043 
L 197.699459 255.648818 
L 197.858059 271.309738 
L 198.016659 256.885206 
L 198.17526 286.695905 
L 198.33386 193.417267 
L 198.49246 278.041186 
L 198.65106 253.450794 
L 198.80966 250.565888 
L 198.96826 275.568409 
L 199.444061 256.060947 
L 199.602661 245.345581 
L 199.761261 255.099312 
L 199.919861 283.261492 
L 200.237062 263.754031 
L 200.554262 256.885206 
L 200.712862 272.546126 
L 200.871462 247.543605 
L 201.030063 246.994099 
L 201.188663 272.683503 
L 201.347263 227.898767 
L 201.505863 265.952055 
L 201.664463 274.606773 
L 201.823063 273.095632 
L 202.140264 281.200845 
L 202.298864 249.879005 
L 202.616064 270.897608 
L 202.774664 265.402549 
L 202.933265 267.875325 
L 203.250465 222.128954 
L 203.409065 260.182242 
L 203.567665 249.054746 
L 203.726265 281.887727 
L 203.884866 281.063468 
L 204.202066 256.198324 
L 204.519266 283.124116 
L 204.677867 260.869124 
L 204.836467 276.804797 
L 204.995067 264.57829 
L 205.153667 278.453315 
L 205.312267 279.002821 
L 205.470867 275.568409 
L 205.629468 280.651339 
L 205.788068 273.233009 
L 205.946668 236.965615 
L 206.263868 294.114235 
L 206.422468 253.725547 
L 206.581069 263.754031 
L 206.739669 287.794917 
L 206.898269 283.673622 
L 207.056869 259.907489 
L 207.215469 259.08323 
L 207.374069 250.565888 
L 207.53267 286.146399 
L 207.69127 232.020061 
L 207.84987 267.188443 
L 208.00847 243.83444 
L 208.32567 279.414951 
L 208.484271 258.533724 
L 208.801471 270.348102 
L 208.960071 260.182242 
L 209.118671 268.012702 
L 209.277271 254.137676 
L 209.435872 272.133997 
L 209.594472 264.028784 
L 209.753072 274.194644 
L 209.911672 253.038664 
L 210.070272 261.693383 
L 210.228872 279.552327 
L 210.387473 278.315939 
L 210.546073 258.258971 
L 210.704673 259.770112 
L 210.863273 271.309738 
L 211.021873 257.434712 
L 211.180473 257.984218 
L 211.339074 260.319618 
L 211.497674 281.200845 
L 211.656274 282.025104 
L 211.814874 251.527523 
L 211.973474 269.523843 
L 212.132074 272.958256 
L 212.290675 265.677302 
L 212.449275 268.287455 
L 212.607875 267.875325 
L 212.766475 259.495359 
L 212.925075 272.133997 
L 213.083675 258.396348 
L 213.242276 265.952055 
L 213.559476 246.307216 
L 213.718076 277.766433 
L 213.876676 276.255291 
L 214.035276 261.281254 
L 214.193877 262.929772 
L 214.352477 262.380266 
L 214.511077 253.176041 
L 214.669677 279.140198 
L 214.828277 266.776313 
L 214.986877 284.085751 
L 215.621278 251.390147 
L 215.779878 266.089431 
L 215.938478 266.91369 
L 216.097079 257.709465 
L 216.414279 271.584491 
L 216.572879 289.99294 
L 216.731479 251.527523 
L 216.890079 284.360504 
L 217.04868 256.74783 
L 217.20728 260.182242 
L 217.36588 270.622855 
L 217.52448 272.958256 
L 217.68308 265.127796 
L 217.841681 247.543605 
L 218.000281 271.859244 
L 218.158881 275.018903 
L 218.317481 261.83076 
L 218.476081 275.156279 
L 218.634681 270.348102 
L 218.793282 279.140198 
L 218.951882 267.325819 
L 219.110482 265.677302 
L 219.269082 286.009022 
L 219.427682 250.565888 
L 219.586282 277.354303 
L 219.744883 253.176041 
L 219.903483 262.655019 
L 220.062083 290.542446 
L 220.379283 245.895087 
L 220.537883 244.521322 
L 220.855084 284.223128 
L 221.013684 263.204525 
L 221.172284 265.539925 
L 221.330884 254.549806 
L 221.489484 259.357983 
L 221.648085 270.485479 
L 221.806685 269.66122 
L 221.965285 279.140198 
L 222.123885 256.885206 
L 222.282485 266.364184 
L 222.441085 204.544763 
L 222.599686 271.172361 
L 222.758286 276.117915 
L 222.916886 229.409908 
L 223.075486 262.517642 
L 223.234086 264.028784 
L 223.392686 248.91737 
L 223.551287 259.357983 
L 223.709887 256.198324 
L 223.868487 256.610453 
L 224.027087 274.33202 
L 224.185687 252.214405 
L 224.502888 261.281254 
L 224.661488 278.728068 
L 224.820088 264.990419 
L 224.978688 280.376586 
L 225.137288 249.329499 
L 225.295888 280.788716 
L 225.613089 257.159959 
L 225.771689 261.968136 
L 225.930289 275.431032 
L 226.088889 274.469397 
L 226.247489 278.453315 
L 226.40609 290.130317 
L 226.56469 237.102991 
L 226.88189 279.552327 
L 227.04049 282.16248 
L 227.19909 271.859244 
L 227.357691 253.176041 
L 227.516291 259.632736 
L 227.674891 271.859244 
L 227.833491 252.351782 
L 227.992091 264.303537 
L 228.150691 262.792395 
L 228.309292 237.652497 
L 228.626492 282.025104 
L 228.785092 252.626535 
L 229.102292 259.08323 
L 229.260893 285.047387 
L 229.419493 258.258971 
L 229.578093 259.08323 
L 229.736693 275.705785 
L 229.895293 275.156279 
L 230.053894 232.84432 
L 230.212494 270.073349 
L 230.371094 248.642617 
L 230.529694 253.038664 
L 230.846894 290.542446 
L 231.005495 267.875325 
L 231.164095 293.015223 
L 231.322695 270.073349 
L 231.639895 279.689704 
L 231.798495 276.117915 
L 232.115696 251.115394 
L 232.432896 285.047387 
L 232.591496 284.635257 
L 232.750096 232.294814 
L 232.908697 270.210726 
L 233.067297 251.25277 
L 233.384497 279.277574 
L 233.543097 289.855564 
L 233.701697 253.58817 
L 233.860298 279.964457 
L 234.177498 276.392668 
L 234.336098 230.921049 
L 234.653298 285.184763 
L 234.811899 266.776313 
L 234.970499 271.99662 
L 235.129099 268.012702 
L 235.287699 281.063468 
L 235.446299 272.820879 
L 235.604899 282.437233 
L 235.7635 261.556007 
L 235.9221 275.843162 
L 236.0807 272.40875 
L 236.2393 232.020061 
L 236.5565 278.728068 
L 236.873701 262.655019 
L 237.032301 283.261492 
L 237.190901 264.715666 
L 237.349501 273.370385 
L 237.666702 249.329499 
L 237.825302 261.83076 
L 237.983902 53.568 
L 238.142502 284.772634 
L 238.301102 276.804797 
L 238.459702 285.734269 
L 238.618303 253.58817 
L 238.776903 280.651339 
L 238.935503 256.060947 
L 239.094103 278.041186 
L 239.252703 269.111714 
L 239.411303 275.843162 
L 239.728504 272.683503 
L 240.045704 283.261492 
L 240.204304 239.850521 
L 240.362904 257.709465 
L 240.680105 246.581969 
L 240.838705 270.073349 
L 240.997305 264.440913 
L 241.155905 280.23921 
L 241.314505 270.897608 
L 241.473106 279.002821 
L 241.631706 255.648818 
L 241.790306 269.24909 
L 241.948906 266.364184 
L 242.107506 279.002821 
L 242.424707 236.416109 
L 242.583307 277.49168 
L 242.741907 232.84432 
L 242.900507 272.958256 
L 243.059107 253.725547 
L 243.217708 283.948375 
L 243.376308 280.513963 
L 243.534908 246.719346 
L 243.693508 282.025104 
L 244.010708 256.885206 
L 244.169309 252.489158 
L 244.327909 272.958256 
L 244.486509 272.546126 
L 244.645109 261.556007 
L 244.803709 277.354303 
L 244.962309 275.980538 
L 245.12091 275.705785 
L 245.27951 270.622855 
L 245.59671 243.42231 
L 245.75531 268.424831 
L 245.91391 265.539925 
L 246.072511 271.309738 
L 246.231111 243.83444 
L 246.389711 282.16248 
L 246.706911 258.533724 
L 246.865511 252.901288 
L 247.024112 277.766433 
L 247.182712 272.133997 
L 247.341312 270.622855 
L 247.499912 267.325819 
L 247.658512 260.044865 
L 247.817112 287.932293 
L 247.975713 260.182242 
L 248.134313 288.481799 
L 248.292913 258.258971 
L 248.451513 266.089431 
L 248.610113 262.380266 
L 248.768713 266.776313 
L 248.927314 267.737949 
L 249.085914 274.057267 
L 249.244514 266.91369 
L 249.403114 270.210726 
L 249.561714 240.125274 
L 249.878915 287.932293 
L 250.037515 278.453315 
L 250.196115 235.729227 
L 250.354715 263.891407 
L 250.513315 270.485479 
L 250.671915 285.32214 
L 250.989116 250.978017 
L 251.147716 261.968136 
L 251.464916 258.533724 
L 251.623516 259.907489 
L 251.782117 265.952055 
L 251.940717 255.236688 
L 252.099317 281.200845 
L 252.257917 268.974337 
L 252.416517 243.559687 
L 252.575117 281.475598 
L 252.733718 249.879005 
L 253.050918 272.133997 
L 253.209518 251.664899 
L 253.526718 274.194644 
L 253.685319 252.901288 
L 254.002519 286.146399 
L 254.161119 258.533724 
L 254.319719 258.258971 
L 254.478319 274.194644 
L 254.63692 250.291135 
L 254.95412 274.881526 
L 255.11272 271.309738 
L 255.27132 277.903809 
L 255.429921 279.414951 
L 255.747121 244.933451 
L 255.905721 280.788716 
L 256.222921 262.105513 
L 256.381522 266.226807 
L 256.540122 290.542446 
L 256.698722 278.315939 
L 256.857322 242.460675 
L 257.015922 244.383945 
L 257.333123 287.794917 
L 257.808923 255.648818 
L 257.967523 281.200845 
L 258.126123 269.935973 
L 258.284724 239.438392 
L 258.443324 268.424831 
L 258.601924 271.447114 
L 258.760524 268.424831 
L 258.919124 270.073349 
L 259.077724 295.488 
L 259.236325 273.919891 
L 259.394925 278.453315 
L 259.553525 254.687182 
L 259.712125 254.687182 
L 260.029325 277.766433 
L 260.187926 267.875325 
L 260.346526 265.402549 
L 260.505126 269.24909 
L 260.663726 216.221765 
L 260.822326 285.734269 
L 260.980926 265.402549 
L 261.139527 261.968136 
L 261.456727 266.364184 
L 261.615327 277.629056 
L 261.773927 242.185922 
L 261.932527 278.178562 
L 262.091128 281.338221 
L 262.249728 275.431032 
L 262.408328 260.456995 
L 262.566928 277.766433 
L 262.725528 276.942174 
L 262.884128 286.009022 
L 263.042729 217.458153 
L 263.201329 284.635257 
L 263.518529 249.604252 
L 263.677129 261.143877 
L 263.835729 246.444593 
L 264.31153 282.299857 
L 264.47013 276.117915 
L 264.62873 288.893928 
L 264.945931 267.737949 
L 265.104531 274.33202 
L 265.263131 268.699584 
L 265.421731 237.515121 
L 265.580331 265.677302 
L 265.738931 272.546126 
L 265.897532 272.820879 
L 266.056132 249.879005 
L 266.214732 268.287455 
L 266.373332 271.99662 
L 266.531932 251.939652 
L 266.690532 283.536245 
L 266.849133 224.601731 
L 267.007733 279.277574 
L 267.166333 244.109193 
L 267.324933 278.728068 
L 267.483533 273.370385 
L 267.642133 277.49168 
L 267.959334 249.192123 
L 268.117934 249.879005 
L 268.276534 223.090589 
L 268.593735 274.33202 
L 268.752335 268.974337 
L 268.910935 282.16248 
L 269.069535 261.968136 
L 269.228135 268.974337 
L 269.386735 234.630215 
L 269.545336 265.265172 
L 269.862536 251.390147 
L 270.021136 258.121595 
L 270.179736 243.971816 
L 270.338336 271.034985 
L 270.496937 275.843162 
L 270.655537 270.897608 
L 270.814137 276.667421 
L 271.131337 264.16616 
L 271.448538 275.568409 
L 271.607138 261.556007 
L 271.765738 285.32214 
L 272.082938 250.565888 
L 272.241538 275.018903 
L 272.400139 265.402549 
L 272.558739 270.622855 
L 272.717339 279.82708 
L 272.875939 268.287455 
L 273.034539 265.402549 
L 273.193139 271.99662 
L 273.35174 271.447114 
L 273.51034 249.604252 
L 273.66894 274.606773 
L 273.82754 255.923571 
L 273.98614 252.489158 
L 274.14474 282.437233 
L 274.303341 283.124116 
L 274.461941 249.879005 
L 274.620541 270.485479 
L 274.779141 272.40875 
L 274.937741 248.91737 
L 275.254942 278.590692 
L 275.413542 252.626535 
L 275.572142 278.041186 
L 275.730742 252.214405 
L 275.889342 281.475598 
L 276.047942 262.655019 
L 276.206543 276.117915 
L 276.365143 268.150078 
L 276.523743 271.447114 
L 276.682343 281.063468 
L 276.840943 276.392668 
L 276.999543 267.051066 
L 277.158144 269.935973 
L 277.316744 275.431032 
L 277.633944 233.531203 
L 277.792544 264.440913 
L 277.951144 269.24909 
L 278.109745 286.695905 
L 278.268345 231.470555 
L 278.585545 280.926092 
L 278.744145 273.233009 
L 278.902745 275.843162 
L 279.061346 236.278733 
L 279.219946 276.117915 
L 279.378546 278.178562 
L 279.537146 239.850521 
L 279.695746 273.095632 
L 279.854346 275.431032 
L 280.012947 271.721867 
L 280.330147 243.83444 
L 280.647347 282.849363 
L 280.805948 282.16248 
L 280.964548 249.329499 
L 281.123148 268.424831 
L 281.281748 272.271373 
L 281.598948 247.680981 
L 281.916149 271.309738 
L 282.074749 254.824559 
L 282.233349 256.3357 
L 282.550549 284.91001 
L 282.70915 251.115394 
L 282.86775 271.584491 
L 283.02635 265.127796 
L 283.18495 278.590692 
L 283.34355 256.610453 
L 283.50215 259.495359 
L 283.660751 277.216927 
L 283.977951 254.412429 
L 284.136551 282.16248 
L 284.295151 239.987898 
L 284.453751 276.117915 
L 284.612352 282.16248 
L 284.770952 278.453315 
L 284.929552 266.364184 
L 285.088152 277.49168 
L 285.246752 278.178562 
L 285.405352 284.360504 
L 285.563953 271.859244 
L 285.722553 281.063468 
L 285.881153 278.041186 
L 286.039753 290.542446 
L 286.198353 270.897608 
L 286.356953 275.293656 
L 286.515554 252.077029 
L 286.674154 274.74415 
L 286.832754 270.760232 
L 286.991354 250.840641 
L 287.149954 263.616654 
L 287.308554 240.67478 
L 287.467155 258.671101 
L 287.625755 261.693383 
L 287.784355 243.010181 
L 287.942955 248.50524 
L 288.101555 239.575768 
L 288.418756 274.33202 
L 288.735956 259.357983 
L 288.894556 222.815836 
L 289.053156 267.325819 
L 289.211756 269.386467 
L 289.370357 263.067148 
L 289.528957 266.50156 
L 289.687557 276.530044 
L 289.846157 263.891407 
L 290.004757 262.517642 
L 290.163357 279.414951 
L 290.480558 248.50524 
L 290.639158 269.66122 
L 290.797758 275.843162 
L 290.956358 258.396348 
L 291.114958 280.23921 
L 291.273559 268.150078 
L 291.432159 270.210726 
L 291.590759 284.360504 
L 291.907959 245.895087 
L 292.066559 292.877847 
L 292.22516 266.638937 
L 292.38376 280.926092 
L 292.54236 234.080709 
L 292.70096 270.760232 
L 292.85956 272.958256 
L 293.018161 265.814678 
L 293.176761 266.638937 
L 293.335361 258.808477 
L 293.493961 277.629056 
L 293.652561 273.919891 
L 293.969762 251.527523 
L 294.286962 276.392668 
L 294.445562 246.032463 
L 294.604162 264.853043 
L 294.762762 262.792395 
L 294.921363 280.23921 
L 295.079963 230.921049 
L 295.238563 237.789874 
L 295.397163 268.699584 
L 295.555763 259.08323 
L 295.714363 280.376586 
L 295.872964 264.303537 
L 296.031564 261.006501 
L 296.190164 267.737949 
L 296.348764 267.737949 
L 296.665964 259.770112 
L 296.824565 265.677302 
L 296.983165 254.275053 
L 297.141765 251.25277 
L 297.300365 287.520164 
L 297.458965 258.121595 
L 297.617565 253.725547 
L 297.776166 242.185922 
L 298.093366 270.348102 
L 298.251966 234.492838 
L 298.410566 264.57829 
L 298.569166 256.885206 
L 298.727767 263.891407 
L 298.886367 225.700743 
L 299.044967 277.629056 
L 299.203567 249.604252 
L 299.362167 245.895087 
L 299.520767 254.0003 
L 299.679368 270.622855 
L 299.837968 268.424831 
L 299.996568 245.345581 
L 300.313768 286.421152 
L 300.472368 275.980538 
L 300.630969 282.16248 
L 300.789569 248.50524 
L 300.948169 247.268852 
L 301.106769 284.635257 
L 301.265369 249.329499 
L 301.423969 239.987898 
L 301.58257 272.546126 
L 301.74117 265.539925 
L 301.89977 253.176041 
L 302.05837 270.760232 
L 302.21697 259.632736 
L 302.37557 286.970658 
L 302.851371 250.978017 
L 303.009971 252.626535 
L 303.327171 282.025104 
L 303.485772 275.293656 
L 303.644372 282.437233 
L 303.802972 229.272532 
L 304.120172 286.146399 
L 304.278772 256.610453 
L 304.437373 268.974337 
L 304.595973 272.546126 
L 304.754573 259.770112 
L 305.071773 281.887727 
L 305.388974 263.616654 
L 305.547574 286.421152 
L 305.706174 270.760232 
L 305.864774 279.002821 
L 306.023374 267.188443 
L 306.181975 267.325819 
L 306.340575 259.907489 
L 306.499175 259.08323 
L 306.657775 267.188443 
L 306.816375 253.725547 
L 306.974975 275.568409 
L 307.133576 271.859244 
L 307.292176 258.533724 
L 307.450776 255.374065 
L 307.767976 280.101833 
L 307.926576 257.159959 
L 308.085177 268.287455 
L 308.243777 259.495359 
L 308.402377 261.83076 
L 308.560977 260.731748 
L 308.719577 243.559687 
L 308.878177 267.737949 
L 309.036778 265.952055 
L 309.195378 258.671101 
L 309.353978 232.569567 
L 309.512578 271.584491 
L 309.671178 253.58817 
L 309.829778 253.725547 
L 309.988379 255.511441 
L 310.146979 275.705785 
L 310.305579 264.990419 
L 310.464179 281.612974 
L 310.781379 256.74783 
L 310.93998 190.532361 
L 311.09858 264.028784 
L 311.25718 268.012702 
L 311.41578 287.794917 
L 311.57438 267.325819 
L 311.73298 232.294814 
L 311.891581 279.140198 
L 312.050181 285.047387 
L 312.208781 272.958256 
L 312.367381 243.697063 
L 312.525981 272.271373 
L 312.684581 267.325819 
L 312.843182 234.355462 
L 313.001782 266.50156 
L 313.160382 272.958256 
L 313.318982 286.833281 
L 313.477582 259.495359 
L 313.636182 283.536245 
L 313.953383 268.562208 
L 314.111983 268.562208 
L 314.270583 246.994099 
L 314.429183 252.077029 
L 314.746384 271.034985 
L 314.904984 234.767591 
L 315.222184 250.291135 
L 315.380784 269.66122 
L 315.539384 249.879005 
L 315.697985 248.779993 
L 315.856585 262.242889 
L 316.015185 254.0003 
L 316.173785 236.690862 
L 316.332385 273.919891 
L 316.490985 282.986739 
L 316.649586 266.226807 
L 316.808186 277.903809 
L 316.966786 233.119073 
L 317.283986 271.034985 
L 317.442586 270.348102 
L 317.601187 273.507761 
L 317.759787 272.958256 
L 317.918387 264.715666 
L 318.076987 268.287455 
L 318.235587 262.105513 
L 318.394188 273.507761 
L 318.552788 274.606773 
L 318.711388 254.137676 
L 318.869988 249.741629 
L 319.028588 267.463196 
L 319.187188 245.482957 
L 319.504389 274.881526 
L 319.662989 240.262651 
L 319.821589 242.735428 
L 319.980189 248.779993 
L 320.138789 275.843162 
L 320.29739 257.159959 
L 320.45599 257.709465 
L 320.61459 255.786194 
L 320.93179 278.041186 
L 321.09039 278.590692 
L 321.248991 290.817199 
L 321.566191 242.735428 
L 321.724791 247.543605 
L 321.883391 265.539925 
L 322.041991 254.0003 
L 322.359192 282.16248 
L 322.676392 260.869124 
L 322.834992 281.887727 
L 322.993592 279.414951 
L 323.152193 253.862923 
L 323.310793 266.089431 
L 323.469393 264.990419 
L 323.627993 265.814678 
L 323.786593 256.198324 
L 323.945193 278.041186 
L 324.103794 246.994099 
L 324.262394 265.539925 
L 324.420994 231.333179 
L 324.579594 273.645138 
L 324.896794 264.715666 
L 325.055395 275.843162 
L 325.213995 246.581969 
L 325.372595 279.552327 
L 325.531195 276.804797 
L 325.689795 264.990419 
L 325.848395 235.042344 
L 326.006996 274.606773 
L 326.165596 258.396348 
L 326.324196 279.002821 
L 326.482796 275.431032 
L 326.641396 268.836961 
L 326.799996 273.919891 
L 326.958597 246.16984 
L 327.117197 273.233009 
L 327.275797 269.24909 
L 327.434397 235.866603 
L 327.592997 248.367864 
L 327.751597 233.119073 
L 327.910198 269.66122 
L 328.068798 247.818358 
L 328.227398 270.760232 
L 328.544598 240.400027 
L 328.703198 262.380266 
L 329.020399 272.271373 
L 329.178999 269.523843 
L 329.337599 231.470555 
L 329.496199 280.651339 
L 329.654799 244.658698 
L 329.8134 277.354303 
L 329.972 268.974337 
L 330.1306 271.447114 
L 330.2892 275.705785 
L 330.4478 257.434712 
L 330.6064 280.376586 
L 330.923601 259.907489 
L 331.082201 282.711986 
L 331.240801 250.016382 
L 331.399401 277.903809 
L 331.558002 245.620334 
L 331.716602 275.431032 
L 332.033802 264.440913 
L 332.192402 263.067148 
L 332.351002 270.348102 
L 332.509603 240.537404 
L 332.826803 279.82708 
L 332.985403 263.341901 
L 333.144003 270.897608 
L 333.302603 284.085751 
L 333.461204 259.357983 
L 333.619804 258.808477 
L 333.778404 252.901288 
L 333.937004 274.74415 
L 334.095604 278.315939 
L 334.412805 271.584491 
L 334.571405 257.022583 
L 334.730005 285.32214 
L 334.888605 241.361663 
L 335.047205 253.038664 
L 335.205805 238.202003 
L 335.364406 268.562208 
L 335.523006 258.671101 
L 335.681606 279.277574 
L 335.998806 266.364184 
L 336.157406 276.667421 
L 336.474607 261.41863 
L 336.633207 258.945853 
L 336.791807 273.095632 
L 336.950407 270.348102 
L 337.109007 251.939652 
L 337.267608 259.907489 
L 337.584808 287.65754 
L 337.902008 249.604252 
L 338.060608 252.763911 
L 338.219209 232.432191 
L 338.536409 278.453315 
L 338.695009 256.3357 
L 338.853609 281.338221 
L 339.012209 264.990419 
L 339.17081 272.133997 
L 339.32941 256.198324 
L 339.64661 267.463196 
L 339.96381 236.416109 
L 340.122411 257.434712 
L 340.281011 243.559687 
L 340.439611 253.176041 
L 340.598211 283.124116 
L 340.756811 261.968136 
L 340.915411 255.786194 
L 341.074012 280.651339 
L 341.232612 256.060947 
L 341.391212 275.431032 
L 341.549812 254.824559 
L 341.708412 261.281254 
L 341.867012 250.016382 
L 342.025613 258.808477 
L 342.184213 261.41863 
L 342.342813 241.911169 
L 342.501413 271.99662 
L 342.818613 246.032463 
L 342.977214 256.885206 
L 343.135814 247.131475 
L 343.453014 256.473077 
L 343.611614 235.317097 
L 343.928815 262.105513 
L 344.087415 248.093111 
L 344.246015 271.172361 
L 344.563215 266.50156 
L 344.721816 223.227966 
L 344.880416 269.66122 
L 345.039016 272.133997 
L 345.197616 268.150078 
L 345.514816 248.230487 
L 345.673417 280.23921 
L 346.149217 249.054746 
L 346.307817 253.313417 
L 346.466417 261.556007 
L 346.625018 280.101833 
L 346.942218 264.028784 
L 347.100818 274.33202 
L 347.259418 259.357983 
L 347.418018 257.846842 
L 347.576619 284.360504 
L 347.893819 231.745308 
L 348.052419 268.150078 
L 348.211019 244.658698 
L 348.369619 251.802276 
L 348.52822 266.776313 
L 348.68682 270.485479 
L 349.00402 236.828239 
L 349.16262 244.246569 
L 349.32122 268.150078 
L 349.479821 269.523843 
L 349.638421 274.057267 
L 349.955621 247.268852 
L 350.114221 260.731748 
L 350.272821 239.713145 
L 350.590022 278.315939 
L 350.907222 251.939652 
L 351.065822 285.871646 
L 351.224422 271.584491 
L 351.383023 281.338221 
L 351.858823 235.729227 
L 352.176023 262.242889 
L 352.334624 265.677302 
L 352.493224 242.598051 
L 352.651824 257.984218 
L 352.810424 251.664899 
L 352.969024 250.978017 
L 353.127624 269.935973 
L 353.444825 228.310896 
L 353.603425 242.048545 
L 353.762025 269.386467 
L 353.920625 276.667421 
L 354.237826 266.226807 
L 354.396426 259.770112 
L 354.555026 247.131475 
L 354.713626 276.667421 
L 355.030826 218.969295 
L 355.348027 270.073349 
L 355.506627 270.760232 
L 355.665227 246.032463 
L 355.823827 266.226807 
L 355.982427 265.814678 
L 356.299628 273.233009 
L 356.458228 251.25277 
L 356.616828 273.233009 
L 356.775428 265.265172 
L 356.934029 266.91369 
L 357.092629 246.994099 
L 357.251229 252.214405 
L 357.409829 281.612974 
L 357.727029 245.208204 
L 358.20283 277.766433 
L 358.36143 270.760232 
L 358.52003 268.974337 
L 358.67863 259.907489 
L 358.837231 269.935973 
L 358.995831 260.319618 
L 359.154431 267.188443 
L 359.471631 258.671101 
L 359.630231 263.341901 
L 359.788832 263.754031 
L 360.106032 278.453315 
L 360.264632 256.74783 
L 360.423232 267.051066 
L 360.581832 261.693383 
L 360.740433 266.226807 
L 360.899033 236.00398 
L 361.057633 280.101833 
L 361.216233 217.458153 
L 361.374833 254.961935 
L 361.533433 244.109193 
L 361.692034 265.539925 
L 361.850634 251.664899 
L 362.009234 223.914848 
L 362.326434 266.50156 
L 362.485034 260.182242 
L 362.643635 268.974337 
L 362.802235 270.073349 
L 363.119435 248.779993 
L 363.278035 229.409908 
L 363.595236 254.549806 
L 363.753836 233.805956 
L 364.071036 275.018903 
L 364.388236 247.955734 
L 364.546837 270.622855 
L 364.705437 260.319618 
L 364.864037 258.258971 
L 365.022637 274.057267 
L 365.339837 245.75771 
L 365.498438 250.291135 
L 365.815638 247.818358 
L 365.974238 250.978017 
L 366.132838 267.463196 
L 366.291438 214.298494 
L 366.450039 253.176041 
L 366.608639 246.581969 
L 366.767239 248.779993 
L 366.925839 273.507761 
L 367.40164 230.921049 
L 367.56024 268.012702 
L 367.71884 264.440913 
L 367.87744 247.955734 
L 368.03604 246.307216 
L 368.19464 250.840641 
L 368.353241 260.594371 
L 368.511841 277.766433 
L 368.670441 264.303537 
L 368.829041 273.782514 
L 368.987641 240.125274 
L 369.146242 247.680981 
L 369.304842 262.655019 
L 369.463442 243.010181 
L 369.780642 270.348102 
L 369.939242 262.929772 
L 370.097843 233.668579 
L 370.256443 258.808477 
L 370.573643 263.479278 
L 370.732243 247.406228 
L 370.890843 268.699584 
L 371.049444 270.760232 
L 371.208044 251.25277 
L 371.366644 255.923571 
L 371.525244 255.511441 
L 371.683844 241.911169 
L 371.842444 270.760232 
L 372.001045 243.284934 
L 372.318245 257.572089 
L 372.476845 259.220606 
L 372.635445 252.214405 
L 372.794045 253.176041 
L 372.952646 263.891407 
L 373.111246 232.981697 
L 373.269846 273.507761 
L 373.587046 275.156279 
L 373.745646 249.879005 
L 373.904247 246.856722 
L 374.221447 262.517642 
L 374.380047 234.904968 
L 374.697247 264.028784 
L 374.855848 253.725547 
L 375.014448 261.968136 
L 375.173048 256.610453 
L 375.331648 247.406228 
L 375.490248 254.275053 
L 375.648848 280.101833 
L 375.807449 240.400027 
L 375.966049 266.364184 
L 376.124649 263.341901 
L 376.283249 250.428511 
L 376.441849 248.779993 
L 376.600449 256.74783 
L 376.75905 257.022583 
L 376.91765 241.773792 
L 377.07625 238.064627 
L 377.23485 259.495359 
L 377.39345 255.648818 
L 377.55205 265.677302 
L 377.710651 251.25277 
L 378.027851 260.594371 
L 378.186451 250.153758 
L 378.345051 252.214405 
L 378.503651 239.575768 
L 378.662252 259.770112 
L 378.820852 258.945853 
L 378.979452 264.440913 
L 379.138052 244.796075 
L 379.455252 267.600572 
L 379.613853 222.67846 
L 379.931053 257.022583 
L 380.089653 252.077029 
L 380.248253 263.891407 
L 380.565454 242.185922 
L 380.724054 240.812157 
L 380.882654 262.517642 
L 381.041254 236.278733 
L 381.199854 247.680981 
L 381.358455 244.383945 
L 381.517055 227.76139 
L 381.675655 254.275053 
L 381.834255 241.08691 
L 381.992855 268.836961 
L 382.151455 240.537404 
L 382.310056 234.355462 
L 382.468656 250.565888 
L 382.627256 249.466876 
L 382.785856 226.112872 
L 382.944456 251.939652 
L 383.103056 209.35294 
L 383.261657 244.246569 
L 383.420257 233.25645 
L 383.578857 250.153758 
L 383.737457 254.412429 
L 383.896057 251.390147 
L 384.054657 225.563366 
L 384.371858 253.313417 
L 384.530458 249.466876 
L 384.689058 240.400027 
L 384.847658 187.922208 
L 385.006258 241.773792 
L 385.164859 208.391305 
L 385.482059 263.891407 
L 385.799259 233.25645 
L 385.957859 225.01386 
L 386.11646 239.713145 
L 386.27506 240.262651 
L 386.43366 234.630215 
L 386.59226 235.454474 
L 386.90946 245.620334 
L 387.068061 241.911169 
L 387.226661 240.949533 
L 387.385261 225.151237 
L 387.543861 243.971816 
L 387.702461 245.75771 
L 387.861061 221.716825 
L 388.019662 256.74783 
L 388.178262 235.59185 
L 388.336862 235.317097 
L 388.495462 235.729227 
L 388.654062 239.163639 
L 388.812662 245.75771 
L 389.129863 225.700743 
L 389.288463 226.525002 
L 389.447063 217.732906 
L 389.605663 246.16984 
L 389.764263 226.799755 
L 389.922864 227.211884 
L 390.081464 224.326978 
L 390.240064 245.208204 
L 390.398664 198.500198 
L 390.557264 228.17352 
L 390.874465 211.001458 
L 391.033065 220.755189 
L 391.191665 211.276211 
L 391.350265 228.448273 
L 391.508865 167.86524 
L 391.826066 231.882685 
L 391.984666 223.914848 
L 392.143266 224.189601 
L 392.301866 207.292293 
L 392.460466 236.278733 
L 392.619066 204.544763 
L 392.777667 220.755189 
L 392.936267 209.627693 
L 393.094867 228.310896 
L 393.253467 222.953213 
L 393.412067 193.417267 
L 393.570667 219.793554 
L 393.729268 218.007659 
L 393.887868 191.906126 
L 394.046468 220.480436 
L 394.205068 206.742787 
L 394.522269 198.500198 
L 394.680869 201.93461 
L 394.998069 212.10047 
L 395.156669 205.918528 
L 395.315269 172.94817 
L 395.47387 194.653656 
L 395.63247 183.93829 
L 395.79107 210.451952 
L 395.94967 198.088068 
L 396.10827 176.382583 
L 396.26687 172.94817 
L 396.425471 207.292293 
L 396.742671 162.919687 
L 396.901271 198.637574 
L 397.059871 160.03478 
L 397.218471 184.899925 
L 397.377072 179.404865 
L 397.535672 150.143673 
L 397.694272 167.453111 
L 397.852872 138.604048 
L 398.011472 136.680777 
L 398.170072 154.539721 
L 398.328673 137.917165 
L 398.487273 143.274848 
L 398.487273 143.274848 
" style="fill:none;stroke:#1f77b4;stroke-linecap:square;stroke-width:1.5;"/>
   </g>
   <g id="patch_3">
    <path d="M 57.6 307.584 
L 57.6 41.472 
" style="fill:none;stroke:#000000;stroke-linecap:square;stroke-linejoin:miter;stroke-width:0.8;"/>
   </g>
   <g id="patch_4">
    <path d="M 414.72 307.584 
L 414.72 41.472 
" style="fill:none;stroke:#000000;stroke-linecap:square;stroke-linejoin:miter;stroke-width:0.8;"/>
   </g>
   <g id="patch_5">
    <path d="M 57.6 307.584 
L 414.72 307.584 
" style="fill:none;stroke:#000000;stroke-linecap:square;stroke-linejoin:miter;stroke-width:0.8;"/>
   </g>
   <g id="patch_6">
    <path d="M 57.6 41.472 
L 414.72 41.472 
" style="fill:none;stroke:#000000;stroke-linecap:square;stroke-linejoin:miter;stroke-width:0.8;"/>
   </g>
   <g id="text_17">
    <!-- Background -->
    <g transform="translate(200.367188 35.472)scale(0.12 -0.12)">
     <defs>
      <path d="M 1259 2228 
L 1259 519 
L 2272 519 
Q 2781 519 3026 730 
Q 3272 941 3272 1375 
Q 3272 1813 3026 2020 
Q 2781 2228 2272 2228 
L 1259 2228 
z
M 1259 4147 
L 1259 2741 
L 2194 2741 
Q 2656 2741 2882 2914 
Q 3109 3088 3109 3444 
Q 3109 3797 2882 3972 
Q 2656 4147 2194 4147 
L 1259 4147 
z
M 628 4666 
L 2241 4666 
Q 2963 4666 3353 4366 
Q 3744 4066 3744 3513 
Q 3744 3084 3544 2831 
Q 3344 2578 2956 2516 
Q 3422 2416 3680 2098 
Q 3938 1781 3938 1306 
Q 3938 681 3513 340 
Q 3088 0 2303 0 
L 628 0 
L 628 4666 
z
" id="DejaVuSans-42" transform="scale(0.015625)"/>
      <path d="M 3122 3366 
L 3122 2828 
Q 2878 2963 2633 3030 
Q 2388 3097 2138 3097 
Q 1578 3097 1268 2742 
Q 959 2388 959 1747 
Q 959 1106 1268 751 
Q 1578 397 2138 397 
Q 2388 397 2633 464 
Q 2878 531 3122 666 
L 3122 134 
Q 2881 22 2623 -34 
Q 2366 -91 2075 -91 
Q 1284 -91 818 406 
Q 353 903 353 1747 
Q 353 2603 823 3093 
Q 1294 3584 2113 3584 
Q 2378 3584 2631 3529 
Q 2884 3475 3122 3366 
z
" id="DejaVuSans-63" transform="scale(0.015625)"/>
      <path d="M 581 4863 
L 1159 4863 
L 1159 1991 
L 2875 3500 
L 3609 3500 
L 1753 1863 
L 3688 0 
L 2938 0 
L 1159 1709 
L 1159 0 
L 581 0 
L 581 4863 
z
" id="DejaVuSans-6b" transform="scale(0.015625)"/>
      <path d="M 2631 2963 
Q 2534 3019 2420 3045 
Q 2306 3072 2169 3072 
Q 1681 3072 1420 2755 
Q 1159 2438 1159 1844 
L 1159 0 
L 581 0 
L 581 3500 
L 1159 3500 
L 1159 2956 
Q 1341 3275 1631 3429 
Q 1922 3584 2338 3584 
Q 2397 3584 2469 3576 
Q 2541 3569 2628 3553 
L 2631 2963 
z
" id="DejaVuSans-72" transform="scale(0.015625)"/>
      <path d="M 2906 2969 
L 2906 4863 
L 3481 4863 
L 3481 0 
L 2906 0 
L 2906 525 
Q 2725 213 2448 61 
Q 2172 -91 1784 -91 
Q 1150 -91 751 415 
Q 353 922 353 1747 
Q 353 2572 751 3078 
Q 1150 3584 1784 3584 
Q 2172 3584 2448 3432 
Q 2725 3281 2906 2969 
z
M 947 1747 
Q 947 1113 1208 752 
Q 1469 391 1925 391 
Q 2381 391 2643 752 
Q 2906 1113 2906 1747 
Q 2906 2381 2643 2742 
Q 2381 3103 1925 3103 
Q 1469 3103 1208 2742 
Q 947 2381 947 1747 
z
" id="DejaVuSans-64" transform="scale(0.015625)"/>
     </defs>
     <use xlink:href="#DejaVuSans-42"/>
     <use x="68.603516" xlink:href="#DejaVuSans-61"/>
     <use x="129.882812" xlink:href="#DejaVuSans-63"/>
     <use x="184.863281" xlink:href="#DejaVuSans-6b"/>
     <use x="242.773438" xlink:href="#DejaVuSans-67"/>
     <use x="306.25" xlink:href="#DejaVuSans-72"/>
     <use x="345.113281" xlink:href="#DejaVuSans-6f"/>
     <use x="406.294922" xlink:href="#DejaVuSans-75"/>
     <use x="469.673828" xlink:href="#DejaVuSans-6e"/>
     <use x="533.052734" xlink:href="#DejaVuSans-64"/>
    </g>
   </g>
  </g>
 </g>
 <defs>
  <clipPath id="p0a3c081fae">
   <rect height="266.112" width="357.12" x="57.6" y="41.472"/>
  </clipPath>
 </defs>
</svg>
