<?xml version="1.0" encoding="utf-8" standalone="no"?>
<!DOCTYPE svg PUBLIC "-//W3C//DTD SVG 1.1//EN"
  "http://www.w3.org/Graphics/SVG/1.1/DTD/svg11.dtd">
<svg height="345.6pt" version="1.1" viewBox="0 0 460.8 345.6" width="460.8pt" xmlns="http://www.w3.org/2000/svg" xmlns:xlink="http://www.w3.org/1999/xlink">
 <metadata>
  <rdf:RDF xmlns:cc="http://creativecommons.org/ns#" xmlns:dc="http://purl.org/dc/elements/1.1/" xmlns:rdf="http://www.w3.org/1999/02/22-rdf-syntax-ns#">
   <cc:Work>
    <dc:type rdf:resource="http://purl.org/dc/dcmitype/StillImage"/>
    <dc:date>2022-06-03T23:57:05.461053</dc:date>
    <dc:format>image/svg+xml</dc:format>
    <dc:creator>
     <cc:Agent>
      <dc:title>Matplotlib v3.4.1, https://matplotlib.org/</dc:title>
     </cc:Agent>
    </dc:creator>
   </cc:Work>
  </rdf:RDF>
 </metadata>
 <defs>
  <style type="text/css">*{stroke-linecap:butt;stroke-linejoin:round;}</style>
 </defs>
 <g id="figure_1">
  <g id="patch_1">
   <path d="M 0 345.6 
L 460.8 345.6 
L 460.8 0 
L 0 0 
z
" style="fill:#ffffff;"/>
  </g>
  <g id="axes_1">
   <g id="patch_2">
    <path d="M 57.6 307.584 
L 414.72 307.584 
L 414.72 41.472 
L 57.6 41.472 
z
" style="fill:#ffffff;"/>
   </g>
   <g id="matplotlib.axis_1">
    <g id="xtick_1">
     <g id="line2d_1">
      <defs>
       <path d="M 0 0 
L 0 3.5 
" id="m5f5a71f16c" style="stroke:#000000;stroke-width:0.8;"/>
      </defs>
      <g>
       <use style="stroke:#000000;stroke-width:0.8;" x="102.929605" xlink:href="#m5f5a71f16c" y="307.584"/>
      </g>
     </g>
     <g id="text_1">
      <!-- 400 -->
      <g transform="translate(93.385855 322.182437)scale(0.1 -0.1)">
       <defs>
        <path d="M 2419 4116 
L 825 1625 
L 2419 1625 
L 2419 4116 
z
M 2253 4666 
L 3047 4666 
L 3047 1625 
L 3713 1625 
L 3713 1100 
L 3047 1100 
L 3047 0 
L 2419 0 
L 2419 1100 
L 313 1100 
L 313 1709 
L 2253 4666 
z
" id="DejaVuSans-34" transform="scale(0.015625)"/>
        <path d="M 2034 4250 
Q 1547 4250 1301 3770 
Q 1056 3291 1056 2328 
Q 1056 1369 1301 889 
Q 1547 409 2034 409 
Q 2525 409 2770 889 
Q 3016 1369 3016 2328 
Q 3016 3291 2770 3770 
Q 2525 4250 2034 4250 
z
M 2034 4750 
Q 2819 4750 3233 4129 
Q 3647 3509 3647 2328 
Q 3647 1150 3233 529 
Q 2819 -91 2034 -91 
Q 1250 -91 836 529 
Q 422 1150 422 2328 
Q 422 3509 836 4129 
Q 1250 4750 2034 4750 
z
" id="DejaVuSans-30" transform="scale(0.015625)"/>
       </defs>
       <use xlink:href="#DejaVuSans-34"/>
       <use x="63.623047" xlink:href="#DejaVuSans-30"/>
       <use x="127.246094" xlink:href="#DejaVuSans-30"/>
      </g>
     </g>
    </g>
    <g id="xtick_2">
     <g id="line2d_2">
      <g>
       <use style="stroke:#000000;stroke-width:0.8;" x="160.931952" xlink:href="#m5f5a71f16c" y="307.584"/>
      </g>
     </g>
     <g id="text_2">
      <!-- 600 -->
      <g transform="translate(151.388202 322.182437)scale(0.1 -0.1)">
       <defs>
        <path d="M 2113 2584 
Q 1688 2584 1439 2293 
Q 1191 2003 1191 1497 
Q 1191 994 1439 701 
Q 1688 409 2113 409 
Q 2538 409 2786 701 
Q 3034 994 3034 1497 
Q 3034 2003 2786 2293 
Q 2538 2584 2113 2584 
z
M 3366 4563 
L 3366 3988 
Q 3128 4100 2886 4159 
Q 2644 4219 2406 4219 
Q 1781 4219 1451 3797 
Q 1122 3375 1075 2522 
Q 1259 2794 1537 2939 
Q 1816 3084 2150 3084 
Q 2853 3084 3261 2657 
Q 3669 2231 3669 1497 
Q 3669 778 3244 343 
Q 2819 -91 2113 -91 
Q 1303 -91 875 529 
Q 447 1150 447 2328 
Q 447 3434 972 4092 
Q 1497 4750 2381 4750 
Q 2619 4750 2861 4703 
Q 3103 4656 3366 4563 
z
" id="DejaVuSans-36" transform="scale(0.015625)"/>
       </defs>
       <use xlink:href="#DejaVuSans-36"/>
       <use x="63.623047" xlink:href="#DejaVuSans-30"/>
       <use x="127.246094" xlink:href="#DejaVuSans-30"/>
      </g>
     </g>
    </g>
    <g id="xtick_3">
     <g id="line2d_3">
      <g>
       <use style="stroke:#000000;stroke-width:0.8;" x="218.9343" xlink:href="#m5f5a71f16c" y="307.584"/>
      </g>
     </g>
     <g id="text_3">
      <!-- 800 -->
      <g transform="translate(209.39055 322.182437)scale(0.1 -0.1)">
       <defs>
        <path d="M 2034 2216 
Q 1584 2216 1326 1975 
Q 1069 1734 1069 1313 
Q 1069 891 1326 650 
Q 1584 409 2034 409 
Q 2484 409 2743 651 
Q 3003 894 3003 1313 
Q 3003 1734 2745 1975 
Q 2488 2216 2034 2216 
z
M 1403 2484 
Q 997 2584 770 2862 
Q 544 3141 544 3541 
Q 544 4100 942 4425 
Q 1341 4750 2034 4750 
Q 2731 4750 3128 4425 
Q 3525 4100 3525 3541 
Q 3525 3141 3298 2862 
Q 3072 2584 2669 2484 
Q 3125 2378 3379 2068 
Q 3634 1759 3634 1313 
Q 3634 634 3220 271 
Q 2806 -91 2034 -91 
Q 1263 -91 848 271 
Q 434 634 434 1313 
Q 434 1759 690 2068 
Q 947 2378 1403 2484 
z
M 1172 3481 
Q 1172 3119 1398 2916 
Q 1625 2713 2034 2713 
Q 2441 2713 2670 2916 
Q 2900 3119 2900 3481 
Q 2900 3844 2670 4047 
Q 2441 4250 2034 4250 
Q 1625 4250 1398 4047 
Q 1172 3844 1172 3481 
z
" id="DejaVuSans-38" transform="scale(0.015625)"/>
       </defs>
       <use xlink:href="#DejaVuSans-38"/>
       <use x="63.623047" xlink:href="#DejaVuSans-30"/>
       <use x="127.246094" xlink:href="#DejaVuSans-30"/>
      </g>
     </g>
    </g>
    <g id="xtick_4">
     <g id="line2d_4">
      <g>
       <use style="stroke:#000000;stroke-width:0.8;" x="276.936647" xlink:href="#m5f5a71f16c" y="307.584"/>
      </g>
     </g>
     <g id="text_4">
      <!-- 1000 -->
      <g transform="translate(264.211647 322.182437)scale(0.1 -0.1)">
       <defs>
        <path d="M 794 531 
L 1825 531 
L 1825 4091 
L 703 3866 
L 703 4441 
L 1819 4666 
L 2450 4666 
L 2450 531 
L 3481 531 
L 3481 0 
L 794 0 
L 794 531 
z
" id="DejaVuSans-31" transform="scale(0.015625)"/>
       </defs>
       <use xlink:href="#DejaVuSans-31"/>
       <use x="63.623047" xlink:href="#DejaVuSans-30"/>
       <use x="127.246094" xlink:href="#DejaVuSans-30"/>
       <use x="190.869141" xlink:href="#DejaVuSans-30"/>
      </g>
     </g>
    </g>
    <g id="xtick_5">
     <g id="line2d_5">
      <g>
       <use style="stroke:#000000;stroke-width:0.8;" x="334.938995" xlink:href="#m5f5a71f16c" y="307.584"/>
      </g>
     </g>
     <g id="text_5">
      <!-- 1200 -->
      <g transform="translate(322.213995 322.182437)scale(0.1 -0.1)">
       <defs>
        <path d="M 1228 531 
L 3431 531 
L 3431 0 
L 469 0 
L 469 531 
Q 828 903 1448 1529 
Q 2069 2156 2228 2338 
Q 2531 2678 2651 2914 
Q 2772 3150 2772 3378 
Q 2772 3750 2511 3984 
Q 2250 4219 1831 4219 
Q 1534 4219 1204 4116 
Q 875 4013 500 3803 
L 500 4441 
Q 881 4594 1212 4672 
Q 1544 4750 1819 4750 
Q 2544 4750 2975 4387 
Q 3406 4025 3406 3419 
Q 3406 3131 3298 2873 
Q 3191 2616 2906 2266 
Q 2828 2175 2409 1742 
Q 1991 1309 1228 531 
z
" id="DejaVuSans-32" transform="scale(0.015625)"/>
       </defs>
       <use xlink:href="#DejaVuSans-31"/>
       <use x="63.623047" xlink:href="#DejaVuSans-32"/>
       <use x="127.246094" xlink:href="#DejaVuSans-30"/>
       <use x="190.869141" xlink:href="#DejaVuSans-30"/>
      </g>
     </g>
    </g>
    <g id="xtick_6">
     <g id="line2d_6">
      <g>
       <use style="stroke:#000000;stroke-width:0.8;" x="392.941342" xlink:href="#m5f5a71f16c" y="307.584"/>
      </g>
     </g>
     <g id="text_6">
      <!-- 1400 -->
      <g transform="translate(380.216342 322.182437)scale(0.1 -0.1)">
       <use xlink:href="#DejaVuSans-31"/>
       <use x="63.623047" xlink:href="#DejaVuSans-34"/>
       <use x="127.246094" xlink:href="#DejaVuSans-30"/>
       <use x="190.869141" xlink:href="#DejaVuSans-30"/>
      </g>
     </g>
    </g>
    <g id="text_7">
     <!-- Wavelength [nm] -->
     <g transform="translate(192.967812 335.860562)scale(0.1 -0.1)">
      <defs>
       <path d="M 213 4666 
L 850 4666 
L 1831 722 
L 2809 4666 
L 3519 4666 
L 4500 722 
L 5478 4666 
L 6119 4666 
L 4947 0 
L 4153 0 
L 3169 4050 
L 2175 0 
L 1381 0 
L 213 4666 
z
" id="DejaVuSans-57" transform="scale(0.015625)"/>
       <path d="M 2194 1759 
Q 1497 1759 1228 1600 
Q 959 1441 959 1056 
Q 959 750 1161 570 
Q 1363 391 1709 391 
Q 2188 391 2477 730 
Q 2766 1069 2766 1631 
L 2766 1759 
L 2194 1759 
z
M 3341 1997 
L 3341 0 
L 2766 0 
L 2766 531 
Q 2569 213 2275 61 
Q 1981 -91 1556 -91 
Q 1019 -91 701 211 
Q 384 513 384 1019 
Q 384 1609 779 1909 
Q 1175 2209 1959 2209 
L 2766 2209 
L 2766 2266 
Q 2766 2663 2505 2880 
Q 2244 3097 1772 3097 
Q 1472 3097 1187 3025 
Q 903 2953 641 2809 
L 641 3341 
Q 956 3463 1253 3523 
Q 1550 3584 1831 3584 
Q 2591 3584 2966 3190 
Q 3341 2797 3341 1997 
z
" id="DejaVuSans-61" transform="scale(0.015625)"/>
       <path d="M 191 3500 
L 800 3500 
L 1894 563 
L 2988 3500 
L 3597 3500 
L 2284 0 
L 1503 0 
L 191 3500 
z
" id="DejaVuSans-76" transform="scale(0.015625)"/>
       <path d="M 3597 1894 
L 3597 1613 
L 953 1613 
Q 991 1019 1311 708 
Q 1631 397 2203 397 
Q 2534 397 2845 478 
Q 3156 559 3463 722 
L 3463 178 
Q 3153 47 2828 -22 
Q 2503 -91 2169 -91 
Q 1331 -91 842 396 
Q 353 884 353 1716 
Q 353 2575 817 3079 
Q 1281 3584 2069 3584 
Q 2775 3584 3186 3129 
Q 3597 2675 3597 1894 
z
M 3022 2063 
Q 3016 2534 2758 2815 
Q 2500 3097 2075 3097 
Q 1594 3097 1305 2825 
Q 1016 2553 972 2059 
L 3022 2063 
z
" id="DejaVuSans-65" transform="scale(0.015625)"/>
       <path d="M 603 4863 
L 1178 4863 
L 1178 0 
L 603 0 
L 603 4863 
z
" id="DejaVuSans-6c" transform="scale(0.015625)"/>
       <path d="M 3513 2113 
L 3513 0 
L 2938 0 
L 2938 2094 
Q 2938 2591 2744 2837 
Q 2550 3084 2163 3084 
Q 1697 3084 1428 2787 
Q 1159 2491 1159 1978 
L 1159 0 
L 581 0 
L 581 3500 
L 1159 3500 
L 1159 2956 
Q 1366 3272 1645 3428 
Q 1925 3584 2291 3584 
Q 2894 3584 3203 3211 
Q 3513 2838 3513 2113 
z
" id="DejaVuSans-6e" transform="scale(0.015625)"/>
       <path d="M 2906 1791 
Q 2906 2416 2648 2759 
Q 2391 3103 1925 3103 
Q 1463 3103 1205 2759 
Q 947 2416 947 1791 
Q 947 1169 1205 825 
Q 1463 481 1925 481 
Q 2391 481 2648 825 
Q 2906 1169 2906 1791 
z
M 3481 434 
Q 3481 -459 3084 -895 
Q 2688 -1331 1869 -1331 
Q 1566 -1331 1297 -1286 
Q 1028 -1241 775 -1147 
L 775 -588 
Q 1028 -725 1275 -790 
Q 1522 -856 1778 -856 
Q 2344 -856 2625 -561 
Q 2906 -266 2906 331 
L 2906 616 
Q 2728 306 2450 153 
Q 2172 0 1784 0 
Q 1141 0 747 490 
Q 353 981 353 1791 
Q 353 2603 747 3093 
Q 1141 3584 1784 3584 
Q 2172 3584 2450 3431 
Q 2728 3278 2906 2969 
L 2906 3500 
L 3481 3500 
L 3481 434 
z
" id="DejaVuSans-67" transform="scale(0.015625)"/>
       <path d="M 1172 4494 
L 1172 3500 
L 2356 3500 
L 2356 3053 
L 1172 3053 
L 1172 1153 
Q 1172 725 1289 603 
Q 1406 481 1766 481 
L 2356 481 
L 2356 0 
L 1766 0 
Q 1100 0 847 248 
Q 594 497 594 1153 
L 594 3053 
L 172 3053 
L 172 3500 
L 594 3500 
L 594 4494 
L 1172 4494 
z
" id="DejaVuSans-74" transform="scale(0.015625)"/>
       <path d="M 3513 2113 
L 3513 0 
L 2938 0 
L 2938 2094 
Q 2938 2591 2744 2837 
Q 2550 3084 2163 3084 
Q 1697 3084 1428 2787 
Q 1159 2491 1159 1978 
L 1159 0 
L 581 0 
L 581 4863 
L 1159 4863 
L 1159 2956 
Q 1366 3272 1645 3428 
Q 1925 3584 2291 3584 
Q 2894 3584 3203 3211 
Q 3513 2838 3513 2113 
z
" id="DejaVuSans-68" transform="scale(0.015625)"/>
       <path id="DejaVuSans-20" transform="scale(0.015625)"/>
       <path d="M 550 4863 
L 1875 4863 
L 1875 4416 
L 1125 4416 
L 1125 -397 
L 1875 -397 
L 1875 -844 
L 550 -844 
L 550 4863 
z
" id="DejaVuSans-5b" transform="scale(0.015625)"/>
       <path d="M 3328 2828 
Q 3544 3216 3844 3400 
Q 4144 3584 4550 3584 
Q 5097 3584 5394 3201 
Q 5691 2819 5691 2113 
L 5691 0 
L 5113 0 
L 5113 2094 
Q 5113 2597 4934 2840 
Q 4756 3084 4391 3084 
Q 3944 3084 3684 2787 
Q 3425 2491 3425 1978 
L 3425 0 
L 2847 0 
L 2847 2094 
Q 2847 2600 2669 2842 
Q 2491 3084 2119 3084 
Q 1678 3084 1418 2786 
Q 1159 2488 1159 1978 
L 1159 0 
L 581 0 
L 581 3500 
L 1159 3500 
L 1159 2956 
Q 1356 3278 1631 3431 
Q 1906 3584 2284 3584 
Q 2666 3584 2933 3390 
Q 3200 3197 3328 2828 
z
" id="DejaVuSans-6d" transform="scale(0.015625)"/>
       <path d="M 1947 4863 
L 1947 -844 
L 622 -844 
L 622 -397 
L 1369 -397 
L 1369 4416 
L 622 4416 
L 622 4863 
L 1947 4863 
z
" id="DejaVuSans-5d" transform="scale(0.015625)"/>
      </defs>
      <use xlink:href="#DejaVuSans-57"/>
      <use x="92.501953" xlink:href="#DejaVuSans-61"/>
      <use x="153.78125" xlink:href="#DejaVuSans-76"/>
      <use x="212.960938" xlink:href="#DejaVuSans-65"/>
      <use x="274.484375" xlink:href="#DejaVuSans-6c"/>
      <use x="302.267578" xlink:href="#DejaVuSans-65"/>
      <use x="363.791016" xlink:href="#DejaVuSans-6e"/>
      <use x="427.169922" xlink:href="#DejaVuSans-67"/>
      <use x="490.646484" xlink:href="#DejaVuSans-74"/>
      <use x="529.855469" xlink:href="#DejaVuSans-68"/>
      <use x="593.234375" xlink:href="#DejaVuSans-20"/>
      <use x="625.021484" xlink:href="#DejaVuSans-5b"/>
      <use x="664.035156" xlink:href="#DejaVuSans-6e"/>
      <use x="727.414062" xlink:href="#DejaVuSans-6d"/>
      <use x="824.826172" xlink:href="#DejaVuSans-5d"/>
     </g>
    </g>
   </g>
   <g id="matplotlib.axis_2">
    <g id="ytick_1">
     <g id="line2d_7">
      <defs>
       <path d="M 0 0 
L -3.5 0 
" id="m36450afda7" style="stroke:#000000;stroke-width:0.8;"/>
      </defs>
      <g>
       <use style="stroke:#000000;stroke-width:0.8;" x="57.6" xlink:href="#m36450afda7" y="298.076108"/>
      </g>
     </g>
     <g id="text_8">
      <!-- 1000 -->
      <g transform="translate(25.15 301.875327)scale(0.1 -0.1)">
       <use xlink:href="#DejaVuSans-31"/>
       <use x="63.623047" xlink:href="#DejaVuSans-30"/>
       <use x="127.246094" xlink:href="#DejaVuSans-30"/>
       <use x="190.869141" xlink:href="#DejaVuSans-30"/>
      </g>
     </g>
    </g>
    <g id="ytick_2">
     <g id="line2d_8">
      <g>
       <use style="stroke:#000000;stroke-width:0.8;" x="57.6" xlink:href="#m36450afda7" y="264.022054"/>
      </g>
     </g>
     <g id="text_9">
      <!-- 2000 -->
      <g transform="translate(25.15 267.821273)scale(0.1 -0.1)">
       <use xlink:href="#DejaVuSans-32"/>
       <use x="63.623047" xlink:href="#DejaVuSans-30"/>
       <use x="127.246094" xlink:href="#DejaVuSans-30"/>
       <use x="190.869141" xlink:href="#DejaVuSans-30"/>
      </g>
     </g>
    </g>
    <g id="ytick_3">
     <g id="line2d_9">
      <g>
       <use style="stroke:#000000;stroke-width:0.8;" x="57.6" xlink:href="#m36450afda7" y="229.968"/>
      </g>
     </g>
     <g id="text_10">
      <!-- 3000 -->
      <g transform="translate(25.15 233.767219)scale(0.1 -0.1)">
       <defs>
        <path d="M 2597 2516 
Q 3050 2419 3304 2112 
Q 3559 1806 3559 1356 
Q 3559 666 3084 287 
Q 2609 -91 1734 -91 
Q 1441 -91 1130 -33 
Q 819 25 488 141 
L 488 750 
Q 750 597 1062 519 
Q 1375 441 1716 441 
Q 2309 441 2620 675 
Q 2931 909 2931 1356 
Q 2931 1769 2642 2001 
Q 2353 2234 1838 2234 
L 1294 2234 
L 1294 2753 
L 1863 2753 
Q 2328 2753 2575 2939 
Q 2822 3125 2822 3475 
Q 2822 3834 2567 4026 
Q 2313 4219 1838 4219 
Q 1578 4219 1281 4162 
Q 984 4106 628 3988 
L 628 4550 
Q 988 4650 1302 4700 
Q 1616 4750 1894 4750 
Q 2613 4750 3031 4423 
Q 3450 4097 3450 3541 
Q 3450 3153 3228 2886 
Q 3006 2619 2597 2516 
z
" id="DejaVuSans-33" transform="scale(0.015625)"/>
       </defs>
       <use xlink:href="#DejaVuSans-33"/>
       <use x="63.623047" xlink:href="#DejaVuSans-30"/>
       <use x="127.246094" xlink:href="#DejaVuSans-30"/>
       <use x="190.869141" xlink:href="#DejaVuSans-30"/>
      </g>
     </g>
    </g>
    <g id="ytick_4">
     <g id="line2d_10">
      <g>
       <use style="stroke:#000000;stroke-width:0.8;" x="57.6" xlink:href="#m36450afda7" y="195.913946"/>
      </g>
     </g>
     <g id="text_11">
      <!-- 4000 -->
      <g transform="translate(25.15 199.713165)scale(0.1 -0.1)">
       <use xlink:href="#DejaVuSans-34"/>
       <use x="63.623047" xlink:href="#DejaVuSans-30"/>
       <use x="127.246094" xlink:href="#DejaVuSans-30"/>
       <use x="190.869141" xlink:href="#DejaVuSans-30"/>
      </g>
     </g>
    </g>
    <g id="ytick_5">
     <g id="line2d_11">
      <g>
       <use style="stroke:#000000;stroke-width:0.8;" x="57.6" xlink:href="#m36450afda7" y="161.859892"/>
      </g>
     </g>
     <g id="text_12">
      <!-- 5000 -->
      <g transform="translate(25.15 165.659111)scale(0.1 -0.1)">
       <defs>
        <path d="M 691 4666 
L 3169 4666 
L 3169 4134 
L 1269 4134 
L 1269 2991 
Q 1406 3038 1543 3061 
Q 1681 3084 1819 3084 
Q 2600 3084 3056 2656 
Q 3513 2228 3513 1497 
Q 3513 744 3044 326 
Q 2575 -91 1722 -91 
Q 1428 -91 1123 -41 
Q 819 9 494 109 
L 494 744 
Q 775 591 1075 516 
Q 1375 441 1709 441 
Q 2250 441 2565 725 
Q 2881 1009 2881 1497 
Q 2881 1984 2565 2268 
Q 2250 2553 1709 2553 
Q 1456 2553 1204 2497 
Q 953 2441 691 2322 
L 691 4666 
z
" id="DejaVuSans-35" transform="scale(0.015625)"/>
       </defs>
       <use xlink:href="#DejaVuSans-35"/>
       <use x="63.623047" xlink:href="#DejaVuSans-30"/>
       <use x="127.246094" xlink:href="#DejaVuSans-30"/>
       <use x="190.869141" xlink:href="#DejaVuSans-30"/>
      </g>
     </g>
    </g>
    <g id="ytick_6">
     <g id="line2d_12">
      <g>
       <use style="stroke:#000000;stroke-width:0.8;" x="57.6" xlink:href="#m36450afda7" y="127.805838"/>
      </g>
     </g>
     <g id="text_13">
      <!-- 6000 -->
      <g transform="translate(25.15 131.605057)scale(0.1 -0.1)">
       <use xlink:href="#DejaVuSans-36"/>
       <use x="63.623047" xlink:href="#DejaVuSans-30"/>
       <use x="127.246094" xlink:href="#DejaVuSans-30"/>
       <use x="190.869141" xlink:href="#DejaVuSans-30"/>
      </g>
     </g>
    </g>
    <g id="ytick_7">
     <g id="line2d_13">
      <g>
       <use style="stroke:#000000;stroke-width:0.8;" x="57.6" xlink:href="#m36450afda7" y="93.751784"/>
      </g>
     </g>
     <g id="text_14">
      <!-- 7000 -->
      <g transform="translate(25.15 97.551003)scale(0.1 -0.1)">
       <defs>
        <path d="M 525 4666 
L 3525 4666 
L 3525 4397 
L 1831 0 
L 1172 0 
L 2766 4134 
L 525 4134 
L 525 4666 
z
" id="DejaVuSans-37" transform="scale(0.015625)"/>
       </defs>
       <use xlink:href="#DejaVuSans-37"/>
       <use x="63.623047" xlink:href="#DejaVuSans-30"/>
       <use x="127.246094" xlink:href="#DejaVuSans-30"/>
       <use x="190.869141" xlink:href="#DejaVuSans-30"/>
      </g>
     </g>
    </g>
    <g id="ytick_8">
     <g id="line2d_14">
      <g>
       <use style="stroke:#000000;stroke-width:0.8;" x="57.6" xlink:href="#m36450afda7" y="59.69773"/>
      </g>
     </g>
     <g id="text_15">
      <!-- 8000 -->
      <g transform="translate(25.15 63.496948)scale(0.1 -0.1)">
       <use xlink:href="#DejaVuSans-38"/>
       <use x="63.623047" xlink:href="#DejaVuSans-30"/>
       <use x="127.246094" xlink:href="#DejaVuSans-30"/>
       <use x="190.869141" xlink:href="#DejaVuSans-30"/>
      </g>
     </g>
    </g>
    <g id="text_16">
     <!-- Counts -->
     <g transform="translate(19.070312 191.981125)rotate(-90)scale(0.1 -0.1)">
      <defs>
       <path d="M 4122 4306 
L 4122 3641 
Q 3803 3938 3442 4084 
Q 3081 4231 2675 4231 
Q 1875 4231 1450 3742 
Q 1025 3253 1025 2328 
Q 1025 1406 1450 917 
Q 1875 428 2675 428 
Q 3081 428 3442 575 
Q 3803 722 4122 1019 
L 4122 359 
Q 3791 134 3420 21 
Q 3050 -91 2638 -91 
Q 1578 -91 968 557 
Q 359 1206 359 2328 
Q 359 3453 968 4101 
Q 1578 4750 2638 4750 
Q 3056 4750 3426 4639 
Q 3797 4528 4122 4306 
z
" id="DejaVuSans-43" transform="scale(0.015625)"/>
       <path d="M 1959 3097 
Q 1497 3097 1228 2736 
Q 959 2375 959 1747 
Q 959 1119 1226 758 
Q 1494 397 1959 397 
Q 2419 397 2687 759 
Q 2956 1122 2956 1747 
Q 2956 2369 2687 2733 
Q 2419 3097 1959 3097 
z
M 1959 3584 
Q 2709 3584 3137 3096 
Q 3566 2609 3566 1747 
Q 3566 888 3137 398 
Q 2709 -91 1959 -91 
Q 1206 -91 779 398 
Q 353 888 353 1747 
Q 353 2609 779 3096 
Q 1206 3584 1959 3584 
z
" id="DejaVuSans-6f" transform="scale(0.015625)"/>
       <path d="M 544 1381 
L 544 3500 
L 1119 3500 
L 1119 1403 
Q 1119 906 1312 657 
Q 1506 409 1894 409 
Q 2359 409 2629 706 
Q 2900 1003 2900 1516 
L 2900 3500 
L 3475 3500 
L 3475 0 
L 2900 0 
L 2900 538 
Q 2691 219 2414 64 
Q 2138 -91 1772 -91 
Q 1169 -91 856 284 
Q 544 659 544 1381 
z
M 1991 3584 
L 1991 3584 
z
" id="DejaVuSans-75" transform="scale(0.015625)"/>
       <path d="M 2834 3397 
L 2834 2853 
Q 2591 2978 2328 3040 
Q 2066 3103 1784 3103 
Q 1356 3103 1142 2972 
Q 928 2841 928 2578 
Q 928 2378 1081 2264 
Q 1234 2150 1697 2047 
L 1894 2003 
Q 2506 1872 2764 1633 
Q 3022 1394 3022 966 
Q 3022 478 2636 193 
Q 2250 -91 1575 -91 
Q 1294 -91 989 -36 
Q 684 19 347 128 
L 347 722 
Q 666 556 975 473 
Q 1284 391 1588 391 
Q 1994 391 2212 530 
Q 2431 669 2431 922 
Q 2431 1156 2273 1281 
Q 2116 1406 1581 1522 
L 1381 1569 
Q 847 1681 609 1914 
Q 372 2147 372 2553 
Q 372 3047 722 3315 
Q 1072 3584 1716 3584 
Q 2034 3584 2315 3537 
Q 2597 3491 2834 3397 
z
" id="DejaVuSans-73" transform="scale(0.015625)"/>
      </defs>
      <use xlink:href="#DejaVuSans-43"/>
      <use x="69.824219" xlink:href="#DejaVuSans-6f"/>
      <use x="131.005859" xlink:href="#DejaVuSans-75"/>
      <use x="194.384766" xlink:href="#DejaVuSans-6e"/>
      <use x="257.763672" xlink:href="#DejaVuSans-74"/>
      <use x="296.972656" xlink:href="#DejaVuSans-73"/>
     </g>
    </g>
   </g>
   <g id="line2d_15">
    <path clip-path="url(#pae3e04d484)" d="M 73.832727 254.350703 
L 73.991327 262.523676 
L 74.149928 254.214486 
L 74.308528 223.565838 
L 74.467128 255.304216 
L 74.625728 241.546378 
L 74.784328 275.055568 
L 74.942928 264.430703 
L 75.101529 270.832865 
L 75.260129 263.477189 
L 75.418729 244.951784 
L 75.577329 257.892324 
L 75.894529 230.104216 
L 76.21173 235.552865 
L 76.37033 223.429622 
L 76.52893 255.304216 
L 76.68753 249.855568 
L 76.84613 275.191784 
L 77.004731 258.982054 
L 77.163331 264.703135 
L 77.480531 251.762595 
L 77.639131 211.033946 
L 77.797731 268.517189 
L 77.956332 204.086919 
L 78.114932 263.749622 
L 78.273532 234.871784 
L 78.432132 283.364757 
L 78.590732 278.869622 
L 78.749333 252.988541 
L 78.907933 274.510703 
L 79.066533 256.666378 
L 79.225133 254.623135 
L 79.383733 255.712865 
L 79.700934 281.321514 
L 79.859534 273.693405 
L 80.018134 250.809081 
L 80.176734 277.371243 
L 80.335334 254.350703 
L 80.811135 274.102054 
L 80.969735 232.283676 
L 81.128335 260.752865 
L 81.286935 252.171243 
L 81.445535 271.922595 
L 81.604136 266.746378 
L 81.762736 257.756108 
L 81.921336 217.299892 
L 82.079936 263.204757 
L 82.238536 256.666378 
L 82.714337 275.191784 
L 82.872937 260.616649 
L 83.031537 282.819892 
L 83.190137 271.241514 
L 83.348737 246.17773 
L 83.507338 273.284757 
L 83.665938 255.712865 
L 83.824538 276.009081 
L 84.141738 245.496649 
L 84.300338 261.706378 
L 84.458939 253.533405 
L 84.776139 280.095568 
L 85.251939 236.778811 
L 85.41054 278.324757 
L 85.56914 263.477189 
L 85.72774 270.560432 
L 85.88634 251.21773 
L 86.20354 284.454486 
L 86.362141 228.605838 
L 86.679341 269.879351 
L 86.996541 240.865297 
L 87.155141 263.340973 
L 87.472342 241.955027 
L 87.789542 281.049081 
L 87.948142 217.436108 
L 88.106742 262.932324 
L 88.423943 277.371243 
L 88.582543 273.420973 
L 88.741143 265.384216 
L 88.899743 267.699892 
L 89.058343 272.467459 
L 89.216944 266.882595 
L 89.375544 240.592865 
L 89.534144 282.956108 
L 89.692744 267.563676 
L 89.851344 285.544216 
L 90.009944 250.536649 
L 90.327145 286.089081 
L 90.485745 235.008 
L 90.644345 282.411243 
L 90.802945 277.235027 
L 90.961545 265.656649 
L 91.120146 277.098811 
L 91.278746 261.842595 
L 91.437346 264.975568 
L 91.595946 286.361514 
L 91.754546 258.300973 
L 91.913147 265.384216 
L 92.071747 251.762595 
L 92.230347 280.776649 
L 92.388947 275.464216 
L 92.547547 229.968 
L 92.864748 279.142054 
L 93.023348 276.826378 
L 93.181948 287.042595 
L 93.340548 258.845838 
L 93.657748 285.952865 
L 93.974949 249.991784 
L 94.292149 268.380973 
L 94.450749 265.520432 
L 94.609349 272.603676 
L 94.92655 266.746378 
L 95.08515 217.980973 
L 95.24375 250.400432 
L 95.56095 262.387459 
L 95.719551 251.21773 
L 95.878151 282.956108 
L 96.195351 261.025297 
L 96.353951 227.788541 
L 96.512551 259.663135 
L 96.671152 263.613405 
L 96.829752 244.134486 
L 96.988352 280.231784 
L 97.146952 270.969081 
L 97.305552 254.623135 
L 97.464152 254.623135 
L 97.622753 271.786378 
L 97.781353 255.985297 
L 97.939953 258.028541 
L 98.098553 276.145297 
L 98.257153 251.762595 
L 98.415753 264.703135 
L 98.574354 264.294486 
L 98.732954 242.772324 
L 98.891554 250.128 
L 99.208754 270.151784 
L 99.367354 278.188541 
L 99.525955 270.151784 
L 99.684555 229.014486 
L 99.843155 282.002595 
L 100.001755 270.151784 
L 100.160355 271.650162 
L 100.318955 293.036108 
L 100.477556 272.331243 
L 100.636156 272.195027 
L 100.953356 228.87827 
L 101.111956 265.520432 
L 101.270556 245.088 
L 101.429157 290.175568 
L 101.587757 269.743135 
L 101.746357 279.142054 
L 101.904957 234.463135 
L 102.222157 271.786378 
L 102.539358 278.597189 
L 102.697958 270.696649 
L 102.856558 241.001514 
L 103.173758 287.723676 
L 103.490959 234.463135 
L 103.649559 270.015568 
L 103.808159 276.145297 
L 103.966759 261.842595 
L 104.12536 269.334486 
L 104.28396 237.596108 
L 104.44256 250.536649 
L 104.60116 253.533405 
L 104.75976 259.254486 
L 104.91836 277.779892 
L 105.076961 259.390703 
L 105.235561 271.513946 
L 105.394161 229.014486 
L 105.552761 254.350703 
L 105.711361 258.982054 
L 105.869961 258.845838 
L 106.028562 282.275027 
L 106.187162 267.836108 
L 106.345762 275.600432 
L 106.504362 275.191784 
L 106.662962 273.693405 
L 106.980163 253.533405 
L 107.138763 275.191784 
L 107.297363 256.666378 
L 107.455963 262.523676 
L 107.614563 280.368 
L 107.931764 251.081514 
L 108.090364 268.653405 
L 108.407564 252.988541 
L 108.566164 285.952865 
L 108.724764 254.214486 
L 108.883365 270.696649 
L 109.041965 255.440432 
L 109.200565 273.557189 
L 109.359165 238.685838 
L 109.517765 275.872865 
L 109.676365 276.281514 
L 109.834966 245.496649 
L 110.152166 276.690162 
L 110.310766 262.932324 
L 110.469366 275.055568 
L 110.627966 277.235027 
L 110.786567 260.344216 
L 110.945167 277.235027 
L 111.103767 248.629622 
L 111.262367 263.204757 
L 111.420967 264.022054 
L 111.579567 283.500973 
L 111.738168 241.546378 
L 111.896768 285.952865 
L 112.055368 225.200432 
L 112.531168 280.776649 
L 112.689769 271.241514 
L 113.006969 283.092324 
L 113.165569 271.786378 
L 113.324169 283.364757 
L 113.482769 273.829622 
L 113.64137 255.304216 
L 113.79997 252.579892 
L 113.95857 272.739892 
L 114.11717 267.699892 
L 114.27577 277.779892 
L 114.43437 255.985297 
L 114.592971 283.228541 
L 114.751571 275.872865 
L 114.910171 274.510703 
L 115.227371 244.679351 
L 115.544572 288.677189 
L 115.703172 277.235027 
L 115.861772 251.762595 
L 116.178972 285.271784 
L 116.337573 214.575568 
L 116.496173 249.03827 
L 116.654773 247.131243 
L 116.813373 173.43827 
L 116.971973 276.553946 
L 117.130573 224.655568 
L 117.289174 279.142054 
L 117.447774 272.876108 
L 117.606374 287.451243 
L 117.764974 284.999351 
L 117.923574 268.789622 
L 118.082174 276.553946 
L 118.240775 293.717189 
L 118.399375 248.357189 
L 118.557975 249.991784 
L 119.192376 286.089081 
L 119.350976 287.587459 
L 119.509576 271.241514 
L 119.668176 272.058811 
L 119.826776 270.288 
L 119.985376 275.191784 
L 120.302577 240.592865 
L 120.461177 278.324757 
L 120.619777 283.364757 
L 120.778377 276.962595 
L 120.936977 184.880432 
L 121.095578 261.29773 
L 121.254178 268.653405 
L 121.412778 264.022054 
L 121.571378 273.557189 
L 121.729978 259.799351 
L 121.888578 279.823135 
L 122.047179 274.102054 
L 122.205779 274.919351 
L 122.364379 275.055568 
L 122.522979 273.965838 
L 122.681579 260.889081 
L 122.840179 278.460973 
L 122.99878 279.959351 
L 123.15738 279.142054 
L 123.31598 273.965838 
L 123.47458 275.055568 
L 123.63318 289.35827 
L 123.950381 245.496649 
L 124.108981 275.736649 
L 124.267581 260.616649 
L 124.426181 257.483676 
L 124.584781 271.786378 
L 124.743381 243.180973 
L 124.901982 283.909622 
L 125.219182 252.443676 
L 125.377782 259.526919 
L 125.694982 281.730162 
L 125.853583 207.083676 
L 126.012183 271.241514 
L 126.170783 263.613405 
L 126.329383 265.111784 
L 126.487983 273.284757 
L 126.646583 255.440432 
L 126.805184 270.151784 
L 126.963784 263.749622 
L 127.280984 274.23827 
L 127.439584 291.810162 
L 127.915385 268.789622 
L 128.073985 283.909622 
L 128.232585 265.520432 
L 128.391185 229.968 
L 128.708386 273.420973 
L 128.866986 265.656649 
L 129.025586 279.142054 
L 129.184186 271.241514 
L 129.342786 271.37773 
L 129.501387 281.321514 
L 129.659987 274.646919 
L 129.818587 274.374486 
L 129.977187 261.161514 
L 130.135787 275.872865 
L 130.294387 273.829622 
L 130.452988 286.770162 
L 130.611588 271.922595 
L 130.770188 277.098811 
L 131.087388 261.025297 
L 131.563189 293.444757 
L 131.880389 253.533405 
L 132.038989 266.746378 
L 132.197589 248.765838 
L 132.35619 243.725838 
L 132.51479 284.999351 
L 132.67339 255.576649 
L 132.83199 265.111784 
L 132.99059 263.613405 
L 133.14919 280.776649 
L 133.624991 263.749622 
L 133.783591 250.672865 
L 133.942191 274.646919 
L 134.100791 260.480432 
L 134.259392 291.129081 
L 134.735192 261.161514 
L 134.893792 251.21773 
L 135.052392 283.637189 
L 135.210993 274.646919 
L 135.369593 295.488 
L 135.528193 250.809081 
L 135.686793 288.949622 
L 135.845393 289.085838 
L 136.003993 265.384216 
L 136.162594 270.832865 
L 136.321194 269.606919 
L 136.479794 271.37773 
L 136.638394 271.37773 
L 136.796994 282.002595 
L 136.955594 280.776649 
L 137.114195 268.244757 
L 137.272795 279.27827 
L 137.589995 255.576649 
L 137.748595 268.244757 
L 137.907195 260.480432 
L 138.224396 284.454486 
L 138.382996 264.15827 
L 138.541596 280.231784 
L 138.700196 272.739892 
L 139.017397 293.989622 
L 139.175997 256.530162 
L 139.334597 262.523676 
L 139.493197 286.225297 
L 139.651797 266.201514 
L 139.810397 268.789622 
L 139.968998 285.952865 
L 140.127598 282.275027 
L 140.286198 264.022054 
L 140.761998 277.643676 
L 140.920599 277.643676 
L 141.079199 265.929081 
L 141.237799 268.380973 
L 141.396399 262.251243 
L 141.554999 277.643676 
L 141.7136 275.328 
L 141.8722 254.214486 
L 142.0308 275.600432 
L 142.1894 278.324757 
L 142.5066 249.310703 
L 142.665201 270.832865 
L 142.823801 259.526919 
L 143.141001 280.231784 
L 143.299601 243.99827 
L 143.458201 275.872865 
L 143.616802 270.832865 
L 143.775402 261.433946 
L 143.934002 276.553946 
L 144.092602 257.619892 
L 144.251202 280.504216 
L 144.409802 252.171243 
L 144.568403 247.131243 
L 144.885603 285.135568 
L 145.044203 267.155027 
L 145.520004 252.035027 
L 145.837204 264.703135 
L 145.995804 266.065297 
L 146.154404 265.248 
L 146.313004 281.185297 
L 146.471605 271.37773 
L 146.630205 278.460973 
L 146.788805 248.902054 
L 146.947405 262.932324 
L 147.264605 247.948541 
L 147.423206 278.188541 
L 147.581806 254.350703 
L 147.740406 272.876108 
L 147.899006 275.872865 
L 148.216206 253.669622 
L 148.374807 286.906378 
L 148.533407 245.632865 
L 148.850607 272.058811 
L 149.009207 279.686919 
L 149.167807 273.965838 
L 149.326408 276.145297 
L 149.485008 288.949622 
L 149.643608 229.695568 
L 149.960808 263.068541 
L 150.119408 234.735568 
L 150.278009 272.195027 
L 150.436609 261.433946 
L 150.595209 280.504216 
L 150.753809 241.955027 
L 150.912409 263.068541 
L 151.071009 258.300973 
L 151.22961 291.810162 
L 151.38821 258.300973 
L 151.54681 276.145297 
L 151.70541 278.324757 
L 151.86401 283.637189 
L 152.02261 239.094486 
L 152.181211 267.972324 
L 152.498411 278.733405 
L 152.657011 269.879351 
L 152.815611 270.288 
L 152.974211 257.756108 
L 153.132812 263.477189 
L 153.291412 284.863135 
L 153.450012 270.696649 
L 153.608612 276.281514 
L 153.767212 250.945297 
L 153.925812 266.882595 
L 154.084413 269.879351 
L 154.243013 284.590703 
L 154.401613 253.397189 
L 154.560213 272.195027 
L 154.718813 272.331243 
L 154.877414 293.444757 
L 155.036014 284.31827 
L 155.194614 267.699892 
L 155.511814 286.361514 
L 155.670414 263.885838 
L 155.829015 275.464216 
L 155.987615 270.288 
L 156.146215 251.21773 
L 156.304815 269.470703 
L 156.622015 245.088 
L 156.780616 272.603676 
L 157.097816 259.526919 
L 157.256416 243.862054 
L 157.415016 268.653405 
L 157.573616 266.882595 
L 157.732217 257.756108 
L 157.890817 281.866378 
L 158.049417 266.746378 
L 158.208017 274.374486 
L 158.366617 272.603676 
L 158.525217 281.730162 
L 158.683818 268.380973 
L 158.842418 269.19827 
L 159.159618 258.845838 
L 159.318218 289.494486 
L 159.476818 226.698811 
L 159.635419 275.328 
L 159.794019 277.507459 
L 159.952619 275.736649 
L 160.111219 257.075027 
L 160.269819 253.533405 
L 160.428419 269.743135 
L 160.58702 253.397189 
L 160.74562 290.448 
L 160.90422 286.770162 
L 161.06282 275.191784 
L 161.22142 287.315027 
L 161.38002 274.646919 
L 161.538621 286.49773 
L 161.697221 258.845838 
L 162.014421 275.055568 
L 162.173021 268.244757 
L 162.331621 274.102054 
L 162.490222 292.491243 
L 162.648822 289.35827 
L 162.807422 256.666378 
L 162.966022 273.829622 
L 163.124622 267.155027 
L 163.283222 245.769081 
L 163.600423 288.813405 
L 163.759023 260.480432 
L 163.917623 286.633946 
L 164.076223 267.699892 
L 164.234823 270.288 
L 164.393424 259.254486 
L 164.552024 268.380973 
L 164.710624 259.799351 
L 165.027824 273.148541 
L 165.186424 221.386378 
L 165.503625 272.876108 
L 165.662225 273.012324 
L 165.820825 269.334486 
L 165.979425 279.686919 
L 166.138025 257.075027 
L 166.296626 269.062054 
L 166.455226 258.845838 
L 166.613826 279.959351 
L 166.772426 279.550703 
L 166.931026 253.260973 
L 167.089627 272.195027 
L 167.248227 275.328 
L 167.406827 245.496649 
L 167.565427 272.195027 
L 167.724027 211.578811 
L 168.041228 281.049081 
L 168.199828 257.619892 
L 168.358428 280.231784 
L 168.517028 269.879351 
L 168.675628 285.135568 
L 169.151429 267.427459 
L 169.310029 270.969081 
L 169.468629 243.99827 
L 169.627229 263.340973 
L 169.785829 252.035027 
L 169.94443 273.829622 
L 170.10303 276.690162 
L 170.26163 261.433946 
L 170.42023 282.547459 
L 170.57883 269.470703 
L 170.73743 276.41773 
L 171.054631 261.570162 
L 171.213231 271.241514 
L 171.371831 255.168 
L 171.530431 265.384216 
L 171.689031 283.092324 
L 171.847632 275.464216 
L 172.006232 246.858811 
L 172.323432 276.009081 
L 172.482032 255.712865 
L 172.640632 257.211243 
L 172.799233 282.547459 
L 173.116433 254.214486 
L 173.592233 287.315027 
L 173.750834 262.932324 
L 173.909434 266.201514 
L 174.068034 257.075027 
L 174.226634 268.517189 
L 174.543834 256.393946 
L 174.861035 280.095568 
L 175.019635 278.597189 
L 175.178235 273.012324 
L 175.336835 257.619892 
L 175.495435 272.331243 
L 175.654036 272.331243 
L 175.812636 269.879351 
L 175.971236 263.749622 
L 176.129836 282.956108 
L 176.288436 269.470703 
L 176.447036 290.175568 
L 176.605637 283.364757 
L 176.764237 254.895568 
L 176.922837 252.443676 
L 177.081437 235.825297 
L 177.240037 258.437189 
L 177.398637 255.168 
L 177.715838 259.390703 
L 177.874438 260.616649 
L 178.033038 274.102054 
L 178.191638 268.108541 
L 178.350238 269.19827 
L 178.508839 265.792865 
L 178.667439 259.663135 
L 178.826039 263.340973 
L 178.984639 255.985297 
L 179.143239 258.028541 
L 179.301839 284.182054 
L 179.46044 269.062054 
L 179.93624 290.720432 
L 180.09484 264.430703 
L 180.253441 263.068541 
L 180.412041 259.526919 
L 180.570641 252.579892 
L 180.729241 252.035027 
L 180.887841 280.776649 
L 181.046441 265.792865 
L 181.205042 272.876108 
L 181.363642 251.081514 
L 181.522242 275.736649 
L 181.680842 260.889081 
L 181.839442 270.560432 
L 181.998042 260.344216 
L 182.315243 264.703135 
L 182.632443 233.645838 
L 182.791043 279.005838 
L 182.949643 252.443676 
L 183.108244 276.41773 
L 183.266844 257.619892 
L 183.584044 286.906378 
L 183.742644 278.597189 
L 183.901244 289.766919 
L 184.059845 247.948541 
L 184.377045 270.424216 
L 184.535645 266.065297 
L 184.694245 264.839351 
L 184.852845 249.174486 
L 185.170046 283.637189 
L 185.328646 266.33773 
L 185.487246 262.251243 
L 185.645846 276.009081 
L 185.804446 238.277189 
L 186.121647 278.597189 
L 186.280247 273.965838 
L 186.438847 278.597189 
L 186.597447 254.486919 
L 187.073248 272.331243 
L 187.231848 242.091243 
L 187.549048 275.872865 
L 187.707648 285.680432 
L 187.866249 266.746378 
L 188.024849 281.321514 
L 188.183449 251.490162 
L 188.342049 284.863135 
L 188.500649 267.155027 
L 188.659249 273.420973 
L 188.81785 246.450162 
L 188.97645 266.610162 
L 189.13505 268.653405 
L 189.45225 250.809081 
L 189.61085 286.633946 
L 189.769451 257.619892 
L 190.086651 276.281514 
L 190.245251 256.25773 
L 190.562451 267.836108 
L 190.721052 250.945297 
L 190.879652 277.371243 
L 191.196852 254.214486 
L 191.355452 248.493405 
L 191.514052 259.254486 
L 191.672653 255.712865 
L 191.831253 268.789622 
L 192.148453 260.889081 
L 192.307053 269.879351 
L 192.624254 260.889081 
L 192.782854 225.881514 
L 192.941454 271.241514 
L 193.100054 277.916108 
L 193.258654 261.025297 
L 193.417255 258.573405 
L 193.575855 277.916108 
L 193.734455 269.743135 
L 193.893055 252.171243 
L 194.051655 264.703135 
L 194.210255 250.128 
L 194.368856 271.650162 
L 194.844656 254.486919 
L 195.003256 243.453405 
L 195.161856 255.576649 
L 195.320457 251.353946 
L 195.479057 234.326919 
L 195.796257 253.669622 
L 195.954857 252.988541 
L 196.113457 258.164757 
L 196.272058 277.507459 
L 196.430658 229.968 
L 196.747858 275.055568 
L 196.906458 246.17773 
L 197.065058 261.706378 
L 197.223659 254.07827 
L 197.382259 234.190703 
L 197.540859 253.669622 
L 197.699459 247.948541 
L 197.858059 256.802595 
L 198.016659 242.363676 
L 198.17526 266.746378 
L 198.33386 175.481514 
L 198.49246 266.201514 
L 198.65106 235.280432 
L 198.80966 236.915027 
L 198.96826 256.802595 
L 199.285461 255.168 
L 199.602661 224.928 
L 199.761261 231.193946 
L 199.919861 261.842595 
L 200.237062 240.048 
L 200.395662 236.778811 
L 200.554262 225.336649 
L 200.712862 240.184216 
L 200.871462 209.944216 
L 201.030063 218.389622 
L 201.188663 238.413405 
L 201.347263 195.232865 
L 201.505863 230.512865 
L 201.664463 237.732324 
L 201.823063 232.964757 
L 202.140264 243.453405 
L 202.298864 209.399351 
L 202.457464 207.628541 
L 202.616064 223.83827 
L 202.774664 212.668541 
L 202.933265 216.618811 
L 203.091865 202.043676 
L 203.250465 167.444757 
L 203.409065 197.957189 
L 203.567665 181.883676 
L 203.726265 222.612324 
L 203.884866 217.980973 
L 204.202066 189.648 
L 204.360666 187.740973 
L 204.519266 203.542054 
L 204.677867 186.515027 
L 204.836467 185.970162 
L 204.995067 174.255568 
L 205.153667 191.555027 
L 205.312267 183.51827 
L 205.470867 187.604757 
L 205.629468 186.242595 
L 205.788068 179.159351 
L 205.946668 144.424216 
L 206.263868 201.635027 
L 206.422468 168.943135 
L 206.581069 178.750703 
L 206.739669 207.356108 
L 206.898269 205.993946 
L 207.056869 191.555027 
L 207.215469 204.631784 
L 207.374069 205.312865 
L 207.53267 242.499892 
L 207.69127 184.471784 
L 207.84987 225.745297 
L 208.00847 208.309622 
L 208.32567 248.629622 
L 208.484271 230.785297 
L 208.801471 242.499892 
L 208.960071 239.503135 
L 209.118671 250.264216 
L 209.277271 237.596108 
L 209.435872 257.483676 
L 209.594472 253.533405 
L 209.753072 264.294486 
L 209.911672 250.128 
L 210.070272 248.084757 
L 210.228872 273.829622 
L 210.387473 269.19827 
L 210.546073 252.035027 
L 210.704673 249.03827 
L 210.863273 268.517189 
L 211.180473 251.081514 
L 211.339074 262.115027 
L 211.497674 281.185297 
L 211.656274 281.593946 
L 211.814874 249.03827 
L 211.973474 267.699892 
L 212.132074 267.563676 
L 212.290675 265.792865 
L 212.449275 273.693405 
L 212.607875 264.15827 
L 212.766475 264.430703 
L 212.925075 274.510703 
L 213.083675 258.164757 
L 213.242276 271.786378 
L 213.559476 244.951784 
L 213.718076 278.597189 
L 213.876676 280.504216 
L 214.193877 259.663135 
L 214.352477 263.613405 
L 214.511077 264.430703 
L 214.669677 285.135568 
L 214.828277 264.975568 
L 214.986877 284.999351 
L 215.621278 249.719351 
L 215.779878 270.560432 
L 215.938478 270.560432 
L 216.097079 253.942054 
L 216.414279 275.464216 
L 216.572879 287.996108 
L 216.731479 254.623135 
L 216.890079 288.132324 
L 217.04868 257.347459 
L 217.20728 260.480432 
L 217.52448 272.058811 
L 217.68308 266.473946 
L 217.841681 249.991784 
L 218.000281 276.962595 
L 218.158881 276.009081 
L 218.317481 261.706378 
L 218.476081 273.693405 
L 218.634681 271.650162 
L 218.793282 278.324757 
L 218.951882 265.929081 
L 219.110482 268.517189 
L 219.269082 287.996108 
L 219.427682 255.849081 
L 219.586282 282.275027 
L 219.744883 251.21773 
L 220.062083 291.946378 
L 220.379283 251.081514 
L 220.537883 250.264216 
L 220.855084 280.776649 
L 221.013684 265.248 
L 221.172284 266.201514 
L 221.330884 255.304216 
L 221.489484 266.065297 
L 221.806685 267.291243 
L 221.965285 282.275027 
L 222.123885 264.839351 
L 222.282485 263.477189 
L 222.441085 210.761514 
L 222.599686 273.693405 
L 222.758286 277.507459 
L 222.916886 224.110703 
L 223.075486 261.29773 
L 223.234086 261.842595 
L 223.392686 249.991784 
L 223.551287 258.845838 
L 223.709887 251.490162 
L 223.868487 259.526919 
L 224.027087 274.23827 
L 224.185687 250.264216 
L 224.344287 255.031784 
L 224.502888 263.204757 
L 224.661488 280.504216 
L 224.820088 265.384216 
L 224.978688 280.640432 
L 225.137288 251.762595 
L 225.295888 281.185297 
L 225.613089 256.121514 
L 225.930289 279.414486 
L 226.088889 276.281514 
L 226.247489 279.823135 
L 226.40609 288.949622 
L 226.56469 243.180973 
L 226.88189 278.869622 
L 227.04049 281.049081 
L 227.19909 276.145297 
L 227.357691 263.613405 
L 227.516291 266.610162 
L 227.674891 274.102054 
L 227.833491 253.533405 
L 227.992091 267.155027 
L 228.150691 261.161514 
L 228.309292 234.190703 
L 228.626492 284.182054 
L 228.785092 260.344216 
L 228.943692 253.533405 
L 229.102292 258.573405 
L 229.260893 286.225297 
L 229.419493 260.480432 
L 229.578093 258.845838 
L 229.736693 274.783135 
L 229.895293 277.507459 
L 230.053894 237.459892 
L 230.212494 268.517189 
L 230.371094 249.03827 
L 230.529694 251.353946 
L 230.846894 290.856649 
L 231.005495 272.876108 
L 231.164095 289.35827 
L 231.322695 273.965838 
L 231.481295 276.553946 
L 231.639895 275.872865 
L 231.798495 271.241514 
L 231.957096 263.204757 
L 232.115696 241.410162 
L 232.432896 288.677189 
L 232.591496 283.364757 
L 232.750096 235.552865 
L 232.908697 270.560432 
L 233.067297 249.03827 
L 233.384497 279.27827 
L 233.543097 293.444757 
L 233.701697 252.443676 
L 233.860298 281.321514 
L 234.177498 278.188541 
L 234.336098 239.503135 
L 234.653298 285.544216 
L 234.811899 273.829622 
L 234.970499 280.504216 
L 235.129099 264.022054 
L 235.287699 276.826378 
L 235.446299 271.513946 
L 235.604899 283.909622 
L 235.7635 261.433946 
L 236.0807 275.736649 
L 236.2393 229.286919 
L 236.5565 280.095568 
L 236.715101 279.142054 
L 236.873701 265.929081 
L 237.032301 281.049081 
L 237.190901 257.619892 
L 237.349501 275.736649 
L 237.666702 249.855568 
L 237.825302 262.932324 
L 237.983902 53.568 
L 238.142502 285.680432 
L 238.301102 274.374486 
L 238.459702 286.633946 
L 238.618303 260.480432 
L 238.776903 274.646919 
L 238.935503 258.982054 
L 239.094103 278.324757 
L 239.252703 271.513946 
L 239.411303 276.41773 
L 239.569904 272.331243 
L 239.728504 272.058811 
L 240.045704 288.268541 
L 240.204304 244.134486 
L 240.362904 267.155027 
L 240.521505 255.031784 
L 240.680105 251.898811 
L 240.838705 275.464216 
L 240.997305 264.703135 
L 241.155905 280.776649 
L 241.314505 271.241514 
L 241.473106 281.185297 
L 241.631706 251.898811 
L 241.790306 269.19827 
L 241.948906 265.520432 
L 242.107506 275.736649 
L 242.266106 261.161514 
L 242.424707 232.283676 
L 242.583307 281.593946 
L 242.741907 237.187459 
L 242.900507 276.145297 
L 243.059107 253.805838 
L 243.217708 280.776649 
L 243.376308 277.779892 
L 243.534908 249.03827 
L 243.693508 280.640432 
L 243.852108 267.018811 
L 244.010708 267.427459 
L 244.169309 247.948541 
L 244.327909 277.371243 
L 244.645109 260.071784 
L 244.803709 282.411243 
L 244.962309 274.374486 
L 245.12091 275.736649 
L 245.27951 274.102054 
L 245.59671 239.911784 
L 245.75531 271.105297 
L 245.91391 261.161514 
L 246.072511 277.916108 
L 246.231111 245.496649 
L 246.389711 282.547459 
L 246.865511 254.214486 
L 247.024112 273.012324 
L 247.182712 270.832865 
L 247.499912 271.37773 
L 247.658512 262.115027 
L 247.817112 286.770162 
L 247.975713 259.11827 
L 248.134313 289.903135 
L 248.292913 257.892324 
L 248.451513 269.062054 
L 248.610113 262.659892 
L 248.768713 267.972324 
L 248.927314 264.566919 
L 249.085914 273.557189 
L 249.244514 271.513946 
L 249.403114 273.693405 
L 249.561714 245.632865 
L 249.720314 256.121514 
L 249.878915 287.315027 
L 250.037515 280.912865 
L 250.196115 238.95827 
L 250.354715 266.746378 
L 250.671915 284.31827 
L 250.989116 252.035027 
L 251.147716 262.796108 
L 251.306316 262.796108 
L 251.464916 255.168 
L 251.782117 269.334486 
L 251.940717 262.659892 
L 252.099317 279.005838 
L 252.257917 268.789622 
L 252.416517 240.865297 
L 252.575117 283.500973 
L 252.733718 252.579892 
L 253.050918 271.241514 
L 253.209518 248.084757 
L 253.526718 274.374486 
L 253.685319 253.533405 
L 254.002519 289.494486 
L 254.161119 261.161514 
L 254.319719 259.11827 
L 254.478319 278.052324 
L 254.63692 248.765838 
L 254.79552 267.291243 
L 254.95412 272.603676 
L 255.11272 269.743135 
L 255.429921 277.779892 
L 255.747121 243.725838 
L 255.905721 284.726919 
L 256.064321 268.108541 
L 256.222921 265.520432 
L 256.381522 272.876108 
L 256.540122 291.129081 
L 256.698722 281.321514 
L 256.857322 240.592865 
L 257.015922 247.948541 
L 257.333123 289.494486 
L 257.808923 256.666378 
L 257.967523 288.540973 
L 258.126123 271.105297 
L 258.284724 240.184216 
L 258.443324 271.513946 
L 258.601924 266.746378 
L 258.760524 271.37773 
L 258.919124 268.517189 
L 259.077724 293.036108 
L 259.236325 276.553946 
L 259.394925 279.005838 
L 259.553525 255.440432 
L 259.712125 258.300973 
L 260.029325 280.640432 
L 260.346526 265.248 
L 260.505126 269.606919 
L 260.663726 213.622054 
L 260.822326 287.587459 
L 260.980926 272.195027 
L 261.298127 266.473946 
L 261.456727 269.606919 
L 261.615327 275.328 
L 261.773927 247.403676 
L 261.932527 278.052324 
L 262.091128 278.869622 
L 262.408328 264.022054 
L 262.566928 280.912865 
L 262.725528 281.730162 
L 262.884128 281.321514 
L 263.042729 211.851243 
L 263.201329 290.720432 
L 263.518529 247.267459 
L 263.677129 262.251243 
L 263.835729 243.725838 
L 264.31153 287.178811 
L 264.47013 280.640432 
L 264.62873 289.766919 
L 264.945931 265.656649 
L 265.104531 277.371243 
L 265.263131 273.012324 
L 265.421731 242.908541 
L 265.738931 271.513946 
L 265.897532 268.789622 
L 266.056132 256.530162 
L 266.214732 274.374486 
L 266.373332 279.142054 
L 266.531932 257.483676 
L 266.690532 283.500973 
L 266.849133 221.658811 
L 267.007733 282.002595 
L 267.166333 245.088 
L 267.324933 279.550703 
L 267.483533 273.284757 
L 267.642133 284.590703 
L 267.800734 256.938811 
L 267.959334 249.719351 
L 268.117934 251.353946 
L 268.276534 229.831784 
L 268.593735 279.686919 
L 268.752335 265.929081 
L 268.910935 283.637189 
L 269.069535 266.610162 
L 269.228135 270.151784 
L 269.386735 233.91827 
L 269.545336 269.879351 
L 269.703936 263.477189 
L 269.862536 248.220973 
L 270.021136 259.663135 
L 270.179736 244.679351 
L 270.338336 269.879351 
L 270.655537 276.553946 
L 270.972737 272.331243 
L 271.131337 263.204757 
L 271.289937 276.553946 
L 271.448538 279.823135 
L 271.607138 263.749622 
L 271.765738 286.49773 
L 271.924338 254.350703 
L 272.082938 253.942054 
L 272.241538 282.411243 
L 272.400139 268.517189 
L 272.717339 277.779892 
L 273.034539 270.832865 
L 273.193139 272.058811 
L 273.35174 274.23827 
L 273.51034 248.765838 
L 273.66894 276.009081 
L 273.82754 254.895568 
L 273.98614 257.211243 
L 274.14474 284.454486 
L 274.303341 284.863135 
L 274.461941 256.121514 
L 274.620541 270.696649 
L 274.779141 273.693405 
L 274.937741 250.536649 
L 275.254942 282.138811 
L 275.413542 254.486919 
L 275.572142 272.331243 
L 275.730742 255.712865 
L 275.889342 282.002595 
L 276.047942 269.19827 
L 276.206543 274.374486 
L 276.365143 267.155027 
L 276.523743 271.241514 
L 276.682343 282.819892 
L 276.999543 267.972324 
L 277.316744 273.829622 
L 277.475344 262.659892 
L 277.633944 235.008 
L 277.792544 264.839351 
L 278.109745 284.863135 
L 278.268345 230.240432 
L 278.585545 281.730162 
L 278.744145 272.739892 
L 278.902745 278.188541 
L 279.061346 237.732324 
L 279.219946 275.736649 
L 279.378546 279.27827 
L 279.537146 246.858811 
L 279.695746 274.23827 
L 279.854346 273.557189 
L 280.012947 268.244757 
L 280.171547 267.699892 
L 280.330147 238.413405 
L 280.647347 284.454486 
L 280.805948 280.231784 
L 280.964548 250.945297 
L 281.123148 270.969081 
L 281.281748 272.058811 
L 281.440348 254.350703 
L 281.598948 249.991784 
L 281.757549 257.619892 
L 281.916149 274.374486 
L 282.074749 256.25773 
L 282.391949 265.656649 
L 282.550549 282.411243 
L 282.70915 247.812324 
L 282.86775 265.792865 
L 283.02635 269.743135 
L 283.18495 280.368 
L 283.34355 262.115027 
L 283.50215 262.796108 
L 283.660751 276.145297 
L 283.819351 261.433946 
L 283.977951 258.982054 
L 284.136551 282.138811 
L 284.295151 240.456649 
L 284.453751 276.826378 
L 284.612352 280.640432 
L 284.770952 275.464216 
L 284.929552 260.480432 
L 285.246752 282.138811 
L 285.405352 285.680432 
L 285.563953 268.108541 
L 285.722553 279.142054 
L 286.039753 282.683676 
L 286.198353 273.693405 
L 286.356953 275.328 
L 286.515554 259.526919 
L 286.674154 278.733405 
L 286.991354 248.357189 
L 287.149954 264.703135 
L 287.308554 245.632865 
L 287.467155 263.340973 
L 287.625755 256.938811 
L 287.784355 242.091243 
L 287.942955 248.902054 
L 288.101555 244.951784 
L 288.418756 275.328 
L 288.577356 263.885838 
L 288.735956 264.022054 
L 288.894556 225.200432 
L 289.053156 269.743135 
L 289.211756 262.387459 
L 289.370357 261.433946 
L 289.528957 261.842595 
L 289.687557 274.783135 
L 289.846157 263.068541 
L 290.004757 264.294486 
L 290.163357 278.052324 
L 290.321958 256.121514 
L 290.480558 254.350703 
L 290.797758 282.819892 
L 290.956358 255.849081 
L 291.114958 281.321514 
L 291.432159 273.693405 
L 291.590759 284.31827 
L 291.907959 248.493405 
L 292.066559 292.763676 
L 292.22516 274.510703 
L 292.38376 281.45773 
L 292.54236 235.416649 
L 292.70096 269.334486 
L 292.85956 266.473946 
L 293.018161 259.11827 
L 293.176761 266.610162 
L 293.335361 266.882595 
L 293.493961 278.324757 
L 293.652561 274.783135 
L 293.969762 253.533405 
L 294.286962 274.919351 
L 294.445562 241.682595 
L 294.604162 267.427459 
L 294.762762 263.885838 
L 294.921363 280.095568 
L 295.079963 230.649081 
L 295.238563 240.184216 
L 295.397163 275.055568 
L 295.555763 259.799351 
L 295.714363 280.231784 
L 296.031564 262.115027 
L 296.190164 263.340973 
L 296.348764 269.19827 
L 296.665964 261.842595 
L 296.824565 268.380973 
L 297.141765 253.124757 
L 297.300365 291.401514 
L 297.617565 248.902054 
L 297.776166 245.224216 
L 298.093366 278.052324 
L 298.251966 236.778811 
L 298.410566 267.291243 
L 298.569166 256.802595 
L 298.727767 262.115027 
L 298.886367 226.562595 
L 299.044967 277.643676 
L 299.203567 248.357189 
L 299.362167 248.220973 
L 299.837968 275.328 
L 299.996568 245.088 
L 300.313768 285.544216 
L 300.472368 274.919351 
L 300.630969 282.275027 
L 300.789569 241.001514 
L 300.948169 249.174486 
L 301.106769 285.135568 
L 301.265369 246.858811 
L 301.423969 244.270703 
L 301.58257 271.241514 
L 301.74117 269.606919 
L 301.89977 255.985297 
L 302.05837 270.424216 
L 302.21697 256.25773 
L 302.37557 283.637189 
L 302.534171 278.052324 
L 302.851371 241.546378 
L 303.327171 282.275027 
L 303.485772 273.557189 
L 303.644372 281.45773 
L 303.802972 235.552865 
L 304.120172 288.813405 
L 304.278772 255.168 
L 304.595973 275.600432 
L 304.754573 256.530162 
L 304.913173 274.919351 
L 305.071773 279.823135 
L 305.230373 276.145297 
L 305.388974 264.566919 
L 305.547574 287.315027 
L 305.706174 273.012324 
L 305.864774 279.27827 
L 306.181975 261.161514 
L 306.340575 261.842595 
L 306.499175 258.845838 
L 306.657775 267.291243 
L 306.816375 255.031784 
L 306.974975 274.102054 
L 307.133576 276.281514 
L 307.292176 258.709622 
L 307.450776 255.168 
L 307.767976 280.504216 
L 307.926576 256.393946 
L 308.085177 263.068541 
L 308.243777 257.619892 
L 308.402377 260.344216 
L 308.560977 260.071784 
L 308.719577 243.725838 
L 308.878177 265.384216 
L 309.036778 267.972324 
L 309.195378 264.294486 
L 309.353978 235.280432 
L 309.512578 269.19827 
L 309.671178 254.214486 
L 309.829778 255.712865 
L 309.988379 253.805838 
L 310.146979 278.052324 
L 310.305579 268.517189 
L 310.464179 279.414486 
L 310.781379 258.437189 
L 310.93998 193.59827 
L 311.09858 268.653405 
L 311.25718 262.932324 
L 311.41578 282.956108 
L 311.57438 270.969081 
L 311.73298 233.373405 
L 311.891581 278.869622 
L 312.050181 287.587459 
L 312.367381 246.995027 
L 312.525981 270.151784 
L 312.684581 273.012324 
L 312.843182 236.370162 
L 313.001782 271.650162 
L 313.160382 272.739892 
L 313.318982 286.089081 
L 313.477582 261.025297 
L 313.636182 286.089081 
L 313.953383 266.473946 
L 314.111983 266.882595 
L 314.270583 247.267459 
L 314.429183 251.353946 
L 314.587783 269.334486 
L 314.746384 271.922595 
L 314.904984 229.150703 
L 315.380784 270.424216 
L 315.539384 251.21773 
L 315.697985 250.400432 
L 315.856585 264.15827 
L 316.015185 261.706378 
L 316.173785 244.543135 
L 316.490985 287.315027 
L 316.649586 271.37773 
L 316.808186 276.962595 
L 316.966786 236.506378 
L 317.125386 264.703135 
L 317.283986 267.563676 
L 317.442586 275.191784 
L 317.601187 275.055568 
L 317.759787 276.009081 
L 317.918387 264.975568 
L 318.076987 268.925838 
L 318.235587 260.889081 
L 318.394188 274.23827 
L 318.552788 277.371243 
L 318.711388 254.759351 
L 318.869988 252.307459 
L 319.028588 270.560432 
L 319.187188 243.044757 
L 319.504389 271.513946 
L 319.662989 239.639351 
L 319.821589 249.174486 
L 319.980189 248.493405 
L 320.138789 276.41773 
L 320.45599 249.446919 
L 320.61459 252.443676 
L 320.77319 277.098811 
L 320.93179 280.368 
L 321.09039 280.368 
L 321.248991 290.992865 
L 321.566191 248.629622 
L 321.724791 248.629622 
L 321.883391 272.058811 
L 322.041991 255.440432 
L 322.200592 265.656649 
L 322.359192 285.271784 
L 322.676392 266.065297 
L 322.834992 281.049081 
L 322.993592 278.733405 
L 323.152193 257.347459 
L 323.310793 266.746378 
L 323.469393 262.251243 
L 323.627993 263.204757 
L 323.786593 256.25773 
L 323.945193 276.145297 
L 324.103794 245.360432 
L 324.262394 264.15827 
L 324.420994 232.283676 
L 324.579594 271.650162 
L 324.896794 264.022054 
L 325.055395 275.464216 
L 325.213995 248.357189 
L 325.372595 282.411243 
L 325.531195 275.736649 
L 325.689795 263.204757 
L 325.848395 234.871784 
L 326.006996 273.829622 
L 326.165596 263.204757 
L 326.324196 284.182054 
L 326.641396 271.37773 
L 326.799996 277.916108 
L 326.958597 247.267459 
L 327.117197 275.736649 
L 327.275797 273.965838 
L 327.434397 244.270703 
L 327.592997 244.815568 
L 327.751597 239.911784 
L 327.910198 269.062054 
L 328.068798 248.902054 
L 328.227398 271.37773 
L 328.544598 234.599351 
L 328.703198 266.882595 
L 328.861799 267.291243 
L 329.020399 274.646919 
L 329.178999 275.736649 
L 329.337599 234.190703 
L 329.496199 278.188541 
L 329.654799 250.536649 
L 329.8134 280.368 
L 329.972 272.603676 
L 330.1306 271.922595 
L 330.2892 275.055568 
L 330.4478 258.845838 
L 330.6064 283.909622 
L 330.765001 262.251243 
L 330.923601 265.656649 
L 331.082201 287.042595 
L 331.240801 252.307459 
L 331.399401 282.547459 
L 331.558002 247.403676 
L 331.716602 274.102054 
L 331.875202 275.191784 
L 332.192402 260.752865 
L 332.351002 272.739892 
L 332.509603 246.313946 
L 332.826803 278.869622 
L 332.985403 265.520432 
L 333.144003 273.420973 
L 333.302603 287.178811 
L 333.461204 262.659892 
L 333.619804 263.068541 
L 333.778404 253.397189 
L 334.095604 283.909622 
L 334.254204 279.414486 
L 334.412805 270.969081 
L 334.571405 251.21773 
L 334.730005 284.590703 
L 334.888605 245.632865 
L 335.047205 249.583135 
L 335.205805 241.410162 
L 335.364406 265.248 
L 335.523006 259.390703 
L 335.681606 273.829622 
L 335.840206 274.510703 
L 335.998806 268.244757 
L 336.157406 279.142054 
L 336.474607 260.616649 
L 336.633207 262.115027 
L 336.791807 276.690162 
L 336.950407 272.739892 
L 337.109007 256.530162 
L 337.426208 278.324757 
L 337.584808 292.627459 
L 337.902008 241.955027 
L 338.060608 258.982054 
L 338.219209 227.924757 
L 338.536409 280.368 
L 338.695009 262.251243 
L 338.853609 284.999351 
L 339.012209 268.789622 
L 339.17081 269.062054 
L 339.32941 257.211243 
L 339.64661 267.291243 
L 339.80521 260.208 
L 339.96381 236.642595 
L 340.122411 255.849081 
L 340.281011 245.632865 
L 340.439611 255.031784 
L 340.598211 283.364757 
L 340.756811 260.344216 
L 340.915411 261.842595 
L 341.074012 284.045838 
L 341.232612 255.440432 
L 341.391212 271.786378 
L 341.549812 263.477189 
L 341.708412 264.294486 
L 341.867012 258.982054 
L 342.025613 257.756108 
L 342.184213 262.387459 
L 342.342813 236.642595 
L 342.501413 272.876108 
L 342.818613 246.995027 
L 342.977214 262.932324 
L 343.135814 255.031784 
L 343.294414 253.669622 
L 343.453014 257.619892 
L 343.611614 232.419892 
L 343.928815 266.473946 
L 344.087415 249.991784 
L 344.246015 270.015568 
L 344.404615 263.749622 
L 344.563215 270.151784 
L 344.721816 223.974486 
L 344.880416 272.331243 
L 345.039016 271.105297 
L 345.197616 271.786378 
L 345.356216 260.752865 
L 345.514816 240.048 
L 345.673417 281.45773 
L 346.149217 252.307459 
L 346.307817 255.576649 
L 346.625018 280.776649 
L 346.783618 275.600432 
L 346.942218 266.33773 
L 347.100818 280.504216 
L 347.259418 254.759351 
L 347.418018 255.985297 
L 347.576619 283.500973 
L 347.735219 270.696649 
L 347.893819 234.735568 
L 348.052419 265.248 
L 348.369619 247.948541 
L 348.52822 273.829622 
L 348.68682 271.241514 
L 348.84542 246.450162 
L 349.00402 241.682595 
L 349.16262 245.496649 
L 349.32122 266.473946 
L 349.479821 270.151784 
L 349.638421 277.235027 
L 349.955621 254.623135 
L 350.114221 265.929081 
L 350.272821 246.858811 
L 350.431422 256.802595 
L 350.590022 277.507459 
L 350.748622 269.743135 
L 350.907222 250.536649 
L 351.065822 285.816649 
L 351.224422 279.414486 
L 351.383023 284.999351 
L 351.858823 246.17773 
L 352.017423 252.579892 
L 352.334624 272.876108 
L 352.493224 243.725838 
L 352.651824 260.616649 
L 352.810424 251.626378 
L 352.969024 249.03827 
L 353.127624 273.012324 
L 353.444825 227.107459 
L 353.603425 239.775568 
L 353.762025 270.696649 
L 353.920625 278.052324 
L 354.079225 268.653405 
L 354.237826 272.331243 
L 354.396426 263.613405 
L 354.555026 240.729081 
L 354.713626 273.557189 
L 354.872226 256.121514 
L 355.030826 218.389622 
L 355.348027 266.882595 
L 355.506627 271.650162 
L 355.665227 246.17773 
L 355.823827 270.560432 
L 355.982427 266.473946 
L 356.299628 278.324757 
L 356.458228 248.765838 
L 356.616828 275.055568 
L 356.775428 266.473946 
L 356.934029 264.294486 
L 357.092629 248.629622 
L 357.251229 255.304216 
L 357.409829 283.637189 
L 357.568429 252.035027 
L 357.727029 243.99827 
L 358.04423 268.244757 
L 358.20283 276.009081 
L 358.52003 264.975568 
L 358.67863 260.071784 
L 358.837231 270.151784 
L 358.995831 262.659892 
L 359.154431 265.520432 
L 359.471631 260.344216 
L 359.788832 271.513946 
L 359.947432 269.879351 
L 360.106032 275.872865 
L 360.264632 255.440432 
L 360.423232 270.560432 
L 360.581832 263.613405 
L 360.740433 267.563676 
L 360.899033 232.419892 
L 361.057633 286.225297 
L 361.216233 222.748541 
L 361.374833 254.759351 
L 361.533433 248.357189 
L 361.692034 263.885838 
L 361.850634 257.211243 
L 362.009234 230.512865 
L 362.326434 266.746378 
L 362.485034 255.985297 
L 362.643635 261.978811 
L 362.802235 272.467459 
L 362.960835 266.473946 
L 363.119435 255.168 
L 363.278035 232.828541 
L 363.595236 253.397189 
L 363.753836 234.735568 
L 363.912436 265.792865 
L 364.071036 273.557189 
L 364.229636 251.490162 
L 364.388236 251.353946 
L 364.546837 265.520432 
L 364.864037 260.889081 
L 365.022637 265.792865 
L 365.339837 243.862054 
L 365.498438 251.353946 
L 365.657038 245.088 
L 365.974238 252.443676 
L 366.132838 263.613405 
L 366.291438 220.841514 
L 366.450039 252.035027 
L 366.608639 248.084757 
L 366.767239 250.809081 
L 366.925839 276.962595 
L 367.40164 228.060973 
L 367.56024 266.882595 
L 367.71884 263.068541 
L 367.87744 247.403676 
L 368.03604 246.041514 
L 368.511841 280.095568 
L 368.670441 269.19827 
L 368.829041 272.467459 
L 368.987641 243.453405 
L 369.146242 249.446919 
L 369.304842 271.105297 
L 369.463442 244.951784 
L 369.780642 269.606919 
L 369.939242 268.244757 
L 370.097843 239.366919 
L 370.256443 259.390703 
L 370.573643 267.563676 
L 370.732243 250.809081 
L 370.890843 270.288 
L 371.049444 270.015568 
L 371.208044 251.21773 
L 371.366644 258.164757 
L 371.525244 246.995027 
L 371.683844 248.220973 
L 371.842444 270.696649 
L 372.001045 244.270703 
L 372.318245 262.387459 
L 372.476845 260.344216 
L 372.635445 250.264216 
L 372.952646 269.334486 
L 373.111246 237.868541 
L 373.269846 272.058811 
L 373.428446 270.696649 
L 373.587046 278.597189 
L 373.745646 250.945297 
L 373.904247 242.908541 
L 374.062847 249.855568 
L 374.221447 262.659892 
L 374.380047 232.828541 
L 374.697247 268.789622 
L 374.855848 255.985297 
L 375.014448 261.706378 
L 375.331648 255.168 
L 375.490248 255.440432 
L 375.648848 279.550703 
L 375.807449 245.496649 
L 375.966049 262.659892 
L 376.124649 262.932324 
L 376.283249 243.044757 
L 376.600449 258.709622 
L 376.75905 259.799351 
L 376.91765 255.168 
L 377.07625 233.645838 
L 377.23485 262.796108 
L 377.39345 254.214486 
L 377.55205 266.882595 
L 377.710651 250.945297 
L 377.869251 255.849081 
L 378.027851 249.855568 
L 378.186451 251.898811 
L 378.345051 257.892324 
L 378.503651 237.323676 
L 378.662252 264.839351 
L 378.820852 253.805838 
L 378.979452 263.340973 
L 379.138052 247.539892 
L 379.455252 263.477189 
L 379.613853 222.203676 
L 379.931053 258.982054 
L 380.089653 247.403676 
L 380.248253 264.975568 
L 380.406853 252.443676 
L 380.565454 250.128 
L 380.724054 243.99827 
L 380.882654 259.935568 
L 381.041254 236.778811 
L 381.199854 252.716108 
L 381.517055 230.512865 
L 381.675655 251.490162 
L 381.834255 244.543135 
L 381.992855 262.523676 
L 382.310056 232.556108 
L 382.468656 257.483676 
L 382.785856 230.104216 
L 382.944456 249.991784 
L 383.103056 211.033946 
L 383.261657 249.174486 
L 383.420257 235.416649 
L 383.578857 258.709622 
L 383.737457 255.304216 
L 383.896057 258.300973 
L 384.054657 225.200432 
L 384.371858 248.084757 
L 384.530458 253.260973 
L 384.689058 241.955027 
L 384.847658 195.641514 
L 385.006258 245.088 
L 385.164859 210.352865 
L 385.323459 248.902054 
L 385.482059 253.805838 
L 385.799259 232.828541 
L 385.957859 231.602595 
L 386.27506 240.456649 
L 386.59226 235.280432 
L 386.75086 235.552865 
L 386.90946 237.459892 
L 387.068061 242.363676 
L 387.226661 242.091243 
L 387.385261 223.974486 
L 387.543861 249.03827 
L 387.702461 243.862054 
L 387.861061 220.432865 
L 388.019662 257.619892 
L 388.178262 232.419892 
L 388.336862 244.815568 
L 388.495462 233.91827 
L 388.654062 235.008 
L 388.812662 243.317189 
L 388.971263 229.014486 
L 389.129863 227.516108 
L 389.288463 234.190703 
L 389.447063 217.980973 
L 389.605663 248.629622 
L 389.764263 229.150703 
L 389.922864 230.785297 
L 390.081464 214.984216 
L 390.240064 243.725838 
L 390.398664 199.455568 
L 390.557264 230.104216 
L 390.715864 221.931243 
L 390.874465 220.432865 
L 391.033065 216.755027 
L 391.191665 216.482595 
L 391.350265 238.549622 
L 391.508865 176.162595 
L 391.826066 235.008 
L 391.984666 223.974486 
L 392.143266 222.339892 
L 392.301866 207.492324 
L 392.460466 239.503135 
L 392.619066 213.213405 
L 392.777667 216.073946 
L 392.936267 202.724757 
L 393.094867 229.423135 
L 393.412067 194.551784 
L 393.570667 210.489081 
L 393.729268 214.848 
L 393.887868 193.325838 
L 394.046468 217.572324 
L 394.205068 208.445838 
L 394.363668 210.625297 
L 394.522269 205.585297 
L 394.680869 210.352865 
L 394.839469 210.489081 
L 394.998069 215.120432 
L 395.156669 215.665297 
L 395.315269 180.521514 
L 395.47387 196.186378 
L 395.63247 181.066378 
L 395.79107 223.83827 
L 396.10827 177.116108 
L 396.26687 179.431784 
L 396.425471 206.675027 
L 396.742671 173.983135 
L 396.901271 200.681514 
L 397.059871 160.633946 
L 397.218471 180.930162 
L 397.377072 180.521514 
L 397.535672 154.640432 
L 397.694272 176.571243 
L 397.852872 143.470703 
L 398.011472 147.420973 
L 398.170072 156.956108 
L 398.328673 137.068541 
L 398.487273 150.962595 
L 398.487273 150.962595 
" style="fill:none;stroke:#1f77b4;stroke-linecap:square;stroke-width:1.5;"/>
   </g>
   <g id="patch_3">
    <path d="M 57.6 307.584 
L 57.6 41.472 
" style="fill:none;stroke:#000000;stroke-linecap:square;stroke-linejoin:miter;stroke-width:0.8;"/>
   </g>
   <g id="patch_4">
    <path d="M 414.72 307.584 
L 414.72 41.472 
" style="fill:none;stroke:#000000;stroke-linecap:square;stroke-linejoin:miter;stroke-width:0.8;"/>
   </g>
   <g id="patch_5">
    <path d="M 57.6 307.584 
L 414.72 307.584 
" style="fill:none;stroke:#000000;stroke-linecap:square;stroke-linejoin:miter;stroke-width:0.8;"/>
   </g>
   <g id="patch_6">
    <path d="M 57.6 41.472 
L 414.72 41.472 
" style="fill:none;stroke:#000000;stroke-linecap:square;stroke-linejoin:miter;stroke-width:0.8;"/>
   </g>
   <g id="text_17">
    <!-- Raw signal -->
    <g transform="translate(203.8875 35.472)scale(0.12 -0.12)">
     <defs>
      <path d="M 2841 2188 
Q 3044 2119 3236 1894 
Q 3428 1669 3622 1275 
L 4263 0 
L 3584 0 
L 2988 1197 
Q 2756 1666 2539 1819 
Q 2322 1972 1947 1972 
L 1259 1972 
L 1259 0 
L 628 0 
L 628 4666 
L 2053 4666 
Q 2853 4666 3247 4331 
Q 3641 3997 3641 3322 
Q 3641 2881 3436 2590 
Q 3231 2300 2841 2188 
z
M 1259 4147 
L 1259 2491 
L 2053 2491 
Q 2509 2491 2742 2702 
Q 2975 2913 2975 3322 
Q 2975 3731 2742 3939 
Q 2509 4147 2053 4147 
L 1259 4147 
z
" id="DejaVuSans-52" transform="scale(0.015625)"/>
      <path d="M 269 3500 
L 844 3500 
L 1563 769 
L 2278 3500 
L 2956 3500 
L 3675 769 
L 4391 3500 
L 4966 3500 
L 4050 0 
L 3372 0 
L 2619 2869 
L 1863 0 
L 1184 0 
L 269 3500 
z
" id="DejaVuSans-77" transform="scale(0.015625)"/>
      <path d="M 603 3500 
L 1178 3500 
L 1178 0 
L 603 0 
L 603 3500 
z
M 603 4863 
L 1178 4863 
L 1178 4134 
L 603 4134 
L 603 4863 
z
" id="DejaVuSans-69" transform="scale(0.015625)"/>
     </defs>
     <use xlink:href="#DejaVuSans-52"/>
     <use x="67.232422" xlink:href="#DejaVuSans-61"/>
     <use x="128.511719" xlink:href="#DejaVuSans-77"/>
     <use x="210.298828" xlink:href="#DejaVuSans-20"/>
     <use x="242.085938" xlink:href="#DejaVuSans-73"/>
     <use x="294.185547" xlink:href="#DejaVuSans-69"/>
     <use x="321.96875" xlink:href="#DejaVuSans-67"/>
     <use x="385.445312" xlink:href="#DejaVuSans-6e"/>
     <use x="448.824219" xlink:href="#DejaVuSans-61"/>
     <use x="510.103516" xlink:href="#DejaVuSans-6c"/>
    </g>
   </g>
  </g>
 </g>
 <defs>
  <clipPath id="pae3e04d484">
   <rect height="266.112" width="357.12" x="57.6" y="41.472"/>
  </clipPath>
 </defs>
</svg>
