<?xml version="1.0" encoding="utf-8" standalone="no"?>
<!DOCTYPE svg PUBLIC "-//W3C//DTD SVG 1.1//EN"
  "http://www.w3.org/Graphics/SVG/1.1/DTD/svg11.dtd">
<svg height="345.6pt" version="1.1" viewBox="0 0 460.8 345.6" width="460.8pt" xmlns="http://www.w3.org/2000/svg" xmlns:xlink="http://www.w3.org/1999/xlink">
 <metadata>
  <rdf:RDF xmlns:cc="http://creativecommons.org/ns#" xmlns:dc="http://purl.org/dc/elements/1.1/" xmlns:rdf="http://www.w3.org/1999/02/22-rdf-syntax-ns#">
   <cc:Work>
    <dc:type rdf:resource="http://purl.org/dc/dcmitype/StillImage"/>
    <dc:date>2022-06-03T23:57:05.984000</dc:date>
    <dc:format>image/svg+xml</dc:format>
    <dc:creator>
     <cc:Agent>
      <dc:title>Matplotlib v3.4.1, https://matplotlib.org/</dc:title>
     </cc:Agent>
    </dc:creator>
   </cc:Work>
  </rdf:RDF>
 </metadata>
 <defs>
  <style type="text/css">*{stroke-linecap:butt;stroke-linejoin:round;}</style>
 </defs>
 <g id="figure_1">
  <g id="patch_1">
   <path d="M 0 345.6 
L 460.8 345.6 
L 460.8 0 
L 0 0 
z
" style="fill:#ffffff;"/>
  </g>
  <g id="axes_1">
   <g id="patch_2">
    <path d="M 57.6 307.584 
L 414.72 307.584 
L 414.72 41.472 
L 57.6 41.472 
z
" style="fill:#ffffff;"/>
   </g>
   <g id="matplotlib.axis_1">
    <g id="xtick_1">
     <g id="line2d_1">
      <defs>
       <path d="M 0 0 
L 0 3.5 
" id="m7dbe44c043" style="stroke:#000000;stroke-width:0.8;"/>
      </defs>
      <g>
       <use style="stroke:#000000;stroke-width:0.8;" x="102.929605" xlink:href="#m7dbe44c043" y="307.584"/>
      </g>
     </g>
     <g id="text_1">
      <!-- 400 -->
      <g transform="translate(93.385855 322.182437)scale(0.1 -0.1)">
       <defs>
        <path d="M 2419 4116 
L 825 1625 
L 2419 1625 
L 2419 4116 
z
M 2253 4666 
L 3047 4666 
L 3047 1625 
L 3713 1625 
L 3713 1100 
L 3047 1100 
L 3047 0 
L 2419 0 
L 2419 1100 
L 313 1100 
L 313 1709 
L 2253 4666 
z
" id="DejaVuSans-34" transform="scale(0.015625)"/>
        <path d="M 2034 4250 
Q 1547 4250 1301 3770 
Q 1056 3291 1056 2328 
Q 1056 1369 1301 889 
Q 1547 409 2034 409 
Q 2525 409 2770 889 
Q 3016 1369 3016 2328 
Q 3016 3291 2770 3770 
Q 2525 4250 2034 4250 
z
M 2034 4750 
Q 2819 4750 3233 4129 
Q 3647 3509 3647 2328 
Q 3647 1150 3233 529 
Q 2819 -91 2034 -91 
Q 1250 -91 836 529 
Q 422 1150 422 2328 
Q 422 3509 836 4129 
Q 1250 4750 2034 4750 
z
" id="DejaVuSans-30" transform="scale(0.015625)"/>
       </defs>
       <use xlink:href="#DejaVuSans-34"/>
       <use x="63.623047" xlink:href="#DejaVuSans-30"/>
       <use x="127.246094" xlink:href="#DejaVuSans-30"/>
      </g>
     </g>
    </g>
    <g id="xtick_2">
     <g id="line2d_2">
      <g>
       <use style="stroke:#000000;stroke-width:0.8;" x="160.931952" xlink:href="#m7dbe44c043" y="307.584"/>
      </g>
     </g>
     <g id="text_2">
      <!-- 600 -->
      <g transform="translate(151.388202 322.182437)scale(0.1 -0.1)">
       <defs>
        <path d="M 2113 2584 
Q 1688 2584 1439 2293 
Q 1191 2003 1191 1497 
Q 1191 994 1439 701 
Q 1688 409 2113 409 
Q 2538 409 2786 701 
Q 3034 994 3034 1497 
Q 3034 2003 2786 2293 
Q 2538 2584 2113 2584 
z
M 3366 4563 
L 3366 3988 
Q 3128 4100 2886 4159 
Q 2644 4219 2406 4219 
Q 1781 4219 1451 3797 
Q 1122 3375 1075 2522 
Q 1259 2794 1537 2939 
Q 1816 3084 2150 3084 
Q 2853 3084 3261 2657 
Q 3669 2231 3669 1497 
Q 3669 778 3244 343 
Q 2819 -91 2113 -91 
Q 1303 -91 875 529 
Q 447 1150 447 2328 
Q 447 3434 972 4092 
Q 1497 4750 2381 4750 
Q 2619 4750 2861 4703 
Q 3103 4656 3366 4563 
z
" id="DejaVuSans-36" transform="scale(0.015625)"/>
       </defs>
       <use xlink:href="#DejaVuSans-36"/>
       <use x="63.623047" xlink:href="#DejaVuSans-30"/>
       <use x="127.246094" xlink:href="#DejaVuSans-30"/>
      </g>
     </g>
    </g>
    <g id="xtick_3">
     <g id="line2d_3">
      <g>
       <use style="stroke:#000000;stroke-width:0.8;" x="218.9343" xlink:href="#m7dbe44c043" y="307.584"/>
      </g>
     </g>
     <g id="text_3">
      <!-- 800 -->
      <g transform="translate(209.39055 322.182437)scale(0.1 -0.1)">
       <defs>
        <path d="M 2034 2216 
Q 1584 2216 1326 1975 
Q 1069 1734 1069 1313 
Q 1069 891 1326 650 
Q 1584 409 2034 409 
Q 2484 409 2743 651 
Q 3003 894 3003 1313 
Q 3003 1734 2745 1975 
Q 2488 2216 2034 2216 
z
M 1403 2484 
Q 997 2584 770 2862 
Q 544 3141 544 3541 
Q 544 4100 942 4425 
Q 1341 4750 2034 4750 
Q 2731 4750 3128 4425 
Q 3525 4100 3525 3541 
Q 3525 3141 3298 2862 
Q 3072 2584 2669 2484 
Q 3125 2378 3379 2068 
Q 3634 1759 3634 1313 
Q 3634 634 3220 271 
Q 2806 -91 2034 -91 
Q 1263 -91 848 271 
Q 434 634 434 1313 
Q 434 1759 690 2068 
Q 947 2378 1403 2484 
z
M 1172 3481 
Q 1172 3119 1398 2916 
Q 1625 2713 2034 2713 
Q 2441 2713 2670 2916 
Q 2900 3119 2900 3481 
Q 2900 3844 2670 4047 
Q 2441 4250 2034 4250 
Q 1625 4250 1398 4047 
Q 1172 3844 1172 3481 
z
" id="DejaVuSans-38" transform="scale(0.015625)"/>
       </defs>
       <use xlink:href="#DejaVuSans-38"/>
       <use x="63.623047" xlink:href="#DejaVuSans-30"/>
       <use x="127.246094" xlink:href="#DejaVuSans-30"/>
      </g>
     </g>
    </g>
    <g id="xtick_4">
     <g id="line2d_4">
      <g>
       <use style="stroke:#000000;stroke-width:0.8;" x="276.936647" xlink:href="#m7dbe44c043" y="307.584"/>
      </g>
     </g>
     <g id="text_4">
      <!-- 1000 -->
      <g transform="translate(264.211647 322.182437)scale(0.1 -0.1)">
       <defs>
        <path d="M 794 531 
L 1825 531 
L 1825 4091 
L 703 3866 
L 703 4441 
L 1819 4666 
L 2450 4666 
L 2450 531 
L 3481 531 
L 3481 0 
L 794 0 
L 794 531 
z
" id="DejaVuSans-31" transform="scale(0.015625)"/>
       </defs>
       <use xlink:href="#DejaVuSans-31"/>
       <use x="63.623047" xlink:href="#DejaVuSans-30"/>
       <use x="127.246094" xlink:href="#DejaVuSans-30"/>
       <use x="190.869141" xlink:href="#DejaVuSans-30"/>
      </g>
     </g>
    </g>
    <g id="xtick_5">
     <g id="line2d_5">
      <g>
       <use style="stroke:#000000;stroke-width:0.8;" x="334.938995" xlink:href="#m7dbe44c043" y="307.584"/>
      </g>
     </g>
     <g id="text_5">
      <!-- 1200 -->
      <g transform="translate(322.213995 322.182437)scale(0.1 -0.1)">
       <defs>
        <path d="M 1228 531 
L 3431 531 
L 3431 0 
L 469 0 
L 469 531 
Q 828 903 1448 1529 
Q 2069 2156 2228 2338 
Q 2531 2678 2651 2914 
Q 2772 3150 2772 3378 
Q 2772 3750 2511 3984 
Q 2250 4219 1831 4219 
Q 1534 4219 1204 4116 
Q 875 4013 500 3803 
L 500 4441 
Q 881 4594 1212 4672 
Q 1544 4750 1819 4750 
Q 2544 4750 2975 4387 
Q 3406 4025 3406 3419 
Q 3406 3131 3298 2873 
Q 3191 2616 2906 2266 
Q 2828 2175 2409 1742 
Q 1991 1309 1228 531 
z
" id="DejaVuSans-32" transform="scale(0.015625)"/>
       </defs>
       <use xlink:href="#DejaVuSans-31"/>
       <use x="63.623047" xlink:href="#DejaVuSans-32"/>
       <use x="127.246094" xlink:href="#DejaVuSans-30"/>
       <use x="190.869141" xlink:href="#DejaVuSans-30"/>
      </g>
     </g>
    </g>
    <g id="xtick_6">
     <g id="line2d_6">
      <g>
       <use style="stroke:#000000;stroke-width:0.8;" x="392.941342" xlink:href="#m7dbe44c043" y="307.584"/>
      </g>
     </g>
     <g id="text_6">
      <!-- 1400 -->
      <g transform="translate(380.216342 322.182437)scale(0.1 -0.1)">
       <use xlink:href="#DejaVuSans-31"/>
       <use x="63.623047" xlink:href="#DejaVuSans-34"/>
       <use x="127.246094" xlink:href="#DejaVuSans-30"/>
       <use x="190.869141" xlink:href="#DejaVuSans-30"/>
      </g>
     </g>
    </g>
    <g id="text_7">
     <!-- Wavelength [nm] -->
     <g transform="translate(192.967812 335.860562)scale(0.1 -0.1)">
      <defs>
       <path d="M 213 4666 
L 850 4666 
L 1831 722 
L 2809 4666 
L 3519 4666 
L 4500 722 
L 5478 4666 
L 6119 4666 
L 4947 0 
L 4153 0 
L 3169 4050 
L 2175 0 
L 1381 0 
L 213 4666 
z
" id="DejaVuSans-57" transform="scale(0.015625)"/>
       <path d="M 2194 1759 
Q 1497 1759 1228 1600 
Q 959 1441 959 1056 
Q 959 750 1161 570 
Q 1363 391 1709 391 
Q 2188 391 2477 730 
Q 2766 1069 2766 1631 
L 2766 1759 
L 2194 1759 
z
M 3341 1997 
L 3341 0 
L 2766 0 
L 2766 531 
Q 2569 213 2275 61 
Q 1981 -91 1556 -91 
Q 1019 -91 701 211 
Q 384 513 384 1019 
Q 384 1609 779 1909 
Q 1175 2209 1959 2209 
L 2766 2209 
L 2766 2266 
Q 2766 2663 2505 2880 
Q 2244 3097 1772 3097 
Q 1472 3097 1187 3025 
Q 903 2953 641 2809 
L 641 3341 
Q 956 3463 1253 3523 
Q 1550 3584 1831 3584 
Q 2591 3584 2966 3190 
Q 3341 2797 3341 1997 
z
" id="DejaVuSans-61" transform="scale(0.015625)"/>
       <path d="M 191 3500 
L 800 3500 
L 1894 563 
L 2988 3500 
L 3597 3500 
L 2284 0 
L 1503 0 
L 191 3500 
z
" id="DejaVuSans-76" transform="scale(0.015625)"/>
       <path d="M 3597 1894 
L 3597 1613 
L 953 1613 
Q 991 1019 1311 708 
Q 1631 397 2203 397 
Q 2534 397 2845 478 
Q 3156 559 3463 722 
L 3463 178 
Q 3153 47 2828 -22 
Q 2503 -91 2169 -91 
Q 1331 -91 842 396 
Q 353 884 353 1716 
Q 353 2575 817 3079 
Q 1281 3584 2069 3584 
Q 2775 3584 3186 3129 
Q 3597 2675 3597 1894 
z
M 3022 2063 
Q 3016 2534 2758 2815 
Q 2500 3097 2075 3097 
Q 1594 3097 1305 2825 
Q 1016 2553 972 2059 
L 3022 2063 
z
" id="DejaVuSans-65" transform="scale(0.015625)"/>
       <path d="M 603 4863 
L 1178 4863 
L 1178 0 
L 603 0 
L 603 4863 
z
" id="DejaVuSans-6c" transform="scale(0.015625)"/>
       <path d="M 3513 2113 
L 3513 0 
L 2938 0 
L 2938 2094 
Q 2938 2591 2744 2837 
Q 2550 3084 2163 3084 
Q 1697 3084 1428 2787 
Q 1159 2491 1159 1978 
L 1159 0 
L 581 0 
L 581 3500 
L 1159 3500 
L 1159 2956 
Q 1366 3272 1645 3428 
Q 1925 3584 2291 3584 
Q 2894 3584 3203 3211 
Q 3513 2838 3513 2113 
z
" id="DejaVuSans-6e" transform="scale(0.015625)"/>
       <path d="M 2906 1791 
Q 2906 2416 2648 2759 
Q 2391 3103 1925 3103 
Q 1463 3103 1205 2759 
Q 947 2416 947 1791 
Q 947 1169 1205 825 
Q 1463 481 1925 481 
Q 2391 481 2648 825 
Q 2906 1169 2906 1791 
z
M 3481 434 
Q 3481 -459 3084 -895 
Q 2688 -1331 1869 -1331 
Q 1566 -1331 1297 -1286 
Q 1028 -1241 775 -1147 
L 775 -588 
Q 1028 -725 1275 -790 
Q 1522 -856 1778 -856 
Q 2344 -856 2625 -561 
Q 2906 -266 2906 331 
L 2906 616 
Q 2728 306 2450 153 
Q 2172 0 1784 0 
Q 1141 0 747 490 
Q 353 981 353 1791 
Q 353 2603 747 3093 
Q 1141 3584 1784 3584 
Q 2172 3584 2450 3431 
Q 2728 3278 2906 2969 
L 2906 3500 
L 3481 3500 
L 3481 434 
z
" id="DejaVuSans-67" transform="scale(0.015625)"/>
       <path d="M 1172 4494 
L 1172 3500 
L 2356 3500 
L 2356 3053 
L 1172 3053 
L 1172 1153 
Q 1172 725 1289 603 
Q 1406 481 1766 481 
L 2356 481 
L 2356 0 
L 1766 0 
Q 1100 0 847 248 
Q 594 497 594 1153 
L 594 3053 
L 172 3053 
L 172 3500 
L 594 3500 
L 594 4494 
L 1172 4494 
z
" id="DejaVuSans-74" transform="scale(0.015625)"/>
       <path d="M 3513 2113 
L 3513 0 
L 2938 0 
L 2938 2094 
Q 2938 2591 2744 2837 
Q 2550 3084 2163 3084 
Q 1697 3084 1428 2787 
Q 1159 2491 1159 1978 
L 1159 0 
L 581 0 
L 581 4863 
L 1159 4863 
L 1159 2956 
Q 1366 3272 1645 3428 
Q 1925 3584 2291 3584 
Q 2894 3584 3203 3211 
Q 3513 2838 3513 2113 
z
" id="DejaVuSans-68" transform="scale(0.015625)"/>
       <path id="DejaVuSans-20" transform="scale(0.015625)"/>
       <path d="M 550 4863 
L 1875 4863 
L 1875 4416 
L 1125 4416 
L 1125 -397 
L 1875 -397 
L 1875 -844 
L 550 -844 
L 550 4863 
z
" id="DejaVuSans-5b" transform="scale(0.015625)"/>
       <path d="M 3328 2828 
Q 3544 3216 3844 3400 
Q 4144 3584 4550 3584 
Q 5097 3584 5394 3201 
Q 5691 2819 5691 2113 
L 5691 0 
L 5113 0 
L 5113 2094 
Q 5113 2597 4934 2840 
Q 4756 3084 4391 3084 
Q 3944 3084 3684 2787 
Q 3425 2491 3425 1978 
L 3425 0 
L 2847 0 
L 2847 2094 
Q 2847 2600 2669 2842 
Q 2491 3084 2119 3084 
Q 1678 3084 1418 2786 
Q 1159 2488 1159 1978 
L 1159 0 
L 581 0 
L 581 3500 
L 1159 3500 
L 1159 2956 
Q 1356 3278 1631 3431 
Q 1906 3584 2284 3584 
Q 2666 3584 2933 3390 
Q 3200 3197 3328 2828 
z
" id="DejaVuSans-6d" transform="scale(0.015625)"/>
       <path d="M 1947 4863 
L 1947 -844 
L 622 -844 
L 622 -397 
L 1369 -397 
L 1369 4416 
L 622 4416 
L 622 4863 
L 1947 4863 
z
" id="DejaVuSans-5d" transform="scale(0.015625)"/>
      </defs>
      <use xlink:href="#DejaVuSans-57"/>
      <use x="92.501953" xlink:href="#DejaVuSans-61"/>
      <use x="153.78125" xlink:href="#DejaVuSans-76"/>
      <use x="212.960938" xlink:href="#DejaVuSans-65"/>
      <use x="274.484375" xlink:href="#DejaVuSans-6c"/>
      <use x="302.267578" xlink:href="#DejaVuSans-65"/>
      <use x="363.791016" xlink:href="#DejaVuSans-6e"/>
      <use x="427.169922" xlink:href="#DejaVuSans-67"/>
      <use x="490.646484" xlink:href="#DejaVuSans-74"/>
      <use x="529.855469" xlink:href="#DejaVuSans-68"/>
      <use x="593.234375" xlink:href="#DejaVuSans-20"/>
      <use x="625.021484" xlink:href="#DejaVuSans-5b"/>
      <use x="664.035156" xlink:href="#DejaVuSans-6e"/>
      <use x="727.414062" xlink:href="#DejaVuSans-6d"/>
      <use x="824.826172" xlink:href="#DejaVuSans-5d"/>
     </g>
    </g>
   </g>
   <g id="matplotlib.axis_2">
    <g id="ytick_1">
     <g id="line2d_7">
      <defs>
       <path d="M 0 0 
L -3.5 0 
" id="mf6041945ac" style="stroke:#000000;stroke-width:0.8;"/>
      </defs>
      <g>
       <use style="stroke:#000000;stroke-width:0.8;" x="57.6" xlink:href="#mf6041945ac" y="307.022454"/>
      </g>
     </g>
     <g id="text_8">
      <!-- −500 -->
      <g transform="translate(23.132812 310.821673)scale(0.1 -0.1)">
       <defs>
        <path d="M 678 2272 
L 4684 2272 
L 4684 1741 
L 678 1741 
L 678 2272 
z
" id="DejaVuSans-2212" transform="scale(0.015625)"/>
        <path d="M 691 4666 
L 3169 4666 
L 3169 4134 
L 1269 4134 
L 1269 2991 
Q 1406 3038 1543 3061 
Q 1681 3084 1819 3084 
Q 2600 3084 3056 2656 
Q 3513 2228 3513 1497 
Q 3513 744 3044 326 
Q 2575 -91 1722 -91 
Q 1428 -91 1123 -41 
Q 819 9 494 109 
L 494 744 
Q 775 591 1075 516 
Q 1375 441 1709 441 
Q 2250 441 2565 725 
Q 2881 1009 2881 1497 
Q 2881 1984 2565 2268 
Q 2250 2553 1709 2553 
Q 1456 2553 1204 2497 
Q 953 2441 691 2322 
L 691 4666 
z
" id="DejaVuSans-35" transform="scale(0.015625)"/>
       </defs>
       <use xlink:href="#DejaVuSans-2212"/>
       <use x="83.789062" xlink:href="#DejaVuSans-35"/>
       <use x="147.412109" xlink:href="#DejaVuSans-30"/>
       <use x="211.035156" xlink:href="#DejaVuSans-30"/>
      </g>
     </g>
    </g>
    <g id="ytick_2">
     <g id="line2d_8">
      <g>
       <use style="stroke:#000000;stroke-width:0.8;" x="57.6" xlink:href="#mf6041945ac" y="269.080171"/>
      </g>
     </g>
     <g id="text_9">
      <!-- 0 -->
      <g transform="translate(44.2375 272.879389)scale(0.1 -0.1)">
       <use xlink:href="#DejaVuSans-30"/>
      </g>
     </g>
    </g>
    <g id="ytick_3">
     <g id="line2d_9">
      <g>
       <use style="stroke:#000000;stroke-width:0.8;" x="57.6" xlink:href="#mf6041945ac" y="231.137887"/>
      </g>
     </g>
     <g id="text_10">
      <!-- 500 -->
      <g transform="translate(31.5125 234.937106)scale(0.1 -0.1)">
       <use xlink:href="#DejaVuSans-35"/>
       <use x="63.623047" xlink:href="#DejaVuSans-30"/>
       <use x="127.246094" xlink:href="#DejaVuSans-30"/>
      </g>
     </g>
    </g>
    <g id="ytick_4">
     <g id="line2d_10">
      <g>
       <use style="stroke:#000000;stroke-width:0.8;" x="57.6" xlink:href="#mf6041945ac" y="193.195604"/>
      </g>
     </g>
     <g id="text_11">
      <!-- 1000 -->
      <g transform="translate(25.15 196.994822)scale(0.1 -0.1)">
       <use xlink:href="#DejaVuSans-31"/>
       <use x="63.623047" xlink:href="#DejaVuSans-30"/>
       <use x="127.246094" xlink:href="#DejaVuSans-30"/>
       <use x="190.869141" xlink:href="#DejaVuSans-30"/>
      </g>
     </g>
    </g>
    <g id="ytick_5">
     <g id="line2d_11">
      <g>
       <use style="stroke:#000000;stroke-width:0.8;" x="57.6" xlink:href="#mf6041945ac" y="155.25332"/>
      </g>
     </g>
     <g id="text_12">
      <!-- 1500 -->
      <g transform="translate(25.15 159.052539)scale(0.1 -0.1)">
       <use xlink:href="#DejaVuSans-31"/>
       <use x="63.623047" xlink:href="#DejaVuSans-35"/>
       <use x="127.246094" xlink:href="#DejaVuSans-30"/>
       <use x="190.869141" xlink:href="#DejaVuSans-30"/>
      </g>
     </g>
    </g>
    <g id="ytick_6">
     <g id="line2d_12">
      <g>
       <use style="stroke:#000000;stroke-width:0.8;" x="57.6" xlink:href="#mf6041945ac" y="117.311036"/>
      </g>
     </g>
     <g id="text_13">
      <!-- 2000 -->
      <g transform="translate(25.15 121.110255)scale(0.1 -0.1)">
       <use xlink:href="#DejaVuSans-32"/>
       <use x="63.623047" xlink:href="#DejaVuSans-30"/>
       <use x="127.246094" xlink:href="#DejaVuSans-30"/>
       <use x="190.869141" xlink:href="#DejaVuSans-30"/>
      </g>
     </g>
    </g>
    <g id="ytick_7">
     <g id="line2d_13">
      <g>
       <use style="stroke:#000000;stroke-width:0.8;" x="57.6" xlink:href="#mf6041945ac" y="79.368753"/>
      </g>
     </g>
     <g id="text_14">
      <!-- 2500 -->
      <g transform="translate(25.15 83.167972)scale(0.1 -0.1)">
       <use xlink:href="#DejaVuSans-32"/>
       <use x="63.623047" xlink:href="#DejaVuSans-35"/>
       <use x="127.246094" xlink:href="#DejaVuSans-30"/>
       <use x="190.869141" xlink:href="#DejaVuSans-30"/>
      </g>
     </g>
    </g>
    <g id="text_15">
     <!-- Counts -->
     <g transform="translate(17.053125 191.981125)rotate(-90)scale(0.1 -0.1)">
      <defs>
       <path d="M 4122 4306 
L 4122 3641 
Q 3803 3938 3442 4084 
Q 3081 4231 2675 4231 
Q 1875 4231 1450 3742 
Q 1025 3253 1025 2328 
Q 1025 1406 1450 917 
Q 1875 428 2675 428 
Q 3081 428 3442 575 
Q 3803 722 4122 1019 
L 4122 359 
Q 3791 134 3420 21 
Q 3050 -91 2638 -91 
Q 1578 -91 968 557 
Q 359 1206 359 2328 
Q 359 3453 968 4101 
Q 1578 4750 2638 4750 
Q 3056 4750 3426 4639 
Q 3797 4528 4122 4306 
z
" id="DejaVuSans-43" transform="scale(0.015625)"/>
       <path d="M 1959 3097 
Q 1497 3097 1228 2736 
Q 959 2375 959 1747 
Q 959 1119 1226 758 
Q 1494 397 1959 397 
Q 2419 397 2687 759 
Q 2956 1122 2956 1747 
Q 2956 2369 2687 2733 
Q 2419 3097 1959 3097 
z
M 1959 3584 
Q 2709 3584 3137 3096 
Q 3566 2609 3566 1747 
Q 3566 888 3137 398 
Q 2709 -91 1959 -91 
Q 1206 -91 779 398 
Q 353 888 353 1747 
Q 353 2609 779 3096 
Q 1206 3584 1959 3584 
z
" id="DejaVuSans-6f" transform="scale(0.015625)"/>
       <path d="M 544 1381 
L 544 3500 
L 1119 3500 
L 1119 1403 
Q 1119 906 1312 657 
Q 1506 409 1894 409 
Q 2359 409 2629 706 
Q 2900 1003 2900 1516 
L 2900 3500 
L 3475 3500 
L 3475 0 
L 2900 0 
L 2900 538 
Q 2691 219 2414 64 
Q 2138 -91 1772 -91 
Q 1169 -91 856 284 
Q 544 659 544 1381 
z
M 1991 3584 
L 1991 3584 
z
" id="DejaVuSans-75" transform="scale(0.015625)"/>
       <path d="M 2834 3397 
L 2834 2853 
Q 2591 2978 2328 3040 
Q 2066 3103 1784 3103 
Q 1356 3103 1142 2972 
Q 928 2841 928 2578 
Q 928 2378 1081 2264 
Q 1234 2150 1697 2047 
L 1894 2003 
Q 2506 1872 2764 1633 
Q 3022 1394 3022 966 
Q 3022 478 2636 193 
Q 2250 -91 1575 -91 
Q 1294 -91 989 -36 
Q 684 19 347 128 
L 347 722 
Q 666 556 975 473 
Q 1284 391 1588 391 
Q 1994 391 2212 530 
Q 2431 669 2431 922 
Q 2431 1156 2273 1281 
Q 2116 1406 1581 1522 
L 1381 1569 
Q 847 1681 609 1914 
Q 372 2147 372 2553 
Q 372 3047 722 3315 
Q 1072 3584 1716 3584 
Q 2034 3584 2315 3537 
Q 2597 3491 2834 3397 
z
" id="DejaVuSans-73" transform="scale(0.015625)"/>
      </defs>
      <use xlink:href="#DejaVuSans-43"/>
      <use x="69.824219" xlink:href="#DejaVuSans-6f"/>
      <use x="131.005859" xlink:href="#DejaVuSans-75"/>
      <use x="194.384766" xlink:href="#DejaVuSans-6e"/>
      <use x="257.763672" xlink:href="#DejaVuSans-74"/>
      <use x="296.972656" xlink:href="#DejaVuSans-73"/>
     </g>
    </g>
   </g>
   <g id="line2d_14">
    <path clip-path="url(#p2959af0e2c)" d="M 73.832727 278.186319 
L 73.991327 269.383709 
L 74.149928 276.668627 
L 74.308528 259.974023 
L 74.467128 267.562479 
L 74.625728 264.223558 
L 74.784328 281.52524 
L 75.101529 254.206795 
L 75.418729 277.88278 
L 75.577329 255.724487 
L 75.735929 275.758013 
L 76.21173 259.063408 
L 76.37033 270.9014 
L 76.52893 268.776632 
L 76.68753 262.705867 
L 76.84613 262.705867 
L 77.004731 265.437711 
L 77.163331 283.042931 
L 77.321931 261.795252 
L 77.480531 260.884637 
L 77.639131 279.096934 
L 77.797731 276.365089 
L 77.956332 266.955403 
L 78.114932 280.918163 
L 78.432132 263.312944 
L 78.590732 265.74125 
L 78.749333 281.221701 
L 79.066533 269.080171 
L 79.225133 269.080171 
L 79.383733 258.75987 
L 79.542333 260.884637 
L 79.700934 258.456331 
L 79.859534 273.026168 
L 80.018134 266.651864 
L 80.335334 273.329706 
L 80.493934 263.312944 
L 80.652535 276.668627 
L 80.811135 259.366946 
L 81.128335 281.221701 
L 81.286935 255.724487 
L 81.604136 279.096934 
L 81.921336 257.242178 
L 82.079936 262.705867 
L 82.238536 261.491714 
L 82.397136 264.223558 
L 82.555737 258.152793 
L 82.714337 274.847398 
L 82.872937 269.687247 
L 83.031537 275.150936 
L 83.190137 251.474951 
L 83.348737 280.007548 
L 83.507338 265.74125 
L 83.665938 278.793395 
L 83.824538 262.705867 
L 83.983138 271.204939 
L 84.141738 269.080171 
L 84.300338 269.687247 
L 84.458939 250.867875 
L 84.776139 270.597862 
L 85.093339 255.11741 
L 85.41054 267.562479 
L 85.56914 263.312944 
L 85.72774 264.527097 
L 85.88634 260.277561 
L 86.04494 275.758013 
L 86.20354 260.581099 
L 86.520741 272.72263 
L 86.679341 261.795252 
L 86.837941 268.169556 
L 86.996541 257.242178 
L 87.155141 260.277561 
L 87.313742 273.026168 
L 87.472342 259.063408 
L 87.630942 274.847398 
L 87.948142 269.687247 
L 88.106742 254.510334 
L 88.265343 273.026168 
L 88.423943 266.348326 
L 88.582543 270.9014 
L 88.741143 281.221701 
L 89.058343 261.795252 
L 89.216944 267.258941 
L 89.375544 267.866018 
L 89.534144 259.974023 
L 89.692744 274.847398 
L 89.851344 277.275704 
L 90.009944 273.633245 
L 90.168545 278.793395 
L 90.327145 276.972166 
L 90.485745 269.687247 
L 90.644345 273.936783 
L 90.802945 270.9014 
L 90.961545 271.508477 
L 91.120146 277.88278 
L 91.278746 256.635102 
L 91.595946 267.562479 
L 91.754546 267.562479 
L 91.913147 264.223558 
L 92.230347 272.72263 
L 92.388947 256.93864 
L 92.547547 257.242178 
L 92.864748 284.864161 
L 93.181948 266.044788 
L 93.340548 265.437711 
L 93.499148 259.366946 
L 93.657748 266.955403 
L 93.816349 287.596005 
L 93.974949 247.225415 
L 94.292149 277.275704 
L 94.450749 257.545716 
L 94.609349 284.560622 
L 94.76795 260.581099 
L 94.92655 265.437711 
L 95.08515 258.75987 
L 95.40235 276.061551 
L 95.56095 269.080171 
L 95.878151 277.579242 
L 96.036751 270.9014 
L 96.353951 252.385566 
L 96.512551 266.651864 
L 96.829752 268.776632 
L 96.988352 264.830635 
L 97.146952 264.527097 
L 97.305552 276.668627 
L 97.464152 275.454474 
L 97.622753 264.223558 
L 98.098553 279.70401 
L 98.257153 261.795252 
L 98.574354 266.955403 
L 98.732954 266.044788 
L 98.891554 268.169556 
L 99.050154 259.670484 
L 99.208754 270.294324 
L 99.367354 272.72263 
L 99.525955 277.275704 
L 99.684555 254.510334 
L 99.843155 269.383709 
L 100.001755 269.687247 
L 100.160355 269.383709 
L 100.318955 266.651864 
L 100.477556 274.543859 
L 100.636156 265.134173 
L 100.794756 268.169556 
L 100.953356 279.70401 
L 101.111956 262.402329 
L 101.429157 265.74125 
L 101.587757 253.296181 
L 101.904957 280.007548 
L 102.222157 262.09879 
L 102.380758 283.650008 
L 102.539358 261.491714 
L 102.697958 276.668627 
L 103.015158 255.11741 
L 103.173758 285.167699 
L 103.332359 255.724487 
L 103.490959 277.88278 
L 103.649559 269.687247 
L 103.808159 282.435854 
L 103.966759 271.508477 
L 104.12536 269.080171 
L 104.28396 252.385566 
L 104.44256 271.204939 
L 104.60116 269.383709 
L 104.75976 258.152793 
L 104.91836 279.70401 
L 105.076961 265.437711 
L 105.235561 275.150936 
L 105.394161 275.150936 
L 105.552761 260.277561 
L 105.711361 267.258941 
L 105.869961 256.635102 
L 106.187162 269.383709 
L 106.345762 270.597862 
L 106.504362 261.795252 
L 106.662962 267.258941 
L 106.821562 259.670484 
L 107.138763 274.847398 
L 107.297363 271.204939 
L 107.455963 270.9014 
L 107.931764 274.847398 
L 108.248964 269.990785 
L 108.407564 270.294324 
L 108.724764 268.776632 
L 108.883365 265.74125 
L 109.041965 257.545716 
L 109.200565 276.061551 
L 109.359165 267.866018 
L 109.517765 273.329706 
L 109.676365 267.258941 
L 109.834966 269.080171 
L 109.993566 269.383709 
L 110.310766 267.258941 
L 110.469366 270.294324 
L 110.627966 284.864161 
L 110.786567 261.188176 
L 110.945167 264.830635 
L 111.103767 258.152793 
L 111.262367 266.348326 
L 111.420967 248.13603 
L 111.579567 280.311087 
L 111.738168 267.258941 
L 111.896768 272.115553 
L 112.055368 264.223558 
L 112.213968 274.240321 
L 112.531168 269.383709 
L 112.689769 270.597862 
L 112.848369 270.294324 
L 113.006969 263.616482 
L 113.165569 272.72263 
L 113.324169 265.437711 
L 113.482769 273.329706 
L 113.64137 265.74125 
L 113.79997 265.134173 
L 113.95857 274.543859 
L 114.11717 263.92002 
L 114.27577 275.758013 
L 114.43437 267.258941 
L 114.592971 273.026168 
L 114.751571 266.044788 
L 114.910171 253.599719 
L 115.068771 271.812015 
L 115.227371 255.420949 
L 115.703172 274.847398 
L 115.861772 288.203082 
L 116.178972 265.134173 
L 116.337573 285.774775 
L 116.496173 268.776632 
L 116.654773 269.990785 
L 116.813373 253.599719 
L 116.971973 275.150936 
L 117.130573 263.009405 
L 117.289174 267.562479 
L 117.447774 264.223558 
L 117.606374 256.635102 
L 117.764974 284.864161 
L 118.082174 263.616482 
L 118.399375 274.543859 
L 118.557975 261.188176 
L 118.716575 265.74125 
L 118.875175 261.491714 
L 119.033775 264.830635 
L 119.192376 275.758013 
L 119.350976 273.936783 
L 119.509576 267.562479 
L 119.668176 275.454474 
L 119.826776 264.830635 
L 119.985376 265.437711 
L 120.143977 268.473094 
L 120.302577 262.402329 
L 120.461177 265.437711 
L 120.619777 263.312944 
L 120.778377 256.028025 
L 120.936977 254.206795 
L 121.095578 258.152793 
L 121.254178 265.74125 
L 121.412778 263.312944 
L 121.729978 280.918163 
L 121.888578 258.456331 
L 122.047179 277.88278 
L 122.205779 269.080171 
L 122.364379 273.026168 
L 122.522979 244.493571 
L 122.840179 277.275704 
L 122.99878 264.527097 
L 123.15738 265.74125 
L 123.47458 274.847398 
L 123.63318 271.508477 
L 123.79178 272.72263 
L 123.950381 261.491714 
L 124.108981 274.240321 
L 124.267581 261.795252 
L 124.426181 270.597862 
L 124.584781 263.312944 
L 124.901982 267.866018 
L 125.060582 252.082028 
L 125.219182 261.491714 
L 125.377782 258.152793 
L 125.536382 273.026168 
L 125.853583 256.93864 
L 126.012183 275.758013 
L 126.170783 273.633245 
L 126.329383 268.473094 
L 126.487983 266.955403 
L 126.805184 269.687247 
L 127.122384 282.132316 
L 127.280984 270.294324 
L 127.439584 269.687247 
L 127.598184 266.955403 
L 127.756785 258.152793 
L 127.915385 269.383709 
L 128.232585 258.456331 
L 128.391185 266.651864 
L 128.549785 261.491714 
L 128.866986 273.329706 
L 129.025586 275.150936 
L 129.184186 261.188176 
L 129.342786 266.348326 
L 129.501387 265.437711 
L 129.818587 267.866018 
L 129.977187 270.597862 
L 130.135787 266.955403 
L 130.294387 273.329706 
L 130.452988 269.687247 
L 130.611588 271.204939 
L 130.770188 263.312944 
L 130.928788 270.294324 
L 131.087388 270.597862 
L 131.245988 270.597862 
L 131.404589 262.705867 
L 131.721789 262.705867 
L 131.880389 275.758013 
L 132.197589 264.527097 
L 132.35619 272.419092 
L 132.67339 255.420949 
L 132.83199 267.866018 
L 132.99059 271.204939 
L 133.14919 268.776632 
L 133.307791 272.115553 
L 133.466391 280.007548 
L 133.624991 261.491714 
L 133.942191 278.489857 
L 134.100791 266.651864 
L 134.259392 275.758013 
L 134.417992 272.419092 
L 134.576592 281.828778 
L 134.735192 272.115553 
L 134.893792 272.115553 
L 135.052392 266.044788 
L 135.210993 275.150936 
L 135.369593 275.758013 
L 135.528193 260.277561 
L 135.686793 267.866018 
L 135.845393 259.063408 
L 136.162594 278.186319 
L 136.321194 275.454474 
L 136.479794 258.75987 
L 136.638394 258.75987 
L 136.796994 270.9014 
L 136.955594 269.687247 
L 137.114195 270.9014 
L 137.272795 262.705867 
L 137.431395 278.489857 
L 137.589995 270.294324 
L 137.748595 272.419092 
L 137.907195 277.275704 
L 138.065796 276.668627 
L 138.382996 270.294324 
L 138.541596 273.936783 
L 138.858796 268.169556 
L 139.017397 266.348326 
L 139.175997 269.080171 
L 139.334597 265.74125 
L 139.493197 271.204939 
L 139.651797 270.294324 
L 139.810397 266.348326 
L 139.968998 275.758013 
L 140.603398 254.813872 
L 140.761998 264.830635 
L 140.920599 258.456331 
L 141.079199 276.668627 
L 141.396399 263.009405 
L 141.554999 270.294324 
L 141.7136 271.204939 
L 141.8722 265.134173 
L 142.0308 270.294324 
L 142.1894 266.044788 
L 142.348 270.294324 
L 142.5066 277.88278 
L 142.665201 271.204939 
L 142.823801 272.419092 
L 142.982401 275.454474 
L 143.141001 265.74125 
L 143.299601 274.240321 
L 143.458201 273.633245 
L 143.616802 280.311087 
L 143.934002 263.009405 
L 144.092602 262.705867 
L 144.251202 263.616482 
L 144.409802 276.668627 
L 144.568403 260.277561 
L 144.727003 277.275704 
L 144.885603 273.633245 
L 145.044203 263.616482 
L 145.202803 272.72263 
L 145.361403 262.705867 
L 145.520004 277.88278 
L 145.837204 259.063408 
L 146.154404 281.52524 
L 146.313004 265.437711 
L 146.630205 259.063408 
L 146.788805 290.024311 
L 146.947405 265.437711 
L 147.106005 266.044788 
L 147.264605 282.132316 
L 147.423206 259.366946 
L 147.581806 259.366946 
L 147.740406 270.294324 
L 147.899006 243.279418 
L 148.057606 282.739393 
L 148.216206 265.437711 
L 148.374807 280.311087 
L 148.533407 263.92002 
L 148.692007 268.169556 
L 148.850607 262.705867 
L 149.009207 263.616482 
L 149.167807 279.70401 
L 149.326408 264.527097 
L 149.485008 271.204939 
L 149.643608 267.866018 
L 149.802208 286.078314 
L 150.119408 269.990785 
L 150.278009 269.687247 
L 150.436609 276.061551 
L 150.595209 275.150936 
L 150.753809 265.437711 
L 150.912409 264.527097 
L 151.071009 269.383709 
L 151.22961 261.795252 
L 151.38821 261.188176 
L 151.54681 269.080171 
L 151.70541 264.527097 
L 151.86401 274.543859 
L 152.02261 260.581099 
L 152.181211 268.473094 
L 152.339811 267.258941 
L 152.657011 272.115553 
L 152.974211 265.437711 
L 153.132812 279.70401 
L 153.291412 269.687247 
L 153.450012 266.955403 
L 153.767212 268.473094 
L 153.925812 287.596005 
L 154.084413 262.09879 
L 154.401613 281.221701 
L 154.560213 258.75987 
L 154.877414 281.52524 
L 155.036014 277.275704 
L 155.194614 281.828778 
L 155.353214 275.454474 
L 155.511814 276.365089 
L 155.670414 272.419092 
L 155.829015 275.758013 
L 155.987615 274.543859 
L 156.146215 265.437711 
L 156.304815 266.044788 
L 156.463415 270.294324 
L 156.622015 259.974023 
L 156.780616 281.52524 
L 157.256416 266.348326 
L 157.415016 275.150936 
L 157.573616 262.402329 
L 157.732217 273.026168 
L 158.049417 262.705867 
L 158.208017 267.258941 
L 158.366617 268.169556 
L 158.525217 266.955403 
L 158.683818 259.366946 
L 158.842418 273.633245 
L 159.001018 273.329706 
L 159.159618 262.402329 
L 159.318218 268.473094 
L 159.476818 266.651864 
L 159.635419 273.026168 
L 159.794019 274.240321 
L 159.952619 269.080171 
L 160.111219 277.275704 
L 160.269819 259.366946 
L 160.428419 263.92002 
L 160.58702 275.758013 
L 160.74562 272.419092 
L 160.90422 262.402329 
L 161.06282 262.402329 
L 161.38002 278.186319 
L 161.538621 276.365089 
L 161.697221 283.042931 
L 162.014421 263.009405 
L 162.173021 271.204939 
L 162.490222 273.026168 
L 162.807422 266.044788 
L 162.966022 264.527097 
L 163.124622 252.992642 
L 163.441823 279.096934 
L 163.600423 265.134173 
L 163.759023 271.508477 
L 163.917623 268.473094 
L 164.076223 253.903257 
L 164.234823 282.132316 
L 164.552024 265.74125 
L 164.710624 269.990785 
L 164.869224 259.366946 
L 165.027824 276.972166 
L 165.186424 275.150936 
L 165.345025 269.080171 
L 165.503625 270.9014 
L 165.662225 270.597862 
L 165.979425 277.88278 
L 166.138025 260.581099 
L 166.455226 285.774775 
L 166.772426 271.204939 
L 166.931026 266.348326 
L 167.089627 280.311087 
L 167.248227 276.365089 
L 167.406827 264.527097 
L 167.565427 267.562479 
L 167.882627 263.312944 
L 168.041228 267.562479 
L 168.199828 260.884637 
L 168.358428 275.454474 
L 168.517028 253.296181 
L 168.675628 275.758013 
L 168.834228 274.847398 
L 168.992829 276.668627 
L 169.151429 268.169556 
L 169.310029 267.562479 
L 169.468629 284.560622 
L 169.627229 265.74125 
L 169.94443 273.026168 
L 170.10303 268.169556 
L 170.26163 270.9014 
L 170.42023 267.258941 
L 170.57883 267.258941 
L 170.73743 262.402329 
L 170.896031 269.080171 
L 171.054631 285.167699 
L 171.213231 263.92002 
L 171.371831 270.9014 
L 171.689031 265.134173 
L 171.847632 271.204939 
L 172.006232 266.955403 
L 172.164832 267.866018 
L 172.323432 273.936783 
L 172.482032 271.508477 
L 172.640632 263.009405 
L 172.799233 263.009405 
L 172.957833 259.063408 
L 173.275033 263.92002 
L 173.592233 274.240321 
L 173.750834 263.616482 
L 173.909434 271.812015 
L 174.068034 253.296181 
L 174.385234 276.668627 
L 174.543834 261.491714 
L 174.702435 269.080171 
L 174.861035 259.974023 
L 175.019635 258.152793 
L 175.178235 275.150936 
L 175.336835 252.385566 
L 175.495435 272.115553 
L 175.812636 264.223558 
L 175.971236 261.188176 
L 176.129836 279.70401 
L 176.288436 259.974023 
L 176.764237 284.864161 
L 176.922837 258.456331 
L 177.081437 268.169556 
L 177.240037 268.169556 
L 177.398637 273.329706 
L 177.557238 256.93864 
L 177.874438 280.614625 
L 178.033038 280.007548 
L 178.191638 271.204939 
L 178.350238 252.082028 
L 178.508839 268.169556 
L 178.667439 266.955403 
L 178.826039 278.489857 
L 178.984639 276.365089 
L 179.301839 264.223558 
L 179.46044 276.668627 
L 179.93624 265.134173 
L 180.09484 254.510334 
L 180.412041 272.115553 
L 180.570641 265.74125 
L 180.729241 269.080171 
L 180.887841 267.866018 
L 181.046441 280.007548 
L 181.205042 272.115553 
L 181.522242 267.258941 
L 181.680842 263.92002 
L 181.839442 276.972166 
L 181.998042 267.866018 
L 182.156643 272.72263 
L 182.473843 259.366946 
L 182.632443 280.614625 
L 182.791043 267.866018 
L 182.949643 266.955403 
L 183.108244 274.240321 
L 183.425444 260.581099 
L 183.584044 275.758013 
L 183.901244 259.974023 
L 184.059845 251.778489 
L 184.377045 275.758013 
L 184.535645 264.527097 
L 184.694245 288.50662 
L 184.852845 261.795252 
L 185.011446 271.204939 
L 185.170046 252.082028 
L 185.328646 263.009405 
L 185.487246 266.044788 
L 185.645846 266.348326 
L 185.804446 259.063408 
L 185.963047 272.115553 
L 186.121647 267.562479 
L 186.280247 273.936783 
L 186.597447 265.134173 
L 186.914648 269.383709 
L 187.073248 264.223558 
L 187.231848 282.739393 
L 187.390448 266.955403 
L 187.549048 265.437711 
L 187.707648 256.93864 
L 187.866249 260.581099 
L 188.024849 267.866018 
L 188.183449 263.009405 
L 188.342049 266.651864 
L 188.500649 261.491714 
L 188.81785 268.473094 
L 188.97645 275.758013 
L 189.13505 265.437711 
L 189.29365 279.70401 
L 189.45225 262.705867 
L 189.61085 267.258941 
L 189.769451 265.437711 
L 189.928051 278.793395 
L 190.245251 266.348326 
L 190.403851 275.454474 
L 190.562451 271.204939 
L 190.721052 254.813872 
L 190.879652 269.687247 
L 191.038252 268.169556 
L 191.196852 247.528954 
L 191.514052 283.346469 
L 191.672653 262.09879 
L 191.989853 280.614625 
L 192.307053 253.599719 
L 192.465654 256.93864 
L 192.624254 273.329706 
L 192.782854 262.402329 
L 192.941454 261.795252 
L 193.100054 265.74125 
L 193.258654 245.404186 
L 193.575855 263.312944 
L 193.734455 255.11741 
L 193.893055 260.581099 
L 194.051655 261.491714 
L 194.368856 249.350183 
L 194.686056 266.044788 
L 194.844656 246.314801 
L 195.003256 244.797109 
L 195.161856 241.458188 
L 195.320457 255.724487 
L 195.479057 242.065265 
L 195.637657 246.011262 
L 195.796257 243.582956 
L 195.954857 251.474951 
L 196.113457 233.262655 
L 196.272058 243.582956 
L 196.430658 242.368803 
L 196.589258 245.100647 
L 196.747858 255.420949 
L 197.065058 225.977737 
L 197.223659 252.082028 
L 197.382259 213.532668 
L 197.540859 241.15465 
L 197.699459 248.743107 
L 197.858059 233.869731 
L 198.016659 233.566193 
L 198.17526 222.031739 
L 198.33386 224.763583 
L 198.49246 239.940497 
L 198.65106 225.37066 
L 198.80966 235.387423 
L 198.96826 224.460045 
L 199.285461 239.33342 
L 199.444061 222.335277 
L 199.602661 220.210509 
L 199.761261 212.622053 
L 199.919861 218.692818 
L 200.237062 213.229129 
L 200.395662 217.175127 
L 200.554262 195.62391 
L 200.712862 194.106218 
L 200.871462 181.964688 
L 201.030063 201.998213 
L 201.188663 189.856683 
L 201.347263 192.588527 
L 201.823063 176.804537 
L 202.140264 182.268226 
L 202.298864 175.590384 
L 202.457464 137.951639 
L 202.616064 161.324085 
L 202.774664 148.575478 
L 202.933265 151.914399 
L 203.091865 163.752391 
L 203.567665 116.096883 
L 203.726265 134.309179 
L 203.884866 125.810108 
L 204.043466 126.720723 
L 204.202066 117.614575 
L 204.360666 87.260748 
L 204.519266 89.081977 
L 204.677867 100.312893 
L 204.836467 63.888301 
L 204.995067 64.798916 
L 205.153667 72.690911 
L 205.312267 53.568 
L 205.470867 70.262605 
L 205.629468 55.996306 
L 205.788068 56.603383 
L 205.946668 59.335227 
L 206.105268 66.620146 
L 206.263868 60.54938 
L 206.422468 76.940447 
L 206.581069 76.636908 
L 207.056869 113.668577 
L 207.374069 164.966545 
L 207.53267 169.21608 
L 207.69127 159.502856 
L 208.00847 186.517762 
L 208.16707 186.8213 
L 208.484271 204.122981 
L 208.642871 206.247749 
L 208.801471 204.122981 
L 209.118671 226.584813 
L 209.277271 229.013119 
L 209.435872 233.566193 
L 209.594472 242.672341 
L 209.753072 244.190033 
L 209.911672 259.366946 
L 210.070272 235.690961 
L 210.228872 253.599719 
L 210.387473 246.011262 
L 210.546073 252.082028 
L 210.704673 242.065265 
L 210.863273 259.974023 
L 211.021873 260.884637 
L 211.180473 250.564336 
L 211.339074 269.990785 
L 211.497674 266.348326 
L 211.656274 265.437711 
L 211.814874 260.277561 
L 211.973474 262.09879 
L 212.132074 254.206795 
L 212.449275 278.186319 
L 212.607875 257.849255 
L 212.766475 276.972166 
L 213.083675 265.437711 
L 213.242276 279.096934 
L 213.400876 263.92002 
L 213.559476 262.705867 
L 214.035276 277.88278 
L 214.193877 258.75987 
L 214.352477 268.776632 
L 214.511077 290.934926 
L 214.828277 262.09879 
L 215.145478 270.9014 
L 215.304078 262.402329 
L 215.462678 266.651864 
L 215.621278 262.09879 
L 215.779878 276.061551 
L 215.938478 274.240321 
L 216.097079 257.545716 
L 216.255679 272.72263 
L 216.414279 274.847398 
L 216.572879 262.09879 
L 216.731479 272.72263 
L 216.890079 274.847398 
L 217.04868 267.258941 
L 217.20728 266.651864 
L 217.36588 261.795252 
L 217.52448 264.223558 
L 218.000281 277.579242 
L 218.317481 265.74125 
L 218.476081 263.009405 
L 218.634681 269.080171 
L 218.951882 263.009405 
L 219.110482 272.419092 
L 219.269082 270.9014 
L 219.427682 277.579242 
L 219.586282 277.275704 
L 219.744883 261.491714 
L 219.903483 277.275704 
L 220.062083 269.687247 
L 220.220683 268.776632 
L 220.379283 277.275704 
L 220.537883 278.489857 
L 220.855084 258.75987 
L 221.013684 270.597862 
L 221.172284 267.562479 
L 221.330884 267.562479 
L 221.489484 280.918163 
L 221.648085 257.545716 
L 221.806685 260.884637 
L 222.123885 283.650008 
L 222.282485 259.670484 
L 222.441085 278.793395 
L 222.916886 253.599719 
L 223.075486 263.312944 
L 223.234086 261.188176 
L 223.392686 268.169556 
L 223.551287 264.830635 
L 223.709887 255.420949 
L 223.868487 272.419092 
L 224.185687 261.491714 
L 224.344287 261.491714 
L 224.502888 270.294324 
L 224.661488 270.294324 
L 224.820088 266.955403 
L 224.978688 266.955403 
L 225.137288 271.204939 
L 225.295888 267.258941 
L 225.454489 270.294324 
L 225.613089 263.616482 
L 225.771689 277.579242 
L 225.930289 275.150936 
L 226.088889 270.294324 
L 226.247489 269.383709 
L 226.40609 263.92002 
L 226.56469 279.096934 
L 226.88189 264.830635 
L 227.04049 263.92002 
L 227.357691 289.113696 
L 227.833491 268.473094 
L 227.992091 272.419092 
L 228.309292 257.849255 
L 228.467892 258.456331 
L 228.785092 283.042931 
L 228.943692 260.884637 
L 229.419493 270.9014 
L 229.578093 265.437711 
L 229.736693 264.223558 
L 230.053894 275.758013 
L 230.212494 262.705867 
L 230.371094 266.651864 
L 230.529694 262.09879 
L 230.688294 268.776632 
L 230.846894 267.258941 
L 231.005495 277.275704 
L 231.164095 258.456331 
L 231.322695 274.847398 
L 231.798495 255.420949 
L 231.957096 264.223558 
L 232.115696 244.190033 
L 232.274296 270.597862 
L 232.432896 274.543859 
L 232.591496 263.616482 
L 232.750096 272.72263 
L 233.067297 260.884637 
L 233.225897 267.866018 
L 233.384497 266.348326 
L 233.543097 274.543859 
L 233.701697 263.312944 
L 233.860298 269.383709 
L 234.177498 270.294324 
L 234.336098 284.560622 
L 234.494698 267.562479 
L 234.653298 267.258941 
L 234.811899 281.828778 
L 234.970499 285.167699 
L 235.129099 257.242178 
L 235.287699 256.93864 
L 235.604899 269.687247 
L 235.7635 265.74125 
L 235.9221 254.206795 
L 236.0807 273.633245 
L 236.2393 259.366946 
L 236.3979 273.936783 
L 236.5565 269.383709 
L 236.715101 280.918163 
L 237.032301 261.491714 
L 237.190901 250.260798 
L 237.349501 271.508477 
L 237.508101 273.633245 
L 237.666702 266.955403 
L 237.825302 268.473094 
L 237.983902 262.09879 
L 238.142502 268.473094 
L 238.301102 260.884637 
L 238.618303 281.221701 
L 238.776903 252.992642 
L 238.935503 272.419092 
L 239.094103 266.955403 
L 239.252703 271.508477 
L 239.569904 262.402329 
L 239.887104 268.776632 
L 240.045704 277.579242 
L 240.204304 275.150936 
L 240.362904 286.988928 
L 240.521505 273.329706 
L 240.680105 277.579242 
L 240.838705 278.186319 
L 240.997305 266.651864 
L 241.155905 267.562479 
L 241.314505 266.955403 
L 241.473106 271.204939 
L 241.631706 257.545716 
L 241.790306 266.044788 
L 241.948906 264.223558 
L 242.107506 259.063408 
L 242.266106 269.383709 
L 242.424707 256.331563 
L 242.583307 275.454474 
L 242.741907 275.150936 
L 242.900507 273.329706 
L 243.217708 259.366946 
L 243.376308 260.277561 
L 243.534908 270.9014 
L 243.693508 263.312944 
L 244.010708 289.417235 
L 244.169309 255.724487 
L 244.327909 276.061551 
L 244.486509 251.474951 
L 244.803709 277.579242 
L 244.962309 262.705867 
L 245.12091 266.348326 
L 245.43811 278.186319 
L 245.59671 257.849255 
L 245.75531 272.115553 
L 245.91391 256.331563 
L 246.072511 280.918163 
L 246.231111 269.383709 
L 246.389711 267.258941 
L 246.548311 279.400472 
L 246.706911 279.70401 
L 247.024112 255.724487 
L 247.499912 275.150936 
L 247.975713 263.616482 
L 248.134313 269.687247 
L 248.292913 265.134173 
L 248.451513 272.72263 
L 248.610113 266.651864 
L 248.768713 268.776632 
L 248.927314 259.063408 
L 249.085914 265.134173 
L 249.244514 276.365089 
L 249.403114 273.936783 
L 249.561714 277.88278 
L 249.720314 259.063408 
L 250.037515 271.812015 
L 250.196115 272.72263 
L 250.354715 272.419092 
L 250.513315 274.543859 
L 250.671915 264.223558 
L 250.830516 273.936783 
L 250.989116 268.169556 
L 251.147716 267.866018 
L 251.306316 271.508477 
L 251.464916 258.456331 
L 251.940717 282.435854 
L 252.099317 261.491714 
L 252.257917 265.74125 
L 252.416517 259.670484 
L 252.575117 270.9014 
L 252.733718 271.812015 
L 252.892318 276.668627 
L 253.209518 257.849255 
L 253.368118 272.72263 
L 253.526718 266.651864 
L 253.685319 267.258941 
L 253.843919 278.489857 
L 254.319719 267.866018 
L 254.478319 274.847398 
L 254.63692 262.402329 
L 254.79552 269.383709 
L 254.95412 261.188176 
L 255.11272 262.705867 
L 255.27132 260.581099 
L 255.429921 262.705867 
L 255.588521 260.277561 
L 255.747121 263.009405 
L 255.905721 275.150936 
L 256.064321 266.044788 
L 256.381522 280.918163 
L 256.540122 267.866018 
L 256.698722 273.026168 
L 256.857322 261.491714 
L 257.015922 273.633245 
L 257.174522 274.543859 
L 257.333123 270.294324 
L 257.491723 260.581099 
L 257.650323 280.311087 
L 257.808923 268.169556 
L 257.967523 282.739393 
L 258.126123 268.776632 
L 258.284724 267.258941 
L 258.443324 273.026168 
L 258.601924 255.724487 
L 258.760524 272.72263 
L 258.919124 262.705867 
L 259.077724 261.188176 
L 259.236325 272.115553 
L 259.394925 267.562479 
L 259.553525 267.562479 
L 259.712125 273.936783 
L 259.870725 275.454474 
L 260.346526 265.74125 
L 260.505126 266.955403 
L 260.663726 259.366946 
L 260.980926 281.221701 
L 261.139527 279.400472 
L 261.298127 269.687247 
L 261.456727 273.329706 
L 261.615327 261.188176 
L 261.773927 277.275704 
L 262.091128 260.884637 
L 262.249728 258.75987 
L 262.408328 273.936783 
L 262.566928 273.329706 
L 262.725528 276.972166 
L 262.884128 256.028025 
L 263.042729 252.689104 
L 263.201329 280.007548 
L 263.359929 262.402329 
L 263.518529 260.581099 
L 263.677129 268.473094 
L 263.835729 259.670484 
L 263.99433 263.312944 
L 264.31153 277.275704 
L 264.47013 276.365089 
L 264.62873 268.473094 
L 264.78733 273.633245 
L 264.945931 261.491714 
L 265.104531 273.026168 
L 265.421731 277.579242 
L 265.580331 256.93864 
L 265.738931 263.92002 
L 265.897532 257.242178 
L 266.056132 280.614625 
L 266.214732 279.70401 
L 266.373332 282.132316 
L 266.531932 278.186319 
L 266.849133 258.75987 
L 267.007733 272.419092 
L 267.166333 267.866018 
L 267.324933 268.169556 
L 267.483533 266.044788 
L 267.642133 282.132316 
L 267.800734 263.616482 
L 268.117934 269.080171 
L 268.276534 280.311087 
L 268.435134 267.866018 
L 268.593735 278.186319 
L 268.752335 259.366946 
L 269.069535 276.365089 
L 269.386735 263.92002 
L 269.545336 276.365089 
L 269.703936 275.150936 
L 269.862536 258.75987 
L 270.021136 269.383709 
L 270.179736 267.258941 
L 270.496937 259.974023 
L 270.655537 278.793395 
L 270.814137 261.491714 
L 270.972737 273.329706 
L 271.131337 263.92002 
L 271.289937 274.847398 
L 271.448538 275.758013 
L 271.765738 269.080171 
L 271.924338 250.867875 
L 272.241538 282.739393 
L 272.400139 273.026168 
L 272.558739 272.72263 
L 272.717339 261.795252 
L 272.875939 280.311087 
L 273.034539 278.186319 
L 273.193139 266.348326 
L 273.35174 272.419092 
L 273.51034 263.92002 
L 273.66894 269.383709 
L 273.82754 263.616482 
L 273.98614 276.365089 
L 274.14474 270.9014 
L 274.303341 270.294324 
L 274.461941 279.70401 
L 274.620541 266.651864 
L 274.779141 269.080171 
L 274.937741 269.383709 
L 275.096341 273.329706 
L 275.254942 274.240321 
L 275.413542 269.990785 
L 275.572142 253.599719 
L 275.730742 273.633245 
L 275.889342 267.562479 
L 276.047942 280.614625 
L 276.206543 262.402329 
L 276.523743 265.74125 
L 276.682343 270.294324 
L 276.840943 260.277561 
L 276.999543 268.169556 
L 277.158144 267.562479 
L 277.316744 262.705867 
L 277.475344 277.275704 
L 277.633944 268.776632 
L 277.792544 266.955403 
L 277.951144 274.240321 
L 278.109745 262.402329 
L 278.268345 262.705867 
L 278.585545 268.169556 
L 278.744145 265.134173 
L 278.902745 271.508477 
L 279.219946 265.437711 
L 279.378546 268.776632 
L 279.537146 281.221701 
L 279.854346 262.09879 
L 280.012947 258.456331 
L 280.171547 280.918163 
L 280.330147 253.599719 
L 280.647347 269.990785 
L 280.805948 262.09879 
L 281.123148 271.812015 
L 281.281748 265.74125 
L 281.440348 265.437711 
L 281.598948 270.9014 
L 281.757549 255.420949 
L 281.916149 273.026168 
L 282.074749 269.080171 
L 282.233349 276.668627 
L 282.391949 261.491714 
L 282.550549 260.884637 
L 282.70915 258.456331 
L 282.86775 253.296181 
L 283.02635 276.365089 
L 283.18495 270.294324 
L 283.34355 278.186319 
L 283.50215 273.329706 
L 283.819351 259.366946 
L 283.977951 276.061551 
L 284.136551 266.348326 
L 284.295151 266.651864 
L 284.453751 267.866018 
L 284.929552 252.992642 
L 285.088152 261.188176 
L 285.246752 275.150936 
L 285.405352 269.383709 
L 285.563953 257.849255 
L 285.722553 262.09879 
L 285.881153 274.543859 
L 286.039753 249.046645 
L 286.198353 272.419092 
L 286.356953 266.348326 
L 286.515554 282.435854 
L 286.674154 275.150936 
L 286.832754 258.456331 
L 286.991354 260.277561 
L 287.308554 276.668627 
L 287.467155 276.365089 
L 287.625755 255.420949 
L 288.101555 277.579242 
L 288.260155 275.150936 
L 288.577356 258.456331 
L 288.735956 276.365089 
L 288.894556 270.597862 
L 289.053156 271.508477 
L 289.211756 250.564336 
L 289.370357 262.402329 
L 289.528957 255.724487 
L 289.687557 262.402329 
L 289.846157 264.223558 
L 290.004757 269.990785 
L 290.321958 253.296181 
L 290.480558 278.793395 
L 290.639158 277.275704 
L 290.797758 281.828778 
L 290.956358 260.277561 
L 291.114958 268.776632 
L 291.273559 285.471237 
L 291.590759 266.348326 
L 291.749359 263.312944 
L 291.907959 271.508477 
L 292.066559 266.348326 
L 292.22516 283.650008 
L 292.38376 267.562479 
L 292.54236 268.473094 
L 292.70096 263.009405 
L 292.85956 251.778489 
L 293.018161 251.171413 
L 293.335361 283.953546 
L 293.493961 267.866018 
L 293.652561 268.169556 
L 293.811161 270.294324 
L 293.969762 270.294324 
L 294.128362 272.72263 
L 294.445562 256.028025 
L 294.604162 271.812015 
L 294.921363 266.044788 
L 295.079963 264.830635 
L 295.397163 280.311087 
L 295.555763 267.562479 
L 295.714363 266.044788 
L 295.872964 280.918163 
L 296.190164 256.331563 
L 296.348764 269.383709 
L 296.507364 269.080171 
L 296.824565 272.115553 
L 296.983165 279.400472 
L 297.141765 269.990785 
L 297.300365 275.150936 
L 297.458965 267.866018 
L 297.617565 255.11741 
L 297.776166 272.419092 
L 297.934766 267.258941 
L 298.093366 283.346469 
L 298.251966 270.597862 
L 298.410566 272.115553 
L 298.727767 262.09879 
L 298.886367 267.258941 
L 299.044967 266.348326 
L 299.203567 263.009405 
L 299.520767 275.758013 
L 299.679368 266.651864 
L 299.837968 281.52524 
L 299.996568 265.134173 
L 300.155168 267.562479 
L 300.313768 264.527097 
L 300.472368 263.92002 
L 300.630969 266.651864 
L 300.789569 249.046645 
L 300.948169 269.990785 
L 301.106769 267.562479 
L 301.265369 260.277561 
L 301.423969 275.150936 
L 301.58257 263.312944 
L 301.74117 275.150936 
L 301.89977 272.115553 
L 302.21697 258.456331 
L 302.37557 259.063408 
L 302.534171 278.793395 
L 302.692771 272.419092 
L 302.851371 244.797109 
L 303.168571 278.186319 
L 303.485772 262.402329 
L 303.644372 264.223558 
L 303.802972 279.400472 
L 303.961572 268.776632 
L 304.120172 272.419092 
L 304.278772 262.705867 
L 304.437373 261.188176 
L 304.595973 273.026168 
L 304.754573 258.75987 
L 304.913173 277.88278 
L 305.071773 261.795252 
L 305.230373 271.204939 
L 305.388974 268.169556 
L 305.547574 268.473094 
L 305.706174 271.204939 
L 306.023374 263.312944 
L 306.181975 252.385566 
L 306.340575 270.294324 
L 306.499175 265.437711 
L 306.657775 266.348326 
L 306.816375 268.776632 
L 306.974975 263.009405 
L 307.133576 276.061551 
L 307.292176 266.348326 
L 307.450776 265.437711 
L 307.609376 277.275704 
L 307.926576 264.223558 
L 308.085177 254.510334 
L 308.243777 261.795252 
L 308.402377 262.705867 
L 308.719577 266.044788 
L 308.878177 260.884637 
L 309.195378 278.489857 
L 309.512578 260.884637 
L 309.829778 270.294324 
L 309.988379 262.09879 
L 310.146979 271.508477 
L 310.305579 273.936783 
L 310.464179 261.491714 
L 310.622779 269.990785 
L 310.781379 269.687247 
L 310.93998 271.508477 
L 311.09858 276.365089 
L 311.25718 254.813872 
L 311.41578 255.724487 
L 311.57438 274.240321 
L 311.891581 265.74125 
L 312.050181 272.115553 
L 312.208781 261.491714 
L 312.367381 273.026168 
L 312.525981 261.491714 
L 312.684581 278.793395 
L 312.843182 269.990785 
L 313.001782 277.579242 
L 313.160382 265.74125 
L 313.318982 264.830635 
L 313.636182 272.115553 
L 313.794783 268.776632 
L 313.953383 261.491714 
L 314.111983 262.402329 
L 314.270583 266.348326 
L 314.429183 264.223558 
L 314.587783 272.115553 
L 314.746384 268.169556 
L 314.904984 252.992642 
L 315.063584 274.847398 
L 315.222184 276.365089 
L 315.380784 267.866018 
L 315.856585 270.294324 
L 316.015185 283.042931 
L 316.173785 283.042931 
L 316.332385 266.651864 
L 316.490985 276.061551 
L 316.649586 277.579242 
L 316.808186 264.223558 
L 317.125386 277.579242 
L 317.283986 258.456331 
L 317.442586 276.972166 
L 317.601187 269.687247 
L 317.759787 273.026168 
L 317.918387 266.651864 
L 318.076987 267.562479 
L 318.235587 263.312944 
L 318.552788 272.419092 
L 318.711388 267.258941 
L 319.028588 273.026168 
L 319.187188 260.277561 
L 319.345789 273.026168 
L 319.504389 258.75987 
L 319.662989 264.223558 
L 319.821589 280.007548 
L 319.980189 265.134173 
L 320.29739 270.597862 
L 320.45599 247.528954 
L 320.61459 258.456331 
L 320.77319 279.400472 
L 320.93179 271.508477 
L 321.09039 270.294324 
L 321.407591 263.009405 
L 321.566191 278.793395 
L 321.724791 268.169556 
L 321.883391 280.614625 
L 322.200592 262.705867 
L 322.359192 273.329706 
L 322.517792 271.508477 
L 322.676392 277.579242 
L 322.834992 264.527097 
L 322.993592 264.830635 
L 323.152193 273.633245 
L 323.469393 259.974023 
L 323.627993 260.277561 
L 323.786593 266.044788 
L 323.945193 262.09879 
L 324.103794 262.09879 
L 324.262394 263.009405 
L 324.420994 267.562479 
L 324.738194 259.974023 
L 324.896794 264.527097 
L 325.055395 265.437711 
L 325.372595 272.72263 
L 325.531195 263.92002 
L 325.689795 262.09879 
L 325.848395 265.134173 
L 326.006996 264.527097 
L 326.165596 276.668627 
L 326.324196 277.88278 
L 326.482796 267.258941 
L 326.799996 275.150936 
L 326.958597 268.169556 
L 327.275797 276.668627 
L 327.434397 284.257084 
L 327.592997 257.849255 
L 327.751597 280.614625 
L 327.910198 264.830635 
L 328.068798 268.169556 
L 328.227398 267.562479 
L 328.385998 262.402329 
L 328.544598 252.689104 
L 328.703198 276.061551 
L 328.861799 267.258941 
L 329.020399 271.508477 
L 329.178999 280.007548 
L 329.496199 260.884637 
L 329.654799 278.793395 
L 329.8134 273.026168 
L 329.972 274.240321 
L 330.2892 264.830635 
L 330.6064 274.240321 
L 330.765001 258.152793 
L 330.923601 278.793395 
L 331.082201 276.061551 
L 331.240801 270.9014 
L 331.399401 276.668627 
L 331.716602 263.312944 
L 331.875202 278.793395 
L 332.033802 274.240321 
L 332.192402 260.884637 
L 332.509603 278.489857 
L 332.668203 277.275704 
L 332.826803 264.223558 
L 332.985403 270.9014 
L 333.461204 273.329706 
L 333.619804 275.454474 
L 333.778404 266.955403 
L 333.937004 264.527097 
L 334.095604 278.793395 
L 334.254204 276.668627 
L 334.571405 252.992642 
L 334.888605 275.150936 
L 335.047205 258.152793 
L 335.205805 272.72263 
L 335.364406 258.75987 
L 335.523006 267.562479 
L 335.681606 254.206795 
L 335.840206 273.026168 
L 335.998806 270.294324 
L 336.157406 271.812015 
L 336.316007 265.134173 
L 336.474607 264.223558 
L 336.633207 273.026168 
L 336.791807 274.240321 
L 336.950407 271.508477 
L 337.109007 276.061551 
L 337.267608 276.972166 
L 337.426208 265.134173 
L 337.584808 277.579242 
L 337.902008 248.743107 
L 338.060608 279.70401 
L 338.219209 255.420949 
L 338.377809 267.258941 
L 338.536409 270.597862 
L 338.695009 279.096934 
L 338.853609 274.543859 
L 339.012209 274.543859 
L 339.17081 259.366946 
L 339.32941 268.169556 
L 339.48801 262.402329 
L 339.64661 265.74125 
L 339.80521 280.007548 
L 339.96381 266.044788 
L 340.122411 262.402329 
L 340.281011 270.294324 
L 340.439611 269.990785 
L 340.756811 262.402329 
L 340.915411 279.400472 
L 341.074012 273.936783 
L 341.391212 258.152793 
L 341.549812 285.167699 
L 341.708412 272.72263 
L 341.867012 285.774775 
L 342.025613 263.616482 
L 342.184213 268.169556 
L 342.342813 253.903257 
L 342.660013 276.061551 
L 342.818613 267.866018 
L 343.135814 283.346469 
L 343.294414 267.258941 
L 343.453014 268.473094 
L 343.611614 259.063408 
L 343.928815 275.758013 
L 344.246015 263.616482 
L 344.404615 253.903257 
L 344.563215 274.240321 
L 344.721816 266.955403 
L 344.880416 272.115553 
L 345.039016 263.92002 
L 345.197616 274.240321 
L 345.356216 273.936783 
L 345.514816 247.528954 
L 345.673417 269.080171 
L 345.832017 262.402329 
L 346.149217 273.026168 
L 346.307817 270.9014 
L 346.466417 279.70401 
L 346.625018 267.866018 
L 346.783618 280.007548 
L 346.942218 271.204939 
L 347.100818 280.007548 
L 347.259418 255.724487 
L 347.576619 264.527097 
L 347.735219 284.864161 
L 348.052419 259.670484 
L 348.211019 290.024311 
L 348.369619 257.242178 
L 348.52822 281.828778 
L 348.84542 258.152793 
L 349.00402 276.365089 
L 349.32122 262.402329 
L 349.955621 282.132316 
L 350.114221 277.579242 
L 350.272821 281.52524 
L 350.431422 259.366946 
L 350.590022 264.527097 
L 350.748622 280.614625 
L 350.907222 262.705867 
L 351.065822 266.348326 
L 351.224422 283.650008 
L 351.383023 274.543859 
L 351.700223 279.400472 
L 351.858823 288.810158 
L 352.017423 266.348326 
L 352.334624 282.132316 
L 352.493224 268.169556 
L 352.651824 271.812015 
L 352.969024 261.491714 
L 353.127624 273.026168 
L 353.286225 273.936783 
L 353.444825 262.705867 
L 353.603425 260.581099 
L 353.762025 269.080171 
L 353.920625 269.383709 
L 354.079225 258.456331 
L 354.237826 279.70401 
L 354.396426 274.543859 
L 354.555026 251.474951 
L 354.713626 259.366946 
L 354.872226 274.240321 
L 355.030826 263.92002 
L 355.189427 271.812015 
L 355.348027 259.063408 
L 355.506627 268.169556 
L 355.665227 266.044788 
L 355.823827 275.758013 
L 355.982427 267.562479 
L 356.141028 270.597862 
L 356.299628 277.579242 
L 356.458228 260.277561 
L 356.616828 270.294324 
L 356.775428 268.776632 
L 356.934029 260.277561 
L 357.251229 272.72263 
L 357.409829 270.9014 
L 357.568429 255.11741 
L 357.88563 274.543859 
L 358.04423 273.936783 
L 358.20283 262.402329 
L 358.36143 261.491714 
L 358.52003 257.242178 
L 358.67863 266.348326 
L 358.837231 266.651864 
L 358.995831 271.204939 
L 359.154431 262.402329 
L 359.313031 268.169556 
L 359.471631 269.687247 
L 359.788832 283.346469 
L 359.947432 264.830635 
L 360.106032 260.581099 
L 360.264632 263.009405 
L 360.423232 273.936783 
L 360.740433 269.080171 
L 360.899033 257.545716 
L 361.057633 280.007548 
L 361.216233 276.972166 
L 361.374833 265.437711 
L 361.533433 275.150936 
L 361.692034 262.402329 
L 361.850634 278.186319 
L 362.009234 280.007548 
L 362.167834 262.705867 
L 362.326434 266.651864 
L 362.643635 250.564336 
L 362.960835 280.918163 
L 363.119435 280.007548 
L 363.278035 273.026168 
L 363.436635 273.329706 
L 363.595236 263.312944 
L 363.912436 273.936783 
L 364.229636 252.992642 
L 364.388236 273.329706 
L 364.546837 254.813872 
L 364.705437 271.508477 
L 364.864037 271.812015 
L 365.022637 247.832492 
L 365.181237 264.830635 
L 365.339837 261.491714 
L 365.498438 268.169556 
L 365.657038 257.849255 
L 365.815638 267.562479 
L 365.974238 269.080171 
L 366.132838 257.545716 
L 366.291438 279.70401 
L 366.450039 263.312944 
L 366.608639 269.080171 
L 366.767239 270.294324 
L 366.925839 273.936783 
L 367.084439 269.080171 
L 367.243039 276.668627 
L 367.40164 259.063408 
L 367.56024 263.616482 
L 367.71884 263.009405 
L 368.03604 265.134173 
L 368.19464 278.489857 
L 368.353241 265.134173 
L 368.670441 276.972166 
L 368.829041 263.312944 
L 368.987641 273.026168 
L 369.146242 269.687247 
L 369.304842 284.864161 
L 369.622042 262.402329 
L 369.780642 264.527097 
L 369.939242 277.88278 
L 370.097843 278.186319 
L 370.256443 267.258941 
L 370.573643 275.150936 
L 370.732243 273.329706 
L 371.049444 264.527097 
L 371.208044 265.74125 
L 371.366644 270.9014 
L 371.525244 246.921877 
L 371.683844 279.70401 
L 371.842444 266.044788 
L 372.001045 267.866018 
L 372.159645 267.866018 
L 372.318245 276.668627 
L 372.635445 261.491714 
L 372.794045 278.186319 
L 372.952646 278.186319 
L 373.111246 276.365089 
L 373.428446 258.456331 
L 373.587046 273.936783 
L 373.745646 268.169556 
L 374.062847 249.95726 
L 374.221447 266.348326 
L 374.380047 260.884637 
L 374.538647 264.223558 
L 374.697247 276.668627 
L 375.014448 265.437711 
L 375.173048 268.169556 
L 375.331648 283.042931 
L 375.490248 268.473094 
L 375.648848 265.134173 
L 375.807449 276.972166 
L 375.966049 257.849255 
L 376.124649 265.134173 
L 376.283249 249.350183 
L 376.441849 270.9014 
L 376.600449 270.294324 
L 376.75905 272.115553 
L 376.91765 295.488 
L 377.07625 255.724487 
L 377.23485 273.329706 
L 377.39345 262.705867 
L 377.55205 268.776632 
L 377.869251 263.92002 
L 378.027851 242.065265 
L 378.345051 278.489857 
L 378.503651 260.581099 
L 378.662252 277.275704 
L 378.820852 254.510334 
L 379.138052 271.812015 
L 379.296652 271.508477 
L 379.455252 256.93864 
L 379.772453 268.169556 
L 379.931053 270.294324 
L 380.089653 255.420949 
L 380.248253 268.473094 
L 380.406853 268.473094 
L 380.565454 283.346469 
L 380.882654 260.277561 
L 381.199854 276.972166 
L 381.358455 263.009405 
L 381.517055 271.508477 
L 381.675655 259.670484 
L 381.834255 273.329706 
L 381.992855 252.082028 
L 382.151455 271.204939 
L 382.310056 261.491714 
L 382.468656 281.221701 
L 382.627256 259.974023 
L 382.785856 274.240321 
L 382.944456 261.491714 
L 383.261657 276.668627 
L 383.420257 270.294324 
L 383.578857 284.864161 
L 383.737457 267.866018 
L 383.896057 281.221701 
L 384.054657 264.527097 
L 384.213258 272.419092 
L 384.371858 254.206795 
L 384.530458 274.240321 
L 384.689058 269.080171 
L 384.847658 281.828778 
L 385.164859 269.383709 
L 385.323459 262.402329 
L 385.482059 243.582956 
L 385.957859 280.007548 
L 386.11646 262.09879 
L 386.43366 271.204939 
L 386.59226 265.134173 
L 386.75086 250.867875 
L 386.90946 247.528954 
L 387.068061 266.651864 
L 387.226661 268.169556 
L 387.385261 262.705867 
L 387.543861 276.972166 
L 387.702461 261.491714 
L 387.861061 262.402329 
L 388.019662 267.866018 
L 388.178262 258.456331 
L 388.336862 286.68539 
L 388.495462 261.491714 
L 388.654062 256.331563 
L 388.812662 260.277561 
L 388.971263 261.188176 
L 389.288463 282.435854 
L 389.447063 265.74125 
L 389.605663 271.204939 
L 389.764263 270.597862 
L 389.922864 273.329706 
L 390.081464 244.493571 
L 390.240064 262.402329 
L 390.557264 269.687247 
L 390.715864 266.651864 
L 390.874465 286.078314 
L 391.033065 256.331563 
L 391.350265 287.899543 
L 392.143266 261.188176 
L 392.301866 265.437711 
L 392.619066 284.257084 
L 392.777667 254.813872 
L 392.936267 249.653721 
L 393.094867 267.866018 
L 393.253467 238.119267 
L 393.412067 267.258941 
L 393.570667 244.493571 
L 393.887868 267.866018 
L 394.046468 258.75987 
L 394.363668 282.132316 
L 394.522269 280.614625 
L 394.680869 283.650008 
L 394.839469 268.473094 
L 394.998069 271.812015 
L 395.156669 286.68539 
L 395.315269 281.221701 
L 395.63247 258.152793 
L 395.79107 294.880923 
L 396.10827 266.044788 
L 396.26687 278.793395 
L 396.425471 263.616482 
L 396.584071 286.988928 
L 396.742671 288.810158 
L 396.901271 269.383709 
L 397.059871 265.437711 
L 397.218471 255.724487 
L 397.694272 284.560622 
L 397.852872 274.543859 
L 398.011472 287.596005 
L 398.328673 261.795252 
L 398.487273 280.918163 
L 398.487273 280.918163 
" style="fill:none;stroke:#1f77b4;stroke-linecap:square;stroke-width:1.5;"/>
   </g>
   <g id="patch_3">
    <path d="M 57.6 307.584 
L 57.6 41.472 
" style="fill:none;stroke:#000000;stroke-linecap:square;stroke-linejoin:miter;stroke-width:0.8;"/>
   </g>
   <g id="patch_4">
    <path d="M 414.72 307.584 
L 414.72 41.472 
" style="fill:none;stroke:#000000;stroke-linecap:square;stroke-linejoin:miter;stroke-width:0.8;"/>
   </g>
   <g id="patch_5">
    <path d="M 57.6 307.584 
L 414.72 307.584 
" style="fill:none;stroke:#000000;stroke-linecap:square;stroke-linejoin:miter;stroke-width:0.8;"/>
   </g>
   <g id="patch_6">
    <path d="M 57.6 41.472 
L 414.72 41.472 
" style="fill:none;stroke:#000000;stroke-linecap:square;stroke-linejoin:miter;stroke-width:0.8;"/>
   </g>
   <g id="text_16">
    <!-- Background subtracted -->
    <g transform="translate(166.075312 35.472)scale(0.12 -0.12)">
     <defs>
      <path d="M 1259 2228 
L 1259 519 
L 2272 519 
Q 2781 519 3026 730 
Q 3272 941 3272 1375 
Q 3272 1813 3026 2020 
Q 2781 2228 2272 2228 
L 1259 2228 
z
M 1259 4147 
L 1259 2741 
L 2194 2741 
Q 2656 2741 2882 2914 
Q 3109 3088 3109 3444 
Q 3109 3797 2882 3972 
Q 2656 4147 2194 4147 
L 1259 4147 
z
M 628 4666 
L 2241 4666 
Q 2963 4666 3353 4366 
Q 3744 4066 3744 3513 
Q 3744 3084 3544 2831 
Q 3344 2578 2956 2516 
Q 3422 2416 3680 2098 
Q 3938 1781 3938 1306 
Q 3938 681 3513 340 
Q 3088 0 2303 0 
L 628 0 
L 628 4666 
z
" id="DejaVuSans-42" transform="scale(0.015625)"/>
      <path d="M 3122 3366 
L 3122 2828 
Q 2878 2963 2633 3030 
Q 2388 3097 2138 3097 
Q 1578 3097 1268 2742 
Q 959 2388 959 1747 
Q 959 1106 1268 751 
Q 1578 397 2138 397 
Q 2388 397 2633 464 
Q 2878 531 3122 666 
L 3122 134 
Q 2881 22 2623 -34 
Q 2366 -91 2075 -91 
Q 1284 -91 818 406 
Q 353 903 353 1747 
Q 353 2603 823 3093 
Q 1294 3584 2113 3584 
Q 2378 3584 2631 3529 
Q 2884 3475 3122 3366 
z
" id="DejaVuSans-63" transform="scale(0.015625)"/>
      <path d="M 581 4863 
L 1159 4863 
L 1159 1991 
L 2875 3500 
L 3609 3500 
L 1753 1863 
L 3688 0 
L 2938 0 
L 1159 1709 
L 1159 0 
L 581 0 
L 581 4863 
z
" id="DejaVuSans-6b" transform="scale(0.015625)"/>
      <path d="M 2631 2963 
Q 2534 3019 2420 3045 
Q 2306 3072 2169 3072 
Q 1681 3072 1420 2755 
Q 1159 2438 1159 1844 
L 1159 0 
L 581 0 
L 581 3500 
L 1159 3500 
L 1159 2956 
Q 1341 3275 1631 3429 
Q 1922 3584 2338 3584 
Q 2397 3584 2469 3576 
Q 2541 3569 2628 3553 
L 2631 2963 
z
" id="DejaVuSans-72" transform="scale(0.015625)"/>
      <path d="M 2906 2969 
L 2906 4863 
L 3481 4863 
L 3481 0 
L 2906 0 
L 2906 525 
Q 2725 213 2448 61 
Q 2172 -91 1784 -91 
Q 1150 -91 751 415 
Q 353 922 353 1747 
Q 353 2572 751 3078 
Q 1150 3584 1784 3584 
Q 2172 3584 2448 3432 
Q 2725 3281 2906 2969 
z
M 947 1747 
Q 947 1113 1208 752 
Q 1469 391 1925 391 
Q 2381 391 2643 752 
Q 2906 1113 2906 1747 
Q 2906 2381 2643 2742 
Q 2381 3103 1925 3103 
Q 1469 3103 1208 2742 
Q 947 2381 947 1747 
z
" id="DejaVuSans-64" transform="scale(0.015625)"/>
      <path d="M 3116 1747 
Q 3116 2381 2855 2742 
Q 2594 3103 2138 3103 
Q 1681 3103 1420 2742 
Q 1159 2381 1159 1747 
Q 1159 1113 1420 752 
Q 1681 391 2138 391 
Q 2594 391 2855 752 
Q 3116 1113 3116 1747 
z
M 1159 2969 
Q 1341 3281 1617 3432 
Q 1894 3584 2278 3584 
Q 2916 3584 3314 3078 
Q 3713 2572 3713 1747 
Q 3713 922 3314 415 
Q 2916 -91 2278 -91 
Q 1894 -91 1617 61 
Q 1341 213 1159 525 
L 1159 0 
L 581 0 
L 581 4863 
L 1159 4863 
L 1159 2969 
z
" id="DejaVuSans-62" transform="scale(0.015625)"/>
     </defs>
     <use xlink:href="#DejaVuSans-42"/>
     <use x="68.603516" xlink:href="#DejaVuSans-61"/>
     <use x="129.882812" xlink:href="#DejaVuSans-63"/>
     <use x="184.863281" xlink:href="#DejaVuSans-6b"/>
     <use x="242.773438" xlink:href="#DejaVuSans-67"/>
     <use x="306.25" xlink:href="#DejaVuSans-72"/>
     <use x="345.113281" xlink:href="#DejaVuSans-6f"/>
     <use x="406.294922" xlink:href="#DejaVuSans-75"/>
     <use x="469.673828" xlink:href="#DejaVuSans-6e"/>
     <use x="533.052734" xlink:href="#DejaVuSans-64"/>
     <use x="596.529297" xlink:href="#DejaVuSans-20"/>
     <use x="628.316406" xlink:href="#DejaVuSans-73"/>
     <use x="680.416016" xlink:href="#DejaVuSans-75"/>
     <use x="743.794922" xlink:href="#DejaVuSans-62"/>
     <use x="807.271484" xlink:href="#DejaVuSans-74"/>
     <use x="846.480469" xlink:href="#DejaVuSans-72"/>
     <use x="887.59375" xlink:href="#DejaVuSans-61"/>
     <use x="948.873047" xlink:href="#DejaVuSans-63"/>
     <use x="1003.853516" xlink:href="#DejaVuSans-74"/>
     <use x="1043.0625" xlink:href="#DejaVuSans-65"/>
     <use x="1104.585938" xlink:href="#DejaVuSans-64"/>
    </g>
   </g>
  </g>
 </g>
 <defs>
  <clipPath id="p2959af0e2c">
   <rect height="266.112" width="357.12" x="57.6" y="41.472"/>
  </clipPath>
 </defs>
</svg>
