<?xml version="1.0" encoding="utf-8" standalone="no"?>
<!DOCTYPE svg PUBLIC "-//W3C//DTD SVG 1.1//EN"
  "http://www.w3.org/Graphics/SVG/1.1/DTD/svg11.dtd">
<svg height="345.6pt" version="1.1" viewBox="0 0 460.8 345.6" width="460.8pt" xmlns="http://www.w3.org/2000/svg" xmlns:xlink="http://www.w3.org/1999/xlink">
 <metadata>
  <rdf:RDF xmlns:cc="http://creativecommons.org/ns#" xmlns:dc="http://purl.org/dc/elements/1.1/" xmlns:rdf="http://www.w3.org/1999/02/22-rdf-syntax-ns#">
   <cc:Work>
    <dc:type rdf:resource="http://purl.org/dc/dcmitype/StillImage"/>
    <dc:date>2022-06-03T23:57:07.016361</dc:date>
    <dc:format>image/svg+xml</dc:format>
    <dc:creator>
     <cc:Agent>
      <dc:title>Matplotlib v3.4.1, https://matplotlib.org/</dc:title>
     </cc:Agent>
    </dc:creator>
   </cc:Work>
  </rdf:RDF>
 </metadata>
 <defs>
  <style type="text/css">*{stroke-linecap:butt;stroke-linejoin:round;}</style>
 </defs>
 <g id="figure_1">
  <g id="patch_1">
   <path d="M 0 345.6 
L 460.8 345.6 
L 460.8 0 
L 0 0 
z
" style="fill:#ffffff;"/>
  </g>
  <g id="axes_1">
   <g id="patch_2">
    <path d="M 57.6 307.584 
L 414.72 307.584 
L 414.72 41.472 
L 57.6 41.472 
z
" style="fill:#ffffff;"/>
   </g>
   <g id="matplotlib.axis_1">
    <g id="xtick_1">
     <g id="line2d_1">
      <defs>
       <path d="M 0 0 
L 0 3.5 
" id="m210297c8c8" style="stroke:#000000;stroke-width:0.8;"/>
      </defs>
      <g>
       <use style="stroke:#000000;stroke-width:0.8;" x="103.072447" xlink:href="#m210297c8c8" y="307.584"/>
      </g>
     </g>
     <g id="text_1">
      <!-- 400 -->
      <g transform="translate(93.528697 322.182437)scale(0.1 -0.1)">
       <defs>
        <path d="M 2419 4116 
L 825 1625 
L 2419 1625 
L 2419 4116 
z
M 2253 4666 
L 3047 4666 
L 3047 1625 
L 3713 1625 
L 3713 1100 
L 3047 1100 
L 3047 0 
L 2419 0 
L 2419 1100 
L 313 1100 
L 313 1709 
L 2253 4666 
z
" id="DejaVuSans-34" transform="scale(0.015625)"/>
        <path d="M 2034 4250 
Q 1547 4250 1301 3770 
Q 1056 3291 1056 2328 
Q 1056 1369 1301 889 
Q 1547 409 2034 409 
Q 2525 409 2770 889 
Q 3016 1369 3016 2328 
Q 3016 3291 2770 3770 
Q 2525 4250 2034 4250 
z
M 2034 4750 
Q 2819 4750 3233 4129 
Q 3647 3509 3647 2328 
Q 3647 1150 3233 529 
Q 2819 -91 2034 -91 
Q 1250 -91 836 529 
Q 422 1150 422 2328 
Q 422 3509 836 4129 
Q 1250 4750 2034 4750 
z
" id="DejaVuSans-30" transform="scale(0.015625)"/>
       </defs>
       <use xlink:href="#DejaVuSans-34"/>
       <use x="63.623047" xlink:href="#DejaVuSans-30"/>
       <use x="127.246094" xlink:href="#DejaVuSans-30"/>
      </g>
     </g>
    </g>
    <g id="xtick_2">
     <g id="line2d_2">
      <g>
       <use style="stroke:#000000;stroke-width:0.8;" x="161.359538" xlink:href="#m210297c8c8" y="307.584"/>
      </g>
     </g>
     <g id="text_2">
      <!-- 600 -->
      <g transform="translate(151.815788 322.182437)scale(0.1 -0.1)">
       <defs>
        <path d="M 2113 2584 
Q 1688 2584 1439 2293 
Q 1191 2003 1191 1497 
Q 1191 994 1439 701 
Q 1688 409 2113 409 
Q 2538 409 2786 701 
Q 3034 994 3034 1497 
Q 3034 2003 2786 2293 
Q 2538 2584 2113 2584 
z
M 3366 4563 
L 3366 3988 
Q 3128 4100 2886 4159 
Q 2644 4219 2406 4219 
Q 1781 4219 1451 3797 
Q 1122 3375 1075 2522 
Q 1259 2794 1537 2939 
Q 1816 3084 2150 3084 
Q 2853 3084 3261 2657 
Q 3669 2231 3669 1497 
Q 3669 778 3244 343 
Q 2819 -91 2113 -91 
Q 1303 -91 875 529 
Q 447 1150 447 2328 
Q 447 3434 972 4092 
Q 1497 4750 2381 4750 
Q 2619 4750 2861 4703 
Q 3103 4656 3366 4563 
z
" id="DejaVuSans-36" transform="scale(0.015625)"/>
       </defs>
       <use xlink:href="#DejaVuSans-36"/>
       <use x="63.623047" xlink:href="#DejaVuSans-30"/>
       <use x="127.246094" xlink:href="#DejaVuSans-30"/>
      </g>
     </g>
    </g>
    <g id="xtick_3">
     <g id="line2d_3">
      <g>
       <use style="stroke:#000000;stroke-width:0.8;" x="219.646629" xlink:href="#m210297c8c8" y="307.584"/>
      </g>
     </g>
     <g id="text_3">
      <!-- 800 -->
      <g transform="translate(210.102879 322.182437)scale(0.1 -0.1)">
       <defs>
        <path d="M 2034 2216 
Q 1584 2216 1326 1975 
Q 1069 1734 1069 1313 
Q 1069 891 1326 650 
Q 1584 409 2034 409 
Q 2484 409 2743 651 
Q 3003 894 3003 1313 
Q 3003 1734 2745 1975 
Q 2488 2216 2034 2216 
z
M 1403 2484 
Q 997 2584 770 2862 
Q 544 3141 544 3541 
Q 544 4100 942 4425 
Q 1341 4750 2034 4750 
Q 2731 4750 3128 4425 
Q 3525 4100 3525 3541 
Q 3525 3141 3298 2862 
Q 3072 2584 2669 2484 
Q 3125 2378 3379 2068 
Q 3634 1759 3634 1313 
Q 3634 634 3220 271 
Q 2806 -91 2034 -91 
Q 1263 -91 848 271 
Q 434 634 434 1313 
Q 434 1759 690 2068 
Q 947 2378 1403 2484 
z
M 1172 3481 
Q 1172 3119 1398 2916 
Q 1625 2713 2034 2713 
Q 2441 2713 2670 2916 
Q 2900 3119 2900 3481 
Q 2900 3844 2670 4047 
Q 2441 4250 2034 4250 
Q 1625 4250 1398 4047 
Q 1172 3844 1172 3481 
z
" id="DejaVuSans-38" transform="scale(0.015625)"/>
       </defs>
       <use xlink:href="#DejaVuSans-38"/>
       <use x="63.623047" xlink:href="#DejaVuSans-30"/>
       <use x="127.246094" xlink:href="#DejaVuSans-30"/>
      </g>
     </g>
    </g>
    <g id="xtick_4">
     <g id="line2d_4">
      <g>
       <use style="stroke:#000000;stroke-width:0.8;" x="277.933721" xlink:href="#m210297c8c8" y="307.584"/>
      </g>
     </g>
     <g id="text_4">
      <!-- 1000 -->
      <g transform="translate(265.208721 322.182437)scale(0.1 -0.1)">
       <defs>
        <path d="M 794 531 
L 1825 531 
L 1825 4091 
L 703 3866 
L 703 4441 
L 1819 4666 
L 2450 4666 
L 2450 531 
L 3481 531 
L 3481 0 
L 794 0 
L 794 531 
z
" id="DejaVuSans-31" transform="scale(0.015625)"/>
       </defs>
       <use xlink:href="#DejaVuSans-31"/>
       <use x="63.623047" xlink:href="#DejaVuSans-30"/>
       <use x="127.246094" xlink:href="#DejaVuSans-30"/>
       <use x="190.869141" xlink:href="#DejaVuSans-30"/>
      </g>
     </g>
    </g>
    <g id="xtick_5">
     <g id="line2d_5">
      <g>
       <use style="stroke:#000000;stroke-width:0.8;" x="336.220812" xlink:href="#m210297c8c8" y="307.584"/>
      </g>
     </g>
     <g id="text_5">
      <!-- 1200 -->
      <g transform="translate(323.495812 322.182437)scale(0.1 -0.1)">
       <defs>
        <path d="M 1228 531 
L 3431 531 
L 3431 0 
L 469 0 
L 469 531 
Q 828 903 1448 1529 
Q 2069 2156 2228 2338 
Q 2531 2678 2651 2914 
Q 2772 3150 2772 3378 
Q 2772 3750 2511 3984 
Q 2250 4219 1831 4219 
Q 1534 4219 1204 4116 
Q 875 4013 500 3803 
L 500 4441 
Q 881 4594 1212 4672 
Q 1544 4750 1819 4750 
Q 2544 4750 2975 4387 
Q 3406 4025 3406 3419 
Q 3406 3131 3298 2873 
Q 3191 2616 2906 2266 
Q 2828 2175 2409 1742 
Q 1991 1309 1228 531 
z
" id="DejaVuSans-32" transform="scale(0.015625)"/>
       </defs>
       <use xlink:href="#DejaVuSans-31"/>
       <use x="63.623047" xlink:href="#DejaVuSans-32"/>
       <use x="127.246094" xlink:href="#DejaVuSans-30"/>
       <use x="190.869141" xlink:href="#DejaVuSans-30"/>
      </g>
     </g>
    </g>
    <g id="xtick_6">
     <g id="line2d_6">
      <g>
       <use style="stroke:#000000;stroke-width:0.8;" x="394.507904" xlink:href="#m210297c8c8" y="307.584"/>
      </g>
     </g>
     <g id="text_6">
      <!-- 1400 -->
      <g transform="translate(381.782904 322.182437)scale(0.1 -0.1)">
       <use xlink:href="#DejaVuSans-31"/>
       <use x="63.623047" xlink:href="#DejaVuSans-34"/>
       <use x="127.246094" xlink:href="#DejaVuSans-30"/>
       <use x="190.869141" xlink:href="#DejaVuSans-30"/>
      </g>
     </g>
    </g>
    <g id="text_7">
     <!-- Wavelength [nm] -->
     <g transform="translate(192.967812 335.860562)scale(0.1 -0.1)">
      <defs>
       <path d="M 213 4666 
L 850 4666 
L 1831 722 
L 2809 4666 
L 3519 4666 
L 4500 722 
L 5478 4666 
L 6119 4666 
L 4947 0 
L 4153 0 
L 3169 4050 
L 2175 0 
L 1381 0 
L 213 4666 
z
" id="DejaVuSans-57" transform="scale(0.015625)"/>
       <path d="M 2194 1759 
Q 1497 1759 1228 1600 
Q 959 1441 959 1056 
Q 959 750 1161 570 
Q 1363 391 1709 391 
Q 2188 391 2477 730 
Q 2766 1069 2766 1631 
L 2766 1759 
L 2194 1759 
z
M 3341 1997 
L 3341 0 
L 2766 0 
L 2766 531 
Q 2569 213 2275 61 
Q 1981 -91 1556 -91 
Q 1019 -91 701 211 
Q 384 513 384 1019 
Q 384 1609 779 1909 
Q 1175 2209 1959 2209 
L 2766 2209 
L 2766 2266 
Q 2766 2663 2505 2880 
Q 2244 3097 1772 3097 
Q 1472 3097 1187 3025 
Q 903 2953 641 2809 
L 641 3341 
Q 956 3463 1253 3523 
Q 1550 3584 1831 3584 
Q 2591 3584 2966 3190 
Q 3341 2797 3341 1997 
z
" id="DejaVuSans-61" transform="scale(0.015625)"/>
       <path d="M 191 3500 
L 800 3500 
L 1894 563 
L 2988 3500 
L 3597 3500 
L 2284 0 
L 1503 0 
L 191 3500 
z
" id="DejaVuSans-76" transform="scale(0.015625)"/>
       <path d="M 3597 1894 
L 3597 1613 
L 953 1613 
Q 991 1019 1311 708 
Q 1631 397 2203 397 
Q 2534 397 2845 478 
Q 3156 559 3463 722 
L 3463 178 
Q 3153 47 2828 -22 
Q 2503 -91 2169 -91 
Q 1331 -91 842 396 
Q 353 884 353 1716 
Q 353 2575 817 3079 
Q 1281 3584 2069 3584 
Q 2775 3584 3186 3129 
Q 3597 2675 3597 1894 
z
M 3022 2063 
Q 3016 2534 2758 2815 
Q 2500 3097 2075 3097 
Q 1594 3097 1305 2825 
Q 1016 2553 972 2059 
L 3022 2063 
z
" id="DejaVuSans-65" transform="scale(0.015625)"/>
       <path d="M 603 4863 
L 1178 4863 
L 1178 0 
L 603 0 
L 603 4863 
z
" id="DejaVuSans-6c" transform="scale(0.015625)"/>
       <path d="M 3513 2113 
L 3513 0 
L 2938 0 
L 2938 2094 
Q 2938 2591 2744 2837 
Q 2550 3084 2163 3084 
Q 1697 3084 1428 2787 
Q 1159 2491 1159 1978 
L 1159 0 
L 581 0 
L 581 3500 
L 1159 3500 
L 1159 2956 
Q 1366 3272 1645 3428 
Q 1925 3584 2291 3584 
Q 2894 3584 3203 3211 
Q 3513 2838 3513 2113 
z
" id="DejaVuSans-6e" transform="scale(0.015625)"/>
       <path d="M 2906 1791 
Q 2906 2416 2648 2759 
Q 2391 3103 1925 3103 
Q 1463 3103 1205 2759 
Q 947 2416 947 1791 
Q 947 1169 1205 825 
Q 1463 481 1925 481 
Q 2391 481 2648 825 
Q 2906 1169 2906 1791 
z
M 3481 434 
Q 3481 -459 3084 -895 
Q 2688 -1331 1869 -1331 
Q 1566 -1331 1297 -1286 
Q 1028 -1241 775 -1147 
L 775 -588 
Q 1028 -725 1275 -790 
Q 1522 -856 1778 -856 
Q 2344 -856 2625 -561 
Q 2906 -266 2906 331 
L 2906 616 
Q 2728 306 2450 153 
Q 2172 0 1784 0 
Q 1141 0 747 490 
Q 353 981 353 1791 
Q 353 2603 747 3093 
Q 1141 3584 1784 3584 
Q 2172 3584 2450 3431 
Q 2728 3278 2906 2969 
L 2906 3500 
L 3481 3500 
L 3481 434 
z
" id="DejaVuSans-67" transform="scale(0.015625)"/>
       <path d="M 1172 4494 
L 1172 3500 
L 2356 3500 
L 2356 3053 
L 1172 3053 
L 1172 1153 
Q 1172 725 1289 603 
Q 1406 481 1766 481 
L 2356 481 
L 2356 0 
L 1766 0 
Q 1100 0 847 248 
Q 594 497 594 1153 
L 594 3053 
L 172 3053 
L 172 3500 
L 594 3500 
L 594 4494 
L 1172 4494 
z
" id="DejaVuSans-74" transform="scale(0.015625)"/>
       <path d="M 3513 2113 
L 3513 0 
L 2938 0 
L 2938 2094 
Q 2938 2591 2744 2837 
Q 2550 3084 2163 3084 
Q 1697 3084 1428 2787 
Q 1159 2491 1159 1978 
L 1159 0 
L 581 0 
L 581 4863 
L 1159 4863 
L 1159 2956 
Q 1366 3272 1645 3428 
Q 1925 3584 2291 3584 
Q 2894 3584 3203 3211 
Q 3513 2838 3513 2113 
z
" id="DejaVuSans-68" transform="scale(0.015625)"/>
       <path id="DejaVuSans-20" transform="scale(0.015625)"/>
       <path d="M 550 4863 
L 1875 4863 
L 1875 4416 
L 1125 4416 
L 1125 -397 
L 1875 -397 
L 1875 -844 
L 550 -844 
L 550 4863 
z
" id="DejaVuSans-5b" transform="scale(0.015625)"/>
       <path d="M 3328 2828 
Q 3544 3216 3844 3400 
Q 4144 3584 4550 3584 
Q 5097 3584 5394 3201 
Q 5691 2819 5691 2113 
L 5691 0 
L 5113 0 
L 5113 2094 
Q 5113 2597 4934 2840 
Q 4756 3084 4391 3084 
Q 3944 3084 3684 2787 
Q 3425 2491 3425 1978 
L 3425 0 
L 2847 0 
L 2847 2094 
Q 2847 2600 2669 2842 
Q 2491 3084 2119 3084 
Q 1678 3084 1418 2786 
Q 1159 2488 1159 1978 
L 1159 0 
L 581 0 
L 581 3500 
L 1159 3500 
L 1159 2956 
Q 1356 3278 1631 3431 
Q 1906 3584 2284 3584 
Q 2666 3584 2933 3390 
Q 3200 3197 3328 2828 
z
" id="DejaVuSans-6d" transform="scale(0.015625)"/>
       <path d="M 1947 4863 
L 1947 -844 
L 622 -844 
L 622 -397 
L 1369 -397 
L 1369 4416 
L 622 4416 
L 622 4863 
L 1947 4863 
z
" id="DejaVuSans-5d" transform="scale(0.015625)"/>
      </defs>
      <use xlink:href="#DejaVuSans-57"/>
      <use x="92.501953" xlink:href="#DejaVuSans-61"/>
      <use x="153.78125" xlink:href="#DejaVuSans-76"/>
      <use x="212.960938" xlink:href="#DejaVuSans-65"/>
      <use x="274.484375" xlink:href="#DejaVuSans-6c"/>
      <use x="302.267578" xlink:href="#DejaVuSans-65"/>
      <use x="363.791016" xlink:href="#DejaVuSans-6e"/>
      <use x="427.169922" xlink:href="#DejaVuSans-67"/>
      <use x="490.646484" xlink:href="#DejaVuSans-74"/>
      <use x="529.855469" xlink:href="#DejaVuSans-68"/>
      <use x="593.234375" xlink:href="#DejaVuSans-20"/>
      <use x="625.021484" xlink:href="#DejaVuSans-5b"/>
      <use x="664.035156" xlink:href="#DejaVuSans-6e"/>
      <use x="727.414062" xlink:href="#DejaVuSans-6d"/>
      <use x="824.826172" xlink:href="#DejaVuSans-5d"/>
     </g>
    </g>
   </g>
   <g id="matplotlib.axis_2">
    <g id="ytick_1">
     <g id="line2d_7">
      <defs>
       <path d="M 0 0 
L -3.5 0 
" id="m24b033c250" style="stroke:#000000;stroke-width:0.8;"/>
      </defs>
      <g>
       <use style="stroke:#000000;stroke-width:0.8;" x="57.6" xlink:href="#m24b033c250" y="285.931341"/>
      </g>
     </g>
     <g id="text_8">
      <!-- 0 -->
      <g transform="translate(44.2375 289.73056)scale(0.1 -0.1)">
       <use xlink:href="#DejaVuSans-30"/>
      </g>
     </g>
    </g>
    <g id="ytick_2">
     <g id="line2d_8">
      <g>
       <use style="stroke:#000000;stroke-width:0.8;" x="57.6" xlink:href="#m24b033c250" y="243.267684"/>
      </g>
     </g>
     <g id="text_9">
      <!-- 500 -->
      <g transform="translate(31.5125 247.066903)scale(0.1 -0.1)">
       <defs>
        <path d="M 691 4666 
L 3169 4666 
L 3169 4134 
L 1269 4134 
L 1269 2991 
Q 1406 3038 1543 3061 
Q 1681 3084 1819 3084 
Q 2600 3084 3056 2656 
Q 3513 2228 3513 1497 
Q 3513 744 3044 326 
Q 2575 -91 1722 -91 
Q 1428 -91 1123 -41 
Q 819 9 494 109 
L 494 744 
Q 775 591 1075 516 
Q 1375 441 1709 441 
Q 2250 441 2565 725 
Q 2881 1009 2881 1497 
Q 2881 1984 2565 2268 
Q 2250 2553 1709 2553 
Q 1456 2553 1204 2497 
Q 953 2441 691 2322 
L 691 4666 
z
" id="DejaVuSans-35" transform="scale(0.015625)"/>
       </defs>
       <use xlink:href="#DejaVuSans-35"/>
       <use x="63.623047" xlink:href="#DejaVuSans-30"/>
       <use x="127.246094" xlink:href="#DejaVuSans-30"/>
      </g>
     </g>
    </g>
    <g id="ytick_3">
     <g id="line2d_9">
      <g>
       <use style="stroke:#000000;stroke-width:0.8;" x="57.6" xlink:href="#m24b033c250" y="200.604027"/>
      </g>
     </g>
     <g id="text_10">
      <!-- 1000 -->
      <g transform="translate(25.15 204.403246)scale(0.1 -0.1)">
       <use xlink:href="#DejaVuSans-31"/>
       <use x="63.623047" xlink:href="#DejaVuSans-30"/>
       <use x="127.246094" xlink:href="#DejaVuSans-30"/>
       <use x="190.869141" xlink:href="#DejaVuSans-30"/>
      </g>
     </g>
    </g>
    <g id="ytick_4">
     <g id="line2d_10">
      <g>
       <use style="stroke:#000000;stroke-width:0.8;" x="57.6" xlink:href="#m24b033c250" y="157.94037"/>
      </g>
     </g>
     <g id="text_11">
      <!-- 1500 -->
      <g transform="translate(25.15 161.739589)scale(0.1 -0.1)">
       <use xlink:href="#DejaVuSans-31"/>
       <use x="63.623047" xlink:href="#DejaVuSans-35"/>
       <use x="127.246094" xlink:href="#DejaVuSans-30"/>
       <use x="190.869141" xlink:href="#DejaVuSans-30"/>
      </g>
     </g>
    </g>
    <g id="ytick_5">
     <g id="line2d_11">
      <g>
       <use style="stroke:#000000;stroke-width:0.8;" x="57.6" xlink:href="#m24b033c250" y="115.276713"/>
      </g>
     </g>
     <g id="text_12">
      <!-- 2000 -->
      <g transform="translate(25.15 119.075932)scale(0.1 -0.1)">
       <use xlink:href="#DejaVuSans-32"/>
       <use x="63.623047" xlink:href="#DejaVuSans-30"/>
       <use x="127.246094" xlink:href="#DejaVuSans-30"/>
       <use x="190.869141" xlink:href="#DejaVuSans-30"/>
      </g>
     </g>
    </g>
    <g id="ytick_6">
     <g id="line2d_12">
      <g>
       <use style="stroke:#000000;stroke-width:0.8;" x="57.6" xlink:href="#m24b033c250" y="72.613056"/>
      </g>
     </g>
     <g id="text_13">
      <!-- 2500 -->
      <g transform="translate(25.15 76.412275)scale(0.1 -0.1)">
       <use xlink:href="#DejaVuSans-32"/>
       <use x="63.623047" xlink:href="#DejaVuSans-35"/>
       <use x="127.246094" xlink:href="#DejaVuSans-30"/>
       <use x="190.869141" xlink:href="#DejaVuSans-30"/>
      </g>
     </g>
    </g>
    <g id="text_14">
     <!-- Counts -->
     <g transform="translate(19.070312 191.981125)rotate(-90)scale(0.1 -0.1)">
      <defs>
       <path d="M 4122 4306 
L 4122 3641 
Q 3803 3938 3442 4084 
Q 3081 4231 2675 4231 
Q 1875 4231 1450 3742 
Q 1025 3253 1025 2328 
Q 1025 1406 1450 917 
Q 1875 428 2675 428 
Q 3081 428 3442 575 
Q 3803 722 4122 1019 
L 4122 359 
Q 3791 134 3420 21 
Q 3050 -91 2638 -91 
Q 1578 -91 968 557 
Q 359 1206 359 2328 
Q 359 3453 968 4101 
Q 1578 4750 2638 4750 
Q 3056 4750 3426 4639 
Q 3797 4528 4122 4306 
z
" id="DejaVuSans-43" transform="scale(0.015625)"/>
       <path d="M 1959 3097 
Q 1497 3097 1228 2736 
Q 959 2375 959 1747 
Q 959 1119 1226 758 
Q 1494 397 1959 397 
Q 2419 397 2687 759 
Q 2956 1122 2956 1747 
Q 2956 2369 2687 2733 
Q 2419 3097 1959 3097 
z
M 1959 3584 
Q 2709 3584 3137 3096 
Q 3566 2609 3566 1747 
Q 3566 888 3137 398 
Q 2709 -91 1959 -91 
Q 1206 -91 779 398 
Q 353 888 353 1747 
Q 353 2609 779 3096 
Q 1206 3584 1959 3584 
z
" id="DejaVuSans-6f" transform="scale(0.015625)"/>
       <path d="M 544 1381 
L 544 3500 
L 1119 3500 
L 1119 1403 
Q 1119 906 1312 657 
Q 1506 409 1894 409 
Q 2359 409 2629 706 
Q 2900 1003 2900 1516 
L 2900 3500 
L 3475 3500 
L 3475 0 
L 2900 0 
L 2900 538 
Q 2691 219 2414 64 
Q 2138 -91 1772 -91 
Q 1169 -91 856 284 
Q 544 659 544 1381 
z
M 1991 3584 
L 1991 3584 
z
" id="DejaVuSans-75" transform="scale(0.015625)"/>
       <path d="M 2834 3397 
L 2834 2853 
Q 2591 2978 2328 3040 
Q 2066 3103 1784 3103 
Q 1356 3103 1142 2972 
Q 928 2841 928 2578 
Q 928 2378 1081 2264 
Q 1234 2150 1697 2047 
L 1894 2003 
Q 2506 1872 2764 1633 
Q 3022 1394 3022 966 
Q 3022 478 2636 193 
Q 2250 -91 1575 -91 
Q 1294 -91 989 -36 
Q 684 19 347 128 
L 347 722 
Q 666 556 975 473 
Q 1284 391 1588 391 
Q 1994 391 2212 530 
Q 2431 669 2431 922 
Q 2431 1156 2273 1281 
Q 2116 1406 1581 1522 
L 1381 1569 
Q 847 1681 609 1914 
Q 372 2147 372 2553 
Q 372 3047 722 3315 
Q 1072 3584 1716 3584 
Q 2034 3584 2315 3537 
Q 2597 3491 2834 3397 
z
" id="DejaVuSans-73" transform="scale(0.015625)"/>
      </defs>
      <use xlink:href="#DejaVuSans-43"/>
      <use x="69.824219" xlink:href="#DejaVuSans-6f"/>
      <use x="131.005859" xlink:href="#DejaVuSans-75"/>
      <use x="194.384766" xlink:href="#DejaVuSans-6e"/>
      <use x="257.763672" xlink:href="#DejaVuSans-74"/>
      <use x="296.972656" xlink:href="#DejaVuSans-73"/>
     </g>
    </g>
   </g>
   <g id="line2d_13">
    <path clip-path="url(#pad19c15238)" d="M 73.832727 285.248722 
L 73.992106 285.214591 
L 74.151485 283.6787 
L 74.310864 283.576307 
L 74.470242 284.668497 
L 74.948379 282.142808 
L 75.267136 283.917616 
L 75.585894 281.528451 
L 75.745272 284.600235 
L 76.06403 282.040415 
L 76.382788 286.033734 
L 76.542166 285.590032 
L 76.860924 287.842673 
L 77.179681 287.945065 
L 77.33906 287.74028 
L 77.657818 290.027052 
L 77.817196 288.900731 
L 78.295333 283.712831 
L 78.61409 284.361318 
L 78.773469 284.80502 
L 79.092227 282.723034 
L 79.251605 283.576307 
L 79.410984 282.484117 
L 79.570363 283.542176 
L 79.729742 285.828948 
L 79.88912 285.52177 
L 80.048499 285.52177 
L 80.207878 286.921138 
L 80.367257 286.682221 
L 80.526635 284.873282 
L 80.686014 284.80502 
L 80.845393 283.098474 
L 81.004772 283.644569 
L 81.323529 281.801499 
L 81.482908 283.371521 
L 81.642287 283.610438 
L 81.801666 280.504524 
L 82.279802 284.668497 
L 82.439181 284.80502 
L 82.757938 286.818745 
L 82.917317 286.238519 
L 83.236074 282.484117 
L 83.395453 284.634366 
L 83.87359 279.99256 
L 84.032968 280.538655 
L 84.511105 278.081228 
L 84.670483 280.879964 
L 84.829862 280.879964 
L 84.989241 280.709309 
L 85.467377 282.893688 
L 85.626756 281.733237 
L 85.786135 281.391928 
L 85.945513 282.347594 
L 86.264271 282.108677 
L 86.42365 283.269129 
L 86.583029 283.337391 
L 86.742407 281.289535 
L 86.901786 282.552379 
L 87.061165 282.347594 
L 87.379922 286.238519 
L 87.539301 285.931341 
L 87.69868 286.238519 
L 88.176816 283.951747 
L 88.336195 286.238519 
L 88.654952 287.535494 
L 88.814331 288.422898 
L 88.97371 287.945065 
L 89.133089 287.876804 
L 89.451846 289.651612 
L 89.611225 290.061183 
L 89.770604 292.074907 
L 90.089361 288.388767 
L 90.24874 287.706149 
L 90.567498 285.009806 
L 90.726876 285.078068 
L 90.886255 284.941544 
L 91.364391 280.641047 
L 91.52377 283.815223 
L 91.683149 284.702628 
L 92.001907 284.293056 
L 92.320664 283.371521 
L 92.480043 285.043937 
L 92.639422 283.951747 
L 92.958179 285.828948 
L 93.117558 282.757165 
L 93.276937 284.327187 
L 93.436315 283.712831 
L 93.755073 283.644569 
L 93.914452 283.508045 
L 94.07383 282.21107 
L 94.392588 285.794817 
L 94.551967 285.828948 
L 94.711346 287.330709 
L 95.030103 283.371521 
L 95.189482 283.508045 
L 95.508239 284.907413 
L 95.826997 283.132605 
L 95.986376 283.371521 
L 96.145754 283.132605 
L 96.305133 282.381725 
L 96.464512 283.781093 
L 96.78327 288.081589 
L 97.102027 286.9894 
L 97.420785 287.398971 
L 97.580163 286.443305 
L 97.739542 284.668497 
L 98.0583 285.658293 
L 98.217678 285.624163 
L 98.377057 282.791296 
L 98.695815 284.122402 
L 99.014572 284.463711 
L 99.33333 285.794817 
L 99.492709 285.555901 
L 99.652087 286.340912 
L 99.811466 284.668497 
L 99.970845 285.828948 
L 100.130224 285.419377 
L 100.289602 283.576307 
L 100.448981 283.064343 
L 100.60836 284.566104 
L 100.927117 283.439783 
L 101.086496 285.18046 
L 101.245875 283.132605 
L 101.405254 284.736758 
L 101.564632 284.566104 
L 101.724011 283.371521 
L 101.88339 286.955269 
L 102.042769 285.931341 
L 102.202148 285.692424 
L 102.361526 285.931341 
L 102.520905 288.218113 
L 102.680284 286.852876 
L 102.839663 287.706149 
L 102.999041 284.975675 
L 103.15842 285.863079 
L 103.317799 287.467233 
L 103.477178 284.42958 
L 103.636556 287.125923 
L 103.795935 285.726555 
L 103.955314 286.340912 
L 104.43345 284.05414 
L 104.592829 284.531973 
L 104.752208 283.849354 
L 104.911587 283.849354 
L 105.070965 285.248722 
L 105.230344 283.234998 
L 105.389723 283.439783 
L 105.549102 281.699106 
L 105.70848 281.187142 
L 105.867859 282.825427 
L 106.027238 283.269129 
L 106.345995 285.692424 
L 106.664753 286.64809 
L 106.824132 287.74028 
L 106.983511 288.047458 
L 107.142889 289.242041 
L 107.302268 289.139648 
L 107.621026 287.842673 
L 107.780404 286.340912 
L 107.939783 286.750483 
L 108.099162 286.101995 
L 108.258541 285.931341 
L 108.417919 285.453508 
L 108.896056 285.078068 
L 109.055434 284.907413 
L 109.214813 285.419377 
L 109.374192 288.49116 
L 109.533571 286.818745 
L 109.69295 286.477436 
L 109.852328 284.770889 
L 110.011707 284.668497 
L 110.171086 282.313463 
L 110.330465 283.542176 
L 110.489843 283.439783 
L 110.649222 283.985878 
L 110.808601 283.30326 
L 110.96798 282.108677 
L 111.446116 285.078068 
L 111.605495 285.52177 
L 111.764873 287.262447 
L 111.924252 286.409174 
L 112.083631 286.204388 
L 112.402389 286.511567 
L 112.561767 285.487639 
L 112.721146 285.931341 
L 112.880525 285.316984 
L 113.039904 285.89721 
L 113.199282 285.555901 
L 113.358661 286.613959 
L 113.51804 285.863079 
L 113.677419 284.531973 
L 113.836797 284.361318 
L 114.314934 281.630844 
L 114.79307 284.80502 
L 114.952449 283.917616 
L 115.271206 287.842673 
L 115.589964 287.433102 
L 115.749343 288.968993 
L 115.908721 288.83247 
L 116.0681 288.013327 
L 116.386858 283.576307 
L 116.546236 285.794817 
L 116.864994 284.122402 
L 117.024373 284.05414 
L 117.183752 286.409174 
L 117.34313 284.839151 
L 117.502509 285.14633 
L 117.661888 284.463711 
L 117.821267 284.531973 
L 117.980645 286.682221 
L 118.299403 284.497842 
L 118.458782 285.828948 
L 118.61816 285.316984 
L 118.777539 284.293056 
L 118.936918 285.112199 
L 119.096297 284.736758 
L 119.255675 285.18046 
L 119.415054 285.009806 
L 119.893191 279.514727 
L 120.052569 278.422537 
L 120.211948 278.251883 
L 120.530706 280.572786 
L 120.690084 280.129084 
L 121.168221 284.088271 
L 121.327599 282.996081 
L 121.486978 283.234998 
L 121.646357 284.531973 
L 121.805736 284.668497 
L 122.124493 282.552379 
L 122.283872 284.395449 
L 122.443251 283.6787 
L 122.60263 284.088271 
L 122.762008 282.791296 
L 122.921387 286.136126 
L 123.080766 286.306781 
L 123.240145 285.555901 
L 123.718281 285.18046 
L 124.037038 281.494321 
L 124.196417 279.856036 
L 124.355796 281.153011 
L 124.674553 279.685381 
L 124.833932 280.265607 
L 124.993311 281.426059 
L 125.15269 281.733237 
L 125.312069 281.630844 
L 125.790205 286.477436 
L 126.268341 289.412695 
L 126.42772 288.422898 
L 126.587099 286.682221 
L 126.746477 286.784614 
L 126.905856 286.545698 
L 127.543371 282.040415 
L 127.70275 282.381725 
L 127.862129 282.996081 
L 128.021508 282.347594 
L 128.180886 283.269129 
L 128.340265 282.825427 
L 128.499644 283.030212 
L 128.818401 284.531973 
L 129.137159 285.487639 
L 129.455916 284.634366 
L 129.615295 284.873282 
L 130.093432 286.340912 
L 130.571568 284.395449 
L 130.730947 284.668497 
L 130.890325 284.463711 
L 131.049704 283.712831 
L 131.209083 284.736758 
L 131.687219 281.630844 
L 132.324734 284.80502 
L 132.484113 284.088271 
L 132.962249 286.101995 
L 133.121628 288.388767 
L 133.281007 288.900731 
L 133.599764 290.470754 
L 133.759143 290.470754 
L 133.918522 288.900731 
L 134.237279 291.05098 
L 134.396658 289.003124 
L 134.556037 289.139648 
L 134.715416 287.262447 
L 135.034173 286.375043 
L 135.193552 286.750483 
L 135.51231 284.42958 
L 135.831067 283.269129 
L 135.990446 284.463711 
L 136.149825 283.883485 
L 136.309203 286.067865 
L 136.468582 286.306781 
L 136.627961 285.658293 
L 136.78734 285.863079 
L 137.106097 289.58335 
L 137.265476 289.515088 
L 137.424855 289.992921 
L 137.584233 289.924659 
L 137.743612 290.539016 
L 137.902991 289.173779 
L 138.06237 289.037255 
L 138.699885 286.033734 
L 138.859264 286.64809 
L 139.178021 285.863079 
L 139.3374 285.453508 
L 139.656157 283.6787 
L 139.815536 282.859558 
L 139.974915 283.473914 
L 140.134294 283.405652 
L 140.61243 282.415856 
L 140.771809 282.313463 
L 140.931188 282.96195 
L 141.409324 287.02353 
L 141.568703 286.409174 
L 141.728081 286.716352 
L 141.88746 288.11572 
L 142.046839 287.603756 
L 142.206218 287.945065 
L 142.684354 290.436623 
L 142.843733 289.617481 
L 143.16249 287.057661 
L 143.321869 287.535494 
L 143.481248 285.828948 
L 143.640627 287.125923 
L 143.800005 287.057661 
L 144.278142 284.293056 
L 144.43752 285.965472 
L 144.596899 286.136126 
L 144.915657 285.385246 
L 145.075035 287.774411 
L 145.553172 284.566104 
L 145.712551 286.511567 
L 145.871929 286.818745 
L 146.031308 285.487639 
L 146.190687 287.501363 
L 146.350066 287.535494 
L 146.828202 282.074546 
L 146.987581 284.463711 
L 147.146959 285.18046 
L 147.306338 284.088271 
L 147.465717 283.917616 
L 147.625096 284.156533 
L 147.784474 281.972153 
L 147.943853 282.449986 
L 148.103232 284.736758 
L 148.262611 284.088271 
L 148.42199 287.228316 
L 148.581368 285.555901 
L 148.740747 287.876804 
L 148.900126 287.398971 
L 149.059505 288.081589 
L 149.218883 288.252244 
L 149.537641 291.05098 
L 149.69702 289.446826 
L 149.856398 289.446826 
L 150.015777 289.242041 
L 150.175156 288.559422 
L 150.334535 285.760686 
L 150.653292 284.361318 
L 150.812671 284.907413 
L 151.131429 282.415856 
L 151.290807 282.620641 
L 151.768944 284.497842 
L 151.928322 284.975675 
L 152.24708 286.750483 
L 152.406459 285.89721 
L 152.565837 286.682221 
L 152.725216 286.682221 
L 152.884595 288.968993 
L 153.043974 287.979196 
L 153.203353 287.876804 
L 153.362731 289.20791 
L 153.681489 287.194185 
L 154.319004 292.074907 
L 154.478383 290.812063 
L 154.79714 292.484479 
L 154.956519 291.733598 
L 155.115898 292.484479 
L 155.275276 292.211431 
L 155.753413 288.968993 
L 155.912792 289.071386 
L 156.231549 287.467233 
L 156.390928 287.398971 
L 156.550307 286.033734 
L 156.709685 286.887007 
L 156.869064 287.057661 
L 157.028443 286.204388 
L 157.187822 287.02353 
L 157.665958 283.473914 
L 157.825337 284.293056 
L 157.984715 284.088271 
L 158.144094 284.088271 
L 158.303473 283.576307 
L 158.462852 283.473914 
L 158.781609 285.419377 
L 158.940988 285.52177 
L 159.100367 286.682221 
L 159.259746 286.682221 
L 159.419124 285.590032 
L 159.578503 285.863079 
L 159.737882 286.9894 
L 160.056639 285.828948 
L 160.216018 285.965472 
L 160.375397 286.409174 
L 160.853533 288.8666 
L 161.012912 288.764208 
L 161.172291 288.252244 
L 161.33167 288.218113 
L 161.650427 290.163576 
L 161.969185 287.706149 
L 162.287942 283.439783 
L 162.447321 284.668497 
L 162.6067 284.907413 
L 162.766078 284.941544 
L 162.925457 284.531973 
L 163.084836 282.381725 
L 163.244215 283.849354 
L 163.562972 284.395449 
L 163.722351 286.306781 
L 163.88173 285.282853 
L 164.041109 285.043937 
L 164.200487 286.170257 
L 164.359866 285.89721 
L 164.519245 286.170257 
L 164.678624 288.047458 
L 164.838002 287.057661 
L 164.997381 287.979196 
L 165.15676 287.398971 
L 165.316139 287.398971 
L 165.475517 290.368361 
L 165.634896 290.163576 
L 165.953654 289.412695 
L 166.272411 291.119242 
L 166.591169 288.968993 
L 166.750548 289.480957 
L 166.909926 288.730077 
L 167.228684 285.078068 
L 167.388063 285.555901 
L 167.70682 283.576307 
L 167.866199 283.405652 
L 168.025578 284.770889 
L 168.184956 284.839151 
L 168.344335 285.112199 
L 168.503714 287.501363 
L 168.663093 287.296578 
L 168.822472 288.252244 
L 168.98185 287.979196 
L 169.141229 289.651612 
L 169.459987 288.252244 
L 169.778744 286.545698 
L 170.097502 286.784614 
L 170.25688 286.579828 
L 170.416259 286.750483 
L 170.735017 285.863079 
L 171.213153 285.931341 
L 171.372532 287.228316 
L 171.531911 287.501363 
L 171.691289 285.009806 
L 171.850668 284.907413 
L 172.169426 282.791296 
L 172.328804 282.654772 
L 172.488183 282.347594 
L 172.647562 283.166736 
L 172.966319 282.449986 
L 173.125698 280.402131 
L 173.285077 280.948226 
L 173.444456 282.484117 
L 173.603835 282.757165 
L 173.763213 283.644569 
L 173.922592 283.200867 
L 174.081971 282.040415 
L 174.24135 282.142808 
L 174.400728 280.879964 
L 174.560107 280.914095 
L 174.719486 282.449986 
L 174.878865 282.040415 
L 175.038243 280.299738 
L 175.197622 282.347594 
L 175.357001 281.323666 
L 175.675758 283.644569 
L 175.994516 285.419377 
L 176.153895 284.975675 
L 176.313274 285.112199 
L 176.472652 286.136126 
L 176.79141 285.078068 
L 177.110167 288.764208 
L 177.269546 288.798339 
L 177.428925 285.112199 
L 177.588304 286.204388 
L 177.747682 286.067865 
L 177.907061 287.228316 
L 178.06644 287.569625 
L 178.225819 288.900731 
L 178.544576 287.296578 
L 178.703955 286.545698 
L 178.863334 286.477436 
L 179.022713 287.945065 
L 179.182091 286.409174 
L 179.34147 286.136126 
L 179.819606 284.258926 
L 180.138364 285.043937 
L 180.457121 284.873282 
L 180.6165 285.112199 
L 180.935258 287.569625 
L 181.094636 287.091792 
L 181.254015 287.876804 
L 181.413394 287.672018 
L 181.572773 286.716352 
L 181.732152 286.784614 
L 182.050909 285.931341 
L 182.369667 286.955269 
L 182.529045 285.112199 
L 182.688424 285.999603 
L 183.325939 281.801499 
L 183.485318 282.688903 
L 183.644697 282.415856 
L 183.804076 284.020009 
L 183.963454 283.542176 
L 184.122833 284.736758 
L 184.282212 282.074546 
L 184.441591 281.903892 
L 184.600969 282.58651 
L 184.760348 284.224795 
L 185.079106 282.996081 
L 185.238484 283.337391 
L 185.397863 281.699106 
L 185.557242 282.415856 
L 185.716621 281.733237 
L 186.035378 284.122402 
L 186.194757 283.917616 
L 186.513515 286.64809 
L 186.832272 284.702628 
L 186.991651 283.200867 
L 187.15103 283.166736 
L 187.310408 282.927819 
L 187.469787 282.893688 
L 187.629166 282.006284 
L 187.788545 282.108677 
L 187.947923 280.504524 
L 188.107302 281.494321 
L 188.266681 281.494321 
L 188.42606 284.05414 
L 188.585438 284.293056 
L 188.744817 284.224795 
L 188.904196 284.497842 
L 189.222954 286.750483 
L 189.382332 286.887007 
L 189.541711 287.672018 
L 189.70109 287.160054 
L 190.019847 284.839151 
L 190.179226 285.453508 
L 190.338605 283.234998 
L 190.497984 282.927819 
L 190.657362 283.439783 
L 190.816741 282.620641 
L 191.135499 284.258926 
L 191.294877 283.405652 
L 191.454256 283.269129 
L 191.613635 281.83563 
L 191.773014 282.415856 
L 191.932393 284.088271 
L 192.091771 283.985878 
L 192.888665 274.83879 
L 193.207423 276.135765 
L 193.52618 272.517887 
L 193.685559 272.142447 
L 194.004317 272.278971 
L 194.163695 271.186781 
L 194.323074 268.729354 
L 194.482453 268.797616 
L 194.960589 263.78037 
L 195.119968 264.019287 
L 195.438725 258.660731 
L 195.598104 258.217029 
L 195.757483 258.25116 
L 195.916862 259.821183 
L 196.235619 256.442221 
L 196.394998 257.12484 
L 196.713756 252.585427 
L 196.873134 254.326104 
L 197.191892 252.244117 
L 197.670028 245.998158 
L 197.829407 245.929896 
L 197.988786 244.052695 
L 198.148164 245.281409 
L 198.466922 243.5066 
L 199.423195 234.905607 
L 199.741952 229.615314 
L 200.379467 212.89116 
L 200.698225 207.088903 
L 202.451391 165.653959 
L 203.8858 114.696488 
L 204.523315 84.763666 
L 205.16083 60.56484 
L 205.320209 58.039151 
L 205.479588 53.568 
L 205.957724 58.00502 
L 206.276481 67.356894 
L 206.913997 112.307323 
L 207.870269 185.040325 
L 209.464057 247.465788 
L 209.782814 255.793734 
L 209.942193 257.534411 
L 210.260951 264.087549 
L 210.420329 264.974953 
L 210.579708 267.876081 
L 210.739087 268.661093 
L 210.898466 272.005923 
L 211.057844 272.756804 
L 211.217223 274.565743 
L 211.376602 274.804659 
L 211.695359 279.582989 
L 211.854738 279.241679 
L 212.014117 282.21107 
L 212.173496 282.381725 
L 212.332875 282.279332 
L 212.492253 283.815223 
L 212.651632 284.224795 
L 212.811011 284.293056 
L 213.129768 286.921138 
L 213.289147 286.887007 
L 213.448526 286.9894 
L 213.607905 286.067865 
L 213.926662 289.856397 
L 214.086041 287.945065 
L 214.24542 288.457029 
L 214.404799 289.378564 
L 214.723556 287.706149 
L 214.882935 285.931341 
L 215.201692 288.49116 
L 215.361071 284.736758 
L 215.52045 283.951747 
L 215.679829 285.385246 
L 215.839207 284.668497 
L 215.998586 284.873282 
L 216.157965 286.27265 
L 216.317344 286.340912 
L 216.476722 286.852876 
L 216.79548 284.122402 
L 216.954859 285.419377 
L 217.114238 285.248722 
L 217.273616 285.555901 
L 217.432995 286.27265 
L 217.751753 284.156533 
L 217.911131 284.361318 
L 218.07051 284.122402 
L 218.229889 284.258926 
L 218.389268 285.18046 
L 218.548646 285.385246 
L 218.708025 286.101995 
L 218.867404 286.067865 
L 219.026783 285.282853 
L 219.34554 287.330709 
L 219.504919 287.296578 
L 219.823677 290.470754 
L 219.983055 289.822266 
L 220.461192 286.579828 
L 220.779949 287.672018 
L 221.098707 285.419377 
L 221.258085 284.975675 
L 221.417464 285.555901 
L 221.576843 284.770889 
L 221.736222 287.02353 
L 222.054979 287.36484 
L 222.373737 283.815223 
L 222.533116 284.224795 
L 222.692494 285.043937 
L 222.851873 284.088271 
L 223.011252 280.914095 
L 223.170631 282.347594 
L 223.648767 278.866239 
L 223.967524 281.528451 
L 224.126903 282.176939 
L 224.286282 282.040415 
L 224.445661 282.757165 
L 224.605039 284.088271 
L 224.923797 283.576307 
L 225.242555 286.921138 
L 225.561312 286.818745 
L 225.720691 286.477436 
L 225.88007 287.842673 
L 226.198827 287.330709 
L 226.358206 286.613959 
L 226.836342 289.992921 
L 226.995721 290.095314 
L 227.1551 289.992921 
L 227.314479 290.948587 
L 227.633236 287.808542 
L 227.792615 287.091792 
L 228.111372 288.730077 
L 228.43013 283.6787 
L 228.589509 283.439783 
L 228.748887 283.712831 
L 228.908266 282.927819 
L 229.067645 283.132605 
L 229.386402 286.613959 
L 229.545781 285.658293 
L 229.70516 283.815223 
L 229.864539 283.951747 
L 230.023918 284.395449 
L 230.183296 284.190664 
L 230.342675 284.907413 
L 230.502054 284.122402 
L 230.661433 285.316984 
L 230.820811 284.770889 
L 231.139569 281.938023 
L 231.298948 281.664975 
L 231.458326 279.651251 
L 231.617705 279.856036 
L 231.777084 280.675178 
L 231.936463 279.139287 
L 232.095841 280.74344 
L 232.414599 279.207549 
L 232.892735 282.723034 
L 233.052114 284.873282 
L 233.211493 284.736758 
L 233.370872 284.224795 
L 233.53025 284.975675 
L 233.689629 286.306781 
L 233.849008 286.375043 
L 234.008387 287.091792 
L 234.327144 290.777932 
L 234.645902 288.11572 
L 234.80528 287.433102 
L 234.964659 287.398971 
L 235.124038 286.887007 
L 235.283417 283.473914 
L 235.442796 284.156533 
L 235.761553 282.381725 
L 235.920932 280.606916 
L 236.239689 285.112199 
L 236.399068 284.907413 
L 236.558447 282.723034 
L 236.717826 283.371521 
L 236.877204 285.555901 
L 237.036583 284.80502 
L 237.195962 285.828948 
L 237.355341 284.497842 
L 237.51472 284.395449 
L 237.674098 282.142808 
L 237.833477 281.596713 
L 237.992856 283.815223 
L 238.311613 284.224795 
L 238.470992 283.473914 
L 238.630371 283.985878 
L 238.78975 283.883485 
L 238.949128 283.917616 
L 239.108507 283.508045 
L 239.427265 285.419377 
L 239.586643 284.736758 
L 239.746022 288.559422 
L 239.905401 288.661815 
L 240.224159 290.607278 
L 240.383537 290.504885 
L 240.702295 291.324027 
L 240.861674 291.597074 
L 241.499189 284.156533 
L 241.658567 283.234998 
L 241.817946 280.777571 
L 242.296082 283.337391 
L 242.455461 282.757165 
L 242.61484 282.96195 
L 242.774219 282.313463 
L 243.092976 283.542176 
L 243.252355 283.951747 
L 243.411734 287.672018 
L 243.571113 285.453508 
L 243.730491 285.555901 
L 243.88987 283.098474 
L 244.049249 282.723034 
L 244.208628 284.770889 
L 244.368006 285.043937 
L 244.527385 284.531973 
L 244.846143 286.306781 
L 245.005521 282.757165 
L 245.1649 284.600235 
L 245.324279 282.381725 
L 245.483658 285.692424 
L 245.643037 286.443305 
L 245.802415 285.282853 
L 246.121173 288.661815 
L 246.280552 288.081589 
L 246.43993 285.555901 
L 246.599309 286.170257 
L 246.758688 285.624163 
L 246.918067 287.74028 
L 247.236824 285.965472 
L 247.396203 285.555901 
L 247.714961 282.825427 
L 247.874339 283.269129 
L 248.193097 285.112199 
L 248.511854 283.064343 
L 248.671233 283.712831 
L 248.989991 286.443305 
L 249.149369 285.248722 
L 249.468127 285.14633 
L 249.786884 286.238519 
L 249.946263 287.979196 
L 250.105642 287.876804 
L 250.265021 287.603756 
L 250.4244 286.955269 
L 250.583778 285.828948 
L 250.743157 287.228316 
L 251.061915 286.101995 
L 251.221293 286.204388 
L 251.380672 287.330709 
L 251.540051 285.863079 
L 251.69943 286.033734 
L 251.858808 284.42958 
L 252.177566 285.18046 
L 252.496323 286.409174 
L 252.655702 285.214591 
L 252.815081 285.112199 
L 252.97446 283.337391 
L 253.133839 283.985878 
L 253.452596 287.02353 
L 253.611975 287.125923 
L 253.930732 286.477436 
L 254.090111 286.27265 
L 254.24949 287.569625 
L 254.568247 285.828948 
L 254.727626 285.078068 
L 255.205762 280.777571 
L 255.365141 281.596713 
L 255.52452 280.606916 
L 256.162035 285.078068 
L 256.321414 285.18046 
L 256.79955 288.83247 
L 256.958929 287.194185 
L 257.118308 288.798339 
L 257.277686 288.183982 
L 257.596444 288.49116 
L 257.755823 287.842673 
L 257.915201 289.139648 
L 258.07458 287.125923 
L 258.233959 286.921138 
L 258.393338 286.067865 
L 258.552717 286.136126 
L 258.712095 285.214591 
L 258.871474 285.14633 
L 259.030853 283.439783 
L 259.508989 284.907413 
L 259.668368 286.477436 
L 259.827747 285.692424 
L 259.987125 286.170257 
L 260.305883 285.794817 
L 260.624641 288.661815 
L 260.943398 287.945065 
L 261.102777 286.64809 
L 261.262156 287.501363 
L 261.421534 287.535494 
L 261.580913 286.852876 
L 261.740292 286.784614 
L 261.899671 287.160054 
L 262.377807 284.463711 
L 262.537186 282.142808 
L 262.696564 284.258926 
L 263.015322 281.972153 
L 263.174701 282.825427 
L 263.33408 282.927819 
L 263.493458 281.733237 
L 263.652837 281.391928 
L 263.812216 281.426059 
L 264.130973 285.487639 
L 264.290352 284.770889 
L 264.449731 284.668497 
L 264.927867 288.900731 
L 265.246625 287.467233 
L 265.406003 285.214591 
L 265.565382 285.692424 
L 266.043519 289.788135 
L 266.202897 289.037255 
L 266.521655 286.545698 
L 266.840412 288.252244 
L 266.999791 289.242041 
L 267.15917 289.412695 
L 267.637306 284.873282 
L 267.956064 287.467233 
L 268.115442 288.11572 
L 268.274821 287.160054 
L 268.4342 287.330709 
L 268.593579 288.49116 
L 268.752958 286.9894 
L 268.912336 287.02353 
L 269.231094 288.764208 
L 269.390473 286.340912 
L 269.549851 286.511567 
L 269.70923 285.282853 
L 269.868609 285.760686 
L 270.027988 284.668497 
L 270.187366 284.941544 
L 270.346745 284.122402 
L 270.506124 285.18046 
L 270.665503 283.781093 
L 270.824882 283.746962 
L 270.98426 285.658293 
L 271.303018 286.033734 
L 271.462397 284.600235 
L 271.621775 286.101995 
L 271.781154 286.545698 
L 271.940533 287.842673 
L 272.099912 287.774411 
L 272.25929 287.535494 
L 272.578048 288.422898 
L 272.737427 287.910935 
L 272.896805 288.286375 
L 273.056184 289.754005 
L 273.215563 289.310302 
L 273.374942 287.160054 
L 273.534321 287.535494 
L 273.693699 287.330709 
L 273.853078 288.286375 
L 274.012457 288.218113 
L 274.171836 286.921138 
L 274.331214 287.228316 
L 274.490593 286.887007 
L 274.809351 288.49116 
L 274.968729 289.20791 
L 275.128108 286.64809 
L 275.287487 286.955269 
L 275.446866 286.64809 
L 275.606244 286.750483 
L 276.24376 284.941544 
L 276.403138 283.371521 
L 276.562517 283.166736 
L 276.721896 284.736758 
L 276.881275 283.508045 
L 277.040653 284.600235 
L 277.200032 283.269129 
L 277.359411 283.781093 
L 277.51879 284.941544 
L 277.678168 284.566104 
L 277.837547 283.712831 
L 277.996926 284.224795 
L 278.156305 284.224795 
L 278.315683 283.951747 
L 278.475062 284.941544 
L 278.79382 283.610438 
L 278.953199 283.815223 
L 279.271956 285.316984 
L 279.431335 285.248722 
L 279.590714 284.531973 
L 279.750092 285.965472 
L 280.06885 283.985878 
L 280.228229 284.122402 
L 280.387607 283.746962 
L 280.546986 283.815223 
L 280.865744 282.415856 
L 281.025123 282.791296 
L 281.184501 284.190664 
L 281.34388 281.323666 
L 281.503259 283.508045 
L 281.662638 283.917616 
L 281.822016 284.668497 
L 281.981395 284.600235 
L 282.300153 282.142808 
L 282.459531 280.74344 
L 282.61891 281.972153 
L 282.778289 281.903892 
L 282.937668 284.463711 
L 283.097046 284.497842 
L 283.256425 283.917616 
L 283.415804 281.972153 
L 283.734562 284.224795 
L 283.89394 285.14633 
L 284.053319 286.784614 
L 284.690834 279.890167 
L 285.009592 282.279332 
L 285.16897 280.231476 
L 285.328349 279.753643 
L 285.487728 280.641047 
L 285.647107 278.52493 
L 285.965864 280.333869 
L 286.284622 285.214591 
L 286.603379 282.313463 
L 287.081516 285.351115 
L 287.240894 286.067865 
L 287.400273 285.078068 
L 287.559652 285.112199 
L 287.719031 284.566104 
L 287.878409 284.566104 
L 288.037788 285.692424 
L 288.197167 285.487639 
L 288.356546 286.375043 
L 288.834682 284.600235 
L 288.994061 284.463711 
L 289.472197 280.299738 
L 289.631576 280.470393 
L 289.790955 281.016488 
L 289.950333 278.422537 
L 290.269091 279.99256 
L 290.42847 283.508045 
L 290.587848 283.269129 
L 290.747227 284.736758 
L 291.065985 288.422898 
L 291.225364 288.013327 
L 291.384742 288.013327 
L 291.544121 290.061183 
L 291.7035 288.661815 
L 291.862879 289.378564 
L 292.022257 287.774411 
L 292.181636 288.695946 
L 292.341015 288.047458 
L 292.659772 281.699106 
L 292.819151 281.664975 
L 292.97853 283.985878 
L 293.137909 283.576307 
L 293.297287 283.781093 
L 293.456666 282.279332 
L 294.094181 283.542176 
L 294.25356 285.863079 
L 294.412939 286.136126 
L 294.572318 284.122402 
L 294.731696 283.781093 
L 294.891075 284.088271 
L 295.050454 285.214591 
L 295.209833 284.907413 
L 295.369211 284.156533 
L 295.687969 287.569625 
L 295.847348 285.828948 
L 296.006726 285.931341 
L 296.166105 286.27265 
L 296.325484 286.921138 
L 296.484863 287.057661 
L 296.644242 286.955269 
L 296.80362 287.228316 
L 296.962999 288.252244 
L 297.281757 285.282853 
L 297.441135 287.091792 
L 297.600514 286.852876 
L 297.759893 288.457029 
L 298.07865 288.457029 
L 298.397408 286.033734 
L 298.556787 285.14633 
L 298.716165 284.975675 
L 298.875544 285.863079 
L 299.034923 285.692424 
L 299.194302 286.64809 
L 299.353681 284.770889 
L 299.513059 285.999603 
L 299.672438 285.214591 
L 299.991196 285.692424 
L 300.150574 285.316984 
L 300.309953 285.351115 
L 300.469332 283.781093 
L 300.628711 283.6787 
L 301.106847 281.323666 
L 301.266226 281.11888 
L 301.584983 282.825427 
L 301.744362 282.996081 
L 301.903741 282.074546 
L 302.381877 284.736758 
L 302.700635 282.347594 
L 302.860013 284.020009 
L 303.33815 281.869761 
L 303.656907 285.316984 
L 303.975665 283.508045 
L 304.135044 285.351115 
L 304.294422 285.760686 
L 304.453801 283.576307 
L 304.61318 284.80502 
L 304.772559 284.736758 
L 304.931937 285.52177 
L 305.091316 284.258926 
L 305.410074 284.088271 
L 305.728831 284.80502 
L 305.88821 282.484117 
L 306.047589 283.781093 
L 306.206967 282.381725 
L 306.366346 282.893688 
L 306.525725 282.620641 
L 306.685104 282.040415 
L 306.844483 282.893688 
L 307.16324 282.176939 
L 307.481998 285.419377 
L 307.641376 284.736758 
L 307.960134 282.996081 
L 308.119513 282.313463 
L 308.278891 282.484117 
L 308.597649 280.74344 
L 308.757028 281.323666 
L 308.916406 281.46019 
L 309.075785 281.938023 
L 309.235164 281.562582 
L 309.553922 283.951747 
L 309.7133 283.883485 
L 310.032058 285.555901 
L 310.191437 285.624163 
L 310.350815 285.555901 
L 310.510194 284.566104 
L 310.669573 284.566104 
L 310.828952 286.306781 
L 311.147709 283.269129 
L 311.307088 284.634366 
L 311.466467 284.224795 
L 311.625845 283.30326 
L 311.785224 284.497842 
L 311.944603 283.542176 
L 312.103982 283.917616 
L 312.263361 282.791296 
L 312.422739 283.064343 
L 312.741497 287.228316 
L 313.060254 285.931341 
L 313.219633 286.340912 
L 313.379012 286.340912 
L 313.538391 287.160054 
L 313.697769 285.863079 
L 313.857148 285.965472 
L 314.175906 283.917616 
L 314.335285 283.30326 
L 314.494663 283.576307 
L 314.654042 282.245201 
L 314.9728 283.337391 
L 315.132178 283.234998 
L 315.610315 285.282853 
L 315.929072 288.627684 
L 316.088451 288.457029 
L 316.24783 291.05098 
L 316.407208 291.358158 
L 316.566587 289.992921 
L 316.885345 291.562944 
L 317.044724 290.33423 
L 317.204102 291.085111 
L 317.52286 288.457029 
L 317.682239 288.457029 
L 318.000996 285.89721 
L 318.160375 286.306781 
L 318.319754 286.238519 
L 318.479132 285.078068 
L 318.638511 286.545698 
L 318.79789 286.101995 
L 318.957269 285.043937 
L 319.116647 285.043937 
L 319.435405 283.781093 
L 319.594784 285.658293 
L 319.913541 284.80502 
L 320.07292 285.18046 
L 320.391678 280.845833 
L 320.551056 282.996081 
L 320.710435 282.825427 
L 320.869814 284.122402 
L 321.029193 284.42958 
L 321.188571 282.518248 
L 321.34795 284.05414 
L 321.507329 284.122402 
L 321.666708 285.248722 
L 321.826086 287.672018 
L 321.985465 288.149851 
L 322.144844 287.467233 
L 322.304223 287.467233 
L 322.463602 288.286375 
L 322.62298 288.013327 
L 322.782359 288.218113 
L 322.941738 287.637887 
L 323.101117 287.569625 
L 323.419874 284.258926 
L 323.579253 284.634366 
L 324.057389 280.675178 
L 324.216768 281.016488 
L 324.376147 280.675178 
L 324.535526 279.139287 
L 324.694904 278.797977 
L 324.854283 279.412334 
L 325.173041 281.221273 
L 325.332419 281.426059 
L 325.491798 281.426059 
L 325.651177 281.664975 
L 325.810556 281.323666 
L 326.288692 285.316984 
L 326.607449 286.64809 
L 326.766828 286.136126 
L 326.926207 287.02353 
L 327.244965 290.812063 
L 327.404343 290.061183 
L 327.563722 290.504885 
L 327.723101 289.037255 
L 327.88248 289.139648 
L 328.041858 288.661815 
L 328.360616 285.487639 
L 328.519995 285.965472 
L 328.838752 283.473914 
L 328.998131 285.965472 
L 329.316888 284.497842 
L 329.954404 289.276172 
L 330.113782 288.013327 
L 330.43254 288.525291 
L 330.591919 286.067865 
L 330.751297 286.887007 
L 330.910676 288.593553 
L 331.070055 287.706149 
L 331.229434 288.11572 
L 331.548191 287.160054 
L 331.866949 289.310302 
L 332.026327 287.808542 
L 332.185706 289.310302 
L 332.345085 289.276172 
L 332.504464 289.412695 
L 332.823221 288.013327 
L 332.9826 288.252244 
L 333.141979 289.378564 
L 333.301358 288.764208 
L 333.460736 288.900731 
L 333.620115 289.58335 
L 333.779494 288.798339 
L 334.25763 288.83247 
L 334.576388 286.033734 
L 334.735767 286.238519 
L 334.895145 284.531973 
L 335.054524 284.224795 
L 335.213903 283.30326 
L 335.373282 283.644569 
L 335.53266 280.879964 
L 335.692039 280.470393 
L 335.851418 281.084749 
L 336.010797 283.200867 
L 336.170175 283.234998 
L 336.329554 282.006284 
L 336.488933 283.6787 
L 336.648312 283.849354 
L 337.126448 288.798339 
L 337.285827 287.910935 
L 337.445206 288.730077 
L 337.763963 285.043937 
L 337.923342 286.784614 
L 338.242099 284.020009 
L 338.401478 283.917616 
L 338.560857 284.258926 
L 338.720236 283.985878 
L 338.879614 285.043937 
L 339.038993 282.996081 
L 339.357751 285.965472 
L 339.517129 284.395449 
L 339.676508 287.160054 
L 339.835887 287.02353 
L 340.473402 283.746962 
L 340.632781 284.088271 
L 340.951538 286.64809 
L 341.110917 286.511567 
L 341.270296 284.05414 
L 341.748432 289.105517 
L 341.907811 288.388767 
L 342.06719 288.525291 
L 342.385947 286.306781 
L 342.704705 286.921138 
L 342.864084 289.310302 
L 343.023462 289.105517 
L 343.182841 288.49116 
L 343.34222 286.545698 
L 343.660977 285.828948 
L 343.820356 288.286375 
L 343.979735 288.49116 
L 344.61725 283.098474 
L 344.776629 283.644569 
L 344.936007 283.132605 
L 345.254765 285.692424 
L 345.414144 282.518248 
L 345.732901 282.279332 
L 345.89228 283.746962 
L 346.051659 283.610438 
L 346.211038 284.05414 
L 346.529795 285.351115 
L 346.689174 285.999603 
L 346.848553 285.692424 
L 347.007931 289.344433 
L 347.16731 287.842673 
L 347.326689 287.774411 
L 347.486068 287.501363 
L 347.645447 288.83247 
L 347.804825 288.968993 
L 347.964204 286.716352 
L 348.123583 289.20791 
L 348.282962 286.64809 
L 348.44234 287.842673 
L 348.601719 286.477436 
L 348.761098 286.750483 
L 348.920477 288.388767 
L 349.079855 288.83247 
L 349.239234 286.306781 
L 349.398613 285.794817 
L 349.557992 287.330709 
L 349.71737 285.658293 
L 349.876749 288.457029 
L 350.036128 287.979196 
L 350.195507 289.515088 
L 350.354886 289.651612 
L 350.514264 288.320506 
L 350.673643 289.685743 
L 350.833022 289.719874 
L 350.992401 289.58335 
L 351.151779 290.743801 
L 351.311158 290.67554 
L 351.470537 290.129445 
L 351.629916 290.33423 
L 352.586188 294.702989 
L 352.904946 291.221634 
L 353.223703 290.129445 
L 353.383082 287.194185 
L 353.70184 285.692424 
L 354.020597 283.166736 
L 354.339355 285.043937 
L 354.658112 282.381725 
L 354.817491 282.415856 
L 354.97687 282.552379 
L 355.136248 283.815223 
L 355.295627 282.688903 
L 355.455006 282.552379 
L 355.614385 283.405652 
L 355.773764 282.96195 
L 355.933142 282.176939 
L 356.2519 286.375043 
L 356.411279 284.80502 
L 356.570657 285.52177 
L 356.730036 285.18046 
L 357.048794 285.453508 
L 357.208172 286.204388 
L 357.367551 285.658293 
L 357.686309 283.405652 
L 357.845688 283.064343 
L 358.005066 284.600235 
L 358.483203 282.552379 
L 358.642581 282.21107 
L 358.80196 281.528451 
L 358.961339 281.562582 
L 359.280096 282.96195 
L 359.439475 282.415856 
L 359.598854 282.688903 
L 359.758233 285.043937 
L 360.07699 285.794817 
L 360.236369 285.419377 
L 360.395748 286.238519 
L 360.555127 286.136126 
L 360.714505 286.887007 
L 360.873884 285.692424 
L 361.033263 286.852876 
L 361.192642 286.921138 
L 361.35202 284.907413 
L 361.511399 286.067865 
L 361.670778 286.27265 
L 361.989535 288.661815 
L 362.308293 287.535494 
L 362.467672 287.433102 
L 362.62705 284.122402 
L 362.786429 283.508045 
L 363.105187 285.794817 
L 363.264566 286.9894 
L 363.423944 286.443305 
L 363.583323 284.566104 
L 363.902081 285.931341 
L 364.220838 286.921138 
L 364.380217 287.125923 
L 364.698974 283.234998 
L 364.858353 283.098474 
L 365.017732 280.231476 
L 365.177111 280.402131 
L 365.655247 278.490799 
L 365.814626 280.129084 
L 365.974005 279.651251 
L 366.133383 279.958429 
L 366.292762 280.879964 
L 366.452141 279.924298 
L 366.61152 282.313463 
L 366.770898 282.927819 
L 366.930277 284.327187 
L 367.089656 284.42958 
L 367.249035 286.545698 
L 367.567792 284.975675 
L 367.727171 285.590032 
L 367.88655 283.883485 
L 368.045929 284.088271 
L 368.205307 285.14633 
L 368.524065 284.293056 
L 368.683444 285.18046 
L 368.842822 283.6787 
L 369.480337 289.003124 
L 369.639716 288.695946 
L 369.799095 287.125923 
L 370.117852 289.310302 
L 370.277231 288.218113 
L 370.43661 289.139648 
L 370.755368 289.788135 
L 371.074125 287.467233 
L 371.233504 287.842673 
L 371.392883 288.559422 
L 371.552261 285.078068 
L 371.71164 285.248722 
L 371.871019 285.112199 
L 372.030398 284.702628 
L 372.189776 283.883485 
L 372.349155 284.258926 
L 372.508534 284.122402 
L 372.667913 283.781093 
L 372.98667 285.999603 
L 373.146049 289.310302 
L 373.464807 286.579828 
L 373.624185 287.262447 
L 373.783564 287.296578 
L 374.102322 282.996081 
L 374.2617 283.542176 
L 374.580458 280.026691 
L 374.739837 280.060822 
L 375.058594 281.733237 
L 375.217973 281.084749 
L 375.855488 286.955269 
L 376.014867 286.613959 
L 376.174246 286.716352 
L 376.333624 283.644569 
L 376.493003 283.644569 
L 376.811761 284.634366 
L 376.971139 286.033734 
L 377.130518 284.600235 
L 377.289897 285.52177 
L 377.449276 283.917616 
L 377.608654 285.14633 
L 377.768033 285.14633 
L 377.927412 286.784614 
L 378.086791 283.542176 
L 378.24617 283.473914 
L 378.405548 284.190664 
L 378.564927 280.265607 
L 378.724306 282.688903 
L 378.883685 280.572786 
L 379.043063 280.675178 
L 379.202442 281.016488 
L 379.361821 281.733237 
L 379.5212 280.948226 
L 379.680578 283.439783 
L 379.839957 283.269129 
L 380.318093 280.777571 
L 380.79623 284.668497 
L 380.955609 283.405652 
L 381.274366 285.931341 
L 381.433745 285.351115 
L 381.593124 285.487639 
L 381.911881 286.511567 
L 382.390017 282.040415 
L 382.549396 284.395449 
L 382.868154 283.337391 
L 383.186911 282.859558 
L 383.34629 284.770889 
L 383.505669 284.42958 
L 383.665048 288.11572 
L 383.824426 287.74028 
L 383.983805 289.95879 
L 384.143184 288.081589 
L 384.302563 289.480957 
L 384.461941 287.228316 
L 384.62132 288.661815 
L 384.780699 288.695946 
L 385.099456 289.58335 
L 385.418214 287.228316 
L 385.577593 282.996081 
L 385.89635 281.357797 
L 386.055729 284.258926 
L 386.215108 282.893688 
L 386.374487 282.552379 
L 386.852623 278.388406 
L 387.012002 276.715991 
L 387.330759 280.470393 
L 387.808895 279.856036 
L 388.127653 279.071025 
L 388.287032 278.320144 
L 388.605789 283.917616 
L 388.924547 281.869761 
L 389.083926 281.699106 
L 389.243304 280.845833 
L 389.402683 283.200867 
L 389.721441 283.951747 
L 389.880819 285.316984 
L 390.199577 281.903892 
L 390.677713 284.293056 
L 390.837092 283.985878 
L 390.996471 284.395449 
L 391.15585 283.337391 
L 391.315228 283.951747 
L 391.952743 291.835991 
L 392.112122 291.665336 
L 392.271501 290.70967 
L 392.43088 290.573147 
L 392.590258 289.071386 
L 392.749637 292.211431 
L 392.909016 289.754005 
L 393.387152 279.309941 
L 393.546531 278.729716 
L 393.70591 276.374682 
L 393.865289 276.033372 
L 394.024667 276.30642 
L 394.343425 272.99572 
L 394.98094 284.736758 
L 395.140319 285.248722 
L 395.459076 292.586871 
L 395.777834 292.55274 
L 395.937212 295.488 
L 396.096591 294.839512 
L 396.415349 292.655133 
L 396.574728 292.109038 
L 396.734106 293.815585 
L 396.893485 294.054501 
L 397.052864 292.723395 
L 397.371621 292.143169 
L 397.531 289.003124 
L 397.690379 288.730077 
L 397.849758 290.812063 
L 398.009136 290.33423 
L 398.168515 293.030573 
L 398.487273 288.013327 
L 398.487273 288.013327 
" style="fill:none;stroke:#1f77b4;stroke-linecap:square;stroke-width:1.5;"/>
   </g>
   <g id="line2d_14">
    <path clip-path="url(#pad19c15238)" d="M 205.479588 53.568 
" style="fill:none;stroke:#ff7f0e;stroke-linecap:square;stroke-width:1.5;"/>
    <defs>
     <path d="M -1.5 -2.598076 
L -3 -0 
L -1.5 2.598076 
L 1.5 2.598076 
L 3 0 
L 1.5 -2.598076 
z
" id="ma250ec4d60" style="stroke:#ff7f0e;stroke-linejoin:miter;"/>
    </defs>
    <g clip-path="url(#pad19c15238)">
     <use style="fill:#ff7f0e;stroke:#ff7f0e;stroke-linejoin:miter;" x="205.479588" xlink:href="#ma250ec4d60" y="53.568"/>
    </g>
   </g>
   <g id="patch_3">
    <path d="M 57.6 307.584 
L 57.6 41.472 
" style="fill:none;stroke:#000000;stroke-linecap:square;stroke-linejoin:miter;stroke-width:0.8;"/>
   </g>
   <g id="patch_4">
    <path d="M 414.72 307.584 
L 414.72 41.472 
" style="fill:none;stroke:#000000;stroke-linecap:square;stroke-linejoin:miter;stroke-width:0.8;"/>
   </g>
   <g id="patch_5">
    <path d="M 57.6 307.584 
L 414.72 307.584 
" style="fill:none;stroke:#000000;stroke-linecap:square;stroke-linejoin:miter;stroke-width:0.8;"/>
   </g>
   <g id="patch_6">
    <path d="M 57.6 41.472 
L 414.72 41.472 
" style="fill:none;stroke:#000000;stroke-linecap:square;stroke-linejoin:miter;stroke-width:0.8;"/>
   </g>
   <g id="text_15">
    <!-- Peaks -->
    <g transform="translate(218.790937 35.472)scale(0.12 -0.12)">
     <defs>
      <path d="M 1259 4147 
L 1259 2394 
L 2053 2394 
Q 2494 2394 2734 2622 
Q 2975 2850 2975 3272 
Q 2975 3691 2734 3919 
Q 2494 4147 2053 4147 
L 1259 4147 
z
M 628 4666 
L 2053 4666 
Q 2838 4666 3239 4311 
Q 3641 3956 3641 3272 
Q 3641 2581 3239 2228 
Q 2838 1875 2053 1875 
L 1259 1875 
L 1259 0 
L 628 0 
L 628 4666 
z
" id="DejaVuSans-50" transform="scale(0.015625)"/>
      <path d="M 581 4863 
L 1159 4863 
L 1159 1991 
L 2875 3500 
L 3609 3500 
L 1753 1863 
L 3688 0 
L 2938 0 
L 1159 1709 
L 1159 0 
L 581 0 
L 581 4863 
z
" id="DejaVuSans-6b" transform="scale(0.015625)"/>
     </defs>
     <use xlink:href="#DejaVuSans-50"/>
     <use x="56.677734" xlink:href="#DejaVuSans-65"/>
     <use x="118.201172" xlink:href="#DejaVuSans-61"/>
     <use x="179.480469" xlink:href="#DejaVuSans-6b"/>
     <use x="237.390625" xlink:href="#DejaVuSans-73"/>
    </g>
   </g>
  </g>
 </g>
 <defs>
  <clipPath id="pad19c15238">
   <rect height="266.112" width="357.12" x="57.6" y="41.472"/>
  </clipPath>
 </defs>
</svg>
