<?xml version="1.0" encoding="utf-8" standalone="no"?>
<!DOCTYPE svg PUBLIC "-//W3C//DTD SVG 1.1//EN"
  "http://www.w3.org/Graphics/SVG/1.1/DTD/svg11.dtd">
<svg height="345.6pt" version="1.1" viewBox="0 0 460.8 345.6" width="460.8pt" xmlns="http://www.w3.org/2000/svg" xmlns:xlink="http://www.w3.org/1999/xlink">
 <metadata>
  <rdf:RDF xmlns:cc="http://creativecommons.org/ns#" xmlns:dc="http://purl.org/dc/elements/1.1/" xmlns:rdf="http://www.w3.org/1999/02/22-rdf-syntax-ns#">
   <cc:Work>
    <dc:type rdf:resource="http://purl.org/dc/dcmitype/StillImage"/>
    <dc:date>2022-04-22T16:06:47.685480</dc:date>
    <dc:format>image/svg+xml</dc:format>
    <dc:creator>
     <cc:Agent>
      <dc:title>Matplotlib v3.4.1, https://matplotlib.org/</dc:title>
     </cc:Agent>
    </dc:creator>
   </cc:Work>
  </rdf:RDF>
 </metadata>
 <defs>
  <style type="text/css">*{stroke-linecap:butt;stroke-linejoin:round;}</style>
 </defs>
 <g id="figure_1">
  <g id="patch_1">
   <path d="M 0 345.6 
L 460.8 345.6 
L 460.8 0 
L 0 0 
z
" style="fill:#ffffff;"/>
  </g>
  <g id="axes_1">
   <g id="patch_2">
    <path d="M 57.6 307.584 
L 414.72 307.584 
L 414.72 41.472 
L 57.6 41.472 
z
" style="fill:#ffffff;"/>
   </g>
   <g id="matplotlib.axis_1">
    <g id="xtick_1">
     <g id="line2d_1">
      <defs>
       <path d="M 0 0 
L 0 3.5 
" id="md3ddf35125" style="stroke:#000000;stroke-width:0.8;"/>
      </defs>
      <g>
       <use style="stroke:#000000;stroke-width:0.8;" x="102.929605" xlink:href="#md3ddf35125" y="307.584"/>
      </g>
     </g>
     <g id="text_1">
      <!-- 400 -->
      <g transform="translate(93.385855 322.182437)scale(0.1 -0.1)">
       <defs>
        <path d="M 2419 4116 
L 825 1625 
L 2419 1625 
L 2419 4116 
z
M 2253 4666 
L 3047 4666 
L 3047 1625 
L 3713 1625 
L 3713 1100 
L 3047 1100 
L 3047 0 
L 2419 0 
L 2419 1100 
L 313 1100 
L 313 1709 
L 2253 4666 
z
" id="DejaVuSans-34" transform="scale(0.015625)"/>
        <path d="M 2034 4250 
Q 1547 4250 1301 3770 
Q 1056 3291 1056 2328 
Q 1056 1369 1301 889 
Q 1547 409 2034 409 
Q 2525 409 2770 889 
Q 3016 1369 3016 2328 
Q 3016 3291 2770 3770 
Q 2525 4250 2034 4250 
z
M 2034 4750 
Q 2819 4750 3233 4129 
Q 3647 3509 3647 2328 
Q 3647 1150 3233 529 
Q 2819 -91 2034 -91 
Q 1250 -91 836 529 
Q 422 1150 422 2328 
Q 422 3509 836 4129 
Q 1250 4750 2034 4750 
z
" id="DejaVuSans-30" transform="scale(0.015625)"/>
       </defs>
       <use xlink:href="#DejaVuSans-34"/>
       <use x="63.623047" xlink:href="#DejaVuSans-30"/>
       <use x="127.246094" xlink:href="#DejaVuSans-30"/>
      </g>
     </g>
    </g>
    <g id="xtick_2">
     <g id="line2d_2">
      <g>
       <use style="stroke:#000000;stroke-width:0.8;" x="160.931952" xlink:href="#md3ddf35125" y="307.584"/>
      </g>
     </g>
     <g id="text_2">
      <!-- 600 -->
      <g transform="translate(151.388202 322.182437)scale(0.1 -0.1)">
       <defs>
        <path d="M 2113 2584 
Q 1688 2584 1439 2293 
Q 1191 2003 1191 1497 
Q 1191 994 1439 701 
Q 1688 409 2113 409 
Q 2538 409 2786 701 
Q 3034 994 3034 1497 
Q 3034 2003 2786 2293 
Q 2538 2584 2113 2584 
z
M 3366 4563 
L 3366 3988 
Q 3128 4100 2886 4159 
Q 2644 4219 2406 4219 
Q 1781 4219 1451 3797 
Q 1122 3375 1075 2522 
Q 1259 2794 1537 2939 
Q 1816 3084 2150 3084 
Q 2853 3084 3261 2657 
Q 3669 2231 3669 1497 
Q 3669 778 3244 343 
Q 2819 -91 2113 -91 
Q 1303 -91 875 529 
Q 447 1150 447 2328 
Q 447 3434 972 4092 
Q 1497 4750 2381 4750 
Q 2619 4750 2861 4703 
Q 3103 4656 3366 4563 
z
" id="DejaVuSans-36" transform="scale(0.015625)"/>
       </defs>
       <use xlink:href="#DejaVuSans-36"/>
       <use x="63.623047" xlink:href="#DejaVuSans-30"/>
       <use x="127.246094" xlink:href="#DejaVuSans-30"/>
      </g>
     </g>
    </g>
    <g id="xtick_3">
     <g id="line2d_3">
      <g>
       <use style="stroke:#000000;stroke-width:0.8;" x="218.9343" xlink:href="#md3ddf35125" y="307.584"/>
      </g>
     </g>
     <g id="text_3">
      <!-- 800 -->
      <g transform="translate(209.39055 322.182437)scale(0.1 -0.1)">
       <defs>
        <path d="M 2034 2216 
Q 1584 2216 1326 1975 
Q 1069 1734 1069 1313 
Q 1069 891 1326 650 
Q 1584 409 2034 409 
Q 2484 409 2743 651 
Q 3003 894 3003 1313 
Q 3003 1734 2745 1975 
Q 2488 2216 2034 2216 
z
M 1403 2484 
Q 997 2584 770 2862 
Q 544 3141 544 3541 
Q 544 4100 942 4425 
Q 1341 4750 2034 4750 
Q 2731 4750 3128 4425 
Q 3525 4100 3525 3541 
Q 3525 3141 3298 2862 
Q 3072 2584 2669 2484 
Q 3125 2378 3379 2068 
Q 3634 1759 3634 1313 
Q 3634 634 3220 271 
Q 2806 -91 2034 -91 
Q 1263 -91 848 271 
Q 434 634 434 1313 
Q 434 1759 690 2068 
Q 947 2378 1403 2484 
z
M 1172 3481 
Q 1172 3119 1398 2916 
Q 1625 2713 2034 2713 
Q 2441 2713 2670 2916 
Q 2900 3119 2900 3481 
Q 2900 3844 2670 4047 
Q 2441 4250 2034 4250 
Q 1625 4250 1398 4047 
Q 1172 3844 1172 3481 
z
" id="DejaVuSans-38" transform="scale(0.015625)"/>
       </defs>
       <use xlink:href="#DejaVuSans-38"/>
       <use x="63.623047" xlink:href="#DejaVuSans-30"/>
       <use x="127.246094" xlink:href="#DejaVuSans-30"/>
      </g>
     </g>
    </g>
    <g id="xtick_4">
     <g id="line2d_4">
      <g>
       <use style="stroke:#000000;stroke-width:0.8;" x="276.936647" xlink:href="#md3ddf35125" y="307.584"/>
      </g>
     </g>
     <g id="text_4">
      <!-- 1000 -->
      <g transform="translate(264.211647 322.182437)scale(0.1 -0.1)">
       <defs>
        <path d="M 794 531 
L 1825 531 
L 1825 4091 
L 703 3866 
L 703 4441 
L 1819 4666 
L 2450 4666 
L 2450 531 
L 3481 531 
L 3481 0 
L 794 0 
L 794 531 
z
" id="DejaVuSans-31" transform="scale(0.015625)"/>
       </defs>
       <use xlink:href="#DejaVuSans-31"/>
       <use x="63.623047" xlink:href="#DejaVuSans-30"/>
       <use x="127.246094" xlink:href="#DejaVuSans-30"/>
       <use x="190.869141" xlink:href="#DejaVuSans-30"/>
      </g>
     </g>
    </g>
    <g id="xtick_5">
     <g id="line2d_5">
      <g>
       <use style="stroke:#000000;stroke-width:0.8;" x="334.938995" xlink:href="#md3ddf35125" y="307.584"/>
      </g>
     </g>
     <g id="text_5">
      <!-- 1200 -->
      <g transform="translate(322.213995 322.182437)scale(0.1 -0.1)">
       <defs>
        <path d="M 1228 531 
L 3431 531 
L 3431 0 
L 469 0 
L 469 531 
Q 828 903 1448 1529 
Q 2069 2156 2228 2338 
Q 2531 2678 2651 2914 
Q 2772 3150 2772 3378 
Q 2772 3750 2511 3984 
Q 2250 4219 1831 4219 
Q 1534 4219 1204 4116 
Q 875 4013 500 3803 
L 500 4441 
Q 881 4594 1212 4672 
Q 1544 4750 1819 4750 
Q 2544 4750 2975 4387 
Q 3406 4025 3406 3419 
Q 3406 3131 3298 2873 
Q 3191 2616 2906 2266 
Q 2828 2175 2409 1742 
Q 1991 1309 1228 531 
z
" id="DejaVuSans-32" transform="scale(0.015625)"/>
       </defs>
       <use xlink:href="#DejaVuSans-31"/>
       <use x="63.623047" xlink:href="#DejaVuSans-32"/>
       <use x="127.246094" xlink:href="#DejaVuSans-30"/>
       <use x="190.869141" xlink:href="#DejaVuSans-30"/>
      </g>
     </g>
    </g>
    <g id="xtick_6">
     <g id="line2d_6">
      <g>
       <use style="stroke:#000000;stroke-width:0.8;" x="392.941342" xlink:href="#md3ddf35125" y="307.584"/>
      </g>
     </g>
     <g id="text_6">
      <!-- 1400 -->
      <g transform="translate(380.216342 322.182437)scale(0.1 -0.1)">
       <use xlink:href="#DejaVuSans-31"/>
       <use x="63.623047" xlink:href="#DejaVuSans-34"/>
       <use x="127.246094" xlink:href="#DejaVuSans-30"/>
       <use x="190.869141" xlink:href="#DejaVuSans-30"/>
      </g>
     </g>
    </g>
    <g id="text_7">
     <!-- Wavelength [nm] -->
     <g transform="translate(192.967812 335.860562)scale(0.1 -0.1)">
      <defs>
       <path d="M 213 4666 
L 850 4666 
L 1831 722 
L 2809 4666 
L 3519 4666 
L 4500 722 
L 5478 4666 
L 6119 4666 
L 4947 0 
L 4153 0 
L 3169 4050 
L 2175 0 
L 1381 0 
L 213 4666 
z
" id="DejaVuSans-57" transform="scale(0.015625)"/>
       <path d="M 2194 1759 
Q 1497 1759 1228 1600 
Q 959 1441 959 1056 
Q 959 750 1161 570 
Q 1363 391 1709 391 
Q 2188 391 2477 730 
Q 2766 1069 2766 1631 
L 2766 1759 
L 2194 1759 
z
M 3341 1997 
L 3341 0 
L 2766 0 
L 2766 531 
Q 2569 213 2275 61 
Q 1981 -91 1556 -91 
Q 1019 -91 701 211 
Q 384 513 384 1019 
Q 384 1609 779 1909 
Q 1175 2209 1959 2209 
L 2766 2209 
L 2766 2266 
Q 2766 2663 2505 2880 
Q 2244 3097 1772 3097 
Q 1472 3097 1187 3025 
Q 903 2953 641 2809 
L 641 3341 
Q 956 3463 1253 3523 
Q 1550 3584 1831 3584 
Q 2591 3584 2966 3190 
Q 3341 2797 3341 1997 
z
" id="DejaVuSans-61" transform="scale(0.015625)"/>
       <path d="M 191 3500 
L 800 3500 
L 1894 563 
L 2988 3500 
L 3597 3500 
L 2284 0 
L 1503 0 
L 191 3500 
z
" id="DejaVuSans-76" transform="scale(0.015625)"/>
       <path d="M 3597 1894 
L 3597 1613 
L 953 1613 
Q 991 1019 1311 708 
Q 1631 397 2203 397 
Q 2534 397 2845 478 
Q 3156 559 3463 722 
L 3463 178 
Q 3153 47 2828 -22 
Q 2503 -91 2169 -91 
Q 1331 -91 842 396 
Q 353 884 353 1716 
Q 353 2575 817 3079 
Q 1281 3584 2069 3584 
Q 2775 3584 3186 3129 
Q 3597 2675 3597 1894 
z
M 3022 2063 
Q 3016 2534 2758 2815 
Q 2500 3097 2075 3097 
Q 1594 3097 1305 2825 
Q 1016 2553 972 2059 
L 3022 2063 
z
" id="DejaVuSans-65" transform="scale(0.015625)"/>
       <path d="M 603 4863 
L 1178 4863 
L 1178 0 
L 603 0 
L 603 4863 
z
" id="DejaVuSans-6c" transform="scale(0.015625)"/>
       <path d="M 3513 2113 
L 3513 0 
L 2938 0 
L 2938 2094 
Q 2938 2591 2744 2837 
Q 2550 3084 2163 3084 
Q 1697 3084 1428 2787 
Q 1159 2491 1159 1978 
L 1159 0 
L 581 0 
L 581 3500 
L 1159 3500 
L 1159 2956 
Q 1366 3272 1645 3428 
Q 1925 3584 2291 3584 
Q 2894 3584 3203 3211 
Q 3513 2838 3513 2113 
z
" id="DejaVuSans-6e" transform="scale(0.015625)"/>
       <path d="M 2906 1791 
Q 2906 2416 2648 2759 
Q 2391 3103 1925 3103 
Q 1463 3103 1205 2759 
Q 947 2416 947 1791 
Q 947 1169 1205 825 
Q 1463 481 1925 481 
Q 2391 481 2648 825 
Q 2906 1169 2906 1791 
z
M 3481 434 
Q 3481 -459 3084 -895 
Q 2688 -1331 1869 -1331 
Q 1566 -1331 1297 -1286 
Q 1028 -1241 775 -1147 
L 775 -588 
Q 1028 -725 1275 -790 
Q 1522 -856 1778 -856 
Q 2344 -856 2625 -561 
Q 2906 -266 2906 331 
L 2906 616 
Q 2728 306 2450 153 
Q 2172 0 1784 0 
Q 1141 0 747 490 
Q 353 981 353 1791 
Q 353 2603 747 3093 
Q 1141 3584 1784 3584 
Q 2172 3584 2450 3431 
Q 2728 3278 2906 2969 
L 2906 3500 
L 3481 3500 
L 3481 434 
z
" id="DejaVuSans-67" transform="scale(0.015625)"/>
       <path d="M 1172 4494 
L 1172 3500 
L 2356 3500 
L 2356 3053 
L 1172 3053 
L 1172 1153 
Q 1172 725 1289 603 
Q 1406 481 1766 481 
L 2356 481 
L 2356 0 
L 1766 0 
Q 1100 0 847 248 
Q 594 497 594 1153 
L 594 3053 
L 172 3053 
L 172 3500 
L 594 3500 
L 594 4494 
L 1172 4494 
z
" id="DejaVuSans-74" transform="scale(0.015625)"/>
       <path d="M 3513 2113 
L 3513 0 
L 2938 0 
L 2938 2094 
Q 2938 2591 2744 2837 
Q 2550 3084 2163 3084 
Q 1697 3084 1428 2787 
Q 1159 2491 1159 1978 
L 1159 0 
L 581 0 
L 581 4863 
L 1159 4863 
L 1159 2956 
Q 1366 3272 1645 3428 
Q 1925 3584 2291 3584 
Q 2894 3584 3203 3211 
Q 3513 2838 3513 2113 
z
" id="DejaVuSans-68" transform="scale(0.015625)"/>
       <path id="DejaVuSans-20" transform="scale(0.015625)"/>
       <path d="M 550 4863 
L 1875 4863 
L 1875 4416 
L 1125 4416 
L 1125 -397 
L 1875 -397 
L 1875 -844 
L 550 -844 
L 550 4863 
z
" id="DejaVuSans-5b" transform="scale(0.015625)"/>
       <path d="M 3328 2828 
Q 3544 3216 3844 3400 
Q 4144 3584 4550 3584 
Q 5097 3584 5394 3201 
Q 5691 2819 5691 2113 
L 5691 0 
L 5113 0 
L 5113 2094 
Q 5113 2597 4934 2840 
Q 4756 3084 4391 3084 
Q 3944 3084 3684 2787 
Q 3425 2491 3425 1978 
L 3425 0 
L 2847 0 
L 2847 2094 
Q 2847 2600 2669 2842 
Q 2491 3084 2119 3084 
Q 1678 3084 1418 2786 
Q 1159 2488 1159 1978 
L 1159 0 
L 581 0 
L 581 3500 
L 1159 3500 
L 1159 2956 
Q 1356 3278 1631 3431 
Q 1906 3584 2284 3584 
Q 2666 3584 2933 3390 
Q 3200 3197 3328 2828 
z
" id="DejaVuSans-6d" transform="scale(0.015625)"/>
       <path d="M 1947 4863 
L 1947 -844 
L 622 -844 
L 622 -397 
L 1369 -397 
L 1369 4416 
L 622 4416 
L 622 4863 
L 1947 4863 
z
" id="DejaVuSans-5d" transform="scale(0.015625)"/>
      </defs>
      <use xlink:href="#DejaVuSans-57"/>
      <use x="92.501953" xlink:href="#DejaVuSans-61"/>
      <use x="153.78125" xlink:href="#DejaVuSans-76"/>
      <use x="212.960938" xlink:href="#DejaVuSans-65"/>
      <use x="274.484375" xlink:href="#DejaVuSans-6c"/>
      <use x="302.267578" xlink:href="#DejaVuSans-65"/>
      <use x="363.791016" xlink:href="#DejaVuSans-6e"/>
      <use x="427.169922" xlink:href="#DejaVuSans-67"/>
      <use x="490.646484" xlink:href="#DejaVuSans-74"/>
      <use x="529.855469" xlink:href="#DejaVuSans-68"/>
      <use x="593.234375" xlink:href="#DejaVuSans-20"/>
      <use x="625.021484" xlink:href="#DejaVuSans-5b"/>
      <use x="664.035156" xlink:href="#DejaVuSans-6e"/>
      <use x="727.414062" xlink:href="#DejaVuSans-6d"/>
      <use x="824.826172" xlink:href="#DejaVuSans-5d"/>
     </g>
    </g>
   </g>
   <g id="matplotlib.axis_2">
    <g id="ytick_1">
     <g id="line2d_7">
      <defs>
       <path d="M 0 0 
L -3.5 0 
" id="m64a6c1da38" style="stroke:#000000;stroke-width:0.8;"/>
      </defs>
      <g>
       <use style="stroke:#000000;stroke-width:0.8;" x="57.6" xlink:href="#m64a6c1da38" y="299.373964"/>
      </g>
     </g>
     <g id="text_8">
      <!-- 0 -->
      <g transform="translate(44.2375 303.173183)scale(0.1 -0.1)">
       <use xlink:href="#DejaVuSans-30"/>
      </g>
     </g>
    </g>
    <g id="ytick_2">
     <g id="line2d_8">
      <g>
       <use style="stroke:#000000;stroke-width:0.8;" x="57.6" xlink:href="#m64a6c1da38" y="261.864661"/>
      </g>
     </g>
     <g id="text_9">
      <!-- 10000 -->
      <g transform="translate(18.7875 265.66388)scale(0.1 -0.1)">
       <use xlink:href="#DejaVuSans-31"/>
       <use x="63.623047" xlink:href="#DejaVuSans-30"/>
       <use x="127.246094" xlink:href="#DejaVuSans-30"/>
       <use x="190.869141" xlink:href="#DejaVuSans-30"/>
       <use x="254.492188" xlink:href="#DejaVuSans-30"/>
      </g>
     </g>
    </g>
    <g id="ytick_3">
     <g id="line2d_9">
      <g>
       <use style="stroke:#000000;stroke-width:0.8;" x="57.6" xlink:href="#m64a6c1da38" y="224.355358"/>
      </g>
     </g>
     <g id="text_10">
      <!-- 20000 -->
      <g transform="translate(18.7875 228.154577)scale(0.1 -0.1)">
       <use xlink:href="#DejaVuSans-32"/>
       <use x="63.623047" xlink:href="#DejaVuSans-30"/>
       <use x="127.246094" xlink:href="#DejaVuSans-30"/>
       <use x="190.869141" xlink:href="#DejaVuSans-30"/>
       <use x="254.492188" xlink:href="#DejaVuSans-30"/>
      </g>
     </g>
    </g>
    <g id="ytick_4">
     <g id="line2d_10">
      <g>
       <use style="stroke:#000000;stroke-width:0.8;" x="57.6" xlink:href="#m64a6c1da38" y="186.846055"/>
      </g>
     </g>
     <g id="text_11">
      <!-- 30000 -->
      <g transform="translate(18.7875 190.645274)scale(0.1 -0.1)">
       <defs>
        <path d="M 2597 2516 
Q 3050 2419 3304 2112 
Q 3559 1806 3559 1356 
Q 3559 666 3084 287 
Q 2609 -91 1734 -91 
Q 1441 -91 1130 -33 
Q 819 25 488 141 
L 488 750 
Q 750 597 1062 519 
Q 1375 441 1716 441 
Q 2309 441 2620 675 
Q 2931 909 2931 1356 
Q 2931 1769 2642 2001 
Q 2353 2234 1838 2234 
L 1294 2234 
L 1294 2753 
L 1863 2753 
Q 2328 2753 2575 2939 
Q 2822 3125 2822 3475 
Q 2822 3834 2567 4026 
Q 2313 4219 1838 4219 
Q 1578 4219 1281 4162 
Q 984 4106 628 3988 
L 628 4550 
Q 988 4650 1302 4700 
Q 1616 4750 1894 4750 
Q 2613 4750 3031 4423 
Q 3450 4097 3450 3541 
Q 3450 3153 3228 2886 
Q 3006 2619 2597 2516 
z
" id="DejaVuSans-33" transform="scale(0.015625)"/>
       </defs>
       <use xlink:href="#DejaVuSans-33"/>
       <use x="63.623047" xlink:href="#DejaVuSans-30"/>
       <use x="127.246094" xlink:href="#DejaVuSans-30"/>
       <use x="190.869141" xlink:href="#DejaVuSans-30"/>
       <use x="254.492188" xlink:href="#DejaVuSans-30"/>
      </g>
     </g>
    </g>
    <g id="ytick_5">
     <g id="line2d_11">
      <g>
       <use style="stroke:#000000;stroke-width:0.8;" x="57.6" xlink:href="#m64a6c1da38" y="149.336752"/>
      </g>
     </g>
     <g id="text_12">
      <!-- 40000 -->
      <g transform="translate(18.7875 153.135971)scale(0.1 -0.1)">
       <use xlink:href="#DejaVuSans-34"/>
       <use x="63.623047" xlink:href="#DejaVuSans-30"/>
       <use x="127.246094" xlink:href="#DejaVuSans-30"/>
       <use x="190.869141" xlink:href="#DejaVuSans-30"/>
       <use x="254.492188" xlink:href="#DejaVuSans-30"/>
      </g>
     </g>
    </g>
    <g id="ytick_6">
     <g id="line2d_12">
      <g>
       <use style="stroke:#000000;stroke-width:0.8;" x="57.6" xlink:href="#m64a6c1da38" y="111.827449"/>
      </g>
     </g>
     <g id="text_13">
      <!-- 50000 -->
      <g transform="translate(18.7875 115.626668)scale(0.1 -0.1)">
       <defs>
        <path d="M 691 4666 
L 3169 4666 
L 3169 4134 
L 1269 4134 
L 1269 2991 
Q 1406 3038 1543 3061 
Q 1681 3084 1819 3084 
Q 2600 3084 3056 2656 
Q 3513 2228 3513 1497 
Q 3513 744 3044 326 
Q 2575 -91 1722 -91 
Q 1428 -91 1123 -41 
Q 819 9 494 109 
L 494 744 
Q 775 591 1075 516 
Q 1375 441 1709 441 
Q 2250 441 2565 725 
Q 2881 1009 2881 1497 
Q 2881 1984 2565 2268 
Q 2250 2553 1709 2553 
Q 1456 2553 1204 2497 
Q 953 2441 691 2322 
L 691 4666 
z
" id="DejaVuSans-35" transform="scale(0.015625)"/>
       </defs>
       <use xlink:href="#DejaVuSans-35"/>
       <use x="63.623047" xlink:href="#DejaVuSans-30"/>
       <use x="127.246094" xlink:href="#DejaVuSans-30"/>
       <use x="190.869141" xlink:href="#DejaVuSans-30"/>
       <use x="254.492188" xlink:href="#DejaVuSans-30"/>
      </g>
     </g>
    </g>
    <g id="ytick_7">
     <g id="line2d_13">
      <g>
       <use style="stroke:#000000;stroke-width:0.8;" x="57.6" xlink:href="#m64a6c1da38" y="74.318146"/>
      </g>
     </g>
     <g id="text_14">
      <!-- 60000 -->
      <g transform="translate(18.7875 78.117365)scale(0.1 -0.1)">
       <use xlink:href="#DejaVuSans-36"/>
       <use x="63.623047" xlink:href="#DejaVuSans-30"/>
       <use x="127.246094" xlink:href="#DejaVuSans-30"/>
       <use x="190.869141" xlink:href="#DejaVuSans-30"/>
       <use x="254.492188" xlink:href="#DejaVuSans-30"/>
      </g>
     </g>
    </g>
    <g id="text_15">
     <!-- Counts -->
     <g transform="translate(12.707812 191.981125)rotate(-90)scale(0.1 -0.1)">
      <defs>
       <path d="M 4122 4306 
L 4122 3641 
Q 3803 3938 3442 4084 
Q 3081 4231 2675 4231 
Q 1875 4231 1450 3742 
Q 1025 3253 1025 2328 
Q 1025 1406 1450 917 
Q 1875 428 2675 428 
Q 3081 428 3442 575 
Q 3803 722 4122 1019 
L 4122 359 
Q 3791 134 3420 21 
Q 3050 -91 2638 -91 
Q 1578 -91 968 557 
Q 359 1206 359 2328 
Q 359 3453 968 4101 
Q 1578 4750 2638 4750 
Q 3056 4750 3426 4639 
Q 3797 4528 4122 4306 
z
" id="DejaVuSans-43" transform="scale(0.015625)"/>
       <path d="M 1959 3097 
Q 1497 3097 1228 2736 
Q 959 2375 959 1747 
Q 959 1119 1226 758 
Q 1494 397 1959 397 
Q 2419 397 2687 759 
Q 2956 1122 2956 1747 
Q 2956 2369 2687 2733 
Q 2419 3097 1959 3097 
z
M 1959 3584 
Q 2709 3584 3137 3096 
Q 3566 2609 3566 1747 
Q 3566 888 3137 398 
Q 2709 -91 1959 -91 
Q 1206 -91 779 398 
Q 353 888 353 1747 
Q 353 2609 779 3096 
Q 1206 3584 1959 3584 
z
" id="DejaVuSans-6f" transform="scale(0.015625)"/>
       <path d="M 544 1381 
L 544 3500 
L 1119 3500 
L 1119 1403 
Q 1119 906 1312 657 
Q 1506 409 1894 409 
Q 2359 409 2629 706 
Q 2900 1003 2900 1516 
L 2900 3500 
L 3475 3500 
L 3475 0 
L 2900 0 
L 2900 538 
Q 2691 219 2414 64 
Q 2138 -91 1772 -91 
Q 1169 -91 856 284 
Q 544 659 544 1381 
z
M 1991 3584 
L 1991 3584 
z
" id="DejaVuSans-75" transform="scale(0.015625)"/>
       <path d="M 2834 3397 
L 2834 2853 
Q 2591 2978 2328 3040 
Q 2066 3103 1784 3103 
Q 1356 3103 1142 2972 
Q 928 2841 928 2578 
Q 928 2378 1081 2264 
Q 1234 2150 1697 2047 
L 1894 2003 
Q 2506 1872 2764 1633 
Q 3022 1394 3022 966 
Q 3022 478 2636 193 
Q 2250 -91 1575 -91 
Q 1294 -91 989 -36 
Q 684 19 347 128 
L 347 722 
Q 666 556 975 473 
Q 1284 391 1588 391 
Q 1994 391 2212 530 
Q 2431 669 2431 922 
Q 2431 1156 2273 1281 
Q 2116 1406 1581 1522 
L 1381 1569 
Q 847 1681 609 1914 
Q 372 2147 372 2553 
Q 372 3047 722 3315 
Q 1072 3584 1716 3584 
Q 2034 3584 2315 3537 
Q 2597 3491 2834 3397 
z
" id="DejaVuSans-73" transform="scale(0.015625)"/>
      </defs>
      <use xlink:href="#DejaVuSans-43"/>
      <use x="69.824219" xlink:href="#DejaVuSans-6f"/>
      <use x="131.005859" xlink:href="#DejaVuSans-75"/>
      <use x="194.384766" xlink:href="#DejaVuSans-6e"/>
      <use x="257.763672" xlink:href="#DejaVuSans-74"/>
      <use x="296.972656" xlink:href="#DejaVuSans-73"/>
     </g>
    </g>
   </g>
   <g id="line2d_14">
    <path clip-path="url(#p2aa9c0b235)" d="M 73.832727 290.881858 
L 73.991327 291.917114 
L 74.149928 291.061902 
L 74.308528 288.121173 
L 74.467128 291.331969 
L 74.625728 289.921619 
L 74.784328 293.147419 
L 74.942928 292.112163 
L 75.101529 293.357472 
L 75.260129 292.187181 
L 75.418729 289.996638 
L 75.577329 291.632044 
L 75.894529 287.896117 
L 76.21173 289.381485 
L 76.37033 287.491017 
L 76.52893 290.641798 
L 76.68753 290.716817 
L 76.84613 292.967375 
L 77.163331 290.701813 
L 77.321931 291.181932 
L 77.480531 290.356727 
L 77.639131 285.210451 
L 77.797731 291.872103 
L 77.956332 285.090421 
L 78.114932 291.767077 
L 78.273532 287.581039 
L 78.432132 293.942617 
L 78.590732 293.402483 
L 78.749333 289.981634 
L 78.907933 293.282453 
L 79.066533 290.791835 
L 79.225133 290.581783 
L 79.383733 291.421992 
L 79.542333 292.982379 
L 79.700934 293.417486 
L 79.859534 292.712312 
L 80.018134 290.056653 
L 80.176734 292.757323 
L 80.335334 290.701813 
L 80.811135 293.192431 
L 80.969735 288.286214 
L 81.128335 291.106913 
L 81.286935 290.776832 
L 81.445535 292.007137 
L 81.604136 291.707062 
L 81.762736 291.677055 
L 81.921336 286.470764 
L 82.079936 291.752073 
L 82.397136 291.662051 
L 82.714337 292.6673 
L 82.872937 290.97188 
L 83.031537 293.31246 
L 83.190137 292.877353 
L 83.348737 289.846601 
L 83.507338 292.697308 
L 83.665938 290.881858 
L 83.824538 292.622289 
L 84.141738 288.811344 
L 84.300338 291.677055 
L 84.458939 288.946378 
L 84.776139 293.55252 
L 84.934739 292.02214 
L 85.251939 288.466258 
L 85.41054 293.057397 
L 85.56914 291.887107 
L 85.72774 292.232193 
L 85.88634 290.761828 
L 86.04494 291.887107 
L 86.20354 293.987628 
L 86.362141 288.106169 
L 86.679341 292.772326 
L 86.996541 289.066407 
L 87.155141 290.746824 
L 87.313742 290.776832 
L 87.472342 289.126422 
L 87.789542 293.357472 
L 87.948142 287.10092 
L 88.106742 291.797085 
L 88.265343 291.842096 
L 88.423943 292.937367 
L 88.899743 291.947122 
L 89.058343 292.817338 
L 89.216944 292.247196 
L 89.375544 289.621545 
L 89.534144 293.747568 
L 89.692744 291.827092 
L 89.851344 293.627539 
L 90.009944 289.966631 
L 90.327145 293.402483 
L 90.485745 288.136177 
L 90.644345 293.522513 
L 90.802945 292.78733 
L 90.961545 291.49701 
L 91.120146 292.622289 
L 91.437346 291.827092 
L 91.595946 294.122661 
L 91.754546 291.301962 
L 91.913147 292.127166 
L 92.071747 289.471508 
L 92.230347 293.147419 
L 92.388947 293.087405 
L 92.547547 288.421247 
L 92.864748 292.922364 
L 93.023348 292.682304 
L 93.181948 293.927613 
L 93.340548 290.746824 
L 93.657748 293.717561 
L 93.816349 291.316966 
L 93.974949 290.746824 
L 94.133549 291.031895 
L 94.292149 291.932118 
L 94.76795 291.977129 
L 94.92655 291.647047 
L 95.08515 287.280965 
L 95.24375 290.536772 
L 95.56095 291.542021 
L 95.719551 289.606541 
L 95.878151 292.38223 
L 96.036751 292.502259 
L 96.195351 291.512014 
L 96.353951 287.716072 
L 96.512551 290.866854 
L 96.671152 291.49701 
L 96.829752 289.741575 
L 96.988352 293.042393 
L 97.146952 292.247196 
L 97.305552 290.071657 
L 97.464152 290.746824 
L 97.622753 292.487256 
L 97.781353 289.906616 
L 97.939953 290.626794 
L 98.098553 292.622289 
L 98.257153 290.026645 
L 98.415753 290.821843 
L 98.574354 290.611791 
L 98.732954 287.025901 
L 98.891554 287.265961 
L 99.050154 288.616296 
L 99.208754 288.436251 
L 99.367354 289.336474 
L 99.525955 288.616296 
L 99.684555 285.615551 
L 99.843155 291.181932 
L 100.001755 291.166928 
L 100.318955 294.19768 
L 100.477556 291.902111 
L 100.636156 292.172178 
L 100.794756 290.776832 
L 100.953356 287.476013 
L 101.111956 292.832341 
L 101.270556 289.861605 
L 101.429157 294.032639 
L 101.587757 292.052148 
L 101.746357 293.522513 
L 101.904957 287.415998 
L 102.063557 291.962126 
L 102.222157 292.157174 
L 102.380758 292.90736 
L 102.539358 292.997382 
L 102.697958 291.752073 
L 102.856558 288.886363 
L 103.173758 293.162423 
L 103.490959 287.50602 
L 103.649559 291.947122 
L 103.808159 292.247196 
L 103.966759 291.812088 
L 104.12536 292.247196 
L 104.28396 288.91637 
L 104.60116 290.746824 
L 104.75976 291.286958 
L 104.91836 292.862349 
L 105.076961 290.941872 
L 105.235561 292.427241 
L 105.394161 287.566035 
L 105.552761 290.866854 
L 105.711361 291.241947 
L 105.869961 291.076906 
L 106.028562 293.762572 
L 106.187162 292.02214 
L 106.345762 292.427241 
L 106.504362 293.222438 
L 106.662962 292.6673 
L 106.980163 289.906616 
L 107.138763 292.487256 
L 107.297363 290.476757 
L 107.455963 291.241947 
L 107.614563 293.177427 
L 107.931764 290.116668 
L 108.090364 291.872103 
L 108.248964 290.881858 
L 108.407564 290.611791 
L 108.566164 293.972624 
L 108.724764 289.636549 
L 108.883365 290.791835 
L 109.200565 276.988412 
L 109.517765 253.027469 
L 109.834966 239.074008 
L 110.310766 251.452078 
L 110.786567 280.904383 
L 110.945167 287.22095 
L 111.103767 285.000399 
L 111.420967 288.376236 
L 111.579567 289.471508 
L 111.738168 286.020652 
L 111.896768 290.926869 
L 112.055368 285.210451 
L 112.213968 284.970391 
L 112.531168 289.051404 
L 112.689769 287.836102 
L 112.848369 287.851106 
L 113.006969 288.421247 
L 113.165569 287.491017 
L 113.324169 287.62605 
L 113.482769 286.965886 
L 113.64137 283.935135 
L 113.79997 284.475269 
L 113.95857 285.675566 
L 114.11717 285.675566 
L 114.27577 287.130927 
L 114.43437 283.455016 
L 114.592971 285.975641 
L 114.751571 285.390496 
L 114.910171 285.855611 
L 115.227371 282.554792 
L 115.385971 283.470019 
L 115.544572 285.225455 
L 115.703172 283.695075 
L 115.861772 280.874376 
L 116.178972 283.455016 
L 116.337573 275.533051 
L 116.654773 278.863877 
L 116.813373 269.56157 
L 116.971973 281.534539 
L 117.130573 273.822627 
L 117.289174 275.383014 
L 117.447774 249.756658 
L 118.082174 53.568 
L 118.716575 53.568 
L 118.875175 87.776484 
L 119.350976 271.752113 
L 119.668176 278.428769 
L 119.826776 277.813616 
L 119.985376 279.23897 
L 120.302577 274.257735 
L 120.461177 278.413765 
L 120.619777 279.193959 
L 120.778377 278.59381 
L 120.936977 267.701108 
L 121.095578 275.398017 
L 121.412778 277.093438 
L 121.571378 276.988412 
L 121.729978 275.938151 
L 121.888578 278.773855 
L 122.047179 276.763356 
L 122.205779 278.548799 
L 122.522979 277.06343 
L 122.681579 274.60282 
L 122.840179 278.47378 
L 122.99878 277.288486 
L 123.15738 278.59381 
L 123.31598 277.18346 
L 123.47458 277.033423 
L 123.63318 279.794108 
L 123.950381 275.803118 
L 124.108981 277.963654 
L 124.267581 276.373259 
L 124.426181 277.378509 
L 124.584781 279.163951 
L 124.743381 276.358256 
L 124.901982 278.788858 
L 125.060582 278.293736 
L 125.219182 275.578062 
L 125.377782 278.533795 
L 125.536382 278.443773 
L 125.694982 280.019163 
L 125.853583 271.542061 
L 126.012183 278.113691 
L 126.170783 277.888635 
L 126.329383 275.863133 
L 126.487983 277.153453 
L 126.646583 274.527802 
L 126.805184 276.358256 
L 126.963784 275.953155 
L 127.122384 276.358256 
L 127.598184 280.454271 
L 127.756785 279.268977 
L 127.915385 279.133944 
L 128.073985 279.539044 
L 128.232585 278.698836 
L 128.391185 274.512798 
L 128.708386 278.323743 
L 128.866986 278.158702 
L 129.025586 280.844368 
L 129.184186 279.148948 
L 129.342786 279.674078 
L 129.501387 280.964398 
L 129.659987 279.103936 
L 129.818587 279.043922 
L 129.977187 275.353006 
L 130.135787 276.268233 
L 130.611588 263.094966 
L 130.928788 243.230039 
L 131.563189 174.9331 
L 132.197589 102.84022 
L 132.35619 96.238583 
L 132.51479 100.559655 
L 132.67339 94.723207 
L 132.83199 97.003773 
L 133.942191 150.822121 
L 134.735192 184.415452 
L 134.893792 188.616494 
L 135.369593 217.138568 
L 135.528193 219.974271 
L 135.845393 242.779928 
L 136.955594 279.013914 
L 137.114195 279.313989 
L 137.272795 282.794852 
L 137.589995 281.984651 
L 137.748595 283.920131 
L 137.907195 282.959893 
L 138.224396 286.33573 
L 138.382996 283.545038 
L 138.541596 285.075418 
L 138.700196 283.905127 
L 138.858796 286.275715 
L 139.017397 286.890868 
L 139.175997 283.334986 
L 139.334597 283.830109 
L 139.493197 285.960637 
L 139.651797 284.730332 
L 139.810397 284.625306 
L 139.968998 286.86086 
L 140.127598 287.205946 
L 140.286198 285.090421 
L 140.603398 287.340979 
L 140.761998 287.581039 
L 140.920599 288.076162 
L 141.079199 286.695819 
L 141.237799 287.370987 
L 141.396399 287.415998 
L 141.7136 289.426497 
L 141.8722 287.50602 
L 142.1894 290.656802 
L 142.5066 286.755834 
L 142.665201 288.436251 
L 142.823801 287.731076 
L 143.141001 289.426497 
L 143.299601 285.420503 
L 143.458201 288.241203 
L 143.775402 286.905871 
L 143.934002 288.27121 
L 144.092602 284.670317 
L 144.251202 285.345484 
L 144.568403 273.672589 
L 144.727003 273.342508 
L 144.885603 272.337258 
L 145.202803 262.46481 
L 145.361403 260.754386 
L 145.837204 241.354574 
L 146.313004 176.298439 
L 146.788805 53.568 
L 150.595209 53.568 
L 150.753809 187.116122 
L 151.22961 245.510605 
L 151.70541 267.851146 
L 151.86401 271.106953 
L 152.02261 269.141466 
L 152.339811 274.422775 
L 152.498411 276.313244 
L 152.815611 275.12795 
L 152.974211 275.307995 
L 153.132812 276.103192 
L 153.291412 279.208963 
L 153.450012 279.374003 
L 153.608612 281.039417 
L 153.767212 277.348501 
L 154.084413 281.05442 
L 154.243013 281.879625 
L 154.401613 279.283981 
L 154.560213 281.219461 
L 154.718813 281.789603 
L 154.877414 282.959893 
L 155.036014 282.674822 
L 155.194614 280.679327 
L 155.353214 280.499283 
L 155.511814 281.204457 
L 155.670414 278.488784 
L 155.829015 277.918643 
L 155.987615 273.177467 
L 156.304815 251.49709 
L 157.097816 162.615045 
L 157.415016 129.216762 
L 158.366617 77.183857 
L 158.525217 77.588958 
L 159.159618 53.568 
L 160.111219 53.568 
L 160.269819 54.33319 
L 160.74562 98.399119 
L 160.90422 102.765202 
L 161.06282 102.390109 
L 161.22142 100.319595 
L 161.38002 104.475626 
L 161.697221 123.140255 
L 162.490222 193.582726 
L 162.648822 190.476956 
L 162.807422 180.5745 
L 163.124622 177.708789 
L 163.283222 172.607524 
L 164.076223 224.355358 
L 164.393424 231.812207 
L 164.552024 231.617159 
L 164.869224 219.779223 
L 165.027824 208.796499 
L 165.345025 153.792857 
L 165.662225 53.568 
L 169.151429 53.568 
L 169.310029 133.64286 
L 169.468629 131.58735 
L 169.94443 156.10343 
L 170.42023 172.967613 
L 170.73743 180.184403 
L 170.896031 180.154395 
L 171.213231 167.341218 
L 171.689031 137.558831 
L 171.847632 137.543827 
L 172.006232 140.334519 
L 172.323432 175.473234 
L 173.116433 261.834653 
L 173.433633 271.271994 
L 173.592233 273.042433 
L 173.750834 271.016931 
L 173.909434 274.032679 
L 174.068034 273.267489 
L 174.226634 275.803118 
L 174.385234 275.728099 
L 174.543834 275.157958 
L 174.861035 276.988412 
L 175.019635 276.928397 
L 175.336835 273.447534 
L 175.495435 274.512798 
L 175.971236 273.627578 
L 176.129836 275.458032 
L 176.288436 273.987668 
L 176.447036 274.84288 
L 177.240037 252.367305 
L 177.398637 250.356807 
L 177.557238 251.01697 
L 177.715838 250.956956 
L 177.874438 254.557849 
L 178.191638 266.380781 
L 178.508839 272.982418 
L 178.667439 273.3125 
L 178.826039 275.728099 
L 178.984639 276.073185 
L 179.143239 277.273483 
L 179.301839 280.12419 
L 179.46044 278.803862 
L 179.61904 279.313989 
L 179.93624 281.009409 
L 180.412041 270.701853 
L 180.729241 266.425792 
L 180.887841 269.081451 
L 181.046441 268.841391 
L 181.205042 270.476797 
L 181.363642 269.891652 
L 181.522242 276.868382 
L 181.680842 275.833125 
L 181.839442 277.603564 
L 181.998042 278.098687 
L 182.156643 277.393512 
L 182.315243 277.70859 
L 182.473843 276.883386 
L 182.632443 274.692842 
L 182.791043 280.64932 
L 182.949643 278.533795 
L 183.108244 281.57955 
L 183.266844 279.899134 
L 183.584044 284.325231 
L 183.742644 283.004904 
L 183.901244 284.790347 
L 184.059845 280.694331 
L 184.377045 282.629811 
L 184.535645 282.719833 
L 184.694245 282.494777 
L 184.852845 280.12419 
L 185.011446 282.269722 
L 185.170046 282.884874 
L 185.487246 280.109186 
L 185.645846 281.789603 
L 185.804446 278.383758 
L 186.121647 283.980146 
L 186.280247 283.019908 
L 186.438847 283.905127 
L 186.597447 281.549543 
L 186.756047 281.459521 
L 186.914648 280.994405 
L 187.073248 279.374003 
L 187.231848 274.48279 
L 187.390448 274.07769 
L 187.549048 273.987668 
L 187.707648 274.887891 
L 187.866249 271.722106 
L 188.024849 274.827876 
L 188.183449 274.122701 
L 188.342049 280.12419 
L 188.500649 280.259223 
L 188.659249 282.074673 
L 188.81785 278.053676 
L 188.97645 280.754346 
L 189.13505 280.229216 
L 189.29365 278.263728 
L 189.45225 277.768605 
L 189.61085 281.834614 
L 189.769451 279.058925 
L 190.245251 286.110674 
L 190.562451 288.856355 
L 190.721052 288.016147 
L 190.879652 290.626794 
L 191.355452 285.765589 
L 191.514052 286.45576 
L 191.672653 285.375492 
L 191.831253 285.885618 
L 192.307053 275.533051 
L 193.417255 228.646422 
L 193.893055 232.667419 
L 194.844656 255.848169 
L 195.479057 279.674078 
L 195.796257 288.661307 
L 195.954857 288.841352 
L 196.272058 291.857099 
L 196.430658 286.875864 
L 196.747858 291.887107 
L 196.906458 289.56153 
L 197.065058 291.662051 
L 197.382259 288.646303 
L 197.540859 290.791835 
L 197.699459 289.756579 
L 197.858059 291.301962 
L 198.016659 289.381485 
L 198.17526 293.147419 
L 198.33386 283.860116 
L 198.49246 292.217189 
L 198.65106 289.531523 
L 198.80966 289.68156 
L 198.96826 291.797085 
L 199.126861 290.476757 
L 199.285461 290.956876 
L 199.602661 288.301218 
L 199.761261 289.321471 
L 199.919861 291.797085 
L 200.395662 290.266705 
L 200.554262 289.56153 
L 200.712862 292.502259 
L 200.871462 289.471508 
L 201.030063 289.68156 
L 201.188663 291.542021 
L 201.347263 287.956132 
L 201.505863 291.782081 
L 201.823063 292.412237 
L 201.981664 292.427241 
L 202.140264 292.772326 
L 202.298864 290.506765 
L 202.457464 290.686809 
L 202.616064 291.196936 
L 202.933265 290.626794 
L 203.091865 288.841352 
L 203.250465 285.210451 
L 203.409065 290.236698 
L 203.567665 288.946378 
L 203.726265 292.202185 
L 203.884866 292.772326 
L 204.202066 290.686809 
L 204.360666 291.181932 
L 204.519266 292.817338 
L 204.677867 291.572029 
L 204.836467 292.217189 
L 204.995067 291.001887 
L 205.153667 292.727315 
L 205.312267 292.637293 
L 205.470867 292.2622 
L 205.629468 293.012386 
L 205.788068 292.577278 
L 205.946668 288.811344 
L 206.263868 294.84284 
L 206.422468 290.08666 
L 206.739669 294.062646 
L 206.898269 293.417486 
L 207.056869 290.671806 
L 207.215469 290.551776 
L 207.374069 289.711567 
L 207.53267 292.727315 
L 207.69127 286.620801 
L 207.84987 290.581783 
L 208.00847 287.941128 
L 208.32567 291.286958 
L 208.484271 289.096415 
L 208.801471 291.271954 
L 208.960071 290.491761 
L 209.118671 291.947122 
L 209.277271 290.20669 
L 209.435872 292.277204 
L 209.594472 291.37698 
L 209.753072 292.682304 
L 209.911672 290.836846 
L 210.070272 291.241947 
L 210.228872 293.762572 
L 210.704673 290.85185 
L 210.863273 291.722066 
L 211.021873 291.436995 
L 211.180473 290.32672 
L 211.339074 290.941872 
L 211.497674 293.222438 
L 211.656274 293.627539 
L 211.814874 290.056653 
L 211.973474 292.622289 
L 212.132074 292.532267 
L 212.290675 291.226943 
L 212.449275 292.817338 
L 212.766475 290.926869 
L 212.925075 292.742319 
L 213.083675 290.746824 
L 213.242276 292.442245 
L 213.400876 291.121917 
L 213.559476 290.881858 
L 213.718076 293.387479 
L 213.876676 292.802334 
L 214.035276 291.226943 
L 214.352477 291.692059 
L 214.511077 291.001887 
L 214.669677 293.837591 
L 214.828277 291.932118 
L 214.986877 293.972624 
L 215.462678 291.587032 
L 215.621278 289.501515 
L 215.779878 292.202185 
L 215.938478 292.397233 
L 216.255679 291.917114 
L 216.414279 292.637293 
L 216.572879 294.947866 
L 216.731479 288.226199 
L 216.890079 293.95762 
L 217.04868 291.346973 
L 217.52448 292.637293 
L 217.68308 292.2622 
L 217.841681 289.366482 
L 218.000281 292.877353 
L 218.158881 293.462498 
L 218.317481 291.316966 
L 218.634681 292.847345 
L 218.793282 293.31246 
L 218.951882 291.512014 
L 219.110482 291.962126 
L 219.269082 294.092654 
L 219.427682 290.431746 
L 219.586282 293.582527 
L 219.744883 290.506765 
L 220.062083 294.587777 
L 220.379283 290.296712 
L 220.537883 289.981634 
L 220.855084 293.927613 
L 221.013684 291.61704 
L 221.172284 292.127166 
L 221.330884 290.356727 
L 221.489484 291.016891 
L 221.648085 292.307211 
L 221.806685 292.232193 
L 221.965285 292.78733 
L 222.282485 289.846601 
L 222.441085 284.250213 
L 222.599686 290.401739 
L 222.758286 291.136921 
L 222.916886 286.125678 
L 223.075486 290.341724 
L 223.234086 290.491761 
L 223.392686 289.891612 
L 223.551287 291.467003 
L 223.709887 290.85185 
L 223.868487 290.881858 
L 224.027087 293.117412 
L 224.185687 290.506765 
L 224.344287 290.536772 
L 224.502888 291.677055 
L 224.661488 293.972624 
L 224.820088 291.752073 
L 224.978688 293.642542 
L 225.137288 290.626794 
L 225.295888 293.612535 
L 225.613089 291.391984 
L 225.771689 291.902111 
L 225.930289 293.372475 
L 226.088889 293.43249 
L 226.247489 293.67255 
L 226.40609 294.257695 
L 226.56469 289.531523 
L 226.88189 293.43249 
L 227.04049 293.702557 
L 227.19909 292.847345 
L 227.357691 291.076906 
L 227.516291 291.37698 
L 227.674891 292.202185 
L 227.833491 290.386735 
L 227.992091 291.992133 
L 228.150691 290.896861 
L 228.309292 288.856355 
L 228.626492 294.07765 
L 228.943692 290.176683 
L 229.102292 290.341724 
L 229.260893 294.017635 
L 229.419493 291.992133 
L 229.578093 291.467003 
L 229.736693 293.31246 
L 229.895293 293.267449 
L 230.053894 289.021396 
L 230.212494 292.577278 
L 230.371094 290.506765 
L 230.529694 291.016891 
L 230.846894 294.932862 
L 231.005495 292.892356 
L 231.164095 294.797829 
L 231.322695 292.442245 
L 231.481295 292.922364 
L 231.639895 292.622289 
L 231.798495 293.237442 
L 231.957096 292.112163 
L 232.115696 289.996638 
L 232.432896 294.362721 
L 232.591496 294.227687 
L 232.750096 288.301218 
L 232.908697 292.817338 
L 233.067297 290.596787 
L 233.384497 293.79258 
L 233.543097 294.992877 
L 233.701697 290.716817 
L 233.860298 294.467747 
L 234.177498 292.607286 
L 234.336098 288.946378 
L 234.653298 293.987628 
L 234.811899 293.297457 
L 234.970499 293.417486 
L 235.129099 292.427241 
L 235.287699 293.67255 
L 235.446299 292.622289 
L 235.604899 293.822587 
L 235.7635 291.527018 
L 236.0807 293.207434 
L 236.2393 288.781337 
L 236.5565 293.342468 
L 236.715101 292.517263 
L 236.873701 292.367226 
L 237.032301 293.987628 
L 237.190901 291.151925 
L 237.349501 292.832341 
L 237.508101 291.316966 
L 237.666702 290.941872 
L 237.825302 291.767077 
L 237.983902 269.831637 
L 238.142502 294.617784 
L 238.301102 293.43249 
L 238.459702 294.557769 
L 238.618303 291.256951 
L 238.776903 293.342468 
L 238.935503 291.196936 
L 239.094103 293.207434 
L 239.252703 292.112163 
L 239.411303 293.95762 
L 239.569904 292.847345 
L 239.887104 293.462498 
L 240.045704 294.452743 
L 240.204304 289.921619 
L 240.362904 292.307211 
L 240.680105 289.936623 
L 240.838705 293.102408 
L 240.997305 291.331969 
L 241.155905 293.687553 
L 241.314505 292.592282 
L 241.473106 293.477501 
L 241.631706 290.311716 
L 241.790306 292.02214 
L 241.948906 292.38223 
L 242.107506 293.297457 
L 242.424707 289.216445 
L 242.583307 293.912609 
L 242.741907 288.631299 
L 242.900507 293.31246 
L 243.059107 290.746824 
L 243.217708 294.43774 
L 243.376308 293.597531 
L 243.534908 290.581783 
L 243.693508 293.897606 
L 243.852108 292.232193 
L 244.010708 292.217189 
L 244.169309 290.461753 
L 244.327909 292.90736 
L 244.486509 292.832341 
L 244.645109 292.292207 
L 244.803709 293.582527 
L 245.27951 292.652297 
L 245.59671 289.456504 
L 245.75531 292.427241 
L 245.91391 291.902111 
L 246.072511 292.802334 
L 246.231111 289.366482 
L 246.389711 293.702557 
L 246.865511 290.656802 
L 247.024112 293.237442 
L 247.341312 292.112163 
L 247.499912 292.742319 
L 247.658512 291.917114 
L 247.817112 294.212684 
L 247.975713 291.857099 
L 248.134313 294.782825 
L 248.292913 290.926869 
L 248.451513 292.457248 
L 248.610113 292.232193 
L 248.768713 292.727315 
L 248.927314 292.112163 
L 249.085914 292.892356 
L 249.244514 292.352222 
L 249.403114 292.472252 
L 249.561714 290.251701 
L 249.720314 291.271954 
L 249.878915 294.362721 
L 250.037515 294.07765 
L 250.196115 288.766333 
L 250.354715 292.217189 
L 250.513315 292.757323 
L 250.671915 294.512758 
L 250.989116 290.581783 
L 251.147716 291.722066 
L 251.306316 291.467003 
L 251.464916 291.647047 
L 251.623516 291.61704 
L 251.782117 292.802334 
L 251.940717 290.881858 
L 252.099317 294.332713 
L 252.416517 289.366482 
L 252.575117 294.257695 
L 252.733718 290.881858 
L 253.050918 293.087405 
L 253.209518 290.836846 
L 253.526718 293.282453 
L 253.685319 291.331969 
L 254.002519 294.407732 
L 254.161119 291.797085 
L 254.319719 291.37698 
L 254.478319 293.297457 
L 254.63692 290.776832 
L 254.95412 293.207434 
L 255.11272 292.78733 
L 255.27132 293.162423 
L 255.429921 294.002632 
L 255.747121 290.011642 
L 255.905721 294.647792 
L 256.064321 292.457248 
L 256.381522 292.007137 
L 256.540122 295.052892 
L 256.857322 290.08666 
L 257.015922 290.176683 
L 257.333123 294.43774 
L 257.491723 292.607286 
L 257.650323 292.487256 
L 257.808923 291.451999 
L 257.967523 294.07765 
L 258.126123 292.712312 
L 258.284724 289.186437 
L 258.443324 293.072401 
L 258.919124 292.472252 
L 259.077724 295.488 
L 259.236325 292.78733 
L 259.394925 293.657546 
L 259.553525 291.767077 
L 259.712125 291.271954 
L 260.029325 293.897606 
L 260.346526 292.202185 
L 260.505126 292.337219 
L 260.663726 286.440756 
L 260.822326 294.167673 
L 260.980926 292.38223 
L 261.139527 291.902111 
L 261.298127 292.637293 
L 261.456727 292.02214 
L 261.615327 293.447494 
L 261.773927 289.846601 
L 261.932527 293.117412 
L 262.091128 293.912609 
L 262.249728 293.447494 
L 262.408328 291.256951 
L 262.566928 293.747568 
L 262.725528 294.07765 
L 262.884128 293.762572 
L 263.042729 286.890868 
L 263.201329 294.512758 
L 263.518529 290.401739 
L 263.677129 291.602036 
L 263.835729 289.80159 
L 264.31153 294.19768 
L 264.47013 293.492505 
L 264.62873 294.887851 
L 264.945931 292.292207 
L 265.104531 293.162423 
L 265.263131 292.592282 
L 265.421731 288.766333 
L 265.580331 292.352222 
L 265.738931 292.742319 
L 265.897532 292.817338 
L 266.056132 290.536772 
L 266.214732 293.057397 
L 266.373332 293.402483 
L 266.531932 290.986884 
L 266.690532 293.972624 
L 266.849133 287.130927 
L 267.007733 293.927613 
L 267.166333 289.816593 
L 267.324933 294.332713 
L 267.483533 293.102408 
L 267.642133 293.267449 
L 267.959334 290.596787 
L 268.117934 290.131672 
L 268.276534 288.016147 
L 268.593735 293.642542 
L 268.752335 291.977129 
L 268.910935 293.897606 
L 269.069535 292.172178 
L 269.228135 292.487256 
L 269.386735 289.231448 
L 269.545336 293.147419 
L 269.862536 290.641798 
L 270.021136 291.436995 
L 270.179736 289.501515 
L 270.338336 293.087405 
L 270.496937 292.802334 
L 270.655537 292.847345 
L 270.814137 293.207434 
L 271.131337 292.277204 
L 271.448538 294.167673 
L 271.607138 291.61704 
L 271.765738 294.122661 
L 271.924338 291.106913 
L 272.082938 291.436995 
L 272.241538 293.642542 
L 272.400139 292.397233 
L 272.717339 293.327464 
L 273.034539 293.087405 
L 273.193139 292.577278 
L 273.35174 292.847345 
L 273.51034 290.85185 
L 273.66894 293.327464 
L 273.82754 290.926869 
L 273.98614 290.986884 
L 274.14474 293.95762 
L 274.303341 294.72281 
L 274.461941 291.49701 
L 274.620541 292.967375 
L 274.779141 293.147419 
L 274.937741 290.431746 
L 275.254942 293.942617 
L 275.413542 290.566779 
L 275.572142 293.252446 
L 275.730742 290.461753 
L 275.889342 294.152669 
L 276.047942 291.73707 
L 276.206543 292.952371 
L 276.365143 291.752073 
L 276.682343 293.852594 
L 276.999543 292.367226 
L 277.316744 292.862349 
L 277.475344 291.902111 
L 277.633944 289.096415 
L 277.792544 292.172178 
L 278.109745 294.182676 
L 278.268345 288.751329 
L 278.426945 290.116668 
L 278.585545 294.572773 
L 278.744145 293.072401 
L 278.902745 293.717561 
L 279.061346 289.126422 
L 279.219946 292.952371 
L 279.378546 293.612535 
L 279.537146 289.756579 
L 279.695746 292.727315 
L 279.854346 293.162423 
L 280.171547 291.602036 
L 280.330147 289.351478 
L 280.647347 293.582527 
L 280.805948 293.657546 
L 280.964548 289.171433 
L 281.281748 291.842096 
L 281.440348 289.951627 
L 281.598948 289.696564 
L 281.757549 289.846601 
L 281.916149 292.322215 
L 282.074749 290.566779 
L 282.550549 293.657546 
L 282.70915 290.821843 
L 282.86775 293.132416 
L 283.02635 292.6673 
L 283.18495 293.897606 
L 283.50215 291.316966 
L 283.660751 293.807583 
L 283.977951 291.151925 
L 284.136551 294.092654 
L 284.295151 289.021396 
L 284.453751 293.297457 
L 284.612352 293.747568 
L 284.929552 291.632044 
L 285.246752 294.407732 
L 285.405352 294.347717 
L 285.563953 292.367226 
L 285.722553 294.137665 
L 285.881153 293.687553 
L 286.039753 294.557769 
L 286.198353 292.547271 
L 286.356953 292.997382 
L 286.515554 290.986884 
L 286.674154 293.192431 
L 286.832754 292.727315 
L 286.991354 290.476757 
L 287.149954 291.467003 
L 287.308554 288.736325 
L 287.467155 291.226943 
L 287.625755 291.467003 
L 287.784355 290.32672 
L 287.942955 290.806839 
L 288.101555 289.636549 
L 288.260155 290.941872 
L 288.418756 293.357472 
L 288.735956 291.812088 
L 288.894556 288.076162 
L 289.053156 292.38223 
L 289.211756 292.232193 
L 289.370357 292.2622 
L 289.528957 291.992133 
L 289.687557 293.102408 
L 289.846157 292.247196 
L 290.004757 292.277204 
L 290.163357 293.507509 
L 290.480558 289.651552 
L 290.639158 293.132416 
L 290.797758 293.582527 
L 290.956358 291.241947 
L 291.114958 293.327464 
L 291.273559 293.087405 
L 291.432159 293.267449 
L 291.590759 293.972624 
L 291.907959 290.311716 
L 292.066559 294.857844 
L 292.22516 293.042393 
L 292.38376 294.362721 
L 292.54236 288.001143 
L 292.70096 292.922364 
L 292.85956 293.192431 
L 293.018161 291.587032 
L 293.176761 292.457248 
L 293.335361 292.247196 
L 293.493961 293.79258 
L 293.969762 291.436995 
L 294.286962 293.627539 
L 294.445562 289.921619 
L 294.604162 292.217189 
L 294.762762 291.557025 
L 294.921363 293.237442 
L 295.079963 288.556281 
L 295.238563 289.486512 
L 295.397163 292.877353 
L 295.555763 291.482006 
L 295.714363 293.95762 
L 295.872964 292.292207 
L 296.031564 292.397233 
L 296.190164 292.007137 
L 296.348764 293.012386 
L 296.665964 291.782081 
L 296.824565 292.067152 
L 296.983165 290.821843 
L 297.141765 291.001887 
L 297.300365 294.737814 
L 297.617565 290.32672 
L 297.776166 289.846601 
L 298.093366 293.042393 
L 298.251966 288.676311 
L 298.410566 291.632044 
L 298.569166 291.512014 
L 298.886367 288.046154 
L 299.044967 293.297457 
L 299.203567 289.666556 
L 299.837968 292.967375 
L 299.996568 289.291463 
L 300.313768 294.257695 
L 300.472368 293.297457 
L 300.630969 293.95762 
L 300.789569 290.026645 
L 300.948169 289.831597 
L 301.106769 294.737814 
L 301.265369 289.936623 
L 301.423969 289.486512 
L 301.58257 292.682304 
L 301.89977 291.542021 
L 302.05837 292.562274 
L 302.21697 291.557025 
L 302.37557 294.407732 
L 302.851371 290.176683 
L 303.009971 290.416742 
L 303.327171 293.897606 
L 303.485772 293.282453 
L 303.644372 294.392728 
L 303.802972 288.586288 
L 304.120172 294.647792 
L 304.278772 291.046899 
L 304.595973 293.31246 
L 304.754573 290.986884 
L 305.071773 293.642542 
L 305.230373 293.147419 
L 305.388974 291.707062 
L 305.547574 294.122661 
L 305.706174 292.742319 
L 305.864774 293.67255 
L 306.023374 292.157174 
L 306.181975 292.757323 
L 306.340575 291.151925 
L 306.499175 291.361977 
L 306.657775 292.937367 
L 306.816375 291.406988 
L 306.974975 293.147419 
L 307.133576 293.177427 
L 307.292176 291.37698 
L 307.450776 291.016891 
L 307.767976 293.162423 
L 307.926576 291.031895 
L 308.085177 292.157174 
L 308.243777 291.271954 
L 308.560977 291.482006 
L 308.719577 290.236698 
L 308.878177 291.947122 
L 309.036778 291.812088 
L 309.195378 291.286958 
L 309.353978 288.616296 
L 309.512578 293.417486 
L 309.671178 291.031895 
L 309.829778 291.316966 
L 309.988379 291.016891 
L 310.146979 293.67255 
L 310.305579 291.812088 
L 310.464179 294.062646 
L 310.781379 291.391984 
L 310.93998 284.190198 
L 311.09858 292.157174 
L 311.41578 294.272699 
L 311.73298 288.556281 
L 311.891581 293.222438 
L 312.050181 294.347717 
L 312.367381 290.176683 
L 312.525981 293.192431 
L 312.684581 292.352222 
L 312.843182 288.751329 
L 313.160382 293.192431 
L 313.318982 294.032639 
L 313.477582 291.557025 
L 313.636182 294.302706 
L 313.794783 293.567524 
L 313.953383 292.232193 
L 314.111983 292.427241 
L 314.429183 289.996638 
L 314.587783 292.472252 
L 314.746384 291.872103 
L 314.904984 288.991389 
L 315.063584 289.651552 
L 315.380784 292.277204 
L 315.539384 289.936623 
L 315.697985 290.116668 
L 315.856585 291.812088 
L 316.015185 290.701813 
L 316.490985 294.152669 
L 316.649586 292.427241 
L 316.808186 293.117412 
L 316.966786 288.79634 
L 317.125386 291.962126 
L 317.442586 293.102408 
L 317.759787 292.652297 
L 317.918387 291.932118 
L 318.076987 292.487256 
L 318.235587 292.14217 
L 318.552788 293.162423 
L 318.869988 290.536772 
L 319.028588 292.172178 
L 319.187188 289.426497 
L 319.504389 293.042393 
L 319.662989 289.261456 
L 319.821589 289.756579 
L 319.980189 289.726571 
L 320.138789 293.132416 
L 320.29739 291.046899 
L 320.45599 290.761828 
L 320.61459 291.361977 
L 320.77319 292.817338 
L 320.93179 293.237442 
L 321.09039 293.297457 
L 321.248991 294.527762 
L 321.566191 290.461753 
L 321.724791 290.101664 
L 321.883391 292.487256 
L 322.041991 290.836846 
L 322.359192 293.627539 
L 322.676392 292.007137 
L 322.834992 293.537516 
L 322.993592 293.612535 
L 323.152193 290.581783 
L 323.469393 292.187181 
L 323.627993 292.622289 
L 323.786593 291.887107 
L 323.945193 293.222438 
L 324.103794 288.991389 
L 324.262394 291.977129 
L 324.420994 288.436251 
L 324.579594 292.952371 
L 324.738194 293.087405 
L 324.896794 292.037144 
L 325.055395 293.327464 
L 325.213995 290.056653 
L 325.372595 293.237442 
L 325.531195 292.982379 
L 325.689795 292.082155 
L 325.848395 289.216445 
L 326.006996 293.657546 
L 326.165596 291.151925 
L 326.324196 293.79258 
L 326.482796 293.867598 
L 326.641396 292.412237 
L 326.799996 293.387479 
L 326.958597 290.536772 
L 327.117197 292.727315 
L 327.275797 292.697308 
L 327.434397 289.246452 
L 327.592997 290.236698 
L 327.751597 289.141426 
L 327.910198 291.812088 
L 328.068798 290.476757 
L 328.227398 292.562274 
L 328.544598 289.021396 
L 328.703198 291.752073 
L 328.861799 291.962126 
L 329.020399 293.207434 
L 329.178999 292.832341 
L 329.337599 288.376236 
L 329.496199 293.822587 
L 329.654799 289.981634 
L 329.8134 293.447494 
L 329.972 292.817338 
L 330.1306 293.057397 
L 330.2892 293.042393 
L 330.4478 291.782081 
L 330.6064 293.67255 
L 330.765001 291.887107 
L 330.923601 291.73707 
L 331.082201 294.347717 
L 331.240801 290.716817 
L 331.399401 293.477501 
L 331.558002 290.521768 
L 331.716602 292.577278 
L 332.192402 291.857099 
L 332.351002 292.487256 
L 332.509603 289.651552 
L 332.668203 292.127166 
L 332.826803 292.847345 
L 332.985403 290.596787 
L 333.302603 294.152669 
L 333.461204 291.181932 
L 333.619804 291.917114 
L 333.778404 290.596787 
L 334.095604 293.687553 
L 334.254204 292.712312 
L 334.412805 292.832341 
L 334.571405 290.596787 
L 334.730005 294.212684 
L 334.888605 289.996638 
L 335.047205 290.281709 
L 335.205805 289.921619 
L 335.364406 292.037144 
L 335.523006 291.572029 
L 335.681606 292.412237 
L 335.840206 292.292207 
L 335.998806 291.842096 
L 336.157406 292.997382 
L 336.316007 291.587032 
L 336.474607 292.052148 
L 336.791807 289.966631 
L 336.950407 291.827092 
L 337.109007 290.356727 
L 337.584808 294.092654 
L 337.902008 289.756579 
L 338.060608 290.881858 
L 338.219209 288.226199 
L 338.536409 292.742319 
L 338.695009 291.001887 
L 338.853609 293.732565 
L 339.012209 292.097159 
L 339.17081 292.997382 
L 339.32941 290.791835 
L 339.48801 291.106913 
L 339.64661 292.562274 
L 339.96381 289.486512 
L 340.122411 291.136921 
L 340.281011 290.476757 
L 340.439611 290.641798 
L 340.598211 292.592282 
L 340.915411 290.521768 
L 341.074012 292.292207 
L 341.232612 290.20669 
L 341.391212 292.052148 
L 341.549812 289.936623 
L 341.708412 291.016891 
L 341.867012 289.396489 
L 342.184213 289.411493 
L 342.342813 287.010898 
L 342.501413 289.366482 
L 342.818613 284.265217 
L 343.135814 278.848873 
L 343.453014 269.846641 
L 343.770215 259.64411 
L 343.928815 257.513582 
L 344.087415 253.867677 
L 344.563215 262.134728 
L 344.721816 262.614847 
L 345.039016 274.977913 
L 345.197616 276.343252 
L 345.356216 276.088189 
L 345.514816 275.548055 
L 345.673417 281.234465 
L 345.832017 279.7641 
L 345.990617 280.12419 
L 346.149217 278.938896 
L 346.466417 281.114435 
L 346.783618 284.835358 
L 346.942218 285.390496 
L 347.100818 286.57579 
L 347.259418 285.900622 
L 347.418018 285.735581 
L 347.576619 288.781337 
L 347.893819 283.920131 
L 348.052419 287.671061 
L 348.211019 286.395745 
L 348.369619 286.410749 
L 348.52822 288.616296 
L 348.68682 288.481262 
L 349.00402 284.985395 
L 349.16262 285.510525 
L 349.32122 288.166184 
L 349.479821 288.646303 
L 349.638421 288.346229 
L 349.955621 286.905871 
L 350.114221 287.476013 
L 350.272821 286.065663 
L 350.590022 289.756579 
L 350.907222 287.145931 
L 351.065822 290.341724 
L 351.224422 289.876608 
L 351.383023 290.926869 
L 351.858823 286.275715 
L 352.017423 286.680816 
L 352.176023 289.15643 
L 352.334624 289.546526 
L 352.493224 286.740831 
L 352.651824 289.126422 
L 352.810424 288.166184 
L 353.127624 290.146675 
L 353.444825 285.915626 
L 353.603425 286.2157 
L 353.762025 290.20669 
L 353.920625 290.521768 
L 354.079225 290.08666 
L 354.237826 290.701813 
L 354.555026 288.331225 
L 354.713626 290.986884 
L 354.872226 289.201441 
L 355.030826 284.625306 
L 355.348027 289.636549 
L 355.506627 290.266705 
L 355.665227 286.200697 
L 355.823827 288.181188 
L 355.982427 287.716072 
L 356.141028 288.451255 
L 356.299628 288.15118 
L 356.458228 286.965886 
L 356.616828 289.006392 
L 356.775428 288.91637 
L 356.934029 290.20669 
L 357.092629 287.941128 
L 357.251229 289.486512 
L 357.409829 292.2622 
L 357.568429 288.961381 
L 357.727029 289.486512 
L 358.20283 292.607286 
L 358.36143 291.467003 
L 358.52003 292.157174 
L 358.837231 291.076906 
L 358.995831 290.911865 
L 359.154431 291.812088 
L 359.313031 291.752073 
L 359.471631 291.046899 
L 359.788832 292.487256 
L 359.947432 291.707062 
L 360.106032 292.78733 
L 360.264632 291.346973 
L 360.423232 292.052148 
L 360.581832 291.286958 
L 360.740433 292.457248 
L 360.899033 287.821098 
L 361.057633 293.95762 
L 361.216233 287.250957 
L 361.374833 291.016891 
L 361.533433 290.311716 
L 361.850634 292.14217 
L 362.009234 288.226199 
L 362.326434 291.587032 
L 362.485034 291.061902 
L 362.643635 291.391984 
L 362.802235 292.14217 
L 363.119435 290.596787 
L 363.278035 287.806095 
L 363.595236 290.311716 
L 363.753836 288.646303 
L 363.912436 291.647047 
L 364.071036 292.307211 
L 364.229636 289.996638 
L 364.388236 289.501515 
L 364.546837 292.292207 
L 364.705437 291.001887 
L 364.864037 291.061902 
L 365.022637 292.247196 
L 365.339837 290.101664 
L 365.657038 290.041649 
L 365.974238 290.581783 
L 366.132838 291.857099 
L 366.291438 287.190942 
L 366.450039 290.266705 
L 366.767239 290.176683 
L 366.925839 292.607286 
L 367.084439 291.917114 
L 367.40164 287.160935 
L 367.56024 290.686809 
L 367.71884 290.896861 
L 367.87744 288.886363 
L 368.03604 288.91637 
L 368.353241 289.591538 
L 368.511841 291.977129 
L 368.670441 291.136921 
L 368.829041 291.421992 
L 368.987641 288.616296 
L 369.146242 289.411493 
L 369.304842 291.812088 
L 369.463442 288.646303 
L 369.780642 291.677055 
L 369.939242 291.286958 
L 370.097843 288.091165 
L 370.256443 290.566779 
L 370.415043 290.896861 
L 370.573643 292.157174 
L 370.732243 289.666556 
L 370.890843 292.082155 
L 371.049444 292.067152 
L 371.208044 290.521768 
L 371.366644 290.521768 
L 371.683844 289.591538 
L 371.842444 292.02214 
L 372.001045 289.426497 
L 372.159645 291.106913 
L 372.476845 291.271954 
L 372.635445 290.08666 
L 372.952646 291.947122 
L 373.111246 288.451255 
L 373.269846 292.967375 
L 373.428446 292.457248 
L 373.587046 292.637293 
L 373.904247 289.381485 
L 374.062847 290.85185 
L 374.221447 291.121917 
L 374.380047 288.466258 
L 374.697247 291.256951 
L 374.855848 289.981634 
L 375.014448 291.031895 
L 375.173048 290.85185 
L 375.331648 289.831597 
L 375.490248 290.161679 
L 375.648848 292.38223 
L 375.807449 288.496266 
L 375.966049 291.106913 
L 376.441849 289.201441 
L 376.75905 290.85185 
L 377.07625 289.111419 
L 377.23485 291.256951 
L 377.39345 290.266705 
L 377.55205 291.722066 
L 377.710651 290.341724 
L 377.869251 290.896861 
L 378.027851 290.011642 
L 378.186451 290.596787 
L 378.345051 290.536772 
L 378.503651 288.256206 
L 378.662252 291.226943 
L 378.820852 290.176683 
L 378.979452 291.406988 
L 379.138052 288.676311 
L 379.296652 291.016891 
L 379.455252 291.677055 
L 379.613853 286.800845 
L 379.931053 290.956876 
L 380.089653 290.08666 
L 380.248253 291.467003 
L 380.406853 289.276459 
L 380.565454 289.666556 
L 380.724054 289.216445 
L 380.882654 290.911865 
L 381.041254 288.736325 
L 381.199854 290.101664 
L 381.358455 289.936623 
L 381.517055 287.476013 
L 381.675655 289.966631 
L 381.834255 290.341724 
L 381.992855 291.752073 
L 382.310056 288.751329 
L 382.468656 290.356727 
L 382.785856 287.791091 
L 382.944456 289.906616 
L 383.103056 286.065663 
L 383.261657 289.426497 
L 383.420257 289.396489 
L 383.737457 290.476757 
L 383.896057 290.791835 
L 384.054657 287.115924 
L 384.371858 290.986884 
L 384.689058 289.081411 
L 384.847658 284.250213 
L 385.006258 289.861605 
L 385.164859 286.125678 
L 385.482059 291.196936 
L 385.799259 288.106169 
L 385.957859 287.836102 
L 386.11646 289.366482 
L 386.27506 289.171433 
L 386.43366 289.321471 
L 386.59226 288.076162 
L 386.90946 289.531523 
L 387.068061 288.886363 
L 387.226661 289.336474 
L 387.385261 286.98089 
L 387.543861 289.546526 
L 387.702461 289.696564 
L 387.861061 287.415998 
L 388.019662 290.716817 
L 388.178262 287.971136 
L 388.336862 288.91637 
L 388.495462 288.166184 
L 388.812662 289.096415 
L 388.971263 287.761084 
L 389.288463 287.761084 
L 389.447063 286.57579 
L 389.605663 289.396489 
L 389.764263 287.415998 
L 389.922864 287.476013 
L 390.081464 287.881113 
L 390.240064 289.171433 
L 390.398664 285.28547 
L 390.557264 287.86611 
L 390.874465 285.660563 
L 391.033065 286.500771 
L 391.191665 285.870615 
L 391.350265 287.370987 
L 391.508865 280.604309 
L 391.826066 287.821098 
L 392.143266 286.485767 
L 392.301866 284.055164 
L 392.460466 288.27121 
L 392.619066 285.390496 
L 392.777667 286.305723 
L 392.936267 286.395745 
L 393.094867 288.256206 
L 393.253467 287.070912 
L 393.412067 284.175194 
L 393.570667 286.590793 
L 393.729268 287.175938 
L 393.887868 283.890124 
L 394.046468 287.836102 
L 394.363668 285.300473 
L 394.522269 284.880369 
L 394.680869 286.275715 
L 394.839469 285.540533 
L 394.998069 286.33573 
L 395.315269 281.489528 
L 395.47387 283.710079 
L 395.63247 282.884874 
L 395.79107 286.020652 
L 396.10827 282.449766 
L 396.26687 281.969647 
L 396.425471 285.510525 
L 396.584071 281.984651 
L 396.742671 282.449766 
L 396.901271 284.010153 
L 397.059871 279.11894 
L 397.218471 282.824859 
L 397.377072 282.299729 
L 397.535672 279.404011 
L 397.694272 281.969647 
L 397.852872 277.873631 
L 398.011472 278.383758 
L 398.170072 280.139193 
L 398.328673 277.543549 
L 398.487273 278.803862 
L 398.487273 278.803862 
" style="fill:none;stroke:#1f77b4;stroke-linecap:square;stroke-width:1.5;"/>
   </g>
   <g id="patch_3">
    <path d="M 57.6 307.584 
L 57.6 41.472 
" style="fill:none;stroke:#000000;stroke-linecap:square;stroke-linejoin:miter;stroke-width:0.8;"/>
   </g>
   <g id="patch_4">
    <path d="M 414.72 307.584 
L 414.72 41.472 
" style="fill:none;stroke:#000000;stroke-linecap:square;stroke-linejoin:miter;stroke-width:0.8;"/>
   </g>
   <g id="patch_5">
    <path d="M 57.6 307.584 
L 414.72 307.584 
" style="fill:none;stroke:#000000;stroke-linecap:square;stroke-linejoin:miter;stroke-width:0.8;"/>
   </g>
   <g id="patch_6">
    <path d="M 57.6 41.472 
L 414.72 41.472 
" style="fill:none;stroke:#000000;stroke-linecap:square;stroke-linejoin:miter;stroke-width:0.8;"/>
   </g>
   <g id="text_16">
    <!-- Background -->
    <g transform="translate(200.367188 35.472)scale(0.12 -0.12)">
     <defs>
      <path d="M 1259 2228 
L 1259 519 
L 2272 519 
Q 2781 519 3026 730 
Q 3272 941 3272 1375 
Q 3272 1813 3026 2020 
Q 2781 2228 2272 2228 
L 1259 2228 
z
M 1259 4147 
L 1259 2741 
L 2194 2741 
Q 2656 2741 2882 2914 
Q 3109 3088 3109 3444 
Q 3109 3797 2882 3972 
Q 2656 4147 2194 4147 
L 1259 4147 
z
M 628 4666 
L 2241 4666 
Q 2963 4666 3353 4366 
Q 3744 4066 3744 3513 
Q 3744 3084 3544 2831 
Q 3344 2578 2956 2516 
Q 3422 2416 3680 2098 
Q 3938 1781 3938 1306 
Q 3938 681 3513 340 
Q 3088 0 2303 0 
L 628 0 
L 628 4666 
z
" id="DejaVuSans-42" transform="scale(0.015625)"/>
      <path d="M 3122 3366 
L 3122 2828 
Q 2878 2963 2633 3030 
Q 2388 3097 2138 3097 
Q 1578 3097 1268 2742 
Q 959 2388 959 1747 
Q 959 1106 1268 751 
Q 1578 397 2138 397 
Q 2388 397 2633 464 
Q 2878 531 3122 666 
L 3122 134 
Q 2881 22 2623 -34 
Q 2366 -91 2075 -91 
Q 1284 -91 818 406 
Q 353 903 353 1747 
Q 353 2603 823 3093 
Q 1294 3584 2113 3584 
Q 2378 3584 2631 3529 
Q 2884 3475 3122 3366 
z
" id="DejaVuSans-63" transform="scale(0.015625)"/>
      <path d="M 581 4863 
L 1159 4863 
L 1159 1991 
L 2875 3500 
L 3609 3500 
L 1753 1863 
L 3688 0 
L 2938 0 
L 1159 1709 
L 1159 0 
L 581 0 
L 581 4863 
z
" id="DejaVuSans-6b" transform="scale(0.015625)"/>
      <path d="M 2631 2963 
Q 2534 3019 2420 3045 
Q 2306 3072 2169 3072 
Q 1681 3072 1420 2755 
Q 1159 2438 1159 1844 
L 1159 0 
L 581 0 
L 581 3500 
L 1159 3500 
L 1159 2956 
Q 1341 3275 1631 3429 
Q 1922 3584 2338 3584 
Q 2397 3584 2469 3576 
Q 2541 3569 2628 3553 
L 2631 2963 
z
" id="DejaVuSans-72" transform="scale(0.015625)"/>
      <path d="M 2906 2969 
L 2906 4863 
L 3481 4863 
L 3481 0 
L 2906 0 
L 2906 525 
Q 2725 213 2448 61 
Q 2172 -91 1784 -91 
Q 1150 -91 751 415 
Q 353 922 353 1747 
Q 353 2572 751 3078 
Q 1150 3584 1784 3584 
Q 2172 3584 2448 3432 
Q 2725 3281 2906 2969 
z
M 947 1747 
Q 947 1113 1208 752 
Q 1469 391 1925 391 
Q 2381 391 2643 752 
Q 2906 1113 2906 1747 
Q 2906 2381 2643 2742 
Q 2381 3103 1925 3103 
Q 1469 3103 1208 2742 
Q 947 2381 947 1747 
z
" id="DejaVuSans-64" transform="scale(0.015625)"/>
     </defs>
     <use xlink:href="#DejaVuSans-42"/>
     <use x="68.603516" xlink:href="#DejaVuSans-61"/>
     <use x="129.882812" xlink:href="#DejaVuSans-63"/>
     <use x="184.863281" xlink:href="#DejaVuSans-6b"/>
     <use x="242.773438" xlink:href="#DejaVuSans-67"/>
     <use x="306.25" xlink:href="#DejaVuSans-72"/>
     <use x="345.113281" xlink:href="#DejaVuSans-6f"/>
     <use x="406.294922" xlink:href="#DejaVuSans-75"/>
     <use x="469.673828" xlink:href="#DejaVuSans-6e"/>
     <use x="533.052734" xlink:href="#DejaVuSans-64"/>
    </g>
   </g>
  </g>
 </g>
 <defs>
  <clipPath id="p2aa9c0b235">
   <rect height="266.112" width="357.12" x="57.6" y="41.472"/>
  </clipPath>
 </defs>
</svg>
