<?xml version="1.0" encoding="utf-8" standalone="no"?>
<!DOCTYPE svg PUBLIC "-//W3C//DTD SVG 1.1//EN"
  "http://www.w3.org/Graphics/SVG/1.1/DTD/svg11.dtd">
<svg height="345.6pt" version="1.1" viewBox="0 0 460.8 345.6" width="460.8pt" xmlns="http://www.w3.org/2000/svg" xmlns:xlink="http://www.w3.org/1999/xlink">
 <metadata>
  <rdf:RDF xmlns:cc="http://creativecommons.org/ns#" xmlns:dc="http://purl.org/dc/elements/1.1/" xmlns:rdf="http://www.w3.org/1999/02/22-rdf-syntax-ns#">
   <cc:Work>
    <dc:type rdf:resource="http://purl.org/dc/dcmitype/StillImage"/>
    <dc:date>2022-04-22T16:06:48.205620</dc:date>
    <dc:format>image/svg+xml</dc:format>
    <dc:creator>
     <cc:Agent>
      <dc:title>Matplotlib v3.4.1, https://matplotlib.org/</dc:title>
     </cc:Agent>
    </dc:creator>
   </cc:Work>
  </rdf:RDF>
 </metadata>
 <defs>
  <style type="text/css">*{stroke-linecap:butt;stroke-linejoin:round;}</style>
 </defs>
 <g id="figure_1">
  <g id="patch_1">
   <path d="M 0 345.6 
L 460.8 345.6 
L 460.8 0 
L 0 0 
z
" style="fill:#ffffff;"/>
  </g>
  <g id="axes_1">
   <g id="patch_2">
    <path d="M 57.6 307.584 
L 414.72 307.584 
L 414.72 41.472 
L 57.6 41.472 
z
" style="fill:#ffffff;"/>
   </g>
   <g id="matplotlib.axis_1">
    <g id="xtick_1">
     <g id="line2d_1">
      <defs>
       <path d="M 0 0 
L 0 3.5 
" id="m2b0649d801" style="stroke:#000000;stroke-width:0.8;"/>
      </defs>
      <g>
       <use style="stroke:#000000;stroke-width:0.8;" x="102.929605" xlink:href="#m2b0649d801" y="307.584"/>
      </g>
     </g>
     <g id="text_1">
      <!-- 400 -->
      <g transform="translate(93.385855 322.182437)scale(0.1 -0.1)">
       <defs>
        <path d="M 2419 4116 
L 825 1625 
L 2419 1625 
L 2419 4116 
z
M 2253 4666 
L 3047 4666 
L 3047 1625 
L 3713 1625 
L 3713 1100 
L 3047 1100 
L 3047 0 
L 2419 0 
L 2419 1100 
L 313 1100 
L 313 1709 
L 2253 4666 
z
" id="DejaVuSans-34" transform="scale(0.015625)"/>
        <path d="M 2034 4250 
Q 1547 4250 1301 3770 
Q 1056 3291 1056 2328 
Q 1056 1369 1301 889 
Q 1547 409 2034 409 
Q 2525 409 2770 889 
Q 3016 1369 3016 2328 
Q 3016 3291 2770 3770 
Q 2525 4250 2034 4250 
z
M 2034 4750 
Q 2819 4750 3233 4129 
Q 3647 3509 3647 2328 
Q 3647 1150 3233 529 
Q 2819 -91 2034 -91 
Q 1250 -91 836 529 
Q 422 1150 422 2328 
Q 422 3509 836 4129 
Q 1250 4750 2034 4750 
z
" id="DejaVuSans-30" transform="scale(0.015625)"/>
       </defs>
       <use xlink:href="#DejaVuSans-34"/>
       <use x="63.623047" xlink:href="#DejaVuSans-30"/>
       <use x="127.246094" xlink:href="#DejaVuSans-30"/>
      </g>
     </g>
    </g>
    <g id="xtick_2">
     <g id="line2d_2">
      <g>
       <use style="stroke:#000000;stroke-width:0.8;" x="160.931952" xlink:href="#m2b0649d801" y="307.584"/>
      </g>
     </g>
     <g id="text_2">
      <!-- 600 -->
      <g transform="translate(151.388202 322.182437)scale(0.1 -0.1)">
       <defs>
        <path d="M 2113 2584 
Q 1688 2584 1439 2293 
Q 1191 2003 1191 1497 
Q 1191 994 1439 701 
Q 1688 409 2113 409 
Q 2538 409 2786 701 
Q 3034 994 3034 1497 
Q 3034 2003 2786 2293 
Q 2538 2584 2113 2584 
z
M 3366 4563 
L 3366 3988 
Q 3128 4100 2886 4159 
Q 2644 4219 2406 4219 
Q 1781 4219 1451 3797 
Q 1122 3375 1075 2522 
Q 1259 2794 1537 2939 
Q 1816 3084 2150 3084 
Q 2853 3084 3261 2657 
Q 3669 2231 3669 1497 
Q 3669 778 3244 343 
Q 2819 -91 2113 -91 
Q 1303 -91 875 529 
Q 447 1150 447 2328 
Q 447 3434 972 4092 
Q 1497 4750 2381 4750 
Q 2619 4750 2861 4703 
Q 3103 4656 3366 4563 
z
" id="DejaVuSans-36" transform="scale(0.015625)"/>
       </defs>
       <use xlink:href="#DejaVuSans-36"/>
       <use x="63.623047" xlink:href="#DejaVuSans-30"/>
       <use x="127.246094" xlink:href="#DejaVuSans-30"/>
      </g>
     </g>
    </g>
    <g id="xtick_3">
     <g id="line2d_3">
      <g>
       <use style="stroke:#000000;stroke-width:0.8;" x="218.9343" xlink:href="#m2b0649d801" y="307.584"/>
      </g>
     </g>
     <g id="text_3">
      <!-- 800 -->
      <g transform="translate(209.39055 322.182437)scale(0.1 -0.1)">
       <defs>
        <path d="M 2034 2216 
Q 1584 2216 1326 1975 
Q 1069 1734 1069 1313 
Q 1069 891 1326 650 
Q 1584 409 2034 409 
Q 2484 409 2743 651 
Q 3003 894 3003 1313 
Q 3003 1734 2745 1975 
Q 2488 2216 2034 2216 
z
M 1403 2484 
Q 997 2584 770 2862 
Q 544 3141 544 3541 
Q 544 4100 942 4425 
Q 1341 4750 2034 4750 
Q 2731 4750 3128 4425 
Q 3525 4100 3525 3541 
Q 3525 3141 3298 2862 
Q 3072 2584 2669 2484 
Q 3125 2378 3379 2068 
Q 3634 1759 3634 1313 
Q 3634 634 3220 271 
Q 2806 -91 2034 -91 
Q 1263 -91 848 271 
Q 434 634 434 1313 
Q 434 1759 690 2068 
Q 947 2378 1403 2484 
z
M 1172 3481 
Q 1172 3119 1398 2916 
Q 1625 2713 2034 2713 
Q 2441 2713 2670 2916 
Q 2900 3119 2900 3481 
Q 2900 3844 2670 4047 
Q 2441 4250 2034 4250 
Q 1625 4250 1398 4047 
Q 1172 3844 1172 3481 
z
" id="DejaVuSans-38" transform="scale(0.015625)"/>
       </defs>
       <use xlink:href="#DejaVuSans-38"/>
       <use x="63.623047" xlink:href="#DejaVuSans-30"/>
       <use x="127.246094" xlink:href="#DejaVuSans-30"/>
      </g>
     </g>
    </g>
    <g id="xtick_4">
     <g id="line2d_4">
      <g>
       <use style="stroke:#000000;stroke-width:0.8;" x="276.936647" xlink:href="#m2b0649d801" y="307.584"/>
      </g>
     </g>
     <g id="text_4">
      <!-- 1000 -->
      <g transform="translate(264.211647 322.182437)scale(0.1 -0.1)">
       <defs>
        <path d="M 794 531 
L 1825 531 
L 1825 4091 
L 703 3866 
L 703 4441 
L 1819 4666 
L 2450 4666 
L 2450 531 
L 3481 531 
L 3481 0 
L 794 0 
L 794 531 
z
" id="DejaVuSans-31" transform="scale(0.015625)"/>
       </defs>
       <use xlink:href="#DejaVuSans-31"/>
       <use x="63.623047" xlink:href="#DejaVuSans-30"/>
       <use x="127.246094" xlink:href="#DejaVuSans-30"/>
       <use x="190.869141" xlink:href="#DejaVuSans-30"/>
      </g>
     </g>
    </g>
    <g id="xtick_5">
     <g id="line2d_5">
      <g>
       <use style="stroke:#000000;stroke-width:0.8;" x="334.938995" xlink:href="#m2b0649d801" y="307.584"/>
      </g>
     </g>
     <g id="text_5">
      <!-- 1200 -->
      <g transform="translate(322.213995 322.182437)scale(0.1 -0.1)">
       <defs>
        <path d="M 1228 531 
L 3431 531 
L 3431 0 
L 469 0 
L 469 531 
Q 828 903 1448 1529 
Q 2069 2156 2228 2338 
Q 2531 2678 2651 2914 
Q 2772 3150 2772 3378 
Q 2772 3750 2511 3984 
Q 2250 4219 1831 4219 
Q 1534 4219 1204 4116 
Q 875 4013 500 3803 
L 500 4441 
Q 881 4594 1212 4672 
Q 1544 4750 1819 4750 
Q 2544 4750 2975 4387 
Q 3406 4025 3406 3419 
Q 3406 3131 3298 2873 
Q 3191 2616 2906 2266 
Q 2828 2175 2409 1742 
Q 1991 1309 1228 531 
z
" id="DejaVuSans-32" transform="scale(0.015625)"/>
       </defs>
       <use xlink:href="#DejaVuSans-31"/>
       <use x="63.623047" xlink:href="#DejaVuSans-32"/>
       <use x="127.246094" xlink:href="#DejaVuSans-30"/>
       <use x="190.869141" xlink:href="#DejaVuSans-30"/>
      </g>
     </g>
    </g>
    <g id="xtick_6">
     <g id="line2d_6">
      <g>
       <use style="stroke:#000000;stroke-width:0.8;" x="392.941342" xlink:href="#m2b0649d801" y="307.584"/>
      </g>
     </g>
     <g id="text_6">
      <!-- 1400 -->
      <g transform="translate(380.216342 322.182437)scale(0.1 -0.1)">
       <use xlink:href="#DejaVuSans-31"/>
       <use x="63.623047" xlink:href="#DejaVuSans-34"/>
       <use x="127.246094" xlink:href="#DejaVuSans-30"/>
       <use x="190.869141" xlink:href="#DejaVuSans-30"/>
      </g>
     </g>
    </g>
    <g id="text_7">
     <!-- Wavelength [nm] -->
     <g transform="translate(192.967812 335.860562)scale(0.1 -0.1)">
      <defs>
       <path d="M 213 4666 
L 850 4666 
L 1831 722 
L 2809 4666 
L 3519 4666 
L 4500 722 
L 5478 4666 
L 6119 4666 
L 4947 0 
L 4153 0 
L 3169 4050 
L 2175 0 
L 1381 0 
L 213 4666 
z
" id="DejaVuSans-57" transform="scale(0.015625)"/>
       <path d="M 2194 1759 
Q 1497 1759 1228 1600 
Q 959 1441 959 1056 
Q 959 750 1161 570 
Q 1363 391 1709 391 
Q 2188 391 2477 730 
Q 2766 1069 2766 1631 
L 2766 1759 
L 2194 1759 
z
M 3341 1997 
L 3341 0 
L 2766 0 
L 2766 531 
Q 2569 213 2275 61 
Q 1981 -91 1556 -91 
Q 1019 -91 701 211 
Q 384 513 384 1019 
Q 384 1609 779 1909 
Q 1175 2209 1959 2209 
L 2766 2209 
L 2766 2266 
Q 2766 2663 2505 2880 
Q 2244 3097 1772 3097 
Q 1472 3097 1187 3025 
Q 903 2953 641 2809 
L 641 3341 
Q 956 3463 1253 3523 
Q 1550 3584 1831 3584 
Q 2591 3584 2966 3190 
Q 3341 2797 3341 1997 
z
" id="DejaVuSans-61" transform="scale(0.015625)"/>
       <path d="M 191 3500 
L 800 3500 
L 1894 563 
L 2988 3500 
L 3597 3500 
L 2284 0 
L 1503 0 
L 191 3500 
z
" id="DejaVuSans-76" transform="scale(0.015625)"/>
       <path d="M 3597 1894 
L 3597 1613 
L 953 1613 
Q 991 1019 1311 708 
Q 1631 397 2203 397 
Q 2534 397 2845 478 
Q 3156 559 3463 722 
L 3463 178 
Q 3153 47 2828 -22 
Q 2503 -91 2169 -91 
Q 1331 -91 842 396 
Q 353 884 353 1716 
Q 353 2575 817 3079 
Q 1281 3584 2069 3584 
Q 2775 3584 3186 3129 
Q 3597 2675 3597 1894 
z
M 3022 2063 
Q 3016 2534 2758 2815 
Q 2500 3097 2075 3097 
Q 1594 3097 1305 2825 
Q 1016 2553 972 2059 
L 3022 2063 
z
" id="DejaVuSans-65" transform="scale(0.015625)"/>
       <path d="M 603 4863 
L 1178 4863 
L 1178 0 
L 603 0 
L 603 4863 
z
" id="DejaVuSans-6c" transform="scale(0.015625)"/>
       <path d="M 3513 2113 
L 3513 0 
L 2938 0 
L 2938 2094 
Q 2938 2591 2744 2837 
Q 2550 3084 2163 3084 
Q 1697 3084 1428 2787 
Q 1159 2491 1159 1978 
L 1159 0 
L 581 0 
L 581 3500 
L 1159 3500 
L 1159 2956 
Q 1366 3272 1645 3428 
Q 1925 3584 2291 3584 
Q 2894 3584 3203 3211 
Q 3513 2838 3513 2113 
z
" id="DejaVuSans-6e" transform="scale(0.015625)"/>
       <path d="M 2906 1791 
Q 2906 2416 2648 2759 
Q 2391 3103 1925 3103 
Q 1463 3103 1205 2759 
Q 947 2416 947 1791 
Q 947 1169 1205 825 
Q 1463 481 1925 481 
Q 2391 481 2648 825 
Q 2906 1169 2906 1791 
z
M 3481 434 
Q 3481 -459 3084 -895 
Q 2688 -1331 1869 -1331 
Q 1566 -1331 1297 -1286 
Q 1028 -1241 775 -1147 
L 775 -588 
Q 1028 -725 1275 -790 
Q 1522 -856 1778 -856 
Q 2344 -856 2625 -561 
Q 2906 -266 2906 331 
L 2906 616 
Q 2728 306 2450 153 
Q 2172 0 1784 0 
Q 1141 0 747 490 
Q 353 981 353 1791 
Q 353 2603 747 3093 
Q 1141 3584 1784 3584 
Q 2172 3584 2450 3431 
Q 2728 3278 2906 2969 
L 2906 3500 
L 3481 3500 
L 3481 434 
z
" id="DejaVuSans-67" transform="scale(0.015625)"/>
       <path d="M 1172 4494 
L 1172 3500 
L 2356 3500 
L 2356 3053 
L 1172 3053 
L 1172 1153 
Q 1172 725 1289 603 
Q 1406 481 1766 481 
L 2356 481 
L 2356 0 
L 1766 0 
Q 1100 0 847 248 
Q 594 497 594 1153 
L 594 3053 
L 172 3053 
L 172 3500 
L 594 3500 
L 594 4494 
L 1172 4494 
z
" id="DejaVuSans-74" transform="scale(0.015625)"/>
       <path d="M 3513 2113 
L 3513 0 
L 2938 0 
L 2938 2094 
Q 2938 2591 2744 2837 
Q 2550 3084 2163 3084 
Q 1697 3084 1428 2787 
Q 1159 2491 1159 1978 
L 1159 0 
L 581 0 
L 581 4863 
L 1159 4863 
L 1159 2956 
Q 1366 3272 1645 3428 
Q 1925 3584 2291 3584 
Q 2894 3584 3203 3211 
Q 3513 2838 3513 2113 
z
" id="DejaVuSans-68" transform="scale(0.015625)"/>
       <path id="DejaVuSans-20" transform="scale(0.015625)"/>
       <path d="M 550 4863 
L 1875 4863 
L 1875 4416 
L 1125 4416 
L 1125 -397 
L 1875 -397 
L 1875 -844 
L 550 -844 
L 550 4863 
z
" id="DejaVuSans-5b" transform="scale(0.015625)"/>
       <path d="M 3328 2828 
Q 3544 3216 3844 3400 
Q 4144 3584 4550 3584 
Q 5097 3584 5394 3201 
Q 5691 2819 5691 2113 
L 5691 0 
L 5113 0 
L 5113 2094 
Q 5113 2597 4934 2840 
Q 4756 3084 4391 3084 
Q 3944 3084 3684 2787 
Q 3425 2491 3425 1978 
L 3425 0 
L 2847 0 
L 2847 2094 
Q 2847 2600 2669 2842 
Q 2491 3084 2119 3084 
Q 1678 3084 1418 2786 
Q 1159 2488 1159 1978 
L 1159 0 
L 581 0 
L 581 3500 
L 1159 3500 
L 1159 2956 
Q 1356 3278 1631 3431 
Q 1906 3584 2284 3584 
Q 2666 3584 2933 3390 
Q 3200 3197 3328 2828 
z
" id="DejaVuSans-6d" transform="scale(0.015625)"/>
       <path d="M 1947 4863 
L 1947 -844 
L 622 -844 
L 622 -397 
L 1369 -397 
L 1369 4416 
L 622 4416 
L 622 4863 
L 1947 4863 
z
" id="DejaVuSans-5d" transform="scale(0.015625)"/>
      </defs>
      <use xlink:href="#DejaVuSans-57"/>
      <use x="92.501953" xlink:href="#DejaVuSans-61"/>
      <use x="153.78125" xlink:href="#DejaVuSans-76"/>
      <use x="212.960938" xlink:href="#DejaVuSans-65"/>
      <use x="274.484375" xlink:href="#DejaVuSans-6c"/>
      <use x="302.267578" xlink:href="#DejaVuSans-65"/>
      <use x="363.791016" xlink:href="#DejaVuSans-6e"/>
      <use x="427.169922" xlink:href="#DejaVuSans-67"/>
      <use x="490.646484" xlink:href="#DejaVuSans-74"/>
      <use x="529.855469" xlink:href="#DejaVuSans-68"/>
      <use x="593.234375" xlink:href="#DejaVuSans-20"/>
      <use x="625.021484" xlink:href="#DejaVuSans-5b"/>
      <use x="664.035156" xlink:href="#DejaVuSans-6e"/>
      <use x="727.414062" xlink:href="#DejaVuSans-6d"/>
      <use x="824.826172" xlink:href="#DejaVuSans-5d"/>
     </g>
    </g>
   </g>
   <g id="matplotlib.axis_2">
    <g id="ytick_1">
     <g id="line2d_7">
      <defs>
       <path d="M 0 0 
L -3.5 0 
" id="m53bae12e25" style="stroke:#000000;stroke-width:0.8;"/>
      </defs>
      <g>
       <use style="stroke:#000000;stroke-width:0.8;" x="57.6" xlink:href="#m53bae12e25" y="288.038276"/>
      </g>
     </g>
     <g id="text_8">
      <!-- −1000 -->
      <g transform="translate(16.770313 291.837494)scale(0.1 -0.1)">
       <defs>
        <path d="M 678 2272 
L 4684 2272 
L 4684 1741 
L 678 1741 
L 678 2272 
z
" id="DejaVuSans-2212" transform="scale(0.015625)"/>
       </defs>
       <use xlink:href="#DejaVuSans-2212"/>
       <use x="83.789062" xlink:href="#DejaVuSans-31"/>
       <use x="147.412109" xlink:href="#DejaVuSans-30"/>
       <use x="211.035156" xlink:href="#DejaVuSans-30"/>
       <use x="274.658203" xlink:href="#DejaVuSans-30"/>
      </g>
     </g>
    </g>
    <g id="ytick_2">
     <g id="line2d_8">
      <g>
       <use style="stroke:#000000;stroke-width:0.8;" x="57.6" xlink:href="#m53bae12e25" y="255.364045"/>
      </g>
     </g>
     <g id="text_9">
      <!-- 0 -->
      <g transform="translate(44.2375 259.163264)scale(0.1 -0.1)">
       <use xlink:href="#DejaVuSans-30"/>
      </g>
     </g>
    </g>
    <g id="ytick_3">
     <g id="line2d_9">
      <g>
       <use style="stroke:#000000;stroke-width:0.8;" x="57.6" xlink:href="#m53bae12e25" y="222.689815"/>
      </g>
     </g>
     <g id="text_10">
      <!-- 1000 -->
      <g transform="translate(25.15 226.489034)scale(0.1 -0.1)">
       <use xlink:href="#DejaVuSans-31"/>
       <use x="63.623047" xlink:href="#DejaVuSans-30"/>
       <use x="127.246094" xlink:href="#DejaVuSans-30"/>
       <use x="190.869141" xlink:href="#DejaVuSans-30"/>
      </g>
     </g>
    </g>
    <g id="ytick_4">
     <g id="line2d_10">
      <g>
       <use style="stroke:#000000;stroke-width:0.8;" x="57.6" xlink:href="#m53bae12e25" y="190.015585"/>
      </g>
     </g>
     <g id="text_11">
      <!-- 2000 -->
      <g transform="translate(25.15 193.814804)scale(0.1 -0.1)">
       <use xlink:href="#DejaVuSans-32"/>
       <use x="63.623047" xlink:href="#DejaVuSans-30"/>
       <use x="127.246094" xlink:href="#DejaVuSans-30"/>
       <use x="190.869141" xlink:href="#DejaVuSans-30"/>
      </g>
     </g>
    </g>
    <g id="ytick_5">
     <g id="line2d_11">
      <g>
       <use style="stroke:#000000;stroke-width:0.8;" x="57.6" xlink:href="#m53bae12e25" y="157.341355"/>
      </g>
     </g>
     <g id="text_12">
      <!-- 3000 -->
      <g transform="translate(25.15 161.140574)scale(0.1 -0.1)">
       <defs>
        <path d="M 2597 2516 
Q 3050 2419 3304 2112 
Q 3559 1806 3559 1356 
Q 3559 666 3084 287 
Q 2609 -91 1734 -91 
Q 1441 -91 1130 -33 
Q 819 25 488 141 
L 488 750 
Q 750 597 1062 519 
Q 1375 441 1716 441 
Q 2309 441 2620 675 
Q 2931 909 2931 1356 
Q 2931 1769 2642 2001 
Q 2353 2234 1838 2234 
L 1294 2234 
L 1294 2753 
L 1863 2753 
Q 2328 2753 2575 2939 
Q 2822 3125 2822 3475 
Q 2822 3834 2567 4026 
Q 2313 4219 1838 4219 
Q 1578 4219 1281 4162 
Q 984 4106 628 3988 
L 628 4550 
Q 988 4650 1302 4700 
Q 1616 4750 1894 4750 
Q 2613 4750 3031 4423 
Q 3450 4097 3450 3541 
Q 3450 3153 3228 2886 
Q 3006 2619 2597 2516 
z
" id="DejaVuSans-33" transform="scale(0.015625)"/>
       </defs>
       <use xlink:href="#DejaVuSans-33"/>
       <use x="63.623047" xlink:href="#DejaVuSans-30"/>
       <use x="127.246094" xlink:href="#DejaVuSans-30"/>
       <use x="190.869141" xlink:href="#DejaVuSans-30"/>
      </g>
     </g>
    </g>
    <g id="ytick_6">
     <g id="line2d_12">
      <g>
       <use style="stroke:#000000;stroke-width:0.8;" x="57.6" xlink:href="#m53bae12e25" y="124.667125"/>
      </g>
     </g>
     <g id="text_13">
      <!-- 4000 -->
      <g transform="translate(25.15 128.466344)scale(0.1 -0.1)">
       <use xlink:href="#DejaVuSans-34"/>
       <use x="63.623047" xlink:href="#DejaVuSans-30"/>
       <use x="127.246094" xlink:href="#DejaVuSans-30"/>
       <use x="190.869141" xlink:href="#DejaVuSans-30"/>
      </g>
     </g>
    </g>
    <g id="ytick_7">
     <g id="line2d_13">
      <g>
       <use style="stroke:#000000;stroke-width:0.8;" x="57.6" xlink:href="#m53bae12e25" y="91.992895"/>
      </g>
     </g>
     <g id="text_14">
      <!-- 5000 -->
      <g transform="translate(25.15 95.792113)scale(0.1 -0.1)">
       <defs>
        <path d="M 691 4666 
L 3169 4666 
L 3169 4134 
L 1269 4134 
L 1269 2991 
Q 1406 3038 1543 3061 
Q 1681 3084 1819 3084 
Q 2600 3084 3056 2656 
Q 3513 2228 3513 1497 
Q 3513 744 3044 326 
Q 2575 -91 1722 -91 
Q 1428 -91 1123 -41 
Q 819 9 494 109 
L 494 744 
Q 775 591 1075 516 
Q 1375 441 1709 441 
Q 2250 441 2565 725 
Q 2881 1009 2881 1497 
Q 2881 1984 2565 2268 
Q 2250 2553 1709 2553 
Q 1456 2553 1204 2497 
Q 953 2441 691 2322 
L 691 4666 
z
" id="DejaVuSans-35" transform="scale(0.015625)"/>
       </defs>
       <use xlink:href="#DejaVuSans-35"/>
       <use x="63.623047" xlink:href="#DejaVuSans-30"/>
       <use x="127.246094" xlink:href="#DejaVuSans-30"/>
       <use x="190.869141" xlink:href="#DejaVuSans-30"/>
      </g>
     </g>
    </g>
    <g id="ytick_8">
     <g id="line2d_14">
      <g>
       <use style="stroke:#000000;stroke-width:0.8;" x="57.6" xlink:href="#m53bae12e25" y="59.318665"/>
      </g>
     </g>
     <g id="text_15">
      <!-- 6000 -->
      <g transform="translate(25.15 63.117883)scale(0.1 -0.1)">
       <use xlink:href="#DejaVuSans-36"/>
       <use x="63.623047" xlink:href="#DejaVuSans-30"/>
       <use x="127.246094" xlink:href="#DejaVuSans-30"/>
       <use x="190.869141" xlink:href="#DejaVuSans-30"/>
      </g>
     </g>
    </g>
    <g id="text_16">
     <!-- Counts -->
     <g transform="translate(10.690625 191.981125)rotate(-90)scale(0.1 -0.1)">
      <defs>
       <path d="M 4122 4306 
L 4122 3641 
Q 3803 3938 3442 4084 
Q 3081 4231 2675 4231 
Q 1875 4231 1450 3742 
Q 1025 3253 1025 2328 
Q 1025 1406 1450 917 
Q 1875 428 2675 428 
Q 3081 428 3442 575 
Q 3803 722 4122 1019 
L 4122 359 
Q 3791 134 3420 21 
Q 3050 -91 2638 -91 
Q 1578 -91 968 557 
Q 359 1206 359 2328 
Q 359 3453 968 4101 
Q 1578 4750 2638 4750 
Q 3056 4750 3426 4639 
Q 3797 4528 4122 4306 
z
" id="DejaVuSans-43" transform="scale(0.015625)"/>
       <path d="M 1959 3097 
Q 1497 3097 1228 2736 
Q 959 2375 959 1747 
Q 959 1119 1226 758 
Q 1494 397 1959 397 
Q 2419 397 2687 759 
Q 2956 1122 2956 1747 
Q 2956 2369 2687 2733 
Q 2419 3097 1959 3097 
z
M 1959 3584 
Q 2709 3584 3137 3096 
Q 3566 2609 3566 1747 
Q 3566 888 3137 398 
Q 2709 -91 1959 -91 
Q 1206 -91 779 398 
Q 353 888 353 1747 
Q 353 2609 779 3096 
Q 1206 3584 1959 3584 
z
" id="DejaVuSans-6f" transform="scale(0.015625)"/>
       <path d="M 544 1381 
L 544 3500 
L 1119 3500 
L 1119 1403 
Q 1119 906 1312 657 
Q 1506 409 1894 409 
Q 2359 409 2629 706 
Q 2900 1003 2900 1516 
L 2900 3500 
L 3475 3500 
L 3475 0 
L 2900 0 
L 2900 538 
Q 2691 219 2414 64 
Q 2138 -91 1772 -91 
Q 1169 -91 856 284 
Q 544 659 544 1381 
z
M 1991 3584 
L 1991 3584 
z
" id="DejaVuSans-75" transform="scale(0.015625)"/>
       <path d="M 2834 3397 
L 2834 2853 
Q 2591 2978 2328 3040 
Q 2066 3103 1784 3103 
Q 1356 3103 1142 2972 
Q 928 2841 928 2578 
Q 928 2378 1081 2264 
Q 1234 2150 1697 2047 
L 1894 2003 
Q 2506 1872 2764 1633 
Q 3022 1394 3022 966 
Q 3022 478 2636 193 
Q 2250 -91 1575 -91 
Q 1294 -91 989 -36 
Q 684 19 347 128 
L 347 722 
Q 666 556 975 473 
Q 1284 391 1588 391 
Q 1994 391 2212 530 
Q 2431 669 2431 922 
Q 2431 1156 2273 1281 
Q 2116 1406 1581 1522 
L 1381 1569 
Q 847 1681 609 1914 
Q 372 2147 372 2553 
Q 372 3047 722 3315 
Q 1072 3584 1716 3584 
Q 2034 3584 2315 3537 
Q 2597 3491 2834 3397 
z
" id="DejaVuSans-73" transform="scale(0.015625)"/>
      </defs>
      <use xlink:href="#DejaVuSans-43"/>
      <use x="69.824219" xlink:href="#DejaVuSans-6f"/>
      <use x="131.005859" xlink:href="#DejaVuSans-75"/>
      <use x="194.384766" xlink:href="#DejaVuSans-6e"/>
      <use x="257.763672" xlink:href="#DejaVuSans-74"/>
      <use x="296.972656" xlink:href="#DejaVuSans-73"/>
     </g>
    </g>
   </g>
   <g id="line2d_15">
    <path clip-path="url(#pf61796bba4)" d="M 73.832727 256.01753 
L 73.991327 250.789653 
L 74.149928 250.658956 
L 74.308528 247.914321 
L 74.467128 253.403592 
L 74.625728 250.92035 
L 74.784328 257.193802 
L 74.942928 257.455196 
L 75.260129 250.658956 
L 75.418729 252.61941 
L 75.577329 257.063105 
L 75.735929 257.324499 
L 75.894529 254.187773 
L 76.05313 254.841258 
L 76.21173 256.540318 
L 76.37033 260.853316 
L 76.52893 255.886833 
L 76.68753 261.245407 
L 76.84613 255.886833 
L 77.004731 254.449167 
L 77.163331 261.376104 
L 77.321931 254.449167 
L 77.480531 258.892862 
L 77.639131 267.518859 
L 77.956332 249.482684 
L 78.273532 261.11471 
L 78.432132 252.096622 
L 78.590732 251.443138 
L 78.749333 261.245407 
L 78.907933 256.278924 
L 79.066533 256.540318 
L 79.225133 259.807741 
L 79.383733 250.528259 
L 79.542333 248.306412 
L 79.700934 253.142198 
L 79.859534 248.306412 
L 80.176734 256.671015 
L 80.335334 252.358016 
L 80.493934 258.500771 
L 80.811135 251.965925 
L 80.969735 258.500771 
L 81.128335 257.063105 
L 81.286935 250.789653 
L 81.604136 258.239378 
L 81.762736 247.52223 
L 81.921336 262.290982 
L 82.079936 255.102652 
L 82.238536 253.664985 
L 82.397136 257.324499 
L 82.555737 257.063105 
L 82.872937 251.704532 
L 83.190137 255.886833 
L 83.348737 250.528259 
L 83.507338 257.977984 
L 83.665938 254.187773 
L 83.983138 260.722619 
L 84.141738 252.096622 
L 84.300338 255.625439 
L 84.458939 252.880804 
L 84.617539 256.932408 
L 84.776139 257.977984 
L 84.934739 250.266865 
L 85.093339 257.455196 
L 85.251939 259.023559 
L 85.56914 253.011501 
L 85.72774 254.710561 
L 85.88634 251.051047 
L 86.04494 260.461225 
L 86.20354 253.534288 
L 86.362141 252.227319 
L 86.679341 257.063105 
L 86.837941 257.193802 
L 86.996541 252.880804 
L 87.155141 257.324499 
L 87.313742 250.266865 
L 87.472342 257.847287 
L 87.630942 251.443138 
L 87.789542 257.585893 
L 87.948142 247.130139 
L 88.265343 256.278924 
L 88.423943 251.312441 
L 88.582543 257.193802 
L 88.741143 248.437109 
L 88.899743 250.92035 
L 89.058343 255.494742 
L 89.216944 250.136169 
L 89.375544 250.397562 
L 89.534144 257.193802 
L 89.692744 253.664985 
L 89.851344 258.108681 
L 90.168545 251.443138 
L 90.327145 258.370075 
L 90.485745 258.370075 
L 90.644345 251.573835 
L 90.961545 255.886833 
L 91.120146 255.756136 
L 91.278746 256.01753 
L 91.437346 262.290982 
L 91.595946 253.926379 
L 91.913147 251.312441 
L 92.071747 260.984013 
L 92.230347 252.61941 
L 92.388947 255.756136 
L 92.547547 250.136169 
L 92.706147 253.926379 
L 92.864748 250.397562 
L 93.023348 250.789653 
L 93.181948 255.364045 
L 93.340548 256.278924 
L 93.499148 254.579864 
L 93.657748 255.494742 
L 93.816349 249.351987 
L 93.974949 256.801712 
L 94.133549 249.874775 
L 94.292149 253.272895 
L 94.450749 253.534288 
L 94.609349 260.461225 
L 94.76795 251.835229 
L 94.92655 257.063105 
L 95.08515 250.136169 
L 95.24375 252.750107 
L 95.40235 253.142198 
L 95.56095 252.096622 
L 95.719551 263.205861 
L 96.036751 251.573835 
L 96.353951 260.722619 
L 96.512551 259.023559 
L 96.671152 252.61941 
L 96.988352 259.284953 
L 97.146952 251.181744 
L 97.305552 255.756136 
L 97.464152 248.829199 
L 97.622753 255.364045 
L 97.781353 252.227319 
L 97.939953 259.154256 
L 98.098553 254.449167 
L 98.415753 261.637498 
L 98.574354 257.193802 
L 98.732954 248.829199 
L 99.050154 260.461225 
L 99.208754 256.932408 
L 99.367354 259.938438 
L 99.525955 256.671015 
L 99.684555 247.652927 
L 100.001755 258.108681 
L 100.160355 253.403592 
L 100.318955 256.278924 
L 100.477556 262.421679 
L 100.636156 252.750107 
L 100.794756 253.011501 
L 100.953356 259.938438 
L 101.111956 249.482684 
L 101.270556 259.284953 
L 101.429157 254.449167 
L 101.587757 263.075164 
L 101.746357 254.579864 
L 101.904957 259.807741 
L 102.063557 252.096622 
L 102.380758 257.063105 
L 102.539358 258.239378 
L 102.697958 256.01753 
L 102.856558 261.11471 
L 103.173758 252.096622 
L 103.332359 255.494742 
L 103.490959 262.421679 
L 103.649559 250.397562 
L 103.808159 254.579864 
L 103.966759 252.488713 
L 104.12536 253.534288 
L 104.28396 253.664985 
L 104.44256 255.625439 
L 104.60116 254.841258 
L 104.75976 254.971955 
L 104.91836 253.926379 
L 105.076961 259.154256 
L 105.235561 250.789653 
L 105.394161 256.932408 
L 105.552761 257.063105 
L 105.711361 252.358016 
L 105.869961 254.449167 
L 106.028562 252.096622 
L 106.187162 251.704532 
L 106.345762 254.971955 
L 106.504362 253.142198 
L 106.662962 259.807741 
L 106.821562 258.631468 
L 106.980163 262.683073 
L 107.138763 256.801712 
L 107.614563 252.358016 
L 107.773163 259.938438 
L 107.931764 249.351987 
L 108.248964 259.023559 
L 108.407564 247.391533 
L 108.724764 257.193802 
L 108.883365 248.959896 
L 109.041965 258.892862 
L 109.200565 258.370075 
L 109.359165 259.41565 
L 109.517765 245.82317 
L 109.834966 281.111339 
L 109.993566 243.993413 
L 110.152166 253.664985 
L 110.310766 251.181744 
L 110.469366 263.728648 
L 110.627966 255.756136 
L 110.786567 256.278924 
L 110.945167 252.096622 
L 111.103767 254.579864 
L 111.262367 251.312441 
L 111.420967 257.063105 
L 111.579567 253.795682 
L 111.738168 262.421679 
L 111.896768 259.284953 
L 112.055368 252.488713 
L 112.213968 257.585893 
L 112.372568 247.652927 
L 112.531168 255.756136 
L 112.689769 255.625439 
L 112.848369 255.756136 
L 113.006969 259.938438 
L 113.165569 248.306412 
L 113.324169 256.540318 
L 113.482769 248.437109 
L 113.64137 261.376104 
L 113.79997 256.278924 
L 113.95857 258.631468 
L 114.11717 257.324499 
L 114.27577 253.926379 
L 114.43437 256.932408 
L 114.592971 262.160285 
L 114.910171 253.795682 
L 115.068771 252.096622 
L 115.227371 242.555747 
L 115.385971 256.801712 
L 115.544572 255.494742 
L 115.861772 246.084564 
L 116.020372 252.227319 
L 116.178972 252.880804 
L 116.337573 249.874775 
L 116.496173 267.388162 
L 116.654773 248.698502 
L 116.813373 268.172344 
L 116.971973 245.953867 
L 117.130573 256.148227 
L 117.289174 251.181744 
L 117.447774 271.30907 
L 117.764974 259.023559 
L 117.923574 255.364045 
L 118.716575 255.364045 
L 118.875175 260.722619 
L 119.033775 260.984013 
L 119.192376 253.272895 
L 119.350976 264.774224 
L 119.509576 258.500771 
L 119.668176 244.646898 
L 119.826776 255.233348 
L 119.985376 253.142198 
L 120.143977 253.403592 
L 120.302577 255.756136 
L 120.461177 254.841258 
L 120.619777 259.938438 
L 120.778377 247.260836 
L 121.095578 262.160285 
L 121.412778 251.443138 
L 121.571378 259.677044 
L 121.729978 256.409621 
L 121.888578 257.063105 
L 122.047179 254.579864 
L 122.205779 247.130139 
L 122.522979 269.740707 
L 122.840179 262.81377 
L 122.99878 270.916979 
L 123.15738 251.312441 
L 123.31598 259.938438 
L 123.47458 252.358016 
L 123.63318 251.312441 
L 123.79178 251.312441 
L 123.950381 255.364045 
L 124.108981 263.859345 
L 124.267581 264.904921 
L 124.426181 253.011501 
L 124.584781 250.528259 
L 124.743381 254.057076 
L 124.901982 268.564434 
L 125.060582 254.057076 
L 125.219182 259.938438 
L 125.377782 249.482684 
L 125.536382 261.506801 
L 125.694982 247.52223 
L 126.012183 246.868746 
L 126.170783 245.953867 
L 126.329383 256.540318 
L 126.487983 251.573835 
L 126.646583 256.278924 
L 126.805184 254.710561 
L 126.963784 264.382133 
L 127.122384 255.364045 
L 127.439584 259.41565 
L 127.756785 254.057076 
L 127.915385 254.187773 
L 128.073985 266.996071 
L 128.232585 247.130139 
L 128.391185 247.391533 
L 128.708386 270.786282 
L 129.025586 246.868746 
L 129.184186 265.427708 
L 129.501387 244.254807 
L 129.659987 261.898891 
L 129.818587 255.756136 
L 129.977187 267.126768 
L 130.135787 251.051047 
L 130.294387 251.443138 
L 130.452988 244.646898 
L 130.770188 255.102652 
L 130.928788 256.148227 
L 131.087388 261.506801 
L 131.245988 260.069135 
L 131.404589 263.205861 
L 131.563189 254.449167 
L 131.721789 235.367417 
L 131.880389 252.880804 
L 132.038989 295.488 
L 132.197589 268.695131 
L 132.35619 263.075164 
L 132.51479 241.771566 
L 132.67339 271.30907 
L 132.83199 261.245407 
L 132.99059 265.819799 
L 133.14919 257.585893 
L 133.307791 225.957238 
L 133.624991 267.257465 
L 133.783591 255.233348 
L 133.942191 252.488713 
L 134.100791 234.975326 
L 134.259392 286.469912 
L 134.576592 238.504143 
L 134.893792 283.59458 
L 135.052392 248.306412 
L 135.210993 252.750107 
L 135.369593 240.072506 
L 135.528193 251.835229 
L 135.686793 235.23672 
L 136.003993 257.455196 
L 136.162594 251.835229 
L 136.321194 261.11471 
L 136.479794 245.431079 
L 136.638394 246.868746 
L 136.796994 244.12411 
L 136.955594 248.829199 
L 137.114195 269.217919 
L 137.431395 248.306412 
L 137.589995 254.057076 
L 137.748595 252.358016 
L 137.907195 252.61941 
L 138.065796 260.199831 
L 138.224396 251.573835 
L 138.382996 250.397562 
L 138.700196 262.552376 
L 138.858796 254.710561 
L 139.017397 257.71659 
L 139.334597 251.704532 
L 139.493197 265.819799 
L 139.651797 253.142198 
L 139.810397 253.142198 
L 139.968998 256.801712 
L 140.127598 256.409621 
L 140.286198 261.637498 
L 140.444798 259.023559 
L 140.603398 259.154256 
L 140.761998 257.585893 
L 141.079199 248.959896 
L 141.237799 255.625439 
L 141.554999 255.102652 
L 141.7136 245.692473 
L 142.0308 259.41565 
L 142.1894 249.22129 
L 142.348 255.364045 
L 142.5066 254.449167 
L 142.665201 258.239378 
L 142.823801 245.300382 
L 142.982401 253.011501 
L 143.299601 250.266865 
L 143.458201 258.631468 
L 143.616802 251.443138 
L 143.775402 252.61941 
L 143.934002 256.01753 
L 144.092602 253.534288 
L 144.251202 248.306412 
L 144.409802 259.807741 
L 144.568403 251.443138 
L 144.727003 251.704532 
L 144.885603 249.22129 
L 145.044203 267.649556 
L 145.202803 270.394191 
L 145.361403 257.324499 
L 145.520004 277.582522 
L 145.678604 248.698502 
L 145.837204 251.704532 
L 145.995804 250.658956 
L 146.154404 259.938438 
L 146.313004 245.431079 
L 146.471605 265.950496 
L 146.630205 235.759507 
L 146.788805 255.364045 
L 150.595209 255.364045 
L 150.753809 246.084564 
L 150.912409 275.229977 
L 151.071009 250.658956 
L 151.38821 261.898891 
L 151.54681 250.005472 
L 151.70541 248.567806 
L 151.86401 254.579864 
L 152.181211 248.567806 
L 152.339811 262.552376 
L 152.498411 249.613381 
L 152.815611 263.075164 
L 153.132812 254.710561 
L 153.291412 256.148227 
L 153.450012 247.52223 
L 153.608612 247.391533 
L 153.767212 258.108681 
L 153.925812 256.409621 
L 154.084413 253.403592 
L 154.243013 258.500771 
L 154.401613 246.607352 
L 154.560213 261.637498 
L 154.718813 242.032959 
L 154.877414 256.540318 
L 155.036014 256.278924 
L 155.194614 249.22129 
L 155.353214 260.069135 
L 155.670414 245.953867 
L 155.829015 251.573835 
L 155.987615 244.385504 
L 156.146215 247.260836 
L 156.463415 258.239378 
L 156.622015 248.959896 
L 156.780616 263.467254 
L 156.939216 231.8386 
L 157.256416 259.938438 
L 157.415016 241.118081 
L 157.890817 268.433737 
L 158.049417 241.379475 
L 158.208017 245.561776 
L 158.366617 262.160285 
L 158.525217 243.993413 
L 158.683818 249.090593 
L 158.842418 284.378762 
L 159.001018 274.576493 
L 159.159618 255.364045 
L 160.111219 255.364045 
L 160.269819 248.698502 
L 160.428419 267.780253 
L 160.74562 237.066476 
L 160.90422 249.744078 
L 161.06282 236.93578 
L 161.22142 253.272895 
L 161.38002 244.516201 
L 161.538621 261.637498 
L 161.697221 241.902263 
L 161.855821 277.713219 
L 162.173021 249.874775 
L 162.490222 259.677044 
L 162.648822 243.209232 
L 162.807422 270.394191 
L 163.124622 239.419021 
L 163.283222 279.150885 
L 163.600423 228.44048 
L 163.759023 259.938438 
L 163.917623 226.610723 
L 164.076223 265.427708 
L 164.552024 238.242749 
L 164.710624 258.631468 
L 164.869224 241.248778 
L 165.027824 244.12411 
L 165.345025 232.753478 
L 165.503625 240.987384 
L 165.662225 255.364045 
L 168.992829 255.364045 
L 169.151429 262.81377 
L 169.468629 259.154256 
L 169.627229 246.476655 
L 169.94443 263.467254 
L 170.10303 262.160285 
L 170.26163 231.446509 
L 170.42023 252.488713 
L 170.57883 242.686444 
L 170.896031 256.148227 
L 171.054631 276.40625 
L 171.371831 235.106023 
L 171.530431 257.324499 
L 171.689031 246.607352 
L 171.847632 278.10531 
L 172.164832 246.999442 
L 172.323432 253.795682 
L 172.482032 270.655585 
L 172.640632 231.054418 
L 172.799233 234.583235 
L 172.957833 252.096622 
L 173.116433 256.278924 
L 173.275033 249.090593 
L 173.433633 249.874775 
L 173.592233 265.297011 
L 173.750834 265.297011 
L 173.909434 245.300382 
L 174.068034 265.427708 
L 174.226634 249.874775 
L 174.385234 252.358016 
L 174.543834 250.789653 
L 174.702435 270.0021 
L 175.178235 250.92035 
L 175.336835 255.756136 
L 175.654036 255.494742 
L 175.812636 252.61941 
L 175.971236 256.932408 
L 176.129836 250.266865 
L 176.288436 249.090593 
L 176.447036 254.579864 
L 176.605637 256.148227 
L 176.764237 252.358016 
L 176.922837 256.540318 
L 177.081437 256.671015 
L 177.240037 255.102652 
L 177.398637 256.148227 
L 177.557238 237.981355 
L 177.715838 267.649556 
L 177.874438 272.746736 
L 178.033038 247.52223 
L 178.191638 253.926379 
L 178.350238 246.215261 
L 178.508839 253.534288 
L 178.667439 266.081193 
L 178.826039 255.494742 
L 178.984639 255.886833 
L 179.143239 253.795682 
L 179.301839 256.148227 
L 179.61904 267.388162 
L 180.09484 244.646898 
L 180.253441 254.841258 
L 180.412041 256.01753 
L 180.570641 239.288324 
L 180.729241 241.379475 
L 180.887841 255.102652 
L 181.046441 239.419021 
L 181.363642 272.223948 
L 181.522242 250.528259 
L 181.680842 263.990042 
L 181.839442 259.41565 
L 181.998042 247.391533 
L 182.156643 262.290982 
L 182.315243 252.880804 
L 182.473843 251.704532 
L 182.632443 247.391533 
L 182.791043 251.573835 
L 182.949643 258.762165 
L 183.584044 250.92035 
L 183.742644 260.199831 
L 183.901244 257.455196 
L 184.218445 264.51283 
L 184.377045 248.175715 
L 184.535645 250.528259 
L 184.694245 259.154256 
L 185.011446 250.136169 
L 185.170046 254.579864 
L 185.328646 251.573835 
L 185.487246 256.671015 
L 185.804446 249.874775 
L 185.963047 253.795682 
L 186.121647 244.516201 
L 186.280247 257.847287 
L 186.438847 248.829199 
L 186.597447 263.336558 
L 186.756047 263.859345 
L 186.914648 249.874775 
L 187.073248 260.461225 
L 187.231848 245.692473 
L 187.549048 256.932408 
L 187.707648 253.795682 
L 187.866249 259.284953 
L 188.024849 251.704532 
L 188.183449 249.482684 
L 188.342049 253.142198 
L 188.500649 246.999442 
L 188.81785 260.853316 
L 188.97645 246.607352 
L 189.13505 246.607352 
L 189.29365 256.409621 
L 189.45225 247.914321 
L 189.61085 259.41565 
L 189.769451 256.801712 
L 190.086651 261.768194 
L 190.245251 246.738049 
L 190.403851 251.704532 
L 190.562451 250.005472 
L 190.721052 252.750107 
L 190.879652 252.750107 
L 191.038252 248.829199 
L 191.196852 255.364045 
L 191.355452 256.148227 
L 191.514052 252.358016 
L 191.672653 260.591922 
L 191.989853 251.051047 
L 192.148453 251.443138 
L 192.307053 266.734677 
L 192.624254 258.892862 
L 192.941454 234.844629 
L 193.100054 260.069135 
L 193.417255 265.689102 
L 193.734455 253.142198 
L 193.893055 253.534288 
L 194.051655 247.783624 
L 194.210255 255.494742 
L 194.368856 251.181744 
L 194.686056 264.251436 
L 195.003256 251.181744 
L 195.320457 258.239378 
L 195.479057 252.750107 
L 195.637657 241.248778 
L 195.954857 262.290982 
L 196.113457 254.971955 
L 196.272058 255.364045 
L 196.430658 260.330528 
L 196.589258 258.762165 
L 196.747858 249.22129 
L 196.906458 250.789653 
L 197.065058 244.516201 
L 197.382259 259.938438 
L 197.540859 254.971955 
L 197.699459 253.664985 
L 198.016659 256.278924 
L 198.17526 246.738049 
L 198.33386 244.254807 
L 198.65106 254.187773 
L 198.80966 253.534288 
L 198.96826 251.835229 
L 199.126861 256.409621 
L 199.285461 251.181744 
L 199.444061 253.795682 
L 199.602661 248.959896 
L 199.761261 251.051047 
L 199.919861 256.540318 
L 200.237062 247.260836 
L 200.395662 254.449167 
L 200.554262 251.443138 
L 200.712862 244.777595 
L 200.871462 245.692473 
L 201.030063 249.744078 
L 201.188663 250.658956 
L 201.347263 239.02693 
L 201.505863 247.783624 
L 201.664463 243.470626 
L 202.140264 252.096622 
L 202.298864 243.209232 
L 202.457464 247.652927 
L 202.774664 248.698502 
L 202.933265 236.805083 
L 203.091865 245.561776 
L 203.250465 241.510172 
L 203.567665 245.038989 
L 203.726265 245.82317 
L 203.884866 244.254807 
L 204.043466 248.567806 
L 204.202066 244.646898 
L 204.360666 245.038989 
L 204.519266 239.680415 
L 204.836467 242.686444 
L 204.995067 246.868746 
L 205.153667 237.719961 
L 205.312267 245.038989 
L 205.470867 242.42505 
L 205.629468 241.902263 
L 205.788068 238.112052 
L 205.946668 238.242749 
L 206.105268 239.680415 
L 206.263868 234.975326 
L 206.422468 246.215261 
L 206.581069 238.765536 
L 206.739669 238.765536 
L 206.898269 240.3339 
L 207.056869 233.145569 
L 207.215469 232.361387 
L 207.374069 240.3339 
L 207.69127 233.799053 
L 207.84987 228.048389 
L 208.00847 231.707903 
L 208.16707 230.923721 
L 208.32567 227.656298 
L 208.642871 233.668357 
L 208.801471 218.768908 
L 208.960071 230.400934 
L 209.118671 224.258178 
L 209.277271 233.014872 
L 209.435872 220.467968 
L 209.594472 227.264207 
L 209.911672 216.677757 
L 210.070272 223.996784 
L 210.228872 212.495455 
L 210.387473 217.592635 
L 210.546073 206.483397 
L 210.863273 214.063818 
L 211.021873 203.869459 
L 211.180473 214.063818 
L 211.497674 205.045731 
L 211.814874 203.477368 
L 211.973474 194.328583 
L 212.132074 193.413705 
L 212.449275 201.909005 
L 212.925075 182.696558 
L 213.083675 187.27095 
L 213.242276 182.043073 
L 213.400876 181.128194 
L 213.559476 174.724045 
L 213.718076 175.508227 
L 213.876676 170.28035 
L 214.035276 169.104078 
L 214.193877 159.824596 
L 214.352477 161.392959 
L 214.511077 164.137595 
L 214.669677 161.78505 
L 214.828277 143.748875 
L 214.986877 152.766963 
L 215.145478 153.420447 
L 215.304078 150.153024 
L 215.462678 151.852084 
L 215.621278 141.00424 
L 215.779878 139.958665 
L 215.938478 130.287092 
L 216.097079 129.764305 
L 216.255679 138.128908 
L 216.414279 128.588032 
L 216.731479 141.527028 
L 217.20728 121.791793 
L 217.36588 124.797822 
L 217.52448 118.655066 
L 217.68308 116.956006 
L 217.841681 117.870885 
L 218.000281 104.409102 
L 218.158881 103.23283 
L 218.317481 96.044499 
L 218.476081 103.363527 
L 218.634681 101.664467 
L 218.793282 93.691955 
L 218.951882 93.299864 
L 219.427682 73.303235 
L 219.586282 72.388357 
L 219.744883 53.568 
L 220.062083 69.382327 
L 220.220683 56.312635 
L 220.537883 76.832052 
L 220.696484 78.531112 
L 220.855084 69.25163 
L 221.489484 125.189912 
L 221.648085 128.718729 
L 221.965285 145.317238 
L 222.758286 200.471339 
L 222.916886 203.085277 
L 223.075486 203.085277 
L 223.234086 225.173057 
L 223.392686 210.012214 
L 223.868487 231.8386 
L 224.027087 231.8386 
L 224.185687 232.361387 
L 224.344287 236.282295 
L 224.661488 230.662327 
L 224.820088 243.339929 
L 224.978688 242.817141 
L 225.295888 246.868746 
L 225.454489 245.300382 
L 225.613089 245.561776 
L 225.930289 243.732019 
L 226.088889 249.744078 
L 226.247489 245.300382 
L 226.40609 254.710561 
L 226.72329 247.52223 
L 226.88189 252.750107 
L 227.04049 248.959896 
L 227.357691 251.443138 
L 227.516291 255.756136 
L 227.674891 248.959896 
L 227.833491 248.698502 
L 227.992091 247.652927 
L 228.150691 256.932408 
L 228.309292 256.540318 
L 228.467892 258.500771 
L 228.785092 248.045018 
L 228.943692 257.847287 
L 229.102292 255.233348 
L 229.260893 256.801712 
L 229.419493 247.914321 
L 229.578093 250.789653 
L 229.736693 256.932408 
L 229.895293 254.449167 
L 230.053894 256.148227 
L 230.212494 249.482684 
L 230.529694 257.324499 
L 230.688294 256.540318 
L 230.846894 258.631468 
L 231.005495 250.266865 
L 231.322695 254.31847 
L 231.481295 253.795682 
L 231.639895 255.625439 
L 231.798495 252.227319 
L 231.957096 256.01753 
L 232.115696 254.579864 
L 232.274296 251.573835 
L 232.432896 252.488713 
L 232.591496 252.61941 
L 232.750096 260.591922 
L 232.908697 256.01753 
L 233.067297 256.671015 
L 233.225897 250.92035 
L 233.384497 255.886833 
L 233.543097 253.795682 
L 233.701697 254.449167 
L 233.860298 247.652927 
L 234.018898 258.239378 
L 234.177498 257.977984 
L 234.336098 258.239378 
L 234.494698 256.932408 
L 234.811899 252.488713 
L 235.129099 251.573835 
L 235.446299 256.932408 
L 235.604899 258.108681 
L 235.7635 257.193802 
L 235.9221 257.585893 
L 236.0807 247.914321 
L 236.2393 252.096622 
L 236.3979 249.874775 
L 236.5565 262.552376 
L 236.715101 259.284953 
L 236.873701 251.181744 
L 237.032301 251.573835 
L 237.190901 252.61941 
L 237.349501 259.938438 
L 237.508101 256.01753 
L 237.666702 256.01753 
L 237.825302 253.272895 
L 237.983902 264.120739 
L 238.142502 251.965925 
L 238.459702 256.278924 
L 238.618303 254.579864 
L 238.776903 254.187773 
L 238.935503 252.750107 
L 239.252703 262.029588 
L 239.411303 254.057076 
L 239.569904 256.932408 
L 239.728504 253.534288 
L 239.887104 256.932408 
L 240.045704 254.710561 
L 240.204304 257.324499 
L 240.362904 249.874775 
L 240.521505 256.540318 
L 240.680105 255.494742 
L 240.838705 256.01753 
L 240.997305 261.898891 
L 241.155905 253.664985 
L 241.314505 252.358016 
L 241.473106 257.585893 
L 241.631706 256.278924 
L 241.790306 259.677044 
L 241.948906 252.358016 
L 242.107506 251.704532 
L 242.266106 248.829199 
L 242.424707 261.11471 
L 242.583307 255.494742 
L 242.741907 256.801712 
L 242.900507 252.096622 
L 243.059107 251.443138 
L 243.217708 248.829199 
L 243.376308 258.370075 
L 243.693508 256.540318 
L 243.852108 256.671015 
L 244.010708 251.704532 
L 244.169309 254.971955 
L 244.327909 255.494742 
L 244.645109 248.437109 
L 244.803709 258.108681 
L 244.962309 258.370075 
L 245.12091 252.488713 
L 245.27951 257.977984 
L 245.43811 257.977984 
L 245.59671 254.579864 
L 245.75531 256.409621 
L 245.91391 254.841258 
L 246.231111 261.245407 
L 246.548311 253.795682 
L 246.706911 255.364045 
L 246.865511 253.795682 
L 247.024112 254.710561 
L 247.341312 260.853316 
L 247.658512 250.397562 
L 247.817112 254.31847 
L 247.975713 247.783624 
L 248.134313 253.795682 
L 248.292913 255.494742 
L 248.451513 252.750107 
L 248.610113 254.187773 
L 248.768713 248.175715 
L 248.927314 255.233348 
L 249.085914 254.31847 
L 249.244514 259.41565 
L 249.561714 252.227319 
L 249.720314 258.500771 
L 249.878915 254.31847 
L 250.037515 254.971955 
L 250.196115 248.698502 
L 250.354715 256.932408 
L 250.513315 256.01753 
L 250.671915 250.136169 
L 250.989116 259.41565 
L 251.147716 259.677044 
L 251.464916 252.358016 
L 251.623516 256.409621 
L 251.782117 253.926379 
L 251.940717 259.807741 
L 252.099317 249.613381 
L 252.257917 258.108681 
L 252.416517 254.057076 
L 252.575117 253.795682 
L 252.733718 255.494742 
L 252.892318 251.835229 
L 253.368118 256.01753 
L 253.526718 256.278924 
L 253.685319 254.710561 
L 253.843919 254.710561 
L 254.002519 255.625439 
L 254.161119 253.142198 
L 254.478319 255.756136 
L 254.63692 252.880804 
L 254.79552 253.795682 
L 254.95412 256.409621 
L 255.11272 255.494742 
L 255.27132 250.136169 
L 255.429921 254.841258 
L 255.588521 252.358016 
L 255.747121 252.358016 
L 255.905721 251.835229 
L 256.064321 257.455196 
L 256.222921 257.585893 
L 256.381522 260.591922 
L 256.540122 255.364045 
L 256.698722 260.330528 
L 256.857322 253.534288 
L 257.015922 253.011501 
L 257.174522 253.403592 
L 257.333123 253.272895 
L 257.491723 259.154256 
L 257.650323 253.011501 
L 257.967523 255.886833 
L 258.126123 255.625439 
L 258.284724 259.154256 
L 258.443324 251.051047 
L 258.601924 255.102652 
L 258.760524 252.227319 
L 258.919124 254.057076 
L 259.077724 252.488713 
L 259.236325 260.330528 
L 259.553525 249.874775 
L 259.870725 255.625439 
L 260.029325 249.351987 
L 260.187926 256.801712 
L 260.346526 251.965925 
L 260.663726 259.807741 
L 260.822326 254.057076 
L 260.980926 254.710561 
L 261.139527 259.023559 
L 261.298127 254.187773 
L 261.615327 256.01753 
L 261.773927 252.880804 
L 261.932527 258.892862 
L 262.091128 253.534288 
L 262.249728 256.409621 
L 262.408328 263.336558 
L 262.566928 253.272895 
L 262.725528 250.92035 
L 262.884128 255.886833 
L 263.042729 253.403592 
L 263.201329 254.057076 
L 263.359929 255.886833 
L 263.677129 254.187773 
L 263.835729 257.977984 
L 263.99433 257.455196 
L 264.15293 252.750107 
L 264.31153 257.193802 
L 264.62873 254.187773 
L 264.78733 259.41565 
L 265.104531 252.61941 
L 265.421731 258.239378 
L 265.580331 251.965925 
L 265.738931 261.637498 
L 265.897532 252.61941 
L 266.056132 256.671015 
L 266.214732 256.278924 
L 266.373332 260.853316 
L 266.531932 256.148227 
L 266.690532 255.494742 
L 266.849133 259.546347 
L 267.007733 256.148227 
L 267.166333 257.847287 
L 267.324933 252.880804 
L 267.483533 254.579864 
L 267.642133 259.677044 
L 267.800734 257.71659 
L 267.959334 248.698502 
L 268.117934 259.938438 
L 268.276534 259.41565 
L 268.435134 251.181744 
L 268.593735 253.664985 
L 268.752335 258.500771 
L 268.910935 259.023559 
L 269.069535 251.051047 
L 269.228135 256.671015 
L 269.545336 251.704532 
L 269.703936 259.023559 
L 269.862536 252.488713 
L 270.021136 253.011501 
L 270.179736 251.443138 
L 270.338336 252.61941 
L 270.496937 256.540318 
L 270.655537 255.233348 
L 270.814137 257.193802 
L 271.131337 251.573835 
L 271.289937 255.102652 
L 271.448538 254.187773 
L 271.607138 256.540318 
L 271.765738 251.312441 
L 271.924338 257.71659 
L 272.082938 249.613381 
L 272.241538 258.108681 
L 272.400139 258.239378 
L 272.875939 251.835229 
L 273.193139 256.932408 
L 273.35174 256.148227 
L 273.51034 251.312441 
L 273.66894 253.534288 
L 273.82754 257.977984 
L 273.98614 257.063105 
L 274.303341 245.953867 
L 274.779141 254.579864 
L 274.937741 255.364045 
L 275.096341 257.585893 
L 275.254942 255.364045 
L 275.413542 254.841258 
L 275.572142 249.744078 
L 275.730742 257.977984 
L 275.889342 255.494742 
L 276.047942 260.853316 
L 276.206543 254.057076 
L 276.365143 261.245407 
L 276.523743 255.102652 
L 276.682343 256.671015 
L 276.999543 254.31847 
L 277.158144 257.193802 
L 277.316744 255.233348 
L 277.475344 256.01753 
L 277.633944 254.31847 
L 277.792544 258.892862 
L 277.951144 258.500771 
L 278.109745 256.148227 
L 278.426945 263.597951 
L 278.585545 248.959896 
L 278.744145 256.409621 
L 278.902745 254.579864 
L 279.061346 261.245407 
L 279.219946 255.494742 
L 279.378546 255.756136 
L 279.537146 254.187773 
L 279.695746 262.81377 
L 279.854346 257.585893 
L 280.012947 257.063105 
L 280.171547 257.455196 
L 280.330147 260.984013 
L 280.488747 255.494742 
L 280.647347 255.756136 
L 280.805948 253.534288 
L 280.964548 260.591922 
L 281.123148 260.069135 
L 281.281748 256.01753 
L 281.440348 264.904921 
L 281.598948 258.108681 
L 281.916149 257.324499 
L 282.074749 258.762165 
L 282.233349 254.057076 
L 282.391949 257.455196 
L 282.550549 257.193802 
L 282.86775 252.358016 
L 283.02635 255.364045 
L 283.18495 250.397562 
L 283.34355 254.187773 
L 283.660751 253.795682 
L 283.819351 253.795682 
L 283.977951 257.324499 
L 284.136551 250.266865 
L 284.295151 255.886833 
L 284.453751 256.148227 
L 284.612352 254.187773 
L 284.770952 263.467254 
L 285.246752 249.351987 
L 285.405352 256.801712 
L 285.563953 257.455196 
L 285.722553 251.443138 
L 285.881153 251.312441 
L 286.198353 257.455196 
L 286.356953 256.409621 
L 286.515554 253.011501 
L 286.674154 254.057076 
L 286.832754 250.397562 
L 286.991354 253.011501 
L 287.308554 262.683073 
L 287.467155 260.722619 
L 287.625755 252.880804 
L 287.784355 252.61941 
L 287.942955 257.847287 
L 288.260155 253.534288 
L 288.418756 256.01753 
L 288.577356 256.01753 
L 288.894556 252.358016 
L 289.211756 257.977984 
L 289.528957 254.057076 
L 289.687557 255.756136 
L 290.004757 251.704532 
L 290.163357 255.756136 
L 290.321958 254.31847 
L 290.480558 262.552376 
L 290.639158 256.01753 
L 290.797758 258.631468 
L 290.956358 254.841258 
L 291.114958 261.376104 
L 291.432159 252.358016 
L 291.590759 252.61941 
L 291.749359 258.108681 
L 291.907959 255.756136 
L 292.066559 256.671015 
L 292.22516 253.534288 
L 292.38376 253.534288 
L 292.54236 254.449167 
L 292.70096 253.534288 
L 292.85956 254.841258 
L 293.018161 255.102652 
L 293.176761 256.801712 
L 293.335361 253.011501 
L 293.493961 255.886833 
L 293.652561 262.290982 
L 293.969762 251.965925 
L 294.128362 255.102652 
L 294.286962 252.750107 
L 294.445562 257.193802 
L 294.604162 257.585893 
L 294.762762 252.227319 
L 294.921363 260.722619 
L 295.238563 252.880804 
L 295.397163 256.409621 
L 295.714363 251.965925 
L 295.872964 252.61941 
L 296.031564 251.835229 
L 296.190164 257.71659 
L 296.507364 251.835229 
L 296.665964 255.494742 
L 296.824565 256.540318 
L 296.983165 259.546347 
L 297.141765 252.750107 
L 297.300365 256.801712 
L 297.458965 257.977984 
L 297.617565 256.148227 
L 297.776166 256.278924 
L 297.934766 254.841258 
L 298.093366 257.063105 
L 298.251966 260.984013 
L 298.410566 259.154256 
L 298.569166 254.187773 
L 298.727767 260.069135 
L 298.886367 246.345958 
L 299.044967 253.011501 
L 299.203567 266.342587 
L 299.362167 250.92035 
L 299.520767 251.312441 
L 299.679368 255.364045 
L 299.837968 253.403592 
L 299.996568 257.585893 
L 300.155168 253.534288 
L 300.313768 258.370075 
L 300.630969 252.880804 
L 300.789569 253.142198 
L 300.948169 258.500771 
L 301.106769 253.272895 
L 301.265369 260.069135 
L 301.58257 254.710561 
L 301.74117 254.841258 
L 301.89977 252.096622 
L 302.05837 253.534288 
L 302.21697 256.148227 
L 302.37557 251.312441 
L 302.534171 259.677044 
L 302.692771 253.403592 
L 302.851371 255.233348 
L 303.009971 259.938438 
L 303.168571 254.449167 
L 303.327171 259.154256 
L 303.485772 258.892862 
L 303.644372 258.892862 
L 303.802972 257.847287 
L 304.120172 251.704532 
L 304.278772 254.841258 
L 304.437373 251.051047 
L 304.595973 255.886833 
L 304.754573 257.324499 
L 304.913173 256.801712 
L 305.071773 260.330528 
L 305.230373 255.494742 
L 305.388974 256.148227 
L 305.547574 258.892862 
L 305.706174 249.744078 
L 305.864774 257.455196 
L 306.023374 249.744078 
L 306.181975 252.096622 
L 306.340575 258.762165 
L 306.499175 257.193802 
L 306.657775 249.351987 
L 306.816375 250.005472 
L 307.133576 254.187773 
L 307.292176 250.92035 
L 307.450776 257.847287 
L 307.609376 259.546347 
L 307.767976 254.31847 
L 307.926576 256.148227 
L 308.085177 253.272895 
L 308.243777 258.239378 
L 308.402377 259.023559 
L 308.719577 251.573835 
L 309.036778 262.160285 
L 309.195378 259.284953 
L 309.512578 247.783624 
L 309.671178 256.540318 
L 309.829778 256.148227 
L 309.988379 255.364045 
L 310.146979 246.999442 
L 310.305579 259.41565 
L 310.464179 255.102652 
L 310.622779 259.807741 
L 310.781379 259.284953 
L 310.93998 260.199831 
L 311.09858 257.71659 
L 311.25718 250.136169 
L 311.41578 258.370075 
L 311.57438 259.154256 
L 311.73298 256.540318 
L 311.891581 257.585893 
L 312.208781 255.494742 
L 312.367381 255.886833 
L 312.525981 248.698502 
L 312.843182 262.421679 
L 313.001782 253.534288 
L 313.160382 257.977984 
L 313.318982 254.449167 
L 313.477582 260.069135 
L 313.636182 255.364045 
L 313.794783 254.579864 
L 313.953383 257.193802 
L 314.111983 257.324499 
L 314.270583 249.744078 
L 314.429183 257.977984 
L 314.587783 253.142198 
L 314.746384 260.069135 
L 314.904984 252.096622 
L 315.063584 257.71659 
L 315.222184 256.801712 
L 315.380784 257.847287 
L 315.539384 262.160285 
L 315.697985 254.841258 
L 315.856585 254.187773 
L 316.015185 261.245407 
L 316.173785 256.932408 
L 316.332385 257.977984 
L 316.649586 254.187773 
L 316.808186 259.154256 
L 316.966786 259.284953 
L 317.125386 246.738049 
L 317.442586 256.01753 
L 317.601187 254.449167 
L 317.759787 254.057076 
L 318.076987 257.324499 
L 318.235587 254.31847 
L 318.394188 258.370075 
L 318.711388 251.965925 
L 319.187188 263.075164 
L 319.345789 254.579864 
L 319.504389 255.233348 
L 319.662989 257.847287 
L 319.821589 258.500771 
L 319.980189 256.932408 
L 320.138789 257.977984 
L 320.29739 260.984013 
L 320.45599 255.233348 
L 320.61459 254.710561 
L 320.93179 259.546347 
L 321.09039 257.324499 
L 321.248991 257.193802 
L 321.407591 255.756136 
L 321.566191 260.984013 
L 321.724791 260.984013 
L 321.883391 252.096622 
L 322.041991 257.455196 
L 322.200592 254.579864 
L 322.359192 254.710561 
L 322.517792 253.403592 
L 322.676392 253.926379 
L 322.834992 260.722619 
L 322.993592 255.625439 
L 323.152193 261.637498 
L 323.469393 256.01753 
L 323.786593 254.31847 
L 323.945193 261.11471 
L 324.103794 260.069135 
L 324.579594 250.92035 
L 324.738194 249.613381 
L 324.896794 260.069135 
L 325.055395 254.449167 
L 325.213995 257.324499 
L 325.372595 254.31847 
L 325.531195 254.31847 
L 325.848395 249.482684 
L 326.165596 263.728648 
L 326.324196 253.272895 
L 326.482796 253.142198 
L 326.641396 259.023559 
L 326.799996 249.874775 
L 326.958597 251.312441 
L 327.117197 260.461225 
L 327.275797 254.710561 
L 327.434397 253.011501 
L 327.592997 257.71659 
L 327.751597 253.272895 
L 327.910198 260.591922 
L 328.227398 251.443138 
L 328.385998 251.965925 
L 328.703198 257.455196 
L 329.020399 252.227319 
L 329.178999 252.358016 
L 329.337599 257.977984 
L 329.654799 254.31847 
L 329.8134 256.409621 
L 329.972 248.829199 
L 330.1306 249.482684 
L 330.2892 258.631468 
L 330.4478 254.187773 
L 330.6064 253.011501 
L 330.765001 256.278924 
L 330.923601 250.528259 
L 331.240801 255.756136 
L 331.558002 247.260836 
L 331.716602 262.421679 
L 331.875202 251.181744 
L 332.033802 257.063105 
L 332.192402 251.051047 
L 332.351002 256.801712 
L 332.509603 255.756136 
L 332.668203 253.011501 
L 332.826803 256.409621 
L 333.144003 254.841258 
L 333.302603 255.364045 
L 333.461204 254.449167 
L 333.778404 254.841258 
L 333.937004 258.892862 
L 334.095604 253.664985 
L 334.254204 254.449167 
L 334.412805 254.579864 
L 334.571405 259.284953 
L 334.888605 248.567806 
L 335.047205 263.990042 
L 335.205805 252.358016 
L 335.364406 254.841258 
L 335.523006 251.573835 
L 335.681606 257.847287 
L 335.840206 257.193802 
L 335.998806 255.756136 
L 336.157406 259.41565 
L 336.474607 251.704532 
L 336.791807 266.342587 
L 336.950407 257.455196 
L 337.109007 255.102652 
L 337.267608 255.886833 
L 337.426208 255.756136 
L 337.584808 257.977984 
L 337.743408 253.795682 
L 337.902008 258.239378 
L 338.060608 257.455196 
L 338.219209 254.971955 
L 338.536409 260.722619 
L 338.695009 253.534288 
L 338.853609 254.971955 
L 339.012209 255.233348 
L 339.17081 250.528259 
L 339.32941 257.455196 
L 339.48801 256.932408 
L 339.64661 250.005472 
L 339.80521 257.455196 
L 340.122411 250.005472 
L 340.281011 250.789653 
L 340.439611 251.573835 
L 340.598211 251.312441 
L 340.756811 249.22129 
L 340.915411 257.193802 
L 341.232612 258.762165 
L 341.391212 253.534288 
L 341.549812 258.370075 
L 341.708412 259.546347 
L 341.867012 257.977984 
L 342.025613 262.029588 
L 342.184213 251.965925 
L 342.342813 250.92035 
L 342.501413 252.880804 
L 342.660013 245.038989 
L 342.977214 263.597951 
L 343.135814 248.437109 
L 343.294414 253.011501 
L 343.453014 261.506801 
L 343.611614 255.102652 
L 343.770215 260.722619 
L 343.928815 259.41565 
L 344.246015 250.397562 
L 344.404615 253.011501 
L 344.563215 267.518859 
L 344.721816 234.191144 
L 344.880416 270.132797 
L 345.039016 244.254807 
L 345.356216 257.193802 
L 345.673417 240.464596 
L 345.832017 252.358016 
L 345.990617 254.057076 
L 346.149217 254.187773 
L 346.307817 245.038989 
L 346.625018 257.063105 
L 346.783618 254.057076 
L 346.942218 255.494742 
L 347.259418 243.993413 
L 347.418018 260.461225 
L 347.576619 254.710561 
L 347.735219 256.801712 
L 348.211019 253.011501 
L 348.52822 258.370075 
L 348.68682 258.108681 
L 348.84542 261.506801 
L 349.00402 251.704532 
L 349.16262 253.403592 
L 349.32122 253.403592 
L 349.479821 253.795682 
L 349.638421 256.01753 
L 349.797021 259.807741 
L 350.114221 257.455196 
L 350.272821 257.324499 
L 350.431422 253.011501 
L 350.590022 257.585893 
L 350.748622 254.841258 
L 350.907222 244.646898 
L 351.065822 258.892862 
L 351.224422 251.704532 
L 351.541623 257.585893 
L 351.700223 253.011501 
L 351.858823 257.063105 
L 352.017423 267.649556 
L 352.176023 253.795682 
L 352.334624 256.801712 
L 352.651824 253.142198 
L 352.810424 261.376104 
L 352.969024 244.254807 
L 353.127624 259.546347 
L 353.286225 258.370075 
L 353.444825 247.783624 
L 353.603425 267.780253 
L 353.762025 259.677044 
L 353.920625 259.154256 
L 354.079225 262.160285 
L 354.237826 250.528259 
L 354.396426 260.069135 
L 354.555026 258.500771 
L 354.872226 245.953867 
L 355.030826 258.370075 
L 355.189427 247.783624 
L 355.348027 249.482684 
L 355.506627 249.874775 
L 355.665227 264.382133 
L 355.823827 252.61941 
L 355.982427 250.528259 
L 356.141028 253.664985 
L 356.299628 253.795682 
L 356.458228 251.312441 
L 356.616828 252.880804 
L 356.775428 255.756136 
L 356.934029 245.431079 
L 357.092629 263.205861 
L 357.251229 253.534288 
L 357.409829 263.075164 
L 357.568429 261.898891 
L 357.727029 246.999442 
L 358.04423 255.886833 
L 358.20283 255.625439 
L 358.36143 260.330528 
L 358.52003 251.443138 
L 358.67863 257.71659 
L 358.837231 258.239378 
L 358.995831 260.199831 
L 359.154431 258.108681 
L 359.471631 249.351987 
L 359.630231 259.023559 
L 359.788832 249.874775 
L 359.947432 259.154256 
L 360.264632 251.835229 
L 360.423232 256.148227 
L 360.740433 249.22129 
L 361.057633 254.579864 
L 361.374833 247.783624 
L 361.692034 258.108681 
L 362.009234 252.227319 
L 362.326434 256.932408 
L 362.485034 254.449167 
L 362.643635 255.756136 
L 362.802235 258.762165 
L 363.119435 255.102652 
L 363.278035 257.585893 
L 363.436635 254.710561 
L 363.595236 261.376104 
L 363.753836 250.658956 
L 363.912436 251.051047 
L 364.229636 259.41565 
L 364.388236 257.585893 
L 364.546837 254.449167 
L 364.705437 256.01753 
L 364.864037 256.01753 
L 365.022637 251.704532 
L 365.181237 253.664985 
L 365.339837 248.437109 
L 365.498438 258.239378 
L 365.657038 256.540318 
L 365.815638 248.175715 
L 365.974238 251.704532 
L 366.132838 252.358016 
L 366.291438 250.397562 
L 366.450039 256.278924 
L 366.608639 248.698502 
L 366.767239 248.959896 
L 366.925839 253.926379 
L 367.084439 249.22129 
L 367.243039 263.597951 
L 367.40164 262.944467 
L 367.87744 253.403592 
L 368.03604 251.051047 
L 368.353241 258.892862 
L 368.670441 253.272895 
L 368.829041 253.403592 
L 368.987641 257.324499 
L 369.146242 252.750107 
L 369.304842 253.795682 
L 369.622042 258.892862 
L 369.780642 258.631468 
L 369.939242 255.364045 
L 370.097843 256.932408 
L 370.256443 261.245407 
L 370.573643 250.528259 
L 370.732243 256.671015 
L 370.890843 255.756136 
L 371.049444 256.932408 
L 371.208044 251.051047 
L 371.366644 265.819799 
L 371.683844 253.795682 
L 371.842444 254.710561 
L 372.001045 251.312441 
L 372.159645 251.443138 
L 372.476845 254.971955 
L 372.635445 257.193802 
L 372.794045 252.61941 
L 373.111246 260.722619 
L 373.269846 250.266865 
L 373.428446 258.500771 
L 373.587046 257.585893 
L 373.745646 255.102652 
L 373.904247 260.069135 
L 374.062847 247.130139 
L 374.380047 257.063105 
L 374.538647 249.090593 
L 374.697247 259.546347 
L 374.855848 257.585893 
L 375.014448 257.585893 
L 375.173048 253.795682 
L 375.331648 256.801712 
L 375.490248 251.965925 
L 375.648848 256.671015 
L 375.807449 254.579864 
L 375.966049 262.421679 
L 376.283249 251.443138 
L 376.600449 259.938438 
L 376.75905 251.965925 
L 376.91765 250.397562 
L 377.07625 250.397562 
L 377.23485 257.977984 
L 377.39345 257.455196 
L 377.55205 259.677044 
L 377.710651 258.500771 
L 377.869251 251.573835 
L 378.027851 251.835229 
L 378.186451 251.181744 
L 378.345051 252.358016 
L 378.503651 261.768194 
L 378.662252 256.932408 
L 378.820852 261.898891 
L 378.979452 260.722619 
L 379.296652 253.142198 
L 379.455252 252.227319 
L 379.613853 249.482684 
L 379.772453 250.136169 
L 379.931053 252.096622 
L 380.089653 250.528259 
L 380.406853 262.944467 
L 380.565454 249.744078 
L 380.882654 257.324499 
L 381.041254 257.193802 
L 381.199854 253.142198 
L 381.358455 254.057076 
L 381.517055 262.421679 
L 381.675655 258.500771 
L 381.834255 248.175715 
L 382.151455 255.886833 
L 382.310056 251.704532 
L 382.468656 254.187773 
L 382.627256 253.272895 
L 382.944456 260.853316 
L 383.103056 257.193802 
L 383.261657 258.239378 
L 383.420257 248.175715 
L 383.578857 260.853316 
L 383.737457 255.494742 
L 383.896057 254.710561 
L 384.054657 264.774224 
L 384.371858 247.652927 
L 384.689058 255.364045 
L 384.847658 256.671015 
L 385.006258 250.266865 
L 385.164859 258.108681 
L 385.323459 256.409621 
L 385.482059 253.011501 
L 385.640659 256.540318 
L 385.957859 249.613381 
L 386.11646 257.193802 
L 386.27506 254.579864 
L 386.43366 254.449167 
L 386.59226 253.403592 
L 386.75086 256.409621 
L 386.90946 253.011501 
L 387.068061 256.540318 
L 387.226661 256.671015 
L 387.385261 252.750107 
L 387.543861 254.710561 
L 387.861061 255.102652 
L 388.019662 258.892862 
L 388.178262 256.540318 
L 388.336862 258.239378 
L 388.654062 252.358016 
L 388.971263 262.421679 
L 389.129863 255.625439 
L 389.288463 261.768194 
L 389.447063 259.546347 
L 389.605663 253.534288 
L 389.764263 260.330528 
L 389.922864 260.461225 
L 390.081464 250.397562 
L 390.240064 258.500771 
L 390.398664 251.704532 
L 390.874465 259.41565 
L 391.033065 259.154256 
L 391.191665 254.579864 
L 391.350265 254.057076 
L 391.508865 264.251436 
L 391.826066 257.324499 
L 391.984666 251.573835 
L 392.143266 253.011501 
L 392.301866 262.81377 
L 392.460466 252.61941 
L 392.619066 263.336558 
L 392.777667 261.376104 
L 392.936267 251.704532 
L 393.094867 256.409621 
L 393.253467 255.102652 
L 393.570667 257.063105 
L 393.729268 253.534288 
L 393.887868 260.199831 
L 394.046468 248.437109 
L 394.205068 257.71659 
L 394.363668 259.154256 
L 394.680869 251.835229 
L 394.839469 256.278924 
L 394.998069 255.756136 
L 395.156669 260.984013 
L 395.315269 257.193802 
L 395.47387 258.370075 
L 395.63247 256.278924 
L 395.79107 259.677044 
L 396.10827 252.227319 
L 396.26687 263.336558 
L 396.425471 255.364045 
L 396.584071 258.239378 
L 396.742671 253.142198 
L 397.059871 262.290982 
L 397.218471 260.853316 
L 397.377072 261.376104 
L 397.535672 260.069135 
L 397.694272 260.069135 
L 397.852872 259.807741 
L 398.011472 255.233348 
L 398.170072 255.494742 
L 398.328673 260.069135 
L 398.487273 257.977984 
L 398.487273 257.977984 
" style="fill:none;stroke:#1f77b4;stroke-linecap:square;stroke-width:1.5;"/>
   </g>
   <g id="patch_3">
    <path d="M 57.6 307.584 
L 57.6 41.472 
" style="fill:none;stroke:#000000;stroke-linecap:square;stroke-linejoin:miter;stroke-width:0.8;"/>
   </g>
   <g id="patch_4">
    <path d="M 414.72 307.584 
L 414.72 41.472 
" style="fill:none;stroke:#000000;stroke-linecap:square;stroke-linejoin:miter;stroke-width:0.8;"/>
   </g>
   <g id="patch_5">
    <path d="M 57.6 307.584 
L 414.72 307.584 
" style="fill:none;stroke:#000000;stroke-linecap:square;stroke-linejoin:miter;stroke-width:0.8;"/>
   </g>
   <g id="patch_6">
    <path d="M 57.6 41.472 
L 414.72 41.472 
" style="fill:none;stroke:#000000;stroke-linecap:square;stroke-linejoin:miter;stroke-width:0.8;"/>
   </g>
   <g id="text_17">
    <!-- Background subtracted -->
    <g transform="translate(166.075312 35.472)scale(0.12 -0.12)">
     <defs>
      <path d="M 1259 2228 
L 1259 519 
L 2272 519 
Q 2781 519 3026 730 
Q 3272 941 3272 1375 
Q 3272 1813 3026 2020 
Q 2781 2228 2272 2228 
L 1259 2228 
z
M 1259 4147 
L 1259 2741 
L 2194 2741 
Q 2656 2741 2882 2914 
Q 3109 3088 3109 3444 
Q 3109 3797 2882 3972 
Q 2656 4147 2194 4147 
L 1259 4147 
z
M 628 4666 
L 2241 4666 
Q 2963 4666 3353 4366 
Q 3744 4066 3744 3513 
Q 3744 3084 3544 2831 
Q 3344 2578 2956 2516 
Q 3422 2416 3680 2098 
Q 3938 1781 3938 1306 
Q 3938 681 3513 340 
Q 3088 0 2303 0 
L 628 0 
L 628 4666 
z
" id="DejaVuSans-42" transform="scale(0.015625)"/>
      <path d="M 3122 3366 
L 3122 2828 
Q 2878 2963 2633 3030 
Q 2388 3097 2138 3097 
Q 1578 3097 1268 2742 
Q 959 2388 959 1747 
Q 959 1106 1268 751 
Q 1578 397 2138 397 
Q 2388 397 2633 464 
Q 2878 531 3122 666 
L 3122 134 
Q 2881 22 2623 -34 
Q 2366 -91 2075 -91 
Q 1284 -91 818 406 
Q 353 903 353 1747 
Q 353 2603 823 3093 
Q 1294 3584 2113 3584 
Q 2378 3584 2631 3529 
Q 2884 3475 3122 3366 
z
" id="DejaVuSans-63" transform="scale(0.015625)"/>
      <path d="M 581 4863 
L 1159 4863 
L 1159 1991 
L 2875 3500 
L 3609 3500 
L 1753 1863 
L 3688 0 
L 2938 0 
L 1159 1709 
L 1159 0 
L 581 0 
L 581 4863 
z
" id="DejaVuSans-6b" transform="scale(0.015625)"/>
      <path d="M 2631 2963 
Q 2534 3019 2420 3045 
Q 2306 3072 2169 3072 
Q 1681 3072 1420 2755 
Q 1159 2438 1159 1844 
L 1159 0 
L 581 0 
L 581 3500 
L 1159 3500 
L 1159 2956 
Q 1341 3275 1631 3429 
Q 1922 3584 2338 3584 
Q 2397 3584 2469 3576 
Q 2541 3569 2628 3553 
L 2631 2963 
z
" id="DejaVuSans-72" transform="scale(0.015625)"/>
      <path d="M 2906 2969 
L 2906 4863 
L 3481 4863 
L 3481 0 
L 2906 0 
L 2906 525 
Q 2725 213 2448 61 
Q 2172 -91 1784 -91 
Q 1150 -91 751 415 
Q 353 922 353 1747 
Q 353 2572 751 3078 
Q 1150 3584 1784 3584 
Q 2172 3584 2448 3432 
Q 2725 3281 2906 2969 
z
M 947 1747 
Q 947 1113 1208 752 
Q 1469 391 1925 391 
Q 2381 391 2643 752 
Q 2906 1113 2906 1747 
Q 2906 2381 2643 2742 
Q 2381 3103 1925 3103 
Q 1469 3103 1208 2742 
Q 947 2381 947 1747 
z
" id="DejaVuSans-64" transform="scale(0.015625)"/>
      <path d="M 3116 1747 
Q 3116 2381 2855 2742 
Q 2594 3103 2138 3103 
Q 1681 3103 1420 2742 
Q 1159 2381 1159 1747 
Q 1159 1113 1420 752 
Q 1681 391 2138 391 
Q 2594 391 2855 752 
Q 3116 1113 3116 1747 
z
M 1159 2969 
Q 1341 3281 1617 3432 
Q 1894 3584 2278 3584 
Q 2916 3584 3314 3078 
Q 3713 2572 3713 1747 
Q 3713 922 3314 415 
Q 2916 -91 2278 -91 
Q 1894 -91 1617 61 
Q 1341 213 1159 525 
L 1159 0 
L 581 0 
L 581 4863 
L 1159 4863 
L 1159 2969 
z
" id="DejaVuSans-62" transform="scale(0.015625)"/>
     </defs>
     <use xlink:href="#DejaVuSans-42"/>
     <use x="68.603516" xlink:href="#DejaVuSans-61"/>
     <use x="129.882812" xlink:href="#DejaVuSans-63"/>
     <use x="184.863281" xlink:href="#DejaVuSans-6b"/>
     <use x="242.773438" xlink:href="#DejaVuSans-67"/>
     <use x="306.25" xlink:href="#DejaVuSans-72"/>
     <use x="345.113281" xlink:href="#DejaVuSans-6f"/>
     <use x="406.294922" xlink:href="#DejaVuSans-75"/>
     <use x="469.673828" xlink:href="#DejaVuSans-6e"/>
     <use x="533.052734" xlink:href="#DejaVuSans-64"/>
     <use x="596.529297" xlink:href="#DejaVuSans-20"/>
     <use x="628.316406" xlink:href="#DejaVuSans-73"/>
     <use x="680.416016" xlink:href="#DejaVuSans-75"/>
     <use x="743.794922" xlink:href="#DejaVuSans-62"/>
     <use x="807.271484" xlink:href="#DejaVuSans-74"/>
     <use x="846.480469" xlink:href="#DejaVuSans-72"/>
     <use x="887.59375" xlink:href="#DejaVuSans-61"/>
     <use x="948.873047" xlink:href="#DejaVuSans-63"/>
     <use x="1003.853516" xlink:href="#DejaVuSans-74"/>
     <use x="1043.0625" xlink:href="#DejaVuSans-65"/>
     <use x="1104.585938" xlink:href="#DejaVuSans-64"/>
    </g>
   </g>
  </g>
 </g>
 <defs>
  <clipPath id="pf61796bba4">
   <rect height="266.112" width="357.12" x="57.6" y="41.472"/>
  </clipPath>
 </defs>
</svg>
