<?xml version="1.0" encoding="utf-8" standalone="no"?>
<!DOCTYPE svg PUBLIC "-//W3C//DTD SVG 1.1//EN"
  "http://www.w3.org/Graphics/SVG/1.1/DTD/svg11.dtd">
<svg height="345.6pt" version="1.1" viewBox="0 0 460.8 345.6" width="460.8pt" xmlns="http://www.w3.org/2000/svg" xmlns:xlink="http://www.w3.org/1999/xlink">
 <metadata>
  <rdf:RDF xmlns:cc="http://creativecommons.org/ns#" xmlns:dc="http://purl.org/dc/elements/1.1/" xmlns:rdf="http://www.w3.org/1999/02/22-rdf-syntax-ns#">
   <cc:Work>
    <dc:type rdf:resource="http://purl.org/dc/dcmitype/StillImage"/>
    <dc:date>2022-04-22T16:06:48.787505</dc:date>
    <dc:format>image/svg+xml</dc:format>
    <dc:creator>
     <cc:Agent>
      <dc:title>Matplotlib v3.4.1, https://matplotlib.org/</dc:title>
     </cc:Agent>
    </dc:creator>
   </cc:Work>
  </rdf:RDF>
 </metadata>
 <defs>
  <style type="text/css">*{stroke-linecap:butt;stroke-linejoin:round;}</style>
 </defs>
 <g id="figure_1">
  <g id="patch_1">
   <path d="M 0 345.6 
L 460.8 345.6 
L 460.8 0 
L 0 0 
z
" style="fill:#ffffff;"/>
  </g>
  <g id="axes_1">
   <g id="patch_2">
    <path d="M 57.6 307.584 
L 414.72 307.584 
L 414.72 41.472 
L 57.6 41.472 
z
" style="fill:#ffffff;"/>
   </g>
   <g id="matplotlib.axis_1">
    <g id="xtick_1">
     <g id="line2d_1">
      <defs>
       <path d="M 0 0 
L 0 3.5 
" id="m8513984ca6" style="stroke:#000000;stroke-width:0.8;"/>
      </defs>
      <g>
       <use style="stroke:#000000;stroke-width:0.8;" x="103.072447" xlink:href="#m8513984ca6" y="307.584"/>
      </g>
     </g>
     <g id="text_1">
      <!-- 400 -->
      <g transform="translate(93.528697 322.182437)scale(0.1 -0.1)">
       <defs>
        <path d="M 2419 4116 
L 825 1625 
L 2419 1625 
L 2419 4116 
z
M 2253 4666 
L 3047 4666 
L 3047 1625 
L 3713 1625 
L 3713 1100 
L 3047 1100 
L 3047 0 
L 2419 0 
L 2419 1100 
L 313 1100 
L 313 1709 
L 2253 4666 
z
" id="DejaVuSans-34" transform="scale(0.015625)"/>
        <path d="M 2034 4250 
Q 1547 4250 1301 3770 
Q 1056 3291 1056 2328 
Q 1056 1369 1301 889 
Q 1547 409 2034 409 
Q 2525 409 2770 889 
Q 3016 1369 3016 2328 
Q 3016 3291 2770 3770 
Q 2525 4250 2034 4250 
z
M 2034 4750 
Q 2819 4750 3233 4129 
Q 3647 3509 3647 2328 
Q 3647 1150 3233 529 
Q 2819 -91 2034 -91 
Q 1250 -91 836 529 
Q 422 1150 422 2328 
Q 422 3509 836 4129 
Q 1250 4750 2034 4750 
z
" id="DejaVuSans-30" transform="scale(0.015625)"/>
       </defs>
       <use xlink:href="#DejaVuSans-34"/>
       <use x="63.623047" xlink:href="#DejaVuSans-30"/>
       <use x="127.246094" xlink:href="#DejaVuSans-30"/>
      </g>
     </g>
    </g>
    <g id="xtick_2">
     <g id="line2d_2">
      <g>
       <use style="stroke:#000000;stroke-width:0.8;" x="161.359538" xlink:href="#m8513984ca6" y="307.584"/>
      </g>
     </g>
     <g id="text_2">
      <!-- 600 -->
      <g transform="translate(151.815788 322.182437)scale(0.1 -0.1)">
       <defs>
        <path d="M 2113 2584 
Q 1688 2584 1439 2293 
Q 1191 2003 1191 1497 
Q 1191 994 1439 701 
Q 1688 409 2113 409 
Q 2538 409 2786 701 
Q 3034 994 3034 1497 
Q 3034 2003 2786 2293 
Q 2538 2584 2113 2584 
z
M 3366 4563 
L 3366 3988 
Q 3128 4100 2886 4159 
Q 2644 4219 2406 4219 
Q 1781 4219 1451 3797 
Q 1122 3375 1075 2522 
Q 1259 2794 1537 2939 
Q 1816 3084 2150 3084 
Q 2853 3084 3261 2657 
Q 3669 2231 3669 1497 
Q 3669 778 3244 343 
Q 2819 -91 2113 -91 
Q 1303 -91 875 529 
Q 447 1150 447 2328 
Q 447 3434 972 4092 
Q 1497 4750 2381 4750 
Q 2619 4750 2861 4703 
Q 3103 4656 3366 4563 
z
" id="DejaVuSans-36" transform="scale(0.015625)"/>
       </defs>
       <use xlink:href="#DejaVuSans-36"/>
       <use x="63.623047" xlink:href="#DejaVuSans-30"/>
       <use x="127.246094" xlink:href="#DejaVuSans-30"/>
      </g>
     </g>
    </g>
    <g id="xtick_3">
     <g id="line2d_3">
      <g>
       <use style="stroke:#000000;stroke-width:0.8;" x="219.646629" xlink:href="#m8513984ca6" y="307.584"/>
      </g>
     </g>
     <g id="text_3">
      <!-- 800 -->
      <g transform="translate(210.102879 322.182437)scale(0.1 -0.1)">
       <defs>
        <path d="M 2034 2216 
Q 1584 2216 1326 1975 
Q 1069 1734 1069 1313 
Q 1069 891 1326 650 
Q 1584 409 2034 409 
Q 2484 409 2743 651 
Q 3003 894 3003 1313 
Q 3003 1734 2745 1975 
Q 2488 2216 2034 2216 
z
M 1403 2484 
Q 997 2584 770 2862 
Q 544 3141 544 3541 
Q 544 4100 942 4425 
Q 1341 4750 2034 4750 
Q 2731 4750 3128 4425 
Q 3525 4100 3525 3541 
Q 3525 3141 3298 2862 
Q 3072 2584 2669 2484 
Q 3125 2378 3379 2068 
Q 3634 1759 3634 1313 
Q 3634 634 3220 271 
Q 2806 -91 2034 -91 
Q 1263 -91 848 271 
Q 434 634 434 1313 
Q 434 1759 690 2068 
Q 947 2378 1403 2484 
z
M 1172 3481 
Q 1172 3119 1398 2916 
Q 1625 2713 2034 2713 
Q 2441 2713 2670 2916 
Q 2900 3119 2900 3481 
Q 2900 3844 2670 4047 
Q 2441 4250 2034 4250 
Q 1625 4250 1398 4047 
Q 1172 3844 1172 3481 
z
" id="DejaVuSans-38" transform="scale(0.015625)"/>
       </defs>
       <use xlink:href="#DejaVuSans-38"/>
       <use x="63.623047" xlink:href="#DejaVuSans-30"/>
       <use x="127.246094" xlink:href="#DejaVuSans-30"/>
      </g>
     </g>
    </g>
    <g id="xtick_4">
     <g id="line2d_4">
      <g>
       <use style="stroke:#000000;stroke-width:0.8;" x="277.933721" xlink:href="#m8513984ca6" y="307.584"/>
      </g>
     </g>
     <g id="text_4">
      <!-- 1000 -->
      <g transform="translate(265.208721 322.182437)scale(0.1 -0.1)">
       <defs>
        <path d="M 794 531 
L 1825 531 
L 1825 4091 
L 703 3866 
L 703 4441 
L 1819 4666 
L 2450 4666 
L 2450 531 
L 3481 531 
L 3481 0 
L 794 0 
L 794 531 
z
" id="DejaVuSans-31" transform="scale(0.015625)"/>
       </defs>
       <use xlink:href="#DejaVuSans-31"/>
       <use x="63.623047" xlink:href="#DejaVuSans-30"/>
       <use x="127.246094" xlink:href="#DejaVuSans-30"/>
       <use x="190.869141" xlink:href="#DejaVuSans-30"/>
      </g>
     </g>
    </g>
    <g id="xtick_5">
     <g id="line2d_5">
      <g>
       <use style="stroke:#000000;stroke-width:0.8;" x="336.220812" xlink:href="#m8513984ca6" y="307.584"/>
      </g>
     </g>
     <g id="text_5">
      <!-- 1200 -->
      <g transform="translate(323.495812 322.182437)scale(0.1 -0.1)">
       <defs>
        <path d="M 1228 531 
L 3431 531 
L 3431 0 
L 469 0 
L 469 531 
Q 828 903 1448 1529 
Q 2069 2156 2228 2338 
Q 2531 2678 2651 2914 
Q 2772 3150 2772 3378 
Q 2772 3750 2511 3984 
Q 2250 4219 1831 4219 
Q 1534 4219 1204 4116 
Q 875 4013 500 3803 
L 500 4441 
Q 881 4594 1212 4672 
Q 1544 4750 1819 4750 
Q 2544 4750 2975 4387 
Q 3406 4025 3406 3419 
Q 3406 3131 3298 2873 
Q 3191 2616 2906 2266 
Q 2828 2175 2409 1742 
Q 1991 1309 1228 531 
z
" id="DejaVuSans-32" transform="scale(0.015625)"/>
       </defs>
       <use xlink:href="#DejaVuSans-31"/>
       <use x="63.623047" xlink:href="#DejaVuSans-32"/>
       <use x="127.246094" xlink:href="#DejaVuSans-30"/>
       <use x="190.869141" xlink:href="#DejaVuSans-30"/>
      </g>
     </g>
    </g>
    <g id="xtick_6">
     <g id="line2d_6">
      <g>
       <use style="stroke:#000000;stroke-width:0.8;" x="394.507904" xlink:href="#m8513984ca6" y="307.584"/>
      </g>
     </g>
     <g id="text_6">
      <!-- 1400 -->
      <g transform="translate(381.782904 322.182437)scale(0.1 -0.1)">
       <use xlink:href="#DejaVuSans-31"/>
       <use x="63.623047" xlink:href="#DejaVuSans-34"/>
       <use x="127.246094" xlink:href="#DejaVuSans-30"/>
       <use x="190.869141" xlink:href="#DejaVuSans-30"/>
      </g>
     </g>
    </g>
    <g id="text_7">
     <!-- Wavelength [nm] -->
     <g transform="translate(192.967812 335.860562)scale(0.1 -0.1)">
      <defs>
       <path d="M 213 4666 
L 850 4666 
L 1831 722 
L 2809 4666 
L 3519 4666 
L 4500 722 
L 5478 4666 
L 6119 4666 
L 4947 0 
L 4153 0 
L 3169 4050 
L 2175 0 
L 1381 0 
L 213 4666 
z
" id="DejaVuSans-57" transform="scale(0.015625)"/>
       <path d="M 2194 1759 
Q 1497 1759 1228 1600 
Q 959 1441 959 1056 
Q 959 750 1161 570 
Q 1363 391 1709 391 
Q 2188 391 2477 730 
Q 2766 1069 2766 1631 
L 2766 1759 
L 2194 1759 
z
M 3341 1997 
L 3341 0 
L 2766 0 
L 2766 531 
Q 2569 213 2275 61 
Q 1981 -91 1556 -91 
Q 1019 -91 701 211 
Q 384 513 384 1019 
Q 384 1609 779 1909 
Q 1175 2209 1959 2209 
L 2766 2209 
L 2766 2266 
Q 2766 2663 2505 2880 
Q 2244 3097 1772 3097 
Q 1472 3097 1187 3025 
Q 903 2953 641 2809 
L 641 3341 
Q 956 3463 1253 3523 
Q 1550 3584 1831 3584 
Q 2591 3584 2966 3190 
Q 3341 2797 3341 1997 
z
" id="DejaVuSans-61" transform="scale(0.015625)"/>
       <path d="M 191 3500 
L 800 3500 
L 1894 563 
L 2988 3500 
L 3597 3500 
L 2284 0 
L 1503 0 
L 191 3500 
z
" id="DejaVuSans-76" transform="scale(0.015625)"/>
       <path d="M 3597 1894 
L 3597 1613 
L 953 1613 
Q 991 1019 1311 708 
Q 1631 397 2203 397 
Q 2534 397 2845 478 
Q 3156 559 3463 722 
L 3463 178 
Q 3153 47 2828 -22 
Q 2503 -91 2169 -91 
Q 1331 -91 842 396 
Q 353 884 353 1716 
Q 353 2575 817 3079 
Q 1281 3584 2069 3584 
Q 2775 3584 3186 3129 
Q 3597 2675 3597 1894 
z
M 3022 2063 
Q 3016 2534 2758 2815 
Q 2500 3097 2075 3097 
Q 1594 3097 1305 2825 
Q 1016 2553 972 2059 
L 3022 2063 
z
" id="DejaVuSans-65" transform="scale(0.015625)"/>
       <path d="M 603 4863 
L 1178 4863 
L 1178 0 
L 603 0 
L 603 4863 
z
" id="DejaVuSans-6c" transform="scale(0.015625)"/>
       <path d="M 3513 2113 
L 3513 0 
L 2938 0 
L 2938 2094 
Q 2938 2591 2744 2837 
Q 2550 3084 2163 3084 
Q 1697 3084 1428 2787 
Q 1159 2491 1159 1978 
L 1159 0 
L 581 0 
L 581 3500 
L 1159 3500 
L 1159 2956 
Q 1366 3272 1645 3428 
Q 1925 3584 2291 3584 
Q 2894 3584 3203 3211 
Q 3513 2838 3513 2113 
z
" id="DejaVuSans-6e" transform="scale(0.015625)"/>
       <path d="M 2906 1791 
Q 2906 2416 2648 2759 
Q 2391 3103 1925 3103 
Q 1463 3103 1205 2759 
Q 947 2416 947 1791 
Q 947 1169 1205 825 
Q 1463 481 1925 481 
Q 2391 481 2648 825 
Q 2906 1169 2906 1791 
z
M 3481 434 
Q 3481 -459 3084 -895 
Q 2688 -1331 1869 -1331 
Q 1566 -1331 1297 -1286 
Q 1028 -1241 775 -1147 
L 775 -588 
Q 1028 -725 1275 -790 
Q 1522 -856 1778 -856 
Q 2344 -856 2625 -561 
Q 2906 -266 2906 331 
L 2906 616 
Q 2728 306 2450 153 
Q 2172 0 1784 0 
Q 1141 0 747 490 
Q 353 981 353 1791 
Q 353 2603 747 3093 
Q 1141 3584 1784 3584 
Q 2172 3584 2450 3431 
Q 2728 3278 2906 2969 
L 2906 3500 
L 3481 3500 
L 3481 434 
z
" id="DejaVuSans-67" transform="scale(0.015625)"/>
       <path d="M 1172 4494 
L 1172 3500 
L 2356 3500 
L 2356 3053 
L 1172 3053 
L 1172 1153 
Q 1172 725 1289 603 
Q 1406 481 1766 481 
L 2356 481 
L 2356 0 
L 1766 0 
Q 1100 0 847 248 
Q 594 497 594 1153 
L 594 3053 
L 172 3053 
L 172 3500 
L 594 3500 
L 594 4494 
L 1172 4494 
z
" id="DejaVuSans-74" transform="scale(0.015625)"/>
       <path d="M 3513 2113 
L 3513 0 
L 2938 0 
L 2938 2094 
Q 2938 2591 2744 2837 
Q 2550 3084 2163 3084 
Q 1697 3084 1428 2787 
Q 1159 2491 1159 1978 
L 1159 0 
L 581 0 
L 581 4863 
L 1159 4863 
L 1159 2956 
Q 1366 3272 1645 3428 
Q 1925 3584 2291 3584 
Q 2894 3584 3203 3211 
Q 3513 2838 3513 2113 
z
" id="DejaVuSans-68" transform="scale(0.015625)"/>
       <path id="DejaVuSans-20" transform="scale(0.015625)"/>
       <path d="M 550 4863 
L 1875 4863 
L 1875 4416 
L 1125 4416 
L 1125 -397 
L 1875 -397 
L 1875 -844 
L 550 -844 
L 550 4863 
z
" id="DejaVuSans-5b" transform="scale(0.015625)"/>
       <path d="M 3328 2828 
Q 3544 3216 3844 3400 
Q 4144 3584 4550 3584 
Q 5097 3584 5394 3201 
Q 5691 2819 5691 2113 
L 5691 0 
L 5113 0 
L 5113 2094 
Q 5113 2597 4934 2840 
Q 4756 3084 4391 3084 
Q 3944 3084 3684 2787 
Q 3425 2491 3425 1978 
L 3425 0 
L 2847 0 
L 2847 2094 
Q 2847 2600 2669 2842 
Q 2491 3084 2119 3084 
Q 1678 3084 1418 2786 
Q 1159 2488 1159 1978 
L 1159 0 
L 581 0 
L 581 3500 
L 1159 3500 
L 1159 2956 
Q 1356 3278 1631 3431 
Q 1906 3584 2284 3584 
Q 2666 3584 2933 3390 
Q 3200 3197 3328 2828 
z
" id="DejaVuSans-6d" transform="scale(0.015625)"/>
       <path d="M 1947 4863 
L 1947 -844 
L 622 -844 
L 622 -397 
L 1369 -397 
L 1369 4416 
L 622 4416 
L 622 4863 
L 1947 4863 
z
" id="DejaVuSans-5d" transform="scale(0.015625)"/>
      </defs>
      <use xlink:href="#DejaVuSans-57"/>
      <use x="92.501953" xlink:href="#DejaVuSans-61"/>
      <use x="153.78125" xlink:href="#DejaVuSans-76"/>
      <use x="212.960938" xlink:href="#DejaVuSans-65"/>
      <use x="274.484375" xlink:href="#DejaVuSans-6c"/>
      <use x="302.267578" xlink:href="#DejaVuSans-65"/>
      <use x="363.791016" xlink:href="#DejaVuSans-6e"/>
      <use x="427.169922" xlink:href="#DejaVuSans-67"/>
      <use x="490.646484" xlink:href="#DejaVuSans-74"/>
      <use x="529.855469" xlink:href="#DejaVuSans-68"/>
      <use x="593.234375" xlink:href="#DejaVuSans-20"/>
      <use x="625.021484" xlink:href="#DejaVuSans-5b"/>
      <use x="664.035156" xlink:href="#DejaVuSans-6e"/>
      <use x="727.414062" xlink:href="#DejaVuSans-6d"/>
      <use x="824.826172" xlink:href="#DejaVuSans-5d"/>
     </g>
    </g>
   </g>
   <g id="matplotlib.axis_2">
    <g id="ytick_1">
     <g id="line2d_7">
      <defs>
       <path d="M 0 0 
L -3.5 0 
" id="m5e7f8681a1" style="stroke:#000000;stroke-width:0.8;"/>
      </defs>
      <g>
       <use style="stroke:#000000;stroke-width:0.8;" x="57.6" xlink:href="#m5e7f8681a1" y="288.025677"/>
      </g>
     </g>
     <g id="text_8">
      <!-- 0 -->
      <g transform="translate(44.2375 291.824896)scale(0.1 -0.1)">
       <use xlink:href="#DejaVuSans-30"/>
      </g>
     </g>
    </g>
    <g id="ytick_2">
     <g id="line2d_8">
      <g>
       <use style="stroke:#000000;stroke-width:0.8;" x="57.6" xlink:href="#m5e7f8681a1" y="247.113819"/>
      </g>
     </g>
     <g id="text_9">
      <!-- 1000 -->
      <g transform="translate(25.15 250.913038)scale(0.1 -0.1)">
       <use xlink:href="#DejaVuSans-31"/>
       <use x="63.623047" xlink:href="#DejaVuSans-30"/>
       <use x="127.246094" xlink:href="#DejaVuSans-30"/>
       <use x="190.869141" xlink:href="#DejaVuSans-30"/>
      </g>
     </g>
    </g>
    <g id="ytick_3">
     <g id="line2d_9">
      <g>
       <use style="stroke:#000000;stroke-width:0.8;" x="57.6" xlink:href="#m5e7f8681a1" y="206.201961"/>
      </g>
     </g>
     <g id="text_10">
      <!-- 2000 -->
      <g transform="translate(25.15 210.001179)scale(0.1 -0.1)">
       <use xlink:href="#DejaVuSans-32"/>
       <use x="63.623047" xlink:href="#DejaVuSans-30"/>
       <use x="127.246094" xlink:href="#DejaVuSans-30"/>
       <use x="190.869141" xlink:href="#DejaVuSans-30"/>
      </g>
     </g>
    </g>
    <g id="ytick_4">
     <g id="line2d_10">
      <g>
       <use style="stroke:#000000;stroke-width:0.8;" x="57.6" xlink:href="#m5e7f8681a1" y="165.290102"/>
      </g>
     </g>
     <g id="text_11">
      <!-- 3000 -->
      <g transform="translate(25.15 169.089321)scale(0.1 -0.1)">
       <defs>
        <path d="M 2597 2516 
Q 3050 2419 3304 2112 
Q 3559 1806 3559 1356 
Q 3559 666 3084 287 
Q 2609 -91 1734 -91 
Q 1441 -91 1130 -33 
Q 819 25 488 141 
L 488 750 
Q 750 597 1062 519 
Q 1375 441 1716 441 
Q 2309 441 2620 675 
Q 2931 909 2931 1356 
Q 2931 1769 2642 2001 
Q 2353 2234 1838 2234 
L 1294 2234 
L 1294 2753 
L 1863 2753 
Q 2328 2753 2575 2939 
Q 2822 3125 2822 3475 
Q 2822 3834 2567 4026 
Q 2313 4219 1838 4219 
Q 1578 4219 1281 4162 
Q 984 4106 628 3988 
L 628 4550 
Q 988 4650 1302 4700 
Q 1616 4750 1894 4750 
Q 2613 4750 3031 4423 
Q 3450 4097 3450 3541 
Q 3450 3153 3228 2886 
Q 3006 2619 2597 2516 
z
" id="DejaVuSans-33" transform="scale(0.015625)"/>
       </defs>
       <use xlink:href="#DejaVuSans-33"/>
       <use x="63.623047" xlink:href="#DejaVuSans-30"/>
       <use x="127.246094" xlink:href="#DejaVuSans-30"/>
       <use x="190.869141" xlink:href="#DejaVuSans-30"/>
      </g>
     </g>
    </g>
    <g id="ytick_5">
     <g id="line2d_11">
      <g>
       <use style="stroke:#000000;stroke-width:0.8;" x="57.6" xlink:href="#m5e7f8681a1" y="124.378244"/>
      </g>
     </g>
     <g id="text_12">
      <!-- 4000 -->
      <g transform="translate(25.15 128.177463)scale(0.1 -0.1)">
       <use xlink:href="#DejaVuSans-34"/>
       <use x="63.623047" xlink:href="#DejaVuSans-30"/>
       <use x="127.246094" xlink:href="#DejaVuSans-30"/>
       <use x="190.869141" xlink:href="#DejaVuSans-30"/>
      </g>
     </g>
    </g>
    <g id="ytick_6">
     <g id="line2d_12">
      <g>
       <use style="stroke:#000000;stroke-width:0.8;" x="57.6" xlink:href="#m5e7f8681a1" y="83.466386"/>
      </g>
     </g>
     <g id="text_13">
      <!-- 5000 -->
      <g transform="translate(25.15 87.265605)scale(0.1 -0.1)">
       <defs>
        <path d="M 691 4666 
L 3169 4666 
L 3169 4134 
L 1269 4134 
L 1269 2991 
Q 1406 3038 1543 3061 
Q 1681 3084 1819 3084 
Q 2600 3084 3056 2656 
Q 3513 2228 3513 1497 
Q 3513 744 3044 326 
Q 2575 -91 1722 -91 
Q 1428 -91 1123 -41 
Q 819 9 494 109 
L 494 744 
Q 775 591 1075 516 
Q 1375 441 1709 441 
Q 2250 441 2565 725 
Q 2881 1009 2881 1497 
Q 2881 1984 2565 2268 
Q 2250 2553 1709 2553 
Q 1456 2553 1204 2497 
Q 953 2441 691 2322 
L 691 4666 
z
" id="DejaVuSans-35" transform="scale(0.015625)"/>
       </defs>
       <use xlink:href="#DejaVuSans-35"/>
       <use x="63.623047" xlink:href="#DejaVuSans-30"/>
       <use x="127.246094" xlink:href="#DejaVuSans-30"/>
       <use x="190.869141" xlink:href="#DejaVuSans-30"/>
      </g>
     </g>
    </g>
    <g id="ytick_7">
     <g id="line2d_13">
      <g>
       <use style="stroke:#000000;stroke-width:0.8;" x="57.6" xlink:href="#m5e7f8681a1" y="42.554528"/>
      </g>
     </g>
     <g id="text_14">
      <!-- 6000 -->
      <g transform="translate(25.15 46.353747)scale(0.1 -0.1)">
       <use xlink:href="#DejaVuSans-36"/>
       <use x="63.623047" xlink:href="#DejaVuSans-30"/>
       <use x="127.246094" xlink:href="#DejaVuSans-30"/>
       <use x="190.869141" xlink:href="#DejaVuSans-30"/>
      </g>
     </g>
    </g>
    <g id="text_15">
     <!-- Counts -->
     <g transform="translate(19.070312 191.981125)rotate(-90)scale(0.1 -0.1)">
      <defs>
       <path d="M 4122 4306 
L 4122 3641 
Q 3803 3938 3442 4084 
Q 3081 4231 2675 4231 
Q 1875 4231 1450 3742 
Q 1025 3253 1025 2328 
Q 1025 1406 1450 917 
Q 1875 428 2675 428 
Q 3081 428 3442 575 
Q 3803 722 4122 1019 
L 4122 359 
Q 3791 134 3420 21 
Q 3050 -91 2638 -91 
Q 1578 -91 968 557 
Q 359 1206 359 2328 
Q 359 3453 968 4101 
Q 1578 4750 2638 4750 
Q 3056 4750 3426 4639 
Q 3797 4528 4122 4306 
z
" id="DejaVuSans-43" transform="scale(0.015625)"/>
       <path d="M 1959 3097 
Q 1497 3097 1228 2736 
Q 959 2375 959 1747 
Q 959 1119 1226 758 
Q 1494 397 1959 397 
Q 2419 397 2687 759 
Q 2956 1122 2956 1747 
Q 2956 2369 2687 2733 
Q 2419 3097 1959 3097 
z
M 1959 3584 
Q 2709 3584 3137 3096 
Q 3566 2609 3566 1747 
Q 3566 888 3137 398 
Q 2709 -91 1959 -91 
Q 1206 -91 779 398 
Q 353 888 353 1747 
Q 353 2609 779 3096 
Q 1206 3584 1959 3584 
z
" id="DejaVuSans-6f" transform="scale(0.015625)"/>
       <path d="M 544 1381 
L 544 3500 
L 1119 3500 
L 1119 1403 
Q 1119 906 1312 657 
Q 1506 409 1894 409 
Q 2359 409 2629 706 
Q 2900 1003 2900 1516 
L 2900 3500 
L 3475 3500 
L 3475 0 
L 2900 0 
L 2900 538 
Q 2691 219 2414 64 
Q 2138 -91 1772 -91 
Q 1169 -91 856 284 
Q 544 659 544 1381 
z
M 1991 3584 
L 1991 3584 
z
" id="DejaVuSans-75" transform="scale(0.015625)"/>
       <path d="M 2834 3397 
L 2834 2853 
Q 2591 2978 2328 3040 
Q 2066 3103 1784 3103 
Q 1356 3103 1142 2972 
Q 928 2841 928 2578 
Q 928 2378 1081 2264 
Q 1234 2150 1697 2047 
L 1894 2003 
Q 2506 1872 2764 1633 
Q 3022 1394 3022 966 
Q 3022 478 2636 193 
Q 2250 -91 1575 -91 
Q 1294 -91 989 -36 
Q 684 19 347 128 
L 347 722 
Q 666 556 975 473 
Q 1284 391 1588 391 
Q 1994 391 2212 530 
Q 2431 669 2431 922 
Q 2431 1156 2273 1281 
Q 2116 1406 1581 1522 
L 1381 1569 
Q 847 1681 609 1914 
Q 372 2147 372 2553 
Q 372 3047 722 3315 
Q 1072 3584 1716 3584 
Q 2034 3584 2315 3537 
Q 2597 3491 2834 3397 
z
" id="DejaVuSans-73" transform="scale(0.015625)"/>
      </defs>
      <use xlink:href="#DejaVuSans-43"/>
      <use x="69.824219" xlink:href="#DejaVuSans-6f"/>
      <use x="131.005859" xlink:href="#DejaVuSans-75"/>
      <use x="194.384766" xlink:href="#DejaVuSans-6e"/>
      <use x="257.763672" xlink:href="#DejaVuSans-74"/>
      <use x="296.972656" xlink:href="#DejaVuSans-73"/>
     </g>
    </g>
   </g>
   <g id="line2d_14">
    <path clip-path="url(#pcbad3db6ae)" d="M 73.832727 285.047294 
L 73.992106 284.62181 
L 74.629621 287.20744 
L 74.948379 288.369337 
L 75.107757 288.17296 
L 75.426515 289.629422 
L 75.585894 289.858528 
L 75.745272 290.398565 
L 75.904651 290.03854 
L 76.06403 290.627671 
L 76.223409 292.215051 
L 76.382788 292.149592 
L 76.542166 290.72586 
L 76.701545 290.464024 
L 76.860924 290.447659 
L 77.179681 289.596692 
L 77.33906 289.580328 
L 77.498439 289.809434 
L 77.657818 289.514869 
L 77.976575 287.86203 
L 78.295333 287.632923 
L 78.454711 286.029178 
L 78.61409 286.356473 
L 78.773469 287.011063 
L 78.932848 285.89826 
L 79.092227 286.176461 
L 79.251605 285.947355 
L 79.410984 284.96547 
L 79.729742 287.060157 
L 79.88912 286.765592 
L 80.207878 288.205689 
L 80.367257 287.060157 
L 80.526635 288.303878 
L 80.845393 287.747476 
L 81.004772 288.418431 
L 81.801666 287.354723 
L 81.961044 287.731112 
L 82.120423 287.191075 
L 82.279802 287.076522 
L 82.598559 288.17296 
L 82.757938 287.5511 
L 83.076696 287.845665 
L 83.395453 288.565714 
L 83.714211 288.467525 
L 83.87359 289.073021 
L 84.032968 288.565714 
L 84.192347 287.600194 
L 84.351726 287.927489 
L 84.511105 287.354723 
L 84.670483 288.303878 
L 84.989241 287.158346 
L 85.14862 287.796571 
L 85.307998 287.747476 
L 85.626756 287.256534 
L 85.786135 287.796571 
L 85.945513 287.240169 
L 86.104892 288.091136 
L 86.264271 286.961969 
L 86.42365 287.469276 
L 86.742407 286.225555 
L 86.901786 286.127367 
L 87.061165 285.390953 
L 87.220544 285.93099 
L 87.379922 284.818187 
L 87.539301 284.900011 
L 87.858059 284.441798 
L 88.017437 283.541737 
L 88.336195 285.194576 
L 88.495574 285.423683 
L 88.654952 285.89826 
L 88.814331 285.178212 
L 89.133089 287.354723 
L 89.292468 286.86378 
L 89.611225 287.960218 
L 89.770604 287.780206 
L 90.089361 288.598443 
L 90.24874 288.45116 
L 90.408119 288.565714 
L 90.567498 287.682017 
L 91.045634 288.434796 
L 91.683149 285.341859 
L 91.842528 285.521871 
L 92.161285 286.421932 
L 92.480043 285.325494 
L 92.639422 285.456412 
L 92.958179 285.341859 
L 93.117558 285.734613 
L 93.276937 286.945604 
L 93.436315 286.503756 
L 93.595694 286.601944 
L 93.914452 285.701884 
L 94.07383 286.176461 
L 94.233209 285.58733 
L 94.392588 287.256534 
L 94.551967 287.632923 
L 94.711346 287.387452 
L 94.870724 286.732862 
L 95.030103 287.845665 
L 95.508239 288.712996 
L 95.667618 289.482139 
L 95.826997 289.367586 
L 96.145754 287.502005 
L 96.305133 287.976583 
L 96.78327 286.831051 
L 97.102027 288.467525 
L 97.580163 287.616558 
L 97.739542 289.073021 
L 97.898921 289.269398 
L 98.0583 290.234917 
L 98.217678 289.923987 
L 98.536436 288.418431 
L 98.855193 287.502005 
L 99.173951 289.563963 
L 99.492709 288.107501 
L 99.652087 288.107501 
L 99.811466 287.20744 
L 99.970845 288.663902 
L 100.130224 288.712996 
L 100.289602 289.334857 
L 100.448981 289.482139 
L 100.60836 289.923987 
L 100.767739 288.631173 
L 101.086496 289.433045 
L 101.245875 289.220303 
L 101.405254 290.03854 
L 101.724011 290.644036 
L 101.88339 289.269398 
L 102.042769 289.383951 
L 102.202148 289.711246 
L 102.520905 289.433045 
L 103.317799 286.961969 
L 103.477178 287.321993 
L 103.636556 287.125616 
L 103.795935 286.716498 
L 103.955314 286.765592 
L 104.114693 287.060157 
L 104.274071 287.632923 
L 104.43345 287.485641 
L 104.592829 287.583829 
L 104.911587 286.749227 
L 105.389723 286.732862 
L 105.70848 288.434796 
L 105.867859 288.402066 
L 106.027238 288.762091 
L 106.345995 288.827549 
L 106.505374 289.858528 
L 106.664753 289.154844 
L 106.824132 289.514869 
L 106.983511 289.41668 
L 107.302268 286.929239 
L 107.461647 286.978333 
L 107.621026 286.192826 
L 107.939783 287.469276 
L 108.099162 287.403817 
L 108.258541 286.961969 
L 108.417919 287.780206 
L 108.577298 290.545848 
L 108.736677 290.120364 
L 108.896056 290.07127 
L 109.055434 289.318492 
L 109.214813 291.167708 
L 109.533571 290.513118 
L 109.69295 289.596692 
L 109.852328 290.69313 
L 110.011707 289.285762 
L 110.171086 286.27465 
L 110.649222 289.613057 
L 110.808601 288.205689 
L 110.96798 288.434796 
L 111.127358 287.354723 
L 111.764873 288.860279 
L 112.083631 287.436546 
L 112.24301 286.078273 
L 112.402389 287.191075 
L 112.561767 287.027428 
L 112.721146 288.402066 
L 112.880525 288.598443 
L 113.039904 288.385701 
L 113.358661 288.811185 
L 113.51804 289.907623 
L 113.677419 289.563963 
L 113.836797 290.022176 
L 113.996176 287.665653 
L 114.155555 287.731112 
L 114.314934 287.338358 
L 115.111828 282.919877 
L 115.271206 284.62181 
L 115.430585 284.196327 
L 115.589964 287.403817 
L 115.749343 286.045543 
L 116.0681 286.143732 
L 116.386858 290.529483 
L 116.705615 291.985945 
L 116.864994 290.480389 
L 117.024373 291.31499 
L 117.183752 289.711246 
L 117.34313 290.889507 
L 117.502509 290.791319 
L 117.661888 291.985945 
L 117.980645 289.596692 
L 118.299403 290.709495 
L 118.458782 289.367586 
L 118.61816 289.351221 
L 118.936918 288.827549 
L 119.096297 288.876644 
L 119.255675 288.14023 
L 119.415054 288.009312 
L 119.733812 286.143732 
L 119.893191 286.601944 
L 120.052569 288.271148 
L 120.211948 287.796571 
L 120.530706 288.991197 
L 120.690084 289.154844 
L 120.849463 289.122115 
L 121.008842 287.51837 
L 121.486978 291.511367 
L 121.646357 292.116863 
L 121.805736 294.55521 
L 121.965114 293.507866 
L 122.124493 293.949714 
L 122.443251 292.951465 
L 122.60263 293.475137 
L 122.921387 292.018674 
L 123.080766 291.838662 
L 123.240145 290.611307 
L 123.399523 288.058407 
L 123.558902 288.402066 
L 123.718281 289.482139 
L 123.87766 289.694881 
L 124.037038 290.774954 
L 124.196417 290.545848 
L 124.355796 291.31499 
L 124.833932 286.291014 
L 124.993311 285.718248 
L 125.15269 286.029178 
L 125.312069 283.901762 
L 125.471447 284.179962 
L 125.630826 283.525373 
L 125.790205 285.390953 
L 125.949584 284.62181 
L 126.587099 289.563963 
L 126.746477 289.269398 
L 126.905856 291.200437 
L 127.224614 289.13848 
L 127.383993 288.598443 
L 127.543371 290.529483 
L 127.70275 290.103999 
L 127.862129 288.532984 
L 128.021508 289.645787 
L 128.180886 289.940352 
L 128.499644 288.058407 
L 128.659023 289.13848 
L 128.818401 291.609556 
L 128.97778 290.480389 
L 129.296538 286.929239 
L 129.455916 287.305628 
L 129.615295 286.012814 
L 129.774674 285.980084 
L 129.934053 288.14023 
L 130.093432 287.911124 
L 130.25281 288.843914 
L 130.571568 285.292765 
L 130.730947 285.472777 
L 131.049704 294.195185 
L 131.209083 295.193435 
L 131.368462 293.393313 
L 131.52784 294.620669 
L 131.687219 294.767951 
L 132.005977 295.488 
L 132.165355 294.309738 
L 132.324734 294.178821 
L 132.643492 288.958467 
L 132.962249 286.781957 
L 133.121628 288.680267 
L 133.281007 288.843914 
L 133.440386 285.423683 
L 133.599764 285.505507 
L 133.759143 292.722358 
L 133.918522 292.28051 
L 134.237279 288.565714 
L 134.556037 288.516619 
L 134.715416 283.165348 
L 134.874794 282.527123 
L 135.034173 284.196327 
L 135.193552 284.556351 
L 135.352931 279.777846 
L 135.51231 279.597834 
L 135.671688 278.517761 
L 135.831067 279.614199 
L 136.309203 284.785458 
L 136.468582 284.359975 
L 136.627961 284.425434 
L 136.78734 283.361725 
L 137.106097 285.800072 
L 137.424855 287.747476 
L 137.584233 286.912875 
L 137.743612 286.929239 
L 137.902991 288.107501 
L 138.221749 287.960218 
L 138.381127 289.613057 
L 138.540506 288.729361 
L 138.699885 288.925738 
L 138.859264 289.72761 
L 139.178021 289.400315 
L 139.496779 290.120364 
L 139.815536 290.954966 
L 139.974915 288.843914 
L 140.293673 289.41668 
L 140.453051 289.203939 
L 140.771809 286.700133 
L 140.931188 286.749227 
L 141.090566 285.505507 
L 141.249945 285.227306 
L 141.409324 285.243671 
L 141.568703 286.405567 
L 141.728081 285.112753 
L 142.046839 284.409069 
L 142.365596 285.767342 
L 142.524975 284.769093 
L 142.684354 285.194576 
L 142.843733 285.2764 
L 143.003112 285.161847 
L 143.16249 283.918126 
L 143.321869 285.734613 
L 143.481248 285.538236 
L 143.640627 285.538236 
L 143.800005 285.407318 
L 143.959384 286.536485 
L 144.118763 288.909373 
L 144.278142 289.498504 
L 144.43752 292.198687 
L 144.596899 291.593191 
L 144.756278 292.018674 
L 144.915657 290.873142 
L 145.075035 291.936851 
L 145.234414 291.151343 
L 145.393793 293.24603 
L 145.712551 287.371087 
L 145.871929 287.125616 
L 146.031308 284.34361 
L 146.350066 285.636425 
L 146.509444 286.225555 
L 146.668823 285.652789 
L 146.828202 286.89651 
L 146.987581 285.570966 
L 147.146959 288.025677 
L 149.537641 288.025677 
L 149.69702 286.86378 
L 149.856398 289.351221 
L 150.015777 288.762091 
L 150.175156 288.925738 
L 150.334535 289.743975 
L 151.131429 286.601944 
L 151.290807 288.663902 
L 151.450186 285.456412 
L 151.768944 287.043792 
L 151.928322 286.798321 
L 152.24708 288.336607 
L 152.565837 287.125616 
L 152.725216 288.320242 
L 152.884595 287.5511 
L 153.203353 288.222054 
L 153.362731 286.160096 
L 153.52211 286.372838 
L 153.681489 284.785458 
L 153.840868 284.834552 
L 154.000246 285.93099 
L 154.319004 286.405567 
L 155.115898 281.676157 
L 155.275276 283.001701 
L 155.434655 283.214443 
L 155.594034 282.298017 
L 155.753413 284.081774 
L 155.912792 280.546989 
L 156.07217 280.743366 
L 156.231549 282.494394 
L 156.390928 281.185214 
L 156.709685 283.410819 
L 156.869064 285.390953 
L 157.028443 283.279902 
L 157.3472 282.690771 
L 157.506579 284.212692 
L 157.665958 283.950856 
L 158.144094 291.593191 
L 158.303473 291.364085 
L 158.462852 289.72761 
L 158.781609 292.705994 
L 158.940988 291.855027 
L 159.100367 293.27876 
L 159.259746 293.229665 
L 159.419124 291.151343 
L 159.737882 285.325494 
L 159.897261 284.62181 
L 160.056639 282.314382 
L 160.216018 282.052546 
L 160.375397 280.694272 
L 160.534776 281.47978 
L 160.694155 279.794211 
L 160.853533 283.427184 
L 161.012912 282.150734 
L 161.172291 282.592582 
L 161.491048 286.127367 
L 161.650427 286.912875 
L 161.969185 290.774954 
L 162.128563 287.992948 
L 162.287942 292.656899 
L 162.6067 285.93099 
L 162.766078 287.191075 
L 162.925457 283.590832 
L 163.084836 284.31088 
L 163.244215 285.963719 
L 163.562972 280.792461 
L 163.722351 283.198078 
L 163.88173 278.452302 
L 164.041109 277.323135 
L 164.200487 278.206831 
L 164.359866 274.802964 
L 164.519245 276.603086 
L 164.678624 275.343001 
L 164.838002 275.212083 
L 164.997381 275.997591 
L 165.15676 278.141372 
L 165.316139 277.732254 
L 165.794275 283.394455 
L 166.113033 288.025677 
L 168.025578 288.025677 
L 168.344335 289.547598 
L 168.503714 290.022176 
L 168.663093 288.909373 
L 168.822472 289.220303 
L 169.141229 291.085884 
L 169.300608 288.091136 
L 169.459987 287.731112 
L 169.778744 284.62181 
L 169.938123 284.130868 
L 170.097502 286.291014 
L 170.25688 286.24192 
L 170.416259 283.394455 
L 170.575638 282.625312 
L 170.735017 280.677907 
L 170.894396 286.520121 
L 171.372532 288.025677 
L 171.531911 289.842164 
L 171.691289 284.163598 
L 171.850668 282.7235 
L 172.010047 284.850917 
L 172.169426 284.719999 
L 172.328804 285.030929 
L 172.488183 281.496144 
L 172.647562 282.527123 
L 172.806941 284.818187 
L 173.125698 283.099889 
L 173.444456 287.682017 
L 173.603835 287.51837 
L 173.922592 290.856778 
L 174.081971 291.085884 
L 174.400728 288.091136 
L 174.560107 289.383951 
L 174.719486 288.14023 
L 175.197622 288.991197 
L 175.51638 285.440048 
L 175.835137 286.176461 
L 176.313274 286.356473 
L 176.472652 286.798321 
L 176.632031 284.425434 
L 176.950789 289.563963 
L 177.269546 288.402066 
L 177.588304 287.256534 
L 177.747682 288.434796 
L 178.06644 288.45116 
L 178.225819 290.431294 
L 178.544576 287.632923 
L 178.863334 290.971331 
L 179.022713 292.31324 
L 179.34147 289.793069 
L 179.500849 289.858528 
L 179.819606 286.225555 
L 179.978985 286.094637 
L 180.138364 283.279902 
L 180.297743 282.887148 
L 180.457121 284.327245 
L 180.6165 283.525373 
L 180.775879 285.947355 
L 180.935258 286.520121 
L 181.094636 285.440048 
L 181.413394 289.76034 
L 181.572773 289.334857 
L 181.732152 290.333106 
L 182.050909 287.060157 
L 182.210288 287.845665 
L 182.529045 286.111002 
L 182.688424 286.55285 
L 182.847803 286.291014 
L 183.007182 286.86378 
L 183.16656 287.943853 
L 183.325939 290.087635 
L 183.485318 289.662151 
L 183.644697 288.631173 
L 183.804076 288.925738 
L 183.963454 288.729361 
L 184.122833 288.320242 
L 184.282212 288.778455 
L 184.441591 287.698382 
L 184.600969 287.600194 
L 184.760348 286.798321 
L 184.919727 284.96547 
L 185.079106 285.669154 
L 185.238484 284.916376 
L 185.397863 284.752728 
L 185.557242 284.03268 
L 185.875999 286.847416 
L 186.035378 286.634674 
L 186.194757 287.109251 
L 186.354136 286.078273 
L 186.672893 286.814686 
L 186.832272 287.976583 
L 186.991651 288.156595 
L 187.15103 288.516619 
L 187.469787 285.440048 
L 187.788545 284.589081 
L 187.947923 286.487391 
L 188.107302 285.734613 
L 188.266681 284.441798 
L 188.42606 284.769093 
L 188.585438 283.34536 
L 189.063575 286.061908 
L 189.222954 287.911124 
L 189.541711 285.538236 
L 189.70109 285.963719 
L 189.860469 286.732862 
L 190.019847 286.27465 
L 190.179226 286.389203 
L 190.338605 285.881896 
L 190.497984 285.800072 
L 190.657362 284.867282 
L 190.816741 284.719999 
L 190.97612 285.669154 
L 191.135499 285.58733 
L 191.294877 285.767342 
L 191.773014 289.809434 
L 191.932393 288.549349 
L 192.091771 285.881896 
L 192.729286 289.809434 
L 192.888665 290.022176 
L 193.207423 286.716498 
L 193.366801 286.291014 
L 193.52618 287.027428 
L 193.685559 289.858528 
L 193.844938 290.3822 
L 194.004317 289.334857 
L 194.323074 286.929239 
L 194.482453 287.567464 
L 194.641832 287.469276 
L 194.960589 286.307379 
L 195.119968 287.698382 
L 195.279347 287.387452 
L 195.438725 286.27465 
L 195.757483 287.780206 
L 196.07624 286.127367 
L 196.235619 285.096388 
L 196.554377 287.354723 
L 196.713756 286.438297 
L 196.873134 286.27465 
L 197.032513 286.291014 
L 197.191892 285.783707 
L 197.510649 283.656291 
L 197.670028 283.72175 
L 197.829407 284.932741 
L 197.988786 285.112753 
L 198.148164 284.098139 
L 198.307543 284.278151 
L 198.626301 283.754479 
L 198.785679 282.838053 
L 198.945058 283.37809 
L 199.104437 284.916376 
L 199.263816 284.850917 
L 199.423195 283.983585 
L 199.582573 284.098139 
L 199.741952 284.049044 
L 200.06071 281.905263 
L 200.220088 281.397956 
L 200.379467 281.610698 
L 200.857603 278.092278 
L 201.016982 278.026819 
L 201.176361 277.208582 
L 201.33574 277.290405 
L 201.495118 277.094029 
L 201.654497 277.3395 
L 202.132634 276.619451 
L 202.770149 275.359366 
L 202.929527 274.573858 
L 203.248285 274.819329 
L 203.567042 273.919268 
L 203.726421 274.279293 
L 203.8858 273.706527 
L 204.045179 273.853809 
L 204.204558 274.246563 
L 204.363936 273.330138 
L 204.523315 273.231949 
L 204.682694 273.002843 
L 205.16083 270.499037 
L 205.320209 270.499037 
L 205.479588 269.746259 
L 205.638966 270.188107 
L 205.798345 269.173493 
L 205.957724 269.304411 
L 206.117103 268.71528 
L 206.43586 266.358757 
L 206.595239 266.636958 
L 206.754618 266.50604 
L 207.073375 264.902295 
L 207.551512 260.712921 
L 207.71089 259.649212 
L 207.870269 259.714671 
L 208.348405 255.148908 
L 208.507784 255.050719 
L 209.304678 249.781272 
L 209.464057 247.130184 
L 209.623436 246.982901 
L 210.101572 240.076979 
L 210.579708 234.791167 
L 211.057844 229.750826 
L 211.376602 225.201428 
L 212.014117 217.951846 
L 212.811011 204.598216 
L 213.129768 198.706908 
L 213.767283 184.322299 
L 215.998586 141.692143 
L 217.273616 123.838208 
L 218.548646 90.945074 
L 219.504919 61.210335 
L 219.823677 55.859064 
L 219.983055 55.024462 
L 220.142434 53.568 
L 220.301813 55.171745 
L 220.461192 58.690165 
L 221.098707 91.943323 
L 221.736222 137.551863 
L 222.533116 196.644951 
L 223.330009 237.049502 
L 223.967524 253.561528 
L 224.126903 255.836227 
L 224.605039 265.638708 
L 225.720691 276.783098 
L 226.039448 277.863171 
L 226.836342 282.036181 
L 226.995721 281.937993 
L 227.1551 282.363476 
L 227.314479 281.47978 
L 227.951994 284.687269 
L 228.111372 284.392704 
L 228.270751 285.194576 
L 228.43013 285.129117 
L 228.589509 286.111002 
L 228.748887 286.012814 
L 228.908266 286.405567 
L 229.067645 286.405567 
L 229.545781 285.521871 
L 229.70516 286.291014 
L 229.864539 286.225555 
L 230.183296 286.618309 
L 230.502054 287.17471 
L 230.820811 286.765592 
L 230.98019 286.700133 
L 231.298948 287.272899 
L 231.458326 286.929239 
L 231.777084 285.538236 
L 231.936463 285.832801 
L 232.095841 286.798321 
L 232.414599 287.371087 
L 232.573978 286.781957 
L 232.733357 287.240169 
L 232.892735 286.961969 
L 233.052114 286.945604 
L 233.211493 286.454662 
L 233.53025 287.845665 
L 233.689629 287.5511 
L 233.849008 287.665653 
L 234.008387 287.305628 
L 234.167765 287.502005 
L 234.486523 286.749227 
L 234.645902 286.847416 
L 234.80528 288.009312 
L 235.124038 287.894759 
L 235.283417 287.812935 
L 235.442796 286.683768 
L 235.761553 286.143732 
L 236.080311 288.418431 
L 236.558447 286.55285 
L 236.717826 286.89651 
L 236.877204 286.700133 
L 237.036583 287.714747 
L 237.195962 287.86203 
L 237.355341 289.645787 
L 237.674098 287.731112 
L 237.992856 288.745726 
L 238.152235 288.942103 
L 238.311613 288.042042 
L 238.470992 288.091136 
L 238.630371 288.843914 
L 238.78975 288.942103 
L 238.949128 288.042042 
L 239.267886 288.532984 
L 239.427265 288.336607 
L 239.586643 288.680267 
L 239.746022 288.14023 
L 239.905401 288.614808 
L 240.06478 288.500255 
L 240.224159 287.747476 
L 240.383537 288.729361 
L 240.702295 288.17296 
L 241.021052 288.45116 
L 241.33981 289.056656 
L 241.658567 287.616558 
L 241.817946 288.254783 
L 241.977325 287.452911 
L 242.136704 287.845665 
L 242.296082 287.812935 
L 242.774219 285.947355 
L 243.252355 288.17296 
L 243.411734 286.994698 
L 243.88987 286.86378 
L 244.049249 286.487391 
L 244.208628 287.649288 
L 244.368006 287.649288 
L 244.527385 287.027428 
L 245.324279 287.8293 
L 245.483658 288.500255 
L 245.643037 290.103999 
L 245.802415 289.809434 
L 245.961794 289.236668 
L 246.121173 289.596692 
L 246.43993 288.663902 
L 246.918067 289.825799 
L 247.396203 286.978333 
L 247.714961 286.994698 
L 248.033718 286.798321 
L 248.352476 284.916376 
L 248.511854 284.62181 
L 248.671233 285.750978 
L 248.830612 285.996449 
L 249.149369 287.141981 
L 249.308748 286.994698 
L 249.468127 287.272899 
L 249.627506 286.58558 
L 249.786884 287.682017 
L 249.946263 287.780206 
L 250.265021 286.634674 
L 250.4244 287.027428 
L 250.583778 287.960218 
L 250.902536 287.485641 
L 251.061915 287.665653 
L 251.380672 288.680267 
L 251.540051 287.878394 
L 251.69943 288.876644 
L 251.858808 288.827549 
L 252.336945 286.994698 
L 252.496323 287.125616 
L 252.655702 286.831051 
L 252.815081 287.092887 
L 252.97446 286.651039 
L 253.133839 287.289264 
L 253.293217 286.86378 
L 253.452596 287.060157 
L 253.771354 286.929239 
L 253.930732 287.420182 
L 254.24949 287.321993 
L 254.408869 287.371087 
L 254.568247 287.272899 
L 254.727626 286.700133 
L 254.887005 286.716498 
L 255.046384 286.307379 
L 255.205762 286.209191 
L 255.365141 285.800072 
L 255.52452 286.012814 
L 255.843278 287.452911 
L 256.002656 287.321993 
L 256.321414 288.352972 
L 256.480793 288.123866 
L 256.79955 288.369337 
L 256.958929 289.285762 
L 257.437065 287.796571 
L 257.596444 287.8293 
L 257.755823 287.682017 
L 257.915201 287.371087 
L 258.07458 287.632923 
L 258.233959 287.485641 
L 258.393338 287.583829 
L 258.552717 286.749227 
L 258.712095 287.665653 
L 258.871474 287.632923 
L 259.030853 286.880145 
L 259.190232 286.667403 
L 259.508989 286.012814 
L 259.668368 286.225555 
L 259.827747 286.192826 
L 259.987125 286.454662 
L 260.146504 287.371087 
L 260.305883 286.58558 
L 260.465262 286.601944 
L 260.624641 287.747476 
L 260.943398 287.763841 
L 261.102777 288.598443 
L 261.262156 288.107501 
L 261.421534 288.974832 
L 261.740292 288.222054 
L 261.899671 289.383951 
L 262.059049 289.203939 
L 262.218428 288.189324 
L 262.377807 288.402066 
L 262.696564 287.894759 
L 262.855943 288.271148 
L 263.015322 287.812935 
L 263.33408 288.091136 
L 263.493458 287.354723 
L 263.652837 287.289264 
L 263.812216 288.074771 
L 263.971595 288.025677 
L 264.130973 288.123866 
L 264.290352 288.79482 
L 264.449731 288.680267 
L 264.60911 288.352972 
L 264.768488 288.631173 
L 264.927867 288.663902 
L 265.087246 287.976583 
L 265.246625 289.089385 
L 265.406003 288.516619 
L 266.043519 289.253033 
L 266.362276 290.005811 
L 266.521655 289.743975 
L 266.681034 290.480389 
L 266.840412 289.383951 
L 267.318549 290.185823 
L 267.477927 288.663902 
L 267.796685 289.629422 
L 268.115442 288.271148 
L 268.274821 288.352972 
L 268.4342 289.122115 
L 268.912336 287.927489 
L 269.071715 288.303878 
L 269.231094 288.189324 
L 269.390473 287.321993 
L 269.549851 287.5511 
L 269.70923 287.272899 
L 270.027988 286.225555 
L 270.187366 286.749227 
L 270.665503 286.831051 
L 270.824882 286.340109 
L 270.98426 286.55285 
L 271.143639 286.994698 
L 271.303018 286.978333 
L 271.462397 287.616558 
L 271.621775 286.749227 
L 271.940533 287.240169 
L 272.25929 287.682017 
L 272.418669 287.272899 
L 272.737427 287.420182 
L 272.896805 288.025677 
L 273.056184 287.223805 
L 273.215563 287.714747 
L 273.374942 287.698382 
L 273.534321 287.5511 
L 274.171836 285.30913 
L 274.490593 284.916376 
L 274.809351 285.93099 
L 274.968729 285.538236 
L 275.128108 284.62181 
L 275.446866 286.683768 
L 275.606244 288.17296 
L 275.765623 288.303878 
L 275.925002 289.13848 
L 276.562517 288.958467 
L 276.721896 289.891258 
L 276.881275 289.547598 
L 277.040653 289.613057 
L 277.200032 288.79482 
L 277.359411 289.400315 
L 277.51879 289.056656 
L 277.678168 289.187574 
L 277.837547 289.498504 
L 277.996926 290.496753 
L 278.156305 289.825799 
L 278.475062 289.645787 
L 278.634441 290.300376 
L 278.79382 290.447659 
L 279.112577 289.514869 
L 279.271956 290.349471 
L 279.431335 290.153094 
L 279.590714 289.334857 
L 279.909471 290.971331 
L 280.06885 291.085884 
L 280.387607 290.153094 
L 280.706365 291.495003 
L 280.865744 290.644036 
L 281.025123 291.560462 
L 281.34388 291.707744 
L 281.503259 291.249531 
L 281.662638 291.65865 
L 281.822016 291.445908 
L 281.981395 291.936851 
L 282.140774 291.511367 
L 283.256425 286.651039 
L 283.575183 286.601944 
L 283.734562 285.734613 
L 283.89394 285.980084 
L 284.053319 286.454662 
L 284.212698 286.307379 
L 284.531455 288.467525 
L 284.690834 288.680267 
L 284.850213 288.123866 
L 285.009592 288.500255 
L 285.16897 288.516619 
L 285.328349 288.663902 
L 285.647107 287.812935 
L 285.806485 288.222054 
L 286.125243 286.667403 
L 286.284622 286.471026 
L 286.444001 286.601944 
L 286.603379 286.127367 
L 286.762758 286.323744 
L 287.081516 288.909373 
L 287.240894 288.778455 
L 287.400273 288.17296 
L 287.878409 288.549349 
L 288.197167 289.629422 
L 288.356546 288.974832 
L 288.675303 287.141981 
L 288.994061 288.17296 
L 289.15344 287.698382 
L 289.312818 287.780206 
L 289.472197 287.731112 
L 289.631576 287.191075 
L 289.950333 287.223805 
L 290.109712 288.500255 
L 290.269091 288.45116 
L 290.42847 288.532984 
L 290.587848 288.418431 
L 290.747227 289.334857 
L 291.065985 289.154844 
L 291.225364 289.269398 
L 291.544121 289.743975 
L 292.022257 288.058407 
L 292.181636 288.009312 
L 292.341015 287.027428 
L 292.500394 286.994698 
L 292.819151 287.86203 
L 292.97853 287.223805 
L 293.137909 287.240169 
L 293.456666 288.48389 
L 293.616045 288.287513 
L 293.775424 288.369337 
L 293.934803 288.271148 
L 294.25356 288.876644 
L 294.412939 288.303878 
L 294.572318 289.269398 
L 294.731696 289.367586 
L 294.891075 288.189324 
L 295.050454 288.009312 
L 295.209833 288.14023 
L 295.369211 287.747476 
L 295.52859 287.731112 
L 295.687969 287.060157 
L 295.847348 287.076522 
L 296.006726 287.485641 
L 296.166105 286.372838 
L 296.325484 286.225555 
L 296.644242 287.076522 
L 296.80362 287.043792 
L 297.281757 288.860279 
L 297.600514 288.598443 
L 298.07865 290.267647 
L 298.238029 289.596692 
L 298.397408 290.513118 
L 298.716165 288.582078 
L 298.875544 289.858528 
L 299.194302 288.745726 
L 299.353681 288.532984 
L 299.513059 287.583829 
L 299.991196 287.092887 
L 300.150574 288.189324 
L 300.309953 288.17296 
L 300.469332 286.520121 
L 300.628711 287.469276 
L 300.788089 287.714747 
L 301.106847 288.827549 
L 301.266226 288.467525 
L 301.425604 288.631173 
L 301.584983 287.845665 
L 301.744362 287.649288 
L 301.903741 288.058407 
L 302.06312 287.8293 
L 302.381877 287.992948 
L 302.541256 287.387452 
L 302.700635 287.682017 
L 302.860013 287.649288 
L 303.178771 289.040291 
L 303.497528 289.923987 
L 303.656907 290.234917 
L 303.816286 289.236668 
L 303.975665 289.41668 
L 304.294422 288.385701 
L 304.453801 288.745726 
L 304.61318 288.45116 
L 304.772559 288.631173 
L 305.091316 287.992948 
L 305.250695 288.631173 
L 305.410074 288.385701 
L 305.569452 288.712996 
L 305.728831 288.549349 
L 305.88821 288.074771 
L 306.206967 288.303878 
L 306.525725 286.24192 
L 306.844483 285.243671 
L 307.16324 285.440048 
L 307.322619 286.667403 
L 307.481998 286.945604 
L 307.800755 286.127367 
L 308.278891 288.712996 
L 308.43827 288.385701 
L 308.757028 289.907623 
L 308.916406 289.874893 
L 309.075785 289.482139 
L 309.235164 288.434796 
L 309.394543 288.843914 
L 309.7133 288.123866 
L 309.872679 287.043792 
L 310.032058 288.025677 
L 310.350815 287.272899 
L 310.510194 287.272899 
L 310.828952 289.645787 
L 310.98833 288.843914 
L 311.307088 289.596692 
L 311.466467 290.791319 
L 311.625845 290.562212 
L 311.785224 290.72586 
L 312.103982 289.76034 
L 312.263361 288.320242 
L 312.422739 288.385701 
L 312.582118 289.923987 
L 312.741497 289.318492 
L 313.060254 288.909373 
L 313.219633 289.220303 
L 313.538391 288.974832 
L 313.697769 289.13848 
L 313.857148 290.218553 
L 314.175906 288.598443 
L 314.335285 288.549349 
L 314.494663 288.811185 
L 314.813421 288.222054 
L 314.9728 288.402066 
L 315.291557 289.433045 
L 315.450936 289.122115 
L 315.929072 290.562212 
L 316.088451 290.300376 
L 316.24783 290.840413 
L 316.407208 290.398565 
L 316.725966 290.873142 
L 316.885345 288.942103 
L 317.044724 288.565714 
L 317.204102 288.79482 
L 317.52286 287.583829 
L 317.682239 287.354723 
L 318.000996 287.485641 
L 318.160375 287.387452 
L 318.319754 286.716498 
L 318.638511 287.845665 
L 318.79789 288.042042 
L 318.957269 289.122115 
L 319.116647 289.187574 
L 319.276026 289.073021 
L 319.435405 289.13848 
L 319.594784 289.662151 
L 319.754163 289.482139 
L 319.913541 289.989446 
L 320.07292 291.118614 
L 320.232299 291.069519 
L 320.391678 290.709495 
L 320.551056 289.956717 
L 320.869814 290.840413 
L 321.029193 290.758589 
L 321.188571 290.41493 
L 321.507329 291.298626 
L 321.666708 290.185823 
L 321.826086 290.464024 
L 321.985465 290.447659 
L 322.144844 290.153094 
L 322.463602 288.958467 
L 322.62298 289.400315 
L 322.941738 289.465774 
L 323.101117 289.056656 
L 323.260495 289.547598 
L 323.419874 289.203939 
L 323.579253 289.171209 
L 324.057389 291.102249 
L 324.535526 287.927489 
L 324.694904 288.222054 
L 324.854283 288.025677 
L 325.013662 288.352972 
L 325.173041 288.352972 
L 325.651177 285.685519 
L 325.810556 286.078273 
L 325.969934 287.682017 
L 326.129313 288.14023 
L 326.288692 287.272899 
L 326.448071 287.845665 
L 326.766828 286.536485 
L 327.085586 287.600194 
L 327.404343 288.352972 
L 327.563722 287.043792 
L 327.723101 287.960218 
L 327.88248 288.123866 
L 328.041858 287.17471 
L 328.201237 287.436546 
L 328.360616 287.960218 
L 328.519995 287.583829 
L 328.838752 287.485641 
L 328.998131 286.814686 
L 329.15751 287.403817 
L 329.316888 286.749227 
L 329.476267 286.732862 
L 329.635646 287.354723 
L 329.795025 286.961969 
L 329.954404 286.209191 
L 330.113782 286.356473 
L 330.273161 286.291014 
L 330.43254 286.389203 
L 330.591919 286.880145 
L 330.910676 285.636425 
L 331.070055 285.816437 
L 331.388812 285.030929 
L 331.548191 286.651039 
L 331.70757 285.718248 
L 331.866949 286.078273 
L 332.026327 285.832801 
L 332.185706 285.89826 
L 332.345085 286.55285 
L 332.663843 286.651039 
L 332.823221 287.109251 
L 332.9826 288.058407 
L 333.141979 287.17471 
L 333.301358 287.583829 
L 333.460736 287.272899 
L 333.779494 288.009312 
L 333.938873 287.747476 
L 334.098251 287.927489 
L 334.25763 287.698382 
L 334.417009 288.189324 
L 334.576388 287.8293 
L 334.735767 286.978333 
L 334.895145 288.17296 
L 335.054524 287.894759 
L 335.213903 287.894759 
L 335.373282 286.978333 
L 335.692039 287.845665 
L 336.010797 288.009312 
L 336.329554 288.958467 
L 336.488933 288.107501 
L 336.648312 289.858528 
L 336.967069 290.627671 
L 337.285827 290.202188 
L 337.445206 290.480389 
L 337.604584 289.776705 
L 337.763963 290.005811 
L 337.923342 290.72586 
L 338.082721 290.447659 
L 338.242099 289.563963 
L 338.401478 289.973082 
L 338.720236 289.662151 
L 338.879614 289.596692 
L 339.038993 288.663902 
L 339.198372 289.122115 
L 339.357751 288.958467 
L 339.517129 288.025677 
L 339.676508 288.336607 
L 339.835887 287.747476 
L 339.995266 286.405567 
L 340.79216 284.949105 
L 340.951538 285.096388 
L 341.110917 286.192826 
L 341.270296 285.701884 
L 341.429675 286.176461 
L 341.907811 289.580328 
L 342.06719 289.662151 
L 342.226568 289.874893 
L 342.385947 289.334857 
L 342.545326 287.698382 
L 342.704705 287.321993 
L 342.864084 288.582078 
L 343.182841 286.520121 
L 343.34222 286.961969 
L 343.501599 286.094637 
L 343.820356 288.254783 
L 343.979735 288.287513 
L 344.139114 288.958467 
L 344.298492 288.614808 
L 344.457871 289.10575 
L 344.61725 287.321993 
L 344.776629 289.465774 
L 344.936007 287.305628 
L 345.254765 286.27465 
L 345.573523 283.410819 
L 345.89228 283.787209 
L 346.051659 282.118005 
L 346.211038 283.476278 
L 346.370416 281.348862 
L 346.529795 282.952607 
L 346.689174 283.410819 
L 346.848553 283.198078 
L 347.007931 283.247172 
L 347.16731 283.68902 
L 347.326689 284.703634 
L 347.486068 284.785458 
L 347.645447 285.112753 
L 347.804825 286.389203 
L 347.964204 286.487391 
L 348.123583 285.980084 
L 348.44234 286.716498 
L 348.601719 287.780206 
L 348.761098 289.973082 
L 348.920477 288.876644 
L 349.079855 288.712996 
L 349.398613 288.107501 
L 349.557992 288.369337 
L 349.71737 289.220303 
L 349.876749 289.41668 
L 350.195507 289.203939 
L 350.354886 288.14023 
L 350.514264 288.876644 
L 350.673643 289.056656 
L 350.833022 287.960218 
L 350.992401 288.598443 
L 351.629916 286.765592 
L 351.789294 286.732862 
L 351.948673 288.565714 
L 352.108052 288.091136 
L 352.267431 288.336607 
L 352.426809 289.531233 
L 352.586188 288.811185 
L 352.745567 290.022176 
L 352.904946 288.680267 
L 353.064325 288.925738 
L 353.223703 289.596692 
L 353.383082 288.434796 
L 353.542461 288.45116 
L 354.020597 290.480389 
L 354.339355 289.989446 
L 354.498733 291.773203 
L 354.817491 289.302127 
L 354.97687 290.627671 
L 355.295627 286.847416 
L 355.455006 285.685519 
L 355.773764 286.225555 
L 356.092521 284.425434 
L 356.2519 284.62181 
L 356.411279 285.292765 
L 356.570657 284.605446 
L 356.730036 285.603695 
L 356.889415 285.096388 
L 357.048794 286.765592 
L 357.208172 285.407318 
L 357.52693 288.14023 
L 357.686309 287.305628 
L 357.845688 287.256534 
L 358.483203 289.498504 
L 358.642581 288.811185 
L 358.80196 289.400315 
L 359.120718 288.565714 
L 359.280096 289.122115 
L 359.439475 288.614808 
L 359.598854 289.007562 
L 359.758233 288.287513 
L 359.917611 288.14023 
L 360.07699 288.45116 
L 360.714505 285.374589 
L 360.873884 285.423683 
L 361.033263 286.078273 
L 361.192642 285.178212 
L 361.35202 284.916376 
L 361.511399 284.081774 
L 361.830157 284.900011 
L 361.989535 284.409069 
L 362.148914 284.62181 
L 362.467672 285.914625 
L 362.62705 286.061908 
L 363.105187 288.352972 
L 363.264566 288.287513 
L 363.423944 288.352972 
L 363.583323 289.498504 
L 363.902081 288.320242 
L 364.061459 288.549349 
L 364.220838 289.007562 
L 365.017732 288.14023 
L 365.177111 287.17471 
L 365.336489 286.89651 
L 365.495868 287.796571 
L 365.655247 287.8293 
L 365.974005 285.685519 
L 366.133383 285.423683 
L 366.292762 284.719999 
L 366.452141 284.752728 
L 366.770898 283.787209 
L 366.930277 284.474528 
L 367.089656 283.34536 
L 367.249035 284.229057 
L 367.567792 287.011063 
L 367.88655 287.698382 
L 368.045929 287.043792 
L 368.205307 287.731112 
L 368.364686 288.974832 
L 368.524065 289.253033 
L 368.683444 289.76034 
L 369.002201 287.780206 
L 369.16158 286.978333 
L 369.320959 286.847416 
L 369.480337 287.223805 
L 369.799095 288.762091 
L 369.958474 288.320242 
L 370.117852 288.418431 
L 370.277231 289.41668 
L 370.43661 289.465774 
L 370.595989 288.614808 
L 370.914746 289.351221 
L 371.074125 289.41668 
L 371.233504 288.434796 
L 371.552261 289.743975 
L 371.71164 289.351221 
L 372.030398 288.222054 
L 372.189776 288.336607 
L 372.349155 287.845665 
L 372.508534 287.747476 
L 372.667913 287.780206 
L 372.827291 287.976583 
L 372.98667 286.831051 
L 373.146049 287.092887 
L 373.305428 286.651039 
L 373.783564 288.369337 
L 373.942943 289.285762 
L 374.2617 287.960218 
L 374.421079 288.516619 
L 374.580458 287.567464 
L 374.739837 287.420182 
L 374.899215 288.336607 
L 375.058594 288.222054 
L 375.217973 287.747476 
L 375.377352 287.960218 
L 375.53673 286.945604 
L 375.696109 288.14023 
L 375.855488 288.156595 
L 376.174246 289.842164 
L 376.333624 288.827549 
L 376.493003 288.778455 
L 376.652382 289.073021 
L 376.811761 288.843914 
L 376.971139 288.042042 
L 377.130518 287.845665 
L 377.289897 288.009312 
L 377.449276 288.369337 
L 377.608654 288.025677 
L 377.927412 288.205689 
L 378.24617 286.438297 
L 378.405548 286.487391 
L 378.724306 288.729361 
L 379.043063 289.629422 
L 379.361821 288.500255 
L 379.5212 288.582078 
L 379.839957 288.156595 
L 379.999336 288.123866 
L 380.158715 286.716498 
L 380.477472 287.027428 
L 380.636851 285.652789 
L 380.79623 285.456412 
L 381.433745 287.5511 
L 381.752502 289.842164 
L 382.07126 287.092887 
L 382.230639 287.86203 
L 382.708775 286.634674 
L 383.027532 288.189324 
L 383.186911 287.534735 
L 383.505669 287.502005 
L 383.665048 288.712996 
L 383.824426 288.663902 
L 383.983805 289.040291 
L 384.143184 290.365835 
L 384.302563 290.513118 
L 384.62132 288.091136 
L 384.940078 287.665653 
L 385.099456 287.927489 
L 385.258835 287.583829 
L 385.418214 287.698382 
L 385.577593 287.485641 
L 385.736971 286.454662 
L 385.89635 286.307379 
L 386.055729 286.55285 
L 386.215108 287.125616 
L 386.374487 287.027428 
L 386.533865 286.749227 
L 386.693244 287.141981 
L 386.852623 286.929239 
L 387.012002 286.503756 
L 387.17138 286.945604 
L 387.490138 286.89651 
L 387.649517 287.534735 
L 387.808895 287.256534 
L 387.968274 287.321993 
L 388.287032 288.271148 
L 388.605789 288.79482 
L 388.765168 288.271148 
L 388.924547 288.385701 
L 389.083926 289.596692 
L 389.243304 289.711246 
L 389.562062 291.118614 
L 389.721441 290.447659 
L 390.040198 291.200437 
L 390.199577 290.578577 
L 390.358956 291.34772 
L 390.837092 289.514869 
L 390.996471 289.220303 
L 391.15585 289.171209 
L 391.315228 289.302127 
L 391.474607 288.516619 
L 391.633986 288.991197 
L 391.793365 290.316741 
L 392.112122 290.153094 
L 392.271501 290.054905 
L 392.43088 290.971331 
L 392.590258 290.120364 
L 392.909016 291.495003 
L 393.068395 291.200437 
L 393.387152 289.482139 
L 393.546531 289.351221 
L 393.70591 290.03854 
L 393.865289 290.103999 
L 394.184046 289.253033 
L 394.502804 288.271148 
L 394.662182 288.598443 
L 394.821561 288.025677 
L 394.98094 288.17296 
L 395.140319 288.107501 
L 395.459076 289.056656 
L 395.618455 288.827549 
L 395.777834 289.809434 
L 395.937212 290.054905 
L 396.25597 289.498504 
L 396.415349 290.938601 
L 396.574728 290.824048 
L 396.734106 291.134978 
L 396.893485 290.153094 
L 397.052864 290.398565 
L 397.849758 293.066018 
L 398.009136 292.62417 
L 398.168515 292.607805 
L 398.327894 292.264146 
L 398.487273 293.131477 
L 398.487273 293.131477 
" style="fill:none;stroke:#1f77b4;stroke-linecap:square;stroke-width:1.5;"/>
   </g>
   <g id="patch_3">
    <path d="M 57.6 307.584 
L 57.6 41.472 
" style="fill:none;stroke:#000000;stroke-linecap:square;stroke-linejoin:miter;stroke-width:0.8;"/>
   </g>
   <g id="patch_4">
    <path d="M 414.72 307.584 
L 414.72 41.472 
" style="fill:none;stroke:#000000;stroke-linecap:square;stroke-linejoin:miter;stroke-width:0.8;"/>
   </g>
   <g id="patch_5">
    <path d="M 57.6 307.584 
L 414.72 307.584 
" style="fill:none;stroke:#000000;stroke-linecap:square;stroke-linejoin:miter;stroke-width:0.8;"/>
   </g>
   <g id="patch_6">
    <path d="M 57.6 41.472 
L 414.72 41.472 
" style="fill:none;stroke:#000000;stroke-linecap:square;stroke-linejoin:miter;stroke-width:0.8;"/>
   </g>
   <g id="text_16">
    <!-- Averaged and subtracted signal -->
    <g transform="translate(140.569687 35.472)scale(0.12 -0.12)">
     <defs>
      <path d="M 2188 4044 
L 1331 1722 
L 3047 1722 
L 2188 4044 
z
M 1831 4666 
L 2547 4666 
L 4325 0 
L 3669 0 
L 3244 1197 
L 1141 1197 
L 716 0 
L 50 0 
L 1831 4666 
z
" id="DejaVuSans-41" transform="scale(0.015625)"/>
      <path d="M 2631 2963 
Q 2534 3019 2420 3045 
Q 2306 3072 2169 3072 
Q 1681 3072 1420 2755 
Q 1159 2438 1159 1844 
L 1159 0 
L 581 0 
L 581 3500 
L 1159 3500 
L 1159 2956 
Q 1341 3275 1631 3429 
Q 1922 3584 2338 3584 
Q 2397 3584 2469 3576 
Q 2541 3569 2628 3553 
L 2631 2963 
z
" id="DejaVuSans-72" transform="scale(0.015625)"/>
      <path d="M 2906 2969 
L 2906 4863 
L 3481 4863 
L 3481 0 
L 2906 0 
L 2906 525 
Q 2725 213 2448 61 
Q 2172 -91 1784 -91 
Q 1150 -91 751 415 
Q 353 922 353 1747 
Q 353 2572 751 3078 
Q 1150 3584 1784 3584 
Q 2172 3584 2448 3432 
Q 2725 3281 2906 2969 
z
M 947 1747 
Q 947 1113 1208 752 
Q 1469 391 1925 391 
Q 2381 391 2643 752 
Q 2906 1113 2906 1747 
Q 2906 2381 2643 2742 
Q 2381 3103 1925 3103 
Q 1469 3103 1208 2742 
Q 947 2381 947 1747 
z
" id="DejaVuSans-64" transform="scale(0.015625)"/>
      <path d="M 3116 1747 
Q 3116 2381 2855 2742 
Q 2594 3103 2138 3103 
Q 1681 3103 1420 2742 
Q 1159 2381 1159 1747 
Q 1159 1113 1420 752 
Q 1681 391 2138 391 
Q 2594 391 2855 752 
Q 3116 1113 3116 1747 
z
M 1159 2969 
Q 1341 3281 1617 3432 
Q 1894 3584 2278 3584 
Q 2916 3584 3314 3078 
Q 3713 2572 3713 1747 
Q 3713 922 3314 415 
Q 2916 -91 2278 -91 
Q 1894 -91 1617 61 
Q 1341 213 1159 525 
L 1159 0 
L 581 0 
L 581 4863 
L 1159 4863 
L 1159 2969 
z
" id="DejaVuSans-62" transform="scale(0.015625)"/>
      <path d="M 3122 3366 
L 3122 2828 
Q 2878 2963 2633 3030 
Q 2388 3097 2138 3097 
Q 1578 3097 1268 2742 
Q 959 2388 959 1747 
Q 959 1106 1268 751 
Q 1578 397 2138 397 
Q 2388 397 2633 464 
Q 2878 531 3122 666 
L 3122 134 
Q 2881 22 2623 -34 
Q 2366 -91 2075 -91 
Q 1284 -91 818 406 
Q 353 903 353 1747 
Q 353 2603 823 3093 
Q 1294 3584 2113 3584 
Q 2378 3584 2631 3529 
Q 2884 3475 3122 3366 
z
" id="DejaVuSans-63" transform="scale(0.015625)"/>
      <path d="M 603 3500 
L 1178 3500 
L 1178 0 
L 603 0 
L 603 3500 
z
M 603 4863 
L 1178 4863 
L 1178 4134 
L 603 4134 
L 603 4863 
z
" id="DejaVuSans-69" transform="scale(0.015625)"/>
     </defs>
     <use xlink:href="#DejaVuSans-41"/>
     <use x="62.533203" xlink:href="#DejaVuSans-76"/>
     <use x="121.712891" xlink:href="#DejaVuSans-65"/>
     <use x="183.236328" xlink:href="#DejaVuSans-72"/>
     <use x="224.349609" xlink:href="#DejaVuSans-61"/>
     <use x="285.628906" xlink:href="#DejaVuSans-67"/>
     <use x="349.105469" xlink:href="#DejaVuSans-65"/>
     <use x="410.628906" xlink:href="#DejaVuSans-64"/>
     <use x="474.105469" xlink:href="#DejaVuSans-20"/>
     <use x="505.892578" xlink:href="#DejaVuSans-61"/>
     <use x="567.171875" xlink:href="#DejaVuSans-6e"/>
     <use x="630.550781" xlink:href="#DejaVuSans-64"/>
     <use x="694.027344" xlink:href="#DejaVuSans-20"/>
     <use x="725.814453" xlink:href="#DejaVuSans-73"/>
     <use x="777.914062" xlink:href="#DejaVuSans-75"/>
     <use x="841.292969" xlink:href="#DejaVuSans-62"/>
     <use x="904.769531" xlink:href="#DejaVuSans-74"/>
     <use x="943.978516" xlink:href="#DejaVuSans-72"/>
     <use x="985.091797" xlink:href="#DejaVuSans-61"/>
     <use x="1046.371094" xlink:href="#DejaVuSans-63"/>
     <use x="1101.351562" xlink:href="#DejaVuSans-74"/>
     <use x="1140.560547" xlink:href="#DejaVuSans-65"/>
     <use x="1202.083984" xlink:href="#DejaVuSans-64"/>
     <use x="1265.560547" xlink:href="#DejaVuSans-20"/>
     <use x="1297.347656" xlink:href="#DejaVuSans-73"/>
     <use x="1349.447266" xlink:href="#DejaVuSans-69"/>
     <use x="1377.230469" xlink:href="#DejaVuSans-67"/>
     <use x="1440.707031" xlink:href="#DejaVuSans-6e"/>
     <use x="1504.085938" xlink:href="#DejaVuSans-61"/>
     <use x="1565.365234" xlink:href="#DejaVuSans-6c"/>
    </g>
   </g>
  </g>
 </g>
 <defs>
  <clipPath id="pcbad3db6ae">
   <rect height="266.112" width="357.12" x="57.6" y="41.472"/>
  </clipPath>
 </defs>
</svg>
