<?xml version="1.0" encoding="utf-8" standalone="no"?>
<!DOCTYPE svg PUBLIC "-//W3C//DTD SVG 1.1//EN"
  "http://www.w3.org/Graphics/SVG/1.1/DTD/svg11.dtd">
<svg height="345.6pt" version="1.1" viewBox="0 0 460.8 345.6" width="460.8pt" xmlns="http://www.w3.org/2000/svg" xmlns:xlink="http://www.w3.org/1999/xlink">
 <metadata>
  <rdf:RDF xmlns:cc="http://creativecommons.org/ns#" xmlns:dc="http://purl.org/dc/elements/1.1/" xmlns:rdf="http://www.w3.org/1999/02/22-rdf-syntax-ns#">
   <cc:Work>
    <dc:type rdf:resource="http://purl.org/dc/dcmitype/StillImage"/>
    <dc:date>2022-04-22T16:06:47.087199</dc:date>
    <dc:format>image/svg+xml</dc:format>
    <dc:creator>
     <cc:Agent>
      <dc:title>Matplotlib v3.4.1, https://matplotlib.org/</dc:title>
     </cc:Agent>
    </dc:creator>
   </cc:Work>
  </rdf:RDF>
 </metadata>
 <defs>
  <style type="text/css">*{stroke-linecap:butt;stroke-linejoin:round;}</style>
 </defs>
 <g id="figure_1">
  <g id="patch_1">
   <path d="M 0 345.6 
L 460.8 345.6 
L 460.8 0 
L 0 0 
z
" style="fill:#ffffff;"/>
  </g>
  <g id="axes_1">
   <g id="patch_2">
    <path d="M 57.6 307.584 
L 414.72 307.584 
L 414.72 41.472 
L 57.6 41.472 
z
" style="fill:#ffffff;"/>
   </g>
   <g id="matplotlib.axis_1">
    <g id="xtick_1">
     <g id="line2d_1">
      <defs>
       <path d="M 0 0 
L 0 3.5 
" id="m87d52adecd" style="stroke:#000000;stroke-width:0.8;"/>
      </defs>
      <g>
       <use style="stroke:#000000;stroke-width:0.8;" x="102.929605" xlink:href="#m87d52adecd" y="307.584"/>
      </g>
     </g>
     <g id="text_1">
      <!-- 400 -->
      <g transform="translate(93.385855 322.182437)scale(0.1 -0.1)">
       <defs>
        <path d="M 2419 4116 
L 825 1625 
L 2419 1625 
L 2419 4116 
z
M 2253 4666 
L 3047 4666 
L 3047 1625 
L 3713 1625 
L 3713 1100 
L 3047 1100 
L 3047 0 
L 2419 0 
L 2419 1100 
L 313 1100 
L 313 1709 
L 2253 4666 
z
" id="DejaVuSans-34" transform="scale(0.015625)"/>
        <path d="M 2034 4250 
Q 1547 4250 1301 3770 
Q 1056 3291 1056 2328 
Q 1056 1369 1301 889 
Q 1547 409 2034 409 
Q 2525 409 2770 889 
Q 3016 1369 3016 2328 
Q 3016 3291 2770 3770 
Q 2525 4250 2034 4250 
z
M 2034 4750 
Q 2819 4750 3233 4129 
Q 3647 3509 3647 2328 
Q 3647 1150 3233 529 
Q 2819 -91 2034 -91 
Q 1250 -91 836 529 
Q 422 1150 422 2328 
Q 422 3509 836 4129 
Q 1250 4750 2034 4750 
z
" id="DejaVuSans-30" transform="scale(0.015625)"/>
       </defs>
       <use xlink:href="#DejaVuSans-34"/>
       <use x="63.623047" xlink:href="#DejaVuSans-30"/>
       <use x="127.246094" xlink:href="#DejaVuSans-30"/>
      </g>
     </g>
    </g>
    <g id="xtick_2">
     <g id="line2d_2">
      <g>
       <use style="stroke:#000000;stroke-width:0.8;" x="160.931952" xlink:href="#m87d52adecd" y="307.584"/>
      </g>
     </g>
     <g id="text_2">
      <!-- 600 -->
      <g transform="translate(151.388202 322.182437)scale(0.1 -0.1)">
       <defs>
        <path d="M 2113 2584 
Q 1688 2584 1439 2293 
Q 1191 2003 1191 1497 
Q 1191 994 1439 701 
Q 1688 409 2113 409 
Q 2538 409 2786 701 
Q 3034 994 3034 1497 
Q 3034 2003 2786 2293 
Q 2538 2584 2113 2584 
z
M 3366 4563 
L 3366 3988 
Q 3128 4100 2886 4159 
Q 2644 4219 2406 4219 
Q 1781 4219 1451 3797 
Q 1122 3375 1075 2522 
Q 1259 2794 1537 2939 
Q 1816 3084 2150 3084 
Q 2853 3084 3261 2657 
Q 3669 2231 3669 1497 
Q 3669 778 3244 343 
Q 2819 -91 2113 -91 
Q 1303 -91 875 529 
Q 447 1150 447 2328 
Q 447 3434 972 4092 
Q 1497 4750 2381 4750 
Q 2619 4750 2861 4703 
Q 3103 4656 3366 4563 
z
" id="DejaVuSans-36" transform="scale(0.015625)"/>
       </defs>
       <use xlink:href="#DejaVuSans-36"/>
       <use x="63.623047" xlink:href="#DejaVuSans-30"/>
       <use x="127.246094" xlink:href="#DejaVuSans-30"/>
      </g>
     </g>
    </g>
    <g id="xtick_3">
     <g id="line2d_3">
      <g>
       <use style="stroke:#000000;stroke-width:0.8;" x="218.9343" xlink:href="#m87d52adecd" y="307.584"/>
      </g>
     </g>
     <g id="text_3">
      <!-- 800 -->
      <g transform="translate(209.39055 322.182437)scale(0.1 -0.1)">
       <defs>
        <path d="M 2034 2216 
Q 1584 2216 1326 1975 
Q 1069 1734 1069 1313 
Q 1069 891 1326 650 
Q 1584 409 2034 409 
Q 2484 409 2743 651 
Q 3003 894 3003 1313 
Q 3003 1734 2745 1975 
Q 2488 2216 2034 2216 
z
M 1403 2484 
Q 997 2584 770 2862 
Q 544 3141 544 3541 
Q 544 4100 942 4425 
Q 1341 4750 2034 4750 
Q 2731 4750 3128 4425 
Q 3525 4100 3525 3541 
Q 3525 3141 3298 2862 
Q 3072 2584 2669 2484 
Q 3125 2378 3379 2068 
Q 3634 1759 3634 1313 
Q 3634 634 3220 271 
Q 2806 -91 2034 -91 
Q 1263 -91 848 271 
Q 434 634 434 1313 
Q 434 1759 690 2068 
Q 947 2378 1403 2484 
z
M 1172 3481 
Q 1172 3119 1398 2916 
Q 1625 2713 2034 2713 
Q 2441 2713 2670 2916 
Q 2900 3119 2900 3481 
Q 2900 3844 2670 4047 
Q 2441 4250 2034 4250 
Q 1625 4250 1398 4047 
Q 1172 3844 1172 3481 
z
" id="DejaVuSans-38" transform="scale(0.015625)"/>
       </defs>
       <use xlink:href="#DejaVuSans-38"/>
       <use x="63.623047" xlink:href="#DejaVuSans-30"/>
       <use x="127.246094" xlink:href="#DejaVuSans-30"/>
      </g>
     </g>
    </g>
    <g id="xtick_4">
     <g id="line2d_4">
      <g>
       <use style="stroke:#000000;stroke-width:0.8;" x="276.936647" xlink:href="#m87d52adecd" y="307.584"/>
      </g>
     </g>
     <g id="text_4">
      <!-- 1000 -->
      <g transform="translate(264.211647 322.182437)scale(0.1 -0.1)">
       <defs>
        <path d="M 794 531 
L 1825 531 
L 1825 4091 
L 703 3866 
L 703 4441 
L 1819 4666 
L 2450 4666 
L 2450 531 
L 3481 531 
L 3481 0 
L 794 0 
L 794 531 
z
" id="DejaVuSans-31" transform="scale(0.015625)"/>
       </defs>
       <use xlink:href="#DejaVuSans-31"/>
       <use x="63.623047" xlink:href="#DejaVuSans-30"/>
       <use x="127.246094" xlink:href="#DejaVuSans-30"/>
       <use x="190.869141" xlink:href="#DejaVuSans-30"/>
      </g>
     </g>
    </g>
    <g id="xtick_5">
     <g id="line2d_5">
      <g>
       <use style="stroke:#000000;stroke-width:0.8;" x="334.938995" xlink:href="#m87d52adecd" y="307.584"/>
      </g>
     </g>
     <g id="text_5">
      <!-- 1200 -->
      <g transform="translate(322.213995 322.182437)scale(0.1 -0.1)">
       <defs>
        <path d="M 1228 531 
L 3431 531 
L 3431 0 
L 469 0 
L 469 531 
Q 828 903 1448 1529 
Q 2069 2156 2228 2338 
Q 2531 2678 2651 2914 
Q 2772 3150 2772 3378 
Q 2772 3750 2511 3984 
Q 2250 4219 1831 4219 
Q 1534 4219 1204 4116 
Q 875 4013 500 3803 
L 500 4441 
Q 881 4594 1212 4672 
Q 1544 4750 1819 4750 
Q 2544 4750 2975 4387 
Q 3406 4025 3406 3419 
Q 3406 3131 3298 2873 
Q 3191 2616 2906 2266 
Q 2828 2175 2409 1742 
Q 1991 1309 1228 531 
z
" id="DejaVuSans-32" transform="scale(0.015625)"/>
       </defs>
       <use xlink:href="#DejaVuSans-31"/>
       <use x="63.623047" xlink:href="#DejaVuSans-32"/>
       <use x="127.246094" xlink:href="#DejaVuSans-30"/>
       <use x="190.869141" xlink:href="#DejaVuSans-30"/>
      </g>
     </g>
    </g>
    <g id="xtick_6">
     <g id="line2d_6">
      <g>
       <use style="stroke:#000000;stroke-width:0.8;" x="392.941342" xlink:href="#m87d52adecd" y="307.584"/>
      </g>
     </g>
     <g id="text_6">
      <!-- 1400 -->
      <g transform="translate(380.216342 322.182437)scale(0.1 -0.1)">
       <use xlink:href="#DejaVuSans-31"/>
       <use x="63.623047" xlink:href="#DejaVuSans-34"/>
       <use x="127.246094" xlink:href="#DejaVuSans-30"/>
       <use x="190.869141" xlink:href="#DejaVuSans-30"/>
      </g>
     </g>
    </g>
    <g id="text_7">
     <!-- Wavelength [nm] -->
     <g transform="translate(192.967812 335.860562)scale(0.1 -0.1)">
      <defs>
       <path d="M 213 4666 
L 850 4666 
L 1831 722 
L 2809 4666 
L 3519 4666 
L 4500 722 
L 5478 4666 
L 6119 4666 
L 4947 0 
L 4153 0 
L 3169 4050 
L 2175 0 
L 1381 0 
L 213 4666 
z
" id="DejaVuSans-57" transform="scale(0.015625)"/>
       <path d="M 2194 1759 
Q 1497 1759 1228 1600 
Q 959 1441 959 1056 
Q 959 750 1161 570 
Q 1363 391 1709 391 
Q 2188 391 2477 730 
Q 2766 1069 2766 1631 
L 2766 1759 
L 2194 1759 
z
M 3341 1997 
L 3341 0 
L 2766 0 
L 2766 531 
Q 2569 213 2275 61 
Q 1981 -91 1556 -91 
Q 1019 -91 701 211 
Q 384 513 384 1019 
Q 384 1609 779 1909 
Q 1175 2209 1959 2209 
L 2766 2209 
L 2766 2266 
Q 2766 2663 2505 2880 
Q 2244 3097 1772 3097 
Q 1472 3097 1187 3025 
Q 903 2953 641 2809 
L 641 3341 
Q 956 3463 1253 3523 
Q 1550 3584 1831 3584 
Q 2591 3584 2966 3190 
Q 3341 2797 3341 1997 
z
" id="DejaVuSans-61" transform="scale(0.015625)"/>
       <path d="M 191 3500 
L 800 3500 
L 1894 563 
L 2988 3500 
L 3597 3500 
L 2284 0 
L 1503 0 
L 191 3500 
z
" id="DejaVuSans-76" transform="scale(0.015625)"/>
       <path d="M 3597 1894 
L 3597 1613 
L 953 1613 
Q 991 1019 1311 708 
Q 1631 397 2203 397 
Q 2534 397 2845 478 
Q 3156 559 3463 722 
L 3463 178 
Q 3153 47 2828 -22 
Q 2503 -91 2169 -91 
Q 1331 -91 842 396 
Q 353 884 353 1716 
Q 353 2575 817 3079 
Q 1281 3584 2069 3584 
Q 2775 3584 3186 3129 
Q 3597 2675 3597 1894 
z
M 3022 2063 
Q 3016 2534 2758 2815 
Q 2500 3097 2075 3097 
Q 1594 3097 1305 2825 
Q 1016 2553 972 2059 
L 3022 2063 
z
" id="DejaVuSans-65" transform="scale(0.015625)"/>
       <path d="M 603 4863 
L 1178 4863 
L 1178 0 
L 603 0 
L 603 4863 
z
" id="DejaVuSans-6c" transform="scale(0.015625)"/>
       <path d="M 3513 2113 
L 3513 0 
L 2938 0 
L 2938 2094 
Q 2938 2591 2744 2837 
Q 2550 3084 2163 3084 
Q 1697 3084 1428 2787 
Q 1159 2491 1159 1978 
L 1159 0 
L 581 0 
L 581 3500 
L 1159 3500 
L 1159 2956 
Q 1366 3272 1645 3428 
Q 1925 3584 2291 3584 
Q 2894 3584 3203 3211 
Q 3513 2838 3513 2113 
z
" id="DejaVuSans-6e" transform="scale(0.015625)"/>
       <path d="M 2906 1791 
Q 2906 2416 2648 2759 
Q 2391 3103 1925 3103 
Q 1463 3103 1205 2759 
Q 947 2416 947 1791 
Q 947 1169 1205 825 
Q 1463 481 1925 481 
Q 2391 481 2648 825 
Q 2906 1169 2906 1791 
z
M 3481 434 
Q 3481 -459 3084 -895 
Q 2688 -1331 1869 -1331 
Q 1566 -1331 1297 -1286 
Q 1028 -1241 775 -1147 
L 775 -588 
Q 1028 -725 1275 -790 
Q 1522 -856 1778 -856 
Q 2344 -856 2625 -561 
Q 2906 -266 2906 331 
L 2906 616 
Q 2728 306 2450 153 
Q 2172 0 1784 0 
Q 1141 0 747 490 
Q 353 981 353 1791 
Q 353 2603 747 3093 
Q 1141 3584 1784 3584 
Q 2172 3584 2450 3431 
Q 2728 3278 2906 2969 
L 2906 3500 
L 3481 3500 
L 3481 434 
z
" id="DejaVuSans-67" transform="scale(0.015625)"/>
       <path d="M 1172 4494 
L 1172 3500 
L 2356 3500 
L 2356 3053 
L 1172 3053 
L 1172 1153 
Q 1172 725 1289 603 
Q 1406 481 1766 481 
L 2356 481 
L 2356 0 
L 1766 0 
Q 1100 0 847 248 
Q 594 497 594 1153 
L 594 3053 
L 172 3053 
L 172 3500 
L 594 3500 
L 594 4494 
L 1172 4494 
z
" id="DejaVuSans-74" transform="scale(0.015625)"/>
       <path d="M 3513 2113 
L 3513 0 
L 2938 0 
L 2938 2094 
Q 2938 2591 2744 2837 
Q 2550 3084 2163 3084 
Q 1697 3084 1428 2787 
Q 1159 2491 1159 1978 
L 1159 0 
L 581 0 
L 581 4863 
L 1159 4863 
L 1159 2956 
Q 1366 3272 1645 3428 
Q 1925 3584 2291 3584 
Q 2894 3584 3203 3211 
Q 3513 2838 3513 2113 
z
" id="DejaVuSans-68" transform="scale(0.015625)"/>
       <path id="DejaVuSans-20" transform="scale(0.015625)"/>
       <path d="M 550 4863 
L 1875 4863 
L 1875 4416 
L 1125 4416 
L 1125 -397 
L 1875 -397 
L 1875 -844 
L 550 -844 
L 550 4863 
z
" id="DejaVuSans-5b" transform="scale(0.015625)"/>
       <path d="M 3328 2828 
Q 3544 3216 3844 3400 
Q 4144 3584 4550 3584 
Q 5097 3584 5394 3201 
Q 5691 2819 5691 2113 
L 5691 0 
L 5113 0 
L 5113 2094 
Q 5113 2597 4934 2840 
Q 4756 3084 4391 3084 
Q 3944 3084 3684 2787 
Q 3425 2491 3425 1978 
L 3425 0 
L 2847 0 
L 2847 2094 
Q 2847 2600 2669 2842 
Q 2491 3084 2119 3084 
Q 1678 3084 1418 2786 
Q 1159 2488 1159 1978 
L 1159 0 
L 581 0 
L 581 3500 
L 1159 3500 
L 1159 2956 
Q 1356 3278 1631 3431 
Q 1906 3584 2284 3584 
Q 2666 3584 2933 3390 
Q 3200 3197 3328 2828 
z
" id="DejaVuSans-6d" transform="scale(0.015625)"/>
       <path d="M 1947 4863 
L 1947 -844 
L 622 -844 
L 622 -397 
L 1369 -397 
L 1369 4416 
L 622 4416 
L 622 4863 
L 1947 4863 
z
" id="DejaVuSans-5d" transform="scale(0.015625)"/>
      </defs>
      <use xlink:href="#DejaVuSans-57"/>
      <use x="92.501953" xlink:href="#DejaVuSans-61"/>
      <use x="153.78125" xlink:href="#DejaVuSans-76"/>
      <use x="212.960938" xlink:href="#DejaVuSans-65"/>
      <use x="274.484375" xlink:href="#DejaVuSans-6c"/>
      <use x="302.267578" xlink:href="#DejaVuSans-65"/>
      <use x="363.791016" xlink:href="#DejaVuSans-6e"/>
      <use x="427.169922" xlink:href="#DejaVuSans-67"/>
      <use x="490.646484" xlink:href="#DejaVuSans-74"/>
      <use x="529.855469" xlink:href="#DejaVuSans-68"/>
      <use x="593.234375" xlink:href="#DejaVuSans-20"/>
      <use x="625.021484" xlink:href="#DejaVuSans-5b"/>
      <use x="664.035156" xlink:href="#DejaVuSans-6e"/>
      <use x="727.414062" xlink:href="#DejaVuSans-6d"/>
      <use x="824.826172" xlink:href="#DejaVuSans-5d"/>
     </g>
    </g>
   </g>
   <g id="matplotlib.axis_2">
    <g id="ytick_1">
     <g id="line2d_7">
      <defs>
       <path d="M 0 0 
L -3.5 0 
" id="m0c8e8be93e" style="stroke:#000000;stroke-width:0.8;"/>
      </defs>
      <g>
       <use style="stroke:#000000;stroke-width:0.8;" x="57.6" xlink:href="#m0c8e8be93e" y="299.557037"/>
      </g>
     </g>
     <g id="text_8">
      <!-- 0 -->
      <g transform="translate(44.2375 303.356255)scale(0.1 -0.1)">
       <use xlink:href="#DejaVuSans-30"/>
      </g>
     </g>
    </g>
    <g id="ytick_2">
     <g id="line2d_8">
      <g>
       <use style="stroke:#000000;stroke-width:0.8;" x="57.6" xlink:href="#m0c8e8be93e" y="262.019797"/>
      </g>
     </g>
     <g id="text_9">
      <!-- 10000 -->
      <g transform="translate(18.7875 265.819016)scale(0.1 -0.1)">
       <use xlink:href="#DejaVuSans-31"/>
       <use x="63.623047" xlink:href="#DejaVuSans-30"/>
       <use x="127.246094" xlink:href="#DejaVuSans-30"/>
       <use x="190.869141" xlink:href="#DejaVuSans-30"/>
       <use x="254.492188" xlink:href="#DejaVuSans-30"/>
      </g>
     </g>
    </g>
    <g id="ytick_3">
     <g id="line2d_9">
      <g>
       <use style="stroke:#000000;stroke-width:0.8;" x="57.6" xlink:href="#m0c8e8be93e" y="224.482558"/>
      </g>
     </g>
     <g id="text_10">
      <!-- 20000 -->
      <g transform="translate(18.7875 228.281777)scale(0.1 -0.1)">
       <use xlink:href="#DejaVuSans-32"/>
       <use x="63.623047" xlink:href="#DejaVuSans-30"/>
       <use x="127.246094" xlink:href="#DejaVuSans-30"/>
       <use x="190.869141" xlink:href="#DejaVuSans-30"/>
       <use x="254.492188" xlink:href="#DejaVuSans-30"/>
      </g>
     </g>
    </g>
    <g id="ytick_4">
     <g id="line2d_10">
      <g>
       <use style="stroke:#000000;stroke-width:0.8;" x="57.6" xlink:href="#m0c8e8be93e" y="186.945319"/>
      </g>
     </g>
     <g id="text_11">
      <!-- 30000 -->
      <g transform="translate(18.7875 190.744538)scale(0.1 -0.1)">
       <defs>
        <path d="M 2597 2516 
Q 3050 2419 3304 2112 
Q 3559 1806 3559 1356 
Q 3559 666 3084 287 
Q 2609 -91 1734 -91 
Q 1441 -91 1130 -33 
Q 819 25 488 141 
L 488 750 
Q 750 597 1062 519 
Q 1375 441 1716 441 
Q 2309 441 2620 675 
Q 2931 909 2931 1356 
Q 2931 1769 2642 2001 
Q 2353 2234 1838 2234 
L 1294 2234 
L 1294 2753 
L 1863 2753 
Q 2328 2753 2575 2939 
Q 2822 3125 2822 3475 
Q 2822 3834 2567 4026 
Q 2313 4219 1838 4219 
Q 1578 4219 1281 4162 
Q 984 4106 628 3988 
L 628 4550 
Q 988 4650 1302 4700 
Q 1616 4750 1894 4750 
Q 2613 4750 3031 4423 
Q 3450 4097 3450 3541 
Q 3450 3153 3228 2886 
Q 3006 2619 2597 2516 
z
" id="DejaVuSans-33" transform="scale(0.015625)"/>
       </defs>
       <use xlink:href="#DejaVuSans-33"/>
       <use x="63.623047" xlink:href="#DejaVuSans-30"/>
       <use x="127.246094" xlink:href="#DejaVuSans-30"/>
       <use x="190.869141" xlink:href="#DejaVuSans-30"/>
       <use x="254.492188" xlink:href="#DejaVuSans-30"/>
      </g>
     </g>
    </g>
    <g id="ytick_5">
     <g id="line2d_11">
      <g>
       <use style="stroke:#000000;stroke-width:0.8;" x="57.6" xlink:href="#m0c8e8be93e" y="149.408079"/>
      </g>
     </g>
     <g id="text_12">
      <!-- 40000 -->
      <g transform="translate(18.7875 153.207298)scale(0.1 -0.1)">
       <use xlink:href="#DejaVuSans-34"/>
       <use x="63.623047" xlink:href="#DejaVuSans-30"/>
       <use x="127.246094" xlink:href="#DejaVuSans-30"/>
       <use x="190.869141" xlink:href="#DejaVuSans-30"/>
       <use x="254.492188" xlink:href="#DejaVuSans-30"/>
      </g>
     </g>
    </g>
    <g id="ytick_6">
     <g id="line2d_12">
      <g>
       <use style="stroke:#000000;stroke-width:0.8;" x="57.6" xlink:href="#m0c8e8be93e" y="111.87084"/>
      </g>
     </g>
     <g id="text_13">
      <!-- 50000 -->
      <g transform="translate(18.7875 115.670059)scale(0.1 -0.1)">
       <defs>
        <path d="M 691 4666 
L 3169 4666 
L 3169 4134 
L 1269 4134 
L 1269 2991 
Q 1406 3038 1543 3061 
Q 1681 3084 1819 3084 
Q 2600 3084 3056 2656 
Q 3513 2228 3513 1497 
Q 3513 744 3044 326 
Q 2575 -91 1722 -91 
Q 1428 -91 1123 -41 
Q 819 9 494 109 
L 494 744 
Q 775 591 1075 516 
Q 1375 441 1709 441 
Q 2250 441 2565 725 
Q 2881 1009 2881 1497 
Q 2881 1984 2565 2268 
Q 2250 2553 1709 2553 
Q 1456 2553 1204 2497 
Q 953 2441 691 2322 
L 691 4666 
z
" id="DejaVuSans-35" transform="scale(0.015625)"/>
       </defs>
       <use xlink:href="#DejaVuSans-35"/>
       <use x="63.623047" xlink:href="#DejaVuSans-30"/>
       <use x="127.246094" xlink:href="#DejaVuSans-30"/>
       <use x="190.869141" xlink:href="#DejaVuSans-30"/>
       <use x="254.492188" xlink:href="#DejaVuSans-30"/>
      </g>
     </g>
    </g>
    <g id="ytick_7">
     <g id="line2d_13">
      <g>
       <use style="stroke:#000000;stroke-width:0.8;" x="57.6" xlink:href="#m0c8e8be93e" y="74.333601"/>
      </g>
     </g>
     <g id="text_14">
      <!-- 60000 -->
      <g transform="translate(18.7875 78.13282)scale(0.1 -0.1)">
       <use xlink:href="#DejaVuSans-36"/>
       <use x="63.623047" xlink:href="#DejaVuSans-30"/>
       <use x="127.246094" xlink:href="#DejaVuSans-30"/>
       <use x="190.869141" xlink:href="#DejaVuSans-30"/>
       <use x="254.492188" xlink:href="#DejaVuSans-30"/>
      </g>
     </g>
    </g>
    <g id="text_15">
     <!-- Counts -->
     <g transform="translate(12.707812 191.981125)rotate(-90)scale(0.1 -0.1)">
      <defs>
       <path d="M 4122 4306 
L 4122 3641 
Q 3803 3938 3442 4084 
Q 3081 4231 2675 4231 
Q 1875 4231 1450 3742 
Q 1025 3253 1025 2328 
Q 1025 1406 1450 917 
Q 1875 428 2675 428 
Q 3081 428 3442 575 
Q 3803 722 4122 1019 
L 4122 359 
Q 3791 134 3420 21 
Q 3050 -91 2638 -91 
Q 1578 -91 968 557 
Q 359 1206 359 2328 
Q 359 3453 968 4101 
Q 1578 4750 2638 4750 
Q 3056 4750 3426 4639 
Q 3797 4528 4122 4306 
z
" id="DejaVuSans-43" transform="scale(0.015625)"/>
       <path d="M 1959 3097 
Q 1497 3097 1228 2736 
Q 959 2375 959 1747 
Q 959 1119 1226 758 
Q 1494 397 1959 397 
Q 2419 397 2687 759 
Q 2956 1122 2956 1747 
Q 2956 2369 2687 2733 
Q 2419 3097 1959 3097 
z
M 1959 3584 
Q 2709 3584 3137 3096 
Q 3566 2609 3566 1747 
Q 3566 888 3137 398 
Q 2709 -91 1959 -91 
Q 1206 -91 779 398 
Q 353 888 353 1747 
Q 353 2609 779 3096 
Q 1206 3584 1959 3584 
z
" id="DejaVuSans-6f" transform="scale(0.015625)"/>
       <path d="M 544 1381 
L 544 3500 
L 1119 3500 
L 1119 1403 
Q 1119 906 1312 657 
Q 1506 409 1894 409 
Q 2359 409 2629 706 
Q 2900 1003 2900 1516 
L 2900 3500 
L 3475 3500 
L 3475 0 
L 2900 0 
L 2900 538 
Q 2691 219 2414 64 
Q 2138 -91 1772 -91 
Q 1169 -91 856 284 
Q 544 659 544 1381 
z
M 1991 3584 
L 1991 3584 
z
" id="DejaVuSans-75" transform="scale(0.015625)"/>
       <path d="M 2834 3397 
L 2834 2853 
Q 2591 2978 2328 3040 
Q 2066 3103 1784 3103 
Q 1356 3103 1142 2972 
Q 928 2841 928 2578 
Q 928 2378 1081 2264 
Q 1234 2150 1697 2047 
L 1894 2003 
Q 2506 1872 2764 1633 
Q 3022 1394 3022 966 
Q 3022 478 2636 193 
Q 2250 -91 1575 -91 
Q 1294 -91 989 -36 
Q 684 19 347 128 
L 347 722 
Q 666 556 975 473 
Q 1284 391 1588 391 
Q 1994 391 2212 530 
Q 2431 669 2431 922 
Q 2431 1156 2273 1281 
Q 2116 1406 1581 1522 
L 1381 1569 
Q 847 1681 609 1914 
Q 372 2147 372 2553 
Q 372 3047 722 3315 
Q 1072 3584 1716 3584 
Q 2034 3584 2315 3537 
Q 2597 3491 2834 3397 
z
" id="DejaVuSans-73" transform="scale(0.015625)"/>
      </defs>
      <use xlink:href="#DejaVuSans-43"/>
      <use x="69.824219" xlink:href="#DejaVuSans-6f"/>
      <use x="131.005859" xlink:href="#DejaVuSans-75"/>
      <use x="194.384766" xlink:href="#DejaVuSans-6e"/>
      <use x="257.763672" xlink:href="#DejaVuSans-74"/>
      <use x="296.972656" xlink:href="#DejaVuSans-73"/>
     </g>
    </g>
   </g>
   <g id="line2d_14">
    <path clip-path="url(#p5a87d5d06e)" d="M 73.832727 291.13368 
L 73.991327 291.569112 
L 74.149928 290.698248 
L 74.308528 287.440016 
L 74.467128 291.283829 
L 74.625728 289.587146 
L 74.784328 293.536064 
L 74.942928 292.530066 
L 75.101529 293.476004 
L 75.418729 289.857414 
L 75.577329 292.004544 
L 75.894529 287.935507 
L 76.21173 289.69225 
L 76.37033 288.295865 
L 76.52893 290.878427 
L 76.68753 291.569112 
L 76.84613 293.205736 
L 77.004731 291.524068 
L 77.163331 291.569112 
L 77.480531 290.938487 
L 77.639131 286.77936 
L 77.797731 292.124663 
L 77.956332 284.587186 
L 78.114932 291.764306 
L 78.273532 288.415984 
L 78.432132 293.746272 
L 78.590732 293.130661 
L 78.749333 290.833382 
L 78.907933 293.566093 
L 79.066533 291.10365 
L 79.225133 291.268814 
L 79.383733 291.043591 
L 79.700934 293.34087 
L 80.018134 290.157712 
L 80.176734 293.085617 
L 80.335334 290.533084 
L 80.493934 291.92947 
L 80.652535 292.214753 
L 80.811135 292.980512 
L 80.969735 288.821386 
L 81.128335 291.479023 
L 81.286935 290.42798 
L 81.445535 292.289827 
L 81.604136 292.214753 
L 81.762736 290.953501 
L 81.921336 287.440016 
L 82.079936 291.89944 
L 82.238536 291.734276 
L 82.714337 292.740274 
L 82.872937 290.728278 
L 83.031537 293.250781 
L 83.190137 293.115646 
L 83.348737 289.467027 
L 83.507338 293.175706 
L 83.665938 290.923472 
L 83.824538 293.220751 
L 84.141738 288.611178 
L 84.300338 291.884425 
L 84.458939 288.836401 
L 84.776139 294.031555 
L 85.093339 289.75231 
L 85.251939 289.061625 
L 85.41054 293.190721 
L 85.56914 291.794336 
L 85.72774 292.334872 
L 85.88634 290.442995 
L 86.20354 293.956481 
L 86.362141 287.920493 
L 86.679341 293.145676 
L 86.996541 288.95652 
L 87.155141 291.148695 
L 87.472342 289.587146 
L 87.630942 291.10365 
L 87.789542 293.791317 
L 87.948142 286.328914 
L 88.106742 291.418963 
L 88.423943 292.650185 
L 88.582543 292.890423 
L 88.741143 291.298844 
L 88.899743 291.614157 
L 89.058343 293.010542 
L 89.216944 291.824365 
L 89.375544 289.226788 
L 89.534144 294.136659 
L 89.692744 291.809351 
L 89.851344 294.121644 
L 90.009944 290.112667 
L 90.168545 291.088636 
L 90.327145 293.926451 
L 90.485745 288.656222 
L 90.644345 293.265795 
L 90.802945 292.740274 
L 90.961545 291.734276 
L 91.120146 292.845378 
L 91.278746 292.54508 
L 91.437346 292.800334 
L 91.595946 294.136659 
L 91.754546 291.13368 
L 91.913147 291.83938 
L 92.071747 290.292846 
L 92.230347 293.010542 
L 92.388947 293.31084 
L 92.547547 287.995567 
L 92.864748 292.530066 
L 93.023348 292.334872 
L 93.181948 294.10663 
L 93.340548 291.028576 
L 93.657748 293.911436 
L 93.816349 290.803353 
L 93.974949 291.088636 
L 94.133549 290.578129 
L 94.292149 291.86941 
L 94.450749 291.92947 
L 94.609349 292.755289 
L 94.76795 291.749291 
L 94.92655 292.019559 
L 95.08515 286.854435 
L 95.24375 290.412965 
L 95.56095 291.343889 
L 95.719551 290.683233 
L 95.878151 292.6652 
L 96.195351 291.674216 
L 96.353951 288.506073 
L 96.512551 291.464008 
L 96.671152 291.358904 
L 96.829752 289.902459 
L 96.988352 293.671198 
L 97.305552 290.292846 
L 97.464152 290.172727 
L 97.622753 292.6652 
L 97.781353 289.72228 
L 98.098553 292.695229 
L 98.257153 290.653204 
L 98.415753 291.719261 
L 98.574354 290.998546 
L 98.732954 286.449033 
L 98.891554 287.214792 
L 99.050154 289.376937 
L 99.208754 288.791357 
L 99.367354 290.037593 
L 99.525955 288.941505 
L 99.684555 284.902499 
L 99.843155 291.208755 
L 100.160355 292.394931 
L 100.318955 294.482002 
L 100.953356 288.175746 
L 101.111956 292.334872 
L 101.270556 290.48804 
L 101.429157 294.10663 
L 101.587757 293.115646 
L 101.746357 293.611138 
L 101.904957 288.100671 
L 102.063557 291.764306 
L 102.222157 292.304842 
L 102.380758 293.28081 
L 102.539358 293.506034 
L 102.856558 289.72228 
L 103.173758 292.965498 
L 103.490959 288.491059 
L 103.649559 291.554097 
L 103.808159 292.334872 
L 103.966759 291.659202 
L 104.12536 292.214753 
L 104.28396 288.896461 
L 104.60116 290.863412 
L 104.75976 291.418963 
L 104.91836 292.875408 
L 105.076961 291.554097 
L 105.235561 292.079619 
L 105.394161 287.920493 
L 105.552761 291.238785 
L 105.711361 291.073621 
L 105.869961 291.148695 
L 106.028562 293.566093 
L 106.187162 291.779321 
L 106.504362 293.145676 
L 106.662962 293.355885 
L 106.980163 290.923472 
L 107.138763 292.830363 
L 107.297363 290.638189 
L 107.455963 291.343889 
L 107.614563 293.010542 
L 107.773163 291.779321 
L 107.931764 289.602161 
L 108.090364 292.124663 
L 108.248964 291.479023 
L 108.407564 289.872429 
L 108.566164 294.001525 
L 108.724764 290.022578 
L 108.883365 290.232786 
L 109.200565 277.500155 
L 109.517765 252.079936 
L 109.834966 242.170105 
L 109.993566 241.884822 
L 110.310766 251.118983 
L 110.786567 281.178804 
L 110.945167 287.019599 
L 111.103767 285.082677 
L 111.420967 288.746312 
L 111.579567 289.467027 
L 111.738168 287.004584 
L 111.896768 291.554097 
L 112.055368 285.052647 
L 112.372568 285.788377 
L 112.531168 289.271833 
L 112.689769 288.040612 
L 112.848369 288.070642 
L 113.006969 289.121684 
L 113.165569 286.854435 
L 113.324169 287.935507 
L 113.64137 284.797394 
L 113.79997 284.75235 
L 113.95857 286.223809 
L 114.11717 286.07366 
L 114.27577 287.139718 
L 114.43437 283.806411 
L 114.592971 286.929509 
L 114.751571 285.758348 
L 114.910171 285.848437 
L 115.227371 281.253879 
L 115.544572 285.413005 
L 115.861772 279.977613 
L 116.178972 283.340949 
L 116.337573 275.067742 
L 116.496173 279.63227 
L 116.654773 278.265915 
L 116.813373 271.193899 
L 116.971973 280.623253 
L 117.130573 274.076759 
L 117.289174 275.067742 
L 117.447774 251.734594 
L 118.082174 53.568 
L 118.716575 53.568 
L 118.875175 88.417573 
L 119.350976 272.995686 
L 119.509576 277.199857 
L 119.668176 277.365021 
L 119.826776 277.965617 
L 119.985376 279.151793 
L 120.302577 274.467146 
L 120.619777 279.887523 
L 120.778377 277.830483 
L 120.936977 267.920651 
L 121.095578 276.344008 
L 121.254178 276.929589 
L 121.412778 276.80947 
L 121.571378 277.650304 
L 121.729978 276.223889 
L 121.888578 279.136779 
L 122.047179 276.8395 
L 122.364379 278.325974 
L 122.522979 278.881525 
L 122.681579 276.028695 
L 122.840179 279.497136 
L 122.99878 279.241883 
L 123.47458 276.854514 
L 123.63318 279.497136 
L 123.950381 275.968636 
L 124.108981 279.106749 
L 124.267581 277.635289 
L 124.426181 277.274931 
L 124.584781 278.776421 
L 124.743381 276.374038 
L 124.901982 280.473104 
L 125.219182 276.268933 
L 125.536382 279.316957 
L 125.694982 279.286928 
L 125.853583 270.773482 
L 126.012183 277.304961 
L 126.170783 276.974634 
L 126.329383 276.163829 
L 126.487983 276.884544 
L 126.646583 274.797474 
L 126.963784 277.154812 
L 127.122384 276.524187 
L 127.439584 280.833462 
L 127.598184 280.758387 
L 127.756785 279.286928 
L 127.915385 279.166808 
L 128.073985 281.04367 
L 128.391185 273.761446 
L 128.708386 280.262896 
L 128.866986 278.130781 
L 129.025586 280.037672 
L 129.184186 280.473104 
L 129.342786 279.962598 
L 129.501387 279.857494 
L 129.659987 280.022657 
L 129.818587 279.256898 
L 130.452988 269.677394 
L 130.770188 255.338169 
L 131.245988 213.957116 
L 132.197589 104.408437 
L 132.35619 97.156242 
L 132.51479 99.033104 
L 132.67339 96.585676 
L 132.83199 97.711793 
L 133.14919 107.621625 
L 133.783591 137.996759 
L 134.259392 170.954455 
L 134.893792 191.960294 
L 136.479794 267.259996 
L 136.955594 278.431078 
L 137.272795 282.875488 
L 137.431395 281.719341 
L 137.589995 282.004624 
L 137.748595 283.746352 
L 137.907195 282.815428 
L 138.065796 285.473065 
L 138.224396 286.07366 
L 138.382996 283.145756 
L 138.541596 285.563154 
L 138.700196 284.902499 
L 139.017397 287.334912 
L 139.175997 283.295905 
L 139.334597 283.581188 
L 139.493197 287.334912 
L 139.651797 284.647245 
L 139.810397 284.542141 
L 139.968998 287.199778 
L 140.127598 287.500075 
L 140.286198 285.983571 
L 140.603398 287.950522 
L 140.920599 288.130701 
L 141.079199 286.13372 
L 141.237799 287.57515 
L 141.396399 287.57515 
L 141.554999 288.941505 
L 141.7136 288.491059 
L 141.8722 287.334912 
L 142.0308 290.292846 
L 142.1894 290.127682 
L 142.5066 286.824405 
L 142.665201 288.941505 
L 142.823801 286.749331 
L 142.982401 288.671237 
L 143.141001 289.181744 
L 143.299601 285.007603 
L 143.458201 288.791357 
L 143.616802 287.034614 
L 143.775402 286.764346 
L 143.934002 288.521088 
L 144.092602 284.63223 
L 144.251202 284.707305 
L 144.568403 273.386073 
L 144.727003 273.085776 
L 144.885603 271.794495 
L 145.520004 256.779599 
L 145.837204 241.074018 
L 146.313004 175.248715 
L 146.788805 53.568 
L 150.595209 53.568 
L 150.753809 186.149529 
L 151.071009 228.221267 
L 151.38821 254.497335 
L 151.70541 267.229966 
L 151.86401 271.178884 
L 152.02261 268.686411 
L 152.339811 275.413084 
L 152.498411 275.818487 
L 152.657011 275.818487 
L 152.815611 276.178844 
L 152.974211 275.998665 
L 153.132812 276.193859 
L 153.291412 279.467106 
L 153.450012 278.641287 
L 153.608612 280.292926 
L 153.767212 277.830483 
L 153.925812 280.33797 
L 154.084413 280.998626 
L 154.243013 282.410026 
L 154.401613 278.446093 
L 154.560213 282.109728 
L 154.718813 280.42806 
L 154.877414 283.265875 
L 155.036014 282.950562 
L 155.194614 280.142777 
L 155.353214 281.208834 
L 155.511814 280.713343 
L 155.670414 277.575229 
L 155.829015 277.650304 
L 156.146215 263.220989 
L 156.463415 235.653641 
L 157.573616 120.264167 
L 158.208017 83.762955 
L 158.366617 77.98222 
L 158.525217 76.300552 
L 159.159618 53.568 
L 160.269819 53.568 
L 160.74562 96.330423 
L 160.90422 102.156203 
L 161.06282 100.30937 
L 161.22142 100.114177 
L 161.38002 103.267305 
L 161.697221 121.645537 
L 162.331621 189.332687 
L 162.490222 194.182499 
L 163.124622 175.96943 
L 163.283222 175.428894 
L 163.759023 202.891138 
L 164.076223 225.638705 
L 164.234823 230.338367 
L 164.393424 231.224246 
L 164.552024 229.782816 
L 164.710624 226.044107 
L 165.027824 207.62083 
L 165.345025 151.269927 
L 165.662225 53.568 
L 168.992829 53.568 
L 169.151429 54.423849 
L 169.310029 134.243035 
L 169.468629 132.08089 
L 170.10303 163.897454 
L 170.26163 165.413958 
L 170.42023 172.726213 
L 170.57883 174.49797 
L 170.73743 179.738169 
L 170.896031 180.338765 
L 171.054631 176.194653 
L 171.689031 136.615388 
L 171.847632 140.218963 
L 172.006232 140.594336 
L 172.323432 175.383849 
L 172.957833 255.788616 
L 173.433633 270.803511 
L 173.592233 274.347027 
L 173.750834 272.320016 
L 173.909434 273.040731 
L 174.226634 275.33801 
L 174.385234 275.548218 
L 174.543834 274.797474 
L 174.702435 278.310959 
L 174.861035 277.920572 
L 175.336835 273.656342 
L 175.495435 274.707384 
L 175.812636 273.881565 
L 175.971236 273.971654 
L 176.129836 275.037712 
L 176.288436 273.431118 
L 176.447036 274.917593 
L 177.240037 252.485339 
L 177.557238 249.167047 
L 177.874438 256.704524 
L 178.508839 272.935627 
L 178.826039 275.908576 
L 178.984639 276.298963 
L 179.143239 277.259917 
L 179.301839 280.383015 
L 179.46044 279.722359 
L 179.61904 280.863492 
L 179.93624 281.358983 
L 180.253441 272.244941 
L 180.412041 270.938645 
L 180.729241 264.977732 
L 180.887841 269.211932 
L 181.046441 267.169907 
L 181.205042 271.65936 
L 181.363642 271.989688 
L 181.522242 276.479142 
L 181.680842 276.989648 
L 181.839442 278.235885 
L 181.998042 277.350006 
L 182.156643 278.356004 
L 182.473843 276.629291 
L 182.632443 273.941625 
L 182.791043 280.383015 
L 182.949643 279.091734 
L 183.108244 281.914534 
L 183.266844 280.157791 
L 183.584044 283.98659 
L 183.742644 283.731337 
L 183.901244 285.202796 
L 184.059845 281.434058 
L 184.218445 283.085696 
L 184.377045 281.974594 
L 184.535645 282.334951 
L 184.694245 283.100711 
L 184.852845 280.202836 
L 185.170046 282.965577 
L 185.328646 280.893521 
L 185.487246 280.42806 
L 185.645846 281.794415 
L 185.804446 277.920572 
L 186.121647 282.905517 
L 186.280247 283.476083 
L 186.438847 283.325934 
L 186.597447 282.635249 
L 186.756047 282.605219 
L 186.914648 280.533164 
L 187.073248 280.127762 
L 187.231848 273.536222 
L 187.707648 274.872548 
L 187.866249 272.335031 
L 188.024849 274.57225 
L 188.183449 273.611297 
L 188.342049 280.037672 
L 188.500649 279.467106 
L 188.659249 282.379996 
L 188.81785 278.851496 
L 188.97645 279.917553 
L 189.29365 278.551198 
L 189.45225 277.079738 
L 189.61085 282.470085 
L 189.769451 279.392032 
L 190.086651 286.13372 
L 190.245251 285.292886 
L 190.403851 287.950522 
L 190.562451 288.415984 
L 190.721052 287.890463 
L 190.879652 290.503055 
L 191.196852 286.989569 
L 191.355452 286.028616 
L 191.514052 286.283869 
L 191.831253 285.938526 
L 192.307053 277.004663 
L 193.258654 231.689708 
L 193.417255 229.962995 
L 193.575855 230.788814 
L 193.734455 232.470483 
L 193.893055 232.590602 
L 194.210255 238.341307 
L 194.686056 253.025875 
L 195.003256 260.713501 
L 195.637657 284.166769 
L 195.796257 288.536103 
L 195.954857 289.812369 
L 196.113457 290.157712 
L 196.272058 292.034574 
L 196.430658 287.620195 
L 196.747858 291.358904 
L 196.906458 289.211774 
L 197.065058 290.593144 
L 197.382259 289.346908 
L 197.540859 290.923472 
L 197.699459 289.737295 
L 197.858059 291.494038 
L 198.016659 289.66222 
L 198.17526 292.334872 
L 198.33386 282.755368 
L 198.49246 291.92947 
L 198.65106 289.572131 
L 198.80966 289.647206 
L 198.96826 291.569112 
L 199.126861 290.773323 
L 199.285461 290.653204 
L 199.602661 287.740314 
L 199.761261 289.001565 
L 199.919861 292.109648 
L 200.237062 289.917474 
L 200.395662 290.337891 
L 200.554262 289.286848 
L 200.712862 291.464008 
L 200.871462 288.536103 
L 201.030063 289.211774 
L 201.188663 291.178725 
L 201.347263 286.253839 
L 201.505863 291.088636 
L 201.664463 291.088636 
L 202.140264 292.57511 
L 202.298864 289.286848 
L 202.616064 290.548099 
L 202.774664 290.292846 
L 203.091865 287.890463 
L 203.250465 283.791396 
L 203.409065 289.07664 
L 203.567665 287.935507 
L 203.726265 291.283829 
L 203.884866 291.674216 
L 204.202066 289.632191 
L 204.360666 290.172727 
L 204.519266 291.19374 
L 204.677867 290.097652 
L 204.836467 290.938487 
L 204.995067 290.202757 
L 205.312267 291.629172 
L 205.470867 290.953501 
L 205.629468 291.644187 
L 205.788068 290.773323 
L 205.946668 287.019599 
L 206.263868 292.680214 
L 206.422468 289.211774 
L 206.581069 289.992548 
L 206.739669 292.334872 
L 206.898269 291.86941 
L 207.056869 288.295865 
L 207.215469 288.085656 
L 207.374069 288.160731 
L 207.53267 290.818367 
L 207.69127 284.316918 
L 207.84987 287.620195 
L 208.00847 285.39799 
L 208.32567 288.28085 
L 208.484271 286.569152 
L 208.642871 287.785358 
L 208.801471 287.244822 
L 209.118671 288.551118 
L 209.277271 287.815388 
L 209.435872 288.446014 
L 209.594472 288.325895 
L 209.753072 288.761327 
L 209.911672 286.569152 
L 210.228872 289.01658 
L 210.387473 288.476044 
L 210.546073 285.773362 
L 210.704673 286.043631 
L 210.863273 287.154733 
L 211.021873 285.698288 
L 211.180473 285.758348 
L 211.339074 285.593184 
L 211.497674 287.620195 
L 211.656274 287.950522 
L 211.814874 284.271873 
L 211.973474 285.788377 
L 212.132074 285.593184 
L 212.290675 284.977573 
L 212.449275 286.854435 
L 212.766475 283.656262 
L 212.925075 284.572171 
L 213.083675 283.100711 
L 213.242276 284.196798 
L 213.559476 281.794415 
L 213.718076 284.391992 
L 214.193877 280.608238 
L 214.352477 281.0737 
L 214.511077 280.698328 
L 214.669677 283.265875 
L 214.828277 279.286928 
L 214.986877 282.364981 
L 215.145478 281.674296 
L 215.462678 279.872508 
L 215.621278 276.539202 
L 215.779878 279.121764 
L 216.097079 277.815468 
L 216.255679 278.626272 
L 216.414279 278.2509 
L 216.572879 281.148775 
L 216.731479 275.322995 
L 216.890079 280.082717 
L 217.04868 277.079738 
L 217.20728 276.689351 
L 217.36588 277.755408 
L 217.68308 276.539202 
L 217.841681 273.746431 
L 218.000281 275.713382 
L 218.158881 276.163829 
L 218.317481 273.19088 
L 218.476081 275.037712 
L 218.634681 275.36804 
L 218.793282 274.917593 
L 218.951882 273.070761 
L 219.110482 272.590284 
L 219.269082 274.226908 
L 219.427682 269.692409 
L 219.586282 272.740433 
L 219.744883 267.500234 
L 220.062083 273.401088 
L 220.220683 269.677394 
L 220.379283 268.881605 
L 220.537883 269.647364 
L 220.696484 272.45515 
L 220.855084 272.725418 
L 221.013684 272.350046 
L 221.172284 274.512191 
L 221.330884 274.256937 
L 221.806685 279.316957 
L 221.965285 280.322955 
L 222.123885 279.962598 
L 222.282485 280.848477 
L 222.441085 275.548218 
L 222.599686 283.566173 
L 222.758286 285.007603 
L 222.916886 280.292926 
L 223.234086 287.199778 
L 223.392686 284.857454 
L 223.551287 287.485061 
L 223.868487 288.355925 
L 224.027087 290.593144 
L 224.185687 288.040612 
L 224.502888 289.346908 
L 224.661488 291.313859 
L 224.820088 290.548099 
L 224.978688 292.379917 
L 225.137288 289.647206 
L 225.295888 292.815349 
L 225.613089 290.442995 
L 225.771689 290.833382 
L 226.088889 292.965498 
L 226.247489 292.695229 
L 226.40609 294.361883 
L 226.56469 289.001565 
L 226.88189 293.31084 
L 227.04049 293.145676 
L 227.19909 292.454991 
L 227.357691 290.803353 
L 227.516291 291.599142 
L 227.674891 291.644187 
L 227.833491 289.797355 
L 227.992091 291.283829 
L 228.150691 291.253799 
L 228.309292 289.166729 
L 228.626492 293.881406 
L 228.785092 290.998546 
L 229.102292 290.503055 
L 229.260893 294.361883 
L 229.419493 291.313859 
L 229.578093 291.118665 
L 229.736693 293.671198 
L 229.895293 293.34087 
L 230.053894 289.286848 
L 230.212494 292.079619 
L 230.371094 290.548099 
L 230.529694 291.418963 
L 230.846894 295.488 
L 231.005495 292.485021 
L 231.164095 294.692211 
L 231.322695 292.500036 
L 231.481295 292.920453 
L 231.639895 292.830363 
L 231.798495 293.055587 
L 231.957096 292.364902 
L 232.115696 290.082638 
L 232.432896 294.211734 
L 232.591496 294.091615 
L 232.750096 289.07664 
L 232.908697 293.070602 
L 233.067297 290.923472 
L 233.543097 294.992508 
L 233.701697 290.788338 
L 233.860298 293.761287 
L 234.018898 293.641168 
L 234.177498 293.085617 
L 234.336098 289.452012 
L 234.653298 293.98651 
L 234.811899 293.145676 
L 234.970499 293.220751 
L 235.129099 292.169708 
L 235.287699 293.836361 
L 235.446299 292.980512 
L 235.604899 294.316838 
L 235.7635 291.914455 
L 235.9221 293.220751 
L 236.0807 292.530066 
L 236.2393 288.581148 
L 236.3979 290.352906 
L 236.5565 294.346868 
L 236.873701 292.064604 
L 237.032301 293.731257 
L 237.190901 291.013561 
L 237.349501 293.536064 
L 237.508101 291.569112 
L 237.666702 291.19374 
L 237.825302 291.704246 
L 237.983902 270.998705 
L 238.142502 294.406928 
L 238.301102 293.521049 
L 238.459702 294.842359 
L 238.618303 291.343889 
L 238.776903 293.385915 
L 238.935503 291.073621 
L 239.094103 293.506034 
L 239.252703 293.055587 
L 239.411303 293.98651 
L 239.569904 293.205736 
L 239.728504 293.220751 
L 240.045704 294.557076 
L 240.204304 290.322876 
L 240.362904 291.854395 
L 240.680105 290.127682 
L 240.838705 293.355885 
L 240.997305 292.259797 
L 241.155905 293.671198 
L 241.314505 292.424961 
L 241.473106 293.911436 
L 241.631706 290.593144 
L 241.790306 292.695229 
L 241.948906 292.214753 
L 242.107506 293.055587 
L 242.424707 290.052608 
L 242.583307 294.10663 
L 242.741907 288.971535 
L 242.900507 293.115646 
L 243.059107 290.473025 
L 243.217708 293.866391 
L 243.376308 294.121644 
L 243.534908 290.998546 
L 243.693508 294.211734 
L 244.010708 291.974514 
L 244.169309 290.593144 
L 244.327909 293.100632 
L 244.486509 292.725259 
L 244.645109 291.674216 
L 244.803709 294.0766 
L 244.962309 293.821347 
L 245.12091 293.025557 
L 245.27951 293.130661 
L 245.59671 289.542101 
L 245.75531 292.725259 
L 245.91391 292.019559 
L 246.072511 293.31084 
L 246.231111 290.217772 
L 246.389711 293.926451 
L 246.865511 290.653204 
L 247.024112 293.34087 
L 247.341312 292.920453 
L 247.499912 293.070602 
L 247.658512 291.524068 
L 247.817112 294.271793 
L 247.975713 291.16371 
L 248.134313 294.7823 
L 248.292913 291.118665 
L 248.451513 292.334872 
L 248.610113 292.274812 
L 248.768713 292.079619 
L 248.927314 292.274812 
L 249.085914 292.950483 
L 249.244514 292.995527 
L 249.403114 292.755289 
L 249.561714 290.067623 
L 249.878915 294.421942 
L 250.037515 294.211734 
L 250.196115 288.175746 
L 250.354715 292.57511 
L 250.513315 293.010542 
L 250.671915 294.091615 
L 250.989116 291.22377 
L 251.147716 292.394931 
L 251.464916 291.479023 
L 251.623516 291.914455 
L 251.782117 292.815349 
L 251.940717 291.569112 
L 252.099317 293.851376 
L 252.257917 292.920453 
L 252.416517 289.391952 
L 252.575117 294.256779 
L 252.733718 291.073621 
L 252.892318 291.554097 
L 253.050918 293.040572 
L 253.209518 290.863412 
L 253.526718 293.566093 
L 253.685319 291.433978 
L 254.002519 294.617136 
L 254.161119 291.719261 
L 254.319719 291.524068 
L 254.478319 293.521049 
L 254.63692 290.668218 
L 254.95412 293.506034 
L 255.27132 292.740274 
L 255.429921 294.121644 
L 255.747121 289.842399 
L 255.905721 294.421942 
L 256.064321 292.875408 
L 256.222921 292.57511 
L 256.381522 292.785319 
L 256.540122 295.232747 
L 256.698722 293.911436 
L 256.857322 290.052608 
L 257.015922 290.082638 
L 257.333123 294.376898 
L 257.808923 291.569112 
L 257.967523 294.316838 
L 258.126123 292.920453 
L 258.284724 289.797355 
L 258.443324 292.755289 
L 258.601924 293.070602 
L 258.760524 292.60514 
L 258.919124 292.500036 
L 259.077724 295.337851 
L 259.236325 293.536064 
L 259.394925 293.746272 
L 259.553525 291.313859 
L 259.712125 291.283829 
L 259.870725 293.355885 
L 260.029325 293.385915 
L 260.187926 293.055587 
L 260.346526 291.989529 
L 260.505126 292.60514 
L 260.663726 287.124703 
L 260.822326 294.196719 
L 260.980926 292.485021 
L 261.139527 292.500036 
L 261.298127 292.680214 
L 261.456727 292.214753 
L 261.615327 293.701227 
L 261.773927 289.737295 
L 261.932527 293.701227 
L 262.091128 293.881406 
L 262.249728 293.746272 
L 262.408328 292.349887 
L 262.566928 293.686213 
L 262.725528 293.746272 
L 262.884128 294.001525 
L 263.042729 286.83942 
L 263.201329 294.542062 
L 263.518529 290.563114 
L 263.677129 291.644187 
L 263.835729 290.277831 
L 264.31153 294.587106 
L 264.47013 293.686213 
L 264.62873 294.932449 
L 264.945931 292.424961 
L 265.104531 293.025557 
L 265.263131 292.890423 
L 265.421731 289.271833 
L 265.738931 293.641168 
L 265.897532 292.680214 
L 266.056132 290.863412 
L 266.373332 294.211734 
L 266.531932 291.253799 
L 266.690532 294.166689 
L 266.849133 287.785358 
L 267.007733 294.196719 
L 267.166333 290.277831 
L 267.324933 294.226749 
L 267.483533 293.190721 
L 267.642133 293.941466 
L 267.959334 290.007563 
L 268.117934 290.833382 
L 268.276534 288.656222 
L 268.593735 293.626153 
L 268.752335 292.515051 
L 268.910935 294.497017 
L 269.069535 291.854395 
L 269.228135 292.815349 
L 269.386735 289.331893 
L 269.545336 292.905438 
L 269.703936 292.259797 
L 269.862536 290.48804 
L 270.021136 291.343889 
L 270.179736 289.226788 
L 270.338336 292.950483 
L 270.496937 293.115646 
L 270.655537 293.010542 
L 270.814137 293.596123 
L 271.131337 292.019559 
L 271.448538 294.211734 
L 271.607138 291.92947 
L 271.765738 293.836361 
L 271.924338 291.554097 
L 272.082938 290.953501 
L 272.241538 294.136659 
L 272.400139 292.905438 
L 272.717339 293.31084 
L 272.875939 292.995527 
L 273.034539 293.220751 
L 273.193139 292.935468 
L 273.35174 293.115646 
L 273.51034 290.563114 
L 273.66894 293.295825 
L 273.82754 291.403948 
L 273.98614 291.358904 
L 274.14474 293.641168 
L 274.303341 293.821347 
L 274.461941 290.938487 
L 274.620541 292.875408 
L 274.779141 293.235766 
L 274.937741 290.608159 
L 275.254942 294.121644 
L 275.413542 290.683233 
L 275.572142 292.785319 
L 275.730742 290.938487 
L 275.889342 294.346868 
L 276.047942 292.54508 
L 276.206543 292.980512 
L 276.365143 292.60514 
L 276.682343 294.181704 
L 276.999543 292.424961 
L 277.158144 293.070602 
L 277.316744 293.025557 
L 277.475344 292.154693 
L 277.633944 289.151714 
L 277.792544 292.755289 
L 278.109745 294.451972 
L 278.268345 289.361923 
L 278.585545 294.01654 
L 278.744145 293.3709 
L 278.902745 293.806332 
L 279.061346 289.977533 
L 279.219946 293.145676 
L 279.378546 293.836361 
L 279.537146 289.797355 
L 279.695746 293.761287 
L 279.854346 293.596123 
L 280.171547 292.019559 
L 280.330147 290.172727 
L 280.647347 293.806332 
L 280.805948 293.626153 
L 280.964548 289.947503 
L 281.123148 291.719261 
L 281.281748 292.094634 
L 281.598948 290.187742 
L 281.757549 290.277831 
L 281.916149 292.725259 
L 282.074749 291.13368 
L 282.391949 292.560095 
L 282.550549 294.04657 
L 282.70915 290.833382 
L 282.86775 292.965498 
L 283.02635 292.845378 
L 283.18495 293.506034 
L 283.50215 291.328874 
L 283.660751 293.806332 
L 283.819351 291.944485 
L 283.977951 291.554097 
L 284.136551 293.686213 
L 284.295151 289.256818 
L 284.453751 293.566093 
L 284.612352 293.791317 
L 284.770952 293.355885 
L 284.929552 292.154693 
L 285.088152 293.701227 
L 285.246752 293.896421 
L 285.405352 294.692211 
L 285.563953 292.785319 
L 285.722553 293.866391 
L 285.881153 293.400929 
L 286.039753 294.572091 
L 286.198353 292.965498 
L 286.356953 293.295825 
L 286.515554 290.893442 
L 286.674154 293.220751 
L 286.832754 292.334872 
L 286.991354 290.382935 
L 287.149954 292.064604 
L 287.308554 289.75231 
L 287.467155 292.019559 
L 287.625755 291.358904 
L 287.784355 290.187742 
L 287.942955 291.268814 
L 288.101555 289.78234 
L 288.260155 290.908457 
L 288.418756 293.611138 
L 288.735956 291.809351 
L 288.894556 287.905478 
L 289.053156 292.680214 
L 289.211756 292.710244 
L 289.370357 292.485021 
L 289.528957 292.019559 
L 289.687557 293.325855 
L 289.846157 292.169708 
L 290.004757 292.034574 
L 290.163357 293.731257 
L 290.480558 290.653204 
L 290.639158 293.385915 
L 290.797758 294.136659 
L 290.956358 291.358904 
L 291.114958 294.196719 
L 291.273559 293.235766 
L 291.432159 293.100632 
L 291.590759 293.836361 
L 291.907959 290.533084 
L 292.066559 295.187702 
L 292.22516 293.010542 
L 292.38376 294.331853 
L 292.54236 288.070642 
L 292.70096 292.890423 
L 292.85956 293.31084 
L 293.018161 291.734276 
L 293.176761 292.800334 
L 293.335361 292.154693 
L 293.493961 294.031555 
L 293.652561 293.881406 
L 293.969762 291.22377 
L 294.286962 293.506034 
L 294.445562 290.307861 
L 294.604162 292.650185 
L 294.762762 291.373919 
L 294.921363 294.031555 
L 295.079963 288.881446 
L 295.238563 289.376937 
L 295.397163 293.175706 
L 295.555763 291.388933 
L 295.714363 293.746272 
L 295.872964 292.154693 
L 296.031564 292.169708 
L 296.190164 292.454991 
L 296.348764 293.205736 
L 296.507364 291.92947 
L 296.665964 291.974514 
L 296.824565 292.379917 
L 297.141765 290.878427 
L 297.300365 295.082598 
L 297.617565 290.593144 
L 297.776166 290.127682 
L 298.093366 293.415944 
L 298.251966 289.497057 
L 298.410566 292.244783 
L 298.727767 290.548099 
L 298.886367 287.184763 
L 299.044967 293.205736 
L 299.362167 290.262816 
L 299.837968 292.920453 
L 299.996568 289.72228 
L 300.313768 294.7823 
L 300.472368 293.445974 
L 300.630969 293.851376 
L 300.789569 289.947503 
L 300.948169 290.367921 
L 301.106769 294.677196 
L 301.265369 290.653204 
L 301.423969 289.917474 
L 301.58257 292.785319 
L 301.74117 292.259797 
L 301.89977 291.343889 
L 302.05837 292.530066 
L 302.21697 291.824365 
L 302.37557 294.121644 
L 302.534171 293.896421 
L 302.851371 290.337891 
L 303.009971 291.118665 
L 303.327171 294.512032 
L 303.485772 293.866391 
L 303.644372 294.977494 
L 303.802972 289.04661 
L 304.120172 294.406928 
L 304.278772 291.16371 
L 304.595973 293.551078 
L 304.754573 291.388933 
L 305.071773 294.391913 
L 305.388974 291.974514 
L 305.547574 294.707225 
L 305.706174 292.274812 
L 305.864774 294.091615 
L 306.023374 291.689231 
L 306.181975 292.560095 
L 306.340575 291.719261 
L 306.499175 291.749291 
L 306.657775 292.424961 
L 306.816375 290.968516 
L 306.974975 293.040572 
L 307.133576 293.220751 
L 307.292176 291.043591 
L 307.450776 291.479023 
L 307.767976 293.220751 
L 307.926576 291.298844 
L 308.085177 292.094634 
L 308.243777 291.779321 
L 308.402377 291.989529 
L 308.560977 291.689231 
L 308.719577 289.977533 
L 308.878177 292.515051 
L 309.036778 292.770304 
L 309.195378 291.914455 
L 309.353978 288.31088 
L 309.512578 292.725259 
L 309.671178 291.343889 
L 309.829778 291.584127 
L 309.988379 291.19374 
L 310.146979 292.890423 
L 310.305579 292.454991 
L 310.464179 294.211734 
L 310.781379 292.019559 
L 310.93998 284.917513 
L 311.09858 292.60514 
L 311.25718 292.60514 
L 311.41578 294.797315 
L 311.57438 292.63517 
L 311.73298 288.866431 
L 311.891581 293.656183 
L 312.050181 294.647166 
L 312.367381 290.412965 
L 312.525981 292.60514 
L 312.684581 292.860393 
L 312.843182 289.737295 
L 313.160382 293.671198 
L 313.318982 294.10663 
L 313.477582 292.274812 
L 313.636182 294.482002 
L 313.953383 292.620155 
L 314.111983 292.830363 
L 314.270583 290.217772 
L 314.429183 290.473025 
L 314.587783 292.394931 
L 314.746384 292.590125 
L 314.904984 288.791357 
L 315.380784 292.740274 
L 315.697985 290.232786 
L 315.856585 291.854395 
L 316.015185 291.554097 
L 316.173785 292.004544 
L 316.490985 294.451972 
L 316.649586 292.470006 
L 316.808186 293.731257 
L 316.966786 289.421982 
L 317.283986 292.60514 
L 317.442586 293.355885 
L 317.918387 292.199738 
L 318.076987 292.890423 
L 318.235587 292.199738 
L 318.394188 293.34087 
L 318.552788 293.175706 
L 318.711388 291.253799 
L 318.869988 290.743293 
L 319.028588 292.60514 
L 319.187188 290.48804 
L 319.504389 293.205736 
L 319.662989 289.72228 
L 319.821589 290.292846 
L 319.980189 290.082638 
L 320.138789 293.611138 
L 320.45599 290.923472 
L 320.61459 291.464008 
L 320.93179 293.896421 
L 321.09039 293.701227 
L 321.248991 294.917434 
L 321.566191 291.283829 
L 321.724791 290.923472 
L 321.883391 292.289827 
L 322.041991 291.253799 
L 322.359192 293.731257 
L 322.676392 292.019559 
L 322.834992 294.331853 
L 322.993592 293.821347 
L 323.152193 291.479023 
L 323.469393 292.439976 
L 323.627993 292.725259 
L 323.786593 291.944485 
L 323.945193 294.061585 
L 324.103794 289.707265 
L 324.262394 292.259797 
L 324.420994 288.235805 
L 324.579594 292.620155 
L 324.738194 292.60514 
L 324.896794 292.755289 
L 325.055395 293.400929 
L 325.213995 290.45801 
L 325.372595 293.295825 
L 325.531195 293.040572 
L 325.689795 291.914455 
L 325.848395 288.716282 
L 326.006996 293.821347 
L 326.165596 292.289827 
L 326.324196 293.731257 
L 326.482796 293.791317 
L 326.641396 293.010542 
L 326.799996 292.935468 
L 326.958597 290.247801 
L 327.117197 293.491019 
L 327.275797 292.800334 
L 327.434397 289.151714 
L 327.592997 290.683233 
L 327.751597 289.07664 
L 327.910198 292.590125 
L 328.068798 290.548099 
L 328.227398 292.289827 
L 328.544598 289.211774 
L 328.703198 292.169708 
L 328.861799 292.064604 
L 329.020399 293.025557 
L 329.178999 292.6652 
L 329.337599 288.851416 
L 329.496199 294.001525 
L 329.654799 290.037593 
L 329.8134 293.746272 
L 329.972 292.244783 
L 330.1306 292.560095 
L 330.2892 293.596123 
L 330.4478 291.824365 
L 330.6064 293.581108 
L 330.923601 291.358904 
L 331.082201 294.241764 
L 331.240801 290.938487 
L 331.399401 293.235766 
L 331.558002 289.767325 
L 331.716602 293.566093 
L 331.875202 291.974514 
L 332.033802 292.274812 
L 332.192402 291.539082 
L 332.351002 292.830363 
L 332.509603 289.872429 
L 332.826803 293.145676 
L 332.985403 290.773323 
L 333.302603 294.331853 
L 333.461204 291.253799 
L 333.619804 292.004544 
L 333.778404 290.713263 
L 334.095604 293.671198 
L 334.254204 292.785319 
L 334.412805 292.920453 
L 334.571405 291.22377 
L 334.730005 294.001525 
L 334.888605 289.391952 
L 335.047205 291.448993 
L 335.205805 289.75231 
L 335.364406 292.154693 
L 335.523006 291.313859 
L 335.681606 292.875408 
L 335.840206 292.680214 
L 335.998806 292.064604 
L 336.157406 293.641168 
L 336.316007 291.884425 
L 336.633207 291.629172 
L 336.791807 291.403948 
L 336.950407 292.244783 
L 337.109007 290.503055 
L 337.584808 294.572091 
L 337.743408 291.16371 
L 337.902008 290.262816 
L 338.060608 291.298844 
L 338.219209 288.355925 
L 338.536409 293.536064 
L 338.695009 290.968516 
L 338.853609 293.866391 
L 339.012209 292.259797 
L 339.17081 292.620155 
L 339.32941 291.208755 
L 339.48801 291.464008 
L 339.64661 292.124663 
L 339.96381 289.572131 
L 340.122411 290.698248 
L 340.281011 290.127682 
L 340.439611 290.382935 
L 340.598211 292.304842 
L 340.756811 291.118665 
L 340.915411 290.908457 
L 341.074012 292.785319 
L 341.232612 290.773323 
L 341.391212 292.019559 
L 341.549812 290.45801 
L 341.708412 291.674216 
L 341.867012 289.872429 
L 342.025613 290.39795 
L 342.184213 289.196759 
L 342.342813 286.674256 
L 342.501413 289.256818 
L 342.818613 284.482081 
L 342.977214 283.22083 
L 343.770215 260.413204 
L 343.928815 258.130939 
L 344.087415 253.761605 
L 344.563215 263.686451 
L 344.721816 260.338129 
L 344.880416 271.07378 
L 345.197616 275.938606 
L 345.356216 276.464127 
L 345.514816 275.007682 
L 345.673417 279.69233 
L 345.832017 279.587225 
L 345.990617 280.142777 
L 346.149217 278.971615 
L 346.307817 279.136779 
L 346.942218 285.578169 
L 347.100818 286.088675 
L 347.259418 284.767364 
L 347.576619 288.881446 
L 347.735219 287.319897 
L 347.893819 284.076679 
L 348.052419 287.680254 
L 348.211019 286.298884 
L 348.369619 286.77936 
L 348.52822 289.136699 
L 348.68682 288.971535 
L 349.00402 284.737335 
L 349.16262 285.45805 
L 349.32122 288.115686 
L 349.479821 288.641208 
L 349.638421 288.596163 
L 349.955621 287.455031 
L 350.114221 287.890463 
L 350.272821 286.464048 
L 350.431422 287.590165 
L 350.590022 290.187742 
L 350.748622 288.776342 
L 350.907222 286.088675 
L 351.065822 290.923472 
L 351.224422 289.632191 
L 351.383023 291.058606 
L 351.858823 286.644226 
L 352.176023 289.151714 
L 352.334624 289.887444 
L 352.493224 286.77936 
L 352.651824 289.04661 
L 352.810424 289.031595 
L 352.969024 288.025597 
L 353.127624 290.803353 
L 353.444825 285.217811 
L 353.762025 290.878427 
L 353.920625 291.13368 
L 354.079225 291.043591 
L 354.555026 288.866431 
L 354.713626 290.803353 
L 355.030826 285.142737 
L 355.348027 289.136699 
L 355.506627 289.812369 
L 355.665227 287.409986 
L 355.823827 288.040612 
L 355.982427 287.334912 
L 356.141028 288.430999 
L 356.299628 288.145716 
L 356.458228 286.674256 
L 356.616828 288.896461 
L 356.934029 289.241803 
L 357.092629 289.01658 
L 357.251229 289.452012 
L 357.409829 293.325855 
L 357.727029 288.701267 
L 358.04423 291.719261 
L 358.20283 292.815349 
L 358.52003 291.884425 
L 358.995831 291.644187 
L 359.154431 292.304842 
L 359.471631 290.533084 
L 359.630231 292.229768 
L 359.788832 292.034574 
L 360.106032 292.800334 
L 360.264632 291.118665 
L 360.423232 292.319857 
L 360.581832 291.13368 
L 360.740433 291.92947 
L 360.899033 287.590165 
L 361.057633 294.04657 
L 361.216233 287.019599 
L 361.374833 290.322876 
L 361.533433 290.157712 
L 361.850634 292.184723 
L 362.009234 288.040612 
L 362.326434 291.944485 
L 362.485034 291.13368 
L 362.643635 291.614157 
L 362.802235 292.710244 
L 363.119435 290.743293 
L 363.278035 288.235805 
L 363.595236 291.178725 
L 363.753836 288.28085 
L 364.071036 292.590125 
L 364.388236 289.932489 
L 364.546837 292.364902 
L 364.705437 291.253799 
L 364.864037 291.313859 
L 365.022637 292.004544 
L 365.339837 289.482042 
L 365.498438 290.608159 
L 365.657038 290.352906 
L 365.815638 289.797355 
L 365.974238 290.337891 
L 366.132838 291.689231 
L 366.291438 286.794375 
L 366.450039 290.548099 
L 366.608639 289.572131 
L 366.767239 289.617176 
L 366.925839 292.620155 
L 367.40164 288.205776 
L 367.56024 291.298844 
L 367.71884 291.013561 
L 367.87744 288.836401 
L 368.03604 288.596163 
L 368.353241 290.172727 
L 368.511841 292.244783 
L 368.670441 291.073621 
L 368.829041 291.373919 
L 368.987641 289.01658 
L 369.146242 289.286848 
L 369.304842 291.809351 
L 369.463442 288.941505 
L 369.780642 292.229768 
L 369.939242 291.464008 
L 370.097843 288.446014 
L 370.256443 291.418963 
L 370.415043 290.893442 
L 370.573643 291.779321 
L 370.732243 289.992548 
L 370.890843 292.304842 
L 371.049444 292.424961 
L 371.208044 290.202757 
L 371.366644 291.89944 
L 371.683844 289.587146 
L 371.842444 292.124663 
L 372.001045 289.136699 
L 372.159645 290.833382 
L 372.476845 291.403948 
L 372.635445 290.473025 
L 372.794045 291.013561 
L 372.952646 292.274812 
L 373.111246 289.241803 
L 373.269846 292.560095 
L 373.428446 292.995527 
L 373.587046 293.070602 
L 373.745646 290.578129 
L 373.904247 290.097652 
L 374.062847 290.082638 
L 374.221447 291.19374 
L 374.380047 288.836401 
L 374.538647 289.812369 
L 374.697247 291.914455 
L 374.855848 290.412965 
L 375.014448 291.464008 
L 375.490248 289.947503 
L 375.648848 292.710244 
L 375.807449 288.581148 
L 375.966049 292.094634 
L 376.283249 289.001565 
L 376.441849 289.587146 
L 376.600449 290.758308 
L 376.75905 290.638189 
L 377.07625 288.716282 
L 377.23485 291.734276 
L 377.39345 290.683233 
L 377.55205 292.394931 
L 377.710651 290.878427 
L 377.869251 290.638189 
L 378.027851 289.78234 
L 378.186451 290.292846 
L 378.345051 290.367921 
L 378.503651 289.166729 
L 378.662252 291.584127 
L 378.820852 291.10365 
L 378.979452 292.199738 
L 379.138052 288.926491 
L 379.296652 290.938487 
L 379.455252 291.494038 
L 379.613853 286.298884 
L 379.931053 290.758308 
L 380.089653 289.707265 
L 380.248253 291.989529 
L 380.565454 289.196759 
L 380.724054 289.286848 
L 380.882654 291.313859 
L 381.041254 289.121684 
L 381.199854 290.022578 
L 381.358455 289.962518 
L 381.517055 288.461029 
L 381.675655 290.503055 
L 381.834255 289.69225 
L 381.992855 291.448993 
L 382.310056 288.506073 
L 382.468656 290.39795 
L 382.785856 288.355925 
L 382.944456 290.713263 
L 383.103056 286.449033 
L 383.261657 289.932489 
L 383.420257 288.746312 
L 383.578857 290.833382 
L 383.737457 290.668218 
L 383.896057 290.893442 
L 384.054657 288.370939 
L 384.371858 290.277831 
L 384.530458 290.022578 
L 384.689058 289.256818 
L 384.847658 284.572171 
L 385.006258 289.452012 
L 385.164859 286.614197 
L 385.323459 290.202757 
L 385.482059 291.10365 
L 385.799259 288.040612 
L 385.957859 287.349927 
L 386.11646 289.75231 
L 386.27506 289.256818 
L 386.43366 289.391952 
L 386.59226 288.025597 
L 386.90946 289.436997 
L 387.068061 289.196759 
L 387.226661 289.66222 
L 387.385261 286.854435 
L 387.543861 289.647206 
L 387.702461 289.827384 
L 387.861061 287.560135 
L 388.019662 291.298844 
L 388.178262 288.28085 
L 388.336862 289.421982 
L 388.495462 288.34091 
L 388.654062 288.581148 
L 388.812662 289.527086 
L 389.129863 287.950522 
L 389.288463 288.671237 
L 389.447063 287.229807 
L 389.605663 289.361923 
L 389.764263 288.160731 
L 389.922864 288.235805 
L 390.081464 287.485061 
L 390.240064 289.707265 
L 390.398664 285.037633 
L 390.557264 287.860433 
L 390.874465 286.298884 
L 391.033065 287.109688 
L 391.191665 285.953541 
L 391.350265 287.394971 
L 391.508865 281.794415 
L 391.826066 288.22079 
L 391.984666 286.644226 
L 392.143266 286.388973 
L 392.301866 285.082677 
L 392.460466 288.130701 
L 392.619066 286.479063 
L 392.777667 287.169748 
L 392.936267 286.148735 
L 393.094867 288.551118 
L 393.253467 287.214792 
L 393.412067 284.452052 
L 393.570667 286.959539 
L 393.729268 287.139718 
L 393.887868 284.617215 
L 394.046468 287.214792 
L 394.205068 286.764346 
L 394.522269 284.932528 
L 394.680869 286.043631 
L 394.839469 285.818407 
L 394.998069 286.554137 
L 395.156669 285.307901 
L 395.315269 281.86949 
L 395.47387 284.226828 
L 395.63247 283.160771 
L 395.79107 286.689271 
L 396.10827 282.259877 
L 396.26687 283.055666 
L 396.425471 285.683273 
L 396.584071 282.4851 
L 396.742671 282.364981 
L 396.901271 284.617215 
L 397.059871 280.082717 
L 397.218471 283.626232 
L 397.377072 283.160771 
L 397.535672 280.112747 
L 397.694272 282.680294 
L 397.852872 278.551198 
L 398.011472 278.536183 
L 398.170072 280.322955 
L 398.328673 278.2509 
L 398.487273 279.271913 
L 398.487273 279.271913 
" style="fill:none;stroke:#1f77b4;stroke-linecap:square;stroke-width:1.5;"/>
   </g>
   <g id="patch_3">
    <path d="M 57.6 307.584 
L 57.6 41.472 
" style="fill:none;stroke:#000000;stroke-linecap:square;stroke-linejoin:miter;stroke-width:0.8;"/>
   </g>
   <g id="patch_4">
    <path d="M 414.72 307.584 
L 414.72 41.472 
" style="fill:none;stroke:#000000;stroke-linecap:square;stroke-linejoin:miter;stroke-width:0.8;"/>
   </g>
   <g id="patch_5">
    <path d="M 57.6 307.584 
L 414.72 307.584 
" style="fill:none;stroke:#000000;stroke-linecap:square;stroke-linejoin:miter;stroke-width:0.8;"/>
   </g>
   <g id="patch_6">
    <path d="M 57.6 41.472 
L 414.72 41.472 
" style="fill:none;stroke:#000000;stroke-linecap:square;stroke-linejoin:miter;stroke-width:0.8;"/>
   </g>
   <g id="text_16">
    <!-- Raw signal -->
    <g transform="translate(203.8875 35.472)scale(0.12 -0.12)">
     <defs>
      <path d="M 2841 2188 
Q 3044 2119 3236 1894 
Q 3428 1669 3622 1275 
L 4263 0 
L 3584 0 
L 2988 1197 
Q 2756 1666 2539 1819 
Q 2322 1972 1947 1972 
L 1259 1972 
L 1259 0 
L 628 0 
L 628 4666 
L 2053 4666 
Q 2853 4666 3247 4331 
Q 3641 3997 3641 3322 
Q 3641 2881 3436 2590 
Q 3231 2300 2841 2188 
z
M 1259 4147 
L 1259 2491 
L 2053 2491 
Q 2509 2491 2742 2702 
Q 2975 2913 2975 3322 
Q 2975 3731 2742 3939 
Q 2509 4147 2053 4147 
L 1259 4147 
z
" id="DejaVuSans-52" transform="scale(0.015625)"/>
      <path d="M 269 3500 
L 844 3500 
L 1563 769 
L 2278 3500 
L 2956 3500 
L 3675 769 
L 4391 3500 
L 4966 3500 
L 4050 0 
L 3372 0 
L 2619 2869 
L 1863 0 
L 1184 0 
L 269 3500 
z
" id="DejaVuSans-77" transform="scale(0.015625)"/>
      <path d="M 603 3500 
L 1178 3500 
L 1178 0 
L 603 0 
L 603 3500 
z
M 603 4863 
L 1178 4863 
L 1178 4134 
L 603 4134 
L 603 4863 
z
" id="DejaVuSans-69" transform="scale(0.015625)"/>
     </defs>
     <use xlink:href="#DejaVuSans-52"/>
     <use x="67.232422" xlink:href="#DejaVuSans-61"/>
     <use x="128.511719" xlink:href="#DejaVuSans-77"/>
     <use x="210.298828" xlink:href="#DejaVuSans-20"/>
     <use x="242.085938" xlink:href="#DejaVuSans-73"/>
     <use x="294.185547" xlink:href="#DejaVuSans-69"/>
     <use x="321.96875" xlink:href="#DejaVuSans-67"/>
     <use x="385.445312" xlink:href="#DejaVuSans-6e"/>
     <use x="448.824219" xlink:href="#DejaVuSans-61"/>
     <use x="510.103516" xlink:href="#DejaVuSans-6c"/>
    </g>
   </g>
  </g>
 </g>
 <defs>
  <clipPath id="p5a87d5d06e">
   <rect height="266.112" width="357.12" x="57.6" y="41.472"/>
  </clipPath>
 </defs>
</svg>
