<?xml version="1.0" encoding="utf-8" standalone="no"?>
<!DOCTYPE svg PUBLIC "-//W3C//DTD SVG 1.1//EN"
  "http://www.w3.org/Graphics/SVG/1.1/DTD/svg11.dtd">
<svg height="345.6pt" version="1.1" viewBox="0 0 460.8 345.6" width="460.8pt" xmlns="http://www.w3.org/2000/svg" xmlns:xlink="http://www.w3.org/1999/xlink">
 <metadata>
  <rdf:RDF xmlns:cc="http://creativecommons.org/ns#" xmlns:dc="http://purl.org/dc/elements/1.1/" xmlns:rdf="http://www.w3.org/1999/02/22-rdf-syntax-ns#">
   <cc:Work>
    <dc:type rdf:resource="http://purl.org/dc/dcmitype/StillImage"/>
    <dc:date>2022-06-03T23:56:25.897189</dc:date>
    <dc:format>image/svg+xml</dc:format>
    <dc:creator>
     <cc:Agent>
      <dc:title>Matplotlib v3.4.1, https://matplotlib.org/</dc:title>
     </cc:Agent>
    </dc:creator>
   </cc:Work>
  </rdf:RDF>
 </metadata>
 <defs>
  <style type="text/css">*{stroke-linecap:butt;stroke-linejoin:round;}</style>
 </defs>
 <g id="figure_1">
  <g id="patch_1">
   <path d="M 0 345.6 
L 460.8 345.6 
L 460.8 0 
L 0 0 
z
" style="fill:#ffffff;"/>
  </g>
  <g id="axes_1">
   <g id="patch_2">
    <path d="M 57.6 307.584 
L 414.72 307.584 
L 414.72 41.472 
L 57.6 41.472 
z
" style="fill:#ffffff;"/>
   </g>
   <g id="matplotlib.axis_1">
    <g id="xtick_1">
     <g id="line2d_1">
      <defs>
       <path d="M 0 0 
L 0 3.5 
" id="m9e658d05b6" style="stroke:#000000;stroke-width:0.8;"/>
      </defs>
      <g>
       <use style="stroke:#000000;stroke-width:0.8;" x="102.929605" xlink:href="#m9e658d05b6" y="307.584"/>
      </g>
     </g>
     <g id="text_1">
      <!-- 400 -->
      <g transform="translate(93.385855 322.182437)scale(0.1 -0.1)">
       <defs>
        <path d="M 2419 4116 
L 825 1625 
L 2419 1625 
L 2419 4116 
z
M 2253 4666 
L 3047 4666 
L 3047 1625 
L 3713 1625 
L 3713 1100 
L 3047 1100 
L 3047 0 
L 2419 0 
L 2419 1100 
L 313 1100 
L 313 1709 
L 2253 4666 
z
" id="DejaVuSans-34" transform="scale(0.015625)"/>
        <path d="M 2034 4250 
Q 1547 4250 1301 3770 
Q 1056 3291 1056 2328 
Q 1056 1369 1301 889 
Q 1547 409 2034 409 
Q 2525 409 2770 889 
Q 3016 1369 3016 2328 
Q 3016 3291 2770 3770 
Q 2525 4250 2034 4250 
z
M 2034 4750 
Q 2819 4750 3233 4129 
Q 3647 3509 3647 2328 
Q 3647 1150 3233 529 
Q 2819 -91 2034 -91 
Q 1250 -91 836 529 
Q 422 1150 422 2328 
Q 422 3509 836 4129 
Q 1250 4750 2034 4750 
z
" id="DejaVuSans-30" transform="scale(0.015625)"/>
       </defs>
       <use xlink:href="#DejaVuSans-34"/>
       <use x="63.623047" xlink:href="#DejaVuSans-30"/>
       <use x="127.246094" xlink:href="#DejaVuSans-30"/>
      </g>
     </g>
    </g>
    <g id="xtick_2">
     <g id="line2d_2">
      <g>
       <use style="stroke:#000000;stroke-width:0.8;" x="160.931952" xlink:href="#m9e658d05b6" y="307.584"/>
      </g>
     </g>
     <g id="text_2">
      <!-- 600 -->
      <g transform="translate(151.388202 322.182437)scale(0.1 -0.1)">
       <defs>
        <path d="M 2113 2584 
Q 1688 2584 1439 2293 
Q 1191 2003 1191 1497 
Q 1191 994 1439 701 
Q 1688 409 2113 409 
Q 2538 409 2786 701 
Q 3034 994 3034 1497 
Q 3034 2003 2786 2293 
Q 2538 2584 2113 2584 
z
M 3366 4563 
L 3366 3988 
Q 3128 4100 2886 4159 
Q 2644 4219 2406 4219 
Q 1781 4219 1451 3797 
Q 1122 3375 1075 2522 
Q 1259 2794 1537 2939 
Q 1816 3084 2150 3084 
Q 2853 3084 3261 2657 
Q 3669 2231 3669 1497 
Q 3669 778 3244 343 
Q 2819 -91 2113 -91 
Q 1303 -91 875 529 
Q 447 1150 447 2328 
Q 447 3434 972 4092 
Q 1497 4750 2381 4750 
Q 2619 4750 2861 4703 
Q 3103 4656 3366 4563 
z
" id="DejaVuSans-36" transform="scale(0.015625)"/>
       </defs>
       <use xlink:href="#DejaVuSans-36"/>
       <use x="63.623047" xlink:href="#DejaVuSans-30"/>
       <use x="127.246094" xlink:href="#DejaVuSans-30"/>
      </g>
     </g>
    </g>
    <g id="xtick_3">
     <g id="line2d_3">
      <g>
       <use style="stroke:#000000;stroke-width:0.8;" x="218.9343" xlink:href="#m9e658d05b6" y="307.584"/>
      </g>
     </g>
     <g id="text_3">
      <!-- 800 -->
      <g transform="translate(209.39055 322.182437)scale(0.1 -0.1)">
       <defs>
        <path d="M 2034 2216 
Q 1584 2216 1326 1975 
Q 1069 1734 1069 1313 
Q 1069 891 1326 650 
Q 1584 409 2034 409 
Q 2484 409 2743 651 
Q 3003 894 3003 1313 
Q 3003 1734 2745 1975 
Q 2488 2216 2034 2216 
z
M 1403 2484 
Q 997 2584 770 2862 
Q 544 3141 544 3541 
Q 544 4100 942 4425 
Q 1341 4750 2034 4750 
Q 2731 4750 3128 4425 
Q 3525 4100 3525 3541 
Q 3525 3141 3298 2862 
Q 3072 2584 2669 2484 
Q 3125 2378 3379 2068 
Q 3634 1759 3634 1313 
Q 3634 634 3220 271 
Q 2806 -91 2034 -91 
Q 1263 -91 848 271 
Q 434 634 434 1313 
Q 434 1759 690 2068 
Q 947 2378 1403 2484 
z
M 1172 3481 
Q 1172 3119 1398 2916 
Q 1625 2713 2034 2713 
Q 2441 2713 2670 2916 
Q 2900 3119 2900 3481 
Q 2900 3844 2670 4047 
Q 2441 4250 2034 4250 
Q 1625 4250 1398 4047 
Q 1172 3844 1172 3481 
z
" id="DejaVuSans-38" transform="scale(0.015625)"/>
       </defs>
       <use xlink:href="#DejaVuSans-38"/>
       <use x="63.623047" xlink:href="#DejaVuSans-30"/>
       <use x="127.246094" xlink:href="#DejaVuSans-30"/>
      </g>
     </g>
    </g>
    <g id="xtick_4">
     <g id="line2d_4">
      <g>
       <use style="stroke:#000000;stroke-width:0.8;" x="276.936647" xlink:href="#m9e658d05b6" y="307.584"/>
      </g>
     </g>
     <g id="text_4">
      <!-- 1000 -->
      <g transform="translate(264.211647 322.182437)scale(0.1 -0.1)">
       <defs>
        <path d="M 794 531 
L 1825 531 
L 1825 4091 
L 703 3866 
L 703 4441 
L 1819 4666 
L 2450 4666 
L 2450 531 
L 3481 531 
L 3481 0 
L 794 0 
L 794 531 
z
" id="DejaVuSans-31" transform="scale(0.015625)"/>
       </defs>
       <use xlink:href="#DejaVuSans-31"/>
       <use x="63.623047" xlink:href="#DejaVuSans-30"/>
       <use x="127.246094" xlink:href="#DejaVuSans-30"/>
       <use x="190.869141" xlink:href="#DejaVuSans-30"/>
      </g>
     </g>
    </g>
    <g id="xtick_5">
     <g id="line2d_5">
      <g>
       <use style="stroke:#000000;stroke-width:0.8;" x="334.938995" xlink:href="#m9e658d05b6" y="307.584"/>
      </g>
     </g>
     <g id="text_5">
      <!-- 1200 -->
      <g transform="translate(322.213995 322.182437)scale(0.1 -0.1)">
       <defs>
        <path d="M 1228 531 
L 3431 531 
L 3431 0 
L 469 0 
L 469 531 
Q 828 903 1448 1529 
Q 2069 2156 2228 2338 
Q 2531 2678 2651 2914 
Q 2772 3150 2772 3378 
Q 2772 3750 2511 3984 
Q 2250 4219 1831 4219 
Q 1534 4219 1204 4116 
Q 875 4013 500 3803 
L 500 4441 
Q 881 4594 1212 4672 
Q 1544 4750 1819 4750 
Q 2544 4750 2975 4387 
Q 3406 4025 3406 3419 
Q 3406 3131 3298 2873 
Q 3191 2616 2906 2266 
Q 2828 2175 2409 1742 
Q 1991 1309 1228 531 
z
" id="DejaVuSans-32" transform="scale(0.015625)"/>
       </defs>
       <use xlink:href="#DejaVuSans-31"/>
       <use x="63.623047" xlink:href="#DejaVuSans-32"/>
       <use x="127.246094" xlink:href="#DejaVuSans-30"/>
       <use x="190.869141" xlink:href="#DejaVuSans-30"/>
      </g>
     </g>
    </g>
    <g id="xtick_6">
     <g id="line2d_6">
      <g>
       <use style="stroke:#000000;stroke-width:0.8;" x="392.941342" xlink:href="#m9e658d05b6" y="307.584"/>
      </g>
     </g>
     <g id="text_6">
      <!-- 1400 -->
      <g transform="translate(380.216342 322.182437)scale(0.1 -0.1)">
       <use xlink:href="#DejaVuSans-31"/>
       <use x="63.623047" xlink:href="#DejaVuSans-34"/>
       <use x="127.246094" xlink:href="#DejaVuSans-30"/>
       <use x="190.869141" xlink:href="#DejaVuSans-30"/>
      </g>
     </g>
    </g>
    <g id="text_7">
     <!-- Wavelength [nm] -->
     <g transform="translate(192.967812 335.860562)scale(0.1 -0.1)">
      <defs>
       <path d="M 213 4666 
L 850 4666 
L 1831 722 
L 2809 4666 
L 3519 4666 
L 4500 722 
L 5478 4666 
L 6119 4666 
L 4947 0 
L 4153 0 
L 3169 4050 
L 2175 0 
L 1381 0 
L 213 4666 
z
" id="DejaVuSans-57" transform="scale(0.015625)"/>
       <path d="M 2194 1759 
Q 1497 1759 1228 1600 
Q 959 1441 959 1056 
Q 959 750 1161 570 
Q 1363 391 1709 391 
Q 2188 391 2477 730 
Q 2766 1069 2766 1631 
L 2766 1759 
L 2194 1759 
z
M 3341 1997 
L 3341 0 
L 2766 0 
L 2766 531 
Q 2569 213 2275 61 
Q 1981 -91 1556 -91 
Q 1019 -91 701 211 
Q 384 513 384 1019 
Q 384 1609 779 1909 
Q 1175 2209 1959 2209 
L 2766 2209 
L 2766 2266 
Q 2766 2663 2505 2880 
Q 2244 3097 1772 3097 
Q 1472 3097 1187 3025 
Q 903 2953 641 2809 
L 641 3341 
Q 956 3463 1253 3523 
Q 1550 3584 1831 3584 
Q 2591 3584 2966 3190 
Q 3341 2797 3341 1997 
z
" id="DejaVuSans-61" transform="scale(0.015625)"/>
       <path d="M 191 3500 
L 800 3500 
L 1894 563 
L 2988 3500 
L 3597 3500 
L 2284 0 
L 1503 0 
L 191 3500 
z
" id="DejaVuSans-76" transform="scale(0.015625)"/>
       <path d="M 3597 1894 
L 3597 1613 
L 953 1613 
Q 991 1019 1311 708 
Q 1631 397 2203 397 
Q 2534 397 2845 478 
Q 3156 559 3463 722 
L 3463 178 
Q 3153 47 2828 -22 
Q 2503 -91 2169 -91 
Q 1331 -91 842 396 
Q 353 884 353 1716 
Q 353 2575 817 3079 
Q 1281 3584 2069 3584 
Q 2775 3584 3186 3129 
Q 3597 2675 3597 1894 
z
M 3022 2063 
Q 3016 2534 2758 2815 
Q 2500 3097 2075 3097 
Q 1594 3097 1305 2825 
Q 1016 2553 972 2059 
L 3022 2063 
z
" id="DejaVuSans-65" transform="scale(0.015625)"/>
       <path d="M 603 4863 
L 1178 4863 
L 1178 0 
L 603 0 
L 603 4863 
z
" id="DejaVuSans-6c" transform="scale(0.015625)"/>
       <path d="M 3513 2113 
L 3513 0 
L 2938 0 
L 2938 2094 
Q 2938 2591 2744 2837 
Q 2550 3084 2163 3084 
Q 1697 3084 1428 2787 
Q 1159 2491 1159 1978 
L 1159 0 
L 581 0 
L 581 3500 
L 1159 3500 
L 1159 2956 
Q 1366 3272 1645 3428 
Q 1925 3584 2291 3584 
Q 2894 3584 3203 3211 
Q 3513 2838 3513 2113 
z
" id="DejaVuSans-6e" transform="scale(0.015625)"/>
       <path d="M 2906 1791 
Q 2906 2416 2648 2759 
Q 2391 3103 1925 3103 
Q 1463 3103 1205 2759 
Q 947 2416 947 1791 
Q 947 1169 1205 825 
Q 1463 481 1925 481 
Q 2391 481 2648 825 
Q 2906 1169 2906 1791 
z
M 3481 434 
Q 3481 -459 3084 -895 
Q 2688 -1331 1869 -1331 
Q 1566 -1331 1297 -1286 
Q 1028 -1241 775 -1147 
L 775 -588 
Q 1028 -725 1275 -790 
Q 1522 -856 1778 -856 
Q 2344 -856 2625 -561 
Q 2906 -266 2906 331 
L 2906 616 
Q 2728 306 2450 153 
Q 2172 0 1784 0 
Q 1141 0 747 490 
Q 353 981 353 1791 
Q 353 2603 747 3093 
Q 1141 3584 1784 3584 
Q 2172 3584 2450 3431 
Q 2728 3278 2906 2969 
L 2906 3500 
L 3481 3500 
L 3481 434 
z
" id="DejaVuSans-67" transform="scale(0.015625)"/>
       <path d="M 1172 4494 
L 1172 3500 
L 2356 3500 
L 2356 3053 
L 1172 3053 
L 1172 1153 
Q 1172 725 1289 603 
Q 1406 481 1766 481 
L 2356 481 
L 2356 0 
L 1766 0 
Q 1100 0 847 248 
Q 594 497 594 1153 
L 594 3053 
L 172 3053 
L 172 3500 
L 594 3500 
L 594 4494 
L 1172 4494 
z
" id="DejaVuSans-74" transform="scale(0.015625)"/>
       <path d="M 3513 2113 
L 3513 0 
L 2938 0 
L 2938 2094 
Q 2938 2591 2744 2837 
Q 2550 3084 2163 3084 
Q 1697 3084 1428 2787 
Q 1159 2491 1159 1978 
L 1159 0 
L 581 0 
L 581 4863 
L 1159 4863 
L 1159 2956 
Q 1366 3272 1645 3428 
Q 1925 3584 2291 3584 
Q 2894 3584 3203 3211 
Q 3513 2838 3513 2113 
z
" id="DejaVuSans-68" transform="scale(0.015625)"/>
       <path id="DejaVuSans-20" transform="scale(0.015625)"/>
       <path d="M 550 4863 
L 1875 4863 
L 1875 4416 
L 1125 4416 
L 1125 -397 
L 1875 -397 
L 1875 -844 
L 550 -844 
L 550 4863 
z
" id="DejaVuSans-5b" transform="scale(0.015625)"/>
       <path d="M 3328 2828 
Q 3544 3216 3844 3400 
Q 4144 3584 4550 3584 
Q 5097 3584 5394 3201 
Q 5691 2819 5691 2113 
L 5691 0 
L 5113 0 
L 5113 2094 
Q 5113 2597 4934 2840 
Q 4756 3084 4391 3084 
Q 3944 3084 3684 2787 
Q 3425 2491 3425 1978 
L 3425 0 
L 2847 0 
L 2847 2094 
Q 2847 2600 2669 2842 
Q 2491 3084 2119 3084 
Q 1678 3084 1418 2786 
Q 1159 2488 1159 1978 
L 1159 0 
L 581 0 
L 581 3500 
L 1159 3500 
L 1159 2956 
Q 1356 3278 1631 3431 
Q 1906 3584 2284 3584 
Q 2666 3584 2933 3390 
Q 3200 3197 3328 2828 
z
" id="DejaVuSans-6d" transform="scale(0.015625)"/>
       <path d="M 1947 4863 
L 1947 -844 
L 622 -844 
L 622 -397 
L 1369 -397 
L 1369 4416 
L 622 4416 
L 622 4863 
L 1947 4863 
z
" id="DejaVuSans-5d" transform="scale(0.015625)"/>
      </defs>
      <use xlink:href="#DejaVuSans-57"/>
      <use x="92.501953" xlink:href="#DejaVuSans-61"/>
      <use x="153.78125" xlink:href="#DejaVuSans-76"/>
      <use x="212.960938" xlink:href="#DejaVuSans-65"/>
      <use x="274.484375" xlink:href="#DejaVuSans-6c"/>
      <use x="302.267578" xlink:href="#DejaVuSans-65"/>
      <use x="363.791016" xlink:href="#DejaVuSans-6e"/>
      <use x="427.169922" xlink:href="#DejaVuSans-67"/>
      <use x="490.646484" xlink:href="#DejaVuSans-74"/>
      <use x="529.855469" xlink:href="#DejaVuSans-68"/>
      <use x="593.234375" xlink:href="#DejaVuSans-20"/>
      <use x="625.021484" xlink:href="#DejaVuSans-5b"/>
      <use x="664.035156" xlink:href="#DejaVuSans-6e"/>
      <use x="727.414062" xlink:href="#DejaVuSans-6d"/>
      <use x="824.826172" xlink:href="#DejaVuSans-5d"/>
     </g>
    </g>
   </g>
   <g id="matplotlib.axis_2">
    <g id="ytick_1">
     <g id="line2d_7">
      <defs>
       <path d="M 0 0 
L -3.5 0 
" id="m15cd1ae07f" style="stroke:#000000;stroke-width:0.8;"/>
      </defs>
      <g>
       <use style="stroke:#000000;stroke-width:0.8;" x="57.6" xlink:href="#m15cd1ae07f" y="293.349481"/>
      </g>
     </g>
     <g id="text_8">
      <!-- 1000 -->
      <g transform="translate(25.15 297.148699)scale(0.1 -0.1)">
       <use xlink:href="#DejaVuSans-31"/>
       <use x="63.623047" xlink:href="#DejaVuSans-30"/>
       <use x="127.246094" xlink:href="#DejaVuSans-30"/>
       <use x="190.869141" xlink:href="#DejaVuSans-30"/>
      </g>
     </g>
    </g>
    <g id="ytick_2">
     <g id="line2d_8">
      <g>
       <use style="stroke:#000000;stroke-width:0.8;" x="57.6" xlink:href="#m15cd1ae07f" y="259.935116"/>
      </g>
     </g>
     <g id="text_9">
      <!-- 2000 -->
      <g transform="translate(25.15 263.734335)scale(0.1 -0.1)">
       <use xlink:href="#DejaVuSans-32"/>
       <use x="63.623047" xlink:href="#DejaVuSans-30"/>
       <use x="127.246094" xlink:href="#DejaVuSans-30"/>
       <use x="190.869141" xlink:href="#DejaVuSans-30"/>
      </g>
     </g>
    </g>
    <g id="ytick_3">
     <g id="line2d_9">
      <g>
       <use style="stroke:#000000;stroke-width:0.8;" x="57.6" xlink:href="#m15cd1ae07f" y="226.520751"/>
      </g>
     </g>
     <g id="text_10">
      <!-- 3000 -->
      <g transform="translate(25.15 230.31997)scale(0.1 -0.1)">
       <defs>
        <path d="M 2597 2516 
Q 3050 2419 3304 2112 
Q 3559 1806 3559 1356 
Q 3559 666 3084 287 
Q 2609 -91 1734 -91 
Q 1441 -91 1130 -33 
Q 819 25 488 141 
L 488 750 
Q 750 597 1062 519 
Q 1375 441 1716 441 
Q 2309 441 2620 675 
Q 2931 909 2931 1356 
Q 2931 1769 2642 2001 
Q 2353 2234 1838 2234 
L 1294 2234 
L 1294 2753 
L 1863 2753 
Q 2328 2753 2575 2939 
Q 2822 3125 2822 3475 
Q 2822 3834 2567 4026 
Q 2313 4219 1838 4219 
Q 1578 4219 1281 4162 
Q 984 4106 628 3988 
L 628 4550 
Q 988 4650 1302 4700 
Q 1616 4750 1894 4750 
Q 2613 4750 3031 4423 
Q 3450 4097 3450 3541 
Q 3450 3153 3228 2886 
Q 3006 2619 2597 2516 
z
" id="DejaVuSans-33" transform="scale(0.015625)"/>
       </defs>
       <use xlink:href="#DejaVuSans-33"/>
       <use x="63.623047" xlink:href="#DejaVuSans-30"/>
       <use x="127.246094" xlink:href="#DejaVuSans-30"/>
       <use x="190.869141" xlink:href="#DejaVuSans-30"/>
      </g>
     </g>
    </g>
    <g id="ytick_4">
     <g id="line2d_10">
      <g>
       <use style="stroke:#000000;stroke-width:0.8;" x="57.6" xlink:href="#m15cd1ae07f" y="193.106387"/>
      </g>
     </g>
     <g id="text_11">
      <!-- 4000 -->
      <g transform="translate(25.15 196.905605)scale(0.1 -0.1)">
       <use xlink:href="#DejaVuSans-34"/>
       <use x="63.623047" xlink:href="#DejaVuSans-30"/>
       <use x="127.246094" xlink:href="#DejaVuSans-30"/>
       <use x="190.869141" xlink:href="#DejaVuSans-30"/>
      </g>
     </g>
    </g>
    <g id="ytick_5">
     <g id="line2d_11">
      <g>
       <use style="stroke:#000000;stroke-width:0.8;" x="57.6" xlink:href="#m15cd1ae07f" y="159.692022"/>
      </g>
     </g>
     <g id="text_12">
      <!-- 5000 -->
      <g transform="translate(25.15 163.491241)scale(0.1 -0.1)">
       <defs>
        <path d="M 691 4666 
L 3169 4666 
L 3169 4134 
L 1269 4134 
L 1269 2991 
Q 1406 3038 1543 3061 
Q 1681 3084 1819 3084 
Q 2600 3084 3056 2656 
Q 3513 2228 3513 1497 
Q 3513 744 3044 326 
Q 2575 -91 1722 -91 
Q 1428 -91 1123 -41 
Q 819 9 494 109 
L 494 744 
Q 775 591 1075 516 
Q 1375 441 1709 441 
Q 2250 441 2565 725 
Q 2881 1009 2881 1497 
Q 2881 1984 2565 2268 
Q 2250 2553 1709 2553 
Q 1456 2553 1204 2497 
Q 953 2441 691 2322 
L 691 4666 
z
" id="DejaVuSans-35" transform="scale(0.015625)"/>
       </defs>
       <use xlink:href="#DejaVuSans-35"/>
       <use x="63.623047" xlink:href="#DejaVuSans-30"/>
       <use x="127.246094" xlink:href="#DejaVuSans-30"/>
       <use x="190.869141" xlink:href="#DejaVuSans-30"/>
      </g>
     </g>
    </g>
    <g id="ytick_6">
     <g id="line2d_12">
      <g>
       <use style="stroke:#000000;stroke-width:0.8;" x="57.6" xlink:href="#m15cd1ae07f" y="126.277657"/>
      </g>
     </g>
     <g id="text_13">
      <!-- 6000 -->
      <g transform="translate(25.15 130.076876)scale(0.1 -0.1)">
       <use xlink:href="#DejaVuSans-36"/>
       <use x="63.623047" xlink:href="#DejaVuSans-30"/>
       <use x="127.246094" xlink:href="#DejaVuSans-30"/>
       <use x="190.869141" xlink:href="#DejaVuSans-30"/>
      </g>
     </g>
    </g>
    <g id="ytick_7">
     <g id="line2d_13">
      <g>
       <use style="stroke:#000000;stroke-width:0.8;" x="57.6" xlink:href="#m15cd1ae07f" y="92.863293"/>
      </g>
     </g>
     <g id="text_14">
      <!-- 7000 -->
      <g transform="translate(25.15 96.662512)scale(0.1 -0.1)">
       <defs>
        <path d="M 525 4666 
L 3525 4666 
L 3525 4397 
L 1831 0 
L 1172 0 
L 2766 4134 
L 525 4134 
L 525 4666 
z
" id="DejaVuSans-37" transform="scale(0.015625)"/>
       </defs>
       <use xlink:href="#DejaVuSans-37"/>
       <use x="63.623047" xlink:href="#DejaVuSans-30"/>
       <use x="127.246094" xlink:href="#DejaVuSans-30"/>
       <use x="190.869141" xlink:href="#DejaVuSans-30"/>
      </g>
     </g>
    </g>
    <g id="ytick_8">
     <g id="line2d_14">
      <g>
       <use style="stroke:#000000;stroke-width:0.8;" x="57.6" xlink:href="#m15cd1ae07f" y="59.448928"/>
      </g>
     </g>
     <g id="text_15">
      <!-- 8000 -->
      <g transform="translate(25.15 63.248147)scale(0.1 -0.1)">
       <use xlink:href="#DejaVuSans-38"/>
       <use x="63.623047" xlink:href="#DejaVuSans-30"/>
       <use x="127.246094" xlink:href="#DejaVuSans-30"/>
       <use x="190.869141" xlink:href="#DejaVuSans-30"/>
      </g>
     </g>
    </g>
    <g id="text_16">
     <!-- Counts -->
     <g transform="translate(19.070312 191.981125)rotate(-90)scale(0.1 -0.1)">
      <defs>
       <path d="M 4122 4306 
L 4122 3641 
Q 3803 3938 3442 4084 
Q 3081 4231 2675 4231 
Q 1875 4231 1450 3742 
Q 1025 3253 1025 2328 
Q 1025 1406 1450 917 
Q 1875 428 2675 428 
Q 3081 428 3442 575 
Q 3803 722 4122 1019 
L 4122 359 
Q 3791 134 3420 21 
Q 3050 -91 2638 -91 
Q 1578 -91 968 557 
Q 359 1206 359 2328 
Q 359 3453 968 4101 
Q 1578 4750 2638 4750 
Q 3056 4750 3426 4639 
Q 3797 4528 4122 4306 
z
" id="DejaVuSans-43" transform="scale(0.015625)"/>
       <path d="M 1959 3097 
Q 1497 3097 1228 2736 
Q 959 2375 959 1747 
Q 959 1119 1226 758 
Q 1494 397 1959 397 
Q 2419 397 2687 759 
Q 2956 1122 2956 1747 
Q 2956 2369 2687 2733 
Q 2419 3097 1959 3097 
z
M 1959 3584 
Q 2709 3584 3137 3096 
Q 3566 2609 3566 1747 
Q 3566 888 3137 398 
Q 2709 -91 1959 -91 
Q 1206 -91 779 398 
Q 353 888 353 1747 
Q 353 2609 779 3096 
Q 1206 3584 1959 3584 
z
" id="DejaVuSans-6f" transform="scale(0.015625)"/>
       <path d="M 544 1381 
L 544 3500 
L 1119 3500 
L 1119 1403 
Q 1119 906 1312 657 
Q 1506 409 1894 409 
Q 2359 409 2629 706 
Q 2900 1003 2900 1516 
L 2900 3500 
L 3475 3500 
L 3475 0 
L 2900 0 
L 2900 538 
Q 2691 219 2414 64 
Q 2138 -91 1772 -91 
Q 1169 -91 856 284 
Q 544 659 544 1381 
z
M 1991 3584 
L 1991 3584 
z
" id="DejaVuSans-75" transform="scale(0.015625)"/>
       <path d="M 2834 3397 
L 2834 2853 
Q 2591 2978 2328 3040 
Q 2066 3103 1784 3103 
Q 1356 3103 1142 2972 
Q 928 2841 928 2578 
Q 928 2378 1081 2264 
Q 1234 2150 1697 2047 
L 1894 2003 
Q 2506 1872 2764 1633 
Q 3022 1394 3022 966 
Q 3022 478 2636 193 
Q 2250 -91 1575 -91 
Q 1294 -91 989 -36 
Q 684 19 347 128 
L 347 722 
Q 666 556 975 473 
Q 1284 391 1588 391 
Q 1994 391 2212 530 
Q 2431 669 2431 922 
Q 2431 1156 2273 1281 
Q 2116 1406 1581 1522 
L 1381 1569 
Q 847 1681 609 1914 
Q 372 2147 372 2553 
Q 372 3047 722 3315 
Q 1072 3584 1716 3584 
Q 2034 3584 2315 3537 
Q 2597 3491 2834 3397 
z
" id="DejaVuSans-73" transform="scale(0.015625)"/>
      </defs>
      <use xlink:href="#DejaVuSans-43"/>
      <use x="69.824219" xlink:href="#DejaVuSans-6f"/>
      <use x="131.005859" xlink:href="#DejaVuSans-75"/>
      <use x="194.384766" xlink:href="#DejaVuSans-6e"/>
      <use x="257.763672" xlink:href="#DejaVuSans-74"/>
      <use x="296.972656" xlink:href="#DejaVuSans-73"/>
     </g>
    </g>
   </g>
   <g id="line2d_15">
    <path clip-path="url(#pa2334422c2)" d="M 73.832727 248.039602 
L 73.991327 260.202431 
L 74.149928 248.574232 
L 74.308528 220.773481 
L 74.467128 254.45516 
L 74.625728 236.144088 
L 74.784328 268.756508 
L 74.942928 259.133171 
L 75.101529 272.632575 
L 75.418729 238.14895 
L 75.577329 256.326365 
L 75.894529 220.639823 
L 76.21173 238.14895 
L 76.37033 219.035934 
L 76.52893 254.856133 
L 76.68753 251.782011 
L 76.84613 267.954564 
L 77.163331 249.376177 
L 77.321931 255.52442 
L 77.480531 251.247381 
L 77.639131 205.937503 
L 77.797731 266.217017 
L 77.956332 201.660464 
L 78.114932 258.197569 
L 78.273532 228.926586 
L 78.432132 279.71642 
L 78.590732 276.775956 
L 78.749333 244.029878 
L 78.907933 274.904751 
L 79.066533 251.247381 
L 79.225133 253.519558 
L 79.383733 257.395624 
L 79.542333 271.429657 
L 79.700934 274.637436 
L 79.859534 267.687249 
L 80.018134 247.371315 
L 80.176734 272.498917 
L 80.335334 247.905945 
L 80.652535 264.212155 
L 80.811135 269.424796 
L 80.969735 236.411403 
L 81.128335 254.187845 
L 81.286935 250.980066 
L 81.445535 265.415072 
L 81.604136 261.939978 
L 81.762736 255.658077 
L 81.921336 210.882829 
L 82.079936 256.727337 
L 82.238536 256.727337 
L 82.397136 264.212155 
L 82.555737 264.345812 
L 82.714337 269.959425 
L 82.872937 256.326365 
L 83.031537 276.241326 
L 83.190137 269.424796 
L 83.348737 238.14895 
L 83.507338 273.835492 
L 83.665938 254.45516 
L 83.824538 270.494055 
L 84.141738 242.960619 
L 84.300338 265.415072 
L 84.458939 256.326365 
L 84.617539 263.677525 
L 84.776139 277.711558 
L 85.251939 235.074829 
L 85.41054 275.172066 
L 85.56914 260.202431 
L 85.72774 270.494055 
L 85.88634 246.168398 
L 86.20354 279.983735 
L 86.362141 228.525613 
L 86.679341 271.563315 
L 86.996541 239.485525 
L 87.155141 258.464884 
L 87.313742 248.17326 
L 87.472342 245.366453 
L 87.630942 255.257105 
L 87.789542 278.513503 
L 87.948142 216.229127 
L 88.106742 258.999514 
L 88.423943 275.840354 
L 88.741143 265.548729 
L 88.899743 262.87558 
L 89.058343 272.89989 
L 89.216944 266.083359 
L 89.375544 236.277746 
L 89.534144 283.458829 
L 89.692744 266.617989 
L 89.851344 279.850077 
L 90.009944 246.703028 
L 90.168545 257.662939 
L 90.327145 279.850077 
L 90.485745 233.203624 
L 90.644345 277.978873 
L 90.961545 261.80632 
L 91.120146 272.632575 
L 91.278746 259.935116 
L 91.437346 266.484331 
L 91.595946 281.988597 
L 91.754546 257.930254 
L 91.913147 264.078497 
L 92.071747 245.633768 
L 92.230347 274.370122 
L 92.388947 274.771094 
L 92.547547 234.139227 
L 92.864748 271.563315 
L 93.023348 268.622851 
L 93.181948 279.983735 
L 93.340548 256.860994 
L 93.657748 280.919337 
L 93.816349 256.192707 
L 93.974949 255.257105 
L 94.292149 265.147757 
L 94.450749 262.741923 
L 94.609349 267.553591 
L 94.76795 265.014099 
L 94.92655 266.083359 
L 95.08515 210.481856 
L 95.40235 256.192707 
L 95.56095 258.732199 
L 95.719551 243.227934 
L 95.878151 276.642298 
L 96.036751 270.627713 
L 96.195351 255.791735 
L 96.353951 228.391956 
L 96.512551 257.529282 
L 96.671152 259.133171 
L 96.829752 243.628906 
L 96.988352 275.573039 
L 97.146952 269.825768 
L 97.305552 249.509834 
L 97.464152 255.257105 
L 97.622753 268.890166 
L 97.781353 244.831823 
L 98.098553 267.152619 
L 98.257153 250.178122 
L 98.415753 258.865856 
L 98.574354 259.400486 
L 98.732954 237.213348 
L 99.367354 275.974011 
L 99.525955 269.291138 
L 99.684555 231.198762 
L 99.843155 277.711558 
L 100.001755 265.147757 
L 100.160355 267.152619 
L 100.318955 287.60221 
L 100.477556 265.147757 
L 100.636156 267.553591 
L 100.794756 253.519558 
L 100.953356 224.649547 
L 101.111956 268.355536 
L 101.270556 239.351867 
L 101.429157 283.191514 
L 101.587757 267.286276 
L 101.746357 276.374983 
L 101.904957 229.594873 
L 102.222157 273.835492 
L 102.539358 277.043271 
L 102.697958 268.221878 
L 102.856558 236.678718 
L 103.173758 279.315448 
L 103.490959 230.79779 
L 103.649559 264.746785 
L 103.808159 269.558453 
L 103.966759 257.930254 
L 104.12536 263.142895 
L 104.28396 236.545061 
L 104.44256 247.63863 
L 104.60116 248.17326 
L 104.91836 272.498917 
L 105.076961 252.583956 
L 105.235561 266.217017 
L 105.394161 225.451492 
L 105.552761 248.70789 
L 105.711361 253.252243 
L 105.869961 261.405348 
L 106.028562 277.310586 
L 106.187162 261.939978 
L 106.504362 271.964287 
L 106.662962 271.429657 
L 106.980163 249.643492 
L 107.138763 264.880442 
L 107.297363 247.63863 
L 107.455963 256.59368 
L 107.614563 279.582762 
L 107.931764 248.306917 
L 108.090364 262.741923 
L 108.407564 248.039602 
L 108.566164 282.656884 
L 108.724764 248.17326 
L 108.883365 263.41021 
L 109.041965 254.722475 
L 109.200565 269.157481 
L 109.359165 235.342144 
L 109.517765 273.701834 
L 109.676365 269.69211 
L 109.834966 240.421127 
L 110.152166 275.305724 
L 110.310766 256.05905 
L 110.469366 269.558453 
L 110.627966 270.627713 
L 110.786567 255.925392 
L 110.945167 275.974011 
L 111.103767 246.168398 
L 111.420967 264.345812 
L 111.579567 274.236464 
L 111.738168 234.139227 
L 111.896768 282.122254 
L 112.055368 227.990983 
L 112.531168 272.231602 
L 112.689769 268.489193 
L 113.006969 278.379845 
L 113.165569 271.296 
L 113.324169 278.379845 
L 113.64137 247.371315 
L 113.79997 248.574232 
L 113.95857 265.014099 
L 114.11717 266.350674 
L 114.27577 270.360398 
L 114.43437 253.385901 
L 114.592971 278.379845 
L 114.751571 271.296 
L 114.910171 274.236464 
L 115.227371 245.366453 
L 115.544572 284.394431 
L 115.703172 275.706696 
L 115.861772 245.50011 
L 116.178972 282.255912 
L 116.337573 197.918055 
L 116.496173 245.099138 
L 116.654773 247.772287 
L 116.813373 174.928972 
L 116.971973 273.969149 
L 117.130573 224.649547 
L 117.289174 275.706696 
L 117.447774 270.494055 
L 117.606374 282.389569 
L 117.764974 281.052994 
L 117.923574 262.87558 
L 118.082174 271.296 
L 118.240775 289.607072 
L 118.399375 250.178122 
L 118.557975 246.703028 
L 118.716575 251.915669 
L 118.875175 271.296 
L 119.033775 269.69211 
L 119.350976 283.458829 
L 119.668176 261.672663 
L 119.985376 270.494055 
L 120.302577 235.342144 
L 120.461177 270.494055 
L 120.619777 274.771094 
L 120.778377 273.434519 
L 120.936977 182.814762 
L 121.095578 257.261967 
L 121.254178 264.880442 
L 121.412778 261.672663 
L 121.571378 269.558453 
L 121.729978 251.648354 
L 121.888578 276.241326 
L 122.047179 263.811182 
L 122.364379 271.429657 
L 122.522979 274.637436 
L 122.681579 250.846409 
L 122.840179 273.568177 
L 122.99878 274.503779 
L 123.15738 274.503779 
L 123.31598 265.147757 
L 123.47458 262.608265 
L 123.63318 281.320309 
L 123.79178 251.915669 
L 123.950381 246.435713 
L 124.108981 268.221878 
L 124.267581 256.326365 
L 124.426181 253.118586 
L 124.584781 268.088221 
L 124.743381 240.955757 
L 124.901982 278.379845 
L 125.219182 249.376177 
L 125.694982 273.835492 
L 125.853583 204.734586 
L 126.012183 265.816044 
L 126.170783 256.994652 
L 126.329383 263.677525 
L 126.487983 260.603403 
L 126.646583 248.70789 
L 126.805184 264.613127 
L 126.963784 256.994652 
L 127.122384 259.667801 
L 127.280984 268.489193 
L 127.439584 287.735867 
L 127.915385 265.147757 
L 128.073985 284.661746 
L 128.391185 230.129503 
L 128.708386 271.83063 
L 128.866986 256.05905 
L 129.025586 273.835492 
L 129.342786 263.543867 
L 129.659987 275.706696 
L 129.818587 273.033547 
L 129.977187 257.261967 
L 130.135787 272.766232 
L 130.294387 271.028685 
L 130.452988 284.795403 
L 130.611588 264.47947 
L 130.770188 273.969149 
L 131.087388 254.187845 
L 131.563189 287.201238 
L 131.880389 243.094276 
L 132.038989 258.331227 
L 132.35619 236.144088 
L 132.51479 279.850077 
L 132.67339 251.514696 
L 132.83199 267.152619 
L 132.99059 260.603403 
L 133.14919 275.840354 
L 133.307791 272.89989 
L 133.466391 262.073635 
L 133.624991 264.613127 
L 133.783591 239.084552 
L 133.942191 273.167204 
L 134.100791 254.98979 
L 134.259392 280.25105 
L 134.735192 256.994652 
L 134.893792 236.411403 
L 135.052392 278.780818 
L 135.210993 268.756508 
L 135.369593 289.339757 
L 135.528193 249.242519 
L 135.686793 285.597348 
L 135.845393 286.933923 
L 136.003993 264.078497 
L 136.162594 261.138033 
L 136.321194 262.608265 
L 136.638394 269.023823 
L 136.796994 277.310586 
L 136.955594 278.11253 
L 137.114195 265.415072 
L 137.272795 277.444243 
L 137.589995 243.227934 
L 137.748595 262.474608 
L 137.907195 259.667801 
L 138.224396 277.176928 
L 138.382996 256.59368 
L 138.541596 274.236464 
L 138.700196 267.152619 
L 138.858796 283.592486 
L 139.017397 286.265635 
L 139.175997 253.653215 
L 139.334597 257.662939 
L 139.493197 278.246188 
L 139.651797 260.068773 
L 139.810397 255.52442 
L 139.968998 279.582762 
L 140.127598 276.241326 
L 140.286198 261.138033 
L 140.603398 272.632575 
L 140.761998 272.632575 
L 140.920599 273.434519 
L 141.079199 261.405348 
L 141.237799 260.603403 
L 141.396399 256.460022 
L 141.554999 266.885304 
L 141.7136 268.890166 
L 141.8722 248.975204 
L 142.0308 271.563315 
L 142.1894 273.033547 
L 142.5066 236.411403 
L 142.665201 267.687249 
L 142.823801 253.653215 
L 143.141001 276.775956 
L 143.299601 236.946033 
L 143.458201 273.568177 
L 143.775402 251.381039 
L 143.934002 267.286276 
L 144.092602 253.385901 
L 144.251202 278.780818 
L 144.409802 248.70789 
L 144.568403 244.297193 
L 144.727003 271.028685 
L 144.885603 278.513503 
L 145.044203 262.34095 
L 145.361403 256.192707 
L 145.520004 245.901083 
L 145.678604 261.539006 
L 145.837204 262.741923 
L 145.995804 258.464884 
L 146.154404 260.202431 
L 146.313004 275.706696 
L 146.471605 266.083359 
L 146.630205 276.775956 
L 146.788805 234.941171 
L 146.947405 258.464884 
L 147.264605 235.876773 
L 147.423206 275.038409 
L 147.581806 249.643492 
L 147.899006 280.117392 
L 148.057606 256.05905 
L 148.216206 250.044464 
L 148.374807 277.444243 
L 148.533407 238.950895 
L 148.692007 266.484331 
L 149.009207 275.038409 
L 149.167807 259.667801 
L 149.485008 283.325171 
L 149.643608 225.986122 
L 149.960808 255.257105 
L 150.119408 231.733392 
L 150.278009 267.820906 
L 150.436609 254.187845 
L 150.595209 275.038409 
L 150.753809 239.886497 
L 150.912409 255.123448 
L 151.071009 254.054188 
L 151.22961 288.537812 
L 151.38821 253.385901 
L 151.54681 273.434519 
L 151.70541 271.964287 
L 151.86401 279.048133 
L 152.02261 241.490387 
L 152.339811 266.885304 
L 152.498411 272.097945 
L 152.657011 265.281414 
L 152.815611 264.078497 
L 152.974211 249.242519 
L 153.132812 253.786873 
L 153.291412 278.914475 
L 153.450012 266.885304 
L 153.608612 277.845215 
L 153.767212 246.836685 
L 154.243013 276.107669 
L 154.401613 241.891359 
L 154.560213 271.964287 
L 154.718813 266.617989 
L 154.877414 287.60221 
L 155.036014 280.384707 
L 155.194614 256.994652 
L 155.511814 275.439381 
L 155.670414 260.603403 
L 155.829015 273.701834 
L 155.987615 263.276552 
L 156.146215 244.831823 
L 156.304815 266.484331 
L 156.622015 239.886497 
L 156.780616 266.083359 
L 156.939216 257.395624 
L 157.097816 258.331227 
L 157.256416 240.688442 
L 157.415016 261.405348 
L 157.573616 266.350674 
L 157.732217 250.712751 
L 157.890817 277.176928 
L 158.049417 262.073635 
L 158.208017 266.217017 
L 158.366617 266.484331 
L 158.525217 276.775956 
L 158.842418 262.87558 
L 159.159618 253.653215 
L 159.318218 280.117392 
L 159.476818 223.44663 
L 159.635419 267.018961 
L 159.952619 271.696972 
L 160.269819 243.896221 
L 160.428419 263.009238 
L 160.58702 244.430851 
L 160.74562 283.458829 
L 160.90422 277.176928 
L 161.06282 266.484331 
L 161.22142 278.914475 
L 161.38002 265.548729 
L 161.538621 275.305724 
L 161.697221 251.782011 
L 162.014421 269.825768 
L 162.173021 258.865856 
L 162.331621 259.801459 
L 162.490222 284.528088 
L 162.648822 281.320309 
L 162.807422 243.762564 
L 162.966022 263.677525 
L 163.124622 261.271691 
L 163.283222 237.747978 
L 163.600423 274.771094 
L 163.759023 252.851271 
L 163.917623 277.310586 
L 164.076223 261.004376 
L 164.234823 259.801459 
L 164.393424 247.63863 
L 164.552024 260.336088 
L 164.710624 251.247381 
L 165.027824 263.41021 
L 165.186424 212.887691 
L 165.503625 256.192707 
L 165.662225 256.727337 
L 165.820825 257.930254 
L 165.979425 261.004376 
L 166.138025 238.549923 
L 166.296626 253.653215 
L 166.455226 239.619182 
L 166.772426 259.801459 
L 166.931026 226.921724 
L 167.089627 247.905945 
L 167.248227 249.108862 
L 167.406827 228.258298 
L 167.565427 240.554785 
L 167.724027 180.408928 
L 168.041228 249.376177 
L 168.199828 224.649547 
L 168.358428 242.158674 
L 168.517028 232.40168 
L 168.675628 244.965481 
L 169.151429 222.644685 
L 169.310029 221.441768 
L 169.468629 176.265547 
L 169.627229 206.739448 
L 169.785829 192.438099 
L 169.94443 213.288663 
L 170.10303 212.887691 
L 170.26163 189.363978 
L 170.42023 205.937503 
L 170.57883 176.800177 
L 170.73743 197.517083 
L 170.896031 194.576619 
L 171.054631 174.394343 
L 171.213231 187.359116 
L 171.371831 168.647072 
L 171.847632 201.526807 
L 172.006232 170.518276 
L 172.323432 205.937503 
L 172.482032 195.779536 
L 172.640632 208.476994 
L 172.799233 233.069967 
L 173.116433 220.639823 
L 173.592233 267.152619 
L 173.750834 247.63863 
L 174.068034 244.698166 
L 174.385234 259.266829 
L 174.543834 244.029878 
L 174.861035 267.954564 
L 175.019635 267.553591 
L 175.178235 255.658077 
L 175.336835 254.98979 
L 175.495435 257.395624 
L 175.654036 267.286276 
L 175.812636 262.073635 
L 175.971236 261.80632 
L 176.129836 275.974011 
L 176.288436 259.133171 
L 176.447036 280.919337 
L 176.605637 272.632575 
L 176.764237 252.583956 
L 176.922837 252.984928 
L 177.081437 230.664133 
L 177.240037 258.865856 
L 177.398637 250.980066 
L 177.557238 253.92053 
L 177.715838 249.643492 
L 177.874438 250.846409 
L 178.033038 265.281414 
L 178.191638 261.539006 
L 178.350238 268.355536 
L 178.667439 251.113724 
L 178.826039 256.59368 
L 179.143239 252.316641 
L 179.301839 277.711558 
L 179.46044 260.469746 
L 179.77764 281.854939 
L 179.93624 285.99832 
L 180.09484 264.746785 
L 180.253441 265.816044 
L 180.570641 248.306917 
L 180.729241 247.504972 
L 180.887841 278.246188 
L 181.046441 256.326365 
L 181.205042 266.885304 
L 181.363642 245.366453 
L 181.522242 267.954564 
L 181.680842 261.271691 
L 181.839442 265.816044 
L 181.998042 260.737061 
L 182.315243 264.746785 
L 182.632443 228.391956 
L 182.791043 282.255912 
L 182.949643 252.583956 
L 183.108244 270.22674 
L 183.266844 253.786873 
L 183.584044 283.859801 
L 183.742644 268.890166 
L 183.901244 283.458829 
L 184.059845 253.653215 
L 184.377045 262.073635 
L 184.535645 262.34095 
L 184.694245 258.732199 
L 184.852845 246.703028 
L 185.170046 278.780818 
L 185.487246 258.197569 
L 185.645846 269.291138 
L 185.804446 237.347006 
L 186.121647 272.36526 
L 186.280247 269.558453 
L 186.438847 272.36526 
L 186.597447 250.980066 
L 186.756047 259.667801 
L 186.914648 259.400486 
L 187.073248 266.350674 
L 187.231848 238.549923 
L 187.549048 271.83063 
L 187.707648 280.117392 
L 187.866249 264.880442 
L 188.024849 275.305724 
L 188.183449 254.588818 
L 188.342049 285.731006 
L 188.500649 265.014099 
L 188.659249 271.162343 
L 188.81785 245.366453 
L 188.97645 263.142895 
L 189.13505 268.355536 
L 189.45225 249.509834 
L 189.61085 283.726144 
L 189.769451 251.381039 
L 190.086651 269.69211 
L 190.245251 254.588818 
L 190.403851 263.142895 
L 190.562451 263.142895 
L 190.721052 246.970343 
L 190.879652 272.632575 
L 191.355452 243.628906 
L 191.514052 252.717613 
L 191.672653 254.98979 
L 191.831253 270.895028 
L 191.989853 260.870718 
L 192.307053 276.909613 
L 192.465654 273.701834 
L 192.624254 262.474608 
L 192.782854 232.936309 
L 192.941454 273.167204 
L 193.100054 273.835492 
L 193.417255 257.662939 
L 193.575855 275.439381 
L 193.734455 270.627713 
L 193.893055 251.648354 
L 194.051655 267.687249 
L 194.210255 252.851271 
L 194.368856 272.36526 
L 194.686056 259.534144 
L 194.844656 256.860994 
L 195.003256 250.980066 
L 195.161856 265.147757 
L 195.479057 245.901083 
L 195.796257 265.281414 
L 195.954857 261.80632 
L 196.272058 279.983735 
L 196.430658 242.693304 
L 196.747858 275.706696 
L 196.906458 257.128309 
L 197.065058 267.553591 
L 197.382259 250.846409 
L 197.540859 266.217017 
L 197.699459 257.662939 
L 197.858059 270.22674 
L 198.016659 256.05905 
L 198.17526 284.661746 
L 198.33386 192.972729 
L 198.49246 273.701834 
L 198.65106 252.182983 
L 198.80966 254.45516 
L 198.96826 272.231602 
L 199.126861 271.296 
L 199.285461 271.83063 
L 199.444061 252.717613 
L 199.602661 247.504972 
L 199.761261 251.514696 
L 199.919861 278.914475 
L 200.078462 275.038409 
L 200.237062 262.608265 
L 200.395662 262.207293 
L 200.554262 256.192707 
L 200.712862 264.880442 
L 200.871462 243.896221 
L 201.030063 251.648354 
L 201.188663 270.093083 
L 201.347263 228.926586 
L 201.505863 264.613127 
L 201.664463 266.617989 
L 201.823063 273.434519 
L 201.981664 273.300862 
L 202.140264 280.25105 
L 202.298864 256.05905 
L 202.457464 260.202431 
L 202.616064 268.890166 
L 202.774664 262.34095 
L 202.933265 263.94484 
L 203.091865 249.242519 
L 203.250465 212.353061 
L 203.409065 257.796597 
L 203.567665 243.628906 
L 203.726265 277.978873 
L 203.884866 275.974011 
L 204.202066 255.658077 
L 204.360666 263.142895 
L 204.519266 276.775956 
L 204.677867 259.667801 
L 204.836467 266.350674 
L 204.995067 263.543867 
L 205.312267 276.508641 
L 205.470867 269.291138 
L 205.629468 278.914475 
L 205.788068 268.088221 
L 205.946668 230.931448 
L 206.263868 290.542674 
L 206.422468 249.242519 
L 206.581069 258.732199 
L 206.739669 284.394431 
L 206.898269 278.11253 
L 207.056869 255.123448 
L 207.215469 255.123448 
L 207.374069 256.860994 
L 207.53267 288.67147 
L 207.69127 229.327558 
L 207.84987 267.286276 
L 208.00847 242.025017 
L 208.32567 274.637436 
L 208.484271 252.450298 
L 208.642871 263.276552 
L 208.801471 265.415072 
L 208.960071 258.464884 
L 209.118671 262.608265 
L 209.277271 252.316641 
L 209.435872 269.424796 
L 209.594472 263.41021 
L 209.753072 275.038409 
L 209.911672 256.727337 
L 210.070272 259.133171 
L 210.228872 280.78568 
L 210.387473 274.637436 
L 210.546073 256.192707 
L 210.704673 252.450298 
L 210.863273 268.622851 
L 211.180473 254.45516 
L 211.339074 263.142895 
L 211.497674 279.048133 
L 211.656274 281.186652 
L 211.814874 249.509834 
L 211.973474 267.687249 
L 212.132074 267.687249 
L 212.290675 260.870718 
L 212.449275 268.355536 
L 212.607875 266.885304 
L 212.766475 257.796597 
L 212.925075 268.489193 
L 213.083675 252.717613 
L 213.242276 264.078497 
L 213.559476 249.108862 
L 213.718076 276.775956 
L 213.876676 274.503779 
L 214.035276 256.192707 
L 214.193877 259.667801 
L 214.352477 258.063912 
L 214.511077 253.385901 
L 214.669677 276.107669 
L 214.828277 263.677525 
L 214.986877 271.83063 
L 215.145478 273.300862 
L 215.304078 261.138033 
L 215.462678 257.529282 
L 215.621278 250.846409 
L 215.779878 268.221878 
L 215.938478 269.023823 
L 216.097079 258.464884 
L 216.255679 261.405348 
L 216.414279 269.424796 
L 216.572879 285.597348 
L 216.731479 252.984928 
L 216.890079 281.587624 
L 217.04868 254.856133 
L 217.20728 255.52442 
L 217.36588 259.266829 
L 217.52448 268.221878 
L 217.68308 263.811182 
L 217.841681 246.03474 
L 218.000281 271.429657 
L 218.158881 276.241326 
L 218.317481 252.450298 
L 218.476081 268.355536 
L 218.634681 270.627713 
L 218.793282 279.582762 
L 218.951882 260.202431 
L 219.110482 262.34095 
L 219.269082 281.453967 
L 219.427682 248.440575 
L 219.586282 278.246188 
L 219.744883 246.970343 
L 220.062083 285.196376 
L 220.379283 242.158674 
L 220.537883 245.099138 
L 220.855084 278.379845 
L 221.013684 253.653215 
L 221.172284 266.617989 
L 221.330884 246.56937 
L 221.648085 265.014099 
L 221.806685 264.078497 
L 221.965285 276.508641 
L 222.123885 253.118586 
L 222.282485 256.326365 
L 222.441085 205.937503 
L 222.599686 267.152619 
L 222.758286 271.964287 
L 222.916886 224.51589 
L 223.075486 261.672663 
L 223.234086 263.41021 
L 223.392686 242.693304 
L 223.551287 255.52442 
L 223.709887 252.182983 
L 223.868487 252.316641 
L 224.027087 277.043271 
L 224.185687 238.950895 
L 224.661488 275.172066 
L 224.820088 268.890166 
L 224.978688 278.11253 
L 225.137288 243.495249 
L 225.295888 279.449105 
L 225.613089 253.519558 
L 225.771689 256.994652 
L 225.930289 276.775956 
L 226.088889 272.097945 
L 226.247489 274.637436 
L 226.40609 282.790541 
L 226.56469 237.347006 
L 226.88189 275.439381 
L 227.04049 279.71642 
L 227.357691 251.915669 
L 227.516291 252.717613 
L 227.674891 267.018961 
L 227.833491 245.099138 
L 227.992091 257.796597 
L 228.150691 257.662939 
L 228.309292 225.718807 
L 228.626492 278.379845 
L 228.785092 255.658077 
L 228.943692 253.653215 
L 229.102292 250.178122 
L 229.260893 276.909613 
L 229.419493 249.376177 
L 229.578093 249.108862 
L 229.736693 272.89989 
L 229.895293 270.22674 
L 230.053894 232.535337 
L 230.212494 265.682387 
L 230.371094 245.901083 
L 230.529694 250.579094 
L 230.846894 287.869525 
L 231.005495 263.94484 
L 231.164095 281.988597 
L 231.322695 264.613127 
L 231.481295 270.494055 
L 231.639895 266.751646 
L 231.798495 269.424796 
L 231.957096 259.400486 
L 232.115696 238.282608 
L 232.432896 278.379845 
L 232.591496 275.038409 
L 232.750096 230.129503 
L 232.908697 269.157481 
L 233.067297 241.089414 
L 233.384497 270.093083 
L 233.543097 284.929061 
L 233.701697 247.237657 
L 233.860298 275.706696 
L 234.177498 268.489193 
L 234.336098 234.941171 
L 234.653298 278.513503 
L 234.811899 265.548729 
L 234.970499 267.152619 
L 235.129099 260.737061 
L 235.287699 268.622851 
L 235.446299 264.746785 
L 235.604899 277.310586 
L 235.7635 256.860994 
L 235.9221 267.286276 
L 236.0807 268.355536 
L 236.2393 224.382232 
L 236.5565 272.632575 
L 236.873701 253.92053 
L 237.032301 278.914475 
L 237.190901 244.297193 
L 237.349501 267.018961 
L 237.508101 250.311779 
L 237.666702 245.366453 
L 237.825302 256.05905 
L 237.983902 53.568 
L 238.142502 278.246188 
L 238.301102 271.296 
L 238.459702 277.444243 
L 238.618303 255.52442 
L 238.776903 274.637436 
L 238.935503 247.504972 
L 239.094103 268.890166 
L 239.252703 262.87558 
L 239.411303 271.964287 
L 239.569904 259.133171 
L 239.728504 267.954564 
L 239.887104 268.756508 
L 240.045704 275.305724 
L 240.204304 238.14895 
L 240.362904 254.98979 
L 240.680105 233.871912 
L 240.838705 264.078497 
L 240.997305 257.930254 
L 241.155905 276.909613 
L 241.314505 263.94484 
L 241.473106 273.167204 
L 241.631706 241.624044 
L 241.790306 259.266829 
L 241.948906 260.737061 
L 242.107506 270.360398 
L 242.424707 228.926586 
L 242.583307 274.236464 
L 242.741907 229.594873 
L 242.900507 273.167204 
L 243.059107 251.782011 
L 243.217708 277.310586 
L 243.376308 273.701834 
L 243.534908 239.886497 
L 243.693508 275.439381 
L 243.852108 258.999514 
L 244.010708 258.464884 
L 244.169309 250.846409 
L 244.327909 266.083359 
L 244.486509 267.687249 
L 244.645109 258.999514 
L 244.803709 273.969149 
L 245.27951 267.553591 
L 245.59671 241.624044 
L 245.75531 263.276552 
L 245.91391 259.400486 
L 246.072511 274.102807 
L 246.231111 243.762564 
L 246.389711 279.18179 
L 246.865511 246.836685 
L 247.024112 273.568177 
L 247.341312 265.682387 
L 247.499912 267.286276 
L 247.658512 260.469746 
L 247.817112 280.919337 
L 247.975713 253.118586 
L 248.134313 283.859801 
L 248.292913 246.435713 
L 248.451513 263.94484 
L 248.610113 258.865856 
L 248.768713 264.880442 
L 248.927314 264.212155 
L 249.085914 267.820906 
L 249.244514 267.286276 
L 249.403114 264.613127 
L 249.561714 235.609459 
L 249.720314 252.316641 
L 249.878915 282.523227 
L 250.037515 277.711558 
L 250.196115 229.862188 
L 250.354715 262.87558 
L 250.513315 266.751646 
L 250.671915 279.449105 
L 250.989116 250.980066 
L 251.147716 264.880442 
L 251.306316 255.658077 
L 251.623516 257.529282 
L 251.782117 262.207293 
L 251.940717 255.257105 
L 252.099317 276.374983 
L 252.257917 267.152619 
L 252.416517 235.876773 
L 252.575117 281.320309 
L 252.733718 248.975204 
L 252.892318 257.662939 
L 253.050918 275.439381 
L 253.209518 242.960619 
L 253.526718 272.36526 
L 253.685319 253.92053 
L 254.002519 282.656884 
L 254.161119 255.791735 
L 254.319719 254.588818 
L 254.478319 274.236464 
L 254.63692 248.70789 
L 254.95412 271.563315 
L 255.11272 272.632575 
L 255.27132 272.498917 
L 255.429921 276.642298 
L 255.747121 242.693304 
L 255.905721 280.919337 
L 256.064321 263.811182 
L 256.222921 265.816044 
L 256.381522 263.543867 
L 256.540122 289.874387 
L 256.698722 275.305724 
L 256.857322 242.292331 
L 257.015922 243.896221 
L 257.333123 283.191514 
L 257.491723 267.152619 
L 257.650323 269.291138 
L 257.808923 251.648354 
L 257.967523 283.726144 
L 258.126123 266.484331 
L 258.284724 236.144088 
L 258.443324 265.682387 
L 258.601924 268.088221 
L 258.760524 268.221878 
L 258.919124 270.360398 
L 259.077724 295.488 
L 259.236325 275.573039 
L 259.394925 277.577901 
L 259.553525 255.658077 
L 259.712125 251.381039 
L 260.029325 274.370122 
L 260.187926 270.22674 
L 260.346526 259.534144 
L 260.505126 269.291138 
L 260.663726 209.813569 
L 260.822326 280.919337 
L 260.980926 261.80632 
L 261.139527 257.930254 
L 261.298127 266.083359 
L 261.456727 261.271691 
L 261.615327 274.771094 
L 261.773927 233.337282 
L 261.932527 273.434519 
L 262.091128 273.568177 
L 262.249728 272.89989 
L 262.408328 259.133171 
L 262.566928 274.904751 
L 262.725528 278.513503 
L 262.884128 275.439381 
L 263.042729 207.274077 
L 263.201329 282.389569 
L 263.518529 244.564508 
L 263.677129 258.732199 
L 263.835729 240.28747 
L 264.31153 280.117392 
L 264.47013 272.766232 
L 264.62873 288.003182 
L 264.945931 259.935116 
L 265.263131 271.028685 
L 265.421731 236.411403 
L 265.738931 265.147757 
L 265.897532 266.885304 
L 266.056132 247.772287 
L 266.214732 269.69211 
L 266.373332 271.696972 
L 266.531932 249.108862 
L 266.690532 279.18179 
L 266.849133 217.966674 
L 267.007733 276.909613 
L 267.166333 247.104 
L 267.324933 280.25105 
L 267.483533 269.023823 
L 267.642133 275.840354 
L 267.959334 245.366453 
L 268.117934 249.242519 
L 268.276534 226.253436 
L 268.593735 269.023823 
L 268.752335 263.94484 
L 268.910935 281.320309 
L 269.069535 257.796597 
L 269.228135 264.345812 
L 269.386735 234.272884 
L 269.545336 260.870718 
L 269.703936 260.336088 
L 269.862536 247.104 
L 270.021136 254.187845 
L 270.179736 236.678718 
L 270.338336 266.217017 
L 270.814137 272.766232 
L 271.131337 261.004376 
L 271.289937 274.370122 
L 271.448538 272.231602 
L 271.607138 258.732199 
L 271.765738 272.498917 
L 272.082938 250.445436 
L 272.241538 274.370122 
L 272.400139 264.746785 
L 272.717339 272.89989 
L 272.875939 273.300862 
L 273.193139 264.078497 
L 273.35174 272.89989 
L 273.51034 250.445436 
L 273.66894 268.355536 
L 273.82754 252.984928 
L 273.98614 250.579094 
L 274.14474 280.919337 
L 274.303341 281.320309 
L 274.461941 246.836685 
L 274.779141 271.696972 
L 274.937741 248.574232 
L 275.254942 277.845215 
L 275.413542 249.509834 
L 275.572142 271.83063 
L 275.730742 251.247381 
L 275.889342 279.850077 
L 276.047942 260.603403 
L 276.206543 268.221878 
L 276.365143 258.197569 
L 276.682343 281.453967 
L 276.999543 263.009238 
L 277.158144 269.424796 
L 277.316744 268.221878 
L 277.475344 262.87558 
L 277.633944 233.337282 
L 277.792544 263.142895 
L 277.951144 268.489193 
L 278.109745 279.582762 
L 278.268345 237.61432 
L 278.426945 250.846409 
L 278.585545 280.25105 
L 278.744145 267.954564 
L 278.902745 275.038409 
L 279.061346 236.144088 
L 279.219946 272.498917 
L 279.378546 279.048133 
L 279.537146 238.015293 
L 279.695746 265.682387 
L 279.854346 271.563315 
L 280.012947 271.162343 
L 280.171547 261.271691 
L 280.330147 241.089414 
L 280.647347 279.850077 
L 280.805948 278.246188 
L 280.964548 250.311779 
L 281.123148 264.345812 
L 281.281748 264.746785 
L 281.598948 240.28747 
L 281.916149 269.291138 
L 282.074749 248.70789 
L 282.391949 269.291138 
L 282.550549 280.919337 
L 282.70915 248.841547 
L 282.86775 268.489193 
L 283.02635 268.489193 
L 283.18495 277.845215 
L 283.34355 259.801459 
L 283.50215 260.737061 
L 283.660751 273.033547 
L 283.977951 254.187845 
L 284.136551 276.909613 
L 284.295151 236.812376 
L 284.453751 271.563315 
L 284.612352 272.766232 
L 284.929552 258.598541 
L 285.088152 272.89989 
L 285.405352 279.18179 
L 285.563953 266.885304 
L 285.722553 278.246188 
L 285.881153 279.850077 
L 286.039753 286.933923 
L 286.198353 270.22674 
L 286.356953 268.890166 
L 286.515554 251.782011 
L 286.674154 272.097945 
L 286.832754 268.622851 
L 286.991354 242.158674 
L 287.149954 262.34095 
L 287.308554 235.609459 
L 287.467155 252.049326 
L 287.625755 254.856133 
L 287.784355 244.965481 
L 287.942955 251.648354 
L 288.101555 240.822099 
L 288.260155 251.247381 
L 288.418756 273.568177 
L 288.577356 259.935116 
L 288.735956 257.128309 
L 288.894556 219.570564 
L 289.053156 254.856133 
L 289.211756 263.811182 
L 289.370357 260.336088 
L 289.528957 261.939978 
L 289.687557 270.494055 
L 289.846157 256.860994 
L 290.163357 272.097945 
L 290.480558 244.564508 
L 290.797758 278.11253 
L 290.956358 254.588818 
L 291.114958 275.706696 
L 291.273559 275.573039 
L 291.432159 269.424796 
L 291.590759 275.038409 
L 291.907959 248.841547 
L 292.066559 286.800265 
L 292.22516 269.558453 
L 292.38376 279.71642 
L 292.54236 224.51589 
L 292.70096 263.276552 
L 292.85956 266.885304 
L 293.018161 259.534144 
L 293.176761 265.281414 
L 293.335361 261.004376 
L 293.493961 278.513503 
L 293.969762 251.915669 
L 294.286962 274.637436 
L 294.445562 240.28747 
L 294.604162 267.018961 
L 294.762762 252.450298 
L 294.921363 274.370122 
L 295.079963 229.461215 
L 295.238563 237.079691 
L 295.397163 265.816044 
L 295.555763 250.178122 
L 295.714363 274.370122 
L 296.031564 259.935116 
L 296.190164 261.539006 
L 296.348764 267.820906 
L 296.665964 249.910807 
L 296.824565 258.732199 
L 297.141765 247.504972 
L 297.300365 285.731006 
L 297.458965 251.381039 
L 297.617565 245.767425 
L 297.776166 235.475801 
L 298.093366 272.632575 
L 298.251966 234.272884 
L 298.410566 259.667801 
L 298.569166 259.133171 
L 298.727767 259.400486 
L 298.886367 219.436906 
L 299.044967 271.296 
L 299.203567 248.17326 
L 299.362167 243.896221 
L 299.837968 272.766232 
L 299.996568 238.416265 
L 300.313768 283.325171 
L 300.472368 274.236464 
L 300.630969 281.320309 
L 300.948169 236.144088 
L 301.106769 280.78568 
L 301.265369 245.901083 
L 301.423969 244.297193 
L 301.58257 267.820906 
L 301.74117 265.816044 
L 301.89977 251.113724 
L 302.05837 266.751646 
L 302.21697 253.385901 
L 302.37557 277.845215 
L 302.534171 271.028685 
L 302.692771 248.70789 
L 302.851371 249.242519 
L 303.009971 247.371315 
L 303.327171 279.582762 
L 303.485772 270.22674 
L 303.644372 284.260773 
L 303.802972 230.129503 
L 304.120172 281.186652 
L 304.278772 250.712751 
L 304.595973 272.89989 
L 304.754573 256.860994 
L 305.071773 278.11253 
L 305.388974 261.004376 
L 305.547574 283.993459 
L 305.706174 269.023823 
L 305.864774 275.573039 
L 306.023374 261.80632 
L 306.181975 266.751646 
L 306.340575 254.588818 
L 306.499175 251.915669 
L 306.657775 263.142895 
L 306.816375 251.915669 
L 306.974975 270.895028 
L 307.133576 272.632575 
L 307.450776 250.579094 
L 307.767976 273.568177 
L 307.926576 249.376177 
L 308.085177 262.87558 
L 308.243777 254.588818 
L 308.402377 260.202431 
L 308.560977 257.529282 
L 308.719577 238.14895 
L 308.878177 265.147757 
L 309.195378 262.073635 
L 309.353978 230.931448 
L 309.512578 268.088221 
L 309.671178 248.70789 
L 309.829778 253.252243 
L 309.988379 252.717613 
L 310.146979 273.969149 
L 310.305579 259.400486 
L 310.464179 278.513503 
L 310.781379 259.133171 
L 310.93998 193.641017 
L 311.09858 267.286276 
L 311.25718 264.613127 
L 311.41578 286.666608 
L 311.73298 228.391956 
L 311.891581 269.157481 
L 312.050181 279.850077 
L 312.367381 244.831823 
L 312.525981 265.949702 
L 312.684581 265.281414 
L 312.843182 225.585149 
L 313.001782 263.94484 
L 313.160382 268.088221 
L 313.318982 276.642298 
L 313.477582 256.326365 
L 313.636182 282.389569 
L 314.270583 248.841547 
L 314.429183 246.703028 
L 314.587783 263.543867 
L 314.746384 265.014099 
L 314.904984 223.045657 
L 315.222184 254.054188 
L 315.380784 267.152619 
L 315.539384 245.099138 
L 315.697985 245.767425 
L 315.856585 255.390762 
L 316.015185 249.242519 
L 316.173785 236.144088 
L 316.490985 285.864663 
L 316.649586 265.014099 
L 316.808186 273.969149 
L 316.966786 234.941171 
L 317.283986 268.088221 
L 317.442586 274.236464 
L 317.601187 269.157481 
L 317.759787 269.424796 
L 317.918387 264.345812 
L 318.076987 263.677525 
L 318.235587 260.870718 
L 318.394188 268.756508 
L 318.552788 267.152619 
L 318.869988 245.50011 
L 319.028588 266.617989 
L 319.187188 242.025017 
L 319.504389 270.76137 
L 319.662989 238.549923 
L 319.821589 244.965481 
L 319.980189 245.901083 
L 320.138789 275.305724 
L 320.29739 252.717613 
L 320.45599 247.237657 
L 320.61459 249.242519 
L 320.93179 275.840354 
L 321.09039 274.637436 
L 321.248991 285.731006 
L 321.566191 245.366453 
L 321.724791 247.237657 
L 321.883391 268.489193 
L 322.041991 249.643492 
L 322.359192 274.637436 
L 322.676392 259.534144 
L 322.834992 274.771094 
L 322.993592 272.89989 
L 323.152193 251.247381 
L 323.310793 258.197569 
L 323.469393 257.128309 
L 323.627993 265.949702 
L 323.786593 255.791735 
L 323.945193 274.503779 
L 324.103794 241.624044 
L 324.262394 260.737061 
L 324.420994 225.317834 
L 324.579594 270.627713 
L 324.896794 262.34095 
L 325.055395 272.766232 
L 325.213995 244.430851 
L 325.372595 272.097945 
L 325.531195 270.494055 
L 325.689795 257.529282 
L 325.848395 232.936309 
L 326.006996 272.766232 
L 326.165596 258.197569 
L 326.324196 274.236464 
L 326.482796 274.637436 
L 326.641396 265.281414 
L 326.799996 272.89989 
L 326.958597 249.643492 
L 327.117197 266.617989 
L 327.275797 267.018961 
L 327.434397 243.361591 
L 327.592997 246.703028 
L 327.751597 234.406541 
L 327.910198 266.617989 
L 328.068798 244.698166 
L 328.227398 263.543867 
L 328.385998 254.054188 
L 328.544598 233.604597 
L 328.703198 258.865856 
L 328.861799 262.474608 
L 329.020399 269.959425 
L 329.178999 267.553591 
L 329.337599 230.396818 
L 329.496199 276.775956 
L 329.654799 243.361591 
L 329.8134 273.568177 
L 329.972 263.677525 
L 330.1306 269.558453 
L 330.2892 270.494055 
L 330.4478 250.445436 
L 330.6064 275.172066 
L 330.765001 257.930254 
L 330.923601 260.202431 
L 331.082201 277.711558 
L 331.240801 248.306917 
L 331.399401 279.850077 
L 331.558002 242.425989 
L 331.716602 271.964287 
L 332.033802 262.474608 
L 332.192402 260.870718 
L 332.351002 269.157481 
L 332.509603 241.089414 
L 332.826803 274.904751 
L 332.985403 258.732199 
L 333.144003 264.212155 
L 333.302603 283.325171 
L 333.461204 251.648354 
L 333.619804 256.994652 
L 333.778404 250.846409 
L 333.937004 272.36526 
L 334.254204 273.568177 
L 334.412805 272.89989 
L 334.571405 254.98979 
L 334.730005 283.458829 
L 334.888605 239.886497 
L 335.047205 251.782011 
L 335.205805 239.21821 
L 335.364406 261.939978 
L 335.523006 252.717613 
L 335.681606 267.820906 
L 335.840206 267.820906 
L 335.998806 263.811182 
L 336.157406 276.374983 
L 336.316007 266.484331 
L 336.474607 265.281414 
L 336.633207 261.405348 
L 336.791807 274.102807 
L 337.109007 255.925392 
L 337.267608 259.133171 
L 337.584808 285.597348 
L 337.902008 239.084552 
L 338.060608 256.326365 
L 338.219209 228.124641 
L 338.536409 272.89989 
L 338.695009 255.390762 
L 338.853609 280.25105 
L 339.012209 267.018961 
L 339.17081 273.167204 
L 339.32941 252.583956 
L 339.64661 260.870718 
L 339.96381 237.213348 
L 340.122411 255.925392 
L 340.281011 246.168398 
L 340.439611 248.70789 
L 340.598211 279.850077 
L 340.756811 255.52442 
L 340.915411 254.054188 
L 341.074012 274.370122 
L 341.232612 250.980066 
L 341.391212 271.296 
L 341.549812 252.851271 
L 341.708412 263.543867 
L 341.867012 250.846409 
L 342.025613 258.732199 
L 342.184213 257.930254 
L 342.342813 236.277746 
L 342.501413 265.415072 
L 342.818613 246.435713 
L 342.977214 253.519558 
L 343.135814 241.490387 
L 343.453014 251.648354 
L 343.611614 231.198762 
L 343.928815 258.197569 
L 344.087415 241.891359 
L 344.246015 268.489193 
L 344.404615 263.543867 
L 344.563215 264.078497 
L 344.721816 224.916862 
L 344.880416 266.350674 
L 345.039016 269.825768 
L 345.197616 265.415072 
L 345.514816 246.703028 
L 345.673417 277.043271 
L 346.149217 249.108862 
L 346.307817 247.371315 
L 346.625018 271.296 
L 346.783618 271.83063 
L 346.942218 261.939978 
L 347.100818 272.231602 
L 347.259418 253.118586 
L 347.418018 254.054188 
L 347.576619 277.176928 
L 347.735219 263.543867 
L 347.893819 227.723669 
L 348.052419 266.751646 
L 348.369619 238.416265 
L 348.52822 262.608265 
L 348.68682 265.816044 
L 349.00402 233.604597 
L 349.16262 240.020155 
L 349.479821 262.073635 
L 349.638421 270.360398 
L 349.955621 245.767425 
L 350.114221 262.073635 
L 350.272821 244.163536 
L 350.590022 274.503779 
L 350.907222 245.50011 
L 351.065822 284.929061 
L 351.224422 267.687249 
L 351.383023 278.379845 
L 351.858823 236.144088 
L 352.017423 240.554785 
L 352.334624 266.350674 
L 352.493224 233.738254 
L 352.651824 252.316641 
L 352.969024 251.915669 
L 353.127624 268.221878 
L 353.444825 222.110055 
L 353.920625 272.89989 
L 354.079225 265.816044 
L 354.237826 267.553591 
L 354.555026 246.302055 
L 354.713626 273.167204 
L 355.030826 225.050519 
L 355.348027 265.682387 
L 355.506627 270.22674 
L 355.665227 237.347006 
L 355.823827 257.930254 
L 355.982427 261.672663 
L 356.141028 269.424796 
L 356.299628 268.221878 
L 356.458228 249.108862 
L 356.616828 272.766232 
L 356.775428 258.865856 
L 356.934029 259.266829 
L 357.092629 247.371315 
L 357.251229 249.509834 
L 357.409829 279.315448 
L 357.568429 243.227934 
L 357.727029 243.762564 
L 357.88563 256.326365 
L 358.04423 258.331227 
L 358.20283 274.236464 
L 358.36143 266.350674 
L 358.52003 264.880442 
L 358.67863 257.930254 
L 358.837231 265.014099 
L 358.995831 259.266829 
L 359.154431 265.014099 
L 359.313031 264.345812 
L 359.471631 252.717613 
L 359.630231 263.276552 
L 359.947432 264.613127 
L 360.106032 274.904751 
L 360.264632 250.445436 
L 360.423232 267.954564 
L 360.581832 258.464884 
L 360.740433 267.687249 
L 360.899033 230.396818 
L 361.057633 276.642298 
L 361.216233 212.486718 
L 361.374833 249.910807 
L 361.533433 246.435713 
L 361.692034 264.212155 
L 362.009234 231.065105 
L 362.326434 261.138033 
L 362.485034 255.925392 
L 362.643635 258.197569 
L 362.802235 271.83063 
L 363.119435 249.376177 
L 363.278035 225.852464 
L 363.595236 252.049326 
L 363.753836 233.069967 
L 364.071036 268.355536 
L 364.388236 243.094276 
L 364.546837 263.276552 
L 364.705437 250.311779 
L 364.864037 255.658077 
L 365.022637 266.484331 
L 365.339837 242.025017 
L 365.498438 249.910807 
L 365.815638 244.297193 
L 365.974238 245.633768 
L 366.132838 262.87558 
L 366.291438 217.164729 
L 366.450039 249.910807 
L 366.767239 240.153812 
L 366.925839 271.83063 
L 367.40164 229.327558 
L 367.56024 262.474608 
L 367.71884 259.133171 
L 367.87744 244.564508 
L 368.03604 244.297193 
L 368.511841 274.637436 
L 368.670441 264.880442 
L 368.829041 265.682387 
L 368.987641 236.678718 
L 369.146242 245.767425 
L 369.304842 264.746785 
L 369.463442 236.144088 
L 369.780642 267.152619 
L 369.939242 262.474608 
L 370.097843 232.40168 
L 370.256443 256.192707 
L 370.415043 257.796597 
L 370.573643 266.083359 
L 370.732243 248.70789 
L 370.890843 264.212155 
L 371.049444 266.484331 
L 371.208044 241.757702 
L 371.366644 257.395624 
L 371.683844 235.208486 
L 371.842444 261.271691 
L 372.001045 238.950895 
L 372.318245 257.930254 
L 372.476845 260.202431 
L 372.635445 251.247381 
L 372.794045 254.45516 
L 372.952646 261.004376 
L 373.111246 235.208486 
L 373.269846 272.89989 
L 373.428446 270.22674 
L 373.587046 271.964287 
L 373.904247 236.812376 
L 374.221447 257.395624 
L 374.380047 228.391956 
L 374.538647 238.282608 
L 374.697247 259.133171 
L 374.855848 246.435713 
L 375.014448 256.727337 
L 375.173048 257.395624 
L 375.331648 247.504972 
L 375.490248 255.257105 
L 375.648848 280.117392 
L 375.807449 243.361591 
L 375.966049 266.484331 
L 376.124649 259.935116 
L 376.283249 246.836685 
L 376.600449 252.450298 
L 376.75905 257.261967 
L 377.07625 233.604597 
L 377.23485 255.791735 
L 377.39345 253.786873 
L 377.55205 263.543867 
L 377.710651 241.089414 
L 377.869251 253.519558 
L 378.027851 249.509834 
L 378.186451 251.514696 
L 378.345051 250.712751 
L 378.503651 233.337282 
L 378.662252 260.469746 
L 378.820852 252.851271 
L 378.979452 260.202431 
L 379.138052 239.084552 
L 379.296652 255.925392 
L 379.455252 260.202431 
L 379.613853 217.833017 
L 379.931053 258.197569 
L 380.089653 250.178122 
L 380.248253 266.885304 
L 380.406853 249.509834 
L 380.565454 246.03474 
L 380.724054 238.015293 
L 380.882654 256.460022 
L 381.041254 229.327558 
L 381.199854 246.168398 
L 381.517055 226.520751 
L 381.675655 243.896221 
L 381.834255 243.762564 
L 381.992855 257.128309 
L 382.310056 229.862188 
L 382.468656 246.970343 
L 382.627256 246.435713 
L 382.785856 228.124641 
L 382.944456 246.56937 
L 383.103056 210.481856 
L 383.261657 241.891359 
L 383.420257 237.881635 
L 383.578857 253.385901 
L 383.737457 254.321503 
L 383.896057 249.509834 
L 384.054657 227.590011 
L 384.213258 232.134365 
L 384.530458 249.108862 
L 384.689058 238.015293 
L 384.847658 190.032265 
L 385.006258 242.960619 
L 385.164859 207.274077 
L 385.323459 245.767425 
L 385.482059 252.984928 
L 385.799259 228.659271 
L 385.957859 230.396818 
L 386.11646 243.227934 
L 386.43366 234.406541 
L 386.59226 234.139227 
L 386.75086 231.466077 
L 386.90946 242.025017 
L 387.068061 233.470939 
L 387.226661 239.485525 
L 387.385261 222.511028 
L 387.543861 240.153812 
L 387.702461 241.891359 
L 387.861061 222.912 
L 388.019662 253.786873 
L 388.178262 231.198762 
L 388.336862 238.282608 
L 388.495462 237.480663 
L 388.654062 232.268022 
L 388.812662 238.549923 
L 388.971263 224.248575 
L 389.129863 224.114917 
L 389.288463 230.530475 
L 389.447063 215.159867 
L 389.605663 241.223072 
L 389.764263 221.575425 
L 389.922864 224.51589 
L 390.081464 217.699359 
L 390.240064 245.099138 
L 390.398664 199.922917 
L 390.557264 223.045657 
L 390.715864 222.644685 
L 390.874465 216.362785 
L 391.033065 218.100331 
L 391.191665 208.610652 
L 391.350265 228.659271 
L 391.508865 175.329945 
L 391.667465 195.645878 
L 391.826066 231.198762 
L 391.984666 221.575425 
L 392.143266 224.51589 
L 392.301866 204.467271 
L 392.460466 237.213348 
L 392.619066 204.734586 
L 392.777667 218.634961 
L 392.936267 210.214541 
L 393.094867 225.718807 
L 393.253467 215.02621 
L 393.412067 186.824486 
L 393.570667 213.95695 
L 393.729268 213.823293 
L 393.887868 193.240044 
L 394.046468 218.902276 
L 394.205068 210.481856 
L 394.363668 208.610652 
L 394.522269 192.438099 
L 394.680869 204.600928 
L 394.839469 201.927779 
L 394.998069 211.417459 
L 395.156669 203.398011 
L 395.315269 173.99337 
L 395.47387 198.051713 
L 395.63247 185.220597 
L 395.79107 206.07116 
L 396.10827 182.681105 
L 396.26687 171.721193 
L 396.425471 211.818431 
L 396.742671 166.64221 
L 396.901271 193.373702 
L 397.059871 145.925304 
L 397.218471 182.012818 
L 397.377072 181.478188 
L 397.535672 152.741834 
L 397.694272 169.181702 
L 397.852872 136.569282 
L 398.011472 149.400398 
L 398.170072 150.603315 
L 398.328673 129.485436 
L 398.487273 150.87063 
L 398.487273 150.87063 
" style="fill:none;stroke:#1f77b4;stroke-linecap:square;stroke-width:1.5;"/>
   </g>
   <g id="patch_3">
    <path d="M 57.6 307.584 
L 57.6 41.472 
" style="fill:none;stroke:#000000;stroke-linecap:square;stroke-linejoin:miter;stroke-width:0.8;"/>
   </g>
   <g id="patch_4">
    <path d="M 414.72 307.584 
L 414.72 41.472 
" style="fill:none;stroke:#000000;stroke-linecap:square;stroke-linejoin:miter;stroke-width:0.8;"/>
   </g>
   <g id="patch_5">
    <path d="M 57.6 307.584 
L 414.72 307.584 
" style="fill:none;stroke:#000000;stroke-linecap:square;stroke-linejoin:miter;stroke-width:0.8;"/>
   </g>
   <g id="patch_6">
    <path d="M 57.6 41.472 
L 414.72 41.472 
" style="fill:none;stroke:#000000;stroke-linecap:square;stroke-linejoin:miter;stroke-width:0.8;"/>
   </g>
   <g id="text_17">
    <!-- Background -->
    <g transform="translate(200.367188 35.472)scale(0.12 -0.12)">
     <defs>
      <path d="M 1259 2228 
L 1259 519 
L 2272 519 
Q 2781 519 3026 730 
Q 3272 941 3272 1375 
Q 3272 1813 3026 2020 
Q 2781 2228 2272 2228 
L 1259 2228 
z
M 1259 4147 
L 1259 2741 
L 2194 2741 
Q 2656 2741 2882 2914 
Q 3109 3088 3109 3444 
Q 3109 3797 2882 3972 
Q 2656 4147 2194 4147 
L 1259 4147 
z
M 628 4666 
L 2241 4666 
Q 2963 4666 3353 4366 
Q 3744 4066 3744 3513 
Q 3744 3084 3544 2831 
Q 3344 2578 2956 2516 
Q 3422 2416 3680 2098 
Q 3938 1781 3938 1306 
Q 3938 681 3513 340 
Q 3088 0 2303 0 
L 628 0 
L 628 4666 
z
" id="DejaVuSans-42" transform="scale(0.015625)"/>
      <path d="M 3122 3366 
L 3122 2828 
Q 2878 2963 2633 3030 
Q 2388 3097 2138 3097 
Q 1578 3097 1268 2742 
Q 959 2388 959 1747 
Q 959 1106 1268 751 
Q 1578 397 2138 397 
Q 2388 397 2633 464 
Q 2878 531 3122 666 
L 3122 134 
Q 2881 22 2623 -34 
Q 2366 -91 2075 -91 
Q 1284 -91 818 406 
Q 353 903 353 1747 
Q 353 2603 823 3093 
Q 1294 3584 2113 3584 
Q 2378 3584 2631 3529 
Q 2884 3475 3122 3366 
z
" id="DejaVuSans-63" transform="scale(0.015625)"/>
      <path d="M 581 4863 
L 1159 4863 
L 1159 1991 
L 2875 3500 
L 3609 3500 
L 1753 1863 
L 3688 0 
L 2938 0 
L 1159 1709 
L 1159 0 
L 581 0 
L 581 4863 
z
" id="DejaVuSans-6b" transform="scale(0.015625)"/>
      <path d="M 2631 2963 
Q 2534 3019 2420 3045 
Q 2306 3072 2169 3072 
Q 1681 3072 1420 2755 
Q 1159 2438 1159 1844 
L 1159 0 
L 581 0 
L 581 3500 
L 1159 3500 
L 1159 2956 
Q 1341 3275 1631 3429 
Q 1922 3584 2338 3584 
Q 2397 3584 2469 3576 
Q 2541 3569 2628 3553 
L 2631 2963 
z
" id="DejaVuSans-72" transform="scale(0.015625)"/>
      <path d="M 2906 2969 
L 2906 4863 
L 3481 4863 
L 3481 0 
L 2906 0 
L 2906 525 
Q 2725 213 2448 61 
Q 2172 -91 1784 -91 
Q 1150 -91 751 415 
Q 353 922 353 1747 
Q 353 2572 751 3078 
Q 1150 3584 1784 3584 
Q 2172 3584 2448 3432 
Q 2725 3281 2906 2969 
z
M 947 1747 
Q 947 1113 1208 752 
Q 1469 391 1925 391 
Q 2381 391 2643 752 
Q 2906 1113 2906 1747 
Q 2906 2381 2643 2742 
Q 2381 3103 1925 3103 
Q 1469 3103 1208 2742 
Q 947 2381 947 1747 
z
" id="DejaVuSans-64" transform="scale(0.015625)"/>
     </defs>
     <use xlink:href="#DejaVuSans-42"/>
     <use x="68.603516" xlink:href="#DejaVuSans-61"/>
     <use x="129.882812" xlink:href="#DejaVuSans-63"/>
     <use x="184.863281" xlink:href="#DejaVuSans-6b"/>
     <use x="242.773438" xlink:href="#DejaVuSans-67"/>
     <use x="306.25" xlink:href="#DejaVuSans-72"/>
     <use x="345.113281" xlink:href="#DejaVuSans-6f"/>
     <use x="406.294922" xlink:href="#DejaVuSans-75"/>
     <use x="469.673828" xlink:href="#DejaVuSans-6e"/>
     <use x="533.052734" xlink:href="#DejaVuSans-64"/>
    </g>
   </g>
  </g>
 </g>
 <defs>
  <clipPath id="pa2334422c2">
   <rect height="266.112" width="357.12" x="57.6" y="41.472"/>
  </clipPath>
 </defs>
</svg>
