<?xml version="1.0" encoding="utf-8" standalone="no"?>
<!DOCTYPE svg PUBLIC "-//W3C//DTD SVG 1.1//EN"
  "http://www.w3.org/Graphics/SVG/1.1/DTD/svg11.dtd">
<svg height="345.6pt" version="1.1" viewBox="0 0 460.8 345.6" width="460.8pt" xmlns="http://www.w3.org/2000/svg" xmlns:xlink="http://www.w3.org/1999/xlink">
 <metadata>
  <rdf:RDF xmlns:cc="http://creativecommons.org/ns#" xmlns:dc="http://purl.org/dc/elements/1.1/" xmlns:rdf="http://www.w3.org/1999/02/22-rdf-syntax-ns#">
   <cc:Work>
    <dc:type rdf:resource="http://purl.org/dc/dcmitype/StillImage"/>
    <dc:date>2022-06-03T23:56:26.476734</dc:date>
    <dc:format>image/svg+xml</dc:format>
    <dc:creator>
     <cc:Agent>
      <dc:title>Matplotlib v3.4.1, https://matplotlib.org/</dc:title>
     </cc:Agent>
    </dc:creator>
   </cc:Work>
  </rdf:RDF>
 </metadata>
 <defs>
  <style type="text/css">*{stroke-linecap:butt;stroke-linejoin:round;}</style>
 </defs>
 <g id="figure_1">
  <g id="patch_1">
   <path d="M 0 345.6 
L 460.8 345.6 
L 460.8 0 
L 0 0 
z
" style="fill:#ffffff;"/>
  </g>
  <g id="axes_1">
   <g id="patch_2">
    <path d="M 57.6 307.584 
L 414.72 307.584 
L 414.72 41.472 
L 57.6 41.472 
z
" style="fill:#ffffff;"/>
   </g>
   <g id="matplotlib.axis_1">
    <g id="xtick_1">
     <g id="line2d_1">
      <defs>
       <path d="M 0 0 
L 0 3.5 
" id="m791f5349f2" style="stroke:#000000;stroke-width:0.8;"/>
      </defs>
      <g>
       <use style="stroke:#000000;stroke-width:0.8;" x="102.929605" xlink:href="#m791f5349f2" y="307.584"/>
      </g>
     </g>
     <g id="text_1">
      <!-- 400 -->
      <g transform="translate(93.385855 322.182437)scale(0.1 -0.1)">
       <defs>
        <path d="M 2419 4116 
L 825 1625 
L 2419 1625 
L 2419 4116 
z
M 2253 4666 
L 3047 4666 
L 3047 1625 
L 3713 1625 
L 3713 1100 
L 3047 1100 
L 3047 0 
L 2419 0 
L 2419 1100 
L 313 1100 
L 313 1709 
L 2253 4666 
z
" id="DejaVuSans-34" transform="scale(0.015625)"/>
        <path d="M 2034 4250 
Q 1547 4250 1301 3770 
Q 1056 3291 1056 2328 
Q 1056 1369 1301 889 
Q 1547 409 2034 409 
Q 2525 409 2770 889 
Q 3016 1369 3016 2328 
Q 3016 3291 2770 3770 
Q 2525 4250 2034 4250 
z
M 2034 4750 
Q 2819 4750 3233 4129 
Q 3647 3509 3647 2328 
Q 3647 1150 3233 529 
Q 2819 -91 2034 -91 
Q 1250 -91 836 529 
Q 422 1150 422 2328 
Q 422 3509 836 4129 
Q 1250 4750 2034 4750 
z
" id="DejaVuSans-30" transform="scale(0.015625)"/>
       </defs>
       <use xlink:href="#DejaVuSans-34"/>
       <use x="63.623047" xlink:href="#DejaVuSans-30"/>
       <use x="127.246094" xlink:href="#DejaVuSans-30"/>
      </g>
     </g>
    </g>
    <g id="xtick_2">
     <g id="line2d_2">
      <g>
       <use style="stroke:#000000;stroke-width:0.8;" x="160.931952" xlink:href="#m791f5349f2" y="307.584"/>
      </g>
     </g>
     <g id="text_2">
      <!-- 600 -->
      <g transform="translate(151.388202 322.182437)scale(0.1 -0.1)">
       <defs>
        <path d="M 2113 2584 
Q 1688 2584 1439 2293 
Q 1191 2003 1191 1497 
Q 1191 994 1439 701 
Q 1688 409 2113 409 
Q 2538 409 2786 701 
Q 3034 994 3034 1497 
Q 3034 2003 2786 2293 
Q 2538 2584 2113 2584 
z
M 3366 4563 
L 3366 3988 
Q 3128 4100 2886 4159 
Q 2644 4219 2406 4219 
Q 1781 4219 1451 3797 
Q 1122 3375 1075 2522 
Q 1259 2794 1537 2939 
Q 1816 3084 2150 3084 
Q 2853 3084 3261 2657 
Q 3669 2231 3669 1497 
Q 3669 778 3244 343 
Q 2819 -91 2113 -91 
Q 1303 -91 875 529 
Q 447 1150 447 2328 
Q 447 3434 972 4092 
Q 1497 4750 2381 4750 
Q 2619 4750 2861 4703 
Q 3103 4656 3366 4563 
z
" id="DejaVuSans-36" transform="scale(0.015625)"/>
       </defs>
       <use xlink:href="#DejaVuSans-36"/>
       <use x="63.623047" xlink:href="#DejaVuSans-30"/>
       <use x="127.246094" xlink:href="#DejaVuSans-30"/>
      </g>
     </g>
    </g>
    <g id="xtick_3">
     <g id="line2d_3">
      <g>
       <use style="stroke:#000000;stroke-width:0.8;" x="218.9343" xlink:href="#m791f5349f2" y="307.584"/>
      </g>
     </g>
     <g id="text_3">
      <!-- 800 -->
      <g transform="translate(209.39055 322.182437)scale(0.1 -0.1)">
       <defs>
        <path d="M 2034 2216 
Q 1584 2216 1326 1975 
Q 1069 1734 1069 1313 
Q 1069 891 1326 650 
Q 1584 409 2034 409 
Q 2484 409 2743 651 
Q 3003 894 3003 1313 
Q 3003 1734 2745 1975 
Q 2488 2216 2034 2216 
z
M 1403 2484 
Q 997 2584 770 2862 
Q 544 3141 544 3541 
Q 544 4100 942 4425 
Q 1341 4750 2034 4750 
Q 2731 4750 3128 4425 
Q 3525 4100 3525 3541 
Q 3525 3141 3298 2862 
Q 3072 2584 2669 2484 
Q 3125 2378 3379 2068 
Q 3634 1759 3634 1313 
Q 3634 634 3220 271 
Q 2806 -91 2034 -91 
Q 1263 -91 848 271 
Q 434 634 434 1313 
Q 434 1759 690 2068 
Q 947 2378 1403 2484 
z
M 1172 3481 
Q 1172 3119 1398 2916 
Q 1625 2713 2034 2713 
Q 2441 2713 2670 2916 
Q 2900 3119 2900 3481 
Q 2900 3844 2670 4047 
Q 2441 4250 2034 4250 
Q 1625 4250 1398 4047 
Q 1172 3844 1172 3481 
z
" id="DejaVuSans-38" transform="scale(0.015625)"/>
       </defs>
       <use xlink:href="#DejaVuSans-38"/>
       <use x="63.623047" xlink:href="#DejaVuSans-30"/>
       <use x="127.246094" xlink:href="#DejaVuSans-30"/>
      </g>
     </g>
    </g>
    <g id="xtick_4">
     <g id="line2d_4">
      <g>
       <use style="stroke:#000000;stroke-width:0.8;" x="276.936647" xlink:href="#m791f5349f2" y="307.584"/>
      </g>
     </g>
     <g id="text_4">
      <!-- 1000 -->
      <g transform="translate(264.211647 322.182437)scale(0.1 -0.1)">
       <defs>
        <path d="M 794 531 
L 1825 531 
L 1825 4091 
L 703 3866 
L 703 4441 
L 1819 4666 
L 2450 4666 
L 2450 531 
L 3481 531 
L 3481 0 
L 794 0 
L 794 531 
z
" id="DejaVuSans-31" transform="scale(0.015625)"/>
       </defs>
       <use xlink:href="#DejaVuSans-31"/>
       <use x="63.623047" xlink:href="#DejaVuSans-30"/>
       <use x="127.246094" xlink:href="#DejaVuSans-30"/>
       <use x="190.869141" xlink:href="#DejaVuSans-30"/>
      </g>
     </g>
    </g>
    <g id="xtick_5">
     <g id="line2d_5">
      <g>
       <use style="stroke:#000000;stroke-width:0.8;" x="334.938995" xlink:href="#m791f5349f2" y="307.584"/>
      </g>
     </g>
     <g id="text_5">
      <!-- 1200 -->
      <g transform="translate(322.213995 322.182437)scale(0.1 -0.1)">
       <defs>
        <path d="M 1228 531 
L 3431 531 
L 3431 0 
L 469 0 
L 469 531 
Q 828 903 1448 1529 
Q 2069 2156 2228 2338 
Q 2531 2678 2651 2914 
Q 2772 3150 2772 3378 
Q 2772 3750 2511 3984 
Q 2250 4219 1831 4219 
Q 1534 4219 1204 4116 
Q 875 4013 500 3803 
L 500 4441 
Q 881 4594 1212 4672 
Q 1544 4750 1819 4750 
Q 2544 4750 2975 4387 
Q 3406 4025 3406 3419 
Q 3406 3131 3298 2873 
Q 3191 2616 2906 2266 
Q 2828 2175 2409 1742 
Q 1991 1309 1228 531 
z
" id="DejaVuSans-32" transform="scale(0.015625)"/>
       </defs>
       <use xlink:href="#DejaVuSans-31"/>
       <use x="63.623047" xlink:href="#DejaVuSans-32"/>
       <use x="127.246094" xlink:href="#DejaVuSans-30"/>
       <use x="190.869141" xlink:href="#DejaVuSans-30"/>
      </g>
     </g>
    </g>
    <g id="xtick_6">
     <g id="line2d_6">
      <g>
       <use style="stroke:#000000;stroke-width:0.8;" x="392.941342" xlink:href="#m791f5349f2" y="307.584"/>
      </g>
     </g>
     <g id="text_6">
      <!-- 1400 -->
      <g transform="translate(380.216342 322.182437)scale(0.1 -0.1)">
       <use xlink:href="#DejaVuSans-31"/>
       <use x="63.623047" xlink:href="#DejaVuSans-34"/>
       <use x="127.246094" xlink:href="#DejaVuSans-30"/>
       <use x="190.869141" xlink:href="#DejaVuSans-30"/>
      </g>
     </g>
    </g>
    <g id="text_7">
     <!-- Wavelength [nm] -->
     <g transform="translate(192.967812 335.860562)scale(0.1 -0.1)">
      <defs>
       <path d="M 213 4666 
L 850 4666 
L 1831 722 
L 2809 4666 
L 3519 4666 
L 4500 722 
L 5478 4666 
L 6119 4666 
L 4947 0 
L 4153 0 
L 3169 4050 
L 2175 0 
L 1381 0 
L 213 4666 
z
" id="DejaVuSans-57" transform="scale(0.015625)"/>
       <path d="M 2194 1759 
Q 1497 1759 1228 1600 
Q 959 1441 959 1056 
Q 959 750 1161 570 
Q 1363 391 1709 391 
Q 2188 391 2477 730 
Q 2766 1069 2766 1631 
L 2766 1759 
L 2194 1759 
z
M 3341 1997 
L 3341 0 
L 2766 0 
L 2766 531 
Q 2569 213 2275 61 
Q 1981 -91 1556 -91 
Q 1019 -91 701 211 
Q 384 513 384 1019 
Q 384 1609 779 1909 
Q 1175 2209 1959 2209 
L 2766 2209 
L 2766 2266 
Q 2766 2663 2505 2880 
Q 2244 3097 1772 3097 
Q 1472 3097 1187 3025 
Q 903 2953 641 2809 
L 641 3341 
Q 956 3463 1253 3523 
Q 1550 3584 1831 3584 
Q 2591 3584 2966 3190 
Q 3341 2797 3341 1997 
z
" id="DejaVuSans-61" transform="scale(0.015625)"/>
       <path d="M 191 3500 
L 800 3500 
L 1894 563 
L 2988 3500 
L 3597 3500 
L 2284 0 
L 1503 0 
L 191 3500 
z
" id="DejaVuSans-76" transform="scale(0.015625)"/>
       <path d="M 3597 1894 
L 3597 1613 
L 953 1613 
Q 991 1019 1311 708 
Q 1631 397 2203 397 
Q 2534 397 2845 478 
Q 3156 559 3463 722 
L 3463 178 
Q 3153 47 2828 -22 
Q 2503 -91 2169 -91 
Q 1331 -91 842 396 
Q 353 884 353 1716 
Q 353 2575 817 3079 
Q 1281 3584 2069 3584 
Q 2775 3584 3186 3129 
Q 3597 2675 3597 1894 
z
M 3022 2063 
Q 3016 2534 2758 2815 
Q 2500 3097 2075 3097 
Q 1594 3097 1305 2825 
Q 1016 2553 972 2059 
L 3022 2063 
z
" id="DejaVuSans-65" transform="scale(0.015625)"/>
       <path d="M 603 4863 
L 1178 4863 
L 1178 0 
L 603 0 
L 603 4863 
z
" id="DejaVuSans-6c" transform="scale(0.015625)"/>
       <path d="M 3513 2113 
L 3513 0 
L 2938 0 
L 2938 2094 
Q 2938 2591 2744 2837 
Q 2550 3084 2163 3084 
Q 1697 3084 1428 2787 
Q 1159 2491 1159 1978 
L 1159 0 
L 581 0 
L 581 3500 
L 1159 3500 
L 1159 2956 
Q 1366 3272 1645 3428 
Q 1925 3584 2291 3584 
Q 2894 3584 3203 3211 
Q 3513 2838 3513 2113 
z
" id="DejaVuSans-6e" transform="scale(0.015625)"/>
       <path d="M 2906 1791 
Q 2906 2416 2648 2759 
Q 2391 3103 1925 3103 
Q 1463 3103 1205 2759 
Q 947 2416 947 1791 
Q 947 1169 1205 825 
Q 1463 481 1925 481 
Q 2391 481 2648 825 
Q 2906 1169 2906 1791 
z
M 3481 434 
Q 3481 -459 3084 -895 
Q 2688 -1331 1869 -1331 
Q 1566 -1331 1297 -1286 
Q 1028 -1241 775 -1147 
L 775 -588 
Q 1028 -725 1275 -790 
Q 1522 -856 1778 -856 
Q 2344 -856 2625 -561 
Q 2906 -266 2906 331 
L 2906 616 
Q 2728 306 2450 153 
Q 2172 0 1784 0 
Q 1141 0 747 490 
Q 353 981 353 1791 
Q 353 2603 747 3093 
Q 1141 3584 1784 3584 
Q 2172 3584 2450 3431 
Q 2728 3278 2906 2969 
L 2906 3500 
L 3481 3500 
L 3481 434 
z
" id="DejaVuSans-67" transform="scale(0.015625)"/>
       <path d="M 1172 4494 
L 1172 3500 
L 2356 3500 
L 2356 3053 
L 1172 3053 
L 1172 1153 
Q 1172 725 1289 603 
Q 1406 481 1766 481 
L 2356 481 
L 2356 0 
L 1766 0 
Q 1100 0 847 248 
Q 594 497 594 1153 
L 594 3053 
L 172 3053 
L 172 3500 
L 594 3500 
L 594 4494 
L 1172 4494 
z
" id="DejaVuSans-74" transform="scale(0.015625)"/>
       <path d="M 3513 2113 
L 3513 0 
L 2938 0 
L 2938 2094 
Q 2938 2591 2744 2837 
Q 2550 3084 2163 3084 
Q 1697 3084 1428 2787 
Q 1159 2491 1159 1978 
L 1159 0 
L 581 0 
L 581 4863 
L 1159 4863 
L 1159 2956 
Q 1366 3272 1645 3428 
Q 1925 3584 2291 3584 
Q 2894 3584 3203 3211 
Q 3513 2838 3513 2113 
z
" id="DejaVuSans-68" transform="scale(0.015625)"/>
       <path id="DejaVuSans-20" transform="scale(0.015625)"/>
       <path d="M 550 4863 
L 1875 4863 
L 1875 4416 
L 1125 4416 
L 1125 -397 
L 1875 -397 
L 1875 -844 
L 550 -844 
L 550 4863 
z
" id="DejaVuSans-5b" transform="scale(0.015625)"/>
       <path d="M 3328 2828 
Q 3544 3216 3844 3400 
Q 4144 3584 4550 3584 
Q 5097 3584 5394 3201 
Q 5691 2819 5691 2113 
L 5691 0 
L 5113 0 
L 5113 2094 
Q 5113 2597 4934 2840 
Q 4756 3084 4391 3084 
Q 3944 3084 3684 2787 
Q 3425 2491 3425 1978 
L 3425 0 
L 2847 0 
L 2847 2094 
Q 2847 2600 2669 2842 
Q 2491 3084 2119 3084 
Q 1678 3084 1418 2786 
Q 1159 2488 1159 1978 
L 1159 0 
L 581 0 
L 581 3500 
L 1159 3500 
L 1159 2956 
Q 1356 3278 1631 3431 
Q 1906 3584 2284 3584 
Q 2666 3584 2933 3390 
Q 3200 3197 3328 2828 
z
" id="DejaVuSans-6d" transform="scale(0.015625)"/>
       <path d="M 1947 4863 
L 1947 -844 
L 622 -844 
L 622 -397 
L 1369 -397 
L 1369 4416 
L 622 4416 
L 622 4863 
L 1947 4863 
z
" id="DejaVuSans-5d" transform="scale(0.015625)"/>
      </defs>
      <use xlink:href="#DejaVuSans-57"/>
      <use x="92.501953" xlink:href="#DejaVuSans-61"/>
      <use x="153.78125" xlink:href="#DejaVuSans-76"/>
      <use x="212.960938" xlink:href="#DejaVuSans-65"/>
      <use x="274.484375" xlink:href="#DejaVuSans-6c"/>
      <use x="302.267578" xlink:href="#DejaVuSans-65"/>
      <use x="363.791016" xlink:href="#DejaVuSans-6e"/>
      <use x="427.169922" xlink:href="#DejaVuSans-67"/>
      <use x="490.646484" xlink:href="#DejaVuSans-74"/>
      <use x="529.855469" xlink:href="#DejaVuSans-68"/>
      <use x="593.234375" xlink:href="#DejaVuSans-20"/>
      <use x="625.021484" xlink:href="#DejaVuSans-5b"/>
      <use x="664.035156" xlink:href="#DejaVuSans-6e"/>
      <use x="727.414062" xlink:href="#DejaVuSans-6d"/>
      <use x="824.826172" xlink:href="#DejaVuSans-5d"/>
     </g>
    </g>
   </g>
   <g id="matplotlib.axis_2">
    <g id="ytick_1">
     <g id="line2d_7">
      <defs>
       <path d="M 0 0 
L -3.5 0 
" id="me369ba69ed" style="stroke:#000000;stroke-width:0.8;"/>
      </defs>
      <g>
       <use style="stroke:#000000;stroke-width:0.8;" x="57.6" xlink:href="#me369ba69ed" y="276.041322"/>
      </g>
     </g>
     <g id="text_8">
      <!-- 2000 -->
      <g transform="translate(25.15 279.840541)scale(0.1 -0.1)">
       <use xlink:href="#DejaVuSans-32"/>
       <use x="63.623047" xlink:href="#DejaVuSans-30"/>
       <use x="127.246094" xlink:href="#DejaVuSans-30"/>
       <use x="190.869141" xlink:href="#DejaVuSans-30"/>
      </g>
     </g>
    </g>
    <g id="ytick_2">
     <g id="line2d_8">
      <g>
       <use style="stroke:#000000;stroke-width:0.8;" x="57.6" xlink:href="#me369ba69ed" y="234.488591"/>
      </g>
     </g>
     <g id="text_9">
      <!-- 4000 -->
      <g transform="translate(25.15 238.28781)scale(0.1 -0.1)">
       <use xlink:href="#DejaVuSans-34"/>
       <use x="63.623047" xlink:href="#DejaVuSans-30"/>
       <use x="127.246094" xlink:href="#DejaVuSans-30"/>
       <use x="190.869141" xlink:href="#DejaVuSans-30"/>
      </g>
     </g>
    </g>
    <g id="ytick_3">
     <g id="line2d_9">
      <g>
       <use style="stroke:#000000;stroke-width:0.8;" x="57.6" xlink:href="#me369ba69ed" y="192.93586"/>
      </g>
     </g>
     <g id="text_10">
      <!-- 6000 -->
      <g transform="translate(25.15 196.735079)scale(0.1 -0.1)">
       <use xlink:href="#DejaVuSans-36"/>
       <use x="63.623047" xlink:href="#DejaVuSans-30"/>
       <use x="127.246094" xlink:href="#DejaVuSans-30"/>
       <use x="190.869141" xlink:href="#DejaVuSans-30"/>
      </g>
     </g>
    </g>
    <g id="ytick_4">
     <g id="line2d_10">
      <g>
       <use style="stroke:#000000;stroke-width:0.8;" x="57.6" xlink:href="#me369ba69ed" y="151.383129"/>
      </g>
     </g>
     <g id="text_11">
      <!-- 8000 -->
      <g transform="translate(25.15 155.182348)scale(0.1 -0.1)">
       <use xlink:href="#DejaVuSans-38"/>
       <use x="63.623047" xlink:href="#DejaVuSans-30"/>
       <use x="127.246094" xlink:href="#DejaVuSans-30"/>
       <use x="190.869141" xlink:href="#DejaVuSans-30"/>
      </g>
     </g>
    </g>
    <g id="ytick_5">
     <g id="line2d_11">
      <g>
       <use style="stroke:#000000;stroke-width:0.8;" x="57.6" xlink:href="#me369ba69ed" y="109.830398"/>
      </g>
     </g>
     <g id="text_12">
      <!-- 10000 -->
      <g transform="translate(18.7875 113.629617)scale(0.1 -0.1)">
       <use xlink:href="#DejaVuSans-31"/>
       <use x="63.623047" xlink:href="#DejaVuSans-30"/>
       <use x="127.246094" xlink:href="#DejaVuSans-30"/>
       <use x="190.869141" xlink:href="#DejaVuSans-30"/>
       <use x="254.492188" xlink:href="#DejaVuSans-30"/>
      </g>
     </g>
    </g>
    <g id="ytick_6">
     <g id="line2d_12">
      <g>
       <use style="stroke:#000000;stroke-width:0.8;" x="57.6" xlink:href="#me369ba69ed" y="68.277667"/>
      </g>
     </g>
     <g id="text_13">
      <!-- 12000 -->
      <g transform="translate(18.7875 72.076886)scale(0.1 -0.1)">
       <use xlink:href="#DejaVuSans-31"/>
       <use x="63.623047" xlink:href="#DejaVuSans-32"/>
       <use x="127.246094" xlink:href="#DejaVuSans-30"/>
       <use x="190.869141" xlink:href="#DejaVuSans-30"/>
       <use x="254.492188" xlink:href="#DejaVuSans-30"/>
      </g>
     </g>
    </g>
    <g id="text_14">
     <!-- Counts -->
     <g transform="translate(12.707812 191.981125)rotate(-90)scale(0.1 -0.1)">
      <defs>
       <path d="M 4122 4306 
L 4122 3641 
Q 3803 3938 3442 4084 
Q 3081 4231 2675 4231 
Q 1875 4231 1450 3742 
Q 1025 3253 1025 2328 
Q 1025 1406 1450 917 
Q 1875 428 2675 428 
Q 3081 428 3442 575 
Q 3803 722 4122 1019 
L 4122 359 
Q 3791 134 3420 21 
Q 3050 -91 2638 -91 
Q 1578 -91 968 557 
Q 359 1206 359 2328 
Q 359 3453 968 4101 
Q 1578 4750 2638 4750 
Q 3056 4750 3426 4639 
Q 3797 4528 4122 4306 
z
" id="DejaVuSans-43" transform="scale(0.015625)"/>
       <path d="M 1959 3097 
Q 1497 3097 1228 2736 
Q 959 2375 959 1747 
Q 959 1119 1226 758 
Q 1494 397 1959 397 
Q 2419 397 2687 759 
Q 2956 1122 2956 1747 
Q 2956 2369 2687 2733 
Q 2419 3097 1959 3097 
z
M 1959 3584 
Q 2709 3584 3137 3096 
Q 3566 2609 3566 1747 
Q 3566 888 3137 398 
Q 2709 -91 1959 -91 
Q 1206 -91 779 398 
Q 353 888 353 1747 
Q 353 2609 779 3096 
Q 1206 3584 1959 3584 
z
" id="DejaVuSans-6f" transform="scale(0.015625)"/>
       <path d="M 544 1381 
L 544 3500 
L 1119 3500 
L 1119 1403 
Q 1119 906 1312 657 
Q 1506 409 1894 409 
Q 2359 409 2629 706 
Q 2900 1003 2900 1516 
L 2900 3500 
L 3475 3500 
L 3475 0 
L 2900 0 
L 2900 538 
Q 2691 219 2414 64 
Q 2138 -91 1772 -91 
Q 1169 -91 856 284 
Q 544 659 544 1381 
z
M 1991 3584 
L 1991 3584 
z
" id="DejaVuSans-75" transform="scale(0.015625)"/>
       <path d="M 2834 3397 
L 2834 2853 
Q 2591 2978 2328 3040 
Q 2066 3103 1784 3103 
Q 1356 3103 1142 2972 
Q 928 2841 928 2578 
Q 928 2378 1081 2264 
Q 1234 2150 1697 2047 
L 1894 2003 
Q 2506 1872 2764 1633 
Q 3022 1394 3022 966 
Q 3022 478 2636 193 
Q 2250 -91 1575 -91 
Q 1294 -91 989 -36 
Q 684 19 347 128 
L 347 722 
Q 666 556 975 473 
Q 1284 391 1588 391 
Q 1994 391 2212 530 
Q 2431 669 2431 922 
Q 2431 1156 2273 1281 
Q 2116 1406 1581 1522 
L 1381 1569 
Q 847 1681 609 1914 
Q 372 2147 372 2553 
Q 372 3047 722 3315 
Q 1072 3584 1716 3584 
Q 2034 3584 2315 3537 
Q 2597 3491 2834 3397 
z
" id="DejaVuSans-73" transform="scale(0.015625)"/>
      </defs>
      <use xlink:href="#DejaVuSans-43"/>
      <use x="69.824219" xlink:href="#DejaVuSans-6f"/>
      <use x="131.005859" xlink:href="#DejaVuSans-75"/>
      <use x="194.384766" xlink:href="#DejaVuSans-6e"/>
      <use x="257.763672" xlink:href="#DejaVuSans-74"/>
      <use x="296.972656" xlink:href="#DejaVuSans-73"/>
     </g>
    </g>
   </g>
   <g id="line2d_13">
    <path clip-path="url(#p4a49aa142e)" d="M 73.832727 269.309779 
L 73.991327 274.462318 
L 74.149928 269.060463 
L 74.308528 252.771793 
L 74.467128 271.387416 
L 74.625728 262.16271 
L 74.784328 282.274232 
L 74.942928 275.293373 
L 75.101529 283.437708 
L 75.418729 262.079604 
L 75.577329 276.62306 
L 75.894529 253.353531 
L 76.05313 255.846695 
L 76.21173 263.575503 
L 76.37033 251.940738 
L 76.52893 270.639467 
L 76.68753 269.559096 
L 76.84613 281.276966 
L 77.004731 270.639467 
L 77.163331 275.459584 
L 77.321931 274.79474 
L 77.480531 267.730776 
L 77.639131 242.051188 
L 77.797731 280.030384 
L 77.956332 239.890446 
L 78.114932 277.038587 
L 78.273532 260.916128 
L 78.432132 285.930872 
L 78.590732 286.097083 
L 78.749333 266.484194 
L 78.907933 283.022181 
L 79.066533 269.891518 
L 79.225133 271.719838 
L 79.383733 271.802943 
L 79.700934 284.518079 
L 79.859534 281.692493 
L 80.018134 267.64767 
L 80.176734 284.351868 
L 80.335334 270.805678 
L 80.811135 283.77013 
L 80.969735 257.425698 
L 81.128335 271.886049 
L 81.286935 271.470521 
L 81.445535 276.62306 
L 81.604136 274.379213 
L 81.762736 273.714369 
L 81.921336 249.281363 
L 82.079936 275.542689 
L 82.238536 274.296107 
L 82.555737 281.443177 
L 82.714337 280.695228 
L 82.872937 274.046791 
L 83.031537 285.847766 
L 83.190137 282.108021 
L 83.348737 263.159975 
L 83.507338 283.437708 
L 83.665938 270.307045 
L 83.824538 285.016712 
L 84.141738 262.661342 
L 84.300338 274.79474 
L 84.458939 272.717103 
L 84.776139 286.097083 
L 85.251939 261.830288 
L 85.41054 285.432239 
L 85.56914 274.628529 
L 85.72774 279.614857 
L 85.88634 269.642201 
L 86.20354 288.424036 
L 86.362141 253.353531 
L 86.679341 280.11349 
L 86.996541 259.087808 
L 87.155141 275.044056 
L 87.472342 268.894252 
L 87.630942 271.470521 
L 87.789542 287.177454 
L 87.948142 245.957145 
L 88.106742 274.711634 
L 88.265343 278.368275 
L 88.423943 285.099817 
L 88.741143 276.539955 
L 88.899743 276.955482 
L 89.058343 283.853235 
L 89.216944 280.944544 
L 89.375544 260.168179 
L 89.534144 290.418567 
L 89.692744 278.118958 
L 89.851344 289.587512 
L 90.009944 265.403823 
L 90.168545 273.963685 
L 90.327145 289.421301 
L 90.485745 262.245815 
L 90.644345 286.346399 
L 90.961545 275.127162 
L 91.120146 284.019446 
L 91.278746 276.124427 
L 91.437346 278.202064 
L 91.595946 290.834094 
L 91.754546 276.706166 
L 91.913147 276.290638 
L 92.071747 268.063198 
L 92.230347 287.343665 
L 92.388947 288.008508 
L 92.547547 258.755386 
L 92.864748 285.016712 
L 93.023348 283.105286 
L 93.181948 289.25509 
L 93.340548 274.379213 
L 93.657748 286.761926 
L 93.816349 272.467787 
L 94.450749 278.866908 
L 94.76795 281.609388 
L 94.92655 277.287904 
L 95.08515 249.69689 
L 95.24375 270.473256 
L 95.56095 275.376478 
L 95.719551 263.326186 
L 95.878151 287.094348 
L 96.195351 274.545424 
L 96.353951 255.514273 
L 96.512551 272.800209 
L 96.671152 273.714369 
L 96.829752 264.90519 
L 96.988352 285.349134 
L 97.146952 279.864173 
L 97.305552 266.982827 
L 97.464152 270.639467 
L 97.622753 282.772864 
L 97.781353 268.894252 
L 98.098553 281.858704 
L 98.257153 270.140834 
L 98.574354 277.53722 
L 98.732954 262.661342 
L 98.891554 265.071401 
L 99.050154 278.035853 
L 99.208754 278.783802 
L 99.367354 283.936341 
L 99.525955 278.700697 
L 99.684555 255.01564 
L 99.843155 287.42677 
L 100.001755 280.778333 
L 100.160355 281.276966 
L 100.318955 290.584778 
L 100.477556 280.861439 
L 100.636156 280.2797 
L 100.953356 252.688687 
L 101.111956 280.612122 
L 101.270556 266.567299 
L 101.429157 291.498938 
L 101.587757 280.2797 
L 101.746357 287.011243 
L 101.904957 253.270425 
L 102.222157 281.692493 
L 102.539358 287.676087 
L 102.697958 280.362806 
L 102.856558 261.414761 
L 103.173758 284.68429 
L 103.332359 273.963685 
L 103.490959 255.264956 
L 103.649559 278.950013 
L 103.808159 280.778333 
L 103.966759 276.706166 
L 104.12536 282.357337 
L 104.28396 263.575503 
L 104.44256 264.572768 
L 104.75976 274.628529 
L 104.91836 284.518079 
L 105.076961 273.714369 
L 105.235561 278.202064 
L 105.394161 253.353531 
L 105.552761 271.886049 
L 105.711361 272.96642 
L 105.869961 272.301576 
L 106.028562 287.592981 
L 106.187162 279.697962 
L 106.345762 282.85597 
L 106.662962 282.108021 
L 106.821562 278.950013 
L 106.980163 268.644936 
L 107.138763 279.781068 
L 107.297363 269.47599 
L 107.455963 274.213002 
L 107.614563 285.099817 
L 107.931764 266.650405 
L 108.090364 280.362806 
L 108.407564 270.140834 
L 108.566164 290.9172 
L 108.724764 267.149037 
L 108.883365 280.362806 
L 109.041965 274.711634 
L 109.200565 279.282435 
L 109.359165 259.669546 
L 109.517765 281.775599 
L 109.676365 286.013977 
L 109.834966 261.747182 
L 110.152166 286.678821 
L 110.310766 276.041322 
L 110.469366 280.11349 
L 110.627966 279.781068 
L 110.786567 277.53722 
L 110.945167 283.105286 
L 111.103767 268.728041 
L 111.262367 277.287904 
L 111.420967 278.285169 
L 111.579567 283.105286 
L 111.738168 263.07687 
L 111.896768 289.171985 
L 112.055368 253.18732 
L 112.531168 283.936341 
L 112.689769 281.94181 
L 112.848369 283.77013 
L 113.006969 287.260559 
L 113.165569 279.448646 
L 113.324169 287.676087 
L 113.64137 268.146303 
L 113.79997 270.805678 
L 113.95857 281.02765 
L 114.11717 277.952748 
L 114.27577 285.515345 
L 114.43437 270.556361 
L 114.592971 287.42677 
L 114.751571 283.603919 
L 114.910171 287.676087 
L 115.227371 265.81935 
L 115.544572 289.25509 
L 115.703172 284.102552 
L 115.861772 271.221205 
L 116.178972 288.34093 
L 116.337573 249.198258 
L 116.496173 270.888783 
L 116.654773 267.149037 
L 116.813373 221.856561 
L 116.971973 281.276966 
L 117.130573 250.278629 
L 117.289174 285.59845 
L 117.447774 280.612122 
L 117.606374 288.424036 
L 117.923574 282.523548 
L 118.082174 283.853235 
L 118.240775 295.488 
L 118.399375 266.484194 
L 118.557975 264.822085 
L 118.875175 283.853235 
L 119.033775 282.939075 
L 119.192376 285.432239 
L 119.350976 290.9172 
L 119.509576 280.11349 
L 119.668176 280.196595 
L 119.826776 282.689759 
L 119.985376 282.689759 
L 120.302577 263.326186 
L 120.461177 283.603919 
L 120.619777 285.59845 
L 120.778377 283.687024 
L 120.936977 230.000896 
L 121.095578 271.886049 
L 121.254178 277.204798 
L 121.412778 275.792005 
L 121.571378 278.617591 
L 121.729978 267.64767 
L 121.888578 287.925403 
L 122.047179 280.2797 
L 122.205779 281.692493 
L 122.364379 285.515345 
L 122.522979 280.529017 
L 122.681579 270.140834 
L 122.840179 286.429505 
L 122.99878 284.68429 
L 123.15738 285.432239 
L 123.31598 279.448646 
L 123.47458 281.443177 
L 123.63318 288.091614 
L 123.950381 266.317983 
L 124.108981 280.695228 
L 124.267581 274.129896 
L 124.426181 272.800209 
L 124.584781 280.362806 
L 124.743381 266.73351 
L 124.901982 288.922668 
L 125.219182 268.56183 
L 125.694982 286.013977 
L 125.853583 240.721501 
L 126.012183 276.872377 
L 126.170783 277.121693 
L 126.329383 275.293373 
L 126.487983 277.952748 
L 126.646583 271.054994 
L 126.805184 278.202064 
L 126.963784 275.625795 
L 127.122384 277.53722 
L 127.280984 282.108021 
L 127.439584 291.83136 
L 127.598184 289.670618 
L 127.915385 279.614857 
L 128.073985 288.756458 
L 128.232585 280.695228 
L 128.391185 254.766324 
L 128.708386 281.858704 
L 128.866986 272.135365 
L 129.025586 284.185657 
L 129.342786 278.45138 
L 129.501387 284.019446 
L 129.818587 282.191126 
L 129.977187 270.639467 
L 130.135787 282.191126 
L 130.294387 281.858704 
L 130.452988 285.59845 
L 130.611588 279.864173 
L 130.770188 285.349134 
L 131.087388 271.387416 
L 131.563189 292.579309 
L 131.880389 265.154506 
L 132.038989 277.371009 
L 132.197589 263.326186 
L 132.35619 259.669546 
L 132.51479 290.584778 
L 132.67339 271.1381 
L 132.83199 280.196595 
L 132.99059 278.118958 
L 133.14919 288.174719 
L 133.307791 285.432239 
L 133.783591 264.323452 
L 133.942191 283.105286 
L 134.100791 273.215736 
L 134.259392 291.415832 
L 134.576592 280.196595 
L 134.735192 275.958216 
L 134.893792 265.736245 
L 135.052392 287.343665 
L 135.210993 279.864173 
L 135.369593 291.665149 
L 135.528193 268.644936 
L 135.686793 290.667883 
L 135.845393 291.748254 
L 136.003993 276.955482 
L 136.162594 277.038587 
L 136.321194 277.454115 
L 136.638394 281.858704 
L 136.796994 284.601184 
L 136.955594 285.016712 
L 137.114195 279.864173 
L 137.272795 286.51261 
L 137.431395 272.717103 
L 137.589995 272.96642 
L 137.748595 275.376478 
L 137.907195 274.462318 
L 138.224396 288.507141 
L 138.382996 273.381947 
L 138.541596 284.268763 
L 138.700196 280.030384 
L 138.858796 290.16925 
L 139.017397 292.246887 
L 139.175997 271.1381 
L 139.334597 275.459584 
L 139.493197 285.764661 
L 139.651797 277.620326 
L 139.810397 275.875111 
L 139.968998 285.847766 
L 140.127598 283.022181 
L 140.286198 276.207533 
L 140.444798 278.368275 
L 140.603398 282.772864 
L 140.761998 282.939075 
L 140.920599 286.678821 
L 141.079199 273.714369 
L 141.237799 277.454115 
L 141.396399 275.127162 
L 141.554999 281.360071 
L 141.7136 281.858704 
L 141.8722 269.226674 
L 142.0308 280.362806 
L 142.1894 282.606653 
L 142.348 277.620326 
L 142.5066 261.913393 
L 142.665201 282.024915 
L 142.823801 271.1381 
L 143.141001 286.51261 
L 143.299601 259.337124 
L 143.458201 281.110755 
L 143.775402 273.215736 
L 143.934002 282.939075 
L 144.092602 270.39015 
L 144.251202 287.260559 
L 144.409802 266.650405 
L 144.568403 261.996499 
L 144.885603 288.174719 
L 145.044203 277.204798 
L 145.202803 274.046791 
L 145.361403 276.456849 
L 145.520004 268.395619 
L 145.837204 277.287904 
L 145.995804 275.542689 
L 146.154404 275.958216 
L 146.313004 285.182923 
L 146.630205 282.939075 
L 146.788805 261.830288 
L 146.947405 275.044056 
L 147.264605 262.16271 
L 147.423206 282.024915 
L 147.581806 265.237612 
L 147.899006 287.676087 
L 148.057606 269.226674 
L 148.216206 270.39015 
L 148.374807 287.676087 
L 148.533407 265.736245 
L 148.692007 277.620326 
L 149.009207 283.853235 
L 149.167807 275.7089 
L 149.485008 291.498938 
L 149.643608 247.203727 
L 149.960808 270.473256 
L 150.119408 257.342593 
L 150.278009 280.695228 
L 150.436609 270.307045 
L 150.595209 282.689759 
L 150.753809 261.664077 
L 150.912409 275.459584 
L 151.071009 270.140834 
L 151.22961 291.83136 
L 151.38821 273.963685 
L 151.54681 283.105286 
L 151.70541 278.950013 
L 151.86401 286.429505 
L 152.02261 262.661342 
L 152.339811 281.94181 
L 152.498411 284.767395 
L 152.657011 275.7089 
L 152.815611 280.445911 
L 152.974211 270.639467 
L 153.132812 272.135365 
L 153.291412 287.343665 
L 153.450012 278.534486 
L 153.608612 282.024915 
L 153.767212 267.896987 
L 153.925812 276.706166 
L 154.084413 278.035853 
L 154.243013 286.346399 
L 154.401613 265.653139 
L 154.560213 283.437708 
L 154.718813 276.124427 
L 154.877414 289.504407 
L 155.036014 287.592981 
L 155.194614 275.875111 
L 155.511814 286.429505 
L 155.670414 273.88058 
L 155.829015 283.105286 
L 155.987615 281.02765 
L 156.146215 270.39015 
L 156.304815 281.526282 
L 156.622015 265.154506 
L 156.780616 280.445911 
L 157.256416 262.079604 
L 157.415016 278.035853 
L 157.573616 276.789271 
L 157.732217 269.392885 
L 157.890817 288.590247 
L 158.049417 275.7089 
L 158.525217 285.764661 
L 158.842418 277.287904 
L 159.001018 271.636732 
L 159.159618 270.971889 
L 159.318218 288.756458 
L 159.476818 251.359 
L 159.635419 281.775599 
L 159.952619 280.445911 
L 160.111219 269.47599 
L 160.269819 269.974623 
L 160.428419 278.534486 
L 160.58702 264.489663 
L 160.74562 288.756458 
L 160.90422 289.088879 
L 161.06282 282.274232 
L 161.22142 286.51261 
L 161.38002 277.952748 
L 161.538621 287.592981 
L 161.697221 273.797474 
L 161.855821 275.044056 
L 162.014421 283.354603 
L 162.173021 275.875111 
L 162.331621 275.210267 
L 162.490222 292.911731 
L 162.648822 289.836829 
L 162.807422 269.642201 
L 162.966022 279.614857 
L 163.124622 278.202064 
L 163.283222 261.331655 
L 163.600423 285.681555 
L 163.759023 271.886049 
L 163.917623 290.418567 
L 164.076223 273.88058 
L 164.234823 274.877845 
L 164.393424 269.725307 
L 164.552024 273.797474 
L 164.710624 270.307045 
L 164.869224 271.636732 
L 165.027824 274.877845 
L 165.186424 244.045719 
L 165.345025 268.478725 
L 165.503625 275.542689 
L 165.662225 274.711634 
L 165.820825 271.969154 
L 165.979425 277.952748 
L 166.138025 265.570034 
L 166.296626 270.140834 
L 166.455226 265.736245 
L 166.613826 274.296107 
L 166.772426 274.877845 
L 166.931026 255.846695 
L 167.248227 275.376478 
L 167.406827 250.361734 
L 167.565427 265.071401 
L 167.724027 229.585369 
L 168.041228 268.894252 
L 168.199828 250.195523 
L 168.358428 262.827553 
L 168.517028 256.179116 
L 168.675628 265.653139 
L 168.834228 263.907924 
L 169.151429 255.01564 
L 169.310029 250.694156 
L 169.468629 229.75158 
L 169.627229 244.461246 
L 169.785829 234.32238 
L 169.94443 245.707828 
L 170.10303 243.547086 
L 170.26163 237.646598 
L 170.42023 248.865836 
L 170.57883 227.341521 
L 170.73743 237.895915 
L 170.896031 235.984489 
L 171.054631 220.360662 
L 171.213231 231.829216 
L 171.371831 220.194451 
L 171.530431 224.515935 
L 171.689031 237.06486 
L 171.847632 238.062126 
L 172.006232 221.025506 
L 172.323432 243.29777 
L 172.482032 237.480387 
L 172.640632 236.898649 
L 172.799233 261.664077 
L 173.116433 254.018374 
L 173.275033 258.173648 
L 173.592233 278.118958 
L 173.750834 266.899721 
L 173.909434 268.478725 
L 174.068034 265.985561 
L 174.226634 271.553627 
L 174.543834 265.570034 
L 174.861035 281.858704 
L 175.019635 282.939075 
L 175.336835 269.143569 
L 175.654036 278.950013 
L 175.812636 274.379213 
L 175.971236 276.290638 
L 176.129836 286.761926 
L 176.288436 276.789271 
L 176.447036 289.005774 
L 176.605637 284.351868 
L 176.764237 271.636732 
L 176.922837 272.717103 
L 177.081437 259.254019 
L 177.240037 271.802943 
L 177.398637 271.636732 
L 177.557238 272.218471 
L 177.715838 272.301576 
L 177.874438 271.719838 
L 178.033038 278.368275 
L 178.191638 279.864173 
L 178.508839 278.118958 
L 178.984639 269.47599 
L 179.143239 271.886049 
L 179.301839 286.928137 
L 179.46044 278.368275 
L 179.61904 280.944544 
L 179.93624 294.656945 
L 180.09484 278.035853 
L 180.412041 272.135365 
L 180.729241 266.484194 
L 180.887841 283.271497 
L 181.046441 274.960951 
L 181.205042 279.448646 
L 181.363642 267.64767 
L 181.522242 283.603919 
L 181.680842 276.041322 
L 181.839442 276.706166 
L 181.998042 276.789271 
L 182.156643 278.368275 
L 182.473843 266.73351 
L 182.632443 252.605582 
L 182.791043 286.51261 
L 182.949643 272.301576 
L 183.108244 282.024915 
L 183.266844 272.633998 
L 183.584044 287.509876 
L 183.742644 281.193861 
L 183.901244 289.836829 
L 184.059845 267.232143 
L 184.218445 275.875111 
L 184.377045 275.376478 
L 184.535645 278.118958 
L 184.852845 265.902456 
L 185.170046 290.834094 
L 185.328646 276.955482 
L 185.487246 273.132631 
L 185.645846 282.689759 
L 185.804446 257.259487 
L 186.121647 283.936341 
L 186.280247 280.445911 
L 186.438847 283.437708 
L 186.597447 265.985561 
L 186.756047 274.711634 
L 186.914648 271.304311 
L 187.073248 278.45138 
L 187.231848 256.179116 
L 187.549048 282.85597 
L 187.707648 285.016712 
L 187.866249 273.132631 
L 188.024849 281.609388 
L 188.183449 267.64767 
L 188.342049 283.853235 
L 188.500649 271.802943 
L 188.659249 277.454115 
L 188.81785 259.420229 
L 188.97645 273.298842 
L 189.13505 274.462318 
L 189.29365 264.988295 
L 189.45225 262.495132 
L 189.61085 280.944544 
L 189.769451 267.481459 
L 189.928051 268.56183 
L 190.086651 275.127162 
L 190.245251 265.154506 
L 190.403851 265.736245 
L 190.562451 269.392885 
L 190.721052 259.254019 
L 190.879652 274.877845 
L 191.196852 260.417495 
L 191.355452 256.594644 
L 191.514052 261.082339 
L 191.672653 260.749917 
L 191.831253 271.969154 
L 191.989853 259.669546 
L 192.307053 274.628529 
L 192.624254 257.259487 
L 192.782854 239.391813 
L 192.941454 261.165444 
L 193.100054 265.736245 
L 193.417255 255.01564 
L 193.734455 261.331655 
L 193.893055 249.198258 
L 194.051655 251.525211 
L 194.210255 245.042985 
L 194.368856 257.841226 
L 194.527456 245.874039 
L 194.686056 243.547086 
L 194.844656 244.876774 
L 195.003256 235.402751 
L 195.161856 243.463981 
L 195.479057 221.939666 
L 195.796257 230.499529 
L 195.954857 229.00363 
L 196.113457 231.995427 
L 196.272058 240.222868 
L 196.430658 207.811738 
L 196.747858 227.424627 
L 196.906458 211.8008 
L 197.065058 218.033709 
L 197.382259 193.018965 
L 197.540859 201.163301 
L 197.699459 198.503926 
L 197.858059 199.085664 
L 198.016659 187.783321 
L 198.17526 202.243672 
L 198.33386 135.842407 
L 198.49246 186.786056 
L 198.65106 166.757639 
L 198.80966 165.843479 
L 199.126861 169.583225 
L 199.761261 138.003149 
L 199.919861 154.707347 
L 200.554262 106.090652 
L 200.712862 112.240456 
L 200.871462 85.314286 
L 201.030063 86.145341 
L 201.188663 92.378251 
L 201.347263 53.568 
L 201.505863 74.510576 
L 201.664463 79.58001 
L 201.823063 73.430205 
L 201.981664 77.00374 
L 202.140264 76.255791 
L 202.298864 73.679522 
L 202.933265 120.96653 
L 203.091865 125.53733 
L 203.250465 121.714479 
L 203.726265 197.839082 
L 204.043466 213.296698 
L 204.202066 211.219061 
L 204.519266 237.147966 
L 204.677867 231.330583 
L 205.153667 256.345327 
L 205.312267 258.339858 
L 205.470867 258.67228 
L 205.629468 268.229408 
L 205.788068 266.151772 
L 205.946668 244.21193 
L 206.263868 279.448646 
L 206.422468 261.24855 
L 206.581069 267.813881 
L 206.739669 280.196595 
L 206.898269 278.534486 
L 207.056869 268.063198 
L 207.215469 268.063198 
L 207.374069 263.658608 
L 207.53267 283.437708 
L 207.69127 250.860367 
L 207.84987 274.129896 
L 208.00847 264.90519 
L 208.32567 282.939075 
L 208.484271 269.309779 
L 208.642871 276.041322 
L 208.801471 274.628529 
L 208.960071 271.054994 
L 209.118671 276.789271 
L 209.277271 267.564565 
L 209.435872 279.531751 
L 209.594472 276.041322 
L 209.753072 283.188392 
L 209.911672 272.467787 
L 210.070272 274.711634 
L 210.228872 285.432239 
L 210.387473 281.858704 
L 210.546073 272.800209 
L 210.863273 277.53722 
L 211.021873 270.473256 
L 211.339074 274.545424 
L 211.656274 288.839563 
L 211.814874 267.896987 
L 211.973474 279.282435 
L 212.132074 281.110755 
L 212.290675 276.207533 
L 212.449275 281.609388 
L 212.766475 271.1381 
L 212.925075 283.105286 
L 213.083675 273.215736 
L 213.242276 277.869642 
L 213.559476 266.484194 
L 213.718076 284.019446 
L 213.876676 281.94181 
L 214.035276 276.207533 
L 214.193877 275.127162 
L 214.352477 274.877845 
L 214.511077 271.221205 
L 214.669677 290.252356 
L 214.828277 277.204798 
L 214.986877 286.845032 
L 215.145478 284.518079 
L 215.462678 272.135365 
L 215.621278 270.307045 
L 215.779878 281.193861 
L 215.938478 279.282435 
L 216.097079 273.381947 
L 216.255679 280.695228 
L 216.414279 280.861439 
L 216.572879 291.000305 
L 216.731479 267.64767 
L 216.890079 288.257825 
L 217.04868 271.802943 
L 217.20728 272.633998 
L 217.52448 281.02765 
L 217.68308 276.124427 
L 217.841681 264.323452 
L 218.000281 282.689759 
L 218.158881 283.437708 
L 218.317481 272.05226 
L 218.476081 283.936341 
L 218.634681 282.689759 
L 218.793282 283.936341 
L 218.951882 278.118958 
L 219.110482 278.45138 
L 219.269082 287.676087 
L 219.427682 265.81935 
L 219.586282 284.601184 
L 219.744883 269.143569 
L 219.903483 275.958216 
L 220.062083 291.083411 
L 220.379283 266.234877 
L 220.537883 264.157241 
L 220.855084 285.930872 
L 221.013684 269.974623 
L 221.172284 277.952748 
L 221.330884 269.891518 
L 221.648085 276.539955 
L 221.806685 277.869642 
L 221.965285 283.603919 
L 222.123885 273.797474 
L 222.282485 277.869642 
L 222.441085 238.643864 
L 222.599686 280.944544 
L 222.758286 284.102552 
L 222.916886 249.946207 
L 223.075486 278.368275 
L 223.392686 265.486928 
L 223.551287 273.963685 
L 223.709887 273.298842 
L 223.868487 274.129896 
L 224.027087 283.520813 
L 224.185687 264.90519 
L 224.502888 272.301576 
L 224.661488 285.349134 
L 224.820088 279.199329 
L 224.978688 284.767395 
L 225.137288 269.642201 
L 225.295888 286.595716 
L 225.613089 272.467787 
L 225.771689 274.545424 
L 225.930289 283.853235 
L 226.088889 282.606653 
L 226.247489 285.349134 
L 226.40609 290.9172 
L 226.56469 261.913393 
L 226.88189 287.509876 
L 227.19909 281.775599 
L 227.357691 272.05226 
L 227.674891 279.614857 
L 227.833491 267.481459 
L 227.992091 276.706166 
L 228.150691 273.132631 
L 228.309292 260.168179 
L 228.626492 288.673352 
L 228.785092 270.639467 
L 228.943692 268.56183 
L 229.102292 269.392885 
L 229.260893 286.180188 
L 229.419493 273.215736 
L 229.578093 269.642201 
L 229.736693 287.509876 
L 229.895293 281.526282 
L 230.053894 258.173648 
L 230.212494 278.202064 
L 230.371094 266.234877 
L 230.529694 267.730776 
L 230.846894 294.158313 
L 231.005495 277.121693 
L 231.164095 291.748254 
L 231.322695 277.038587 
L 231.481295 283.271497 
L 231.639895 277.703431 
L 231.798495 282.274232 
L 232.115696 262.328921 
L 232.432896 288.257825 
L 232.591496 287.925403 
L 232.750096 254.10148 
L 232.908697 281.609388 
L 233.067297 266.982827 
L 233.543097 293.327258 
L 233.701697 266.567299 
L 233.860298 284.268763 
L 234.018898 281.360071 
L 234.177498 280.778333 
L 234.336098 259.004702 
L 234.653298 287.592981 
L 234.811899 277.952748 
L 234.970499 281.193861 
L 235.129099 276.706166 
L 235.287699 283.77013 
L 235.446299 280.11349 
L 235.604899 287.260559 
L 235.7635 270.805678 
L 235.9221 281.110755 
L 236.0807 279.199329 
L 236.2393 254.932535 
L 236.5565 282.440442 
L 236.715101 279.697962 
L 236.873701 274.296107 
L 237.032301 286.845032 
L 237.190901 269.392885 
L 237.349501 281.276966 
L 237.666702 265.320717 
L 237.825302 271.886049 
L 237.983902 152.712816 
L 238.142502 287.842297 
L 238.301102 280.944544 
L 238.459702 287.592981 
L 238.618303 267.564565 
L 238.776903 284.268763 
L 238.935503 269.891518 
L 239.094103 283.853235 
L 239.252703 276.539955 
L 239.411303 284.019446 
L 239.569904 279.116224 
L 239.728504 280.030384 
L 240.045704 285.432239 
L 240.204304 260.5006 
L 240.362904 273.215736 
L 240.521505 263.824819 
L 240.680105 262.245815 
L 240.838705 278.617591 
L 240.997305 276.872377 
L 241.155905 284.268763 
L 241.314505 275.459584 
L 241.473106 283.188392 
L 241.631706 267.813881 
L 241.948906 277.454115 
L 242.107506 283.687024 
L 242.424707 253.602847 
L 242.583307 284.933606 
L 242.741907 259.254019 
L 242.900507 282.606653 
L 243.059107 267.64767 
L 243.217708 285.016712 
L 243.376308 284.019446 
L 243.534908 265.902456 
L 243.693508 285.764661 
L 243.852108 275.044056 
L 244.010708 275.7089 
L 244.169309 269.226674 
L 244.327909 282.024915 
L 244.486509 281.858704 
L 244.645109 272.218471 
L 244.803709 284.933606 
L 244.962309 282.689759 
L 245.27951 281.692493 
L 245.59671 264.655874 
L 245.75531 277.620326 
L 245.91391 276.373744 
L 246.072511 283.105286 
L 246.231111 262.993764 
L 246.389711 287.509876 
L 246.706911 272.633998 
L 246.865511 265.320717 
L 247.024112 285.349134 
L 247.341312 278.45138 
L 247.499912 281.858704 
L 247.658512 274.628529 
L 247.817112 288.839563 
L 247.975713 271.802943 
L 248.134313 291.748254 
L 248.292913 268.478725 
L 248.451513 278.45138 
L 248.610113 276.872377 
L 248.768713 279.864173 
L 248.927314 277.038587 
L 249.085914 282.108021 
L 249.244514 276.456849 
L 249.403114 279.781068 
L 249.561714 260.666811 
L 249.878915 292.413098 
L 250.037515 286.595716 
L 250.196115 257.675015 
L 250.354715 278.285169 
L 250.513315 279.864173 
L 250.671915 286.263294 
L 250.989116 267.232143 
L 251.147716 277.038587 
L 251.306316 272.467787 
L 251.464916 271.304311 
L 251.782117 277.952748 
L 251.940717 272.883314 
L 252.099317 287.343665 
L 252.257917 278.783802 
L 252.416517 263.07687 
L 252.575117 290.335461 
L 252.733718 270.888783 
L 252.892318 273.298842 
L 253.050918 283.188392 
L 253.209518 269.642201 
L 253.526718 281.692493 
L 253.685319 273.215736 
L 254.002519 289.088879 
L 254.161119 275.127162 
L 254.319719 272.633998 
L 254.478319 281.193861 
L 254.63692 268.728041 
L 254.95412 283.105286 
L 255.27132 280.695228 
L 255.429921 282.939075 
L 255.747121 264.988295 
L 255.905721 287.094348 
L 256.064321 279.116224 
L 256.222921 277.371009 
L 256.381522 279.781068 
L 256.540122 292.163782 
L 256.698722 284.268763 
L 256.857322 268.478725 
L 257.015922 264.822085 
L 257.333123 288.424036 
L 257.491723 281.193861 
L 257.650323 279.697962 
L 257.808923 271.470521 
L 257.967523 287.177454 
L 258.126123 278.783802 
L 258.284724 261.082339 
L 258.443324 278.285169 
L 258.601924 279.448646 
L 258.760524 281.526282 
L 258.919124 278.035853 
L 259.077724 292.994836 
L 259.236325 283.853235 
L 259.394925 285.515345 
L 259.553525 270.556361 
L 259.712125 272.96642 
L 260.029325 285.349134 
L 260.346526 275.625795 
L 260.505126 278.45138 
L 260.663726 245.624723 
L 260.822326 289.504407 
L 260.980926 279.947279 
L 261.139527 278.368275 
L 261.456727 281.193861 
L 261.615327 285.099817 
L 261.773927 262.910659 
L 261.932527 288.091614 
L 262.091128 287.177454 
L 262.249728 284.68429 
L 262.408328 277.204798 
L 262.566928 285.432239 
L 262.884128 288.756458 
L 263.042729 248.699625 
L 263.201329 291.748254 
L 263.359929 272.800209 
L 263.518529 268.478725 
L 263.677129 275.459584 
L 263.835729 266.650405 
L 263.99433 271.1381 
L 264.31153 288.507141 
L 264.47013 286.097083 
L 264.62873 293.576574 
L 264.945931 281.360071 
L 265.104531 283.105286 
L 265.263131 278.783802 
L 265.421731 261.996499 
L 265.738931 282.939075 
L 265.897532 281.443177 
L 266.056132 269.226674 
L 266.214732 279.781068 
L 266.373332 282.440442 
L 266.531932 269.891518 
L 266.690532 284.933606 
L 266.849133 249.447574 
L 267.007733 287.011243 
L 267.166333 266.401088 
L 267.324933 287.676087 
L 267.483533 284.850501 
L 267.642133 286.928137 
L 267.959334 267.896987 
L 268.117934 264.822085 
L 268.276534 257.425698 
L 268.593735 285.182923 
L 268.752335 274.379213 
L 268.910935 289.25509 
L 269.069535 274.960951 
L 269.228135 278.534486 
L 269.386735 259.58644 
L 269.545336 279.781068 
L 269.703936 276.62306 
L 269.862536 267.813881 
L 270.021136 269.974623 
L 270.179736 261.331655 
L 270.338336 282.357337 
L 270.496937 282.772864 
L 270.655537 280.778333 
L 270.814137 281.775599 
L 270.972737 278.285169 
L 271.131337 277.53722 
L 271.448538 286.263294 
L 271.607138 274.711634 
L 271.765738 283.188392 
L 271.924338 272.384682 
L 272.082938 271.969154 
L 272.241538 285.099817 
L 272.400139 281.692493 
L 272.558739 281.775599 
L 272.717339 285.432239 
L 272.875939 283.354603 
L 273.034539 279.199329 
L 273.193139 281.276966 
L 273.35174 281.360071 
L 273.51034 268.312514 
L 273.66894 283.687024 
L 273.82754 269.559096 
L 273.98614 270.888783 
L 274.14474 289.088879 
L 274.303341 286.845032 
L 274.461941 269.642201 
L 274.620541 281.02765 
L 274.779141 283.354603 
L 274.937741 269.891518 
L 275.096341 275.459584 
L 275.254942 286.013977 
L 275.413542 268.977358 
L 275.572142 282.191126 
L 275.730742 271.221205 
L 275.889342 287.759192 
L 276.047942 277.038587 
L 276.206543 282.523548 
L 276.365143 275.044056 
L 276.682343 288.174719 
L 276.999543 276.789271 
L 277.316744 281.775599 
L 277.475344 276.706166 
L 277.633944 263.492397 
L 277.951144 279.864173 
L 278.109745 288.424036 
L 278.268345 258.173648 
L 278.585545 286.595716 
L 278.744145 281.360071 
L 278.902745 286.013977 
L 279.061346 261.331655 
L 279.219946 282.108021 
L 279.378546 285.016712 
L 279.537146 265.570034 
L 279.695746 284.185657 
L 280.012947 280.944544 
L 280.171547 277.952748 
L 280.330147 261.830288 
L 280.647347 286.51261 
L 280.805948 286.013977 
L 280.964548 271.221205 
L 281.123148 280.2797 
L 281.281748 279.199329 
L 281.440348 269.143569 
L 281.598948 266.899721 
L 281.757549 268.811147 
L 281.916149 280.529017 
L 282.074749 270.22394 
L 282.391949 276.955482 
L 282.550549 286.678821 
L 282.70915 268.312514 
L 282.86775 279.864173 
L 283.02635 279.116224 
L 283.18495 285.432239 
L 283.34355 272.467787 
L 283.50215 272.96642 
L 283.660751 285.515345 
L 283.819351 274.711634 
L 283.977951 274.462318 
L 284.136551 288.174719 
L 284.295151 261.165444 
L 284.453751 285.59845 
L 284.612352 284.850501 
L 284.770952 282.274232 
L 284.929552 277.121693 
L 285.088152 284.518079 
L 285.405352 287.592981 
L 285.563953 281.692493 
L 286.039753 291.498938 
L 286.515554 271.387416 
L 286.674154 286.928137 
L 286.991354 264.822085 
L 287.149954 273.381947 
L 287.308554 263.409292 
L 287.467155 270.722572 
L 287.625755 272.301576 
L 287.784355 263.658608 
L 287.942955 266.317983 
L 288.101555 262.993764 
L 288.260155 270.639467 
L 288.418756 285.266028 
L 288.735956 275.127162 
L 288.894556 253.935269 
L 289.053156 278.866908 
L 289.211756 279.781068 
L 289.370357 277.038587 
L 289.528957 277.786537 
L 289.687557 282.024915 
L 289.846157 275.958216 
L 290.004757 276.207533 
L 290.163357 280.529017 
L 290.480558 263.575503 
L 290.639158 284.268763 
L 290.797758 287.343665 
L 290.956358 270.639467 
L 291.114958 285.847766 
L 291.273559 282.606653 
L 291.432159 282.024915 
L 291.590759 287.260559 
L 291.907959 264.157241 
L 292.066559 294.241418 
L 292.22516 281.193861 
L 292.38376 285.266028 
L 292.54236 252.356265 
L 292.70096 279.614857 
L 292.85956 279.033119 
L 293.018161 274.462318 
L 293.176761 278.534486 
L 293.335361 276.872377 
L 293.493961 285.930872 
L 293.652561 282.440442 
L 293.969762 271.387416 
L 294.286962 286.51261 
L 294.445562 267.481459 
L 294.604162 279.36554 
L 294.762762 274.711634 
L 294.921363 287.011243 
L 295.079963 256.096011 
L 295.238563 261.580971 
L 295.397163 281.276966 
L 295.555763 271.802943 
L 295.714363 286.761926 
L 295.872964 277.869642 
L 296.031564 277.287904 
L 296.190164 276.124427 
L 296.348764 280.612122 
L 296.665964 274.379213 
L 296.824565 277.952748 
L 296.983165 270.888783 
L 297.141765 268.811147 
L 297.300365 293.742785 
L 297.617565 267.564565 
L 297.776166 264.738979 
L 298.093366 281.443177 
L 298.251966 259.087808 
L 298.410566 275.459584 
L 298.569166 275.542689 
L 298.727767 276.789271 
L 298.886367 251.026578 
L 299.044967 285.182923 
L 299.203567 265.486928 
L 299.362167 264.157241 
L 299.679368 281.276966 
L 299.837968 281.609388 
L 299.996568 266.317983 
L 300.313768 290.834094 
L 300.472368 282.523548 
L 300.630969 284.850501 
L 300.789569 263.907924 
L 300.948169 264.572768 
L 301.106769 287.592981 
L 301.265369 266.401088 
L 301.423969 261.497866 
L 301.58257 283.105286 
L 301.74117 279.199329 
L 301.89977 268.644936 
L 302.05837 281.276966 
L 302.21697 273.381947 
L 302.37557 285.847766 
L 302.534171 286.678821 
L 302.851371 265.486928 
L 303.009971 269.226674 
L 303.327171 286.180188 
L 303.485772 283.271497 
L 303.644372 287.177454 
L 303.802972 257.924331 
L 304.120172 292.74552 
L 304.278772 269.47599 
L 304.595973 284.185657 
L 304.754573 273.631263 
L 305.071773 283.271497 
L 305.388974 275.792005 
L 305.547574 288.507141 
L 305.706174 280.612122 
L 305.864774 287.177454 
L 306.023374 277.703431 
L 306.181975 281.609388 
L 306.499175 273.132631 
L 306.657775 279.614857 
L 306.816375 268.728041 
L 306.974975 283.520813 
L 307.133576 285.266028 
L 307.292176 269.559096 
L 307.450776 271.969154 
L 307.767976 284.518079 
L 307.926576 273.465053 
L 308.085177 279.116224 
L 308.243777 271.886049 
L 308.402377 274.877845 
L 308.560977 272.218471 
L 308.719577 266.151772 
L 308.878177 276.706166 
L 309.036778 274.545424 
L 309.195378 277.620326 
L 309.353978 258.007437 
L 309.512578 284.019446 
L 309.671178 272.467787 
L 309.829778 274.545424 
L 309.988379 271.304311 
L 310.146979 287.260559 
L 310.305579 277.703431 
L 310.464179 288.174719 
L 310.781379 272.218471 
L 310.93998 232.577165 
L 311.09858 279.531751 
L 311.25718 278.118958 
L 311.41578 290.16925 
L 311.57438 279.864173 
L 311.73298 260.251284 
L 312.050181 290.335461 
L 312.208781 282.191126 
L 312.367381 264.489663 
L 312.525981 279.864173 
L 312.684581 280.529017 
L 312.843182 255.763589 
L 313.001782 277.287904 
L 313.160382 281.443177 
L 313.318982 289.836829 
L 313.477582 272.96642 
L 313.636182 291.83136 
L 313.953383 278.534486 
L 314.111983 278.783802 
L 314.270583 267.232143 
L 314.429183 266.151772 
L 314.587783 277.786537 
L 314.746384 278.866908 
L 314.904984 256.511538 
L 315.380784 281.360071 
L 315.539384 260.749917 
L 315.856585 275.542689 
L 316.015185 274.545424 
L 316.173785 260.666811 
L 316.490985 289.587512 
L 316.649586 278.950013 
L 316.808186 284.351868 
L 316.966786 262.328921 
L 317.283986 281.110755 
L 317.442586 280.030384 
L 317.601187 279.947279 
L 317.759787 281.360071 
L 318.076987 277.620326 
L 318.235587 276.706166 
L 318.394188 281.94181 
L 318.552788 282.85597 
L 318.711388 269.642201 
L 318.869988 265.81935 
L 319.028588 279.36554 
L 319.187188 263.07687 
L 319.504389 282.024915 
L 319.662989 262.079604 
L 319.821589 265.154506 
L 319.980189 265.736245 
L 320.138789 283.603919 
L 320.45599 266.484194 
L 320.61459 269.891518 
L 320.77319 283.022181 
L 320.93179 283.271497 
L 321.09039 285.016712 
L 321.248991 290.584778 
L 321.566191 265.653139 
L 321.724791 266.982827 
L 321.883391 279.36554 
L 322.041991 269.392885 
L 322.359192 290.00304 
L 322.517792 276.872377 
L 322.676392 276.041322 
L 322.834992 284.933606 
L 322.993592 284.850501 
L 323.152193 275.044056 
L 323.310793 274.79474 
L 323.627993 279.947279 
L 323.786593 272.05226 
L 323.945193 282.939075 
L 324.103794 260.251284 
L 324.262394 277.703431 
L 324.420994 255.181851 
L 324.579594 280.11349 
L 324.738194 280.445911 
L 324.896794 278.534486 
L 325.055395 282.523548 
L 325.213995 264.572768 
L 325.372595 283.022181 
L 325.531195 281.193861 
L 325.689795 277.620326 
L 325.848395 258.67228 
L 326.006996 285.930872 
L 326.165596 274.545424 
L 326.324196 284.434974 
L 326.482796 283.105286 
L 326.641396 280.11349 
L 326.799996 284.268763 
L 326.958597 270.307045 
L 327.117197 280.2797 
L 327.275797 281.193861 
L 327.434397 261.747182 
L 327.592997 265.570034 
L 327.751597 260.916128 
L 327.910198 279.36554 
L 328.068798 269.143569 
L 328.227398 280.030384 
L 328.544598 260.5006 
L 328.703198 278.700697 
L 328.861799 278.700697 
L 329.178999 280.445911 
L 329.337599 253.852164 
L 329.496199 289.088879 
L 329.654799 266.73351 
L 329.8134 286.097083 
L 329.972 279.36554 
L 330.1306 281.692493 
L 330.2892 281.858704 
L 330.4478 271.304311 
L 330.6064 285.681555 
L 330.765001 275.958216 
L 330.923601 275.792005 
L 331.082201 287.343665 
L 331.240801 269.309779 
L 331.399401 288.174719 
L 331.558002 266.484194 
L 331.716602 282.689759 
L 332.192402 274.379213 
L 332.351002 281.858704 
L 332.509603 266.899721 
L 332.826803 283.437708 
L 332.985403 273.797474 
L 333.302603 289.171985 
L 333.461204 270.888783 
L 333.619804 274.960951 
L 333.778404 268.644936 
L 334.095604 286.013977 
L 334.412805 282.357337 
L 334.571405 271.886049 
L 334.730005 290.00304 
L 334.888605 263.07687 
L 335.047205 270.722572 
L 335.205805 265.486928 
L 335.364406 278.534486 
L 335.523006 275.625795 
L 335.681606 281.443177 
L 335.840206 279.947279 
L 335.998806 273.88058 
L 336.157406 284.850501 
L 336.474607 274.877845 
L 336.633207 274.79474 
L 336.791807 283.105286 
L 336.950407 280.030384 
L 337.109007 273.049525 
L 337.267608 276.62306 
L 337.584808 291.000305 
L 337.902008 262.495132 
L 338.060608 273.631263 
L 338.219209 258.007437 
L 338.377809 276.62306 
L 338.536409 280.695228 
L 338.695009 272.550892 
L 338.853609 289.171985 
L 339.012209 279.033119 
L 339.17081 285.182923 
L 339.32941 273.88058 
L 339.48801 275.625795 
L 339.64661 278.617591 
L 339.96381 263.575503 
L 340.122411 272.135365 
L 340.281011 266.567299 
L 340.439611 266.899721 
L 340.598211 285.016712 
L 340.915411 273.88058 
L 341.074012 283.022181 
L 341.232612 271.719838 
L 341.391212 282.440442 
L 341.549812 271.802943 
L 341.708412 276.789271 
L 341.867012 271.802943 
L 342.025613 272.800209 
L 342.184213 275.792005 
L 342.342813 262.827553 
L 342.501413 280.11349 
L 342.818613 266.484194 
L 342.977214 271.969154 
L 343.135814 267.232143 
L 343.294414 274.628529 
L 343.453014 268.811147 
L 343.611614 255.680484 
L 343.928815 276.62306 
L 344.087415 264.738979 
L 344.246015 281.775599 
L 344.404615 276.290638 
L 344.563215 278.035853 
L 344.721816 253.852164 
L 344.880416 281.02765 
L 345.039016 280.944544 
L 345.197616 278.950013 
L 345.514816 264.074135 
L 345.673417 284.601184 
L 345.990617 278.035853 
L 346.149217 266.317983 
L 346.307817 267.980092 
L 346.625018 282.772864 
L 346.783618 283.936341 
L 346.942218 276.539955 
L 347.100818 281.609388 
L 347.259418 270.22394 
L 347.418018 273.298842 
L 347.576619 286.097083 
L 347.893819 255.264956 
L 348.052419 278.783802 
L 348.211019 267.564565 
L 348.369619 265.403823 
L 348.52822 278.783802 
L 348.68682 280.861439 
L 349.00402 258.007437 
L 349.16262 260.33439 
L 349.32122 275.958216 
L 349.479821 278.118958 
L 349.638421 282.939075 
L 349.955621 268.894252 
L 350.114221 272.96642 
L 350.272821 264.822085 
L 350.590022 284.68429 
L 350.907222 265.902456 
L 351.065822 292.246887 
L 351.224422 280.529017 
L 351.383023 286.678821 
L 351.858823 261.24855 
L 352.334624 281.02765 
L 352.493224 261.580971 
L 352.651824 272.800209 
L 352.810424 268.478725 
L 352.969024 270.057729 
L 353.127624 281.692493 
L 353.444825 252.023843 
L 353.603425 259.918862 
L 353.920625 282.274232 
L 354.079225 279.947279 
L 354.237826 281.94181 
L 354.555026 263.658608 
L 354.713626 282.939075 
L 355.030826 252.356265 
L 355.506627 280.778333 
L 355.665227 263.907924 
L 355.823827 274.711634 
L 355.982427 276.290638 
L 356.299628 282.108021 
L 356.458228 268.478725 
L 356.616828 282.772864 
L 356.775428 276.872377 
L 356.934029 278.118958 
L 357.092629 265.154506 
L 357.251229 269.226674 
L 357.409829 284.518079 
L 357.727029 263.159975 
L 357.88563 273.548158 
L 358.04423 274.877845 
L 358.20283 283.188392 
L 358.36143 278.783802 
L 358.52003 279.033119 
L 358.67863 274.711634 
L 358.837231 277.204798 
L 358.995831 274.877845 
L 359.154431 278.368275 
L 359.471631 268.811147 
L 359.630231 279.033119 
L 359.788832 276.124427 
L 360.106032 286.429505 
L 360.264632 273.631263 
L 360.423232 281.443177 
L 360.581832 275.958216 
L 360.740433 280.445911 
L 360.899033 258.422964 
L 361.057633 288.424036 
L 361.216233 251.275894 
L 361.374833 267.315248 
L 361.533433 266.317983 
L 361.692034 275.293373 
L 361.850634 269.891518 
L 362.009234 258.090542 
L 362.326434 276.290638 
L 362.485034 274.296107 
L 362.643635 274.046791 
L 362.802235 281.443177 
L 363.119435 269.309779 
L 363.278035 254.350796 
L 363.595236 273.797474 
L 363.753836 261.24855 
L 364.071036 281.94181 
L 364.388236 264.738979 
L 364.546837 278.783802 
L 364.705437 270.556361 
L 365.022637 279.282435 
L 365.181237 267.980092 
L 365.339837 265.403823 
L 365.498438 272.717103 
L 365.657038 267.980092 
L 365.815638 267.813881 
L 365.974238 268.56183 
L 366.132838 277.952748 
L 366.291438 252.190054 
L 366.450039 265.653139 
L 366.608639 268.56183 
L 366.767239 265.403823 
L 366.925839 284.019446 
L 367.40164 256.84396 
L 367.56024 275.127162 
L 367.71884 275.958216 
L 367.87744 267.315248 
L 368.03604 265.320717 
L 368.19464 268.146303 
L 368.511841 281.94181 
L 368.670441 280.944544 
L 368.829041 281.110755 
L 368.987641 264.655874 
L 369.304842 276.124427 
L 369.463442 264.988295 
L 369.780642 281.609388 
L 369.939242 276.456849 
L 370.097843 259.835757 
L 370.256443 272.550892 
L 370.415043 274.213002 
L 370.573643 277.287904 
L 370.732243 266.234877 
L 370.890843 278.202064 
L 371.049444 278.285169 
L 371.208044 268.395619 
L 371.366644 272.301576 
L 371.683844 263.409292 
L 371.842444 278.45138 
L 372.001045 262.827553 
L 372.318245 271.969154 
L 372.476845 272.633998 
L 372.635445 269.974623 
L 372.952646 279.531751 
L 373.111246 260.583706 
L 373.269846 284.019446 
L 373.428446 279.116224 
L 373.587046 282.689759 
L 373.904247 261.082339 
L 374.221447 275.210267 
L 374.380047 259.170913 
L 374.697247 278.617591 
L 374.855848 269.226674 
L 375.014448 273.714369 
L 375.331648 270.473256 
L 375.490248 272.135365 
L 375.648848 286.51261 
L 375.807449 263.824819 
L 375.966049 279.116224 
L 376.283249 268.146303 
L 376.441849 269.309779 
L 376.600449 269.226674 
L 376.75905 273.631263 
L 376.91765 268.146303 
L 377.07625 257.342593 
L 377.23485 277.038587 
L 377.39345 267.564565 
L 377.55205 279.947279 
L 377.710651 264.074135 
L 377.869251 274.79474 
L 378.027851 274.960951 
L 378.186451 270.888783 
L 378.345051 270.722572 
L 378.503651 262.744448 
L 378.662252 277.371009 
L 378.820852 269.559096 
L 378.979452 275.875111 
L 379.138052 264.240346 
L 379.296652 274.545424 
L 379.455252 274.79474 
L 379.613853 247.369937 
L 379.931053 270.057729 
L 380.089653 267.564565 
L 380.248253 275.293373 
L 380.406853 267.065932 
L 380.565454 266.068666 
L 380.724054 267.232143 
L 380.882654 272.717103 
L 381.041254 258.589175 
L 381.199854 267.065932 
L 381.517055 254.600113 
L 381.675655 265.320717 
L 381.834255 262.16271 
L 381.992855 275.792005 
L 382.310056 256.594644 
L 382.468656 269.309779 
L 382.627256 265.81935 
L 382.785856 256.511538 
L 382.944456 267.232143 
L 383.103056 245.375406 
L 383.261657 262.993764 
L 383.420257 259.170913 
L 383.578857 269.974623 
L 383.737457 268.56183 
L 383.896057 269.642201 
L 384.054657 254.849429 
L 384.371858 268.894252 
L 384.530458 266.816616 
L 384.689058 259.503335 
L 384.847658 232.909587 
L 385.006258 264.738979 
L 385.164859 245.292301 
L 385.323459 268.478725 
L 385.482059 271.969154 
L 385.957859 253.685953 
L 386.11646 263.658608 
L 386.27506 260.583706 
L 386.43366 264.572768 
L 386.59226 258.339858 
L 386.75086 260.085073 
L 386.90946 265.320717 
L 387.068061 259.58644 
L 387.226661 259.420229 
L 387.385261 250.527945 
L 387.543861 264.074135 
L 387.702461 266.317983 
L 387.861061 252.938003 
L 388.019662 270.140834 
L 388.178262 256.927066 
L 388.336862 263.409292 
L 388.495462 257.924331 
L 388.654062 258.173648 
L 388.812662 265.071401 
L 389.129863 253.935269 
L 389.288463 256.927066 
L 389.447063 249.530679 
L 389.605663 264.822085 
L 389.764263 255.181851 
L 389.922864 254.849429 
L 390.081464 250.361734 
L 390.240064 264.489663 
L 390.398664 239.059391 
L 390.557264 256.84396 
L 390.715864 247.785465 
L 390.874465 247.037516 
L 391.033065 248.200992 
L 391.191665 247.951676 
L 391.350265 257.75812 
L 391.508865 218.366131 
L 391.667465 233.242009 
L 391.826066 259.918862 
L 392.301866 239.308708 
L 392.460466 257.841226 
L 392.619066 247.86857 
L 392.777667 246.705094 
L 392.936267 244.378141 
L 393.094867 253.353531 
L 393.412067 236.1507 
L 393.729268 251.275894 
L 393.887868 235.485856 
L 394.046468 250.361734 
L 394.363668 239.724235 
L 394.680869 246.123356 
L 394.839469 242.217399 
L 394.998069 248.284098 
L 395.156669 240.970817 
L 395.315269 222.105877 
L 395.47387 234.405485 
L 395.63247 226.26115 
L 395.79107 245.874039 
L 395.94967 240.305973 
L 396.26687 219.280291 
L 396.425471 240.55529 
L 396.584071 222.355193 
L 396.742671 218.864764 
L 396.901271 236.566227 
L 397.059871 212.465643 
L 397.218471 227.424627 
L 397.377072 229.086736 
L 397.535672 207.811738 
L 397.694272 218.033709 
L 397.852872 199.916719 
L 398.170072 209.889374 
L 398.328673 198.005293 
L 398.487273 204.736835 
L 398.487273 204.736835 
" style="fill:none;stroke:#1f77b4;stroke-linecap:square;stroke-width:1.5;"/>
   </g>
   <g id="patch_3">
    <path d="M 57.6 307.584 
L 57.6 41.472 
" style="fill:none;stroke:#000000;stroke-linecap:square;stroke-linejoin:miter;stroke-width:0.8;"/>
   </g>
   <g id="patch_4">
    <path d="M 414.72 307.584 
L 414.72 41.472 
" style="fill:none;stroke:#000000;stroke-linecap:square;stroke-linejoin:miter;stroke-width:0.8;"/>
   </g>
   <g id="patch_5">
    <path d="M 57.6 307.584 
L 414.72 307.584 
" style="fill:none;stroke:#000000;stroke-linecap:square;stroke-linejoin:miter;stroke-width:0.8;"/>
   </g>
   <g id="patch_6">
    <path d="M 57.6 41.472 
L 414.72 41.472 
" style="fill:none;stroke:#000000;stroke-linecap:square;stroke-linejoin:miter;stroke-width:0.8;"/>
   </g>
   <g id="text_15">
    <!-- Raw signal -->
    <g transform="translate(203.8875 35.472)scale(0.12 -0.12)">
     <defs>
      <path d="M 2841 2188 
Q 3044 2119 3236 1894 
Q 3428 1669 3622 1275 
L 4263 0 
L 3584 0 
L 2988 1197 
Q 2756 1666 2539 1819 
Q 2322 1972 1947 1972 
L 1259 1972 
L 1259 0 
L 628 0 
L 628 4666 
L 2053 4666 
Q 2853 4666 3247 4331 
Q 3641 3997 3641 3322 
Q 3641 2881 3436 2590 
Q 3231 2300 2841 2188 
z
M 1259 4147 
L 1259 2491 
L 2053 2491 
Q 2509 2491 2742 2702 
Q 2975 2913 2975 3322 
Q 2975 3731 2742 3939 
Q 2509 4147 2053 4147 
L 1259 4147 
z
" id="DejaVuSans-52" transform="scale(0.015625)"/>
      <path d="M 269 3500 
L 844 3500 
L 1563 769 
L 2278 3500 
L 2956 3500 
L 3675 769 
L 4391 3500 
L 4966 3500 
L 4050 0 
L 3372 0 
L 2619 2869 
L 1863 0 
L 1184 0 
L 269 3500 
z
" id="DejaVuSans-77" transform="scale(0.015625)"/>
      <path d="M 603 3500 
L 1178 3500 
L 1178 0 
L 603 0 
L 603 3500 
z
M 603 4863 
L 1178 4863 
L 1178 4134 
L 603 4134 
L 603 4863 
z
" id="DejaVuSans-69" transform="scale(0.015625)"/>
     </defs>
     <use xlink:href="#DejaVuSans-52"/>
     <use x="67.232422" xlink:href="#DejaVuSans-61"/>
     <use x="128.511719" xlink:href="#DejaVuSans-77"/>
     <use x="210.298828" xlink:href="#DejaVuSans-20"/>
     <use x="242.085938" xlink:href="#DejaVuSans-73"/>
     <use x="294.185547" xlink:href="#DejaVuSans-69"/>
     <use x="321.96875" xlink:href="#DejaVuSans-67"/>
     <use x="385.445312" xlink:href="#DejaVuSans-6e"/>
     <use x="448.824219" xlink:href="#DejaVuSans-61"/>
     <use x="510.103516" xlink:href="#DejaVuSans-6c"/>
    </g>
   </g>
  </g>
 </g>
 <defs>
  <clipPath id="p4a49aa142e">
   <rect height="266.112" width="357.12" x="57.6" y="41.472"/>
  </clipPath>
 </defs>
</svg>
