<?xml version="1.0" encoding="utf-8" standalone="no"?>
<!DOCTYPE svg PUBLIC "-//W3C//DTD SVG 1.1//EN"
  "http://www.w3.org/Graphics/SVG/1.1/DTD/svg11.dtd">
<svg height="345.6pt" version="1.1" viewBox="0 0 460.8 345.6" width="460.8pt" xmlns="http://www.w3.org/2000/svg" xmlns:xlink="http://www.w3.org/1999/xlink">
 <metadata>
  <rdf:RDF xmlns:cc="http://creativecommons.org/ns#" xmlns:dc="http://purl.org/dc/elements/1.1/" xmlns:rdf="http://www.w3.org/1999/02/22-rdf-syntax-ns#">
   <cc:Work>
    <dc:type rdf:resource="http://purl.org/dc/dcmitype/StillImage"/>
    <dc:date>2022-06-03T23:56:26.974584</dc:date>
    <dc:format>image/svg+xml</dc:format>
    <dc:creator>
     <cc:Agent>
      <dc:title>Matplotlib v3.4.1, https://matplotlib.org/</dc:title>
     </cc:Agent>
    </dc:creator>
   </cc:Work>
  </rdf:RDF>
 </metadata>
 <defs>
  <style type="text/css">*{stroke-linecap:butt;stroke-linejoin:round;}</style>
 </defs>
 <g id="figure_1">
  <g id="patch_1">
   <path d="M 0 345.6 
L 460.8 345.6 
L 460.8 0 
L 0 0 
z
" style="fill:#ffffff;"/>
  </g>
  <g id="axes_1">
   <g id="patch_2">
    <path d="M 57.6 307.584 
L 414.72 307.584 
L 414.72 41.472 
L 57.6 41.472 
z
" style="fill:#ffffff;"/>
   </g>
   <g id="matplotlib.axis_1">
    <g id="xtick_1">
     <g id="line2d_1">
      <defs>
       <path d="M 0 0 
L 0 3.5 
" id="mc79a336f14" style="stroke:#000000;stroke-width:0.8;"/>
      </defs>
      <g>
       <use style="stroke:#000000;stroke-width:0.8;" x="102.929605" xlink:href="#mc79a336f14" y="307.584"/>
      </g>
     </g>
     <g id="text_1">
      <!-- 400 -->
      <g transform="translate(93.385855 322.182437)scale(0.1 -0.1)">
       <defs>
        <path d="M 2419 4116 
L 825 1625 
L 2419 1625 
L 2419 4116 
z
M 2253 4666 
L 3047 4666 
L 3047 1625 
L 3713 1625 
L 3713 1100 
L 3047 1100 
L 3047 0 
L 2419 0 
L 2419 1100 
L 313 1100 
L 313 1709 
L 2253 4666 
z
" id="DejaVuSans-34" transform="scale(0.015625)"/>
        <path d="M 2034 4250 
Q 1547 4250 1301 3770 
Q 1056 3291 1056 2328 
Q 1056 1369 1301 889 
Q 1547 409 2034 409 
Q 2525 409 2770 889 
Q 3016 1369 3016 2328 
Q 3016 3291 2770 3770 
Q 2525 4250 2034 4250 
z
M 2034 4750 
Q 2819 4750 3233 4129 
Q 3647 3509 3647 2328 
Q 3647 1150 3233 529 
Q 2819 -91 2034 -91 
Q 1250 -91 836 529 
Q 422 1150 422 2328 
Q 422 3509 836 4129 
Q 1250 4750 2034 4750 
z
" id="DejaVuSans-30" transform="scale(0.015625)"/>
       </defs>
       <use xlink:href="#DejaVuSans-34"/>
       <use x="63.623047" xlink:href="#DejaVuSans-30"/>
       <use x="127.246094" xlink:href="#DejaVuSans-30"/>
      </g>
     </g>
    </g>
    <g id="xtick_2">
     <g id="line2d_2">
      <g>
       <use style="stroke:#000000;stroke-width:0.8;" x="160.931952" xlink:href="#mc79a336f14" y="307.584"/>
      </g>
     </g>
     <g id="text_2">
      <!-- 600 -->
      <g transform="translate(151.388202 322.182437)scale(0.1 -0.1)">
       <defs>
        <path d="M 2113 2584 
Q 1688 2584 1439 2293 
Q 1191 2003 1191 1497 
Q 1191 994 1439 701 
Q 1688 409 2113 409 
Q 2538 409 2786 701 
Q 3034 994 3034 1497 
Q 3034 2003 2786 2293 
Q 2538 2584 2113 2584 
z
M 3366 4563 
L 3366 3988 
Q 3128 4100 2886 4159 
Q 2644 4219 2406 4219 
Q 1781 4219 1451 3797 
Q 1122 3375 1075 2522 
Q 1259 2794 1537 2939 
Q 1816 3084 2150 3084 
Q 2853 3084 3261 2657 
Q 3669 2231 3669 1497 
Q 3669 778 3244 343 
Q 2819 -91 2113 -91 
Q 1303 -91 875 529 
Q 447 1150 447 2328 
Q 447 3434 972 4092 
Q 1497 4750 2381 4750 
Q 2619 4750 2861 4703 
Q 3103 4656 3366 4563 
z
" id="DejaVuSans-36" transform="scale(0.015625)"/>
       </defs>
       <use xlink:href="#DejaVuSans-36"/>
       <use x="63.623047" xlink:href="#DejaVuSans-30"/>
       <use x="127.246094" xlink:href="#DejaVuSans-30"/>
      </g>
     </g>
    </g>
    <g id="xtick_3">
     <g id="line2d_3">
      <g>
       <use style="stroke:#000000;stroke-width:0.8;" x="218.9343" xlink:href="#mc79a336f14" y="307.584"/>
      </g>
     </g>
     <g id="text_3">
      <!-- 800 -->
      <g transform="translate(209.39055 322.182437)scale(0.1 -0.1)">
       <defs>
        <path d="M 2034 2216 
Q 1584 2216 1326 1975 
Q 1069 1734 1069 1313 
Q 1069 891 1326 650 
Q 1584 409 2034 409 
Q 2484 409 2743 651 
Q 3003 894 3003 1313 
Q 3003 1734 2745 1975 
Q 2488 2216 2034 2216 
z
M 1403 2484 
Q 997 2584 770 2862 
Q 544 3141 544 3541 
Q 544 4100 942 4425 
Q 1341 4750 2034 4750 
Q 2731 4750 3128 4425 
Q 3525 4100 3525 3541 
Q 3525 3141 3298 2862 
Q 3072 2584 2669 2484 
Q 3125 2378 3379 2068 
Q 3634 1759 3634 1313 
Q 3634 634 3220 271 
Q 2806 -91 2034 -91 
Q 1263 -91 848 271 
Q 434 634 434 1313 
Q 434 1759 690 2068 
Q 947 2378 1403 2484 
z
M 1172 3481 
Q 1172 3119 1398 2916 
Q 1625 2713 2034 2713 
Q 2441 2713 2670 2916 
Q 2900 3119 2900 3481 
Q 2900 3844 2670 4047 
Q 2441 4250 2034 4250 
Q 1625 4250 1398 4047 
Q 1172 3844 1172 3481 
z
" id="DejaVuSans-38" transform="scale(0.015625)"/>
       </defs>
       <use xlink:href="#DejaVuSans-38"/>
       <use x="63.623047" xlink:href="#DejaVuSans-30"/>
       <use x="127.246094" xlink:href="#DejaVuSans-30"/>
      </g>
     </g>
    </g>
    <g id="xtick_4">
     <g id="line2d_4">
      <g>
       <use style="stroke:#000000;stroke-width:0.8;" x="276.936647" xlink:href="#mc79a336f14" y="307.584"/>
      </g>
     </g>
     <g id="text_4">
      <!-- 1000 -->
      <g transform="translate(264.211647 322.182437)scale(0.1 -0.1)">
       <defs>
        <path d="M 794 531 
L 1825 531 
L 1825 4091 
L 703 3866 
L 703 4441 
L 1819 4666 
L 2450 4666 
L 2450 531 
L 3481 531 
L 3481 0 
L 794 0 
L 794 531 
z
" id="DejaVuSans-31" transform="scale(0.015625)"/>
       </defs>
       <use xlink:href="#DejaVuSans-31"/>
       <use x="63.623047" xlink:href="#DejaVuSans-30"/>
       <use x="127.246094" xlink:href="#DejaVuSans-30"/>
       <use x="190.869141" xlink:href="#DejaVuSans-30"/>
      </g>
     </g>
    </g>
    <g id="xtick_5">
     <g id="line2d_5">
      <g>
       <use style="stroke:#000000;stroke-width:0.8;" x="334.938995" xlink:href="#mc79a336f14" y="307.584"/>
      </g>
     </g>
     <g id="text_5">
      <!-- 1200 -->
      <g transform="translate(322.213995 322.182437)scale(0.1 -0.1)">
       <defs>
        <path d="M 1228 531 
L 3431 531 
L 3431 0 
L 469 0 
L 469 531 
Q 828 903 1448 1529 
Q 2069 2156 2228 2338 
Q 2531 2678 2651 2914 
Q 2772 3150 2772 3378 
Q 2772 3750 2511 3984 
Q 2250 4219 1831 4219 
Q 1534 4219 1204 4116 
Q 875 4013 500 3803 
L 500 4441 
Q 881 4594 1212 4672 
Q 1544 4750 1819 4750 
Q 2544 4750 2975 4387 
Q 3406 4025 3406 3419 
Q 3406 3131 3298 2873 
Q 3191 2616 2906 2266 
Q 2828 2175 2409 1742 
Q 1991 1309 1228 531 
z
" id="DejaVuSans-32" transform="scale(0.015625)"/>
       </defs>
       <use xlink:href="#DejaVuSans-31"/>
       <use x="63.623047" xlink:href="#DejaVuSans-32"/>
       <use x="127.246094" xlink:href="#DejaVuSans-30"/>
       <use x="190.869141" xlink:href="#DejaVuSans-30"/>
      </g>
     </g>
    </g>
    <g id="xtick_6">
     <g id="line2d_6">
      <g>
       <use style="stroke:#000000;stroke-width:0.8;" x="392.941342" xlink:href="#mc79a336f14" y="307.584"/>
      </g>
     </g>
     <g id="text_6">
      <!-- 1400 -->
      <g transform="translate(380.216342 322.182437)scale(0.1 -0.1)">
       <use xlink:href="#DejaVuSans-31"/>
       <use x="63.623047" xlink:href="#DejaVuSans-34"/>
       <use x="127.246094" xlink:href="#DejaVuSans-30"/>
       <use x="190.869141" xlink:href="#DejaVuSans-30"/>
      </g>
     </g>
    </g>
    <g id="text_7">
     <!-- Wavelength [nm] -->
     <g transform="translate(192.967812 335.860562)scale(0.1 -0.1)">
      <defs>
       <path d="M 213 4666 
L 850 4666 
L 1831 722 
L 2809 4666 
L 3519 4666 
L 4500 722 
L 5478 4666 
L 6119 4666 
L 4947 0 
L 4153 0 
L 3169 4050 
L 2175 0 
L 1381 0 
L 213 4666 
z
" id="DejaVuSans-57" transform="scale(0.015625)"/>
       <path d="M 2194 1759 
Q 1497 1759 1228 1600 
Q 959 1441 959 1056 
Q 959 750 1161 570 
Q 1363 391 1709 391 
Q 2188 391 2477 730 
Q 2766 1069 2766 1631 
L 2766 1759 
L 2194 1759 
z
M 3341 1997 
L 3341 0 
L 2766 0 
L 2766 531 
Q 2569 213 2275 61 
Q 1981 -91 1556 -91 
Q 1019 -91 701 211 
Q 384 513 384 1019 
Q 384 1609 779 1909 
Q 1175 2209 1959 2209 
L 2766 2209 
L 2766 2266 
Q 2766 2663 2505 2880 
Q 2244 3097 1772 3097 
Q 1472 3097 1187 3025 
Q 903 2953 641 2809 
L 641 3341 
Q 956 3463 1253 3523 
Q 1550 3584 1831 3584 
Q 2591 3584 2966 3190 
Q 3341 2797 3341 1997 
z
" id="DejaVuSans-61" transform="scale(0.015625)"/>
       <path d="M 191 3500 
L 800 3500 
L 1894 563 
L 2988 3500 
L 3597 3500 
L 2284 0 
L 1503 0 
L 191 3500 
z
" id="DejaVuSans-76" transform="scale(0.015625)"/>
       <path d="M 3597 1894 
L 3597 1613 
L 953 1613 
Q 991 1019 1311 708 
Q 1631 397 2203 397 
Q 2534 397 2845 478 
Q 3156 559 3463 722 
L 3463 178 
Q 3153 47 2828 -22 
Q 2503 -91 2169 -91 
Q 1331 -91 842 396 
Q 353 884 353 1716 
Q 353 2575 817 3079 
Q 1281 3584 2069 3584 
Q 2775 3584 3186 3129 
Q 3597 2675 3597 1894 
z
M 3022 2063 
Q 3016 2534 2758 2815 
Q 2500 3097 2075 3097 
Q 1594 3097 1305 2825 
Q 1016 2553 972 2059 
L 3022 2063 
z
" id="DejaVuSans-65" transform="scale(0.015625)"/>
       <path d="M 603 4863 
L 1178 4863 
L 1178 0 
L 603 0 
L 603 4863 
z
" id="DejaVuSans-6c" transform="scale(0.015625)"/>
       <path d="M 3513 2113 
L 3513 0 
L 2938 0 
L 2938 2094 
Q 2938 2591 2744 2837 
Q 2550 3084 2163 3084 
Q 1697 3084 1428 2787 
Q 1159 2491 1159 1978 
L 1159 0 
L 581 0 
L 581 3500 
L 1159 3500 
L 1159 2956 
Q 1366 3272 1645 3428 
Q 1925 3584 2291 3584 
Q 2894 3584 3203 3211 
Q 3513 2838 3513 2113 
z
" id="DejaVuSans-6e" transform="scale(0.015625)"/>
       <path d="M 2906 1791 
Q 2906 2416 2648 2759 
Q 2391 3103 1925 3103 
Q 1463 3103 1205 2759 
Q 947 2416 947 1791 
Q 947 1169 1205 825 
Q 1463 481 1925 481 
Q 2391 481 2648 825 
Q 2906 1169 2906 1791 
z
M 3481 434 
Q 3481 -459 3084 -895 
Q 2688 -1331 1869 -1331 
Q 1566 -1331 1297 -1286 
Q 1028 -1241 775 -1147 
L 775 -588 
Q 1028 -725 1275 -790 
Q 1522 -856 1778 -856 
Q 2344 -856 2625 -561 
Q 2906 -266 2906 331 
L 2906 616 
Q 2728 306 2450 153 
Q 2172 0 1784 0 
Q 1141 0 747 490 
Q 353 981 353 1791 
Q 353 2603 747 3093 
Q 1141 3584 1784 3584 
Q 2172 3584 2450 3431 
Q 2728 3278 2906 2969 
L 2906 3500 
L 3481 3500 
L 3481 434 
z
" id="DejaVuSans-67" transform="scale(0.015625)"/>
       <path d="M 1172 4494 
L 1172 3500 
L 2356 3500 
L 2356 3053 
L 1172 3053 
L 1172 1153 
Q 1172 725 1289 603 
Q 1406 481 1766 481 
L 2356 481 
L 2356 0 
L 1766 0 
Q 1100 0 847 248 
Q 594 497 594 1153 
L 594 3053 
L 172 3053 
L 172 3500 
L 594 3500 
L 594 4494 
L 1172 4494 
z
" id="DejaVuSans-74" transform="scale(0.015625)"/>
       <path d="M 3513 2113 
L 3513 0 
L 2938 0 
L 2938 2094 
Q 2938 2591 2744 2837 
Q 2550 3084 2163 3084 
Q 1697 3084 1428 2787 
Q 1159 2491 1159 1978 
L 1159 0 
L 581 0 
L 581 4863 
L 1159 4863 
L 1159 2956 
Q 1366 3272 1645 3428 
Q 1925 3584 2291 3584 
Q 2894 3584 3203 3211 
Q 3513 2838 3513 2113 
z
" id="DejaVuSans-68" transform="scale(0.015625)"/>
       <path id="DejaVuSans-20" transform="scale(0.015625)"/>
       <path d="M 550 4863 
L 1875 4863 
L 1875 4416 
L 1125 4416 
L 1125 -397 
L 1875 -397 
L 1875 -844 
L 550 -844 
L 550 4863 
z
" id="DejaVuSans-5b" transform="scale(0.015625)"/>
       <path d="M 3328 2828 
Q 3544 3216 3844 3400 
Q 4144 3584 4550 3584 
Q 5097 3584 5394 3201 
Q 5691 2819 5691 2113 
L 5691 0 
L 5113 0 
L 5113 2094 
Q 5113 2597 4934 2840 
Q 4756 3084 4391 3084 
Q 3944 3084 3684 2787 
Q 3425 2491 3425 1978 
L 3425 0 
L 2847 0 
L 2847 2094 
Q 2847 2600 2669 2842 
Q 2491 3084 2119 3084 
Q 1678 3084 1418 2786 
Q 1159 2488 1159 1978 
L 1159 0 
L 581 0 
L 581 3500 
L 1159 3500 
L 1159 2956 
Q 1356 3278 1631 3431 
Q 1906 3584 2284 3584 
Q 2666 3584 2933 3390 
Q 3200 3197 3328 2828 
z
" id="DejaVuSans-6d" transform="scale(0.015625)"/>
       <path d="M 1947 4863 
L 1947 -844 
L 622 -844 
L 622 -397 
L 1369 -397 
L 1369 4416 
L 622 4416 
L 622 4863 
L 1947 4863 
z
" id="DejaVuSans-5d" transform="scale(0.015625)"/>
      </defs>
      <use xlink:href="#DejaVuSans-57"/>
      <use x="92.501953" xlink:href="#DejaVuSans-61"/>
      <use x="153.78125" xlink:href="#DejaVuSans-76"/>
      <use x="212.960938" xlink:href="#DejaVuSans-65"/>
      <use x="274.484375" xlink:href="#DejaVuSans-6c"/>
      <use x="302.267578" xlink:href="#DejaVuSans-65"/>
      <use x="363.791016" xlink:href="#DejaVuSans-6e"/>
      <use x="427.169922" xlink:href="#DejaVuSans-67"/>
      <use x="490.646484" xlink:href="#DejaVuSans-74"/>
      <use x="529.855469" xlink:href="#DejaVuSans-68"/>
      <use x="593.234375" xlink:href="#DejaVuSans-20"/>
      <use x="625.021484" xlink:href="#DejaVuSans-5b"/>
      <use x="664.035156" xlink:href="#DejaVuSans-6e"/>
      <use x="727.414062" xlink:href="#DejaVuSans-6d"/>
      <use x="824.826172" xlink:href="#DejaVuSans-5d"/>
     </g>
    </g>
   </g>
   <g id="matplotlib.axis_2">
    <g id="ytick_1">
     <g id="line2d_7">
      <defs>
       <path d="M 0 0 
L -3.5 0 
" id="m5716ecc479" style="stroke:#000000;stroke-width:0.8;"/>
      </defs>
      <g>
       <use style="stroke:#000000;stroke-width:0.8;" x="57.6" xlink:href="#m5716ecc479" y="282.840347"/>
      </g>
     </g>
     <g id="text_8">
      <!-- 0 -->
      <g transform="translate(44.2375 286.639566)scale(0.1 -0.1)">
       <use xlink:href="#DejaVuSans-30"/>
      </g>
     </g>
    </g>
    <g id="ytick_2">
     <g id="line2d_8">
      <g>
       <use style="stroke:#000000;stroke-width:0.8;" x="57.6" xlink:href="#m5716ecc479" y="237.990514"/>
      </g>
     </g>
     <g id="text_9">
      <!-- 2000 -->
      <g transform="translate(25.15 241.789733)scale(0.1 -0.1)">
       <use xlink:href="#DejaVuSans-32"/>
       <use x="63.623047" xlink:href="#DejaVuSans-30"/>
       <use x="127.246094" xlink:href="#DejaVuSans-30"/>
       <use x="190.869141" xlink:href="#DejaVuSans-30"/>
      </g>
     </g>
    </g>
    <g id="ytick_3">
     <g id="line2d_9">
      <g>
       <use style="stroke:#000000;stroke-width:0.8;" x="57.6" xlink:href="#m5716ecc479" y="193.140681"/>
      </g>
     </g>
     <g id="text_10">
      <!-- 4000 -->
      <g transform="translate(25.15 196.9399)scale(0.1 -0.1)">
       <use xlink:href="#DejaVuSans-34"/>
       <use x="63.623047" xlink:href="#DejaVuSans-30"/>
       <use x="127.246094" xlink:href="#DejaVuSans-30"/>
       <use x="190.869141" xlink:href="#DejaVuSans-30"/>
      </g>
     </g>
    </g>
    <g id="ytick_4">
     <g id="line2d_10">
      <g>
       <use style="stroke:#000000;stroke-width:0.8;" x="57.6" xlink:href="#m5716ecc479" y="148.290848"/>
      </g>
     </g>
     <g id="text_11">
      <!-- 6000 -->
      <g transform="translate(25.15 152.090066)scale(0.1 -0.1)">
       <use xlink:href="#DejaVuSans-36"/>
       <use x="63.623047" xlink:href="#DejaVuSans-30"/>
       <use x="127.246094" xlink:href="#DejaVuSans-30"/>
       <use x="190.869141" xlink:href="#DejaVuSans-30"/>
      </g>
     </g>
    </g>
    <g id="ytick_5">
     <g id="line2d_11">
      <g>
       <use style="stroke:#000000;stroke-width:0.8;" x="57.6" xlink:href="#m5716ecc479" y="103.441014"/>
      </g>
     </g>
     <g id="text_12">
      <!-- 8000 -->
      <g transform="translate(25.15 107.240233)scale(0.1 -0.1)">
       <use xlink:href="#DejaVuSans-38"/>
       <use x="63.623047" xlink:href="#DejaVuSans-30"/>
       <use x="127.246094" xlink:href="#DejaVuSans-30"/>
       <use x="190.869141" xlink:href="#DejaVuSans-30"/>
      </g>
     </g>
    </g>
    <g id="ytick_6">
     <g id="line2d_12">
      <g>
       <use style="stroke:#000000;stroke-width:0.8;" x="57.6" xlink:href="#m5716ecc479" y="58.591181"/>
      </g>
     </g>
     <g id="text_13">
      <!-- 10000 -->
      <g transform="translate(18.7875 62.3904)scale(0.1 -0.1)">
       <use xlink:href="#DejaVuSans-31"/>
       <use x="63.623047" xlink:href="#DejaVuSans-30"/>
       <use x="127.246094" xlink:href="#DejaVuSans-30"/>
       <use x="190.869141" xlink:href="#DejaVuSans-30"/>
       <use x="254.492188" xlink:href="#DejaVuSans-30"/>
      </g>
     </g>
    </g>
    <g id="text_14">
     <!-- Counts -->
     <g transform="translate(12.707812 191.981125)rotate(-90)scale(0.1 -0.1)">
      <defs>
       <path d="M 4122 4306 
L 4122 3641 
Q 3803 3938 3442 4084 
Q 3081 4231 2675 4231 
Q 1875 4231 1450 3742 
Q 1025 3253 1025 2328 
Q 1025 1406 1450 917 
Q 1875 428 2675 428 
Q 3081 428 3442 575 
Q 3803 722 4122 1019 
L 4122 359 
Q 3791 134 3420 21 
Q 3050 -91 2638 -91 
Q 1578 -91 968 557 
Q 359 1206 359 2328 
Q 359 3453 968 4101 
Q 1578 4750 2638 4750 
Q 3056 4750 3426 4639 
Q 3797 4528 4122 4306 
z
" id="DejaVuSans-43" transform="scale(0.015625)"/>
       <path d="M 1959 3097 
Q 1497 3097 1228 2736 
Q 959 2375 959 1747 
Q 959 1119 1226 758 
Q 1494 397 1959 397 
Q 2419 397 2687 759 
Q 2956 1122 2956 1747 
Q 2956 2369 2687 2733 
Q 2419 3097 1959 3097 
z
M 1959 3584 
Q 2709 3584 3137 3096 
Q 3566 2609 3566 1747 
Q 3566 888 3137 398 
Q 2709 -91 1959 -91 
Q 1206 -91 779 398 
Q 353 888 353 1747 
Q 353 2609 779 3096 
Q 1206 3584 1959 3584 
z
" id="DejaVuSans-6f" transform="scale(0.015625)"/>
       <path d="M 544 1381 
L 544 3500 
L 1119 3500 
L 1119 1403 
Q 1119 906 1312 657 
Q 1506 409 1894 409 
Q 2359 409 2629 706 
Q 2900 1003 2900 1516 
L 2900 3500 
L 3475 3500 
L 3475 0 
L 2900 0 
L 2900 538 
Q 2691 219 2414 64 
Q 2138 -91 1772 -91 
Q 1169 -91 856 284 
Q 544 659 544 1381 
z
M 1991 3584 
L 1991 3584 
z
" id="DejaVuSans-75" transform="scale(0.015625)"/>
       <path d="M 2834 3397 
L 2834 2853 
Q 2591 2978 2328 3040 
Q 2066 3103 1784 3103 
Q 1356 3103 1142 2972 
Q 928 2841 928 2578 
Q 928 2378 1081 2264 
Q 1234 2150 1697 2047 
L 1894 2003 
Q 2506 1872 2764 1633 
Q 3022 1394 3022 966 
Q 3022 478 2636 193 
Q 2250 -91 1575 -91 
Q 1294 -91 989 -36 
Q 684 19 347 128 
L 347 722 
Q 666 556 975 473 
Q 1284 391 1588 391 
Q 1994 391 2212 530 
Q 2431 669 2431 922 
Q 2431 1156 2273 1281 
Q 2116 1406 1581 1522 
L 1381 1569 
Q 847 1681 609 1914 
Q 372 2147 372 2553 
Q 372 3047 722 3315 
Q 1072 3584 1716 3584 
Q 2034 3584 2315 3537 
Q 2597 3491 2834 3397 
z
" id="DejaVuSans-73" transform="scale(0.015625)"/>
      </defs>
      <use xlink:href="#DejaVuSans-43"/>
      <use x="69.824219" xlink:href="#DejaVuSans-6f"/>
      <use x="131.005859" xlink:href="#DejaVuSans-75"/>
      <use x="194.384766" xlink:href="#DejaVuSans-6e"/>
      <use x="257.763672" xlink:href="#DejaVuSans-74"/>
      <use x="296.972656" xlink:href="#DejaVuSans-73"/>
     </g>
    </g>
   </g>
   <g id="line2d_13">
    <path clip-path="url(#p82654d247e)" d="M 73.832727 283.557944 
L 73.991327 280.956654 
L 74.308528 284.006443 
L 74.467128 281.494852 
L 74.625728 283.827043 
L 74.784328 283.647644 
L 74.942928 282.571248 
L 75.101529 282.302149 
L 75.260129 286.518033 
L 75.418729 282.391849 
L 75.577329 285.890136 
L 75.735929 281.494852 
L 75.894529 284.72404 
L 76.05313 278.534763 
L 76.21173 284.006443 
L 76.37033 284.275542 
L 76.52893 280.418456 
L 76.68753 281.315453 
L 76.84613 283.109446 
L 77.004731 279.072961 
L 77.163331 289.298723 
L 77.480531 279.700859 
L 77.639131 282.391849 
L 77.797731 282.930047 
L 77.956332 282.930047 
L 78.273532 287.32533 
L 78.432132 280.239057 
L 78.749333 283.199146 
L 78.907933 280.328756 
L 79.066533 282.03305 
L 79.225133 282.481548 
L 79.383733 279.969958 
L 79.542333 280.059657 
L 79.859534 283.737344 
L 80.018134 282.212449 
L 80.335334 285.262238 
L 80.493934 283.019746 
L 80.652535 285.531337 
L 80.811135 284.81374 
L 80.969735 278.534763 
L 81.286935 283.916743 
L 81.445535 279.790558 
L 81.604136 279.700859 
L 81.921336 286.876832 
L 82.238536 283.109446 
L 82.397136 281.853651 
L 82.555737 285.710736 
L 82.714337 281.136053 
L 82.872937 283.109446 
L 83.031537 282.481548 
L 83.348737 283.557944 
L 83.665938 280.328756 
L 83.824538 285.441637 
L 83.983138 283.378545 
L 84.300338 277.817166 
L 84.458939 281.674251 
L 84.617539 282.571248 
L 84.776139 281.763951 
L 84.934739 282.571248 
L 85.093339 287.145931 
L 85.41054 282.750647 
L 85.72774 279.611159 
L 85.88634 285.172538 
L 86.04494 280.687555 
L 86.20354 282.750647 
L 86.362141 279.43176 
L 86.520741 283.378545 
L 86.679341 279.43176 
L 86.837941 285.710736 
L 86.996541 278.265664 
L 87.313742 286.518033 
L 87.472342 284.903439 
L 87.630942 281.046354 
L 87.789542 282.391849 
L 87.948142 279.700859 
L 88.106742 282.03305 
L 88.265343 281.763951 
L 88.423943 281.94335 
L 88.741143 279.611159 
L 89.058343 282.571248 
L 89.216944 284.006443 
L 89.375544 281.584552 
L 89.534144 282.571248 
L 89.692744 280.597855 
L 89.851344 284.096142 
L 90.009944 280.239057 
L 90.485745 285.890136 
L 90.644345 281.853651 
L 90.802945 283.378545 
L 90.961545 280.597855 
L 91.120146 282.930047 
L 91.278746 282.930047 
L 91.437346 280.777255 
L 91.595946 284.006443 
L 91.754546 284.903439 
L 91.913147 280.328756 
L 92.230347 285.351938 
L 92.388947 285.800436 
L 92.547547 281.494852 
L 92.706147 281.853651 
L 92.864748 284.72404 
L 93.023348 284.63434 
L 93.340548 283.109446 
L 93.499148 284.096142 
L 93.657748 280.328756 
L 93.816349 281.494852 
L 93.974949 284.185842 
L 94.133549 281.136053 
L 94.292149 280.866954 
L 94.450749 284.006443 
L 94.609349 282.571248 
L 94.76795 285.441637 
L 94.92655 280.059657 
L 95.08515 287.594429 
L 95.24375 286.787132 
L 95.40235 282.481548 
L 95.56095 282.930047 
L 95.719551 280.328756 
L 95.878151 283.557944 
L 96.036751 281.584552 
L 96.195351 284.006443 
L 96.512551 280.956654 
L 96.671152 280.866954 
L 96.988352 282.391849 
L 97.146952 280.328756 
L 97.305552 280.059657 
L 97.464152 280.149357 
L 97.622753 284.096142 
L 97.781353 285.262238 
L 97.939953 282.391849 
L 98.098553 284.275542 
L 98.415753 282.302149 
L 98.574354 284.81374 
L 98.732954 283.647644 
L 98.891554 278.624463 
L 99.050154 283.109446 
L 99.208754 280.149357 
L 99.367354 280.597855 
L 99.525955 279.43176 
L 99.684555 279.43176 
L 100.001755 284.454941 
L 100.160355 283.647644 
L 100.318955 279.969958 
L 100.477556 284.544641 
L 100.794756 280.418456 
L 101.111956 282.12275 
L 101.270556 286.428334 
L 101.587757 282.481548 
L 101.746357 283.647644 
L 101.904957 278.624463 
L 102.063557 278.893562 
L 102.222157 279.611159 
L 102.539358 283.916743 
L 102.697958 281.94335 
L 102.856558 282.660948 
L 103.015158 285.262238 
L 103.173758 279.162661 
L 103.332359 289.478122 
L 103.490959 279.969958 
L 103.649559 282.750647 
L 103.808159 281.494852 
L 104.12536 287.50473 
L 104.28396 285.082839 
L 104.44256 278.714162 
L 104.60116 283.468245 
L 104.75976 281.763951 
L 105.076961 285.262238 
L 105.235561 280.956654 
L 105.394161 281.494852 
L 105.552761 285.890136 
L 105.711361 284.006443 
L 105.869961 277.817166 
L 106.187162 285.441637 
L 106.345762 284.993139 
L 106.504362 281.674251 
L 106.662962 281.674251 
L 106.821562 283.737344 
L 106.980163 281.763951 
L 107.138763 283.557944 
L 107.297363 284.006443 
L 107.455963 283.109446 
L 107.614563 279.43176 
L 107.773163 281.405152 
L 107.931764 280.508156 
L 108.090364 285.621037 
L 108.248964 281.853651 
L 108.407564 284.454941 
L 108.566164 283.647644 
L 108.724764 281.136053 
L 108.883365 285.172538 
L 109.041965 284.903439 
L 109.200565 280.149357 
L 109.359165 281.674251 
L 109.517765 279.790558 
L 109.676365 287.056231 
L 109.834966 280.508156 
L 109.993566 281.315453 
L 110.310766 285.441637 
L 110.469366 280.777255 
L 110.627966 279.700859 
L 110.786567 287.145931 
L 110.945167 279.700859 
L 111.103767 284.185842 
L 111.262367 285.082839 
L 111.579567 280.866954 
L 111.738168 286.159235 
L 112.055368 279.611159 
L 112.213968 280.508156 
L 112.372568 280.687555 
L 112.531168 283.109446 
L 112.689769 283.468245 
L 112.848369 280.508156 
L 113.006969 282.571248 
L 113.165569 278.893562 
L 113.324169 283.019746 
L 113.482769 281.94335 
L 113.64137 282.750647 
L 113.79997 284.81374 
L 113.95857 284.81374 
L 114.11717 280.597855 
L 114.27577 286.069535 
L 114.43437 281.315453 
L 114.910171 285.800436 
L 115.068771 281.494852 
L 115.227371 281.584552 
L 115.385971 280.418456 
L 115.703172 280.956654 
L 115.861772 287.32533 
L 116.020372 285.172538 
L 116.178972 281.136053 
L 116.337573 295.488 
L 116.654773 281.405152 
L 116.813373 281.405152 
L 116.971973 279.072961 
L 117.130573 278.714162 
L 117.289174 282.571248 
L 117.447774 280.687555 
L 117.606374 281.136053 
L 117.764974 278.893562 
L 117.923574 287.863528 
L 118.082174 283.647644 
L 118.240775 283.916743 
L 118.399375 279.072961 
L 118.557975 279.611159 
L 118.716575 283.737344 
L 118.875175 283.647644 
L 119.033775 283.737344 
L 119.192376 280.777255 
L 119.350976 283.109446 
L 119.509576 282.212449 
L 119.668176 286.159235 
L 119.826776 285.800436 
L 119.985376 282.930047 
L 120.143977 282.481548 
L 120.302577 285.621037 
L 120.619777 283.199146 
L 120.778377 282.03305 
L 120.936977 284.903439 
L 121.095578 280.149357 
L 121.412778 281.405152 
L 121.571378 279.162661 
L 121.729978 279.34206 
L 121.888578 284.72404 
L 122.047179 284.81374 
L 122.205779 283.109446 
L 122.364379 285.351938 
L 122.522979 277.817166 
L 122.840179 284.903439 
L 122.99878 282.391849 
L 123.15738 283.199146 
L 123.31598 283.019746 
L 123.47458 286.876832 
L 123.63318 281.494852 
L 123.79178 285.710736 
L 123.950381 281.405152 
L 124.426181 283.916743 
L 124.584781 282.03305 
L 124.743381 285.531337 
L 124.901982 284.365241 
L 125.060582 282.03305 
L 125.219182 281.853651 
L 125.377782 281.94335 
L 125.536382 280.866954 
L 125.694982 284.275542 
L 126.012183 279.790558 
L 126.170783 285.979835 
L 126.329383 279.521459 
L 126.487983 284.454941 
L 126.646583 284.993139 
L 126.805184 282.03305 
L 126.963784 284.365241 
L 127.122384 284.63434 
L 127.280984 283.647644 
L 127.439584 281.225753 
L 127.598184 284.81374 
L 127.756785 281.584552 
L 127.915385 283.199146 
L 128.073985 279.969958 
L 128.232585 286.428334 
L 128.391185 279.880258 
L 128.549785 284.544641 
L 128.708386 281.136053 
L 128.866986 281.225753 
L 129.025586 282.302149 
L 129.184186 284.185842 
L 129.342786 283.019746 
L 129.501387 283.468245 
L 129.659987 279.790558 
L 129.818587 280.687555 
L 129.977187 278.803862 
L 130.294387 281.674251 
L 130.452988 276.471671 
L 130.611588 283.916743 
L 130.770188 283.468245 
L 130.928788 281.046354 
L 131.245988 282.302149 
L 131.404589 284.275542 
L 131.563189 282.391849 
L 131.721789 285.082839 
L 131.880389 282.391849 
L 132.038989 285.351938 
L 132.197589 280.687555 
L 132.35619 281.136053 
L 132.51479 285.172538 
L 132.83199 282.481548 
L 132.99059 284.63434 
L 133.14919 285.262238 
L 133.307791 284.275542 
L 133.466391 285.172538 
L 133.624991 281.405152 
L 133.783591 284.185842 
L 133.942191 281.584552 
L 134.100791 283.109446 
L 134.259392 285.800436 
L 134.417992 281.853651 
L 134.576592 285.441637 
L 134.735192 284.72404 
L 134.893792 287.50473 
L 135.052392 282.391849 
L 135.369593 279.969958 
L 135.528193 282.03305 
L 135.686793 281.405152 
L 135.845393 281.674251 
L 136.003993 281.046354 
L 136.162594 283.109446 
L 136.321194 282.571248 
L 136.479794 283.827043 
L 136.638394 283.019746 
L 136.796994 280.418456 
L 136.955594 280.328756 
L 137.114195 283.288845 
L 137.272795 282.391849 
L 137.431395 280.687555 
L 137.589995 290.733918 
L 137.748595 280.418456 
L 138.065796 282.840347 
L 138.224396 284.72404 
L 138.382996 282.212449 
L 138.541596 282.12275 
L 138.700196 282.302149 
L 138.858796 282.212449 
L 139.017397 282.660948 
L 139.175997 281.763951 
L 139.334597 283.737344 
L 139.493197 281.046354 
L 139.810397 285.621037 
L 139.968998 280.239057 
L 140.127598 279.43176 
L 140.286198 282.212449 
L 140.444798 280.059657 
L 140.603398 281.584552 
L 140.761998 281.763951 
L 140.920599 285.262238 
L 141.079199 279.34206 
L 141.237799 283.916743 
L 141.396399 284.185842 
L 141.554999 283.916743 
L 141.8722 282.840347 
L 142.0308 279.700859 
L 142.1894 281.136053 
L 142.348 286.607733 
L 142.5066 283.378545 
L 142.665201 284.096142 
L 142.982401 279.880258 
L 143.141001 282.840347 
L 143.458201 279.162661 
L 143.775402 285.531337 
L 143.934002 285.351938 
L 144.092602 281.136053 
L 144.251202 282.302149 
L 144.568403 278.175964 
L 144.727003 278.355364 
L 144.885603 283.468245 
L 145.202803 281.94335 
L 145.361403 285.800436 
L 145.520004 284.006443 
L 145.678604 280.418456 
L 145.995804 283.288845 
L 146.313004 282.12275 
L 146.471605 286.966532 
L 146.630205 278.983261 
L 146.788805 284.275542 
L 146.947405 282.750647 
L 147.106005 284.81374 
L 147.264605 284.006443 
L 147.423206 279.162661 
L 147.581806 278.086265 
L 147.740406 281.405152 
L 147.899006 281.853651 
L 148.057606 278.086265 
L 148.216206 283.378545 
L 148.374807 283.647644 
L 148.533407 285.800436 
L 148.692007 280.149357 
L 148.850607 281.046354 
L 149.009207 281.136053 
L 149.326408 283.468245 
L 149.485008 283.827043 
L 149.643608 274.498278 
L 149.802208 283.019746 
L 149.960808 279.969958 
L 150.278009 282.571248 
L 150.595209 279.880258 
L 150.753809 280.777255 
L 150.912409 285.441637 
L 151.071009 280.418456 
L 151.22961 280.687555 
L 151.38821 284.993139 
L 151.70541 277.906865 
L 151.86401 281.225753 
L 152.02261 280.777255 
L 152.339811 284.544641 
L 152.498411 284.096142 
L 152.657011 278.893562 
L 152.815611 284.81374 
L 152.974211 284.185842 
L 153.450012 280.866954 
L 153.608612 277.278968 
L 153.925812 284.544641 
L 154.084413 279.969958 
L 154.243013 283.109446 
L 154.401613 283.737344 
L 154.560213 282.750647 
L 154.718813 278.445063 
L 154.877414 278.803862 
L 155.353214 287.50473 
L 155.670414 280.059657 
L 155.829015 281.225753 
L 155.987615 285.979835 
L 156.146215 286.876832 
L 156.304815 284.365241 
L 156.463415 284.63434 
L 156.622015 284.544641 
L 156.939216 281.853651 
L 157.097816 278.803862 
L 157.256416 280.687555 
L 157.415016 284.006443 
L 157.573616 279.34206 
L 157.890817 284.81374 
L 158.049417 281.046354 
L 158.208017 281.584552 
L 158.366617 283.288845 
L 158.683818 280.956654 
L 158.842418 282.212449 
L 159.001018 279.43176 
L 159.318218 283.019746 
L 159.476818 280.687555 
L 159.635419 284.275542 
L 159.952619 279.700859 
L 160.111219 281.315453 
L 160.269819 287.056231 
L 160.58702 280.777255 
L 160.74562 280.777255 
L 160.90422 285.351938 
L 161.06282 285.172538 
L 161.22142 281.405152 
L 161.38002 281.136053 
L 161.538621 284.993139 
L 161.697221 285.890136 
L 161.855821 280.777255 
L 162.014421 284.096142 
L 162.173021 283.378545 
L 162.331621 282.03305 
L 162.490222 284.544641 
L 162.648822 283.378545 
L 162.807422 286.787132 
L 162.966022 284.185842 
L 163.124622 284.275542 
L 163.283222 281.853651 
L 163.441823 284.72404 
L 163.600423 283.288845 
L 163.759023 283.109446 
L 163.917623 286.697433 
L 164.076223 279.790558 
L 164.393424 284.275542 
L 164.552024 280.149357 
L 164.710624 282.481548 
L 164.869224 279.521459 
L 165.027824 279.25236 
L 165.186424 279.880258 
L 165.345025 286.159235 
L 165.662225 283.557944 
L 165.820825 279.790558 
L 166.138025 285.890136 
L 166.296626 280.687555 
L 166.455226 285.351938 
L 166.613826 285.890136 
L 166.772426 281.674251 
L 166.931026 283.199146 
L 167.089627 282.212449 
L 167.248227 289.388423 
L 167.406827 276.381971 
L 167.565427 284.006443 
L 167.724027 286.069535 
L 167.882627 278.534763 
L 168.041228 282.212449 
L 168.199828 278.624463 
L 168.358428 280.508156 
L 168.517028 279.880258 
L 168.675628 281.674251 
L 168.834228 286.159235 
L 168.992829 282.840347 
L 169.151429 285.172538 
L 169.310029 281.315453 
L 169.468629 289.029624 
L 169.627229 284.454941 
L 169.94443 281.405152 
L 170.10303 279.34206 
L 170.26163 288.760525 
L 170.42023 289.747221 
L 170.73743 283.557944 
L 170.896031 283.468245 
L 171.054631 280.149357 
L 171.213231 283.827043 
L 171.371831 283.827043 
L 171.530431 279.700859 
L 171.847632 281.046354 
L 172.006232 283.468245 
L 172.164832 278.534763 
L 172.323432 283.737344 
L 172.482032 284.275542 
L 172.640632 275.126176 
L 172.799233 285.351938 
L 173.116433 285.441637 
L 173.275033 279.43176 
L 173.433633 280.956654 
L 173.592233 280.239057 
L 173.750834 281.225753 
L 173.909434 284.275542 
L 174.068034 282.212449 
L 174.226634 283.288845 
L 174.385234 274.498278 
L 174.543834 282.212449 
L 174.702435 279.969958 
L 175.019635 285.172538 
L 175.336835 278.714162 
L 175.495435 281.405152 
L 175.654036 281.046354 
L 175.812636 279.611159 
L 176.129836 283.647644 
L 176.288436 284.185842 
L 176.447036 282.750647 
L 176.605637 283.288845 
L 176.764237 283.019746 
L 177.081437 284.365241 
L 177.240037 278.983261 
L 177.398637 284.096142 
L 177.557238 282.750647 
L 177.715838 285.710736 
L 177.874438 284.275542 
L 178.033038 281.763951 
L 178.191638 285.890136 
L 178.350238 280.328756 
L 178.667439 287.32533 
L 178.984639 279.072961 
L 179.143239 283.468245 
L 179.301839 282.660948 
L 179.46044 284.993139 
L 179.61904 279.611159 
L 179.93624 285.441637 
L 180.253441 278.445063 
L 180.570641 282.750647 
L 180.887841 278.355364 
L 181.046441 284.096142 
L 181.205042 281.853651 
L 181.522242 285.621037 
L 181.839442 279.611159 
L 181.998042 283.109446 
L 182.156643 282.750647 
L 182.315243 276.920169 
L 182.473843 280.866954 
L 182.632443 278.714162 
L 182.791043 279.162661 
L 182.949643 283.737344 
L 183.108244 282.391849 
L 183.266844 283.288845 
L 183.425444 282.391849 
L 183.584044 279.162661 
L 183.742644 282.391849 
L 183.901244 281.94335 
L 184.059845 277.548067 
L 184.218445 283.468245 
L 184.377045 280.687555 
L 184.535645 283.468245 
L 184.694245 280.687555 
L 184.852845 280.777255 
L 185.011446 278.265664 
L 185.170046 286.159235 
L 185.328646 279.880258 
L 185.487246 280.866954 
L 185.645846 283.737344 
L 185.804446 277.727466 
L 185.963047 277.906865 
L 186.121647 283.019746 
L 186.280247 281.136053 
L 186.438847 282.481548 
L 186.597447 277.996565 
L 186.756047 281.584552 
L 186.914648 278.086265 
L 187.073248 281.136053 
L 187.231848 275.754073 
L 187.390448 277.906865 
L 187.549048 282.212449 
L 187.866249 276.381971 
L 188.024849 278.534763 
L 188.183449 277.368667 
L 188.342049 273.96008 
L 188.500649 274.857077 
L 188.659249 276.830469 
L 188.81785 274.677677 
L 188.97645 277.727466 
L 189.29365 274.408578 
L 189.45225 275.215875 
L 189.61085 272.166087 
L 189.769451 279.34206 
L 189.928051 274.587978 
L 190.086651 275.305575 
L 190.245251 274.677677 
L 190.403851 269.564796 
L 190.562451 273.511582 
L 190.721052 273.421882 
L 190.879652 273.063083 
L 191.038252 267.501704 
L 191.196852 267.412004 
L 191.355452 272.793984 
L 191.672653 269.654496 
L 191.831253 271.089691 
L 191.989853 264.541615 
L 192.148453 265.88711 
L 192.307053 269.923595 
L 192.624254 260.863929 
L 192.782854 261.402127 
L 192.941454 257.90384 
L 193.100054 262.388823 
L 193.258654 261.222727 
L 193.417255 261.671226 
L 193.575855 254.495253 
L 193.734455 259.787533 
L 193.893055 259.428734 
L 194.051655 251.176365 
L 194.210255 254.136454 
L 194.368856 254.854051 
L 194.527456 247.408979 
L 194.686056 248.036877 
L 194.844656 251.266065 
L 195.003256 244.987088 
L 195.161856 244.179791 
L 195.479057 233.864329 
L 195.637657 232.608534 
L 195.796257 230.096943 
L 195.954857 230.814541 
L 196.113457 229.199947 
L 196.272058 230.724841 
L 196.430658 220.768178 
L 196.589258 218.974185 
L 196.747858 219.781482 
L 196.906458 215.386198 
L 197.065058 215.117099 
L 197.223659 210.721815 
L 197.382259 199.329958 
L 197.540859 197.805063 
L 197.699459 200.675453 
L 198.016659 190.180592 
L 198.17526 186.592605 
L 198.33386 176.456543 
L 198.49246 177.26384 
L 198.96826 157.440214 
L 199.126861 160.310603 
L 199.444061 147.483551 
L 199.602661 147.035052 
L 199.761261 139.50028 
L 199.919861 139.141482 
L 200.237062 122.367644 
L 200.554262 101.91612 
L 200.712862 102.723417 
L 200.871462 87.743573 
L 201.188663 77.78691 
L 201.347263 63.524663 
L 201.505863 62.179168 
L 201.664463 66.305353 
L 201.823063 55.092894 
L 201.981664 59.03968 
L 202.140264 53.568 
L 202.616064 90.255164 
L 202.774664 95.188645 
L 203.250465 148.201148 
L 203.409065 151.699435 
L 203.726265 186.323506 
L 204.360666 224.266465 
L 205.470867 257.81414 
L 205.946668 267.950202 
L 206.105268 263.465219 
L 206.263868 265.97681 
L 206.422468 274.04978 
L 206.581069 274.767377 
L 206.739669 270.910291 
L 206.898269 273.332182 
L 207.056869 277.458367 
L 207.215469 277.458367 
L 207.374069 271.538189 
L 207.53267 271.538189 
L 207.69127 276.202572 
L 207.84987 275.843773 
L 208.00847 282.840347 
L 208.16707 282.930047 
L 208.32567 280.418456 
L 208.484271 280.597855 
L 208.642871 280.597855 
L 208.801471 277.637766 
L 208.960071 278.445063 
L 209.118671 281.853651 
L 209.277271 278.803862 
L 209.435872 280.239057 
L 209.594472 280.508156 
L 209.753072 280.418456 
L 210.070272 281.94335 
L 210.228872 278.983261 
L 210.387473 279.25236 
L 210.546073 281.853651 
L 210.704673 287.50473 
L 210.863273 278.624463 
L 211.021873 277.637766 
L 211.180473 282.930047 
L 211.339074 279.072961 
L 211.497674 279.969958 
L 211.656274 282.391849 
L 211.814874 281.046354 
L 211.973474 281.136053 
L 212.132074 283.109446 
L 212.290675 282.391849 
L 212.449275 283.199146 
L 212.607875 279.700859 
L 212.766475 278.983261 
L 212.925075 284.72404 
L 213.083675 284.63434 
L 213.400876 279.611159 
L 213.559476 279.790558 
L 213.718076 280.149357 
L 213.876676 279.43176 
L 214.035276 285.531337 
L 214.193877 282.03305 
L 214.352477 282.840347 
L 214.511077 282.03305 
L 214.669677 287.32533 
L 214.828277 281.584552 
L 214.986877 286.518033 
L 215.145478 283.019746 
L 215.304078 282.840347 
L 215.462678 280.239057 
L 215.621278 282.750647 
L 215.779878 282.840347 
L 215.938478 280.239057 
L 216.097079 280.956654 
L 216.255679 286.876832 
L 216.414279 281.674251 
L 216.572879 281.763951 
L 216.731479 278.445063 
L 216.890079 281.494852 
L 217.04868 281.674251 
L 217.20728 282.12275 
L 217.36588 284.006443 
L 217.52448 282.660948 
L 217.841681 279.521459 
L 218.000281 282.302149 
L 218.158881 279.880258 
L 218.476081 285.710736 
L 218.793282 278.175964 
L 218.951882 284.903439 
L 219.110482 283.827043 
L 219.427682 279.521459 
L 219.586282 279.790558 
L 219.744883 284.096142 
L 219.903483 281.763951 
L 220.062083 282.12275 
L 220.220683 280.328756 
L 220.379283 284.185842 
L 220.537883 279.969958 
L 220.696484 282.212449 
L 221.013684 280.508156 
L 221.172284 280.418456 
L 221.330884 285.172538 
L 221.489484 279.700859 
L 221.648085 279.969958 
L 221.806685 282.03305 
L 221.965285 279.880258 
L 222.282485 287.235631 
L 222.441085 278.714162 
L 222.599686 283.288845 
L 222.758286 283.468245 
L 222.916886 278.445063 
L 223.075486 284.185842 
L 223.234086 276.023172 
L 223.392686 283.019746 
L 223.551287 283.557944 
L 223.868487 285.890136 
L 224.027087 279.43176 
L 224.185687 284.903439 
L 224.344287 280.508156 
L 224.502888 279.880258 
L 224.661488 282.660948 
L 224.820088 280.239057 
L 224.978688 280.059657 
L 225.137288 286.966532 
L 225.295888 281.136053 
L 225.613089 283.288845 
L 225.771689 283.199146 
L 225.930289 279.969958 
L 226.247489 283.019746 
L 226.40609 283.557944 
L 226.72329 281.405152 
L 226.88189 284.81374 
L 227.04049 279.521459 
L 227.19909 284.006443 
L 227.357691 283.916743 
L 227.516291 286.876832 
L 227.674891 281.94335 
L 227.992091 284.993139 
L 228.150691 281.225753 
L 228.309292 288.670825 
L 228.467892 281.494852 
L 228.626492 284.096142 
L 228.785092 279.880258 
L 228.943692 278.983261 
L 229.102292 282.212449 
L 229.260893 282.391849 
L 229.419493 286.876832 
L 229.578093 283.199146 
L 229.736693 286.518033 
L 229.895293 281.853651 
L 230.053894 281.94335 
L 230.212494 281.315453 
L 230.371094 281.674251 
L 230.529694 280.149357 
L 230.846894 283.647644 
L 231.005495 281.315453 
L 231.164095 284.993139 
L 231.322695 280.777255 
L 231.481295 283.557944 
L 231.639895 280.059657 
L 231.798495 283.199146 
L 231.957096 280.687555 
L 232.274296 284.993139 
L 232.432896 283.647644 
L 232.591496 285.531337 
L 232.750096 279.162661 
L 233.067297 285.710736 
L 233.225897 282.302149 
L 233.384497 285.172538 
L 233.543097 284.72404 
L 233.701697 281.136053 
L 233.860298 281.136053 
L 234.018898 280.597855 
L 234.177498 282.212449 
L 234.336098 281.225753 
L 234.494698 281.046354 
L 234.653298 282.840347 
L 234.811899 281.136053 
L 234.970499 283.557944 
L 235.129099 283.019746 
L 235.287699 285.351938 
L 235.604899 283.288845 
L 235.7635 279.25236 
L 235.9221 283.378545 
L 236.0807 280.597855 
L 236.2393 283.916743 
L 236.5565 281.225753 
L 236.873701 284.993139 
L 237.032301 281.763951 
L 237.190901 286.159235 
L 237.349501 283.737344 
L 237.508101 285.172538 
L 237.666702 281.046354 
L 237.825302 280.956654 
L 237.983902 288.222327 
L 238.301102 280.508156 
L 238.459702 283.557944 
L 238.618303 276.65107 
L 238.935503 284.544641 
L 239.094103 285.262238 
L 239.252703 281.405152 
L 239.569904 286.697433 
L 239.728504 281.763951 
L 239.887104 283.737344 
L 240.045704 282.660948 
L 240.204304 280.687555 
L 240.362904 283.109446 
L 240.521505 278.983261 
L 240.680105 285.441637 
L 240.838705 282.840347 
L 240.997305 285.082839 
L 241.155905 280.328756 
L 241.314505 279.521459 
L 241.473106 281.674251 
L 241.631706 286.248934 
L 241.790306 282.03305 
L 241.948906 283.827043 
L 242.107506 284.096142 
L 242.266106 282.840347 
L 242.424707 279.43176 
L 242.741907 285.082839 
L 243.059107 279.25236 
L 243.376308 282.212449 
L 243.534908 285.351938 
L 243.693508 282.930047 
L 243.852108 282.391849 
L 244.010708 283.468245 
L 244.169309 281.584552 
L 244.327909 285.172538 
L 244.486509 283.916743 
L 244.645109 279.34206 
L 244.803709 283.019746 
L 244.962309 282.302149 
L 245.27951 283.827043 
L 245.43811 282.12275 
L 245.59671 282.840347 
L 245.75531 282.302149 
L 245.91391 283.557944 
L 246.231111 279.611159 
L 246.389711 282.302149 
L 246.548311 278.803862 
L 246.706911 285.082839 
L 246.865511 280.059657 
L 247.024112 283.737344 
L 247.182712 283.827043 
L 247.341312 281.584552 
L 247.499912 284.185842 
L 247.658512 280.956654 
L 247.817112 282.571248 
L 247.975713 282.840347 
L 248.134313 283.737344 
L 248.292913 283.737344 
L 248.451513 282.750647 
L 248.610113 284.454941 
L 248.768713 283.647644 
L 248.927314 281.046354 
L 249.085914 284.096142 
L 249.244514 278.355364 
L 249.403114 283.737344 
L 249.561714 282.571248 
L 249.720314 285.710736 
L 249.878915 285.351938 
L 250.037515 282.302149 
L 250.196115 283.199146 
L 250.354715 283.288845 
L 250.513315 282.391849 
L 250.671915 280.777255 
L 250.830516 283.199146 
L 250.989116 279.34206 
L 251.306316 281.853651 
L 251.464916 279.969958 
L 251.623516 283.019746 
L 251.782117 283.378545 
L 251.940717 282.571248 
L 252.099317 284.006443 
L 252.257917 280.956654 
L 252.416517 284.993139 
L 252.575117 283.916743 
L 252.733718 284.63434 
L 253.050918 280.149357 
L 253.209518 287.32533 
L 253.368118 281.315453 
L 253.526718 280.597855 
L 253.685319 283.827043 
L 253.843919 283.109446 
L 254.002519 281.674251 
L 254.161119 284.63434 
L 254.319719 282.750647 
L 254.478319 278.803862 
L 254.63692 282.481548 
L 254.79552 281.046354 
L 254.95412 282.660948 
L 255.11272 280.059657 
L 255.429921 279.072961 
L 255.588521 280.328756 
L 255.747121 282.481548 
L 255.905721 280.687555 
L 256.064321 283.557944 
L 256.222921 280.328756 
L 256.381522 284.454941 
L 256.540122 280.149357 
L 256.698722 281.405152 
L 256.857322 286.518033 
L 257.015922 281.494852 
L 257.333123 280.597855 
L 257.491723 283.557944 
L 257.650323 280.508156 
L 257.808923 283.468245 
L 257.967523 278.893562 
L 258.284724 282.660948 
L 258.443324 281.405152 
L 258.601924 281.046354 
L 258.760524 283.199146 
L 258.919124 277.996565 
L 259.077724 277.278968 
L 259.236325 280.777255 
L 259.394925 281.225753 
L 259.553525 279.790558 
L 259.712125 285.262238 
L 259.870725 283.199146 
L 260.029325 283.199146 
L 260.187926 281.046354 
L 260.346526 282.660948 
L 260.505126 279.162661 
L 260.663726 283.647644 
L 260.822326 283.288845 
L 261.139527 286.697433 
L 261.298127 282.930047 
L 261.456727 287.50473 
L 261.615327 282.660948 
L 261.773927 286.518033 
L 261.932527 286.787132 
L 262.091128 285.710736 
L 262.249728 283.468245 
L 262.408328 284.63434 
L 262.725528 282.03305 
L 263.042729 288.670825 
L 263.359929 281.225753 
L 263.518529 284.993139 
L 263.677129 283.019746 
L 263.835729 285.890136 
L 264.15293 280.777255 
L 264.47013 285.082839 
L 264.78733 281.674251 
L 264.945931 288.581126 
L 265.104531 285.890136 
L 265.263131 278.355364 
L 265.421731 283.468245 
L 265.738931 286.787132 
L 265.897532 284.006443 
L 266.056132 283.647644 
L 266.214732 280.328756 
L 266.531932 283.468245 
L 266.690532 279.521459 
L 267.007733 283.288845 
L 267.166333 281.046354 
L 267.324933 281.763951 
L 267.483533 286.248934 
L 267.642133 283.916743 
L 267.800734 283.557944 
L 267.959334 283.827043 
L 268.117934 277.906865 
L 268.276534 285.351938 
L 268.435134 283.288845 
L 268.593735 286.607733 
L 268.752335 278.355364 
L 268.910935 282.750647 
L 269.069535 283.109446 
L 269.386735 282.302149 
L 269.545336 286.248934 
L 269.703936 283.199146 
L 269.862536 282.571248 
L 270.021136 280.149357 
L 270.338336 285.441637 
L 270.496937 284.096142 
L 270.655537 279.611159 
L 270.972737 281.315453 
L 271.131337 283.737344 
L 271.289937 279.880258 
L 271.448538 285.621037 
L 271.607138 282.212449 
L 271.765738 282.12275 
L 271.924338 281.046354 
L 272.082938 284.81374 
L 272.241538 282.930047 
L 272.400139 285.710736 
L 272.558739 283.109446 
L 272.717339 284.275542 
L 272.875939 281.763951 
L 273.034539 281.674251 
L 273.193139 285.710736 
L 273.35174 279.880258 
L 273.51034 280.866954 
L 273.66894 285.441637 
L 273.82754 280.508156 
L 273.98614 283.557944 
L 274.14474 282.840347 
L 274.303341 280.149357 
L 274.461941 284.72404 
L 274.620541 284.81374 
L 274.779141 282.840347 
L 274.937741 283.827043 
L 275.096341 279.880258 
L 275.413542 282.212449 
L 275.572142 281.494852 
L 275.730742 283.468245 
L 275.889342 282.12275 
L 276.206543 284.275542 
L 276.365143 282.930047 
L 276.523743 283.288845 
L 276.682343 281.494852 
L 276.840943 282.840347 
L 276.999543 281.584552 
L 277.158144 281.225753 
L 277.316744 283.468245 
L 277.475344 281.584552 
L 277.633944 287.145931 
L 277.792544 280.508156 
L 277.951144 281.225753 
L 278.109745 283.019746 
L 278.268345 278.534763 
L 278.426945 281.584552 
L 278.585545 280.597855 
L 278.744145 283.199146 
L 278.902745 283.468245 
L 279.061346 282.930047 
L 279.378546 279.700859 
L 279.537146 286.248934 
L 279.695746 287.773829 
L 279.854346 282.12275 
L 280.012947 280.597855 
L 280.171547 284.006443 
L 280.330147 280.149357 
L 280.488747 281.315453 
L 280.647347 280.777255 
L 280.805948 281.315453 
L 280.964548 284.096142 
L 281.123148 284.454941 
L 281.281748 283.019746 
L 281.440348 280.508156 
L 281.598948 286.159235 
L 281.757549 279.521459 
L 282.074749 284.096142 
L 282.233349 281.853651 
L 282.391949 277.548067 
L 282.70915 281.94335 
L 283.02635 280.418456 
L 283.18495 280.956654 
L 283.34355 279.072961 
L 283.50215 278.983261 
L 283.660751 284.275542 
L 283.819351 281.763951 
L 283.977951 284.993139 
L 284.136551 284.544641 
L 284.295151 282.302149 
L 284.453751 285.351938 
L 284.612352 283.737344 
L 284.770952 285.082839 
L 284.929552 284.903439 
L 285.246752 282.391849 
L 285.405352 282.391849 
L 285.563953 284.275542 
L 285.722553 280.418456 
L 285.881153 280.508156 
L 286.039753 281.405152 
L 286.198353 284.544641 
L 286.356953 281.674251 
L 286.515554 283.288845 
L 286.674154 286.428334 
L 286.832754 277.189268 
L 286.991354 282.660948 
L 287.149954 278.355364 
L 287.308554 285.531337 
L 287.467155 282.391849 
L 287.625755 282.212449 
L 287.942955 277.906865 
L 288.260155 282.840347 
L 288.418756 283.647644 
L 288.577356 286.697433 
L 288.735956 283.737344 
L 289.053156 289.298723 
L 289.211756 284.275542 
L 289.687557 282.212449 
L 289.846157 284.81374 
L 290.004757 280.418456 
L 290.321958 278.983261 
L 290.480558 279.700859 
L 290.639158 286.428334 
L 290.956358 280.597855 
L 291.114958 282.840347 
L 291.273559 279.43176 
L 291.590759 284.81374 
L 291.907959 277.458367 
L 292.066559 284.454941 
L 292.38376 279.521459 
L 292.54236 281.046354 
L 292.70096 284.454941 
L 292.85956 281.405152 
L 293.018161 281.405152 
L 293.176761 281.94335 
L 293.335361 283.019746 
L 293.493961 281.046354 
L 293.652561 282.212449 
L 293.811161 282.12275 
L 293.969762 283.199146 
L 294.128362 280.956654 
L 294.445562 286.787132 
L 294.604162 281.674251 
L 294.762762 286.428334 
L 294.921363 284.993139 
L 295.079963 281.763951 
L 295.238563 282.571248 
L 295.397163 284.544641 
L 295.555763 284.81374 
L 295.714363 284.72404 
L 295.872964 282.571248 
L 296.031564 284.185842 
L 296.190164 281.853651 
L 296.348764 282.481548 
L 296.507364 283.916743 
L 296.665964 287.773829 
L 296.824565 285.710736 
L 296.983165 280.956654 
L 297.300365 284.63434 
L 297.458965 286.428334 
L 297.617565 283.199146 
L 297.776166 287.056231 
L 297.934766 281.046354 
L 298.093366 280.149357 
L 298.410566 282.391849 
L 298.569166 282.840347 
L 298.727767 284.006443 
L 298.886367 283.019746 
L 299.044967 285.082839 
L 299.203567 279.34206 
L 299.362167 280.777255 
L 299.520767 286.159235 
L 299.679368 285.979835 
L 299.837968 280.239057 
L 299.996568 286.787132 
L 300.155168 280.956654 
L 300.313768 283.109446 
L 300.630969 277.996565 
L 300.789569 277.906865 
L 300.948169 286.428334 
L 301.106769 281.315453 
L 301.265369 281.853651 
L 301.423969 277.637766 
L 301.58257 285.172538 
L 301.89977 280.777255 
L 302.05837 283.916743 
L 302.21697 284.365241 
L 302.37557 281.405152 
L 302.534171 286.876832 
L 302.692771 284.544641 
L 302.851371 278.624463 
L 303.009971 283.916743 
L 303.168571 285.351938 
L 303.327171 280.597855 
L 303.485772 283.737344 
L 303.644372 278.534763 
L 303.802972 283.288845 
L 303.961572 281.584552 
L 304.120172 286.607733 
L 304.278772 281.94335 
L 304.437373 282.212449 
L 304.595973 282.930047 
L 304.913173 281.315453 
L 305.071773 278.445063 
L 305.230373 284.006443 
L 305.547574 280.149357 
L 305.706174 281.674251 
L 305.864774 284.365241 
L 306.023374 283.378545 
L 306.181975 284.275542 
L 306.340575 286.159235 
L 306.657775 284.544641 
L 306.816375 280.328756 
L 306.974975 283.557944 
L 307.133576 284.275542 
L 307.292176 276.65107 
L 307.450776 284.72404 
L 307.609376 282.571248 
L 307.767976 282.840347 
L 307.926576 287.145931 
L 308.243777 281.94335 
L 308.402377 281.405152 
L 308.560977 280.328756 
L 308.719577 286.787132 
L 308.878177 280.059657 
L 309.036778 278.803862 
L 309.195378 283.109446 
L 309.353978 282.840347 
L 309.512578 285.979835 
L 309.671178 286.518033 
L 309.829778 285.710736 
L 309.988379 282.571248 
L 310.146979 285.531337 
L 310.305579 284.993139 
L 310.622779 281.94335 
L 310.781379 279.25236 
L 311.25718 281.94335 
L 311.41578 280.149357 
L 311.73298 286.966532 
L 311.891581 284.365241 
L 312.208781 285.172538 
L 312.367381 280.508156 
L 312.684581 284.096142 
L 312.843182 284.006443 
L 313.001782 281.494852 
L 313.160382 283.199146 
L 313.318982 286.518033 
L 313.477582 281.94335 
L 313.636182 284.81374 
L 313.794783 281.225753 
L 314.111983 284.993139 
L 314.270583 280.777255 
L 314.429183 281.046354 
L 314.587783 282.302149 
L 314.746384 282.481548 
L 314.904984 286.518033 
L 315.063584 281.315453 
L 315.222184 281.225753 
L 315.380784 283.737344 
L 315.539384 276.292271 
L 315.856585 285.351938 
L 316.015185 288.401726 
L 316.173785 282.212449 
L 316.332385 286.338634 
L 316.490985 280.059657 
L 316.649586 282.571248 
L 316.808186 282.391849 
L 316.966786 284.81374 
L 317.125386 282.930047 
L 317.283986 282.840347 
L 317.442586 277.548067 
L 317.759787 282.212449 
L 317.918387 282.571248 
L 318.076987 282.03305 
L 318.552788 285.351938 
L 318.711388 280.956654 
L 319.028588 281.94335 
L 319.187188 280.866954 
L 319.345789 284.454941 
L 319.504389 282.03305 
L 319.662989 282.12275 
L 319.821589 281.136053 
L 319.980189 281.136053 
L 320.138789 280.687555 
L 320.29739 286.518033 
L 320.45599 281.046354 
L 320.77319 285.621037 
L 320.93179 279.969958 
L 321.09039 282.660948 
L 321.248991 281.225753 
L 321.407591 282.302149 
L 321.566191 281.405152 
L 321.724791 281.584552 
L 321.883391 280.687555 
L 322.200592 285.262238 
L 322.359192 288.042928 
L 322.517792 277.996565 
L 322.676392 283.109446 
L 322.834992 282.481548 
L 322.993592 283.647644 
L 323.152193 287.594429 
L 323.310793 282.660948 
L 323.469393 285.531337 
L 323.786593 281.315453 
L 323.945193 280.508156 
L 324.103794 278.086265 
L 324.262394 284.096142 
L 324.420994 283.557944 
L 324.579594 280.059657 
L 324.738194 284.096142 
L 324.896794 283.916743 
L 325.055395 281.225753 
L 325.213995 280.866954 
L 325.372595 282.212449 
L 325.531195 281.315453 
L 325.689795 286.159235 
L 325.848395 282.212449 
L 326.006996 284.903439 
L 326.165596 282.391849 
L 326.324196 282.302149 
L 326.482796 280.597855 
L 326.641396 283.647644 
L 326.799996 283.019746 
L 326.958597 283.557944 
L 327.117197 282.930047 
L 327.275797 283.647644 
L 327.434397 278.534763 
L 327.592997 280.418456 
L 327.751597 283.647644 
L 327.910198 281.94335 
L 328.068798 285.621037 
L 328.227398 284.72404 
L 328.385998 280.597855 
L 328.703198 286.428334 
L 329.020399 280.239057 
L 329.178999 282.481548 
L 329.337599 278.714162 
L 329.496199 285.621037 
L 329.654799 283.916743 
L 329.8134 284.544641 
L 329.972 283.916743 
L 330.2892 282.03305 
L 330.4478 284.096142 
L 330.6064 283.019746 
L 330.765001 284.096142 
L 330.923601 282.391849 
L 331.240801 283.378545 
L 331.399401 282.571248 
L 331.558002 284.275542 
L 331.716602 281.94335 
L 332.033802 283.019746 
L 332.192402 280.418456 
L 332.509603 285.621037 
L 332.668203 281.853651 
L 332.826803 280.777255 
L 332.985403 281.225753 
L 333.144003 286.428334 
L 333.302603 281.315453 
L 333.619804 283.647644 
L 333.778404 280.956654 
L 333.937004 280.777255 
L 334.095604 284.81374 
L 334.412805 280.956654 
L 334.730005 282.12275 
L 335.047205 282.571248 
L 335.205805 285.351938 
L 335.364406 284.185842 
L 335.523006 287.235631 
L 335.998806 277.906865 
L 336.157406 281.315453 
L 336.316007 280.328756 
L 336.474607 277.996565 
L 336.633207 280.508156 
L 336.791807 280.956654 
L 336.950407 284.903439 
L 337.109007 282.302149 
L 337.267608 284.006443 
L 337.584808 281.763951 
L 337.743408 286.607733 
L 337.902008 282.212449 
L 338.060608 282.660948 
L 338.219209 284.72404 
L 338.377809 285.082839 
L 338.536409 279.162661 
L 338.853609 283.378545 
L 339.012209 281.315453 
L 339.32941 285.441637 
L 339.48801 284.81374 
L 339.64661 284.993139 
L 339.80521 281.405152 
L 339.96381 284.63434 
L 340.122411 281.315453 
L 340.281011 281.853651 
L 340.598211 279.162661 
L 340.756811 287.773829 
L 341.074012 280.687555 
L 341.232612 284.185842 
L 341.391212 282.12275 
L 341.549812 283.019746 
L 341.708412 281.225753 
L 341.867012 284.365241 
L 342.025613 280.149357 
L 342.184213 283.916743 
L 342.342813 284.454941 
L 342.501413 283.557944 
L 342.660013 281.225753 
L 342.818613 281.584552 
L 342.977214 282.750647 
L 343.294414 288.491426 
L 343.453014 280.597855 
L 343.611614 280.149357 
L 343.928815 284.63434 
L 344.087415 282.750647 
L 344.246015 283.288845 
L 344.404615 280.687555 
L 344.563215 282.212449 
L 344.721816 282.391849 
L 344.880416 283.916743 
L 345.039016 281.494852 
L 345.197616 282.302149 
L 345.356216 282.12275 
L 345.514816 278.803862 
L 345.990617 283.737344 
L 346.149217 279.611159 
L 346.466417 284.903439 
L 346.625018 282.481548 
L 346.783618 283.378545 
L 347.100818 280.597855 
L 347.259418 281.136053 
L 347.418018 283.827043 
L 347.576619 282.12275 
L 347.735219 277.368667 
L 347.893819 282.03305 
L 348.052419 281.225753 
L 348.369619 285.800436 
L 348.52822 284.006443 
L 348.68682 284.096142 
L 348.84542 283.827043 
L 349.16262 279.25236 
L 349.32122 285.531337 
L 349.479821 283.647644 
L 349.638421 283.288845 
L 349.797021 285.262238 
L 349.955621 284.63434 
L 350.114221 278.086265 
L 350.431422 283.378545 
L 350.748622 281.584552 
L 350.907222 281.584552 
L 351.065822 283.557944 
L 351.383023 281.94335 
L 351.541623 283.827043 
L 351.700223 280.508156 
L 351.858823 282.840347 
L 352.017423 287.863528 
L 352.176023 283.557944 
L 352.334624 283.916743 
L 352.493224 284.81374 
L 352.651824 284.454941 
L 352.810424 279.969958 
L 353.127624 283.378545 
L 353.286225 280.508156 
L 353.444825 282.302149 
L 353.762025 277.189268 
L 354.079225 283.109446 
L 354.237826 284.096142 
L 354.555026 278.624463 
L 354.872226 285.800436 
L 355.189427 278.086265 
L 355.348027 280.418456 
L 355.506627 281.046354 
L 355.665227 284.903439 
L 355.982427 281.94335 
L 356.141028 280.418456 
L 356.299628 283.827043 
L 356.458228 281.94335 
L 356.616828 281.494852 
L 356.934029 285.531337 
L 357.092629 279.521459 
L 357.251229 282.481548 
L 357.409829 278.983261 
L 357.568429 287.863528 
L 357.727029 279.790558 
L 357.88563 282.571248 
L 358.04423 282.660948 
L 358.20283 280.956654 
L 358.36143 281.494852 
L 358.52003 282.750647 
L 358.67863 282.750647 
L 358.837231 280.687555 
L 358.995831 282.03305 
L 359.154431 281.94335 
L 359.313031 278.265664 
L 359.471631 279.880258 
L 359.630231 283.827043 
L 359.788832 280.239057 
L 359.947432 285.351938 
L 360.106032 284.006443 
L 360.264632 286.607733 
L 360.423232 283.288845 
L 360.581832 283.737344 
L 360.740433 282.391849 
L 361.057633 284.993139 
L 361.216233 287.953228 
L 361.374833 280.149357 
L 361.533433 281.405152 
L 361.692034 279.162661 
L 361.850634 283.647644 
L 362.009234 282.840347 
L 362.167834 286.159235 
L 362.326434 282.302149 
L 362.485034 283.647644 
L 362.802235 280.687555 
L 362.960835 282.840347 
L 363.119435 282.660948 
L 363.436635 281.763951 
L 363.595236 285.710736 
L 363.753836 284.903439 
L 363.912436 285.441637 
L 364.229636 281.494852 
L 364.388236 281.94335 
L 364.546837 283.557944 
L 364.705437 283.378545 
L 364.864037 286.607733 
L 365.181237 278.803862 
L 365.498438 285.979835 
L 365.657038 283.019746 
L 365.815638 284.454941 
L 365.974238 284.365241 
L 366.132838 282.930047 
L 366.291438 285.800436 
L 366.450039 278.355364 
L 366.608639 286.248934 
L 366.925839 283.468245 
L 367.084439 283.468245 
L 367.243039 283.737344 
L 367.40164 282.660948 
L 367.56024 280.149357 
L 367.71884 283.288845 
L 367.87744 283.737344 
L 368.19464 278.983261 
L 368.353241 280.777255 
L 368.511841 279.34206 
L 368.670441 284.81374 
L 368.829041 284.454941 
L 368.987641 286.159235 
L 369.146242 285.531337 
L 369.304842 279.700859 
L 369.463442 286.876832 
L 369.780642 284.006443 
L 369.939242 281.584552 
L 370.097843 283.827043 
L 370.256443 281.584552 
L 370.415043 282.302149 
L 370.573643 280.059657 
L 370.732243 279.790558 
L 370.890843 282.302149 
L 371.049444 280.866954 
L 371.208044 286.787132 
L 371.366644 280.508156 
L 371.525244 282.391849 
L 371.683844 285.800436 
L 372.001045 282.660948 
L 372.318245 279.790558 
L 372.476845 278.983261 
L 372.794045 284.63434 
L 372.952646 285.890136 
L 373.111246 282.750647 
L 373.269846 282.750647 
L 373.428446 279.25236 
L 373.587046 281.94335 
L 373.745646 286.697433 
L 374.062847 280.508156 
L 374.380047 285.800436 
L 374.538647 287.145931 
L 374.855848 284.544641 
L 375.173048 279.880258 
L 375.331648 285.172538 
L 375.648848 280.597855 
L 375.807449 280.777255 
L 375.966049 281.763951 
L 376.124649 281.225753 
L 376.283249 283.109446 
L 376.441849 282.660948 
L 376.600449 280.508156 
L 376.75905 282.03305 
L 376.91765 284.63434 
L 377.07625 280.328756 
L 377.23485 286.697433 
L 377.39345 277.817166 
L 377.55205 284.63434 
L 377.710651 282.571248 
L 378.027851 288.670825 
L 378.186451 282.930047 
L 378.345051 283.288845 
L 378.503651 286.338634 
L 378.820852 280.597855 
L 379.138052 284.096142 
L 379.296652 283.916743 
L 379.613853 280.149357 
L 379.772453 279.611159 
L 379.931053 277.548067 
L 380.089653 280.239057 
L 380.248253 277.368667 
L 380.565454 281.405152 
L 380.724054 288.042928 
L 380.882654 281.584552 
L 381.041254 284.544641 
L 381.358455 281.494852 
L 381.517055 282.12275 
L 381.675655 282.03305 
L 381.834255 278.714162 
L 381.992855 284.454941 
L 382.151455 281.225753 
L 382.310056 282.03305 
L 382.468656 284.275542 
L 382.627256 280.866954 
L 382.785856 283.109446 
L 382.944456 282.302149 
L 383.103056 282.930047 
L 383.420257 279.43176 
L 383.578857 280.687555 
L 383.737457 278.534763 
L 383.896057 282.930047 
L 384.054657 281.674251 
L 384.213258 286.338634 
L 384.371858 285.979835 
L 384.530458 280.149357 
L 384.689058 279.700859 
L 384.847658 283.199146 
L 385.006258 282.03305 
L 385.164859 284.993139 
L 385.482059 283.109446 
L 385.640659 285.351938 
L 385.799259 285.172538 
L 385.957859 278.534763 
L 386.11646 280.687555 
L 386.27506 280.597855 
L 386.43366 287.594429 
L 386.59226 281.046354 
L 386.75086 284.72404 
L 387.068061 282.840347 
L 387.226661 278.624463 
L 387.702461 284.454941 
L 388.019662 280.597855 
L 388.178262 281.494852 
L 388.336862 283.737344 
L 388.495462 278.355364 
L 388.812662 285.351938 
L 388.971263 286.069535 
L 389.288463 281.94335 
L 389.447063 284.275542 
L 389.605663 283.288845 
L 389.764263 286.069535 
L 389.922864 283.737344 
L 390.081464 283.468245 
L 390.240064 280.328756 
L 390.557264 286.876832 
L 390.715864 277.368667 
L 390.874465 280.777255 
L 391.033065 280.866954 
L 391.191665 286.966532 
L 391.350265 284.096142 
L 391.508865 277.368667 
L 391.667465 279.790558 
L 391.826066 284.72404 
L 391.984666 283.199146 
L 392.143266 275.484974 
L 392.301866 280.418456 
L 392.460466 278.445063 
L 392.619066 289.478122 
L 392.777667 278.893562 
L 392.936267 282.03305 
L 393.094867 281.315453 
L 393.253467 279.880258 
L 393.412067 288.850225 
L 393.570667 282.03305 
L 393.729268 287.056231 
L 394.046468 282.660948 
L 394.363668 278.086265 
L 394.522269 292.617611 
L 394.839469 285.262238 
L 394.998069 285.441637 
L 395.156669 282.930047 
L 395.315269 282.302149 
L 395.47387 279.43176 
L 395.63247 279.25236 
L 395.79107 286.428334 
L 395.94967 286.607733 
L 396.10827 280.418456 
L 396.26687 280.777255 
L 396.425471 276.830469 
L 396.742671 283.737344 
L 396.901271 284.903439 
L 397.059871 290.733918 
L 397.218471 282.660948 
L 397.377072 284.81374 
L 397.535672 281.136053 
L 397.694272 281.136053 
L 397.852872 283.468245 
L 398.011472 280.866954 
L 398.328673 286.159235 
L 398.487273 279.072961 
L 398.487273 279.072961 
" style="fill:none;stroke:#1f77b4;stroke-linecap:square;stroke-width:1.5;"/>
   </g>
   <g id="patch_3">
    <path d="M 57.6 307.584 
L 57.6 41.472 
" style="fill:none;stroke:#000000;stroke-linecap:square;stroke-linejoin:miter;stroke-width:0.8;"/>
   </g>
   <g id="patch_4">
    <path d="M 414.72 307.584 
L 414.72 41.472 
" style="fill:none;stroke:#000000;stroke-linecap:square;stroke-linejoin:miter;stroke-width:0.8;"/>
   </g>
   <g id="patch_5">
    <path d="M 57.6 307.584 
L 414.72 307.584 
" style="fill:none;stroke:#000000;stroke-linecap:square;stroke-linejoin:miter;stroke-width:0.8;"/>
   </g>
   <g id="patch_6">
    <path d="M 57.6 41.472 
L 414.72 41.472 
" style="fill:none;stroke:#000000;stroke-linecap:square;stroke-linejoin:miter;stroke-width:0.8;"/>
   </g>
   <g id="text_15">
    <!-- Background subtracted -->
    <g transform="translate(166.075312 35.472)scale(0.12 -0.12)">
     <defs>
      <path d="M 1259 2228 
L 1259 519 
L 2272 519 
Q 2781 519 3026 730 
Q 3272 941 3272 1375 
Q 3272 1813 3026 2020 
Q 2781 2228 2272 2228 
L 1259 2228 
z
M 1259 4147 
L 1259 2741 
L 2194 2741 
Q 2656 2741 2882 2914 
Q 3109 3088 3109 3444 
Q 3109 3797 2882 3972 
Q 2656 4147 2194 4147 
L 1259 4147 
z
M 628 4666 
L 2241 4666 
Q 2963 4666 3353 4366 
Q 3744 4066 3744 3513 
Q 3744 3084 3544 2831 
Q 3344 2578 2956 2516 
Q 3422 2416 3680 2098 
Q 3938 1781 3938 1306 
Q 3938 681 3513 340 
Q 3088 0 2303 0 
L 628 0 
L 628 4666 
z
" id="DejaVuSans-42" transform="scale(0.015625)"/>
      <path d="M 3122 3366 
L 3122 2828 
Q 2878 2963 2633 3030 
Q 2388 3097 2138 3097 
Q 1578 3097 1268 2742 
Q 959 2388 959 1747 
Q 959 1106 1268 751 
Q 1578 397 2138 397 
Q 2388 397 2633 464 
Q 2878 531 3122 666 
L 3122 134 
Q 2881 22 2623 -34 
Q 2366 -91 2075 -91 
Q 1284 -91 818 406 
Q 353 903 353 1747 
Q 353 2603 823 3093 
Q 1294 3584 2113 3584 
Q 2378 3584 2631 3529 
Q 2884 3475 3122 3366 
z
" id="DejaVuSans-63" transform="scale(0.015625)"/>
      <path d="M 581 4863 
L 1159 4863 
L 1159 1991 
L 2875 3500 
L 3609 3500 
L 1753 1863 
L 3688 0 
L 2938 0 
L 1159 1709 
L 1159 0 
L 581 0 
L 581 4863 
z
" id="DejaVuSans-6b" transform="scale(0.015625)"/>
      <path d="M 2631 2963 
Q 2534 3019 2420 3045 
Q 2306 3072 2169 3072 
Q 1681 3072 1420 2755 
Q 1159 2438 1159 1844 
L 1159 0 
L 581 0 
L 581 3500 
L 1159 3500 
L 1159 2956 
Q 1341 3275 1631 3429 
Q 1922 3584 2338 3584 
Q 2397 3584 2469 3576 
Q 2541 3569 2628 3553 
L 2631 2963 
z
" id="DejaVuSans-72" transform="scale(0.015625)"/>
      <path d="M 2906 2969 
L 2906 4863 
L 3481 4863 
L 3481 0 
L 2906 0 
L 2906 525 
Q 2725 213 2448 61 
Q 2172 -91 1784 -91 
Q 1150 -91 751 415 
Q 353 922 353 1747 
Q 353 2572 751 3078 
Q 1150 3584 1784 3584 
Q 2172 3584 2448 3432 
Q 2725 3281 2906 2969 
z
M 947 1747 
Q 947 1113 1208 752 
Q 1469 391 1925 391 
Q 2381 391 2643 752 
Q 2906 1113 2906 1747 
Q 2906 2381 2643 2742 
Q 2381 3103 1925 3103 
Q 1469 3103 1208 2742 
Q 947 2381 947 1747 
z
" id="DejaVuSans-64" transform="scale(0.015625)"/>
      <path d="M 3116 1747 
Q 3116 2381 2855 2742 
Q 2594 3103 2138 3103 
Q 1681 3103 1420 2742 
Q 1159 2381 1159 1747 
Q 1159 1113 1420 752 
Q 1681 391 2138 391 
Q 2594 391 2855 752 
Q 3116 1113 3116 1747 
z
M 1159 2969 
Q 1341 3281 1617 3432 
Q 1894 3584 2278 3584 
Q 2916 3584 3314 3078 
Q 3713 2572 3713 1747 
Q 3713 922 3314 415 
Q 2916 -91 2278 -91 
Q 1894 -91 1617 61 
Q 1341 213 1159 525 
L 1159 0 
L 581 0 
L 581 4863 
L 1159 4863 
L 1159 2969 
z
" id="DejaVuSans-62" transform="scale(0.015625)"/>
     </defs>
     <use xlink:href="#DejaVuSans-42"/>
     <use x="68.603516" xlink:href="#DejaVuSans-61"/>
     <use x="129.882812" xlink:href="#DejaVuSans-63"/>
     <use x="184.863281" xlink:href="#DejaVuSans-6b"/>
     <use x="242.773438" xlink:href="#DejaVuSans-67"/>
     <use x="306.25" xlink:href="#DejaVuSans-72"/>
     <use x="345.113281" xlink:href="#DejaVuSans-6f"/>
     <use x="406.294922" xlink:href="#DejaVuSans-75"/>
     <use x="469.673828" xlink:href="#DejaVuSans-6e"/>
     <use x="533.052734" xlink:href="#DejaVuSans-64"/>
     <use x="596.529297" xlink:href="#DejaVuSans-20"/>
     <use x="628.316406" xlink:href="#DejaVuSans-73"/>
     <use x="680.416016" xlink:href="#DejaVuSans-75"/>
     <use x="743.794922" xlink:href="#DejaVuSans-62"/>
     <use x="807.271484" xlink:href="#DejaVuSans-74"/>
     <use x="846.480469" xlink:href="#DejaVuSans-72"/>
     <use x="887.59375" xlink:href="#DejaVuSans-61"/>
     <use x="948.873047" xlink:href="#DejaVuSans-63"/>
     <use x="1003.853516" xlink:href="#DejaVuSans-74"/>
     <use x="1043.0625" xlink:href="#DejaVuSans-65"/>
     <use x="1104.585938" xlink:href="#DejaVuSans-64"/>
    </g>
   </g>
  </g>
 </g>
 <defs>
  <clipPath id="p82654d247e">
   <rect height="266.112" width="357.12" x="57.6" y="41.472"/>
  </clipPath>
 </defs>
</svg>
