<?xml version="1.0" encoding="utf-8" standalone="no"?>
<!DOCTYPE svg PUBLIC "-//W3C//DTD SVG 1.1//EN"
  "http://www.w3.org/Graphics/SVG/1.1/DTD/svg11.dtd">
<svg height="345.6pt" version="1.1" viewBox="0 0 460.8 345.6" width="460.8pt" xmlns="http://www.w3.org/2000/svg" xmlns:xlink="http://www.w3.org/1999/xlink">
 <metadata>
  <rdf:RDF xmlns:cc="http://creativecommons.org/ns#" xmlns:dc="http://purl.org/dc/elements/1.1/" xmlns:rdf="http://www.w3.org/1999/02/22-rdf-syntax-ns#">
   <cc:Work>
    <dc:type rdf:resource="http://purl.org/dc/dcmitype/StillImage"/>
    <dc:date>2022-06-03T23:56:27.975919</dc:date>
    <dc:format>image/svg+xml</dc:format>
    <dc:creator>
     <cc:Agent>
      <dc:title>Matplotlib v3.4.1, https://matplotlib.org/</dc:title>
     </cc:Agent>
    </dc:creator>
   </cc:Work>
  </rdf:RDF>
 </metadata>
 <defs>
  <style type="text/css">*{stroke-linecap:butt;stroke-linejoin:round;}</style>
 </defs>
 <g id="figure_1">
  <g id="patch_1">
   <path d="M 0 345.6 
L 460.8 345.6 
L 460.8 0 
L 0 0 
z
" style="fill:#ffffff;"/>
  </g>
  <g id="axes_1">
   <g id="patch_2">
    <path d="M 57.6 307.584 
L 414.72 307.584 
L 414.72 41.472 
L 57.6 41.472 
z
" style="fill:#ffffff;"/>
   </g>
   <g id="matplotlib.axis_1">
    <g id="xtick_1">
     <g id="line2d_1">
      <defs>
       <path d="M 0 0 
L 0 3.5 
" id="md1766da967" style="stroke:#000000;stroke-width:0.8;"/>
      </defs>
      <g>
       <use style="stroke:#000000;stroke-width:0.8;" x="103.072447" xlink:href="#md1766da967" y="307.584"/>
      </g>
     </g>
     <g id="text_1">
      <!-- 400 -->
      <g transform="translate(93.528697 322.182437)scale(0.1 -0.1)">
       <defs>
        <path d="M 2419 4116 
L 825 1625 
L 2419 1625 
L 2419 4116 
z
M 2253 4666 
L 3047 4666 
L 3047 1625 
L 3713 1625 
L 3713 1100 
L 3047 1100 
L 3047 0 
L 2419 0 
L 2419 1100 
L 313 1100 
L 313 1709 
L 2253 4666 
z
" id="DejaVuSans-34" transform="scale(0.015625)"/>
        <path d="M 2034 4250 
Q 1547 4250 1301 3770 
Q 1056 3291 1056 2328 
Q 1056 1369 1301 889 
Q 1547 409 2034 409 
Q 2525 409 2770 889 
Q 3016 1369 3016 2328 
Q 3016 3291 2770 3770 
Q 2525 4250 2034 4250 
z
M 2034 4750 
Q 2819 4750 3233 4129 
Q 3647 3509 3647 2328 
Q 3647 1150 3233 529 
Q 2819 -91 2034 -91 
Q 1250 -91 836 529 
Q 422 1150 422 2328 
Q 422 3509 836 4129 
Q 1250 4750 2034 4750 
z
" id="DejaVuSans-30" transform="scale(0.015625)"/>
       </defs>
       <use xlink:href="#DejaVuSans-34"/>
       <use x="63.623047" xlink:href="#DejaVuSans-30"/>
       <use x="127.246094" xlink:href="#DejaVuSans-30"/>
      </g>
     </g>
    </g>
    <g id="xtick_2">
     <g id="line2d_2">
      <g>
       <use style="stroke:#000000;stroke-width:0.8;" x="161.359538" xlink:href="#md1766da967" y="307.584"/>
      </g>
     </g>
     <g id="text_2">
      <!-- 600 -->
      <g transform="translate(151.815788 322.182437)scale(0.1 -0.1)">
       <defs>
        <path d="M 2113 2584 
Q 1688 2584 1439 2293 
Q 1191 2003 1191 1497 
Q 1191 994 1439 701 
Q 1688 409 2113 409 
Q 2538 409 2786 701 
Q 3034 994 3034 1497 
Q 3034 2003 2786 2293 
Q 2538 2584 2113 2584 
z
M 3366 4563 
L 3366 3988 
Q 3128 4100 2886 4159 
Q 2644 4219 2406 4219 
Q 1781 4219 1451 3797 
Q 1122 3375 1075 2522 
Q 1259 2794 1537 2939 
Q 1816 3084 2150 3084 
Q 2853 3084 3261 2657 
Q 3669 2231 3669 1497 
Q 3669 778 3244 343 
Q 2819 -91 2113 -91 
Q 1303 -91 875 529 
Q 447 1150 447 2328 
Q 447 3434 972 4092 
Q 1497 4750 2381 4750 
Q 2619 4750 2861 4703 
Q 3103 4656 3366 4563 
z
" id="DejaVuSans-36" transform="scale(0.015625)"/>
       </defs>
       <use xlink:href="#DejaVuSans-36"/>
       <use x="63.623047" xlink:href="#DejaVuSans-30"/>
       <use x="127.246094" xlink:href="#DejaVuSans-30"/>
      </g>
     </g>
    </g>
    <g id="xtick_3">
     <g id="line2d_3">
      <g>
       <use style="stroke:#000000;stroke-width:0.8;" x="219.646629" xlink:href="#md1766da967" y="307.584"/>
      </g>
     </g>
     <g id="text_3">
      <!-- 800 -->
      <g transform="translate(210.102879 322.182437)scale(0.1 -0.1)">
       <defs>
        <path d="M 2034 2216 
Q 1584 2216 1326 1975 
Q 1069 1734 1069 1313 
Q 1069 891 1326 650 
Q 1584 409 2034 409 
Q 2484 409 2743 651 
Q 3003 894 3003 1313 
Q 3003 1734 2745 1975 
Q 2488 2216 2034 2216 
z
M 1403 2484 
Q 997 2584 770 2862 
Q 544 3141 544 3541 
Q 544 4100 942 4425 
Q 1341 4750 2034 4750 
Q 2731 4750 3128 4425 
Q 3525 4100 3525 3541 
Q 3525 3141 3298 2862 
Q 3072 2584 2669 2484 
Q 3125 2378 3379 2068 
Q 3634 1759 3634 1313 
Q 3634 634 3220 271 
Q 2806 -91 2034 -91 
Q 1263 -91 848 271 
Q 434 634 434 1313 
Q 434 1759 690 2068 
Q 947 2378 1403 2484 
z
M 1172 3481 
Q 1172 3119 1398 2916 
Q 1625 2713 2034 2713 
Q 2441 2713 2670 2916 
Q 2900 3119 2900 3481 
Q 2900 3844 2670 4047 
Q 2441 4250 2034 4250 
Q 1625 4250 1398 4047 
Q 1172 3844 1172 3481 
z
" id="DejaVuSans-38" transform="scale(0.015625)"/>
       </defs>
       <use xlink:href="#DejaVuSans-38"/>
       <use x="63.623047" xlink:href="#DejaVuSans-30"/>
       <use x="127.246094" xlink:href="#DejaVuSans-30"/>
      </g>
     </g>
    </g>
    <g id="xtick_4">
     <g id="line2d_4">
      <g>
       <use style="stroke:#000000;stroke-width:0.8;" x="277.933721" xlink:href="#md1766da967" y="307.584"/>
      </g>
     </g>
     <g id="text_4">
      <!-- 1000 -->
      <g transform="translate(265.208721 322.182437)scale(0.1 -0.1)">
       <defs>
        <path d="M 794 531 
L 1825 531 
L 1825 4091 
L 703 3866 
L 703 4441 
L 1819 4666 
L 2450 4666 
L 2450 531 
L 3481 531 
L 3481 0 
L 794 0 
L 794 531 
z
" id="DejaVuSans-31" transform="scale(0.015625)"/>
       </defs>
       <use xlink:href="#DejaVuSans-31"/>
       <use x="63.623047" xlink:href="#DejaVuSans-30"/>
       <use x="127.246094" xlink:href="#DejaVuSans-30"/>
       <use x="190.869141" xlink:href="#DejaVuSans-30"/>
      </g>
     </g>
    </g>
    <g id="xtick_5">
     <g id="line2d_5">
      <g>
       <use style="stroke:#000000;stroke-width:0.8;" x="336.220812" xlink:href="#md1766da967" y="307.584"/>
      </g>
     </g>
     <g id="text_5">
      <!-- 1200 -->
      <g transform="translate(323.495812 322.182437)scale(0.1 -0.1)">
       <defs>
        <path d="M 1228 531 
L 3431 531 
L 3431 0 
L 469 0 
L 469 531 
Q 828 903 1448 1529 
Q 2069 2156 2228 2338 
Q 2531 2678 2651 2914 
Q 2772 3150 2772 3378 
Q 2772 3750 2511 3984 
Q 2250 4219 1831 4219 
Q 1534 4219 1204 4116 
Q 875 4013 500 3803 
L 500 4441 
Q 881 4594 1212 4672 
Q 1544 4750 1819 4750 
Q 2544 4750 2975 4387 
Q 3406 4025 3406 3419 
Q 3406 3131 3298 2873 
Q 3191 2616 2906 2266 
Q 2828 2175 2409 1742 
Q 1991 1309 1228 531 
z
" id="DejaVuSans-32" transform="scale(0.015625)"/>
       </defs>
       <use xlink:href="#DejaVuSans-31"/>
       <use x="63.623047" xlink:href="#DejaVuSans-32"/>
       <use x="127.246094" xlink:href="#DejaVuSans-30"/>
       <use x="190.869141" xlink:href="#DejaVuSans-30"/>
      </g>
     </g>
    </g>
    <g id="xtick_6">
     <g id="line2d_6">
      <g>
       <use style="stroke:#000000;stroke-width:0.8;" x="394.507904" xlink:href="#md1766da967" y="307.584"/>
      </g>
     </g>
     <g id="text_6">
      <!-- 1400 -->
      <g transform="translate(381.782904 322.182437)scale(0.1 -0.1)">
       <use xlink:href="#DejaVuSans-31"/>
       <use x="63.623047" xlink:href="#DejaVuSans-34"/>
       <use x="127.246094" xlink:href="#DejaVuSans-30"/>
       <use x="190.869141" xlink:href="#DejaVuSans-30"/>
      </g>
     </g>
    </g>
    <g id="text_7">
     <!-- Wavelength [nm] -->
     <g transform="translate(192.967812 335.860562)scale(0.1 -0.1)">
      <defs>
       <path d="M 213 4666 
L 850 4666 
L 1831 722 
L 2809 4666 
L 3519 4666 
L 4500 722 
L 5478 4666 
L 6119 4666 
L 4947 0 
L 4153 0 
L 3169 4050 
L 2175 0 
L 1381 0 
L 213 4666 
z
" id="DejaVuSans-57" transform="scale(0.015625)"/>
       <path d="M 2194 1759 
Q 1497 1759 1228 1600 
Q 959 1441 959 1056 
Q 959 750 1161 570 
Q 1363 391 1709 391 
Q 2188 391 2477 730 
Q 2766 1069 2766 1631 
L 2766 1759 
L 2194 1759 
z
M 3341 1997 
L 3341 0 
L 2766 0 
L 2766 531 
Q 2569 213 2275 61 
Q 1981 -91 1556 -91 
Q 1019 -91 701 211 
Q 384 513 384 1019 
Q 384 1609 779 1909 
Q 1175 2209 1959 2209 
L 2766 2209 
L 2766 2266 
Q 2766 2663 2505 2880 
Q 2244 3097 1772 3097 
Q 1472 3097 1187 3025 
Q 903 2953 641 2809 
L 641 3341 
Q 956 3463 1253 3523 
Q 1550 3584 1831 3584 
Q 2591 3584 2966 3190 
Q 3341 2797 3341 1997 
z
" id="DejaVuSans-61" transform="scale(0.015625)"/>
       <path d="M 191 3500 
L 800 3500 
L 1894 563 
L 2988 3500 
L 3597 3500 
L 2284 0 
L 1503 0 
L 191 3500 
z
" id="DejaVuSans-76" transform="scale(0.015625)"/>
       <path d="M 3597 1894 
L 3597 1613 
L 953 1613 
Q 991 1019 1311 708 
Q 1631 397 2203 397 
Q 2534 397 2845 478 
Q 3156 559 3463 722 
L 3463 178 
Q 3153 47 2828 -22 
Q 2503 -91 2169 -91 
Q 1331 -91 842 396 
Q 353 884 353 1716 
Q 353 2575 817 3079 
Q 1281 3584 2069 3584 
Q 2775 3584 3186 3129 
Q 3597 2675 3597 1894 
z
M 3022 2063 
Q 3016 2534 2758 2815 
Q 2500 3097 2075 3097 
Q 1594 3097 1305 2825 
Q 1016 2553 972 2059 
L 3022 2063 
z
" id="DejaVuSans-65" transform="scale(0.015625)"/>
       <path d="M 603 4863 
L 1178 4863 
L 1178 0 
L 603 0 
L 603 4863 
z
" id="DejaVuSans-6c" transform="scale(0.015625)"/>
       <path d="M 3513 2113 
L 3513 0 
L 2938 0 
L 2938 2094 
Q 2938 2591 2744 2837 
Q 2550 3084 2163 3084 
Q 1697 3084 1428 2787 
Q 1159 2491 1159 1978 
L 1159 0 
L 581 0 
L 581 3500 
L 1159 3500 
L 1159 2956 
Q 1366 3272 1645 3428 
Q 1925 3584 2291 3584 
Q 2894 3584 3203 3211 
Q 3513 2838 3513 2113 
z
" id="DejaVuSans-6e" transform="scale(0.015625)"/>
       <path d="M 2906 1791 
Q 2906 2416 2648 2759 
Q 2391 3103 1925 3103 
Q 1463 3103 1205 2759 
Q 947 2416 947 1791 
Q 947 1169 1205 825 
Q 1463 481 1925 481 
Q 2391 481 2648 825 
Q 2906 1169 2906 1791 
z
M 3481 434 
Q 3481 -459 3084 -895 
Q 2688 -1331 1869 -1331 
Q 1566 -1331 1297 -1286 
Q 1028 -1241 775 -1147 
L 775 -588 
Q 1028 -725 1275 -790 
Q 1522 -856 1778 -856 
Q 2344 -856 2625 -561 
Q 2906 -266 2906 331 
L 2906 616 
Q 2728 306 2450 153 
Q 2172 0 1784 0 
Q 1141 0 747 490 
Q 353 981 353 1791 
Q 353 2603 747 3093 
Q 1141 3584 1784 3584 
Q 2172 3584 2450 3431 
Q 2728 3278 2906 2969 
L 2906 3500 
L 3481 3500 
L 3481 434 
z
" id="DejaVuSans-67" transform="scale(0.015625)"/>
       <path d="M 1172 4494 
L 1172 3500 
L 2356 3500 
L 2356 3053 
L 1172 3053 
L 1172 1153 
Q 1172 725 1289 603 
Q 1406 481 1766 481 
L 2356 481 
L 2356 0 
L 1766 0 
Q 1100 0 847 248 
Q 594 497 594 1153 
L 594 3053 
L 172 3053 
L 172 3500 
L 594 3500 
L 594 4494 
L 1172 4494 
z
" id="DejaVuSans-74" transform="scale(0.015625)"/>
       <path d="M 3513 2113 
L 3513 0 
L 2938 0 
L 2938 2094 
Q 2938 2591 2744 2837 
Q 2550 3084 2163 3084 
Q 1697 3084 1428 2787 
Q 1159 2491 1159 1978 
L 1159 0 
L 581 0 
L 581 4863 
L 1159 4863 
L 1159 2956 
Q 1366 3272 1645 3428 
Q 1925 3584 2291 3584 
Q 2894 3584 3203 3211 
Q 3513 2838 3513 2113 
z
" id="DejaVuSans-68" transform="scale(0.015625)"/>
       <path id="DejaVuSans-20" transform="scale(0.015625)"/>
       <path d="M 550 4863 
L 1875 4863 
L 1875 4416 
L 1125 4416 
L 1125 -397 
L 1875 -397 
L 1875 -844 
L 550 -844 
L 550 4863 
z
" id="DejaVuSans-5b" transform="scale(0.015625)"/>
       <path d="M 3328 2828 
Q 3544 3216 3844 3400 
Q 4144 3584 4550 3584 
Q 5097 3584 5394 3201 
Q 5691 2819 5691 2113 
L 5691 0 
L 5113 0 
L 5113 2094 
Q 5113 2597 4934 2840 
Q 4756 3084 4391 3084 
Q 3944 3084 3684 2787 
Q 3425 2491 3425 1978 
L 3425 0 
L 2847 0 
L 2847 2094 
Q 2847 2600 2669 2842 
Q 2491 3084 2119 3084 
Q 1678 3084 1418 2786 
Q 1159 2488 1159 1978 
L 1159 0 
L 581 0 
L 581 3500 
L 1159 3500 
L 1159 2956 
Q 1356 3278 1631 3431 
Q 1906 3584 2284 3584 
Q 2666 3584 2933 3390 
Q 3200 3197 3328 2828 
z
" id="DejaVuSans-6d" transform="scale(0.015625)"/>
       <path d="M 1947 4863 
L 1947 -844 
L 622 -844 
L 622 -397 
L 1369 -397 
L 1369 4416 
L 622 4416 
L 622 4863 
L 1947 4863 
z
" id="DejaVuSans-5d" transform="scale(0.015625)"/>
      </defs>
      <use xlink:href="#DejaVuSans-57"/>
      <use x="92.501953" xlink:href="#DejaVuSans-61"/>
      <use x="153.78125" xlink:href="#DejaVuSans-76"/>
      <use x="212.960938" xlink:href="#DejaVuSans-65"/>
      <use x="274.484375" xlink:href="#DejaVuSans-6c"/>
      <use x="302.267578" xlink:href="#DejaVuSans-65"/>
      <use x="363.791016" xlink:href="#DejaVuSans-6e"/>
      <use x="427.169922" xlink:href="#DejaVuSans-67"/>
      <use x="490.646484" xlink:href="#DejaVuSans-74"/>
      <use x="529.855469" xlink:href="#DejaVuSans-68"/>
      <use x="593.234375" xlink:href="#DejaVuSans-20"/>
      <use x="625.021484" xlink:href="#DejaVuSans-5b"/>
      <use x="664.035156" xlink:href="#DejaVuSans-6e"/>
      <use x="727.414062" xlink:href="#DejaVuSans-6d"/>
      <use x="824.826172" xlink:href="#DejaVuSans-5d"/>
     </g>
    </g>
   </g>
   <g id="matplotlib.axis_2">
    <g id="ytick_1">
     <g id="line2d_7">
      <defs>
       <path d="M 0 0 
L -3.5 0 
" id="m03f317e649" style="stroke:#000000;stroke-width:0.8;"/>
      </defs>
      <g>
       <use style="stroke:#000000;stroke-width:0.8;" x="57.6" xlink:href="#m03f317e649" y="292.799118"/>
      </g>
     </g>
     <g id="text_8">
      <!-- 0 -->
      <g transform="translate(44.2375 296.598337)scale(0.1 -0.1)">
       <use xlink:href="#DejaVuSans-30"/>
      </g>
     </g>
    </g>
    <g id="ytick_2">
     <g id="line2d_8">
      <g>
       <use style="stroke:#000000;stroke-width:0.8;" x="57.6" xlink:href="#m03f317e649" y="243.18875"/>
      </g>
     </g>
     <g id="text_9">
      <!-- 2000 -->
      <g transform="translate(25.15 246.987968)scale(0.1 -0.1)">
       <use xlink:href="#DejaVuSans-32"/>
       <use x="63.623047" xlink:href="#DejaVuSans-30"/>
       <use x="127.246094" xlink:href="#DejaVuSans-30"/>
       <use x="190.869141" xlink:href="#DejaVuSans-30"/>
      </g>
     </g>
    </g>
    <g id="ytick_3">
     <g id="line2d_9">
      <g>
       <use style="stroke:#000000;stroke-width:0.8;" x="57.6" xlink:href="#m03f317e649" y="193.578381"/>
      </g>
     </g>
     <g id="text_10">
      <!-- 4000 -->
      <g transform="translate(25.15 197.3776)scale(0.1 -0.1)">
       <use xlink:href="#DejaVuSans-34"/>
       <use x="63.623047" xlink:href="#DejaVuSans-30"/>
       <use x="127.246094" xlink:href="#DejaVuSans-30"/>
       <use x="190.869141" xlink:href="#DejaVuSans-30"/>
      </g>
     </g>
    </g>
    <g id="ytick_4">
     <g id="line2d_10">
      <g>
       <use style="stroke:#000000;stroke-width:0.8;" x="57.6" xlink:href="#m03f317e649" y="143.968013"/>
      </g>
     </g>
     <g id="text_11">
      <!-- 6000 -->
      <g transform="translate(25.15 147.767232)scale(0.1 -0.1)">
       <use xlink:href="#DejaVuSans-36"/>
       <use x="63.623047" xlink:href="#DejaVuSans-30"/>
       <use x="127.246094" xlink:href="#DejaVuSans-30"/>
       <use x="190.869141" xlink:href="#DejaVuSans-30"/>
      </g>
     </g>
    </g>
    <g id="ytick_5">
     <g id="line2d_11">
      <g>
       <use style="stroke:#000000;stroke-width:0.8;" x="57.6" xlink:href="#m03f317e649" y="94.357645"/>
      </g>
     </g>
     <g id="text_12">
      <!-- 8000 -->
      <g transform="translate(25.15 98.156864)scale(0.1 -0.1)">
       <use xlink:href="#DejaVuSans-38"/>
       <use x="63.623047" xlink:href="#DejaVuSans-30"/>
       <use x="127.246094" xlink:href="#DejaVuSans-30"/>
       <use x="190.869141" xlink:href="#DejaVuSans-30"/>
      </g>
     </g>
    </g>
    <g id="ytick_6">
     <g id="line2d_12">
      <g>
       <use style="stroke:#000000;stroke-width:0.8;" x="57.6" xlink:href="#m03f317e649" y="44.747277"/>
      </g>
     </g>
     <g id="text_13">
      <!-- 10000 -->
      <g transform="translate(18.7875 48.546495)scale(0.1 -0.1)">
       <use xlink:href="#DejaVuSans-31"/>
       <use x="63.623047" xlink:href="#DejaVuSans-30"/>
       <use x="127.246094" xlink:href="#DejaVuSans-30"/>
       <use x="190.869141" xlink:href="#DejaVuSans-30"/>
       <use x="254.492188" xlink:href="#DejaVuSans-30"/>
      </g>
     </g>
    </g>
    <g id="text_14">
     <!-- Counts -->
     <g transform="translate(12.707812 191.981125)rotate(-90)scale(0.1 -0.1)">
      <defs>
       <path d="M 4122 4306 
L 4122 3641 
Q 3803 3938 3442 4084 
Q 3081 4231 2675 4231 
Q 1875 4231 1450 3742 
Q 1025 3253 1025 2328 
Q 1025 1406 1450 917 
Q 1875 428 2675 428 
Q 3081 428 3442 575 
Q 3803 722 4122 1019 
L 4122 359 
Q 3791 134 3420 21 
Q 3050 -91 2638 -91 
Q 1578 -91 968 557 
Q 359 1206 359 2328 
Q 359 3453 968 4101 
Q 1578 4750 2638 4750 
Q 3056 4750 3426 4639 
Q 3797 4528 4122 4306 
z
" id="DejaVuSans-43" transform="scale(0.015625)"/>
       <path d="M 1959 3097 
Q 1497 3097 1228 2736 
Q 959 2375 959 1747 
Q 959 1119 1226 758 
Q 1494 397 1959 397 
Q 2419 397 2687 759 
Q 2956 1122 2956 1747 
Q 2956 2369 2687 2733 
Q 2419 3097 1959 3097 
z
M 1959 3584 
Q 2709 3584 3137 3096 
Q 3566 2609 3566 1747 
Q 3566 888 3137 398 
Q 2709 -91 1959 -91 
Q 1206 -91 779 398 
Q 353 888 353 1747 
Q 353 2609 779 3096 
Q 1206 3584 1959 3584 
z
" id="DejaVuSans-6f" transform="scale(0.015625)"/>
       <path d="M 544 1381 
L 544 3500 
L 1119 3500 
L 1119 1403 
Q 1119 906 1312 657 
Q 1506 409 1894 409 
Q 2359 409 2629 706 
Q 2900 1003 2900 1516 
L 2900 3500 
L 3475 3500 
L 3475 0 
L 2900 0 
L 2900 538 
Q 2691 219 2414 64 
Q 2138 -91 1772 -91 
Q 1169 -91 856 284 
Q 544 659 544 1381 
z
M 1991 3584 
L 1991 3584 
z
" id="DejaVuSans-75" transform="scale(0.015625)"/>
       <path d="M 2834 3397 
L 2834 2853 
Q 2591 2978 2328 3040 
Q 2066 3103 1784 3103 
Q 1356 3103 1142 2972 
Q 928 2841 928 2578 
Q 928 2378 1081 2264 
Q 1234 2150 1697 2047 
L 1894 2003 
Q 2506 1872 2764 1633 
Q 3022 1394 3022 966 
Q 3022 478 2636 193 
Q 2250 -91 1575 -91 
Q 1294 -91 989 -36 
Q 684 19 347 128 
L 347 722 
Q 666 556 975 473 
Q 1284 391 1588 391 
Q 1994 391 2212 530 
Q 2431 669 2431 922 
Q 2431 1156 2273 1281 
Q 2116 1406 1581 1522 
L 1381 1569 
Q 847 1681 609 1914 
Q 372 2147 372 2553 
Q 372 3047 722 3315 
Q 1072 3584 1716 3584 
Q 2034 3584 2315 3537 
Q 2597 3491 2834 3397 
z
" id="DejaVuSans-73" transform="scale(0.015625)"/>
      </defs>
      <use xlink:href="#DejaVuSans-43"/>
      <use x="69.824219" xlink:href="#DejaVuSans-6f"/>
      <use x="131.005859" xlink:href="#DejaVuSans-75"/>
      <use x="194.384766" xlink:href="#DejaVuSans-6e"/>
      <use x="257.763672" xlink:href="#DejaVuSans-74"/>
      <use x="296.972656" xlink:href="#DejaVuSans-73"/>
     </g>
    </g>
   </g>
   <g id="line2d_13">
    <path clip-path="url(#pca3c938a82)" d="M 73.832727 293.176157 
L 73.992106 293.04717 
L 74.151485 293.592884 
L 74.310864 293.434131 
L 74.470242 293.513507 
L 74.629621 293.186079 
L 74.948379 293.275378 
L 75.585894 292.183949 
L 75.904651 292.888417 
L 76.06403 292.332781 
L 76.223409 292.75943 
L 76.542166 292.491534 
L 76.860924 293.672261 
L 77.020303 293.354754 
L 77.179681 293.721871 
L 77.498439 292.590754 
L 77.657818 292.848728 
L 77.817196 292.85865 
L 78.454711 291.489404 
L 79.251605 292.729664 
L 79.410984 292.987637 
L 79.570363 292.828884 
L 79.88912 293.265455 
L 80.207878 292.551066 
L 80.367257 292.531222 
L 80.686014 292.868573 
L 81.004772 292.273248 
L 81.16415 293.067014 
L 81.482908 292.85865 
L 81.961044 293.563118 
L 82.279802 292.511378 
L 82.598559 292.938027 
L 82.917317 291.916053 
L 83.076696 291.7573 
L 83.236074 291.767222 
L 83.554832 291.519171 
L 83.87359 292.57091 
L 84.192347 292.025196 
L 84.351726 292.005352 
L 84.511105 292.818962 
L 84.989241 292.47169 
L 85.14862 292.560988 
L 85.307998 291.70769 
L 85.467377 291.876365 
L 85.626756 291.380262 
L 85.786135 291.558859 
L 85.945513 292.322859 
L 86.42365 292.293092 
L 86.583029 292.322859 
L 86.742407 292.174027 
L 86.901786 292.432001 
L 87.061165 292.015274 
L 87.220544 292.303014 
L 87.69868 291.18182 
L 87.858059 291.509248 
L 88.017437 291.41995 
L 88.176816 291.737456 
L 88.336195 291.578703 
L 88.495574 291.836677 
L 88.654952 291.648157 
L 88.814331 291.787067 
L 89.133089 292.709819 
L 89.770604 292.491534 
L 89.929983 292.749508 
L 90.089361 292.382391 
L 90.408119 293.106702 
L 90.726876 292.481612 
L 91.045634 293.136469 
L 91.205013 293.235689 
L 91.364391 293.116624 
L 91.52377 293.315066 
L 91.683149 293.741715 
L 91.842528 293.702027 
L 92.001907 293.503585 
L 92.161285 293.920312 
L 92.639422 292.928105 
L 93.117558 292.699897 
L 93.276937 292.47169 
L 93.436315 292.670131 
L 93.595694 292.332781 
L 93.755073 292.719741 
L 93.914452 293.434131 
L 94.07383 293.543274 
L 94.392588 293.315066 
L 94.551967 293.612728 
L 94.711346 293.344832 
L 94.870724 293.503585 
L 95.030103 293.106702 
L 95.189482 293.205923 
L 95.508239 291.906131 
L 95.667618 291.896209 
L 95.826997 291.608469 
L 95.986376 291.578703 
L 96.145754 291.201664 
L 96.464512 291.618391 
L 96.623891 291.677924 
L 96.942648 292.28317 
L 97.102027 292.342703 
L 97.420785 292.977715 
L 97.580163 292.818962 
L 97.739542 293.146391 
L 98.377057 291.330651 
L 98.536436 291.350495 
L 98.695815 291.588625 
L 98.855193 291.459638 
L 99.014572 291.052833 
L 99.173951 291.70769 
L 99.492709 291.648157 
L 99.652087 291.727534 
L 99.811466 292.025196 
L 99.970845 292.799118 
L 100.130224 292.878495 
L 100.289602 292.660209 
L 100.448981 292.660209 
L 100.60836 292.511378 
L 100.927117 291.588625 
L 101.405254 292.035118 
L 101.564632 291.618391 
L 101.724011 291.767222 
L 101.88339 291.400106 
L 102.042769 292.04504 
L 102.202148 292.193872 
L 102.520905 292.828884 
L 102.999041 293.890546 
L 103.317799 293.255533 
L 103.477178 293.543274 
L 103.636556 292.888417 
L 103.795935 293.473819 
L 103.955314 293.275378 
L 104.274071 293.38452 
L 104.43345 292.99756 
L 104.592829 292.193872 
L 104.911587 292.957871 
L 105.070965 293.315066 
L 105.230344 293.106702 
L 105.389723 292.709819 
L 105.549102 293.017404 
L 105.70848 293.04717 
L 105.867859 292.789196 
L 106.027238 292.789196 
L 106.186617 293.374598 
L 106.664753 291.965664 
L 106.824132 292.402235 
L 107.142889 292.501456 
L 107.302268 292.709819 
L 107.461647 292.441923 
L 108.099162 292.878495 
L 108.258541 292.799118 
L 108.417919 292.957871 
L 108.577298 292.80904 
L 108.736677 292.461768 
L 108.896056 292.501456 
L 109.055434 292.977715 
L 109.374192 291.916053 
L 109.533571 292.689975 
L 109.69295 292.47169 
L 109.852328 292.957871 
L 110.011707 292.739586 
L 110.171086 292.938027 
L 110.330465 292.888417 
L 110.489843 293.126546 
L 110.808601 292.630443 
L 110.96798 292.719741 
L 111.127358 292.005352 
L 111.286737 292.382391 
L 111.446116 292.303014 
L 111.605495 291.796989 
L 111.764873 291.826755 
L 112.24301 291.241352 
L 112.721146 292.5213 
L 112.880525 292.243482 
L 113.199282 292.620521 
L 113.358661 292.640365 
L 113.677419 293.444053 
L 113.996176 293.265455 
L 114.314934 292.322859 
L 114.633691 292.501456 
L 114.79307 292.928105 
L 114.952449 292.749508 
L 115.111828 294.088988 
L 115.271206 294.247741 
L 115.589964 294.217975 
L 115.908721 293.850858 
L 116.0681 294.029455 
L 116.386858 292.848728 
L 116.546236 292.600677 
L 116.864994 291.360417 
L 117.024373 291.638235 
L 117.183752 291.380262 
L 117.34313 291.439794 
L 117.502509 291.99543 
L 117.661888 292.114495 
L 117.821267 292.451845 
L 117.980645 292.412157 
L 118.140024 292.878495 
L 118.299403 292.253404 
L 119.255675 293.721871 
L 119.415054 293.662338 
L 119.733812 293.999689 
L 119.893191 293.771481 
L 120.371327 292.273248 
L 120.690084 291.826755 
L 121.008842 291.916053 
L 121.168221 292.28317 
L 121.327599 291.499326 
L 121.965114 292.779274 
L 122.283872 293.424209 
L 122.443251 293.057092 
L 122.60263 293.344832 
L 122.762008 292.908261 
L 122.921387 293.404365 
L 123.080766 293.473819 
L 123.399523 293.324988 
L 123.718281 293.731793 
L 123.87766 293.196001 
L 124.037038 293.235689 
L 124.196417 292.818962 
L 124.355796 292.75943 
L 124.515175 292.977715 
L 124.674553 292.818962 
L 124.833932 292.362547 
L 124.993311 292.799118 
L 125.15269 292.134339 
L 125.312069 292.144261 
L 125.471447 292.47169 
L 125.630826 292.491534 
L 126.108962 293.106702 
L 126.268341 293.04717 
L 126.42772 293.602806 
L 126.587099 293.116624 
L 126.746477 293.523429 
L 126.905856 293.027326 
L 127.065235 293.186079 
L 127.224614 292.947949 
L 127.383993 292.967793 
L 127.70275 292.312936 
L 127.862129 292.432001 
L 128.021508 292.362547 
L 128.340265 292.551066 
L 128.499644 292.531222 
L 128.659023 291.896209 
L 128.818401 291.777144 
L 128.97778 291.370339 
L 129.137159 291.429872 
L 129.296538 290.904002 
L 129.455916 291.082599 
L 129.615295 291.003223 
L 129.934053 290.586496 
L 130.25281 291.261197 
L 130.730947 292.203794 
L 130.890325 293.186079 
L 131.209083 292.57091 
L 131.52784 293.196001 
L 131.846598 293.255533 
L 132.005977 293.57304 
L 132.165355 293.483741 
L 132.324734 293.791325 
L 132.484113 293.354754 
L 132.643492 293.741715 
L 132.802871 293.791325 
L 132.962249 293.563118 
L 133.121628 293.850858 
L 133.281007 293.781403 
L 133.440386 293.870702 
L 133.599764 293.81117 
L 133.759143 294.168364 
L 133.918522 293.86078 
L 134.077901 293.821092 
L 134.237279 293.354754 
L 134.396658 293.404365 
L 134.556037 293.215845 
L 134.715416 292.75943 
L 134.874794 292.670131 
L 135.51231 291.836677 
L 135.831067 291.806911 
L 136.149825 292.054963 
L 136.309203 291.94582 
L 136.468582 293.017404 
L 136.78734 292.580832 
L 136.946718 292.47169 
L 137.424855 293.057092 
L 137.743612 292.928105 
L 137.902991 293.146391 
L 138.06237 292.154183 
L 138.221749 292.5213 
L 138.381127 292.491534 
L 138.699885 292.769352 
L 139.3374 292.005352 
L 139.656157 291.886287 
L 139.815536 292.054963 
L 140.293673 291.648157 
L 140.61243 292.461768 
L 140.931188 292.491534 
L 141.090566 292.441923 
L 141.249945 292.977715 
L 141.409324 292.769352 
L 141.568703 293.295222 
L 141.728081 293.057092 
L 141.88746 292.580832 
L 142.046839 292.461768 
L 142.365596 291.737456 
L 142.684354 292.511378 
L 142.843733 292.372469 
L 143.640627 291.072677 
L 143.959384 291.796989 
L 144.756278 291.558859 
L 145.234414 292.799118 
L 145.393793 293.186079 
L 145.553172 292.799118 
L 145.712551 293.057092 
L 145.871929 292.719741 
L 146.031308 292.80904 
L 146.190687 293.205923 
L 146.668823 292.154183 
L 146.828202 292.124417 
L 146.987581 291.142132 
L 147.146959 291.628313 
L 147.306338 291.558859 
L 147.465717 291.896209 
L 147.784474 291.052833 
L 147.943853 291.271119 
L 148.262611 292.005352 
L 148.42199 292.223638 
L 148.581368 291.826755 
L 148.740747 291.787067 
L 149.059505 290.913924 
L 149.218883 291.18182 
L 149.537641 290.983379 
L 149.69702 290.775015 
L 149.856398 290.993301 
L 150.015777 290.616262 
L 150.334535 291.519171 
L 150.493914 291.677924 
L 150.812671 291.122288 
L 150.97205 291.152054 
L 151.290807 291.876365 
L 151.609565 291.558859 
L 151.768944 292.015274 
L 151.928322 291.925976 
L 152.087701 292.074807 
L 152.24708 292.560988 
L 152.406459 292.5213 
L 152.565837 292.134339 
L 152.884595 292.154183 
L 153.043974 291.697768 
L 153.203353 292.164105 
L 153.52211 291.886287 
L 153.840868 291.023067 
L 154.000246 291.102443 
L 154.319004 292.432001 
L 154.79714 292.134339 
L 154.956519 292.382391 
L 155.275276 293.493663 
L 155.594034 294.466026 
L 155.753413 294.337039 
L 156.07217 293.176157 
L 156.231549 293.245611 
L 156.390928 293.553196 
L 156.709685 292.263326 
L 156.869064 292.312936 
L 157.187822 291.588625 
L 157.506579 291.588625 
L 157.825337 291.99543 
L 157.984715 291.489404 
L 158.303473 291.866443 
L 158.462852 291.410028 
L 158.781609 291.856521 
L 158.940988 291.459638 
L 159.100367 291.380262 
L 159.259746 292.054963 
L 159.578503 292.342703 
L 159.737882 292.253404 
L 159.897261 292.511378 
L 160.056639 293.007482 
L 160.375397 292.551066 
L 160.694155 293.642494 
L 160.853533 292.947949 
L 161.012912 293.017404 
L 161.33167 293.444053 
L 161.650427 293.156313 
L 161.969185 294.088988 
L 162.128563 294.009611 
L 162.287942 293.563118 
L 162.447321 293.999689 
L 162.766078 293.880624 
L 162.925457 294.396572 
L 163.244215 293.682183 
L 163.88173 292.501456 
L 164.200487 291.519171 
L 164.359866 291.856521 
L 164.519245 291.648157 
L 164.678624 292.064885 
L 164.838002 291.856521 
L 164.997381 291.846599 
L 165.15676 292.481612 
L 165.316139 292.28317 
L 165.794275 293.86078 
L 166.113033 293.245611 
L 166.272411 293.890546 
L 166.43179 293.513507 
L 166.750548 293.513507 
L 167.069305 292.928105 
L 167.228684 292.124417 
L 167.388063 291.99543 
L 167.547441 291.628313 
L 167.70682 291.568781 
L 167.866199 291.211586 
L 168.025578 291.925976 
L 168.184956 292.054963 
L 168.344335 291.529093 
L 168.503714 292.689975 
L 168.663093 292.938027 
L 168.822472 293.434131 
L 168.98185 293.533351 
L 169.141229 293.473819 
L 169.459987 294.654546 
L 169.619365 295.01174 
L 169.778744 294.833143 
L 169.938123 295.071273 
L 170.097502 294.088988 
L 170.25688 294.019533 
L 170.416259 294.09891 
L 170.575638 293.91039 
L 170.735017 294.019533 
L 171.213153 291.638235 
L 171.531911 291.747378 
L 171.691289 291.191742 
L 172.010047 291.539015 
L 172.169426 292.174027 
L 172.488183 292.064885 
L 172.647562 291.70769 
L 172.806941 292.005352 
L 172.966319 292.064885 
L 173.125698 291.836677 
L 173.285077 292.739586 
L 173.603835 291.18182 
L 173.763213 290.576574 
L 174.24135 291.737456 
L 174.878865 290.60634 
L 175.038243 291.41995 
L 175.197622 291.578703 
L 175.357001 292.04504 
L 175.835137 291.816833 
L 176.153895 292.719741 
L 176.313274 292.491534 
L 176.472652 292.987637 
L 176.950789 293.324988 
L 177.110167 293.215845 
L 177.269546 293.503585 
L 177.428925 293.205923 
L 177.588304 293.344832 
L 177.907061 293.940157 
L 178.06644 293.38452 
L 178.225819 293.463897 
L 178.385197 293.126546 
L 178.544576 293.205923 
L 178.863334 292.57091 
L 179.022713 293.136469 
L 179.182091 292.75943 
L 179.34147 291.777144 
L 179.500849 291.767222 
L 179.660228 292.174027 
L 180.138364 291.310807 
L 180.457121 291.697768 
L 180.935258 291.866443 
L 181.094636 292.064885 
L 181.254015 292.064885 
L 181.413394 291.628313 
L 181.572773 291.906131 
L 181.89153 291.013145 
L 182.050909 291.032989 
L 182.210288 290.675794 
L 182.369667 290.824625 
L 182.529045 291.13221 
L 182.688424 290.695638 
L 182.847803 290.65595 
L 183.007182 291.211586 
L 183.16656 290.84447 
L 183.485318 291.539015 
L 183.644697 291.509248 
L 183.963454 291.042911 
L 184.122833 290.586496 
L 184.282212 291.360417 
L 184.600969 290.963534 
L 184.760348 291.648157 
L 185.079106 290.70556 
L 185.397863 290.70556 
L 185.557242 290.89408 
L 185.716621 290.864314 
L 186.035378 290.159846 
L 186.194757 290.189613 
L 186.354136 289.306548 
L 186.513515 289.326392 
L 186.672893 289.802652 
L 187.947923 286.528367 
L 188.107302 286.508523 
L 188.42606 285.258342 
L 188.585438 285.129355 
L 188.744817 284.424888 
L 189.063575 284.712628 
L 189.222954 284.762238 
L 189.382332 284.524109 
L 189.70109 283.492213 
L 190.019847 283.115174 
L 190.497984 281.011695 
L 190.657362 280.674344 
L 191.932393 275.385879 
L 192.25115 272.726763 
L 193.048044 267.805414 
L 193.366801 265.721779 
L 193.685559 263.836585 
L 194.482453 255.710407 
L 195.279347 243.496334 
L 195.438725 241.581374 
L 196.07624 230.170989 
L 196.394998 225.67629 
L 197.510649 199.521704 
L 198.307543 176.770389 
L 200.379467 100.767304 
L 201.176361 63.976255 
L 201.495118 54.679272 
L 201.654497 53.568 
L 201.813876 54.322078 
L 201.973255 56.24696 
L 202.292012 68.92737 
L 202.770149 101.570992 
L 204.045179 208.957596 
L 204.523315 235.479298 
L 205.16083 257.873419 
L 205.798345 271.764322 
L 206.595239 280.46598 
L 206.754618 280.862863 
L 207.232754 284.335589 
L 207.870269 287.441198 
L 208.029648 287.461042 
L 208.667163 290.140002 
L 208.98592 289.60421 
L 209.304678 289.832418 
L 209.464057 289.653821 
L 209.623436 289.832418 
L 210.101572 290.814703 
L 210.260951 290.526963 
L 210.420329 290.794859 
L 210.739087 290.517041 
L 210.898466 290.566651 
L 211.376602 291.142132 
L 211.535981 290.576574 
L 211.854738 291.310807 
L 212.014117 290.874236 
L 212.332875 292.015274 
L 212.492253 291.975586 
L 212.811011 291.668002 
L 213.129768 291.013145 
L 213.607905 291.955742 
L 213.767283 291.65808 
L 213.926662 291.955742 
L 214.086041 291.906131 
L 214.404799 293.027326 
L 214.723556 293.414287 
L 214.882935 293.106702 
L 215.042314 293.196001 
L 215.361071 292.789196 
L 215.679829 292.749508 
L 215.998586 291.717612 
L 216.157965 291.568781 
L 216.317344 291.727534 
L 216.476722 291.65808 
L 216.954859 291.985508 
L 217.114238 291.171898 
L 217.273616 291.241352 
L 217.432995 291.032989 
L 217.751753 292.064885 
L 217.911131 292.193872 
L 218.07051 291.7573 
L 218.708025 292.054963 
L 218.867404 291.777144 
L 219.026783 292.243482 
L 219.186161 292.04504 
L 219.504919 291.370339 
L 219.664298 292.035118 
L 219.983055 291.310807 
L 220.301813 291.439794 
L 220.62057 291.628313 
L 220.939328 291.161976 
L 221.098707 291.350495 
L 221.258085 290.874236 
L 221.576843 291.985508 
L 221.736222 291.717612 
L 222.054979 292.362547 
L 222.214358 291.618391 
L 222.373737 292.114495 
L 222.533116 291.677924 
L 222.692494 291.787067 
L 222.851873 292.193872 
L 223.011252 292.203794 
L 223.170631 292.054963 
L 223.489388 292.312936 
L 223.648767 291.985508 
L 223.808146 292.144261 
L 223.967524 291.975586 
L 224.126903 292.441923 
L 224.286282 292.114495 
L 224.445661 292.491534 
L 224.764418 291.70769 
L 224.923797 292.134339 
L 225.242555 291.886287 
L 225.88007 292.799118 
L 226.039448 292.183949 
L 226.198827 292.590754 
L 226.358206 292.23356 
L 226.676963 292.392313 
L 226.836342 293.156313 
L 227.1551 293.235689 
L 227.314479 293.394442 
L 227.473857 293.225767 
L 227.633236 294.029455 
L 227.792615 293.662338 
L 227.951994 294.168364 
L 228.43013 292.650287 
L 228.589509 292.699897 
L 228.748887 293.067014 
L 228.908266 292.868573 
L 229.067645 293.453975 
L 229.227024 292.699897 
L 229.386402 292.749508 
L 229.545781 292.441923 
L 229.864539 292.769352 
L 230.023918 292.749508 
L 230.183296 292.888417 
L 230.342675 292.273248 
L 230.502054 292.47169 
L 230.661433 291.836677 
L 230.820811 292.025196 
L 230.98019 291.816833 
L 231.139569 292.025196 
L 231.298948 291.916053 
L 231.936463 292.977715 
L 232.095841 292.332781 
L 232.733357 293.245611 
L 232.892735 293.692105 
L 233.052114 293.533351 
L 233.53025 292.402235 
L 233.689629 292.630443 
L 234.486523 291.638235 
L 234.964659 292.719741 
L 235.124038 292.392313 
L 235.283417 292.630443 
L 235.442796 292.580832 
L 235.761553 292.789196 
L 235.920932 292.531222 
L 236.239689 292.560988 
L 236.399068 292.312936 
L 237.036583 293.374598 
L 237.195962 293.04717 
L 237.51472 293.969923 
L 238.152235 292.422079 
L 238.470992 292.5213 
L 238.630371 292.560988 
L 238.78975 292.828884 
L 239.108507 292.491534 
L 239.267886 292.848728 
L 239.427265 292.749508 
L 239.746022 293.33491 
L 239.905401 292.719741 
L 240.06478 292.739586 
L 240.383537 293.086858 
L 240.702295 292.134339 
L 240.861674 291.906131 
L 241.180431 292.451845 
L 241.33981 292.531222 
L 241.499189 293.09678 
L 241.977325 292.183949 
L 242.296082 292.878495 
L 242.455461 292.610599 
L 242.61484 292.015274 
L 242.774219 292.035118 
L 242.933598 292.203794 
L 243.252355 292.025196 
L 243.411734 292.47169 
L 243.571113 292.332781 
L 243.730491 292.342703 
L 243.88987 292.660209 
L 244.049249 292.670131 
L 244.208628 292.908261 
L 244.368006 292.918183 
L 244.527385 292.680053 
L 244.846143 292.749508 
L 245.005521 292.680053 
L 245.1649 292.75943 
L 245.961794 291.816833 
L 246.121173 292.025196 
L 246.280552 291.608469 
L 246.599309 291.896209 
L 246.758688 291.816833 
L 247.077445 291.886287 
L 247.236824 292.213716 
L 247.396203 292.273248 
L 247.555582 292.818962 
L 247.714961 292.670131 
L 248.033718 293.04717 
L 248.511854 292.957871 
L 248.671233 292.670131 
L 248.830612 292.799118 
L 248.989991 292.769352 
L 249.308748 293.166235 
L 249.786884 292.938027 
L 249.946263 293.086858 
L 250.105642 292.719741 
L 250.265021 293.255533 
L 250.902536 291.529093 
L 251.221293 291.628313 
L 251.380672 291.548937 
L 251.858808 291.94582 
L 252.177566 292.898339 
L 252.496323 292.868573 
L 252.655702 293.344832 
L 252.97446 292.898339 
L 253.133839 292.878495 
L 253.293217 293.116624 
L 253.452596 292.749508 
L 253.611975 292.828884 
L 253.930732 292.332781 
L 254.090111 292.590754 
L 254.24949 291.896209 
L 254.408869 292.04504 
L 254.568247 291.985508 
L 254.887005 291.052833 
L 255.205762 290.665872 
L 255.365141 290.437665 
L 255.52452 290.963534 
L 255.683899 290.725405 
L 255.843278 291.102443 
L 256.002656 290.824625 
L 256.162035 290.973456 
L 256.480793 292.025196 
L 256.640171 292.084729 
L 256.79955 291.876365 
L 256.958929 292.193872 
L 257.118308 291.856521 
L 257.277686 292.203794 
L 257.437065 291.588625 
L 257.755823 291.866443 
L 257.915201 291.300885 
L 258.07458 291.251275 
L 258.233959 291.509248 
L 258.393338 291.221508 
L 258.552717 290.526963 
L 258.712095 290.556729 
L 258.871474 290.308678 
L 259.030853 290.407898 
L 259.190232 290.834547 
L 259.34961 290.89408 
L 259.508989 291.092521 
L 259.987125 291.161976 
L 260.305883 292.144261 
L 260.624641 293.414287 
L 260.784019 293.156313 
L 260.943398 293.632572 
L 261.102777 293.57304 
L 261.580913 295.359013 
L 261.740292 295.339169 
L 261.899671 295.488 
L 262.218428 294.654546 
L 262.537186 295.140727 
L 262.696564 295.368935 
L 263.015322 294.585091 
L 263.174701 294.287429 
L 263.33408 294.555325 
L 263.652837 294.029455 
L 263.812216 294.108832 
L 263.971595 293.989767 
L 264.290352 293.017404 
L 264.449731 293.831014 
L 264.60911 293.930234 
L 264.927867 293.146391 
L 265.087246 293.473819 
L 265.246625 294.138598 
L 265.406003 294.277507 
L 265.88414 293.850858 
L 266.202897 292.580832 
L 266.362276 293.017404 
L 266.521655 292.99756 
L 266.840412 292.005352 
L 266.999791 292.253404 
L 267.15917 292.28317 
L 267.477927 292.85865 
L 267.637306 292.243482 
L 267.796685 292.888417 
L 267.956064 292.99756 
L 268.115442 293.364676 
L 268.274821 293.067014 
L 268.4342 293.176157 
L 268.752958 292.680053 
L 268.912336 292.541144 
L 269.071715 292.80904 
L 269.231094 293.394442 
L 269.70923 292.293092 
L 269.868609 293.076936 
L 270.027988 293.225767 
L 270.346745 292.600677 
L 270.506124 292.491534 
L 270.824882 291.846599 
L 271.143639 292.412157 
L 271.303018 292.362547 
L 271.462397 291.876365 
L 271.621775 291.955742 
L 272.25929 293.166235 
L 272.418669 293.374598 
L 272.578048 292.938027 
L 272.737427 293.324988 
L 272.896805 293.076936 
L 273.215563 293.126546 
L 273.534321 292.620521 
L 273.693699 292.590754 
L 273.853078 292.134339 
L 274.171836 292.80904 
L 274.331214 292.491534 
L 274.490593 292.928105 
L 274.649972 292.818962 
L 274.809351 292.392313 
L 274.968729 292.580832 
L 275.128108 292.352625 
L 275.287487 292.422079 
L 275.446866 292.640365 
L 275.765623 292.441923 
L 276.24376 292.57091 
L 276.403138 292.709819 
L 277.040653 292.551066 
L 277.200032 292.957871 
L 277.51879 292.352625 
L 277.678168 292.322859 
L 277.996926 291.856521 
L 278.156305 291.747378 
L 278.315683 291.965664 
L 278.475062 291.965664 
L 278.634441 292.114495 
L 278.79382 291.429872 
L 278.953199 291.340573 
L 279.431335 292.818962 
L 279.590714 292.709819 
L 279.750092 293.086858 
L 280.228229 292.273248 
L 280.387607 292.312936 
L 280.546986 292.799118 
L 280.706365 292.600677 
L 281.025123 291.896209 
L 281.184501 292.511378 
L 281.34388 292.015274 
L 281.503259 292.154183 
L 281.822016 292.580832 
L 282.300153 291.459638 
L 282.459531 291.261197 
L 282.61891 291.251275 
L 282.778289 290.675794 
L 282.937668 290.626184 
L 283.097046 290.358288 
L 283.415804 290.36821 
L 283.734562 291.668002 
L 283.89394 291.70769 
L 284.690834 294.108832 
L 284.850213 293.900468 
L 285.009592 293.969923 
L 285.16897 293.890546 
L 285.647107 292.799118 
L 285.806485 292.888417 
L 286.125243 292.332781 
L 286.284622 292.680053 
L 286.444001 292.104573 
L 286.603379 292.134339 
L 286.762758 291.479482 
L 287.081516 292.253404 
L 287.240894 292.342703 
L 287.559652 291.370339 
L 287.719031 291.18182 
L 287.878409 290.784937 
L 288.356546 292.541144 
L 288.515924 292.600677 
L 288.834682 293.592884 
L 289.312818 294.724 
L 289.472197 294.942286 
L 289.631576 294.585091 
L 290.109712 292.560988 
L 290.587848 291.747378 
L 290.747227 291.687846 
L 291.065985 291.171898 
L 291.225364 291.65808 
L 291.384742 291.717612 
L 291.544121 291.548937 
L 291.7035 292.074807 
L 292.022257 291.211586 
L 292.181636 291.261197 
L 292.500394 291.65808 
L 292.819151 291.171898 
L 293.137909 291.896209 
L 293.297287 291.648157 
L 293.456666 291.668002 
L 293.616045 292.074807 
L 293.934803 292.04504 
L 294.094181 292.640365 
L 294.25356 292.670131 
L 294.572318 293.38452 
L 294.891075 293.503585 
L 295.369211 294.366806 
L 296.166105 293.354754 
L 296.484863 294.366806 
L 296.80362 293.81117 
L 296.962999 293.801247 
L 297.122378 294.227897 
L 297.281757 294.118754 
L 297.441135 294.694234 
L 297.600514 294.535481 
L 298.07865 293.086858 
L 298.397408 293.364676 
L 298.716165 293.037248 
L 299.034923 291.916053 
L 299.353681 293.126546 
L 299.513059 292.957871 
L 299.672438 293.444053 
L 300.150574 292.828884 
L 300.309953 292.04504 
L 300.469332 291.886287 
L 300.628711 292.511378 
L 301.106847 291.23143 
L 301.266226 291.052833 
L 301.425604 291.201664 
L 301.584983 290.94369 
L 302.381877 292.848728 
L 302.541256 292.491534 
L 302.700635 293.186079 
L 302.860013 293.205923 
L 303.019392 293.017404 
L 303.178771 293.344832 
L 303.33815 292.749508 
L 303.497528 292.630443 
L 303.816286 292.620521 
L 303.975665 292.332781 
L 304.135044 292.729664 
L 304.294422 292.620521 
L 304.453801 292.28317 
L 304.61318 292.362547 
L 304.772559 291.777144 
L 304.931937 292.382391 
L 305.250695 292.064885 
L 305.410074 291.519171 
L 305.728831 291.916053 
L 305.88821 292.064885 
L 306.366346 293.582962 
L 306.525725 293.176157 
L 306.685104 293.364676 
L 306.844483 293.821092 
L 307.003861 293.265455 
L 307.16324 293.305144 
L 307.481998 293.057092 
L 307.641376 293.166235 
L 307.800755 293.067014 
L 307.960134 292.779274 
L 308.119513 292.898339 
L 308.278891 292.541144 
L 308.597649 293.196001 
L 308.757028 292.541144 
L 309.075785 292.600677 
L 309.235164 292.47169 
L 309.7133 293.275378 
L 309.872679 293.850858 
L 310.032058 293.652416 
L 310.350815 294.376728 
L 311.147709 292.084729 
L 311.466467 292.392313 
L 311.625845 292.322859 
L 311.785224 292.481612 
L 312.103982 292.977715 
L 312.741497 293.900468 
L 313.060254 293.771481 
L 313.219633 293.503585 
L 313.379012 293.493663 
L 313.538391 293.057092 
L 313.857148 293.602806 
L 314.175906 292.908261 
L 314.335285 292.99756 
L 314.813421 292.848728 
L 314.9728 292.451845 
L 315.132178 292.729664 
L 315.450936 291.697768 
L 316.088451 293.434131 
L 316.24783 292.719741 
L 316.725966 293.106702 
L 316.885345 293.840936 
L 317.044724 293.850858 
L 317.363481 292.154183 
L 317.52286 292.154183 
L 317.682239 291.737456 
L 318.000996 291.99543 
L 318.319754 292.154183 
L 318.638511 291.787067 
L 318.79789 292.273248 
L 318.957269 292.273248 
L 319.116647 292.5213 
L 319.594784 292.273248 
L 319.754163 292.035118 
L 319.913541 291.519171 
L 320.07292 292.134339 
L 320.232299 292.084729 
L 320.391678 292.243482 
L 320.551056 292.769352 
L 320.710435 292.273248 
L 320.869814 292.342703 
L 321.029193 292.243482 
L 321.507329 292.501456 
L 321.666708 291.856521 
L 322.144844 292.501456 
L 322.304223 292.28317 
L 322.62298 292.47169 
L 322.782359 292.620521 
L 322.941738 293.305144 
L 323.101117 293.424209 
L 323.260495 293.960001 
L 323.419874 294.009611 
L 323.579253 293.57304 
L 323.738632 292.739586 
L 324.057389 292.85865 
L 324.216768 292.977715 
L 324.535526 292.193872 
L 324.694904 292.332781 
L 325.013662 291.618391 
L 325.332419 291.806911 
L 325.491798 292.699897 
L 325.651177 292.491534 
L 325.969934 292.898339 
L 326.288692 292.332781 
L 326.766828 292.987637 
L 326.926207 293.166235 
L 327.244965 292.481612 
L 327.404343 291.985508 
L 327.563722 292.124417 
L 327.723101 292.084729 
L 327.88248 292.640365 
L 328.041858 292.75943 
L 328.201237 292.491534 
L 328.360616 292.511378 
L 328.519995 292.898339 
L 328.679373 292.938027 
L 328.998131 293.354754 
L 329.15751 292.80904 
L 329.316888 293.215845 
L 329.635646 293.007482 
L 329.795025 293.374598 
L 329.954404 293.235689 
L 330.113782 292.749508 
L 330.273161 292.75943 
L 330.751297 293.652416 
L 331.070055 293.315066 
L 331.229434 293.09678 
L 331.70757 293.126546 
L 331.866949 293.007482 
L 332.185706 292.590754 
L 332.345085 292.947949 
L 332.504464 292.80904 
L 332.823221 292.372469 
L 332.9826 292.610599 
L 333.301358 292.580832 
L 333.620115 292.709819 
L 333.938873 292.382391 
L 334.25763 292.5213 
L 334.417009 292.57091 
L 334.576388 292.094651 
L 334.735767 292.203794 
L 334.895145 292.174027 
L 335.213903 292.719741 
L 335.373282 293.434131 
L 336.170175 292.57091 
L 336.648312 291.380262 
L 336.80769 291.459638 
L 336.967069 290.913924 
L 337.285827 291.112366 
L 338.242099 293.771481 
L 338.401478 293.136469 
L 338.720236 293.04717 
L 338.879614 292.868573 
L 339.038993 293.09678 
L 339.198372 292.967793 
L 339.517129 293.513507 
L 339.676508 293.146391 
L 339.835887 293.09678 
L 339.995266 293.33491 
L 340.154645 293.305144 
L 340.473402 292.749508 
L 340.632781 293.186079 
L 340.79216 293.076936 
L 340.951538 292.620521 
L 341.110917 292.531222 
L 341.270296 292.610599 
L 341.429675 292.432001 
L 341.589053 292.422079 
L 341.748432 292.699897 
L 341.907811 292.660209 
L 342.06719 293.186079 
L 342.385947 292.719741 
L 342.545326 292.779274 
L 342.704705 292.491534 
L 342.864084 292.560988 
L 343.023462 292.85865 
L 343.182841 293.662338 
L 343.34222 293.245611 
L 343.979735 293.136469 
L 344.139114 293.364676 
L 344.457871 293.205923 
L 344.776629 292.332781 
L 344.936007 292.432001 
L 345.095386 292.670131 
L 345.254765 292.511378 
L 345.573523 291.628313 
L 345.732901 291.668002 
L 345.89228 292.005352 
L 346.051659 291.717612 
L 346.370416 291.846599 
L 347.16731 292.322859 
L 347.326689 292.342703 
L 347.804825 291.856521 
L 347.964204 291.449716 
L 348.123583 291.499326 
L 348.761098 292.670131 
L 349.079855 292.04504 
L 349.239234 292.947949 
L 349.71737 293.612728 
L 349.876749 293.483741 
L 350.195507 292.5213 
L 350.354886 292.47169 
L 350.673643 292.878495 
L 350.833022 292.441923 
L 351.151779 292.342703 
L 351.470537 291.886287 
L 352.586188 293.662338 
L 352.745567 293.38452 
L 353.383082 293.255533 
L 353.70184 291.70769 
L 354.020597 291.18182 
L 354.179976 291.142132 
L 354.339355 291.320729 
L 354.658112 290.755171 
L 354.817491 291.340573 
L 355.136248 290.923846 
L 355.295627 291.281041 
L 355.455006 291.300885 
L 355.614385 291.499326 
L 355.773764 291.350495 
L 355.933142 291.390184 
L 356.2519 291.856521 
L 356.411279 291.429872 
L 356.570657 291.519171 
L 356.889415 292.789196 
L 357.208172 292.352625 
L 357.367551 291.935898 
L 357.52693 292.590754 
L 358.164445 292.402235 
L 358.483203 291.767222 
L 358.642581 292.124417 
L 358.80196 291.925976 
L 358.961339 292.263326 
L 359.120718 291.608469 
L 359.439475 291.142132 
L 359.598854 291.271119 
L 359.758233 291.191742 
L 360.236369 292.183949 
L 360.555127 292.660209 
L 360.714505 292.709819 
L 361.192642 294.327117 
L 361.35202 294.317195 
L 361.830157 293.017404 
L 361.989535 292.967793 
L 362.148914 293.235689 
L 362.467672 293.225767 
L 362.62705 292.878495 
L 362.786429 292.074807 
L 363.264566 292.85865 
L 363.423944 292.650287 
L 363.583323 292.967793 
L 363.742702 292.828884 
L 363.902081 293.176157 
L 364.220838 293.126546 
L 364.698974 293.424209 
L 364.858353 293.900468 
L 365.017732 293.920312 
L 365.177111 293.156313 
L 365.336489 292.987637 
L 365.495868 293.04717 
L 365.655247 292.987637 
L 365.974005 293.582962 
L 366.133383 293.513507 
L 366.292762 293.781403 
L 366.452141 292.868573 
L 366.930277 293.999689 
L 367.089656 293.721871 
L 367.249035 293.801247 
L 367.408413 293.602806 
L 367.567792 293.136469 
L 367.727171 293.176157 
L 367.88655 292.947949 
L 368.045929 293.324988 
L 368.364686 292.094651 
L 368.524065 291.638235 
L 368.842822 291.866443 
L 369.16158 292.848728 
L 369.320959 292.451845 
L 369.639716 293.235689 
L 369.799095 293.791325 
L 369.958474 293.880624 
L 370.117852 294.376728 
L 370.595989 293.106702 
L 370.755368 292.47169 
L 370.914746 292.75943 
L 371.074125 292.094651 
L 371.233504 292.213716 
L 371.392883 291.826755 
L 371.552261 291.916053 
L 372.030398 292.501456 
L 372.349155 292.590754 
L 372.508534 292.223638 
L 372.667913 292.362547 
L 372.827291 292.124417 
L 372.98667 292.719741 
L 373.146049 292.75943 
L 373.624185 291.7573 
L 373.942943 292.670131 
L 374.739837 293.652416 
L 375.058594 294.208052 
L 375.377352 293.81117 
L 375.696109 293.771481 
L 376.014867 293.007482 
L 376.333624 292.015274 
L 376.652382 291.588625 
L 376.811761 291.826755 
L 377.130518 291.608469 
L 377.289897 292.28317 
L 377.449276 291.955742 
L 378.724306 294.376728 
L 378.883685 293.702027 
L 379.043063 294.217975 
L 379.202442 294.158442 
L 379.361821 294.307273 
L 379.5212 293.81117 
L 379.839957 292.501456 
L 380.477472 290.41782 
L 380.636851 290.298755 
L 380.79623 290.735327 
L 380.955609 290.477353 
L 381.752502 291.99543 
L 381.911881 292.144261 
L 382.07126 292.620521 
L 382.230639 292.600677 
L 382.390017 291.935898 
L 382.549396 292.23356 
L 382.708775 291.826755 
L 383.186911 292.084729 
L 383.34629 291.955742 
L 383.505669 292.035118 
L 383.824426 291.320729 
L 383.983805 291.41995 
L 384.143184 291.13221 
L 384.461941 292.054963 
L 384.780699 291.459638 
L 385.099456 292.005352 
L 385.577593 293.126546 
L 385.736971 293.533351 
L 385.89635 293.404365 
L 386.055729 292.580832 
L 386.374487 292.739586 
L 386.533865 293.225767 
L 387.012002 292.987637 
L 387.17138 292.957871 
L 387.490138 291.687846 
L 387.808895 292.620521 
L 387.968274 292.85865 
L 388.127653 292.084729 
L 388.287032 292.134339 
L 388.44641 292.025196 
L 388.605789 291.479482 
L 388.765168 291.400106 
L 389.083926 292.769352 
L 389.243304 292.749508 
L 389.402683 292.47169 
L 389.721441 292.938027 
L 389.880819 293.444053 
L 390.040198 293.444053 
L 390.199577 294.009611 
L 390.518334 293.57304 
L 390.677713 293.662338 
L 390.837092 293.037248 
L 390.996471 292.908261 
L 391.15585 292.531222 
L 391.315228 292.938027 
L 391.474607 292.719741 
L 391.793365 291.608469 
L 391.952743 292.094651 
L 392.112122 292.094651 
L 392.271501 290.834547 
L 392.43088 291.171898 
L 392.590258 290.913924 
L 392.749637 291.866443 
L 392.909016 290.973456 
L 393.068395 290.745249 
L 393.227773 291.18182 
L 393.387152 291.191742 
L 393.546531 291.648157 
L 393.70591 291.519171 
L 393.865289 292.799118 
L 394.184046 293.642494 
L 394.343425 292.590754 
L 394.502804 292.501456 
L 394.821561 294.376728 
L 394.98094 294.972052 
L 395.140319 294.595013 
L 395.299697 294.694234 
L 395.777834 293.305144 
L 396.096591 294.96213 
L 396.415349 292.848728 
L 396.734106 291.360417 
L 396.893485 291.449716 
L 397.052864 291.737456 
L 397.371621 293.364676 
L 397.531 293.186079 
L 397.690379 292.580832 
L 397.849758 292.660209 
L 398.168515 293.404365 
L 398.487273 294.158442 
L 398.487273 294.158442 
" style="fill:none;stroke:#1f77b4;stroke-linecap:square;stroke-width:1.5;"/>
   </g>
   <g id="line2d_14">
    <path clip-path="url(#pca3c938a82)" d="M 201.654497 53.568 
" style="fill:none;stroke:#ff7f0e;stroke-linecap:square;stroke-width:1.5;"/>
    <defs>
     <path d="M -1.5 -2.598076 
L -3 -0 
L -1.5 2.598076 
L 1.5 2.598076 
L 3 0 
L 1.5 -2.598076 
z
" id="mc26bd8eb2f" style="stroke:#ff7f0e;stroke-linejoin:miter;"/>
    </defs>
    <g clip-path="url(#pca3c938a82)">
     <use style="fill:#ff7f0e;stroke:#ff7f0e;stroke-linejoin:miter;" x="201.654497" xlink:href="#mc26bd8eb2f" y="53.568"/>
    </g>
   </g>
   <g id="patch_3">
    <path d="M 57.6 307.584 
L 57.6 41.472 
" style="fill:none;stroke:#000000;stroke-linecap:square;stroke-linejoin:miter;stroke-width:0.8;"/>
   </g>
   <g id="patch_4">
    <path d="M 414.72 307.584 
L 414.72 41.472 
" style="fill:none;stroke:#000000;stroke-linecap:square;stroke-linejoin:miter;stroke-width:0.8;"/>
   </g>
   <g id="patch_5">
    <path d="M 57.6 307.584 
L 414.72 307.584 
" style="fill:none;stroke:#000000;stroke-linecap:square;stroke-linejoin:miter;stroke-width:0.8;"/>
   </g>
   <g id="patch_6">
    <path d="M 57.6 41.472 
L 414.72 41.472 
" style="fill:none;stroke:#000000;stroke-linecap:square;stroke-linejoin:miter;stroke-width:0.8;"/>
   </g>
   <g id="text_15">
    <!-- Peaks -->
    <g transform="translate(218.790937 35.472)scale(0.12 -0.12)">
     <defs>
      <path d="M 1259 4147 
L 1259 2394 
L 2053 2394 
Q 2494 2394 2734 2622 
Q 2975 2850 2975 3272 
Q 2975 3691 2734 3919 
Q 2494 4147 2053 4147 
L 1259 4147 
z
M 628 4666 
L 2053 4666 
Q 2838 4666 3239 4311 
Q 3641 3956 3641 3272 
Q 3641 2581 3239 2228 
Q 2838 1875 2053 1875 
L 1259 1875 
L 1259 0 
L 628 0 
L 628 4666 
z
" id="DejaVuSans-50" transform="scale(0.015625)"/>
      <path d="M 581 4863 
L 1159 4863 
L 1159 1991 
L 2875 3500 
L 3609 3500 
L 1753 1863 
L 3688 0 
L 2938 0 
L 1159 1709 
L 1159 0 
L 581 0 
L 581 4863 
z
" id="DejaVuSans-6b" transform="scale(0.015625)"/>
     </defs>
     <use xlink:href="#DejaVuSans-50"/>
     <use x="56.677734" xlink:href="#DejaVuSans-65"/>
     <use x="118.201172" xlink:href="#DejaVuSans-61"/>
     <use x="179.480469" xlink:href="#DejaVuSans-6b"/>
     <use x="237.390625" xlink:href="#DejaVuSans-73"/>
    </g>
   </g>
  </g>
 </g>
 <defs>
  <clipPath id="pca3c938a82">
   <rect height="266.112" width="357.12" x="57.6" y="41.472"/>
  </clipPath>
 </defs>
</svg>
