<?xml version="1.0" encoding="utf-8" standalone="no"?>
<!DOCTYPE svg PUBLIC "-//W3C//DTD SVG 1.1//EN"
  "http://www.w3.org/Graphics/SVG/1.1/DTD/svg11.dtd">
<svg height="345.6pt" version="1.1" viewBox="0 0 460.8 345.6" width="460.8pt" xmlns="http://www.w3.org/2000/svg" xmlns:xlink="http://www.w3.org/1999/xlink">
 <metadata>
  <rdf:RDF xmlns:cc="http://creativecommons.org/ns#" xmlns:dc="http://purl.org/dc/elements/1.1/" xmlns:rdf="http://www.w3.org/1999/02/22-rdf-syntax-ns#">
   <cc:Work>
    <dc:type rdf:resource="http://purl.org/dc/dcmitype/StillImage"/>
    <dc:date>2022-04-22T17:15:16.952617</dc:date>
    <dc:format>image/svg+xml</dc:format>
    <dc:creator>
     <cc:Agent>
      <dc:title>Matplotlib v3.4.1, https://matplotlib.org/</dc:title>
     </cc:Agent>
    </dc:creator>
   </cc:Work>
  </rdf:RDF>
 </metadata>
 <defs>
  <style type="text/css">*{stroke-linecap:butt;stroke-linejoin:round;}</style>
 </defs>
 <g id="figure_1">
  <g id="patch_1">
   <path d="M 0 345.6 
L 460.8 345.6 
L 460.8 0 
L 0 0 
z
" style="fill:#ffffff;"/>
  </g>
  <g id="axes_1">
   <g id="patch_2">
    <path d="M 57.6 307.584 
L 414.72 307.584 
L 414.72 41.472 
L 57.6 41.472 
z
" style="fill:#ffffff;"/>
   </g>
   <g id="matplotlib.axis_1">
    <g id="xtick_1">
     <g id="line2d_1">
      <defs>
       <path d="M 0 0 
L 0 3.5 
" id="m8ce51837a1" style="stroke:#000000;stroke-width:0.8;"/>
      </defs>
      <g>
       <use style="stroke:#000000;stroke-width:0.8;" x="102.929605" xlink:href="#m8ce51837a1" y="307.584"/>
      </g>
     </g>
     <g id="text_1">
      <!-- 400 -->
      <g transform="translate(93.385855 322.182437)scale(0.1 -0.1)">
       <defs>
        <path d="M 2419 4116 
L 825 1625 
L 2419 1625 
L 2419 4116 
z
M 2253 4666 
L 3047 4666 
L 3047 1625 
L 3713 1625 
L 3713 1100 
L 3047 1100 
L 3047 0 
L 2419 0 
L 2419 1100 
L 313 1100 
L 313 1709 
L 2253 4666 
z
" id="DejaVuSans-34" transform="scale(0.015625)"/>
        <path d="M 2034 4250 
Q 1547 4250 1301 3770 
Q 1056 3291 1056 2328 
Q 1056 1369 1301 889 
Q 1547 409 2034 409 
Q 2525 409 2770 889 
Q 3016 1369 3016 2328 
Q 3016 3291 2770 3770 
Q 2525 4250 2034 4250 
z
M 2034 4750 
Q 2819 4750 3233 4129 
Q 3647 3509 3647 2328 
Q 3647 1150 3233 529 
Q 2819 -91 2034 -91 
Q 1250 -91 836 529 
Q 422 1150 422 2328 
Q 422 3509 836 4129 
Q 1250 4750 2034 4750 
z
" id="DejaVuSans-30" transform="scale(0.015625)"/>
       </defs>
       <use xlink:href="#DejaVuSans-34"/>
       <use x="63.623047" xlink:href="#DejaVuSans-30"/>
       <use x="127.246094" xlink:href="#DejaVuSans-30"/>
      </g>
     </g>
    </g>
    <g id="xtick_2">
     <g id="line2d_2">
      <g>
       <use style="stroke:#000000;stroke-width:0.8;" x="160.931952" xlink:href="#m8ce51837a1" y="307.584"/>
      </g>
     </g>
     <g id="text_2">
      <!-- 600 -->
      <g transform="translate(151.388202 322.182437)scale(0.1 -0.1)">
       <defs>
        <path d="M 2113 2584 
Q 1688 2584 1439 2293 
Q 1191 2003 1191 1497 
Q 1191 994 1439 701 
Q 1688 409 2113 409 
Q 2538 409 2786 701 
Q 3034 994 3034 1497 
Q 3034 2003 2786 2293 
Q 2538 2584 2113 2584 
z
M 3366 4563 
L 3366 3988 
Q 3128 4100 2886 4159 
Q 2644 4219 2406 4219 
Q 1781 4219 1451 3797 
Q 1122 3375 1075 2522 
Q 1259 2794 1537 2939 
Q 1816 3084 2150 3084 
Q 2853 3084 3261 2657 
Q 3669 2231 3669 1497 
Q 3669 778 3244 343 
Q 2819 -91 2113 -91 
Q 1303 -91 875 529 
Q 447 1150 447 2328 
Q 447 3434 972 4092 
Q 1497 4750 2381 4750 
Q 2619 4750 2861 4703 
Q 3103 4656 3366 4563 
z
" id="DejaVuSans-36" transform="scale(0.015625)"/>
       </defs>
       <use xlink:href="#DejaVuSans-36"/>
       <use x="63.623047" xlink:href="#DejaVuSans-30"/>
       <use x="127.246094" xlink:href="#DejaVuSans-30"/>
      </g>
     </g>
    </g>
    <g id="xtick_3">
     <g id="line2d_3">
      <g>
       <use style="stroke:#000000;stroke-width:0.8;" x="218.9343" xlink:href="#m8ce51837a1" y="307.584"/>
      </g>
     </g>
     <g id="text_3">
      <!-- 800 -->
      <g transform="translate(209.39055 322.182437)scale(0.1 -0.1)">
       <defs>
        <path d="M 2034 2216 
Q 1584 2216 1326 1975 
Q 1069 1734 1069 1313 
Q 1069 891 1326 650 
Q 1584 409 2034 409 
Q 2484 409 2743 651 
Q 3003 894 3003 1313 
Q 3003 1734 2745 1975 
Q 2488 2216 2034 2216 
z
M 1403 2484 
Q 997 2584 770 2862 
Q 544 3141 544 3541 
Q 544 4100 942 4425 
Q 1341 4750 2034 4750 
Q 2731 4750 3128 4425 
Q 3525 4100 3525 3541 
Q 3525 3141 3298 2862 
Q 3072 2584 2669 2484 
Q 3125 2378 3379 2068 
Q 3634 1759 3634 1313 
Q 3634 634 3220 271 
Q 2806 -91 2034 -91 
Q 1263 -91 848 271 
Q 434 634 434 1313 
Q 434 1759 690 2068 
Q 947 2378 1403 2484 
z
M 1172 3481 
Q 1172 3119 1398 2916 
Q 1625 2713 2034 2713 
Q 2441 2713 2670 2916 
Q 2900 3119 2900 3481 
Q 2900 3844 2670 4047 
Q 2441 4250 2034 4250 
Q 1625 4250 1398 4047 
Q 1172 3844 1172 3481 
z
" id="DejaVuSans-38" transform="scale(0.015625)"/>
       </defs>
       <use xlink:href="#DejaVuSans-38"/>
       <use x="63.623047" xlink:href="#DejaVuSans-30"/>
       <use x="127.246094" xlink:href="#DejaVuSans-30"/>
      </g>
     </g>
    </g>
    <g id="xtick_4">
     <g id="line2d_4">
      <g>
       <use style="stroke:#000000;stroke-width:0.8;" x="276.936647" xlink:href="#m8ce51837a1" y="307.584"/>
      </g>
     </g>
     <g id="text_4">
      <!-- 1000 -->
      <g transform="translate(264.211647 322.182437)scale(0.1 -0.1)">
       <defs>
        <path d="M 794 531 
L 1825 531 
L 1825 4091 
L 703 3866 
L 703 4441 
L 1819 4666 
L 2450 4666 
L 2450 531 
L 3481 531 
L 3481 0 
L 794 0 
L 794 531 
z
" id="DejaVuSans-31" transform="scale(0.015625)"/>
       </defs>
       <use xlink:href="#DejaVuSans-31"/>
       <use x="63.623047" xlink:href="#DejaVuSans-30"/>
       <use x="127.246094" xlink:href="#DejaVuSans-30"/>
       <use x="190.869141" xlink:href="#DejaVuSans-30"/>
      </g>
     </g>
    </g>
    <g id="xtick_5">
     <g id="line2d_5">
      <g>
       <use style="stroke:#000000;stroke-width:0.8;" x="334.938995" xlink:href="#m8ce51837a1" y="307.584"/>
      </g>
     </g>
     <g id="text_5">
      <!-- 1200 -->
      <g transform="translate(322.213995 322.182437)scale(0.1 -0.1)">
       <defs>
        <path d="M 1228 531 
L 3431 531 
L 3431 0 
L 469 0 
L 469 531 
Q 828 903 1448 1529 
Q 2069 2156 2228 2338 
Q 2531 2678 2651 2914 
Q 2772 3150 2772 3378 
Q 2772 3750 2511 3984 
Q 2250 4219 1831 4219 
Q 1534 4219 1204 4116 
Q 875 4013 500 3803 
L 500 4441 
Q 881 4594 1212 4672 
Q 1544 4750 1819 4750 
Q 2544 4750 2975 4387 
Q 3406 4025 3406 3419 
Q 3406 3131 3298 2873 
Q 3191 2616 2906 2266 
Q 2828 2175 2409 1742 
Q 1991 1309 1228 531 
z
" id="DejaVuSans-32" transform="scale(0.015625)"/>
       </defs>
       <use xlink:href="#DejaVuSans-31"/>
       <use x="63.623047" xlink:href="#DejaVuSans-32"/>
       <use x="127.246094" xlink:href="#DejaVuSans-30"/>
       <use x="190.869141" xlink:href="#DejaVuSans-30"/>
      </g>
     </g>
    </g>
    <g id="xtick_6">
     <g id="line2d_6">
      <g>
       <use style="stroke:#000000;stroke-width:0.8;" x="392.941342" xlink:href="#m8ce51837a1" y="307.584"/>
      </g>
     </g>
     <g id="text_6">
      <!-- 1400 -->
      <g transform="translate(380.216342 322.182437)scale(0.1 -0.1)">
       <use xlink:href="#DejaVuSans-31"/>
       <use x="63.623047" xlink:href="#DejaVuSans-34"/>
       <use x="127.246094" xlink:href="#DejaVuSans-30"/>
       <use x="190.869141" xlink:href="#DejaVuSans-30"/>
      </g>
     </g>
    </g>
    <g id="text_7">
     <!-- Wavelength [nm] -->
     <g transform="translate(192.967812 335.860562)scale(0.1 -0.1)">
      <defs>
       <path d="M 213 4666 
L 850 4666 
L 1831 722 
L 2809 4666 
L 3519 4666 
L 4500 722 
L 5478 4666 
L 6119 4666 
L 4947 0 
L 4153 0 
L 3169 4050 
L 2175 0 
L 1381 0 
L 213 4666 
z
" id="DejaVuSans-57" transform="scale(0.015625)"/>
       <path d="M 2194 1759 
Q 1497 1759 1228 1600 
Q 959 1441 959 1056 
Q 959 750 1161 570 
Q 1363 391 1709 391 
Q 2188 391 2477 730 
Q 2766 1069 2766 1631 
L 2766 1759 
L 2194 1759 
z
M 3341 1997 
L 3341 0 
L 2766 0 
L 2766 531 
Q 2569 213 2275 61 
Q 1981 -91 1556 -91 
Q 1019 -91 701 211 
Q 384 513 384 1019 
Q 384 1609 779 1909 
Q 1175 2209 1959 2209 
L 2766 2209 
L 2766 2266 
Q 2766 2663 2505 2880 
Q 2244 3097 1772 3097 
Q 1472 3097 1187 3025 
Q 903 2953 641 2809 
L 641 3341 
Q 956 3463 1253 3523 
Q 1550 3584 1831 3584 
Q 2591 3584 2966 3190 
Q 3341 2797 3341 1997 
z
" id="DejaVuSans-61" transform="scale(0.015625)"/>
       <path d="M 191 3500 
L 800 3500 
L 1894 563 
L 2988 3500 
L 3597 3500 
L 2284 0 
L 1503 0 
L 191 3500 
z
" id="DejaVuSans-76" transform="scale(0.015625)"/>
       <path d="M 3597 1894 
L 3597 1613 
L 953 1613 
Q 991 1019 1311 708 
Q 1631 397 2203 397 
Q 2534 397 2845 478 
Q 3156 559 3463 722 
L 3463 178 
Q 3153 47 2828 -22 
Q 2503 -91 2169 -91 
Q 1331 -91 842 396 
Q 353 884 353 1716 
Q 353 2575 817 3079 
Q 1281 3584 2069 3584 
Q 2775 3584 3186 3129 
Q 3597 2675 3597 1894 
z
M 3022 2063 
Q 3016 2534 2758 2815 
Q 2500 3097 2075 3097 
Q 1594 3097 1305 2825 
Q 1016 2553 972 2059 
L 3022 2063 
z
" id="DejaVuSans-65" transform="scale(0.015625)"/>
       <path d="M 603 4863 
L 1178 4863 
L 1178 0 
L 603 0 
L 603 4863 
z
" id="DejaVuSans-6c" transform="scale(0.015625)"/>
       <path d="M 3513 2113 
L 3513 0 
L 2938 0 
L 2938 2094 
Q 2938 2591 2744 2837 
Q 2550 3084 2163 3084 
Q 1697 3084 1428 2787 
Q 1159 2491 1159 1978 
L 1159 0 
L 581 0 
L 581 3500 
L 1159 3500 
L 1159 2956 
Q 1366 3272 1645 3428 
Q 1925 3584 2291 3584 
Q 2894 3584 3203 3211 
Q 3513 2838 3513 2113 
z
" id="DejaVuSans-6e" transform="scale(0.015625)"/>
       <path d="M 2906 1791 
Q 2906 2416 2648 2759 
Q 2391 3103 1925 3103 
Q 1463 3103 1205 2759 
Q 947 2416 947 1791 
Q 947 1169 1205 825 
Q 1463 481 1925 481 
Q 2391 481 2648 825 
Q 2906 1169 2906 1791 
z
M 3481 434 
Q 3481 -459 3084 -895 
Q 2688 -1331 1869 -1331 
Q 1566 -1331 1297 -1286 
Q 1028 -1241 775 -1147 
L 775 -588 
Q 1028 -725 1275 -790 
Q 1522 -856 1778 -856 
Q 2344 -856 2625 -561 
Q 2906 -266 2906 331 
L 2906 616 
Q 2728 306 2450 153 
Q 2172 0 1784 0 
Q 1141 0 747 490 
Q 353 981 353 1791 
Q 353 2603 747 3093 
Q 1141 3584 1784 3584 
Q 2172 3584 2450 3431 
Q 2728 3278 2906 2969 
L 2906 3500 
L 3481 3500 
L 3481 434 
z
" id="DejaVuSans-67" transform="scale(0.015625)"/>
       <path d="M 1172 4494 
L 1172 3500 
L 2356 3500 
L 2356 3053 
L 1172 3053 
L 1172 1153 
Q 1172 725 1289 603 
Q 1406 481 1766 481 
L 2356 481 
L 2356 0 
L 1766 0 
Q 1100 0 847 248 
Q 594 497 594 1153 
L 594 3053 
L 172 3053 
L 172 3500 
L 594 3500 
L 594 4494 
L 1172 4494 
z
" id="DejaVuSans-74" transform="scale(0.015625)"/>
       <path d="M 3513 2113 
L 3513 0 
L 2938 0 
L 2938 2094 
Q 2938 2591 2744 2837 
Q 2550 3084 2163 3084 
Q 1697 3084 1428 2787 
Q 1159 2491 1159 1978 
L 1159 0 
L 581 0 
L 581 4863 
L 1159 4863 
L 1159 2956 
Q 1366 3272 1645 3428 
Q 1925 3584 2291 3584 
Q 2894 3584 3203 3211 
Q 3513 2838 3513 2113 
z
" id="DejaVuSans-68" transform="scale(0.015625)"/>
       <path id="DejaVuSans-20" transform="scale(0.015625)"/>
       <path d="M 550 4863 
L 1875 4863 
L 1875 4416 
L 1125 4416 
L 1125 -397 
L 1875 -397 
L 1875 -844 
L 550 -844 
L 550 4863 
z
" id="DejaVuSans-5b" transform="scale(0.015625)"/>
       <path d="M 3328 2828 
Q 3544 3216 3844 3400 
Q 4144 3584 4550 3584 
Q 5097 3584 5394 3201 
Q 5691 2819 5691 2113 
L 5691 0 
L 5113 0 
L 5113 2094 
Q 5113 2597 4934 2840 
Q 4756 3084 4391 3084 
Q 3944 3084 3684 2787 
Q 3425 2491 3425 1978 
L 3425 0 
L 2847 0 
L 2847 2094 
Q 2847 2600 2669 2842 
Q 2491 3084 2119 3084 
Q 1678 3084 1418 2786 
Q 1159 2488 1159 1978 
L 1159 0 
L 581 0 
L 581 3500 
L 1159 3500 
L 1159 2956 
Q 1356 3278 1631 3431 
Q 1906 3584 2284 3584 
Q 2666 3584 2933 3390 
Q 3200 3197 3328 2828 
z
" id="DejaVuSans-6d" transform="scale(0.015625)"/>
       <path d="M 1947 4863 
L 1947 -844 
L 622 -844 
L 622 -397 
L 1369 -397 
L 1369 4416 
L 622 4416 
L 622 4863 
L 1947 4863 
z
" id="DejaVuSans-5d" transform="scale(0.015625)"/>
      </defs>
      <use xlink:href="#DejaVuSans-57"/>
      <use x="92.501953" xlink:href="#DejaVuSans-61"/>
      <use x="153.78125" xlink:href="#DejaVuSans-76"/>
      <use x="212.960938" xlink:href="#DejaVuSans-65"/>
      <use x="274.484375" xlink:href="#DejaVuSans-6c"/>
      <use x="302.267578" xlink:href="#DejaVuSans-65"/>
      <use x="363.791016" xlink:href="#DejaVuSans-6e"/>
      <use x="427.169922" xlink:href="#DejaVuSans-67"/>
      <use x="490.646484" xlink:href="#DejaVuSans-74"/>
      <use x="529.855469" xlink:href="#DejaVuSans-68"/>
      <use x="593.234375" xlink:href="#DejaVuSans-20"/>
      <use x="625.021484" xlink:href="#DejaVuSans-5b"/>
      <use x="664.035156" xlink:href="#DejaVuSans-6e"/>
      <use x="727.414062" xlink:href="#DejaVuSans-6d"/>
      <use x="824.826172" xlink:href="#DejaVuSans-5d"/>
     </g>
    </g>
   </g>
   <g id="matplotlib.axis_2">
    <g id="ytick_1">
     <g id="line2d_7">
      <defs>
       <path d="M 0 0 
L -3.5 0 
" id="mb93e0c2d3d" style="stroke:#000000;stroke-width:0.8;"/>
      </defs>
      <g>
       <use style="stroke:#000000;stroke-width:0.8;" x="57.6" xlink:href="#mb93e0c2d3d" y="296.606059"/>
      </g>
     </g>
     <g id="text_8">
      <!-- 1000 -->
      <g transform="translate(25.15 300.405278)scale(0.1 -0.1)">
       <use xlink:href="#DejaVuSans-31"/>
       <use x="63.623047" xlink:href="#DejaVuSans-30"/>
       <use x="127.246094" xlink:href="#DejaVuSans-30"/>
       <use x="190.869141" xlink:href="#DejaVuSans-30"/>
      </g>
     </g>
    </g>
    <g id="ytick_2">
     <g id="line2d_8">
      <g>
       <use style="stroke:#000000;stroke-width:0.8;" x="57.6" xlink:href="#mb93e0c2d3d" y="261.666718"/>
      </g>
     </g>
     <g id="text_9">
      <!-- 2000 -->
      <g transform="translate(25.15 265.465936)scale(0.1 -0.1)">
       <use xlink:href="#DejaVuSans-32"/>
       <use x="63.623047" xlink:href="#DejaVuSans-30"/>
       <use x="127.246094" xlink:href="#DejaVuSans-30"/>
       <use x="190.869141" xlink:href="#DejaVuSans-30"/>
      </g>
     </g>
    </g>
    <g id="ytick_3">
     <g id="line2d_9">
      <g>
       <use style="stroke:#000000;stroke-width:0.8;" x="57.6" xlink:href="#mb93e0c2d3d" y="226.727376"/>
      </g>
     </g>
     <g id="text_10">
      <!-- 3000 -->
      <g transform="translate(25.15 230.526595)scale(0.1 -0.1)">
       <defs>
        <path d="M 2597 2516 
Q 3050 2419 3304 2112 
Q 3559 1806 3559 1356 
Q 3559 666 3084 287 
Q 2609 -91 1734 -91 
Q 1441 -91 1130 -33 
Q 819 25 488 141 
L 488 750 
Q 750 597 1062 519 
Q 1375 441 1716 441 
Q 2309 441 2620 675 
Q 2931 909 2931 1356 
Q 2931 1769 2642 2001 
Q 2353 2234 1838 2234 
L 1294 2234 
L 1294 2753 
L 1863 2753 
Q 2328 2753 2575 2939 
Q 2822 3125 2822 3475 
Q 2822 3834 2567 4026 
Q 2313 4219 1838 4219 
Q 1578 4219 1281 4162 
Q 984 4106 628 3988 
L 628 4550 
Q 988 4650 1302 4700 
Q 1616 4750 1894 4750 
Q 2613 4750 3031 4423 
Q 3450 4097 3450 3541 
Q 3450 3153 3228 2886 
Q 3006 2619 2597 2516 
z
" id="DejaVuSans-33" transform="scale(0.015625)"/>
       </defs>
       <use xlink:href="#DejaVuSans-33"/>
       <use x="63.623047" xlink:href="#DejaVuSans-30"/>
       <use x="127.246094" xlink:href="#DejaVuSans-30"/>
       <use x="190.869141" xlink:href="#DejaVuSans-30"/>
      </g>
     </g>
    </g>
    <g id="ytick_4">
     <g id="line2d_10">
      <g>
       <use style="stroke:#000000;stroke-width:0.8;" x="57.6" xlink:href="#mb93e0c2d3d" y="191.788035"/>
      </g>
     </g>
     <g id="text_11">
      <!-- 4000 -->
      <g transform="translate(25.15 195.587253)scale(0.1 -0.1)">
       <use xlink:href="#DejaVuSans-34"/>
       <use x="63.623047" xlink:href="#DejaVuSans-30"/>
       <use x="127.246094" xlink:href="#DejaVuSans-30"/>
       <use x="190.869141" xlink:href="#DejaVuSans-30"/>
      </g>
     </g>
    </g>
    <g id="ytick_5">
     <g id="line2d_11">
      <g>
       <use style="stroke:#000000;stroke-width:0.8;" x="57.6" xlink:href="#mb93e0c2d3d" y="156.848693"/>
      </g>
     </g>
     <g id="text_12">
      <!-- 5000 -->
      <g transform="translate(25.15 160.647912)scale(0.1 -0.1)">
       <defs>
        <path d="M 691 4666 
L 3169 4666 
L 3169 4134 
L 1269 4134 
L 1269 2991 
Q 1406 3038 1543 3061 
Q 1681 3084 1819 3084 
Q 2600 3084 3056 2656 
Q 3513 2228 3513 1497 
Q 3513 744 3044 326 
Q 2575 -91 1722 -91 
Q 1428 -91 1123 -41 
Q 819 9 494 109 
L 494 744 
Q 775 591 1075 516 
Q 1375 441 1709 441 
Q 2250 441 2565 725 
Q 2881 1009 2881 1497 
Q 2881 1984 2565 2268 
Q 2250 2553 1709 2553 
Q 1456 2553 1204 2497 
Q 953 2441 691 2322 
L 691 4666 
z
" id="DejaVuSans-35" transform="scale(0.015625)"/>
       </defs>
       <use xlink:href="#DejaVuSans-35"/>
       <use x="63.623047" xlink:href="#DejaVuSans-30"/>
       <use x="127.246094" xlink:href="#DejaVuSans-30"/>
       <use x="190.869141" xlink:href="#DejaVuSans-30"/>
      </g>
     </g>
    </g>
    <g id="ytick_6">
     <g id="line2d_12">
      <g>
       <use style="stroke:#000000;stroke-width:0.8;" x="57.6" xlink:href="#mb93e0c2d3d" y="121.909352"/>
      </g>
     </g>
     <g id="text_13">
      <!-- 6000 -->
      <g transform="translate(25.15 125.708571)scale(0.1 -0.1)">
       <use xlink:href="#DejaVuSans-36"/>
       <use x="63.623047" xlink:href="#DejaVuSans-30"/>
       <use x="127.246094" xlink:href="#DejaVuSans-30"/>
       <use x="190.869141" xlink:href="#DejaVuSans-30"/>
      </g>
     </g>
    </g>
    <g id="ytick_7">
     <g id="line2d_13">
      <g>
       <use style="stroke:#000000;stroke-width:0.8;" x="57.6" xlink:href="#mb93e0c2d3d" y="86.97001"/>
      </g>
     </g>
     <g id="text_14">
      <!-- 7000 -->
      <g transform="translate(25.15 90.769229)scale(0.1 -0.1)">
       <defs>
        <path d="M 525 4666 
L 3525 4666 
L 3525 4397 
L 1831 0 
L 1172 0 
L 2766 4134 
L 525 4134 
L 525 4666 
z
" id="DejaVuSans-37" transform="scale(0.015625)"/>
       </defs>
       <use xlink:href="#DejaVuSans-37"/>
       <use x="63.623047" xlink:href="#DejaVuSans-30"/>
       <use x="127.246094" xlink:href="#DejaVuSans-30"/>
       <use x="190.869141" xlink:href="#DejaVuSans-30"/>
      </g>
     </g>
    </g>
    <g id="ytick_8">
     <g id="line2d_14">
      <g>
       <use style="stroke:#000000;stroke-width:0.8;" x="57.6" xlink:href="#mb93e0c2d3d" y="52.030669"/>
      </g>
     </g>
     <g id="text_15">
      <!-- 8000 -->
      <g transform="translate(25.15 55.829888)scale(0.1 -0.1)">
       <use xlink:href="#DejaVuSans-38"/>
       <use x="63.623047" xlink:href="#DejaVuSans-30"/>
       <use x="127.246094" xlink:href="#DejaVuSans-30"/>
       <use x="190.869141" xlink:href="#DejaVuSans-30"/>
      </g>
     </g>
    </g>
    <g id="text_16">
     <!-- Counts -->
     <g transform="translate(19.070312 191.981125)rotate(-90)scale(0.1 -0.1)">
      <defs>
       <path d="M 4122 4306 
L 4122 3641 
Q 3803 3938 3442 4084 
Q 3081 4231 2675 4231 
Q 1875 4231 1450 3742 
Q 1025 3253 1025 2328 
Q 1025 1406 1450 917 
Q 1875 428 2675 428 
Q 3081 428 3442 575 
Q 3803 722 4122 1019 
L 4122 359 
Q 3791 134 3420 21 
Q 3050 -91 2638 -91 
Q 1578 -91 968 557 
Q 359 1206 359 2328 
Q 359 3453 968 4101 
Q 1578 4750 2638 4750 
Q 3056 4750 3426 4639 
Q 3797 4528 4122 4306 
z
" id="DejaVuSans-43" transform="scale(0.015625)"/>
       <path d="M 1959 3097 
Q 1497 3097 1228 2736 
Q 959 2375 959 1747 
Q 959 1119 1226 758 
Q 1494 397 1959 397 
Q 2419 397 2687 759 
Q 2956 1122 2956 1747 
Q 2956 2369 2687 2733 
Q 2419 3097 1959 3097 
z
M 1959 3584 
Q 2709 3584 3137 3096 
Q 3566 2609 3566 1747 
Q 3566 888 3137 398 
Q 2709 -91 1959 -91 
Q 1206 -91 779 398 
Q 353 888 353 1747 
Q 353 2609 779 3096 
Q 1206 3584 1959 3584 
z
" id="DejaVuSans-6f" transform="scale(0.015625)"/>
       <path d="M 544 1381 
L 544 3500 
L 1119 3500 
L 1119 1403 
Q 1119 906 1312 657 
Q 1506 409 1894 409 
Q 2359 409 2629 706 
Q 2900 1003 2900 1516 
L 2900 3500 
L 3475 3500 
L 3475 0 
L 2900 0 
L 2900 538 
Q 2691 219 2414 64 
Q 2138 -91 1772 -91 
Q 1169 -91 856 284 
Q 544 659 544 1381 
z
M 1991 3584 
L 1991 3584 
z
" id="DejaVuSans-75" transform="scale(0.015625)"/>
       <path d="M 2834 3397 
L 2834 2853 
Q 2591 2978 2328 3040 
Q 2066 3103 1784 3103 
Q 1356 3103 1142 2972 
Q 928 2841 928 2578 
Q 928 2378 1081 2264 
Q 1234 2150 1697 2047 
L 1894 2003 
Q 2506 1872 2764 1633 
Q 3022 1394 3022 966 
Q 3022 478 2636 193 
Q 2250 -91 1575 -91 
Q 1294 -91 989 -36 
Q 684 19 347 128 
L 347 722 
Q 666 556 975 473 
Q 1284 391 1588 391 
Q 1994 391 2212 530 
Q 2431 669 2431 922 
Q 2431 1156 2273 1281 
Q 2116 1406 1581 1522 
L 1381 1569 
Q 847 1681 609 1914 
Q 372 2147 372 2553 
Q 372 3047 722 3315 
Q 1072 3584 1716 3584 
Q 2034 3584 2315 3537 
Q 2597 3491 2834 3397 
z
" id="DejaVuSans-73" transform="scale(0.015625)"/>
      </defs>
      <use xlink:href="#DejaVuSans-43"/>
      <use x="69.824219" xlink:href="#DejaVuSans-6f"/>
      <use x="131.005859" xlink:href="#DejaVuSans-75"/>
      <use x="194.384766" xlink:href="#DejaVuSans-6e"/>
      <use x="257.763672" xlink:href="#DejaVuSans-74"/>
      <use x="296.972656" xlink:href="#DejaVuSans-73"/>
     </g>
    </g>
   </g>
   <g id="line2d_15">
    <path clip-path="url(#p41415f9574)" d="M 73.832727 251.184915 
L 73.991327 257.753511 
L 74.149928 254.399334 
L 74.308528 220.298537 
L 74.467128 252.442731 
L 74.625728 239.724811 
L 74.784328 269.353373 
L 74.942928 264.461865 
L 75.101529 275.223182 
L 75.418729 241.541657 
L 75.577329 263.204049 
L 75.894529 224.631016 
L 76.21173 241.821172 
L 76.37033 227.146648 
L 76.52893 254.259577 
L 76.68753 252.582489 
L 76.84613 270.191917 
L 77.004731 261.387203 
L 77.163331 259.570357 
L 77.321931 259.151085 
L 77.480531 252.163217 
L 77.639131 204.505955 
L 77.797731 260.967931 
L 77.956332 206.322801 
L 78.114932 261.52696 
L 78.273532 232.8767 
L 78.432132 285.145955 
L 78.749333 251.743945 
L 78.907933 278.437601 
L 79.066533 252.862003 
L 79.225133 251.883702 
L 79.700934 278.577359 
L 80.018134 247.830738 
L 80.176734 276.480998 
L 80.335334 254.259577 
L 80.811135 271.58949 
L 80.969735 233.295972 
L 81.128335 253.281276 
L 81.286935 250.066856 
L 81.445535 265.859438 
L 81.604136 259.4306 
L 81.762736 258.312541 
L 81.921336 219.459993 
L 82.079936 261.52696 
L 82.238536 260.967931 
L 82.397136 263.483563 
L 82.714337 272.847307 
L 82.872937 261.806475 
L 83.031537 278.018329 
L 83.190137 269.353373 
L 83.348737 245.315106 
L 83.507338 276.90027 
L 83.665938 253.141518 
L 83.824538 275.223182 
L 83.983138 259.849872 
L 84.141738 230.22131 
L 84.300338 269.772645 
L 84.458939 233.994759 
L 84.617539 272.428035 
L 84.776139 282.350808 
L 85.251939 233.016458 
L 85.41054 279.415903 
L 85.56914 263.763078 
L 85.72774 271.309976 
L 85.88634 249.507827 
L 86.20354 285.145955 
L 86.362141 224.211744 
L 86.679341 273.406336 
L 86.996541 240.563355 
L 87.155141 254.818607 
L 87.313742 248.529525 
L 87.472342 247.830738 
L 87.630942 256.355938 
L 87.789542 277.179785 
L 87.948142 213.869698 
L 88.106742 263.483563 
L 88.265343 266.418468 
L 88.423943 279.415903 
L 88.741143 267.396769 
L 88.899743 263.064291 
L 89.058343 278.577359 
L 89.216944 266.558225 
L 89.375544 240.423598 
L 89.534144 288.220617 
L 89.692744 268.514828 
L 89.851344 282.490565 
L 90.009944 249.228312 
L 90.168545 260.688416 
L 90.327145 281.232749 
L 90.485745 234.973061 
L 90.644345 283.888139 
L 90.961545 267.396769 
L 91.120146 271.449733 
L 91.278746 269.49313 
L 91.437346 269.073858 
L 91.595946 290.73625 
L 91.754546 257.054724 
L 91.913147 263.204049 
L 92.071747 252.442731 
L 92.388947 280.254447 
L 92.547547 233.156215 
L 92.864748 272.288277 
L 93.023348 266.977497 
L 93.181948 285.145955 
L 93.340548 259.151085 
L 93.657748 285.565227 
L 93.816349 257.194482 
L 93.974949 259.011328 
L 94.133549 258.87157 
L 94.609349 269.912402 
L 94.76795 273.266579 
L 94.92655 264.18235 
L 95.08515 224.351501 
L 95.24375 252.582489 
L 95.40235 248.669282 
L 95.56095 259.710114 
L 95.719551 248.25001 
L 95.878151 270.611189 
L 96.036751 274.384638 
L 96.195351 268.514828 
L 96.353951 230.640582 
L 96.512551 255.936666 
L 96.671152 256.77521 
L 96.829752 245.734378 
L 96.988352 278.996631 
L 97.146952 267.257012 
L 97.305552 246.712679 
L 97.464152 249.927099 
L 97.622753 271.030461 
L 97.781353 251.743945 
L 97.939953 253.840305 
L 98.098553 267.816042 
L 98.257153 254.539092 
L 98.415753 260.688416 
L 98.574354 260.828173 
L 98.732954 243.638017 
L 98.891554 251.743945 
L 99.050154 268.095556 
L 99.208754 267.536527 
L 99.367354 277.599057 
L 99.525955 268.095556 
L 99.684555 229.243009 
L 99.843155 277.878572 
L 100.001755 267.536527 
L 100.160355 265.020894 
L 100.318955 288.500132 
L 100.477556 269.213615 
L 100.636156 272.008763 
L 100.953356 229.103251 
L 101.111956 266.418468 
L 101.270556 245.315106 
L 101.429157 287.382073 
L 101.587757 271.58949 
L 101.746357 277.4593 
L 101.904957 224.91053 
L 102.222157 270.471432 
L 102.539358 281.092991 
L 102.697958 271.170218 
L 102.856558 239.724811 
L 103.173758 277.599057 
L 103.490959 234.833303 
L 103.649559 269.912402 
L 103.808159 270.052159 
L 104.12536 267.257012 
L 104.28396 246.433165 
L 104.44256 243.358503 
L 104.91836 272.428035 
L 105.076961 264.18235 
L 105.235561 268.514828 
L 105.394161 227.286406 
L 105.552761 253.56079 
L 105.869961 257.893269 
L 106.028562 280.394205 
L 106.187162 266.418468 
L 106.504362 281.092991 
L 106.821562 263.902835 
L 106.980163 247.271709 
L 107.138763 270.331674 
L 107.297363 250.765643 
L 107.455963 258.452298 
L 107.614563 274.384638 
L 107.931764 246.013893 
L 108.090364 266.278711 
L 108.407564 255.657151 
L 108.566164 284.726683 
L 108.724764 248.389768 
L 108.883365 264.601622 
L 109.041965 250.486128 
L 109.200565 263.343806 
L 109.359165 234.833303 
L 109.517765 272.428035 
L 109.676365 278.577359 
L 109.834966 249.228312 
L 110.152166 273.126821 
L 110.310766 259.710114 
L 110.469366 275.083425 
L 110.627966 269.213615 
L 110.786567 259.011328 
L 110.945167 278.297844 
L 111.103767 245.035591 
L 111.262367 266.278711 
L 111.420967 269.213615 
L 111.579567 276.620756 
L 111.738168 233.575487 
L 111.896768 285.984499 
L 112.055368 228.963494 
L 112.213968 232.457428 
L 112.531168 277.4593 
L 112.689769 275.921969 
L 112.848369 277.4593 
L 113.006969 285.145955 
L 113.165569 264.322107 
L 113.324169 281.512263 
L 113.482769 273.965366 
L 113.64137 247.690981 
L 113.79997 250.206614 
L 113.95857 273.406336 
L 114.11717 267.676284 
L 114.27577 270.191917 
L 114.43437 255.936666 
L 114.592971 277.179785 
L 114.751571 273.126821 
L 114.910171 280.394205 
L 115.227371 246.15365 
L 115.544572 287.242315 
L 115.703172 271.58949 
L 115.861772 241.401899 
L 116.178972 288.360374 
L 116.337573 218.621449 
L 116.496173 254.678849 
L 116.654773 244.476562 
L 116.813373 173.899092 
L 116.971973 271.58949 
L 117.130573 224.491258 
L 117.289174 276.760513 
L 117.447774 272.14852 
L 117.606374 282.350808 
L 117.764974 284.586925 
L 117.923574 265.999196 
L 118.240775 294.090426 
L 118.399375 247.830738 
L 118.557975 253.980062 
L 118.716575 249.507827 
L 118.875175 272.567792 
L 119.192376 282.77008 
L 119.350976 282.490565 
L 119.509576 270.191917 
L 119.668176 268.934101 
L 119.826776 266.558225 
L 119.985376 274.524395 
L 120.302577 240.004326 
L 120.461177 272.987064 
L 120.619777 279.55566 
L 120.778377 274.24488 
L 120.936977 184.800166 
L 121.095578 266.558225 
L 121.254178 265.300409 
L 121.412778 261.666718 
L 121.571378 271.030461 
L 121.729978 256.355938 
L 121.888578 278.996631 
L 122.047179 264.74138 
L 122.364379 275.782211 
L 122.522979 277.4593 
L 122.681579 250.625886 
L 122.840179 275.782211 
L 122.99878 274.80391 
L 123.15738 278.158087 
L 123.31598 268.654586 
L 123.47458 270.611189 
L 123.63318 284.726683 
L 123.950381 245.035591 
L 124.108981 270.471432 
L 124.426181 256.77521 
L 124.584781 270.890704 
L 124.743381 242.100686 
L 124.901982 279.695418 
L 125.219182 249.507827 
L 125.536382 271.170218 
L 125.694982 275.782211 
L 125.853583 201.57105 
L 126.012183 264.74138 
L 126.170783 262.924534 
L 126.329383 262.645019 
L 126.487983 266.83774 
L 126.646583 256.914967 
L 126.805184 268.654586 
L 126.963784 261.806475 
L 127.122384 264.322107 
L 127.439584 288.779646 
L 127.598184 283.049594 
L 127.915385 268.095556 
L 128.073985 285.565227 
L 128.232585 268.934101 
L 128.391185 231.758641 
L 128.708386 271.869005 
L 128.866986 262.505262 
L 129.025586 275.502697 
L 129.184186 274.943667 
L 129.342786 269.353373 
L 129.501387 276.061726 
L 129.818587 273.965366 
L 129.977187 253.56079 
L 130.135787 277.319542 
L 130.294387 274.24488 
L 130.452988 283.049594 
L 130.611588 268.095556 
L 130.770188 278.856873 
L 130.928788 263.902835 
L 131.087388 260.967931 
L 131.563189 293.810912 
L 131.880389 247.411466 
L 132.038989 268.514828 
L 132.197589 243.358503 
L 132.35619 238.466995 
L 132.51479 283.049594 
L 132.67339 254.678849 
L 132.83199 270.611189 
L 132.99059 263.763078 
L 133.14919 278.856873 
L 133.466391 264.601622 
L 133.624991 267.396769 
L 133.783591 244.895834 
L 133.942191 275.083425 
L 134.100791 256.495695 
L 134.259392 287.242315 
L 134.576592 269.353373 
L 134.735192 267.676284 
L 134.893792 245.175348 
L 135.052392 281.512263 
L 135.210993 270.191917 
L 135.369593 290.316977 
L 135.528193 250.346371 
L 135.686793 284.86644 
L 135.845393 289.338676 
L 136.003993 266.418468 
L 136.162594 264.601622 
L 136.321194 268.095556 
L 136.479794 276.341241 
L 136.638394 273.825608 
L 136.796994 276.341241 
L 136.955594 282.77008 
L 137.114195 274.105123 
L 137.272795 285.006198 
L 137.589995 252.442731 
L 137.748595 267.257012 
L 137.907195 258.592055 
L 138.224396 284.307411 
L 138.382996 260.408901 
L 138.541596 276.480998 
L 138.700196 270.191917 
L 138.858796 286.962801 
L 139.017397 287.941102 
L 139.175997 256.77521 
L 139.334597 263.483563 
L 139.493197 285.285712 
L 139.651797 267.396769 
L 139.810397 263.343806 
L 139.968998 283.329109 
L 140.127598 280.813477 
L 140.286198 257.054724 
L 140.603398 277.319542 
L 140.761998 281.092991 
L 140.920599 280.254447 
L 141.079199 259.290842 
L 141.237799 268.235314 
L 141.396399 262.08599 
L 141.554999 270.890704 
L 141.7136 270.052159 
L 141.8722 252.722246 
L 142.1894 278.158087 
L 142.5066 242.799473 
L 142.665201 271.729248 
L 142.823801 252.582489 
L 142.982401 271.309976 
L 143.141001 274.105123 
L 143.299601 242.380201 
L 143.458201 277.319542 
L 143.616802 258.87157 
L 143.775402 256.635452 
L 143.934002 276.061726 
L 144.092602 253.56079 
L 144.251202 280.533962 
L 144.409802 250.206614 
L 144.568403 250.765643 
L 144.885603 279.55566 
L 145.202803 258.592055 
L 145.361403 259.849872 
L 145.520004 247.970496 
L 145.678604 264.042593 
L 145.837204 261.107688 
L 146.154404 262.08599 
L 146.313004 276.760513 
L 146.471605 274.664153 
L 146.630205 279.415903 
L 146.788805 247.271709 
L 146.947405 262.784776 
L 147.264605 242.100686 
L 147.423206 278.996631 
L 147.581806 251.324672 
L 147.899006 282.350808 
L 148.057606 258.452298 
L 148.216206 257.613754 
L 148.374807 283.189352 
L 148.533407 245.59462 
L 148.692007 269.632887 
L 148.850607 271.309976 
L 149.009207 284.86644 
L 149.167807 269.353373 
L 149.485008 286.124256 
L 149.643608 233.855002 
L 149.960808 258.592055 
L 150.119408 230.640582 
L 150.278009 268.654586 
L 150.436609 257.194482 
L 150.595209 279.974932 
L 150.753809 237.348936 
L 150.912409 267.536527 
L 151.071009 255.377636 
L 151.22961 293.39164 
L 151.38821 253.56079 
L 151.54681 273.965366 
L 151.70541 275.782211 
L 151.86401 284.307411 
L 152.02261 242.380201 
L 152.181211 269.213615 
L 152.498411 274.105123 
L 152.657011 270.331674 
L 152.815611 270.611189 
L 152.974211 256.495695 
L 153.132812 260.688416 
L 153.291412 282.071293 
L 153.450012 268.794343 
L 153.608612 281.092991 
L 153.767212 251.604187 
L 154.084413 271.58949 
L 154.243013 281.232749 
L 154.401613 249.507827 
L 154.560213 274.105123 
L 154.718813 270.052159 
L 154.877414 291.155522 
L 155.036014 284.307411 
L 155.194614 264.322107 
L 155.353214 271.030461 
L 155.511814 282.490565 
L 155.670414 261.52696 
L 155.829015 275.083425 
L 155.987615 267.396769 
L 156.146215 252.442731 
L 156.304815 267.955799 
L 156.622015 245.454863 
L 156.780616 269.213615 
L 157.097816 258.452298 
L 157.256416 241.541657 
L 157.415016 266.558225 
L 157.573616 271.030461 
L 157.732217 258.172783 
L 157.890817 280.953234 
L 158.049417 264.042593 
L 158.208017 273.685851 
L 158.366617 274.524395 
L 158.525217 284.447168 
L 158.683818 268.235314 
L 158.842418 268.095556 
L 159.001018 258.312541 
L 159.159618 259.570357 
L 159.318218 285.844742 
L 159.476818 230.920097 
L 159.635419 274.80391 
L 159.794019 277.4593 
L 159.952619 273.825608 
L 160.111219 251.743945 
L 160.269819 252.023459 
L 160.428419 272.008763 
L 160.58702 250.346371 
L 160.74562 285.145955 
L 160.90422 286.264014 
L 161.06282 277.179785 
L 161.22142 283.049594 
L 161.38002 268.375071 
L 161.538621 284.586925 
L 161.697221 261.247445 
L 162.014421 277.179785 
L 162.173021 267.536527 
L 162.331621 271.869005 
L 162.490222 294.509698 
L 162.648822 290.73625 
L 162.807422 254.399334 
L 162.966022 270.471432 
L 163.124622 269.213615 
L 163.283222 245.734378 
L 163.600423 287.102558 
L 163.759023 263.623321 
L 163.917623 288.08086 
L 164.076223 266.138953 
L 164.234823 267.536527 
L 164.393424 249.787341 
L 164.552024 267.816042 
L 164.710624 263.064291 
L 164.869224 272.008763 
L 165.027824 272.567792 
L 165.186424 225.46956 
L 165.503625 270.052159 
L 165.662225 273.546094 
L 165.820825 267.117255 
L 165.979425 278.158087 
L 166.138025 258.592055 
L 166.296626 269.353373 
L 166.455226 253.141518 
L 166.613826 277.599057 
L 166.772426 279.695418 
L 166.931026 252.302974 
L 167.089627 270.890704 
L 167.248227 275.223182 
L 167.406827 247.131951 
L 167.565427 268.514828 
L 167.724027 213.869698 
L 167.882627 265.579924 
L 168.041228 280.953234 
L 168.199828 259.290842 
L 168.358428 275.782211 
L 168.517028 266.83774 
L 168.675628 285.42547 
L 169.151429 265.020894 
L 169.310029 271.309976 
L 169.468629 230.78034 
L 169.627229 263.343806 
L 169.785829 254.11982 
L 169.94443 280.394205 
L 170.10303 279.136388 
L 170.26163 259.710114 
L 170.42023 282.490565 
L 170.57883 247.551224 
L 170.73743 274.24488 
L 170.896031 269.912402 
L 171.054631 252.582489 
L 171.213231 265.859438 
L 171.371831 251.184915 
L 171.689031 280.394205 
L 171.847632 273.266579 
L 172.006232 244.616319 
L 172.323432 270.191917 
L 172.482032 257.054724 
L 172.640632 256.355938 
L 172.799233 286.264014 
L 173.116433 252.023459 
L 173.433633 281.232749 
L 173.592233 285.704984 
L 173.750834 265.300409 
L 173.909434 267.536527 
L 174.068034 263.483563 
L 174.226634 271.729248 
L 174.543834 255.377636 
L 174.861035 282.909837 
L 175.178235 276.201484 
L 175.336835 264.322107 
L 175.495435 269.912402 
L 175.971236 262.365504 
L 176.129836 282.21105 
L 176.288436 271.309976 
L 176.447036 289.897705 
L 176.605637 281.372506 
L 176.764237 253.56079 
L 176.922837 259.710114 
L 177.081437 231.898399 
L 177.240037 258.592055 
L 177.398637 253.980062 
L 177.557238 259.989629 
L 177.715838 251.604187 
L 177.874438 255.796908 
L 178.033038 269.353373 
L 178.191638 267.536527 
L 178.350238 271.58949 
L 178.667439 260.688416 
L 178.826039 260.408901 
L 178.984639 254.539092 
L 179.143239 258.592055 
L 179.301839 276.620756 
L 179.46044 268.095556 
L 179.93624 295.488 
L 180.09484 266.558225 
L 180.253441 258.592055 
L 180.570641 256.495695 
L 180.729241 248.948797 
L 180.887841 278.018329 
L 181.046441 257.893269 
L 181.205042 272.14852 
L 181.363642 246.013893 
L 181.522242 273.685851 
L 181.839442 263.623321 
L 181.998042 264.461865 
L 182.156643 265.999196 
L 182.315243 260.408901 
L 182.473843 250.206614 
L 182.632443 226.867133 
L 182.791043 281.652021 
L 182.949643 259.011328 
L 183.108244 278.297844 
L 183.266844 256.914967 
L 183.584044 286.124256 
L 183.742644 276.341241 
L 183.901244 289.618191 
L 184.059845 254.259577 
L 184.218445 265.440166 
L 184.377045 263.204049 
L 184.535645 268.514828 
L 184.694245 269.353373 
L 184.852845 248.389768 
L 185.170046 284.447168 
L 185.487246 262.784776 
L 185.645846 274.24488 
L 185.804446 244.197047 
L 186.121647 279.415903 
L 186.280247 271.449733 
L 186.438847 274.664153 
L 186.597447 255.936666 
L 186.756047 265.160652 
L 186.914648 258.033026 
L 187.073248 274.105123 
L 187.231848 236.510392 
L 187.549048 273.546094 
L 187.707648 283.468867 
L 187.866249 263.064291 
L 188.024849 275.362939 
L 188.183449 250.346371 
L 188.342049 286.683286 
L 188.500649 265.859438 
L 188.659249 275.083425 
L 188.81785 245.59462 
L 188.97645 269.49313 
L 189.13505 269.213615 
L 189.45225 254.539092 
L 189.61085 284.447168 
L 189.769451 253.980062 
L 190.086651 273.406336 
L 190.245251 253.700548 
L 190.403851 265.719681 
L 190.721052 253.56079 
L 190.879652 279.835175 
L 191.196852 255.517393 
L 191.355452 248.529525 
L 191.514052 261.107688 
L 191.672653 264.461865 
L 191.831253 277.599057 
L 191.989853 265.999196 
L 192.307053 279.974932 
L 192.465654 277.040028 
L 192.624254 265.440166 
L 192.782854 227.56592 
L 192.941454 277.319542 
L 193.258654 272.14852 
L 193.417255 264.461865 
L 193.575855 278.158087 
L 193.734455 272.008763 
L 193.893055 251.184915 
L 194.051655 267.816042 
L 194.210255 259.011328 
L 194.368856 281.372506 
L 194.686056 260.269144 
L 194.844656 264.322107 
L 195.003256 253.56079 
L 195.161856 268.514828 
L 195.479057 245.035591 
L 195.796257 267.536527 
L 195.954857 265.160652 
L 196.113457 271.729248 
L 196.272058 285.145955 
L 196.430658 245.734378 
L 196.589258 255.657151 
L 196.747858 277.040028 
L 196.906458 259.290842 
L 197.065058 275.782211 
L 197.382259 251.045158 
L 197.540859 266.278711 
L 197.699459 262.505262 
L 197.858059 272.428035 
L 198.016659 262.225747 
L 198.17526 281.092991 
L 198.33386 199.614447 
L 198.49246 283.329109 
L 198.65106 253.840305 
L 198.80966 259.710114 
L 198.96826 275.362939 
L 199.126861 275.223182 
L 199.285461 271.729248 
L 199.444061 252.302974 
L 199.602661 246.712679 
L 199.919861 281.232749 
L 200.237062 268.235314 
L 200.395662 265.579924 
L 200.554262 254.818607 
L 200.712862 264.601622 
L 200.871462 244.336804 
L 201.030063 250.066856 
L 201.188663 271.030461 
L 201.347263 230.640582 
L 201.505863 265.300409 
L 201.664463 274.24488 
L 201.823063 276.90027 
L 201.981664 274.105123 
L 202.140264 286.124256 
L 202.298864 258.172783 
L 202.616064 268.235314 
L 202.774664 260.828173 
L 202.933265 262.924534 
L 203.091865 253.56079 
L 203.250465 222.115383 
L 203.409065 258.312541 
L 203.567665 251.883702 
L 203.726265 281.372506 
L 203.884866 287.661588 
L 204.043466 265.579924 
L 204.202066 264.042593 
L 204.360666 268.095556 
L 204.519266 278.158087 
L 204.677867 267.396769 
L 204.836467 271.869005 
L 204.995067 265.719681 
L 205.312267 281.791778 
L 205.470867 273.546094 
L 205.629468 283.049594 
L 205.788068 271.170218 
L 205.946668 239.585054 
L 206.105268 279.276146 
L 206.263868 289.897705 
L 206.422468 262.645019 
L 206.581069 258.731813 
L 206.739669 278.577359 
L 206.898269 277.738815 
L 207.056869 257.054724 
L 207.215469 257.473997 
L 207.374069 258.87157 
L 207.53267 289.757948 
L 207.69127 233.156215 
L 207.84987 264.461865 
L 208.00847 246.572922 
L 208.32567 275.782211 
L 208.484271 256.355938 
L 208.642871 259.710114 
L 208.801471 266.418468 
L 208.960071 262.365504 
L 209.118671 274.524395 
L 209.277271 250.346371 
L 209.435872 272.428035 
L 209.594472 260.129386 
L 209.753072 276.480998 
L 209.911672 257.334239 
L 210.070272 258.172783 
L 210.228872 282.071293 
L 210.387473 275.223182 
L 210.546073 261.946232 
L 210.704673 258.731813 
L 210.863273 265.859438 
L 211.021873 259.989629 
L 211.180473 258.592055 
L 211.339074 258.87157 
L 211.497674 283.468867 
L 211.656274 282.21105 
L 211.814874 250.765643 
L 211.973474 269.353373 
L 212.132074 265.859438 
L 212.290675 266.138953 
L 212.449275 273.825608 
L 212.607875 267.396769 
L 212.766475 253.281276 
L 212.925075 274.943667 
L 213.083675 254.818607 
L 213.242276 268.934101 
L 213.559476 244.616319 
L 213.718076 279.415903 
L 214.193877 257.613754 
L 214.352477 262.784776 
L 214.511077 257.054724 
L 214.669677 280.254447 
L 214.828277 263.763078 
L 214.986877 279.415903 
L 215.145478 278.158087 
L 215.462678 257.753511 
L 215.621278 246.572922 
L 215.779878 270.611189 
L 215.938478 271.309976 
L 216.097079 258.033026 
L 216.414279 267.955799 
L 216.572879 288.360374 
L 216.731479 227.705678 
L 216.890079 279.974932 
L 217.04868 257.334239 
L 217.20728 264.18235 
L 217.36588 265.160652 
L 217.52448 267.955799 
L 217.68308 265.859438 
L 217.841681 244.616319 
L 218.000281 271.869005 
L 218.158881 275.362939 
L 218.317481 257.194482 
L 218.476081 273.546094 
L 218.634681 271.309976 
L 218.793282 277.179785 
L 218.951882 265.579924 
L 219.110482 271.309976 
L 219.269082 287.52183 
L 219.427682 251.743945 
L 219.586282 275.362939 
L 219.744883 245.175348 
L 220.062083 288.500132 
L 220.537883 245.454863 
L 220.855084 284.027896 
L 221.013684 258.033026 
L 221.172284 272.008763 
L 221.330884 252.722246 
L 221.648085 268.514828 
L 221.806685 274.664153 
L 221.965285 275.642454 
L 222.123885 262.365504 
L 222.282485 269.49313 
L 222.441085 200.313234 
L 222.599686 271.030461 
L 222.758286 276.201484 
L 222.916886 226.168347 
L 223.075486 261.387203 
L 223.234086 262.505262 
L 223.392686 245.874135 
L 223.551287 257.613754 
L 223.868487 254.958364 
L 224.027087 273.266579 
L 224.185687 251.604187 
L 224.344287 253.141518 
L 224.502888 259.710114 
L 224.661488 278.158087 
L 224.820088 262.784776 
L 224.978688 279.695418 
L 225.137288 254.818607 
L 225.295888 278.717116 
L 225.613089 257.194482 
L 225.771689 258.592055 
L 225.930289 278.297844 
L 226.088889 270.331674 
L 226.40609 288.500132 
L 226.56469 238.606752 
L 226.72329 272.987064 
L 226.88189 277.040028 
L 227.04049 277.878572 
L 227.357691 258.172783 
L 227.516291 260.967931 
L 227.674891 267.117255 
L 227.833491 249.787341 
L 227.992091 267.536527 
L 228.150691 261.806475 
L 228.309292 234.134516 
L 228.626492 280.254447 
L 228.785092 255.796908 
L 228.943692 254.958364 
L 229.102292 253.001761 
L 229.260893 285.984499 
L 229.419493 261.247445 
L 229.578093 254.678849 
L 229.736693 274.80391 
L 229.895293 280.11469 
L 230.053894 234.693546 
L 230.212494 263.623321 
L 230.371094 246.712679 
L 230.688294 271.449733 
L 230.846894 291.435036 
L 231.005495 272.847307 
L 231.164095 287.661588 
L 231.322695 270.331674 
L 231.481295 275.223182 
L 231.798495 271.309976 
L 231.957096 263.064291 
L 232.115696 242.240444 
L 232.432896 282.490565 
L 232.591496 282.77008 
L 232.750096 231.059854 
L 232.908697 267.257012 
L 233.067297 249.787341 
L 233.543097 292.553095 
L 233.701697 243.917532 
L 233.860298 279.835175 
L 234.018898 280.813477 
L 234.177498 270.191917 
L 234.336098 236.09112 
L 234.653298 282.350808 
L 234.811899 272.987064 
L 234.970499 274.384638 
L 235.129099 265.719681 
L 235.287699 274.24488 
L 235.446299 268.934101 
L 235.604899 284.447168 
L 235.7635 259.011328 
L 235.9221 275.083425 
L 236.0807 272.428035 
L 236.2393 235.252575 
L 236.5565 280.11469 
L 236.873701 261.247445 
L 237.032301 281.931536 
L 237.190901 256.635452 
L 237.349501 272.008763 
L 237.666702 247.690981 
L 237.825302 259.989629 
L 237.983902 53.568 
L 238.142502 285.145955 
L 238.301102 274.384638 
L 238.459702 284.307411 
L 238.618303 257.613754 
L 238.776903 273.126821 
L 238.935503 258.592055 
L 239.094103 273.825608 
L 239.252703 269.912402 
L 239.411303 274.664153 
L 239.569904 269.49313 
L 239.728504 271.309976 
L 240.045704 284.027896 
L 240.204304 246.433165 
L 240.362904 265.300409 
L 240.680105 246.013893 
L 240.838705 269.772645 
L 240.997305 265.160652 
L 241.155905 279.974932 
L 241.314505 271.729248 
L 241.473106 277.738815 
L 241.631706 250.066856 
L 241.948906 269.912402 
L 242.107506 275.921969 
L 242.424707 230.500825 
L 242.583307 279.695418 
L 242.741907 240.982627 
L 242.900507 274.943667 
L 243.059107 254.11982 
L 243.217708 284.586925 
L 243.376308 278.996631 
L 243.534908 250.346371 
L 243.693508 282.77008 
L 243.852108 263.623321 
L 244.010708 266.83774 
L 244.169309 252.023459 
L 244.327909 274.105123 
L 244.486509 273.126821 
L 244.645109 262.365504 
L 244.803709 276.620756 
L 244.962309 273.685851 
L 245.12091 274.664153 
L 245.27951 271.030461 
L 245.59671 242.380201 
L 245.75531 272.14852 
L 245.91391 266.83774 
L 246.072511 273.406336 
L 246.231111 241.821172 
L 246.389711 280.394205 
L 246.865511 242.659716 
L 247.024112 276.201484 
L 247.182712 270.331674 
L 247.499912 269.213615 
L 247.658512 265.440166 
L 247.817112 287.382073 
L 247.975713 258.731813 
L 248.134313 288.500132 
L 248.292913 249.507827 
L 248.451513 268.514828 
L 248.610113 263.483563 
L 248.768713 271.170218 
L 248.927314 256.21618 
L 249.085914 277.599057 
L 249.244514 269.772645 
L 249.403114 272.707549 
L 249.561714 243.078988 
L 249.720314 256.914967 
L 249.878915 285.145955 
L 250.037515 281.931536 
L 250.196115 231.479127 
L 250.354715 263.483563 
L 250.513315 269.632887 
L 250.671915 283.049594 
L 250.989116 256.076423 
L 251.147716 263.204049 
L 251.306316 264.881137 
L 251.464916 259.570357 
L 251.623516 258.452298 
L 251.782117 267.816042 
L 251.940717 253.700548 
L 252.099317 284.027896 
L 252.416517 241.960929 
L 252.575117 278.717116 
L 252.733718 252.582489 
L 253.050918 272.567792 
L 253.209518 253.980062 
L 253.526718 272.987064 
L 253.685319 252.862003 
L 254.002519 283.608624 
L 254.161119 253.840305 
L 254.319719 258.033026 
L 254.478319 273.546094 
L 254.63692 248.529525 
L 254.95412 272.847307 
L 255.27132 268.095556 
L 255.429921 274.943667 
L 255.747121 241.821172 
L 255.905721 288.08086 
L 256.064321 265.999196 
L 256.222921 267.536527 
L 256.381522 267.396769 
L 256.540122 287.941102 
L 256.698722 280.11469 
L 256.857322 245.59462 
L 257.015922 245.734378 
L 257.174522 277.878572 
L 257.333123 286.124256 
L 257.650323 265.300409 
L 257.808923 256.495695 
L 257.967523 282.490565 
L 258.126123 271.58949 
L 258.284724 241.541657 
L 258.443324 272.567792 
L 258.760524 268.514828 
L 258.919124 266.558225 
L 259.077724 293.950669 
L 259.236325 271.58949 
L 259.394925 280.953234 
L 259.553525 257.054724 
L 259.712125 253.700548 
L 260.029325 278.018329 
L 260.346526 262.784776 
L 260.505126 264.322107 
L 260.663726 208.978191 
L 260.822326 282.490565 
L 261.139527 263.483563 
L 261.298127 262.365504 
L 261.615327 272.428035 
L 261.773927 237.488693 
L 261.932527 278.996631 
L 262.091128 281.791778 
L 262.408328 263.623321 
L 262.566928 277.738815 
L 262.725528 277.319542 
L 262.884128 278.297844 
L 263.042729 208.139646 
L 263.201329 287.661588 
L 263.518529 243.49826 
L 263.677129 261.107688 
L 263.835729 243.777775 
L 264.15293 275.782211 
L 264.31153 281.791778 
L 264.47013 277.319542 
L 264.62873 287.242315 
L 264.945931 262.645019 
L 265.104531 269.632887 
L 265.263131 268.235314 
L 265.421731 235.811605 
L 265.580331 261.946232 
L 265.738931 268.514828 
L 265.897532 266.138953 
L 266.056132 248.669282 
L 266.373332 275.362939 
L 266.531932 254.678849 
L 266.690532 283.049594 
L 266.849133 221.696111 
L 267.007733 282.350808 
L 267.166333 246.992194 
L 267.324933 279.276146 
L 267.483533 278.856873 
L 267.642133 273.546094 
L 267.959334 248.110253 
L 268.117934 249.647584 
L 268.276534 227.146648 
L 268.593735 274.664153 
L 268.752335 264.601622 
L 268.910935 285.145955 
L 269.069535 266.558225 
L 269.228135 264.461865 
L 269.386735 238.327237 
L 269.545336 267.117255 
L 269.703936 262.365504 
L 269.862536 249.787341 
L 270.021136 253.141518 
L 270.179736 243.358503 
L 270.338336 272.707549 
L 270.496937 272.288277 
L 270.655537 275.642454 
L 270.814137 273.266579 
L 271.131337 266.558225 
L 271.289937 268.514828 
L 271.448538 284.027896 
L 271.607138 256.635452 
L 271.765738 277.4593 
L 271.924338 258.312541 
L 272.082938 253.980062 
L 272.241538 277.599057 
L 272.400139 269.772645 
L 272.717339 274.524395 
L 272.875939 270.471432 
L 273.193139 272.428035 
L 273.35174 267.676284 
L 273.51034 254.539092 
L 273.66894 275.502697 
L 273.82754 255.098121 
L 273.98614 255.657151 
L 274.14474 281.372506 
L 274.303341 284.447168 
L 274.461941 256.77521 
L 274.620541 271.030461 
L 274.779141 273.546094 
L 274.937741 253.141518 
L 275.096341 261.52696 
L 275.254942 278.018329 
L 275.413542 249.927099 
L 275.572142 274.384638 
L 275.730742 250.9054 
L 275.889342 283.329109 
L 276.047942 264.461865 
L 276.206543 272.428035 
L 276.365143 263.902835 
L 276.523743 268.514828 
L 276.682343 286.823043 
L 276.999543 268.654586 
L 277.158144 266.138953 
L 277.316744 271.309976 
L 277.475344 265.859438 
L 277.633944 239.026024 
L 277.792544 269.632887 
L 277.951144 269.912402 
L 278.109745 286.403771 
L 278.268345 237.348936 
L 278.426945 249.787341 
L 278.585545 285.984499 
L 278.744145 271.869005 
L 278.902745 278.856873 
L 279.061346 239.305539 
L 279.219946 275.362939 
L 279.378546 282.21105 
L 279.537146 243.917532 
L 279.695746 273.126821 
L 279.854346 272.428035 
L 280.171547 260.967931 
L 280.330147 246.293407 
L 280.805948 285.565227 
L 280.964548 255.657151 
L 281.123148 270.052159 
L 281.281748 266.977497 
L 281.598948 250.066856 
L 281.757549 254.958364 
L 281.916149 275.362939 
L 282.074749 251.045158 
L 282.391949 265.999196 
L 282.550549 284.726683 
L 282.70915 247.131951 
L 282.86775 267.257012 
L 283.02635 268.514828 
L 283.18495 282.909837 
L 283.34355 263.902835 
L 283.50215 259.849872 
L 283.660751 273.546094 
L 283.819351 260.688416 
L 283.977951 260.408901 
L 284.136551 276.341241 
L 284.295151 238.466995 
L 284.453751 280.533962 
L 284.612352 279.695418 
L 284.929552 262.365504 
L 285.088152 280.953234 
L 285.246752 278.996631 
L 285.405352 283.888139 
L 285.563953 271.729248 
L 285.881153 277.738815 
L 286.039753 290.596492 
L 286.198353 269.49313 
L 286.356953 271.58949 
L 286.515554 255.098121 
L 286.674154 276.341241 
L 286.832754 267.396769 
L 286.991354 245.59462 
L 287.149954 262.505262 
L 287.308554 240.283841 
L 287.467155 259.570357 
L 287.625755 257.613754 
L 287.784355 240.423598 
L 287.942955 252.023459 
L 288.101555 241.262142 
L 288.260155 250.346371 
L 288.418756 272.567792 
L 288.577356 267.536527 
L 288.735956 258.033026 
L 288.894556 222.953927 
L 289.053156 268.375071 
L 289.211756 266.138953 
L 289.370357 260.828173 
L 289.528957 263.902835 
L 289.687557 273.685851 
L 290.004757 262.365504 
L 290.163357 275.921969 
L 290.321958 253.980062 
L 290.480558 251.324672 
L 290.639158 273.965366 
L 290.797758 278.158087 
L 290.956358 255.237879 
L 291.114958 276.620756 
L 291.432159 273.825608 
L 291.590759 283.049594 
L 291.907959 245.874135 
L 292.066559 294.230184 
L 292.22516 271.729248 
L 292.38376 281.652021 
L 292.54236 227.56592 
L 292.70096 266.697983 
L 292.85956 269.772645 
L 293.018161 265.579924 
L 293.176761 271.58949 
L 293.335361 259.570357 
L 293.493961 276.760513 
L 293.652561 275.502697 
L 293.969762 254.11982 
L 294.286962 276.341241 
L 294.445562 244.756076 
L 294.604162 267.536527 
L 294.762762 260.269144 
L 294.921363 279.974932 
L 295.079963 226.727376 
L 295.238563 236.650149 
L 295.397163 269.073858 
L 295.555763 254.399334 
L 295.714363 276.90027 
L 296.031564 264.74138 
L 296.190164 264.322107 
L 296.348764 271.729248 
L 296.507364 267.816042 
L 296.665964 259.011328 
L 296.824565 262.225747 
L 296.983165 253.700548 
L 297.141765 255.796908 
L 297.300365 291.854308 
L 297.617565 246.712679 
L 297.776166 242.240444 
L 298.093366 274.524395 
L 298.251966 240.84287 
L 298.410566 262.924534 
L 298.569166 256.495695 
L 298.727767 245.035591 
L 298.886367 221.556354 
L 299.044967 274.943667 
L 299.203567 246.712679 
L 299.362167 247.830738 
L 299.837968 274.24488 
L 299.996568 241.122385 
L 300.313768 286.543529 
L 300.472368 274.943667 
L 300.630969 285.42547 
L 300.789569 249.647584 
L 300.948169 242.380201 
L 301.106769 282.77008 
L 301.423969 231.618884 
L 301.58257 270.611189 
L 301.74117 268.095556 
L 301.89977 255.936666 
L 302.05837 269.912402 
L 302.21697 257.613754 
L 302.37557 284.307411 
L 302.534171 277.4593 
L 302.692771 253.700548 
L 302.851371 246.852437 
L 303.168571 267.816042 
L 303.327171 283.189352 
L 303.485772 271.309976 
L 303.644372 284.86644 
L 303.802972 235.392333 
L 304.120172 286.962801 
L 304.278772 248.529525 
L 304.595973 276.90027 
L 304.754573 254.11982 
L 304.913173 273.825608 
L 305.071773 277.319542 
L 305.388974 260.828173 
L 305.547574 281.652021 
L 305.706174 265.440166 
L 305.864774 279.835175 
L 306.023374 266.278711 
L 306.181975 272.707549 
L 306.340575 259.4306 
L 306.499175 256.914967 
L 306.657775 267.117255 
L 306.816375 251.184915 
L 306.974975 270.750946 
L 307.133576 272.987064 
L 307.292176 257.334239 
L 307.450776 257.054724 
L 307.609376 268.934101 
L 307.767976 272.428035 
L 307.926576 254.539092 
L 308.085177 262.924534 
L 308.243777 262.365504 
L 308.402377 261.107688 
L 308.560977 256.914967 
L 308.719577 244.895834 
L 308.878177 262.784776 
L 309.036778 262.08599 
L 309.195378 265.999196 
L 309.353978 233.43573 
L 309.512578 271.030461 
L 309.671178 252.442731 
L 309.829778 260.828173 
L 309.988379 249.228312 
L 310.146979 279.276146 
L 310.305579 263.763078 
L 310.464179 283.468867 
L 310.781379 258.033026 
L 310.93998 189.831432 
L 311.09858 268.934101 
L 311.25718 269.772645 
L 311.41578 287.801345 
L 311.73298 228.963494 
L 311.891581 274.24488 
L 312.050181 283.189352 
L 312.208781 273.546094 
L 312.367381 247.271709 
L 312.525981 274.524395 
L 312.684581 271.030461 
L 312.843182 231.758641 
L 313.160382 275.083425 
L 313.318982 283.329109 
L 313.477582 262.08599 
L 313.636182 286.543529 
L 313.794783 279.974932 
L 314.270583 248.948797 
L 314.429183 248.80904 
L 314.587783 266.977497 
L 314.746384 267.536527 
L 314.904984 234.134516 
L 315.222184 252.862003 
L 315.380784 271.449733 
L 315.539384 247.970496 
L 315.697985 245.315106 
L 315.856585 260.688416 
L 316.015185 260.548659 
L 316.173785 259.570357 
L 316.490985 282.490565 
L 316.649586 271.58949 
L 316.808186 279.695418 
L 316.966786 235.811605 
L 317.283986 272.008763 
L 317.442586 273.685851 
L 317.601187 269.632887 
L 317.759787 269.632887 
L 317.918387 260.269144 
L 318.076987 268.794343 
L 318.235587 267.676284 
L 318.394188 275.921969 
L 318.552788 273.406336 
L 318.711388 252.862003 
L 318.869988 251.46443 
L 319.028588 266.977497 
L 319.187188 244.197047 
L 319.504389 274.943667 
L 319.662989 242.939231 
L 319.821589 242.659716 
L 319.980189 251.743945 
L 320.138789 274.384638 
L 320.45599 250.206614 
L 320.61459 251.604187 
L 320.93179 281.372506 
L 321.09039 276.90027 
L 321.248991 285.565227 
L 321.566191 255.657151 
L 321.724791 251.045158 
L 321.883391 269.353373 
L 322.041991 255.237879 
L 322.359192 279.55566 
L 322.676392 259.710114 
L 322.834992 276.341241 
L 322.993592 275.502697 
L 323.152193 255.657151 
L 323.310793 261.806475 
L 323.627993 265.440166 
L 323.786593 257.613754 
L 323.945193 280.533962 
L 324.103794 239.026024 
L 324.262394 262.924534 
L 324.420994 227.006891 
L 324.579594 272.008763 
L 324.738194 271.030461 
L 324.896794 261.387203 
L 325.055395 272.428035 
L 325.213995 247.271709 
L 325.372595 281.372506 
L 325.689795 264.18235 
L 325.848395 232.317671 
L 326.006996 277.040028 
L 326.165596 264.461865 
L 326.482796 282.21105 
L 326.641396 270.052159 
L 326.799996 274.524395 
L 326.958597 244.756076 
L 327.117197 274.524395 
L 327.275797 269.073858 
L 327.434397 235.811605 
L 327.592997 242.799473 
L 327.751597 236.929664 
L 327.910198 270.611189 
L 328.068798 251.184915 
L 328.227398 266.558225 
L 328.544598 232.597185 
L 328.703198 266.83774 
L 328.861799 262.08599 
L 329.020399 267.676284 
L 329.178999 266.278711 
L 329.337599 228.404464 
L 329.496199 280.254447 
L 329.654799 247.411466 
L 329.8134 276.90027 
L 329.972 268.235314 
L 330.1306 273.266579 
L 330.2892 273.126821 
L 330.4478 258.452298 
L 330.6064 275.362939 
L 330.765001 262.645019 
L 330.923601 259.151085 
L 331.082201 284.307411 
L 331.240801 250.9054 
L 331.399401 284.307411 
L 331.558002 252.722246 
L 331.716602 271.309976 
L 332.192402 258.592055 
L 332.351002 271.030461 
L 332.509603 240.283841 
L 332.668203 268.794343 
L 332.826803 275.362939 
L 332.985403 257.473997 
L 333.302603 284.027896 
L 333.461204 262.784776 
L 333.619804 263.763078 
L 333.778404 252.023459 
L 334.095604 283.888139 
L 334.571405 258.172783 
L 334.730005 287.661588 
L 334.888605 244.756076 
L 335.047205 252.722246 
L 335.205805 244.476562 
L 335.364406 262.645019 
L 335.523006 260.828173 
L 335.681606 272.987064 
L 335.998806 262.365504 
L 336.157406 280.673719 
L 336.316007 265.999196 
L 336.474607 265.300409 
L 336.633207 260.828173 
L 336.791807 252.023459 
L 336.950407 264.601622 
L 337.109007 253.421033 
L 337.584808 287.661588 
L 337.743408 254.958364 
L 337.902008 247.551224 
L 338.060608 258.033026 
L 338.219209 230.361068 
L 338.536409 271.309976 
L 338.695009 257.334239 
L 338.853609 283.748381 
L 339.012209 269.632887 
L 339.17081 273.406336 
L 339.32941 260.828173 
L 339.48801 259.849872 
L 339.64661 267.816042 
L 339.96381 240.563355 
L 340.122411 249.507827 
L 340.281011 249.088555 
L 340.439611 252.023459 
L 340.598211 273.406336 
L 340.756811 257.613754 
L 340.915411 259.570357 
L 341.074012 273.685851 
L 341.232612 259.570357 
L 341.391212 272.707549 
L 341.549812 253.421033 
L 341.708412 267.396769 
L 341.867012 247.690981 
L 342.184213 257.753511 
L 342.342813 236.789906 
L 342.501413 265.859438 
L 342.660013 251.324672 
L 342.818613 250.625886 
L 342.977214 260.548659 
L 343.135814 244.895834 
L 343.294414 247.551224 
L 343.453014 259.4306 
L 343.611614 236.650149 
L 343.928815 262.645019 
L 344.087415 248.948797 
L 344.246015 272.987064 
L 344.404615 265.300409 
L 344.563215 272.008763 
L 344.721816 223.373199 
L 344.880416 268.794343 
L 345.039016 270.890704 
L 345.197616 266.138953 
L 345.514816 242.659716 
L 345.673417 281.232749 
L 345.832017 266.697983 
L 345.990617 272.707549 
L 346.149217 249.088555 
L 346.307817 247.970496 
L 346.625018 274.105123 
L 346.783618 272.987064 
L 346.942218 268.654586 
L 347.100818 275.362939 
L 347.259418 254.818607 
L 347.418018 258.312541 
L 347.576619 280.673719 
L 347.893819 234.134516 
L 348.052419 266.278711 
L 348.211019 245.59462 
L 348.369619 251.883702 
L 348.68682 267.117255 
L 349.00402 240.84287 
L 349.16262 240.283841 
L 349.32122 270.331674 
L 349.479821 268.375071 
L 349.638421 269.213615 
L 349.797021 263.483563 
L 349.955621 249.787341 
L 350.114221 260.688416 
L 350.272821 246.293407 
L 350.590022 277.878572 
L 350.907222 248.389768 
L 351.065822 286.543529 
L 351.224422 275.362939 
L 351.383023 282.21105 
L 351.858823 246.293407 
L 352.017423 243.777775 
L 352.334624 272.14852 
L 352.493224 237.768208 
L 352.651824 258.452298 
L 352.810424 249.507827 
L 352.969024 250.066856 
L 353.127624 270.471432 
L 353.444825 226.867133 
L 353.603425 241.401899 
L 353.762025 269.213615 
L 353.920625 271.030461 
L 354.079225 267.676284 
L 354.237826 267.676284 
L 354.555026 248.948797 
L 354.713626 271.309976 
L 355.030826 227.985192 
L 355.506627 276.201484 
L 355.665227 246.433165 
L 355.823827 265.300409 
L 356.141028 271.58949 
L 356.299628 267.676284 
L 356.458228 247.271709 
L 356.616828 271.309976 
L 356.775428 265.999196 
L 356.934029 267.396769 
L 357.092629 243.917532 
L 357.251229 251.324672 
L 357.409829 282.630322 
L 357.568429 249.927099 
L 357.727029 241.681414 
L 357.88563 259.849872 
L 358.04423 258.452298 
L 358.20283 274.524395 
L 358.36143 264.601622 
L 358.52003 269.353373 
L 358.67863 260.408901 
L 358.837231 263.064291 
L 358.995831 260.408901 
L 359.313031 265.160652 
L 359.471631 256.076423 
L 359.630231 267.117255 
L 359.788832 268.235314 
L 360.106032 271.729248 
L 360.264632 256.635452 
L 360.423232 266.138953 
L 360.581832 254.259577 
L 360.740433 268.794343 
L 360.899033 229.802038 
L 361.057633 282.21105 
L 361.216233 222.25514 
L 361.374833 250.9054 
L 361.533433 245.175348 
L 361.850634 266.138953 
L 362.009234 227.286406 
L 362.326434 266.558225 
L 362.485034 251.324672 
L 362.643635 267.396769 
L 362.802235 271.309976 
L 363.119435 254.259577 
L 363.278035 228.404464 
L 363.595236 255.657151 
L 363.753836 235.252575 
L 363.912436 263.204049 
L 364.071036 270.890704 
L 364.388236 248.389768 
L 364.546837 269.912402 
L 364.705437 255.517393 
L 365.022637 268.375071 
L 365.181237 250.346371 
L 365.339837 245.175348 
L 365.498438 251.184915 
L 365.815638 240.283841 
L 365.974238 248.529525 
L 366.132838 267.955799 
L 366.291438 219.59975 
L 366.450039 249.088555 
L 366.767239 251.743945 
L 366.925839 269.772645 
L 367.084439 263.064291 
L 367.40164 232.8767 
L 367.56024 259.849872 
L 367.71884 266.278711 
L 368.03604 243.638017 
L 368.511841 275.782211 
L 368.670441 268.654586 
L 368.829041 269.213615 
L 368.987641 244.616319 
L 369.146242 246.15365 
L 369.304842 267.676284 
L 369.463442 234.553789 
L 369.780642 265.719681 
L 369.939242 260.548659 
L 370.097843 237.768208 
L 370.256443 257.194482 
L 370.573643 261.806475 
L 370.732243 250.206614 
L 370.890843 271.030461 
L 371.049444 266.83774 
L 371.208044 249.368069 
L 371.366644 256.495695 
L 371.683844 244.057289 
L 371.842444 267.536527 
L 372.001045 243.917532 
L 372.318245 262.924534 
L 372.476845 258.452298 
L 372.635445 249.927099 
L 372.952646 262.645019 
L 373.111246 239.165782 
L 373.269846 274.24488 
L 373.428446 276.341241 
L 373.587046 272.567792 
L 373.745646 251.883702 
L 373.904247 247.970496 
L 374.221447 257.753511 
L 374.380047 229.802038 
L 374.697247 267.117255 
L 374.855848 250.346371 
L 375.014448 262.645019 
L 375.331648 249.787341 
L 375.490248 254.818607 
L 375.648848 275.223182 
L 375.807449 240.004326 
L 375.966049 268.095556 
L 376.283249 249.228312 
L 376.441849 249.647584 
L 376.75905 255.377636 
L 377.07625 236.650149 
L 377.23485 262.225747 
L 377.39345 249.368069 
L 377.55205 266.278711 
L 377.710651 241.122385 
L 377.869251 255.377636 
L 378.027851 259.570357 
L 378.186451 249.507827 
L 378.345051 260.129386 
L 378.503651 241.262142 
L 378.662252 259.011328 
L 378.820852 256.77521 
L 378.979452 265.020894 
L 379.138052 242.100686 
L 379.296652 258.731813 
L 379.455252 260.548659 
L 379.613853 218.202177 
L 379.931053 257.054724 
L 380.089653 248.80904 
L 380.248253 266.278711 
L 380.565454 245.175348 
L 380.724054 235.811605 
L 380.882654 258.312541 
L 381.041254 233.016458 
L 381.199854 249.368069 
L 381.358455 244.895834 
L 381.517055 231.199612 
L 381.675655 250.066856 
L 381.834255 240.703113 
L 381.992855 263.064291 
L 382.310056 233.016458 
L 382.468656 249.927099 
L 382.785856 228.823737 
L 382.944456 252.582489 
L 383.103056 218.761206 
L 383.261657 236.929664 
L 383.420257 234.693546 
L 383.737457 257.753511 
L 383.896057 251.184915 
L 384.054657 229.941795 
L 384.371858 251.743945 
L 384.689058 236.650149 
L 384.847658 194.722939 
L 385.006258 246.013893 
L 385.164859 214.708243 
L 385.323459 246.15365 
L 385.482059 251.883702 
L 385.640659 243.078988 
L 385.799259 226.308104 
L 385.957859 231.059854 
L 386.11646 242.799473 
L 386.27506 237.069421 
L 386.43366 241.401899 
L 386.59226 227.006891 
L 386.75086 230.920097 
L 386.90946 237.907965 
L 387.068061 239.026024 
L 387.226661 242.799473 
L 387.385261 222.953927 
L 387.702461 250.346371 
L 387.861061 219.739508 
L 388.019662 259.570357 
L 388.178262 232.597185 
L 388.336862 236.09112 
L 388.495462 231.898399 
L 388.654062 233.575487 
L 388.812662 242.799473 
L 389.129863 228.963494 
L 389.288463 228.404464 
L 389.447063 215.127515 
L 389.605663 243.078988 
L 389.764263 212.332367 
L 389.922864 227.56592 
L 390.081464 218.202177 
L 390.240064 242.799473 
L 390.398664 199.614447 
L 390.557264 228.683979 
L 390.715864 218.341934 
L 390.874465 219.040721 
L 391.191665 207.021588 
L 391.350265 235.53209 
L 391.508865 169.985886 
L 391.826066 228.544222 
L 392.143266 207.021588 
L 392.301866 209.117948 
L 392.460466 235.671847 
L 392.619066 214.428728 
L 392.777667 225.190045 
L 392.936267 220.857567 
L 393.094867 229.522523 
L 393.412067 191.229005 
L 393.570667 214.009456 
L 393.729268 214.848 
L 393.887868 188.433858 
L 394.046468 218.481692 
L 394.205068 214.708243 
L 394.363668 203.807168 
L 394.522269 202.269837 
L 394.680869 204.925227 
L 394.839469 198.356631 
L 394.998069 220.857567 
L 395.315269 178.650842 
L 395.47387 192.067549 
L 395.63247 188.573615 
L 395.79107 214.009456 
L 396.26687 175.156908 
L 396.425471 196.400028 
L 396.584071 172.501518 
L 396.742671 175.436423 
L 396.901271 190.530218 
L 397.059871 150.14034 
L 397.218471 190.110946 
L 397.377072 180.327931 
L 397.535672 148.603009 
L 397.694272 173.060548 
L 397.852872 143.991016 
L 398.011472 140.636839 
L 398.170072 155.730634 
L 398.328673 134.906787 
L 398.487273 140.916354 
L 398.487273 140.916354 
" style="fill:none;stroke:#1f77b4;stroke-linecap:square;stroke-width:1.5;"/>
   </g>
   <g id="patch_3">
    <path d="M 57.6 307.584 
L 57.6 41.472 
" style="fill:none;stroke:#000000;stroke-linecap:square;stroke-linejoin:miter;stroke-width:0.8;"/>
   </g>
   <g id="patch_4">
    <path d="M 414.72 307.584 
L 414.72 41.472 
" style="fill:none;stroke:#000000;stroke-linecap:square;stroke-linejoin:miter;stroke-width:0.8;"/>
   </g>
   <g id="patch_5">
    <path d="M 57.6 307.584 
L 414.72 307.584 
" style="fill:none;stroke:#000000;stroke-linecap:square;stroke-linejoin:miter;stroke-width:0.8;"/>
   </g>
   <g id="patch_6">
    <path d="M 57.6 41.472 
L 414.72 41.472 
" style="fill:none;stroke:#000000;stroke-linecap:square;stroke-linejoin:miter;stroke-width:0.8;"/>
   </g>
   <g id="text_17">
    <!-- Background -->
    <g transform="translate(200.367188 35.472)scale(0.12 -0.12)">
     <defs>
      <path d="M 1259 2228 
L 1259 519 
L 2272 519 
Q 2781 519 3026 730 
Q 3272 941 3272 1375 
Q 3272 1813 3026 2020 
Q 2781 2228 2272 2228 
L 1259 2228 
z
M 1259 4147 
L 1259 2741 
L 2194 2741 
Q 2656 2741 2882 2914 
Q 3109 3088 3109 3444 
Q 3109 3797 2882 3972 
Q 2656 4147 2194 4147 
L 1259 4147 
z
M 628 4666 
L 2241 4666 
Q 2963 4666 3353 4366 
Q 3744 4066 3744 3513 
Q 3744 3084 3544 2831 
Q 3344 2578 2956 2516 
Q 3422 2416 3680 2098 
Q 3938 1781 3938 1306 
Q 3938 681 3513 340 
Q 3088 0 2303 0 
L 628 0 
L 628 4666 
z
" id="DejaVuSans-42" transform="scale(0.015625)"/>
      <path d="M 3122 3366 
L 3122 2828 
Q 2878 2963 2633 3030 
Q 2388 3097 2138 3097 
Q 1578 3097 1268 2742 
Q 959 2388 959 1747 
Q 959 1106 1268 751 
Q 1578 397 2138 397 
Q 2388 397 2633 464 
Q 2878 531 3122 666 
L 3122 134 
Q 2881 22 2623 -34 
Q 2366 -91 2075 -91 
Q 1284 -91 818 406 
Q 353 903 353 1747 
Q 353 2603 823 3093 
Q 1294 3584 2113 3584 
Q 2378 3584 2631 3529 
Q 2884 3475 3122 3366 
z
" id="DejaVuSans-63" transform="scale(0.015625)"/>
      <path d="M 581 4863 
L 1159 4863 
L 1159 1991 
L 2875 3500 
L 3609 3500 
L 1753 1863 
L 3688 0 
L 2938 0 
L 1159 1709 
L 1159 0 
L 581 0 
L 581 4863 
z
" id="DejaVuSans-6b" transform="scale(0.015625)"/>
      <path d="M 2631 2963 
Q 2534 3019 2420 3045 
Q 2306 3072 2169 3072 
Q 1681 3072 1420 2755 
Q 1159 2438 1159 1844 
L 1159 0 
L 581 0 
L 581 3500 
L 1159 3500 
L 1159 2956 
Q 1341 3275 1631 3429 
Q 1922 3584 2338 3584 
Q 2397 3584 2469 3576 
Q 2541 3569 2628 3553 
L 2631 2963 
z
" id="DejaVuSans-72" transform="scale(0.015625)"/>
      <path d="M 2906 2969 
L 2906 4863 
L 3481 4863 
L 3481 0 
L 2906 0 
L 2906 525 
Q 2725 213 2448 61 
Q 2172 -91 1784 -91 
Q 1150 -91 751 415 
Q 353 922 353 1747 
Q 353 2572 751 3078 
Q 1150 3584 1784 3584 
Q 2172 3584 2448 3432 
Q 2725 3281 2906 2969 
z
M 947 1747 
Q 947 1113 1208 752 
Q 1469 391 1925 391 
Q 2381 391 2643 752 
Q 2906 1113 2906 1747 
Q 2906 2381 2643 2742 
Q 2381 3103 1925 3103 
Q 1469 3103 1208 2742 
Q 947 2381 947 1747 
z
" id="DejaVuSans-64" transform="scale(0.015625)"/>
     </defs>
     <use xlink:href="#DejaVuSans-42"/>
     <use x="68.603516" xlink:href="#DejaVuSans-61"/>
     <use x="129.882812" xlink:href="#DejaVuSans-63"/>
     <use x="184.863281" xlink:href="#DejaVuSans-6b"/>
     <use x="242.773438" xlink:href="#DejaVuSans-67"/>
     <use x="306.25" xlink:href="#DejaVuSans-72"/>
     <use x="345.113281" xlink:href="#DejaVuSans-6f"/>
     <use x="406.294922" xlink:href="#DejaVuSans-75"/>
     <use x="469.673828" xlink:href="#DejaVuSans-6e"/>
     <use x="533.052734" xlink:href="#DejaVuSans-64"/>
    </g>
   </g>
  </g>
 </g>
 <defs>
  <clipPath id="p41415f9574">
   <rect height="266.112" width="357.12" x="57.6" y="41.472"/>
  </clipPath>
 </defs>
</svg>
