<?xml version="1.0" encoding="utf-8" standalone="no"?>
<!DOCTYPE svg PUBLIC "-//W3C//DTD SVG 1.1//EN"
  "http://www.w3.org/Graphics/SVG/1.1/DTD/svg11.dtd">
<svg height="345.6pt" version="1.1" viewBox="0 0 460.8 345.6" width="460.8pt" xmlns="http://www.w3.org/2000/svg" xmlns:xlink="http://www.w3.org/1999/xlink">
 <metadata>
  <rdf:RDF xmlns:cc="http://creativecommons.org/ns#" xmlns:dc="http://purl.org/dc/elements/1.1/" xmlns:rdf="http://www.w3.org/1999/02/22-rdf-syntax-ns#">
   <cc:Work>
    <dc:type rdf:resource="http://purl.org/dc/dcmitype/StillImage"/>
    <dc:date>2022-04-22T17:15:25.310148</dc:date>
    <dc:format>image/svg+xml</dc:format>
    <dc:creator>
     <cc:Agent>
      <dc:title>Matplotlib v3.4.1, https://matplotlib.org/</dc:title>
     </cc:Agent>
    </dc:creator>
   </cc:Work>
  </rdf:RDF>
 </metadata>
 <defs>
  <style type="text/css">*{stroke-linecap:butt;stroke-linejoin:round;}</style>
 </defs>
 <g id="figure_1">
  <g id="patch_1">
   <path d="M 0 345.6 
L 460.8 345.6 
L 460.8 0 
L 0 0 
z
" style="fill:#ffffff;"/>
  </g>
  <g id="axes_1">
   <g id="patch_2">
    <path d="M 57.6 307.584 
L 414.72 307.584 
L 414.72 41.472 
L 57.6 41.472 
z
" style="fill:#ffffff;"/>
   </g>
   <g id="matplotlib.axis_1">
    <g id="xtick_1">
     <g id="line2d_1">
      <defs>
       <path d="M 0 0 
L 0 3.5 
" id="m3baa3bc2bf" style="stroke:#000000;stroke-width:0.8;"/>
      </defs>
      <g>
       <use style="stroke:#000000;stroke-width:0.8;" x="103.072447" xlink:href="#m3baa3bc2bf" y="307.584"/>
      </g>
     </g>
     <g id="text_1">
      <!-- 400 -->
      <g transform="translate(93.528697 322.182437)scale(0.1 -0.1)">
       <defs>
        <path d="M 2419 4116 
L 825 1625 
L 2419 1625 
L 2419 4116 
z
M 2253 4666 
L 3047 4666 
L 3047 1625 
L 3713 1625 
L 3713 1100 
L 3047 1100 
L 3047 0 
L 2419 0 
L 2419 1100 
L 313 1100 
L 313 1709 
L 2253 4666 
z
" id="DejaVuSans-34" transform="scale(0.015625)"/>
        <path d="M 2034 4250 
Q 1547 4250 1301 3770 
Q 1056 3291 1056 2328 
Q 1056 1369 1301 889 
Q 1547 409 2034 409 
Q 2525 409 2770 889 
Q 3016 1369 3016 2328 
Q 3016 3291 2770 3770 
Q 2525 4250 2034 4250 
z
M 2034 4750 
Q 2819 4750 3233 4129 
Q 3647 3509 3647 2328 
Q 3647 1150 3233 529 
Q 2819 -91 2034 -91 
Q 1250 -91 836 529 
Q 422 1150 422 2328 
Q 422 3509 836 4129 
Q 1250 4750 2034 4750 
z
" id="DejaVuSans-30" transform="scale(0.015625)"/>
       </defs>
       <use xlink:href="#DejaVuSans-34"/>
       <use x="63.623047" xlink:href="#DejaVuSans-30"/>
       <use x="127.246094" xlink:href="#DejaVuSans-30"/>
      </g>
     </g>
    </g>
    <g id="xtick_2">
     <g id="line2d_2">
      <g>
       <use style="stroke:#000000;stroke-width:0.8;" x="161.359538" xlink:href="#m3baa3bc2bf" y="307.584"/>
      </g>
     </g>
     <g id="text_2">
      <!-- 600 -->
      <g transform="translate(151.815788 322.182437)scale(0.1 -0.1)">
       <defs>
        <path d="M 2113 2584 
Q 1688 2584 1439 2293 
Q 1191 2003 1191 1497 
Q 1191 994 1439 701 
Q 1688 409 2113 409 
Q 2538 409 2786 701 
Q 3034 994 3034 1497 
Q 3034 2003 2786 2293 
Q 2538 2584 2113 2584 
z
M 3366 4563 
L 3366 3988 
Q 3128 4100 2886 4159 
Q 2644 4219 2406 4219 
Q 1781 4219 1451 3797 
Q 1122 3375 1075 2522 
Q 1259 2794 1537 2939 
Q 1816 3084 2150 3084 
Q 2853 3084 3261 2657 
Q 3669 2231 3669 1497 
Q 3669 778 3244 343 
Q 2819 -91 2113 -91 
Q 1303 -91 875 529 
Q 447 1150 447 2328 
Q 447 3434 972 4092 
Q 1497 4750 2381 4750 
Q 2619 4750 2861 4703 
Q 3103 4656 3366 4563 
z
" id="DejaVuSans-36" transform="scale(0.015625)"/>
       </defs>
       <use xlink:href="#DejaVuSans-36"/>
       <use x="63.623047" xlink:href="#DejaVuSans-30"/>
       <use x="127.246094" xlink:href="#DejaVuSans-30"/>
      </g>
     </g>
    </g>
    <g id="xtick_3">
     <g id="line2d_3">
      <g>
       <use style="stroke:#000000;stroke-width:0.8;" x="219.646629" xlink:href="#m3baa3bc2bf" y="307.584"/>
      </g>
     </g>
     <g id="text_3">
      <!-- 800 -->
      <g transform="translate(210.102879 322.182437)scale(0.1 -0.1)">
       <defs>
        <path d="M 2034 2216 
Q 1584 2216 1326 1975 
Q 1069 1734 1069 1313 
Q 1069 891 1326 650 
Q 1584 409 2034 409 
Q 2484 409 2743 651 
Q 3003 894 3003 1313 
Q 3003 1734 2745 1975 
Q 2488 2216 2034 2216 
z
M 1403 2484 
Q 997 2584 770 2862 
Q 544 3141 544 3541 
Q 544 4100 942 4425 
Q 1341 4750 2034 4750 
Q 2731 4750 3128 4425 
Q 3525 4100 3525 3541 
Q 3525 3141 3298 2862 
Q 3072 2584 2669 2484 
Q 3125 2378 3379 2068 
Q 3634 1759 3634 1313 
Q 3634 634 3220 271 
Q 2806 -91 2034 -91 
Q 1263 -91 848 271 
Q 434 634 434 1313 
Q 434 1759 690 2068 
Q 947 2378 1403 2484 
z
M 1172 3481 
Q 1172 3119 1398 2916 
Q 1625 2713 2034 2713 
Q 2441 2713 2670 2916 
Q 2900 3119 2900 3481 
Q 2900 3844 2670 4047 
Q 2441 4250 2034 4250 
Q 1625 4250 1398 4047 
Q 1172 3844 1172 3481 
z
" id="DejaVuSans-38" transform="scale(0.015625)"/>
       </defs>
       <use xlink:href="#DejaVuSans-38"/>
       <use x="63.623047" xlink:href="#DejaVuSans-30"/>
       <use x="127.246094" xlink:href="#DejaVuSans-30"/>
      </g>
     </g>
    </g>
    <g id="xtick_4">
     <g id="line2d_4">
      <g>
       <use style="stroke:#000000;stroke-width:0.8;" x="277.933721" xlink:href="#m3baa3bc2bf" y="307.584"/>
      </g>
     </g>
     <g id="text_4">
      <!-- 1000 -->
      <g transform="translate(265.208721 322.182437)scale(0.1 -0.1)">
       <defs>
        <path d="M 794 531 
L 1825 531 
L 1825 4091 
L 703 3866 
L 703 4441 
L 1819 4666 
L 2450 4666 
L 2450 531 
L 3481 531 
L 3481 0 
L 794 0 
L 794 531 
z
" id="DejaVuSans-31" transform="scale(0.015625)"/>
       </defs>
       <use xlink:href="#DejaVuSans-31"/>
       <use x="63.623047" xlink:href="#DejaVuSans-30"/>
       <use x="127.246094" xlink:href="#DejaVuSans-30"/>
       <use x="190.869141" xlink:href="#DejaVuSans-30"/>
      </g>
     </g>
    </g>
    <g id="xtick_5">
     <g id="line2d_5">
      <g>
       <use style="stroke:#000000;stroke-width:0.8;" x="336.220812" xlink:href="#m3baa3bc2bf" y="307.584"/>
      </g>
     </g>
     <g id="text_5">
      <!-- 1200 -->
      <g transform="translate(323.495812 322.182437)scale(0.1 -0.1)">
       <defs>
        <path d="M 1228 531 
L 3431 531 
L 3431 0 
L 469 0 
L 469 531 
Q 828 903 1448 1529 
Q 2069 2156 2228 2338 
Q 2531 2678 2651 2914 
Q 2772 3150 2772 3378 
Q 2772 3750 2511 3984 
Q 2250 4219 1831 4219 
Q 1534 4219 1204 4116 
Q 875 4013 500 3803 
L 500 4441 
Q 881 4594 1212 4672 
Q 1544 4750 1819 4750 
Q 2544 4750 2975 4387 
Q 3406 4025 3406 3419 
Q 3406 3131 3298 2873 
Q 3191 2616 2906 2266 
Q 2828 2175 2409 1742 
Q 1991 1309 1228 531 
z
" id="DejaVuSans-32" transform="scale(0.015625)"/>
       </defs>
       <use xlink:href="#DejaVuSans-31"/>
       <use x="63.623047" xlink:href="#DejaVuSans-32"/>
       <use x="127.246094" xlink:href="#DejaVuSans-30"/>
       <use x="190.869141" xlink:href="#DejaVuSans-30"/>
      </g>
     </g>
    </g>
    <g id="xtick_6">
     <g id="line2d_6">
      <g>
       <use style="stroke:#000000;stroke-width:0.8;" x="394.507904" xlink:href="#m3baa3bc2bf" y="307.584"/>
      </g>
     </g>
     <g id="text_6">
      <!-- 1400 -->
      <g transform="translate(381.782904 322.182437)scale(0.1 -0.1)">
       <use xlink:href="#DejaVuSans-31"/>
       <use x="63.623047" xlink:href="#DejaVuSans-34"/>
       <use x="127.246094" xlink:href="#DejaVuSans-30"/>
       <use x="190.869141" xlink:href="#DejaVuSans-30"/>
      </g>
     </g>
    </g>
    <g id="text_7">
     <!-- Wavelength [nm] -->
     <g transform="translate(192.967812 335.860562)scale(0.1 -0.1)">
      <defs>
       <path d="M 213 4666 
L 850 4666 
L 1831 722 
L 2809 4666 
L 3519 4666 
L 4500 722 
L 5478 4666 
L 6119 4666 
L 4947 0 
L 4153 0 
L 3169 4050 
L 2175 0 
L 1381 0 
L 213 4666 
z
" id="DejaVuSans-57" transform="scale(0.015625)"/>
       <path d="M 2194 1759 
Q 1497 1759 1228 1600 
Q 959 1441 959 1056 
Q 959 750 1161 570 
Q 1363 391 1709 391 
Q 2188 391 2477 730 
Q 2766 1069 2766 1631 
L 2766 1759 
L 2194 1759 
z
M 3341 1997 
L 3341 0 
L 2766 0 
L 2766 531 
Q 2569 213 2275 61 
Q 1981 -91 1556 -91 
Q 1019 -91 701 211 
Q 384 513 384 1019 
Q 384 1609 779 1909 
Q 1175 2209 1959 2209 
L 2766 2209 
L 2766 2266 
Q 2766 2663 2505 2880 
Q 2244 3097 1772 3097 
Q 1472 3097 1187 3025 
Q 903 2953 641 2809 
L 641 3341 
Q 956 3463 1253 3523 
Q 1550 3584 1831 3584 
Q 2591 3584 2966 3190 
Q 3341 2797 3341 1997 
z
" id="DejaVuSans-61" transform="scale(0.015625)"/>
       <path d="M 191 3500 
L 800 3500 
L 1894 563 
L 2988 3500 
L 3597 3500 
L 2284 0 
L 1503 0 
L 191 3500 
z
" id="DejaVuSans-76" transform="scale(0.015625)"/>
       <path d="M 3597 1894 
L 3597 1613 
L 953 1613 
Q 991 1019 1311 708 
Q 1631 397 2203 397 
Q 2534 397 2845 478 
Q 3156 559 3463 722 
L 3463 178 
Q 3153 47 2828 -22 
Q 2503 -91 2169 -91 
Q 1331 -91 842 396 
Q 353 884 353 1716 
Q 353 2575 817 3079 
Q 1281 3584 2069 3584 
Q 2775 3584 3186 3129 
Q 3597 2675 3597 1894 
z
M 3022 2063 
Q 3016 2534 2758 2815 
Q 2500 3097 2075 3097 
Q 1594 3097 1305 2825 
Q 1016 2553 972 2059 
L 3022 2063 
z
" id="DejaVuSans-65" transform="scale(0.015625)"/>
       <path d="M 603 4863 
L 1178 4863 
L 1178 0 
L 603 0 
L 603 4863 
z
" id="DejaVuSans-6c" transform="scale(0.015625)"/>
       <path d="M 3513 2113 
L 3513 0 
L 2938 0 
L 2938 2094 
Q 2938 2591 2744 2837 
Q 2550 3084 2163 3084 
Q 1697 3084 1428 2787 
Q 1159 2491 1159 1978 
L 1159 0 
L 581 0 
L 581 3500 
L 1159 3500 
L 1159 2956 
Q 1366 3272 1645 3428 
Q 1925 3584 2291 3584 
Q 2894 3584 3203 3211 
Q 3513 2838 3513 2113 
z
" id="DejaVuSans-6e" transform="scale(0.015625)"/>
       <path d="M 2906 1791 
Q 2906 2416 2648 2759 
Q 2391 3103 1925 3103 
Q 1463 3103 1205 2759 
Q 947 2416 947 1791 
Q 947 1169 1205 825 
Q 1463 481 1925 481 
Q 2391 481 2648 825 
Q 2906 1169 2906 1791 
z
M 3481 434 
Q 3481 -459 3084 -895 
Q 2688 -1331 1869 -1331 
Q 1566 -1331 1297 -1286 
Q 1028 -1241 775 -1147 
L 775 -588 
Q 1028 -725 1275 -790 
Q 1522 -856 1778 -856 
Q 2344 -856 2625 -561 
Q 2906 -266 2906 331 
L 2906 616 
Q 2728 306 2450 153 
Q 2172 0 1784 0 
Q 1141 0 747 490 
Q 353 981 353 1791 
Q 353 2603 747 3093 
Q 1141 3584 1784 3584 
Q 2172 3584 2450 3431 
Q 2728 3278 2906 2969 
L 2906 3500 
L 3481 3500 
L 3481 434 
z
" id="DejaVuSans-67" transform="scale(0.015625)"/>
       <path d="M 1172 4494 
L 1172 3500 
L 2356 3500 
L 2356 3053 
L 1172 3053 
L 1172 1153 
Q 1172 725 1289 603 
Q 1406 481 1766 481 
L 2356 481 
L 2356 0 
L 1766 0 
Q 1100 0 847 248 
Q 594 497 594 1153 
L 594 3053 
L 172 3053 
L 172 3500 
L 594 3500 
L 594 4494 
L 1172 4494 
z
" id="DejaVuSans-74" transform="scale(0.015625)"/>
       <path d="M 3513 2113 
L 3513 0 
L 2938 0 
L 2938 2094 
Q 2938 2591 2744 2837 
Q 2550 3084 2163 3084 
Q 1697 3084 1428 2787 
Q 1159 2491 1159 1978 
L 1159 0 
L 581 0 
L 581 4863 
L 1159 4863 
L 1159 2956 
Q 1366 3272 1645 3428 
Q 1925 3584 2291 3584 
Q 2894 3584 3203 3211 
Q 3513 2838 3513 2113 
z
" id="DejaVuSans-68" transform="scale(0.015625)"/>
       <path id="DejaVuSans-20" transform="scale(0.015625)"/>
       <path d="M 550 4863 
L 1875 4863 
L 1875 4416 
L 1125 4416 
L 1125 -397 
L 1875 -397 
L 1875 -844 
L 550 -844 
L 550 4863 
z
" id="DejaVuSans-5b" transform="scale(0.015625)"/>
       <path d="M 3328 2828 
Q 3544 3216 3844 3400 
Q 4144 3584 4550 3584 
Q 5097 3584 5394 3201 
Q 5691 2819 5691 2113 
L 5691 0 
L 5113 0 
L 5113 2094 
Q 5113 2597 4934 2840 
Q 4756 3084 4391 3084 
Q 3944 3084 3684 2787 
Q 3425 2491 3425 1978 
L 3425 0 
L 2847 0 
L 2847 2094 
Q 2847 2600 2669 2842 
Q 2491 3084 2119 3084 
Q 1678 3084 1418 2786 
Q 1159 2488 1159 1978 
L 1159 0 
L 581 0 
L 581 3500 
L 1159 3500 
L 1159 2956 
Q 1356 3278 1631 3431 
Q 1906 3584 2284 3584 
Q 2666 3584 2933 3390 
Q 3200 3197 3328 2828 
z
" id="DejaVuSans-6d" transform="scale(0.015625)"/>
       <path d="M 1947 4863 
L 1947 -844 
L 622 -844 
L 622 -397 
L 1369 -397 
L 1369 4416 
L 622 4416 
L 622 4863 
L 1947 4863 
z
" id="DejaVuSans-5d" transform="scale(0.015625)"/>
      </defs>
      <use xlink:href="#DejaVuSans-57"/>
      <use x="92.501953" xlink:href="#DejaVuSans-61"/>
      <use x="153.78125" xlink:href="#DejaVuSans-76"/>
      <use x="212.960938" xlink:href="#DejaVuSans-65"/>
      <use x="274.484375" xlink:href="#DejaVuSans-6c"/>
      <use x="302.267578" xlink:href="#DejaVuSans-65"/>
      <use x="363.791016" xlink:href="#DejaVuSans-6e"/>
      <use x="427.169922" xlink:href="#DejaVuSans-67"/>
      <use x="490.646484" xlink:href="#DejaVuSans-74"/>
      <use x="529.855469" xlink:href="#DejaVuSans-68"/>
      <use x="593.234375" xlink:href="#DejaVuSans-20"/>
      <use x="625.021484" xlink:href="#DejaVuSans-5b"/>
      <use x="664.035156" xlink:href="#DejaVuSans-6e"/>
      <use x="727.414062" xlink:href="#DejaVuSans-6d"/>
      <use x="824.826172" xlink:href="#DejaVuSans-5d"/>
     </g>
    </g>
   </g>
   <g id="matplotlib.axis_2">
    <g id="ytick_1">
     <g id="line2d_7">
      <defs>
       <path d="M 0 0 
L -3.5 0 
" id="mba4edec408" style="stroke:#000000;stroke-width:0.8;"/>
      </defs>
      <g>
       <use style="stroke:#000000;stroke-width:0.8;" x="57.6" xlink:href="#mba4edec408" y="294.985827"/>
      </g>
     </g>
     <g id="text_8">
      <!-- 0 -->
      <g transform="translate(44.2375 298.785046)scale(0.1 -0.1)">
       <use xlink:href="#DejaVuSans-30"/>
      </g>
     </g>
    </g>
    <g id="ytick_2">
     <g id="line2d_8">
      <g>
       <use style="stroke:#000000;stroke-width:0.8;" x="57.6" xlink:href="#mba4edec408" y="263.756159"/>
      </g>
     </g>
     <g id="text_9">
      <!-- 5000 -->
      <g transform="translate(25.15 267.555378)scale(0.1 -0.1)">
       <defs>
        <path d="M 691 4666 
L 3169 4666 
L 3169 4134 
L 1269 4134 
L 1269 2991 
Q 1406 3038 1543 3061 
Q 1681 3084 1819 3084 
Q 2600 3084 3056 2656 
Q 3513 2228 3513 1497 
Q 3513 744 3044 326 
Q 2575 -91 1722 -91 
Q 1428 -91 1123 -41 
Q 819 9 494 109 
L 494 744 
Q 775 591 1075 516 
Q 1375 441 1709 441 
Q 2250 441 2565 725 
Q 2881 1009 2881 1497 
Q 2881 1984 2565 2268 
Q 2250 2553 1709 2553 
Q 1456 2553 1204 2497 
Q 953 2441 691 2322 
L 691 4666 
z
" id="DejaVuSans-35" transform="scale(0.015625)"/>
       </defs>
       <use xlink:href="#DejaVuSans-35"/>
       <use x="63.623047" xlink:href="#DejaVuSans-30"/>
       <use x="127.246094" xlink:href="#DejaVuSans-30"/>
       <use x="190.869141" xlink:href="#DejaVuSans-30"/>
      </g>
     </g>
    </g>
    <g id="ytick_3">
     <g id="line2d_9">
      <g>
       <use style="stroke:#000000;stroke-width:0.8;" x="57.6" xlink:href="#mba4edec408" y="232.526491"/>
      </g>
     </g>
     <g id="text_10">
      <!-- 10000 -->
      <g transform="translate(18.7875 236.325709)scale(0.1 -0.1)">
       <use xlink:href="#DejaVuSans-31"/>
       <use x="63.623047" xlink:href="#DejaVuSans-30"/>
       <use x="127.246094" xlink:href="#DejaVuSans-30"/>
       <use x="190.869141" xlink:href="#DejaVuSans-30"/>
       <use x="254.492188" xlink:href="#DejaVuSans-30"/>
      </g>
     </g>
    </g>
    <g id="ytick_4">
     <g id="line2d_10">
      <g>
       <use style="stroke:#000000;stroke-width:0.8;" x="57.6" xlink:href="#mba4edec408" y="201.296822"/>
      </g>
     </g>
     <g id="text_11">
      <!-- 15000 -->
      <g transform="translate(18.7875 205.096041)scale(0.1 -0.1)">
       <use xlink:href="#DejaVuSans-31"/>
       <use x="63.623047" xlink:href="#DejaVuSans-35"/>
       <use x="127.246094" xlink:href="#DejaVuSans-30"/>
       <use x="190.869141" xlink:href="#DejaVuSans-30"/>
       <use x="254.492188" xlink:href="#DejaVuSans-30"/>
      </g>
     </g>
    </g>
    <g id="ytick_5">
     <g id="line2d_11">
      <g>
       <use style="stroke:#000000;stroke-width:0.8;" x="57.6" xlink:href="#mba4edec408" y="170.067154"/>
      </g>
     </g>
     <g id="text_12">
      <!-- 20000 -->
      <g transform="translate(18.7875 173.866373)scale(0.1 -0.1)">
       <use xlink:href="#DejaVuSans-32"/>
       <use x="63.623047" xlink:href="#DejaVuSans-30"/>
       <use x="127.246094" xlink:href="#DejaVuSans-30"/>
       <use x="190.869141" xlink:href="#DejaVuSans-30"/>
       <use x="254.492188" xlink:href="#DejaVuSans-30"/>
      </g>
     </g>
    </g>
    <g id="ytick_6">
     <g id="line2d_12">
      <g>
       <use style="stroke:#000000;stroke-width:0.8;" x="57.6" xlink:href="#mba4edec408" y="138.837486"/>
      </g>
     </g>
     <g id="text_13">
      <!-- 25000 -->
      <g transform="translate(18.7875 142.636705)scale(0.1 -0.1)">
       <use xlink:href="#DejaVuSans-32"/>
       <use x="63.623047" xlink:href="#DejaVuSans-35"/>
       <use x="127.246094" xlink:href="#DejaVuSans-30"/>
       <use x="190.869141" xlink:href="#DejaVuSans-30"/>
       <use x="254.492188" xlink:href="#DejaVuSans-30"/>
      </g>
     </g>
    </g>
    <g id="ytick_7">
     <g id="line2d_13">
      <g>
       <use style="stroke:#000000;stroke-width:0.8;" x="57.6" xlink:href="#mba4edec408" y="107.607818"/>
      </g>
     </g>
     <g id="text_14">
      <!-- 30000 -->
      <g transform="translate(18.7875 111.407037)scale(0.1 -0.1)">
       <defs>
        <path d="M 2597 2516 
Q 3050 2419 3304 2112 
Q 3559 1806 3559 1356 
Q 3559 666 3084 287 
Q 2609 -91 1734 -91 
Q 1441 -91 1130 -33 
Q 819 25 488 141 
L 488 750 
Q 750 597 1062 519 
Q 1375 441 1716 441 
Q 2309 441 2620 675 
Q 2931 909 2931 1356 
Q 2931 1769 2642 2001 
Q 2353 2234 1838 2234 
L 1294 2234 
L 1294 2753 
L 1863 2753 
Q 2328 2753 2575 2939 
Q 2822 3125 2822 3475 
Q 2822 3834 2567 4026 
Q 2313 4219 1838 4219 
Q 1578 4219 1281 4162 
Q 984 4106 628 3988 
L 628 4550 
Q 988 4650 1302 4700 
Q 1616 4750 1894 4750 
Q 2613 4750 3031 4423 
Q 3450 4097 3450 3541 
Q 3450 3153 3228 2886 
Q 3006 2619 2597 2516 
z
" id="DejaVuSans-33" transform="scale(0.015625)"/>
       </defs>
       <use xlink:href="#DejaVuSans-33"/>
       <use x="63.623047" xlink:href="#DejaVuSans-30"/>
       <use x="127.246094" xlink:href="#DejaVuSans-30"/>
       <use x="190.869141" xlink:href="#DejaVuSans-30"/>
       <use x="254.492188" xlink:href="#DejaVuSans-30"/>
      </g>
     </g>
    </g>
    <g id="ytick_8">
     <g id="line2d_14">
      <g>
       <use style="stroke:#000000;stroke-width:0.8;" x="57.6" xlink:href="#mba4edec408" y="76.37815"/>
      </g>
     </g>
     <g id="text_15">
      <!-- 35000 -->
      <g transform="translate(18.7875 80.177368)scale(0.1 -0.1)">
       <use xlink:href="#DejaVuSans-33"/>
       <use x="63.623047" xlink:href="#DejaVuSans-35"/>
       <use x="127.246094" xlink:href="#DejaVuSans-30"/>
       <use x="190.869141" xlink:href="#DejaVuSans-30"/>
       <use x="254.492188" xlink:href="#DejaVuSans-30"/>
      </g>
     </g>
    </g>
    <g id="ytick_9">
     <g id="line2d_15">
      <g>
       <use style="stroke:#000000;stroke-width:0.8;" x="57.6" xlink:href="#mba4edec408" y="45.148481"/>
      </g>
     </g>
     <g id="text_16">
      <!-- 40000 -->
      <g transform="translate(18.7875 48.9477)scale(0.1 -0.1)">
       <use xlink:href="#DejaVuSans-34"/>
       <use x="63.623047" xlink:href="#DejaVuSans-30"/>
       <use x="127.246094" xlink:href="#DejaVuSans-30"/>
       <use x="190.869141" xlink:href="#DejaVuSans-30"/>
       <use x="254.492188" xlink:href="#DejaVuSans-30"/>
      </g>
     </g>
    </g>
    <g id="text_17">
     <!-- Counts -->
     <g transform="translate(12.707812 191.981125)rotate(-90)scale(0.1 -0.1)">
      <defs>
       <path d="M 4122 4306 
L 4122 3641 
Q 3803 3938 3442 4084 
Q 3081 4231 2675 4231 
Q 1875 4231 1450 3742 
Q 1025 3253 1025 2328 
Q 1025 1406 1450 917 
Q 1875 428 2675 428 
Q 3081 428 3442 575 
Q 3803 722 4122 1019 
L 4122 359 
Q 3791 134 3420 21 
Q 3050 -91 2638 -91 
Q 1578 -91 968 557 
Q 359 1206 359 2328 
Q 359 3453 968 4101 
Q 1578 4750 2638 4750 
Q 3056 4750 3426 4639 
Q 3797 4528 4122 4306 
z
" id="DejaVuSans-43" transform="scale(0.015625)"/>
       <path d="M 1959 3097 
Q 1497 3097 1228 2736 
Q 959 2375 959 1747 
Q 959 1119 1226 758 
Q 1494 397 1959 397 
Q 2419 397 2687 759 
Q 2956 1122 2956 1747 
Q 2956 2369 2687 2733 
Q 2419 3097 1959 3097 
z
M 1959 3584 
Q 2709 3584 3137 3096 
Q 3566 2609 3566 1747 
Q 3566 888 3137 398 
Q 2709 -91 1959 -91 
Q 1206 -91 779 398 
Q 353 888 353 1747 
Q 353 2609 779 3096 
Q 1206 3584 1959 3584 
z
" id="DejaVuSans-6f" transform="scale(0.015625)"/>
       <path d="M 544 1381 
L 544 3500 
L 1119 3500 
L 1119 1403 
Q 1119 906 1312 657 
Q 1506 409 1894 409 
Q 2359 409 2629 706 
Q 2900 1003 2900 1516 
L 2900 3500 
L 3475 3500 
L 3475 0 
L 2900 0 
L 2900 538 
Q 2691 219 2414 64 
Q 2138 -91 1772 -91 
Q 1169 -91 856 284 
Q 544 659 544 1381 
z
M 1991 3584 
L 1991 3584 
z
" id="DejaVuSans-75" transform="scale(0.015625)"/>
       <path d="M 2834 3397 
L 2834 2853 
Q 2591 2978 2328 3040 
Q 2066 3103 1784 3103 
Q 1356 3103 1142 2972 
Q 928 2841 928 2578 
Q 928 2378 1081 2264 
Q 1234 2150 1697 2047 
L 1894 2003 
Q 2506 1872 2764 1633 
Q 3022 1394 3022 966 
Q 3022 478 2636 193 
Q 2250 -91 1575 -91 
Q 1294 -91 989 -36 
Q 684 19 347 128 
L 347 722 
Q 666 556 975 473 
Q 1284 391 1588 391 
Q 1994 391 2212 530 
Q 2431 669 2431 922 
Q 2431 1156 2273 1281 
Q 2116 1406 1581 1522 
L 1381 1569 
Q 847 1681 609 1914 
Q 372 2147 372 2553 
Q 372 3047 722 3315 
Q 1072 3584 1716 3584 
Q 2034 3584 2315 3537 
Q 2597 3491 2834 3397 
z
" id="DejaVuSans-73" transform="scale(0.015625)"/>
      </defs>
      <use xlink:href="#DejaVuSans-43"/>
      <use x="69.824219" xlink:href="#DejaVuSans-6f"/>
      <use x="131.005859" xlink:href="#DejaVuSans-75"/>
      <use x="194.384766" xlink:href="#DejaVuSans-6e"/>
      <use x="257.763672" xlink:href="#DejaVuSans-74"/>
      <use x="296.972656" xlink:href="#DejaVuSans-73"/>
     </g>
    </g>
   </g>
   <g id="line2d_16">
    <path clip-path="url(#p3ab31ba214)" d="M 73.832727 295.39556 
L 74.310864 295.07327 
L 74.629621 294.998319 
L 74.789 294.948351 
L 75.107757 294.68852 
L 75.904651 294.686022 
L 76.223409 294.711006 
L 76.382788 294.893387 
L 77.020303 294.770967 
L 77.179681 294.973335 
L 77.498439 294.933361 
L 77.976575 294.793452 
L 78.295333 294.990824 
L 78.454711 295.105749 
L 78.932848 295.068273 
L 79.092227 295.148221 
L 79.729742 295.003316 
L 79.88912 295.113244 
L 80.207878 295.143224 
L 80.526635 295.155716 
L 81.323529 295.168208 
L 81.482908 294.978332 
L 81.801666 294.910876 
L 82.279802 294.800947 
L 82.598559 294.681025 
L 82.757938 294.820934 
L 82.917317 294.805944 
L 83.076696 294.940856 
L 83.395453 294.84342 
L 84.829862 294.913374 
L 85.307998 295.07327 
L 85.467377 294.978332 
L 85.945513 295.053283 
L 86.42365 294.988325 
L 86.583029 294.983329 
L 86.901786 294.825931 
L 88.336195 294.586087 
L 88.97371 294.788455 
L 89.611225 294.511136 
L 89.770604 294.683524 
L 90.24874 294.718501 
L 90.567498 294.990824 
L 90.726876 294.913374 
L 90.886255 295.030798 
L 91.045634 294.998319 
L 91.205013 295.230668 
L 91.52377 295.193192 
L 91.842528 295.278137 
L 92.161285 294.955846 
L 92.320664 295.133231 
L 92.480043 295.085762 
L 92.639422 295.19569 
L 92.958179 294.960843 
L 93.117558 295.008312 
L 93.436315 294.803446 
L 94.07383 294.875899 
L 94.711346 294.915872 
L 95.189482 294.908377 
L 95.508239 295.125736 
L 95.667618 294.970837 
L 96.145754 295.005814 
L 96.464512 295.053283 
L 96.623891 295.223172 
L 96.78327 295.225671 
L 96.942648 295.033296 
L 97.261406 295.203185 
L 97.420785 294.920869 
L 97.739542 294.985827 
L 98.855193 294.8734 
L 99.014572 295.035794 
L 99.33333 294.930863 
L 101.405254 294.318761 
L 102.202148 293.3369 
L 102.999041 290.663641 
L 103.317799 289.007219 
L 103.795935 284.864916 
L 104.274071 278.476575 
L 104.752208 267.681103 
L 105.230344 250.524773 
L 105.70848 223.67975 
L 106.345995 168.850446 
L 107.302268 73.607453 
L 107.621026 56.586035 
L 107.780404 53.585489 
L 107.939783 53.568 
L 108.099162 57.685319 
L 108.417919 74.356966 
L 110.171086 194.483758 
L 110.96798 218.880375 
L 112.402389 256.535859 
L 113.039904 266.954077 
L 113.677419 273.135053 
L 114.474312 278.211748 
L 115.749343 284.677538 
L 116.386858 286.423901 
L 116.705615 286.97854 
L 116.864994 287.258358 
L 117.183752 287.158423 
L 117.34313 287.088468 
L 117.502509 287.505697 
L 117.980645 287.693075 
L 118.140024 288.072828 
L 118.458782 288.320167 
L 119.733812 289.484409 
L 119.893191 289.439438 
L 121.008842 290.168963 
L 121.327599 290.101507 
L 121.486978 290.416302 
L 121.805736 290.468768 
L 123.87766 291.255755 
L 124.196417 291.468117 
L 124.833932 291.445632 
L 124.993311 291.610524 
L 125.471447 291.498098 
L 125.630826 291.283237 
L 125.949584 291.275742 
L 126.108962 291.105853 
L 126.42772 291.303224 
L 126.746477 291.213283 
L 127.224614 291.270746 
L 127.383993 291.255755 
L 127.543371 291.435638 
L 128.499644 291.588039 
L 128.659023 291.638007 
L 128.818401 291.890342 
L 129.296538 291.915326 
L 129.774674 292.327558 
L 130.25281 292.322561 
L 130.412189 292.100206 
L 130.730947 292.197642 
L 131.368462 291.87785 
L 132.484113 292.195144 
L 132.962249 292.270095 
L 133.121628 292.165163 
L 133.599764 292.182652 
L 133.918522 292.162665 
L 135.831067 293.019607 
L 136.309203 292.702314 
L 136.468582 292.672333 
L 136.78734 292.942157 
L 136.946718 293.169509 
L 137.106097 293.162014 
L 137.265476 293.002118 
L 137.424855 293.054584 
L 137.743612 293.456822 
L 138.06237 293.554259 
L 138.221749 293.53677 
L 138.540506 293.266946 
L 138.699885 293.351891 
L 139.018642 293.29193 
L 139.3374 293.38437 
L 139.974915 293.421845 
L 140.293673 293.509288 
L 140.61243 293.796601 
L 140.931188 293.774116 
L 141.249945 293.929015 
L 141.568703 294.071422 
L 141.88746 294.106399 
L 142.365596 293.839074 
L 142.843733 293.929015 
L 143.16249 293.881546 
L 143.321869 293.966491 
L 143.481248 293.806595 
L 143.800005 293.879047 
L 143.959384 294.003966 
L 144.278142 293.991474 
L 144.915657 294.153869 
L 145.075035 294.358735 
L 145.234414 294.371227 
L 145.553172 294.178852 
L 145.871929 294.176354 
L 146.190687 294.031448 
L 146.509444 294.018956 
L 146.828202 293.84407 
L 146.987581 293.924018 
L 147.306338 293.62921 
L 147.625096 293.7991 
L 147.943853 293.676679 
L 148.103232 293.59923 
L 148.42199 293.861559 
L 148.581368 293.769119 
L 148.900126 294.096406 
L 149.218883 294.101403 
L 149.537641 294.118891 
L 149.69702 294.203836 
L 149.856398 294.086412 
L 150.493914 294.156367 
L 150.812671 294.083914 
L 151.131429 294.123888 
L 151.290807 293.981481 
L 151.450186 294.081416 
L 151.609565 293.946504 
L 151.768944 294.023953 
L 152.24708 293.911526 
L 152.406459 293.986478 
L 152.565837 293.934012 
L 153.840868 294.376224 
L 154.159625 294.263797 
L 154.79714 294.301273 
L 154.956519 294.301273 
L 155.115898 294.076419 
L 155.275276 294.053934 
L 155.753413 294.216328 
L 156.07217 294.2588 
L 156.390928 294.33625 
L 156.869064 294.416198 
L 157.187822 294.596081 
L 157.506579 294.55111 
L 157.665958 294.633556 
L 157.984715 294.431188 
L 159.259746 294.01396 
L 160.853533 294.301273 
L 162.128563 294.148872 
L 162.925457 294.303771 
L 163.084836 294.508638 
L 163.244215 294.461169 
L 163.562972 294.586087 
L 163.88173 294.431188 
L 164.200487 294.53612 
L 164.678624 294.293777 
L 164.838002 294.431188 
L 165.15676 294.373725 
L 165.475517 294.471162 
L 166.113033 294.441182 
L 166.272411 294.548612 
L 166.591169 294.496146 
L 166.750548 294.583589 
L 167.228684 294.483654 
L 167.388063 294.503641 
L 167.547441 294.671032 
L 168.025578 294.518631 
L 168.344335 294.416198 
L 168.663093 294.678527 
L 169.778744 294.915872 
L 169.938123 295.118241 
L 170.097502 295.053283 
L 170.735017 295.310615 
L 170.894396 295.228169 
L 171.053774 295.333101 
L 172.010047 294.803446 
L 172.169426 294.930863 
L 172.647562 294.666035 
L 173.125698 294.730993 
L 173.285077 294.663537 
L 173.603835 294.790954 
L 173.763213 294.633556 
L 173.922592 294.745983 
L 174.081971 295.025801 
L 174.400728 294.713504 
L 174.560107 294.618566 
L 174.719486 294.683524 
L 174.878865 294.938358 
L 175.675758 294.783459 
L 175.994516 295.115742 
L 176.313274 295.193192 
L 176.472652 295.025801 
L 177.110167 295.108247 
L 177.588304 295.078267 
L 177.907061 294.900882 
L 178.06644 295.013309 
L 178.385197 295.025801 
L 178.703955 295.010811 
L 179.182091 294.928364 
L 179.500849 295.108247 
L 179.660228 294.920869 
L 179.819606 294.978332 
L 179.978985 294.848416 
L 180.457121 295.025801 
L 180.6165 295.173205 
L 180.775879 295.033296 
L 181.413394 295.280635 
L 181.572773 295.223172 
L 181.89153 295.313114 
L 182.529045 294.990824 
L 183.485318 294.548612 
L 183.804076 294.706009 
L 184.600969 294.548612 
L 184.760348 294.663537 
L 185.079106 294.586087 
L 185.557242 294.636055 
L 186.035378 294.763472 
L 186.194757 294.868403 
L 186.354136 294.798449 
L 186.513515 294.8734 
L 186.672893 294.798449 
L 187.310408 295.145723 
L 187.469787 295.113244 
L 187.629166 295.230668 
L 187.788545 295.160713 
L 188.266681 295.36558 
L 188.585438 295.090759 
L 188.744817 295.138228 
L 189.063575 295.070772 
L 189.541711 294.953348 
L 189.70109 295.158215 
L 189.860469 295.050785 
L 190.179226 295.178202 
L 190.497984 295.000817 
L 190.816741 294.913374 
L 190.97612 294.85841 
L 191.135499 294.933361 
L 191.454256 294.798449 
L 191.773014 294.583589 
L 191.932393 294.758475 
L 192.091771 294.76597 
L 192.410529 294.910876 
L 193.685559 294.900882 
L 194.004317 294.775964 
L 194.323074 294.775964 
L 194.482453 294.62856 
L 196.235619 295.170707 
L 197.032513 295.038293 
L 197.351271 295.230668 
L 197.670028 295.263146 
L 197.829407 295.330602 
L 198.148164 295.093257 
L 198.466922 295.028299 
L 198.626301 295.188195 
L 198.785679 295.16571 
L 198.945058 294.953348 
L 199.582573 295.018306 
L 200.06071 295.240661 
L 200.379467 294.945853 
L 200.857603 295.07327 
L 201.016982 294.975833 
L 201.33574 294.970837 
L 201.654497 294.738488 
L 202.132634 295.075768 
L 202.451391 294.913374 
L 202.770149 295.158215 
L 203.088906 295.128234 
L 203.248285 295.033296 
L 203.726421 294.511136 
L 204.204558 294.403706 
L 204.523315 294.233817 
L 205.479588 294.788455 
L 205.638966 294.618566 
L 205.957724 294.803446 
L 206.43586 295.033296 
L 206.754618 294.88839 
L 208.189027 295.230668 
L 208.507784 295.243159 
L 209.145299 295.085762 
L 209.623436 294.830928 
L 209.942193 294.910876 
L 210.420329 294.608573 
L 210.579708 294.703511 
L 210.739087 294.586087 
L 211.057844 294.598579 
L 211.854738 294.5661 
L 212.014117 294.678527 
L 212.173496 294.548612 
L 212.332875 294.725996 
L 212.492253 294.648547 
L 212.811011 294.865905 
L 212.97039 294.728494 
L 213.448526 294.920869 
L 213.607905 294.828429 
L 213.767283 295.000817 
L 214.404799 294.790954 
L 215.201692 294.923368 
L 215.361071 294.878397 
L 215.679829 295.110746 
L 215.839207 295.135729 
L 215.998586 295.045788 
L 216.317344 295.080765 
L 216.476722 294.975833 
L 216.954859 295.143224 
L 217.273616 295.128234 
L 217.911131 295.148221 
L 218.07051 295.245658 
L 218.867404 294.99582 
L 219.186161 295.253153 
L 219.34554 295.338098 
L 219.664298 295.190694 
L 220.461192 295.130733 
L 220.779949 294.838423 
L 220.939328 294.785957 
L 221.417464 294.930863 
L 221.576843 294.930863 
L 221.736222 295.068273 
L 222.054979 294.890889 
L 222.214358 294.740986 
L 223.489388 295.100752 
L 223.648767 295.085762 
L 223.967524 295.208182 
L 224.286282 295.173205 
L 224.445661 294.865905 
L 224.605039 294.988325 
L 225.083176 294.943355 
L 225.242555 294.925866 
L 225.561312 295.123237 
L 226.039448 295.040791 
L 226.358206 295.128234 
L 226.517585 295.275638 
L 226.676963 295.238163 
L 226.995721 295.28813 
L 227.1551 295.15072 
L 227.792615 295.193192 
L 228.908266 294.905879 
L 229.067645 295.128234 
L 229.386402 294.898384 
L 230.502054 294.960843 
L 230.661433 294.838423 
L 230.98019 294.908377 
L 231.458326 295.008312 
L 231.777084 295.128234 
L 232.095841 295.298124 
L 233.211493 295.390563 
L 233.370872 295.163211 
L 233.53025 295.170707 
L 233.689629 295.055781 
L 233.849008 295.095755 
L 234.327144 294.953348 
L 234.645902 294.910876 
L 234.80528 294.883394 
L 234.964659 295.018306 
L 235.442796 294.990824 
L 235.602174 295.075768 
L 235.920932 294.943355 
L 236.080311 295.070772 
L 236.399068 294.973335 
L 237.195962 295.120739 
L 237.355341 295.280635 
L 239.108507 295.075768 
L 239.586643 295.068273 
L 239.746022 294.878397 
L 240.06478 294.803446 
L 240.224159 294.808442 
L 240.383537 294.638553 
L 240.542916 294.653543 
L 241.021052 294.42869 
L 241.33981 294.58109 
L 241.817946 294.678527 
L 241.977325 294.740986 
L 242.296082 294.703511 
L 242.61484 294.691019 
L 242.774219 294.641051 
L 243.092976 294.785957 
L 243.411734 294.730993 
L 244.049249 294.698514 
L 244.368006 294.868403 
L 245.005521 294.948351 
L 245.1649 294.985827 
L 245.324279 294.903381 
L 246.121173 295.238163 
L 246.599309 295.290628 
L 248.193097 295.003316 
L 248.352476 295.208182 
L 248.989991 294.985827 
L 249.149369 295.015807 
L 249.308748 294.845918 
L 249.627506 294.868403 
L 249.786884 295.025801 
L 249.946263 294.875899 
L 250.265021 295.175703 
L 250.902536 294.898384 
L 251.061915 295.04329 
L 251.69943 294.895885 
L 251.858808 294.763472 
L 252.018187 295.025801 
L 252.177566 295.010811 
L 252.496323 295.228169 
L 252.655702 295.075768 
L 255.365141 295.398059 
L 256.480793 295.090759 
L 256.79955 294.730993 
L 257.437065 295.010811 
L 257.755823 294.868403 
L 258.07458 294.860908 
L 258.233959 295.138228 
L 260.305883 295.28813 
L 260.465262 295.348091 
L 260.624641 295.245658 
L 260.784019 295.358085 
L 261.102777 295.313114 
L 261.262156 295.445528 
L 261.899671 295.178202 
L 262.377807 295.123237 
L 262.537186 295.243159 
L 262.696564 295.168208 
L 262.855943 294.945853 
L 263.33408 295.138228 
L 263.652837 294.900882 
L 263.971595 295.013309 
L 264.130973 294.913374 
L 264.449731 295.100752 
L 264.927867 295.080765 
L 265.246625 295.243159 
L 265.88414 295.370576 
L 266.043519 295.355586 
L 266.202897 295.160713 
L 266.521655 295.068273 
L 266.999791 294.935859 
L 267.15917 294.925866 
L 267.318549 294.730993 
L 267.637306 294.805944 
L 268.115442 295.135729 
L 269.071715 294.99582 
L 269.549851 295.093257 
L 269.70923 294.955846 
L 270.187366 295.030798 
L 271.143639 294.838423 
L 271.303018 294.975833 
L 271.621775 294.930863 
L 272.25929 295.178202 
L 274.012457 294.653543 
L 274.331214 294.748481 
L 274.490593 294.686022 
L 275.446866 295.130733 
L 277.040653 294.733491 
L 277.837547 294.778462 
L 278.156305 294.698514 
L 278.475062 294.521129 
L 278.953199 294.65854 
L 279.271956 294.611071 
L 279.431335 294.75098 
L 279.590714 294.701012 
L 279.909471 294.903381 
L 280.228229 295.078267 
L 280.387607 295.125736 
L 280.546986 294.983329 
L 281.184501 295.055781 
L 281.662638 294.918371 
L 282.459531 294.985827 
L 282.778289 294.855912 
L 282.937668 294.785957 
L 283.097046 294.910876 
L 283.256425 294.850915 
L 283.734562 294.985827 
L 284.212698 294.920869 
L 284.531455 295.19569 
L 284.850213 295.105749 
L 285.009592 295.04329 
L 285.487728 295.140726 
L 285.965864 295.225671 
L 286.125243 295.015807 
L 286.444001 295.070772 
L 286.762758 295.040791 
L 287.081516 294.666035 
L 287.400273 294.653543 
L 287.559652 294.558605 
L 287.719031 294.716003 
L 287.878409 294.668534 
L 288.037788 294.758475 
L 288.356546 294.716003 
L 288.675303 295.040791 
L 288.994061 294.985827 
L 289.312818 295.155716 
L 289.631576 295.045788 
L 289.950333 295.135729 
L 290.109712 294.978332 
L 290.747227 295.070772 
L 290.906606 294.948351 
L 291.225364 294.910876 
L 292.341015 294.853413 
L 292.500394 294.968338 
L 292.819151 294.868403 
L 292.97853 294.85841 
L 293.297287 295.113244 
L 294.25356 294.903381 
L 296.006726 295.025801 
L 296.484863 294.8734 
L 296.644242 294.933361 
L 296.962999 294.666035 
L 297.919272 294.923368 
L 298.07865 294.78096 
L 298.238029 294.810941 
L 298.397408 294.993322 
L 298.556787 294.998319 
L 298.716165 295.140726 
L 300.309953 294.636055 
L 300.628711 294.511136 
L 301.903741 294.818436 
L 302.541256 294.940856 
L 302.700635 294.828429 
L 303.178771 295.048286 
L 303.497528 294.928364 
L 304.294422 295.185697 
L 304.772559 294.983329 
L 305.091316 295.100752 
L 305.410074 295.250655 
L 305.88821 294.938358 
L 307.481998 295.15072 
L 307.800755 295.28813 
L 308.278891 295.085762 
L 308.43827 294.935859 
L 308.597649 295.033296 
L 309.075785 294.883394 
L 309.235164 294.76597 
L 309.7133 294.853413 
L 309.872679 294.818436 
L 310.032058 294.900882 
L 310.350815 294.845918 
L 310.510194 295.048286 
L 311.307088 295.038293 
L 311.785224 295.238163 
L 312.422739 294.985827 
L 312.741497 294.998319 
L 313.060254 294.84342 
L 313.219633 294.878397 
L 313.379012 294.763472 
L 314.016527 294.958345 
L 314.335285 294.830928 
L 314.9728 294.805944 
L 315.291557 294.768468 
L 315.610315 294.853413 
L 316.24783 294.905879 
L 316.725966 294.863407 
L 316.885345 294.998319 
L 317.044724 294.800947 
L 319.116647 295.248156 
L 319.435405 294.85841 
L 319.594784 295.025801 
L 320.07292 294.755977 
L 320.232299 294.803446 
L 320.710435 294.386217 
L 321.029193 294.723498 
L 321.188571 294.65854 
L 321.34795 294.798449 
L 321.985465 294.518631 
L 322.144844 294.641051 
L 322.62298 294.626061 
L 322.941738 294.698514 
L 323.579253 295.008312 
L 323.738632 294.913374 
L 324.376147 294.973335 
L 324.535526 294.905879 
L 324.694904 295.025801 
L 325.013662 295.028299 
L 325.332419 295.053283 
L 325.491798 295.120739 
L 325.969934 294.920869 
L 326.129313 295.020804 
L 326.288692 294.868403 
L 326.766828 295.04329 
L 327.244965 295.225671 
L 327.563722 295.405554 
L 327.723101 295.290628 
L 327.88248 295.400557 
L 328.360616 295.188195 
L 328.519995 295.098254 
L 328.838752 295.198189 
L 329.15751 295.310615 
L 329.316888 295.373075 
L 329.476267 295.215677 
L 330.113782 295.388065 
L 330.910676 294.868403 
L 331.070055 294.893387 
L 331.388812 294.676029 
L 331.70757 294.720999 
L 331.866949 294.85841 
L 332.185706 294.833426 
L 332.823221 295.028299 
L 333.141979 295.253153 
L 333.620115 295.013309 
L 333.779494 295.023303 
L 333.938873 294.878397 
L 334.25763 295.025801 
L 335.054524 294.676029 
L 335.213903 294.716003 
L 335.373282 294.641051 
L 335.53266 294.818436 
L 335.851418 294.718501 
L 336.488933 294.893387 
L 336.80769 295.010811 
L 337.126448 295.020804 
L 337.445206 294.930863 
L 337.604584 295.033296 
L 337.763963 294.998319 
L 337.923342 295.083264 
L 338.401478 294.915872 
L 338.560857 295.07327 
L 338.879614 295.068273 
L 339.357751 295.155716 
L 339.517129 295.120739 
L 339.835887 295.275638 
L 339.995266 295.283133 
L 340.154645 295.078267 
L 340.473402 295.095755 
L 340.79216 294.943355 
L 342.226568 295.135729 
L 342.545326 295.285632 
L 343.023462 294.95085 
L 343.182841 295.090759 
L 343.501599 294.805944 
L 343.820356 294.913374 
L 344.776629 294.603576 
L 344.936007 294.745983 
L 345.573523 294.703511 
L 345.732901 294.865905 
L 345.89228 294.67353 
L 346.370416 295.033296 
L 347.16731 295.005814 
L 347.326689 294.78096 
L 347.486068 294.928364 
L 348.123583 294.748481 
L 348.282962 294.553608 
L 348.601719 294.730993 
L 348.920477 294.790954 
L 349.079855 294.920869 
L 349.239234 294.825931 
L 349.557992 294.943355 
L 349.71737 294.848416 
L 349.876749 295.04329 
L 350.195507 294.960843 
L 350.992401 295.285632 
L 351.151779 295.235664 
L 351.470537 295.353088 
L 351.629916 295.343094 
L 351.789294 295.200687 
L 352.108052 295.250655 
L 352.267431 295.070772 
L 352.745567 295.05828 
L 352.904946 295.203185 
L 353.70184 295.115742 
L 354.020597 295.313114 
L 354.339355 295.248156 
L 354.498733 295.04329 
L 354.817491 294.998319 
L 355.614385 294.55111 
L 355.773764 294.636055 
L 355.933142 294.571097 
L 356.411279 294.868403 
L 356.730036 294.95085 
L 356.889415 294.905879 
L 357.208172 295.200687 
L 357.367551 295.068273 
L 357.52693 295.233166 
L 357.686309 295.213179 
L 357.845688 295.038293 
L 358.483203 294.998319 
L 358.642581 294.905879 
L 359.439475 295.018306 
L 359.758233 294.820934 
L 359.917611 294.788455 
L 360.07699 294.960843 
L 360.395748 294.930863 
L 360.555127 295.068273 
L 360.873884 294.96584 
L 361.192642 295.085762 
L 361.989535 295.318111 
L 362.308293 295.125736 
L 362.467672 295.28813 
L 362.786429 295.210681 
L 363.105187 295.185697 
L 363.583323 294.893387 
L 363.902081 294.935859 
L 364.061459 294.815938 
L 364.380217 294.773465 
L 364.698974 294.671032 
L 364.858353 294.723498 
L 365.017732 294.621064 
L 365.655247 294.706009 
L 365.814626 294.985827 
L 366.930277 295.15072 
L 367.249035 295.10325 
L 367.408413 294.701012 
L 368.045929 294.64355 
L 369.320959 295.153218 
L 369.639716 295.213179 
L 370.43661 294.983329 
L 370.755368 295.293127 
L 371.074125 295.045788 
L 371.233504 295.143224 
L 371.71164 295.013309 
L 372.189776 294.860908 
L 372.349155 294.661038 
L 372.667913 294.880895 
L 372.827291 294.8734 
L 372.98667 295.050785 
L 374.102322 295.050785 
L 374.899215 294.820934 
L 375.696109 294.830928 
L 375.855488 294.95085 
L 376.174246 294.835925 
L 376.652382 294.893387 
L 376.971139 295.028299 
L 377.130518 294.898384 
L 377.927412 295.105749 
L 378.086791 294.960843 
L 378.24617 294.99582 
L 378.564927 294.85841 
L 378.724306 295.000817 
L 379.361821 294.638553 
L 379.680578 294.920869 
L 379.839957 294.813439 
L 380.158715 294.968338 
L 380.318093 294.758475 
L 380.79623 294.930863 
L 381.433745 294.85841 
L 381.752502 294.68852 
L 382.07126 294.900882 
L 382.708775 294.840921 
L 383.027532 294.696016 
L 383.824426 294.698514 
L 384.143184 294.596081 
L 384.461941 294.800947 
L 384.780699 295.185697 
L 385.418214 295.175703 
L 385.89635 295.185697 
L 386.533865 294.865905 
L 387.17138 295.198189 
L 387.490138 295.1807 
L 387.649517 295.423042 
L 387.808895 295.228169 
L 388.127653 295.313114 
L 388.605789 295.093257 
L 388.924547 295.160713 
L 389.243304 294.860908 
L 389.880819 295.063277 
L 390.199577 294.840921 
L 390.358956 294.808442 
L 390.677713 295.030798 
L 391.15585 294.903381 
L 391.315228 294.96584 
L 391.474607 294.633556 
L 391.793365 294.745983 
L 391.952743 294.646048 
L 392.112122 294.693517 
L 392.271501 294.930863 
L 392.43088 294.890889 
L 392.590258 295.113244 
L 392.909016 294.818436 
L 393.227773 294.68852 
L 393.387152 294.611071 
L 393.546531 294.785957 
L 393.865289 294.638553 
L 394.024667 294.788455 
L 394.502804 294.748481 
L 394.821561 295.110746 
L 394.98094 295.203185 
L 395.459076 294.633556 
L 396.096591 294.818436 
L 396.415349 294.78096 
L 396.734106 295.07327 
L 396.893485 294.938358 
L 397.212243 295.10325 
L 397.531 294.860908 
L 397.849758 294.775964 
L 398.327894 294.233817 
L 398.487273 294.35124 
L 398.487273 294.35124 
" style="fill:none;stroke:#1f77b4;stroke-linecap:square;stroke-width:1.5;"/>
   </g>
   <g id="line2d_17">
    <path clip-path="url(#p3ab31ba214)" d="M 107.939783 53.568 
" style="fill:none;stroke:#ff7f0e;stroke-linecap:square;stroke-width:1.5;"/>
    <defs>
     <path d="M -1.5 -2.598076 
L -3 -0 
L -1.5 2.598076 
L 1.5 2.598076 
L 3 0 
L 1.5 -2.598076 
z
" id="m8e3c9dc252" style="stroke:#ff7f0e;stroke-linejoin:miter;"/>
    </defs>
    <g clip-path="url(#p3ab31ba214)">
     <use style="fill:#ff7f0e;stroke:#ff7f0e;stroke-linejoin:miter;" x="107.939783" xlink:href="#m8e3c9dc252" y="53.568"/>
    </g>
   </g>
   <g id="patch_3">
    <path d="M 57.6 307.584 
L 57.6 41.472 
" style="fill:none;stroke:#000000;stroke-linecap:square;stroke-linejoin:miter;stroke-width:0.8;"/>
   </g>
   <g id="patch_4">
    <path d="M 414.72 307.584 
L 414.72 41.472 
" style="fill:none;stroke:#000000;stroke-linecap:square;stroke-linejoin:miter;stroke-width:0.8;"/>
   </g>
   <g id="patch_5">
    <path d="M 57.6 307.584 
L 414.72 307.584 
" style="fill:none;stroke:#000000;stroke-linecap:square;stroke-linejoin:miter;stroke-width:0.8;"/>
   </g>
   <g id="patch_6">
    <path d="M 57.6 41.472 
L 414.72 41.472 
" style="fill:none;stroke:#000000;stroke-linecap:square;stroke-linejoin:miter;stroke-width:0.8;"/>
   </g>
   <g id="text_18">
    <!-- LED spectrum -->
    <g transform="translate(194.1075 35.472)scale(0.12 -0.12)">
     <defs>
      <path d="M 628 4666 
L 1259 4666 
L 1259 531 
L 3531 531 
L 3531 0 
L 628 0 
L 628 4666 
z
" id="DejaVuSans-4c" transform="scale(0.015625)"/>
      <path d="M 628 4666 
L 3578 4666 
L 3578 4134 
L 1259 4134 
L 1259 2753 
L 3481 2753 
L 3481 2222 
L 1259 2222 
L 1259 531 
L 3634 531 
L 3634 0 
L 628 0 
L 628 4666 
z
" id="DejaVuSans-45" transform="scale(0.015625)"/>
      <path d="M 1259 4147 
L 1259 519 
L 2022 519 
Q 2988 519 3436 956 
Q 3884 1394 3884 2338 
Q 3884 3275 3436 3711 
Q 2988 4147 2022 4147 
L 1259 4147 
z
M 628 4666 
L 1925 4666 
Q 3281 4666 3915 4102 
Q 4550 3538 4550 2338 
Q 4550 1131 3912 565 
Q 3275 0 1925 0 
L 628 0 
L 628 4666 
z
" id="DejaVuSans-44" transform="scale(0.015625)"/>
      <path d="M 1159 525 
L 1159 -1331 
L 581 -1331 
L 581 3500 
L 1159 3500 
L 1159 2969 
Q 1341 3281 1617 3432 
Q 1894 3584 2278 3584 
Q 2916 3584 3314 3078 
Q 3713 2572 3713 1747 
Q 3713 922 3314 415 
Q 2916 -91 2278 -91 
Q 1894 -91 1617 61 
Q 1341 213 1159 525 
z
M 3116 1747 
Q 3116 2381 2855 2742 
Q 2594 3103 2138 3103 
Q 1681 3103 1420 2742 
Q 1159 2381 1159 1747 
Q 1159 1113 1420 752 
Q 1681 391 2138 391 
Q 2594 391 2855 752 
Q 3116 1113 3116 1747 
z
" id="DejaVuSans-70" transform="scale(0.015625)"/>
      <path d="M 3122 3366 
L 3122 2828 
Q 2878 2963 2633 3030 
Q 2388 3097 2138 3097 
Q 1578 3097 1268 2742 
Q 959 2388 959 1747 
Q 959 1106 1268 751 
Q 1578 397 2138 397 
Q 2388 397 2633 464 
Q 2878 531 3122 666 
L 3122 134 
Q 2881 22 2623 -34 
Q 2366 -91 2075 -91 
Q 1284 -91 818 406 
Q 353 903 353 1747 
Q 353 2603 823 3093 
Q 1294 3584 2113 3584 
Q 2378 3584 2631 3529 
Q 2884 3475 3122 3366 
z
" id="DejaVuSans-63" transform="scale(0.015625)"/>
      <path d="M 2631 2963 
Q 2534 3019 2420 3045 
Q 2306 3072 2169 3072 
Q 1681 3072 1420 2755 
Q 1159 2438 1159 1844 
L 1159 0 
L 581 0 
L 581 3500 
L 1159 3500 
L 1159 2956 
Q 1341 3275 1631 3429 
Q 1922 3584 2338 3584 
Q 2397 3584 2469 3576 
Q 2541 3569 2628 3553 
L 2631 2963 
z
" id="DejaVuSans-72" transform="scale(0.015625)"/>
     </defs>
     <use xlink:href="#DejaVuSans-4c"/>
     <use x="55.712891" xlink:href="#DejaVuSans-45"/>
     <use x="118.896484" xlink:href="#DejaVuSans-44"/>
     <use x="195.898438" xlink:href="#DejaVuSans-20"/>
     <use x="227.685547" xlink:href="#DejaVuSans-73"/>
     <use x="279.785156" xlink:href="#DejaVuSans-70"/>
     <use x="343.261719" xlink:href="#DejaVuSans-65"/>
     <use x="404.785156" xlink:href="#DejaVuSans-63"/>
     <use x="459.765625" xlink:href="#DejaVuSans-74"/>
     <use x="498.974609" xlink:href="#DejaVuSans-72"/>
     <use x="540.087891" xlink:href="#DejaVuSans-75"/>
     <use x="603.466797" xlink:href="#DejaVuSans-6d"/>
    </g>
   </g>
  </g>
 </g>
 <defs>
  <clipPath id="p3ab31ba214">
   <rect height="266.112" width="357.12" x="57.6" y="41.472"/>
  </clipPath>
 </defs>
</svg>
