<?xml version="1.0" encoding="utf-8" standalone="no"?>
<!DOCTYPE svg PUBLIC "-//W3C//DTD SVG 1.1//EN"
  "http://www.w3.org/Graphics/SVG/1.1/DTD/svg11.dtd">
<svg height="345.6pt" version="1.1" viewBox="0 0 460.8 345.6" width="460.8pt" xmlns="http://www.w3.org/2000/svg" xmlns:xlink="http://www.w3.org/1999/xlink">
 <metadata>
  <rdf:RDF xmlns:cc="http://creativecommons.org/ns#" xmlns:dc="http://purl.org/dc/elements/1.1/" xmlns:rdf="http://www.w3.org/1999/02/22-rdf-syntax-ns#">
   <cc:Work>
    <dc:type rdf:resource="http://purl.org/dc/dcmitype/StillImage"/>
    <dc:date>2022-04-22T17:15:19.795731</dc:date>
    <dc:format>image/svg+xml</dc:format>
    <dc:creator>
     <cc:Agent>
      <dc:title>Matplotlib v3.4.1, https://matplotlib.org/</dc:title>
     </cc:Agent>
    </dc:creator>
   </cc:Work>
  </rdf:RDF>
 </metadata>
 <defs>
  <style type="text/css">*{stroke-linecap:butt;stroke-linejoin:round;}</style>
 </defs>
 <g id="figure_1">
  <g id="patch_1">
   <path d="M 0 345.6 
L 460.8 345.6 
L 460.8 0 
L 0 0 
z
" style="fill:#ffffff;"/>
  </g>
  <g id="axes_1">
   <g id="patch_2">
    <path d="M 57.6 307.584 
L 414.72 307.584 
L 414.72 41.472 
L 57.6 41.472 
z
" style="fill:#ffffff;"/>
   </g>
   <g id="matplotlib.axis_1">
    <g id="xtick_1">
     <g id="line2d_1">
      <defs>
       <path d="M 0 0 
L 0 3.5 
" id="m69a79ebe24" style="stroke:#000000;stroke-width:0.8;"/>
      </defs>
      <g>
       <use style="stroke:#000000;stroke-width:0.8;" x="102.929605" xlink:href="#m69a79ebe24" y="307.584"/>
      </g>
     </g>
     <g id="text_1">
      <!-- 400 -->
      <g transform="translate(93.385855 322.182437)scale(0.1 -0.1)">
       <defs>
        <path d="M 2419 4116 
L 825 1625 
L 2419 1625 
L 2419 4116 
z
M 2253 4666 
L 3047 4666 
L 3047 1625 
L 3713 1625 
L 3713 1100 
L 3047 1100 
L 3047 0 
L 2419 0 
L 2419 1100 
L 313 1100 
L 313 1709 
L 2253 4666 
z
" id="DejaVuSans-34" transform="scale(0.015625)"/>
        <path d="M 2034 4250 
Q 1547 4250 1301 3770 
Q 1056 3291 1056 2328 
Q 1056 1369 1301 889 
Q 1547 409 2034 409 
Q 2525 409 2770 889 
Q 3016 1369 3016 2328 
Q 3016 3291 2770 3770 
Q 2525 4250 2034 4250 
z
M 2034 4750 
Q 2819 4750 3233 4129 
Q 3647 3509 3647 2328 
Q 3647 1150 3233 529 
Q 2819 -91 2034 -91 
Q 1250 -91 836 529 
Q 422 1150 422 2328 
Q 422 3509 836 4129 
Q 1250 4750 2034 4750 
z
" id="DejaVuSans-30" transform="scale(0.015625)"/>
       </defs>
       <use xlink:href="#DejaVuSans-34"/>
       <use x="63.623047" xlink:href="#DejaVuSans-30"/>
       <use x="127.246094" xlink:href="#DejaVuSans-30"/>
      </g>
     </g>
    </g>
    <g id="xtick_2">
     <g id="line2d_2">
      <g>
       <use style="stroke:#000000;stroke-width:0.8;" x="160.931952" xlink:href="#m69a79ebe24" y="307.584"/>
      </g>
     </g>
     <g id="text_2">
      <!-- 600 -->
      <g transform="translate(151.388202 322.182437)scale(0.1 -0.1)">
       <defs>
        <path d="M 2113 2584 
Q 1688 2584 1439 2293 
Q 1191 2003 1191 1497 
Q 1191 994 1439 701 
Q 1688 409 2113 409 
Q 2538 409 2786 701 
Q 3034 994 3034 1497 
Q 3034 2003 2786 2293 
Q 2538 2584 2113 2584 
z
M 3366 4563 
L 3366 3988 
Q 3128 4100 2886 4159 
Q 2644 4219 2406 4219 
Q 1781 4219 1451 3797 
Q 1122 3375 1075 2522 
Q 1259 2794 1537 2939 
Q 1816 3084 2150 3084 
Q 2853 3084 3261 2657 
Q 3669 2231 3669 1497 
Q 3669 778 3244 343 
Q 2819 -91 2113 -91 
Q 1303 -91 875 529 
Q 447 1150 447 2328 
Q 447 3434 972 4092 
Q 1497 4750 2381 4750 
Q 2619 4750 2861 4703 
Q 3103 4656 3366 4563 
z
" id="DejaVuSans-36" transform="scale(0.015625)"/>
       </defs>
       <use xlink:href="#DejaVuSans-36"/>
       <use x="63.623047" xlink:href="#DejaVuSans-30"/>
       <use x="127.246094" xlink:href="#DejaVuSans-30"/>
      </g>
     </g>
    </g>
    <g id="xtick_3">
     <g id="line2d_3">
      <g>
       <use style="stroke:#000000;stroke-width:0.8;" x="218.9343" xlink:href="#m69a79ebe24" y="307.584"/>
      </g>
     </g>
     <g id="text_3">
      <!-- 800 -->
      <g transform="translate(209.39055 322.182437)scale(0.1 -0.1)">
       <defs>
        <path d="M 2034 2216 
Q 1584 2216 1326 1975 
Q 1069 1734 1069 1313 
Q 1069 891 1326 650 
Q 1584 409 2034 409 
Q 2484 409 2743 651 
Q 3003 894 3003 1313 
Q 3003 1734 2745 1975 
Q 2488 2216 2034 2216 
z
M 1403 2484 
Q 997 2584 770 2862 
Q 544 3141 544 3541 
Q 544 4100 942 4425 
Q 1341 4750 2034 4750 
Q 2731 4750 3128 4425 
Q 3525 4100 3525 3541 
Q 3525 3141 3298 2862 
Q 3072 2584 2669 2484 
Q 3125 2378 3379 2068 
Q 3634 1759 3634 1313 
Q 3634 634 3220 271 
Q 2806 -91 2034 -91 
Q 1263 -91 848 271 
Q 434 634 434 1313 
Q 434 1759 690 2068 
Q 947 2378 1403 2484 
z
M 1172 3481 
Q 1172 3119 1398 2916 
Q 1625 2713 2034 2713 
Q 2441 2713 2670 2916 
Q 2900 3119 2900 3481 
Q 2900 3844 2670 4047 
Q 2441 4250 2034 4250 
Q 1625 4250 1398 4047 
Q 1172 3844 1172 3481 
z
" id="DejaVuSans-38" transform="scale(0.015625)"/>
       </defs>
       <use xlink:href="#DejaVuSans-38"/>
       <use x="63.623047" xlink:href="#DejaVuSans-30"/>
       <use x="127.246094" xlink:href="#DejaVuSans-30"/>
      </g>
     </g>
    </g>
    <g id="xtick_4">
     <g id="line2d_4">
      <g>
       <use style="stroke:#000000;stroke-width:0.8;" x="276.936647" xlink:href="#m69a79ebe24" y="307.584"/>
      </g>
     </g>
     <g id="text_4">
      <!-- 1000 -->
      <g transform="translate(264.211647 322.182437)scale(0.1 -0.1)">
       <defs>
        <path d="M 794 531 
L 1825 531 
L 1825 4091 
L 703 3866 
L 703 4441 
L 1819 4666 
L 2450 4666 
L 2450 531 
L 3481 531 
L 3481 0 
L 794 0 
L 794 531 
z
" id="DejaVuSans-31" transform="scale(0.015625)"/>
       </defs>
       <use xlink:href="#DejaVuSans-31"/>
       <use x="63.623047" xlink:href="#DejaVuSans-30"/>
       <use x="127.246094" xlink:href="#DejaVuSans-30"/>
       <use x="190.869141" xlink:href="#DejaVuSans-30"/>
      </g>
     </g>
    </g>
    <g id="xtick_5">
     <g id="line2d_5">
      <g>
       <use style="stroke:#000000;stroke-width:0.8;" x="334.938995" xlink:href="#m69a79ebe24" y="307.584"/>
      </g>
     </g>
     <g id="text_5">
      <!-- 1200 -->
      <g transform="translate(322.213995 322.182437)scale(0.1 -0.1)">
       <defs>
        <path d="M 1228 531 
L 3431 531 
L 3431 0 
L 469 0 
L 469 531 
Q 828 903 1448 1529 
Q 2069 2156 2228 2338 
Q 2531 2678 2651 2914 
Q 2772 3150 2772 3378 
Q 2772 3750 2511 3984 
Q 2250 4219 1831 4219 
Q 1534 4219 1204 4116 
Q 875 4013 500 3803 
L 500 4441 
Q 881 4594 1212 4672 
Q 1544 4750 1819 4750 
Q 2544 4750 2975 4387 
Q 3406 4025 3406 3419 
Q 3406 3131 3298 2873 
Q 3191 2616 2906 2266 
Q 2828 2175 2409 1742 
Q 1991 1309 1228 531 
z
" id="DejaVuSans-32" transform="scale(0.015625)"/>
       </defs>
       <use xlink:href="#DejaVuSans-31"/>
       <use x="63.623047" xlink:href="#DejaVuSans-32"/>
       <use x="127.246094" xlink:href="#DejaVuSans-30"/>
       <use x="190.869141" xlink:href="#DejaVuSans-30"/>
      </g>
     </g>
    </g>
    <g id="xtick_6">
     <g id="line2d_6">
      <g>
       <use style="stroke:#000000;stroke-width:0.8;" x="392.941342" xlink:href="#m69a79ebe24" y="307.584"/>
      </g>
     </g>
     <g id="text_6">
      <!-- 1400 -->
      <g transform="translate(380.216342 322.182437)scale(0.1 -0.1)">
       <use xlink:href="#DejaVuSans-31"/>
       <use x="63.623047" xlink:href="#DejaVuSans-34"/>
       <use x="127.246094" xlink:href="#DejaVuSans-30"/>
       <use x="190.869141" xlink:href="#DejaVuSans-30"/>
      </g>
     </g>
    </g>
    <g id="text_7">
     <!-- Wavelength [nm] -->
     <g transform="translate(192.967812 335.860562)scale(0.1 -0.1)">
      <defs>
       <path d="M 213 4666 
L 850 4666 
L 1831 722 
L 2809 4666 
L 3519 4666 
L 4500 722 
L 5478 4666 
L 6119 4666 
L 4947 0 
L 4153 0 
L 3169 4050 
L 2175 0 
L 1381 0 
L 213 4666 
z
" id="DejaVuSans-57" transform="scale(0.015625)"/>
       <path d="M 2194 1759 
Q 1497 1759 1228 1600 
Q 959 1441 959 1056 
Q 959 750 1161 570 
Q 1363 391 1709 391 
Q 2188 391 2477 730 
Q 2766 1069 2766 1631 
L 2766 1759 
L 2194 1759 
z
M 3341 1997 
L 3341 0 
L 2766 0 
L 2766 531 
Q 2569 213 2275 61 
Q 1981 -91 1556 -91 
Q 1019 -91 701 211 
Q 384 513 384 1019 
Q 384 1609 779 1909 
Q 1175 2209 1959 2209 
L 2766 2209 
L 2766 2266 
Q 2766 2663 2505 2880 
Q 2244 3097 1772 3097 
Q 1472 3097 1187 3025 
Q 903 2953 641 2809 
L 641 3341 
Q 956 3463 1253 3523 
Q 1550 3584 1831 3584 
Q 2591 3584 2966 3190 
Q 3341 2797 3341 1997 
z
" id="DejaVuSans-61" transform="scale(0.015625)"/>
       <path d="M 191 3500 
L 800 3500 
L 1894 563 
L 2988 3500 
L 3597 3500 
L 2284 0 
L 1503 0 
L 191 3500 
z
" id="DejaVuSans-76" transform="scale(0.015625)"/>
       <path d="M 3597 1894 
L 3597 1613 
L 953 1613 
Q 991 1019 1311 708 
Q 1631 397 2203 397 
Q 2534 397 2845 478 
Q 3156 559 3463 722 
L 3463 178 
Q 3153 47 2828 -22 
Q 2503 -91 2169 -91 
Q 1331 -91 842 396 
Q 353 884 353 1716 
Q 353 2575 817 3079 
Q 1281 3584 2069 3584 
Q 2775 3584 3186 3129 
Q 3597 2675 3597 1894 
z
M 3022 2063 
Q 3016 2534 2758 2815 
Q 2500 3097 2075 3097 
Q 1594 3097 1305 2825 
Q 1016 2553 972 2059 
L 3022 2063 
z
" id="DejaVuSans-65" transform="scale(0.015625)"/>
       <path d="M 603 4863 
L 1178 4863 
L 1178 0 
L 603 0 
L 603 4863 
z
" id="DejaVuSans-6c" transform="scale(0.015625)"/>
       <path d="M 3513 2113 
L 3513 0 
L 2938 0 
L 2938 2094 
Q 2938 2591 2744 2837 
Q 2550 3084 2163 3084 
Q 1697 3084 1428 2787 
Q 1159 2491 1159 1978 
L 1159 0 
L 581 0 
L 581 3500 
L 1159 3500 
L 1159 2956 
Q 1366 3272 1645 3428 
Q 1925 3584 2291 3584 
Q 2894 3584 3203 3211 
Q 3513 2838 3513 2113 
z
" id="DejaVuSans-6e" transform="scale(0.015625)"/>
       <path d="M 2906 1791 
Q 2906 2416 2648 2759 
Q 2391 3103 1925 3103 
Q 1463 3103 1205 2759 
Q 947 2416 947 1791 
Q 947 1169 1205 825 
Q 1463 481 1925 481 
Q 2391 481 2648 825 
Q 2906 1169 2906 1791 
z
M 3481 434 
Q 3481 -459 3084 -895 
Q 2688 -1331 1869 -1331 
Q 1566 -1331 1297 -1286 
Q 1028 -1241 775 -1147 
L 775 -588 
Q 1028 -725 1275 -790 
Q 1522 -856 1778 -856 
Q 2344 -856 2625 -561 
Q 2906 -266 2906 331 
L 2906 616 
Q 2728 306 2450 153 
Q 2172 0 1784 0 
Q 1141 0 747 490 
Q 353 981 353 1791 
Q 353 2603 747 3093 
Q 1141 3584 1784 3584 
Q 2172 3584 2450 3431 
Q 2728 3278 2906 2969 
L 2906 3500 
L 3481 3500 
L 3481 434 
z
" id="DejaVuSans-67" transform="scale(0.015625)"/>
       <path d="M 1172 4494 
L 1172 3500 
L 2356 3500 
L 2356 3053 
L 1172 3053 
L 1172 1153 
Q 1172 725 1289 603 
Q 1406 481 1766 481 
L 2356 481 
L 2356 0 
L 1766 0 
Q 1100 0 847 248 
Q 594 497 594 1153 
L 594 3053 
L 172 3053 
L 172 3500 
L 594 3500 
L 594 4494 
L 1172 4494 
z
" id="DejaVuSans-74" transform="scale(0.015625)"/>
       <path d="M 3513 2113 
L 3513 0 
L 2938 0 
L 2938 2094 
Q 2938 2591 2744 2837 
Q 2550 3084 2163 3084 
Q 1697 3084 1428 2787 
Q 1159 2491 1159 1978 
L 1159 0 
L 581 0 
L 581 4863 
L 1159 4863 
L 1159 2956 
Q 1366 3272 1645 3428 
Q 1925 3584 2291 3584 
Q 2894 3584 3203 3211 
Q 3513 2838 3513 2113 
z
" id="DejaVuSans-68" transform="scale(0.015625)"/>
       <path id="DejaVuSans-20" transform="scale(0.015625)"/>
       <path d="M 550 4863 
L 1875 4863 
L 1875 4416 
L 1125 4416 
L 1125 -397 
L 1875 -397 
L 1875 -844 
L 550 -844 
L 550 4863 
z
" id="DejaVuSans-5b" transform="scale(0.015625)"/>
       <path d="M 3328 2828 
Q 3544 3216 3844 3400 
Q 4144 3584 4550 3584 
Q 5097 3584 5394 3201 
Q 5691 2819 5691 2113 
L 5691 0 
L 5113 0 
L 5113 2094 
Q 5113 2597 4934 2840 
Q 4756 3084 4391 3084 
Q 3944 3084 3684 2787 
Q 3425 2491 3425 1978 
L 3425 0 
L 2847 0 
L 2847 2094 
Q 2847 2600 2669 2842 
Q 2491 3084 2119 3084 
Q 1678 3084 1418 2786 
Q 1159 2488 1159 1978 
L 1159 0 
L 581 0 
L 581 3500 
L 1159 3500 
L 1159 2956 
Q 1356 3278 1631 3431 
Q 1906 3584 2284 3584 
Q 2666 3584 2933 3390 
Q 3200 3197 3328 2828 
z
" id="DejaVuSans-6d" transform="scale(0.015625)"/>
       <path d="M 1947 4863 
L 1947 -844 
L 622 -844 
L 622 -397 
L 1369 -397 
L 1369 4416 
L 622 4416 
L 622 4863 
L 1947 4863 
z
" id="DejaVuSans-5d" transform="scale(0.015625)"/>
      </defs>
      <use xlink:href="#DejaVuSans-57"/>
      <use x="92.501953" xlink:href="#DejaVuSans-61"/>
      <use x="153.78125" xlink:href="#DejaVuSans-76"/>
      <use x="212.960938" xlink:href="#DejaVuSans-65"/>
      <use x="274.484375" xlink:href="#DejaVuSans-6c"/>
      <use x="302.267578" xlink:href="#DejaVuSans-65"/>
      <use x="363.791016" xlink:href="#DejaVuSans-6e"/>
      <use x="427.169922" xlink:href="#DejaVuSans-67"/>
      <use x="490.646484" xlink:href="#DejaVuSans-74"/>
      <use x="529.855469" xlink:href="#DejaVuSans-68"/>
      <use x="593.234375" xlink:href="#DejaVuSans-20"/>
      <use x="625.021484" xlink:href="#DejaVuSans-5b"/>
      <use x="664.035156" xlink:href="#DejaVuSans-6e"/>
      <use x="727.414062" xlink:href="#DejaVuSans-6d"/>
      <use x="824.826172" xlink:href="#DejaVuSans-5d"/>
     </g>
    </g>
   </g>
   <g id="matplotlib.axis_2">
    <g id="ytick_1">
     <g id="line2d_7">
      <defs>
       <path d="M 0 0 
L -3.5 0 
" id="m09506fff11" style="stroke:#000000;stroke-width:0.8;"/>
      </defs>
      <g>
       <use style="stroke:#000000;stroke-width:0.8;" x="57.6" xlink:href="#m09506fff11" y="301.713214"/>
      </g>
     </g>
     <g id="text_8">
      <!-- 0 -->
      <g transform="translate(44.2375 305.512433)scale(0.1 -0.1)">
       <use xlink:href="#DejaVuSans-30"/>
      </g>
     </g>
    </g>
    <g id="ytick_2">
     <g id="line2d_8">
      <g>
       <use style="stroke:#000000;stroke-width:0.8;" x="57.6" xlink:href="#m09506fff11" y="244.913815"/>
      </g>
     </g>
     <g id="text_9">
      <!-- 10000 -->
      <g transform="translate(18.7875 248.713034)scale(0.1 -0.1)">
       <use xlink:href="#DejaVuSans-31"/>
       <use x="63.623047" xlink:href="#DejaVuSans-30"/>
       <use x="127.246094" xlink:href="#DejaVuSans-30"/>
       <use x="190.869141" xlink:href="#DejaVuSans-30"/>
       <use x="254.492188" xlink:href="#DejaVuSans-30"/>
      </g>
     </g>
    </g>
    <g id="ytick_3">
     <g id="line2d_9">
      <g>
       <use style="stroke:#000000;stroke-width:0.8;" x="57.6" xlink:href="#m09506fff11" y="188.114416"/>
      </g>
     </g>
     <g id="text_10">
      <!-- 20000 -->
      <g transform="translate(18.7875 191.913635)scale(0.1 -0.1)">
       <use xlink:href="#DejaVuSans-32"/>
       <use x="63.623047" xlink:href="#DejaVuSans-30"/>
       <use x="127.246094" xlink:href="#DejaVuSans-30"/>
       <use x="190.869141" xlink:href="#DejaVuSans-30"/>
       <use x="254.492188" xlink:href="#DejaVuSans-30"/>
      </g>
     </g>
    </g>
    <g id="ytick_4">
     <g id="line2d_10">
      <g>
       <use style="stroke:#000000;stroke-width:0.8;" x="57.6" xlink:href="#m09506fff11" y="131.315017"/>
      </g>
     </g>
     <g id="text_11">
      <!-- 30000 -->
      <g transform="translate(18.7875 135.114236)scale(0.1 -0.1)">
       <defs>
        <path d="M 2597 2516 
Q 3050 2419 3304 2112 
Q 3559 1806 3559 1356 
Q 3559 666 3084 287 
Q 2609 -91 1734 -91 
Q 1441 -91 1130 -33 
Q 819 25 488 141 
L 488 750 
Q 750 597 1062 519 
Q 1375 441 1716 441 
Q 2309 441 2620 675 
Q 2931 909 2931 1356 
Q 2931 1769 2642 2001 
Q 2353 2234 1838 2234 
L 1294 2234 
L 1294 2753 
L 1863 2753 
Q 2328 2753 2575 2939 
Q 2822 3125 2822 3475 
Q 2822 3834 2567 4026 
Q 2313 4219 1838 4219 
Q 1578 4219 1281 4162 
Q 984 4106 628 3988 
L 628 4550 
Q 988 4650 1302 4700 
Q 1616 4750 1894 4750 
Q 2613 4750 3031 4423 
Q 3450 4097 3450 3541 
Q 3450 3153 3228 2886 
Q 3006 2619 2597 2516 
z
" id="DejaVuSans-33" transform="scale(0.015625)"/>
       </defs>
       <use xlink:href="#DejaVuSans-33"/>
       <use x="63.623047" xlink:href="#DejaVuSans-30"/>
       <use x="127.246094" xlink:href="#DejaVuSans-30"/>
       <use x="190.869141" xlink:href="#DejaVuSans-30"/>
       <use x="254.492188" xlink:href="#DejaVuSans-30"/>
      </g>
     </g>
    </g>
    <g id="ytick_5">
     <g id="line2d_11">
      <g>
       <use style="stroke:#000000;stroke-width:0.8;" x="57.6" xlink:href="#m09506fff11" y="74.515618"/>
      </g>
     </g>
     <g id="text_12">
      <!-- 40000 -->
      <g transform="translate(18.7875 78.314837)scale(0.1 -0.1)">
       <use xlink:href="#DejaVuSans-34"/>
       <use x="63.623047" xlink:href="#DejaVuSans-30"/>
       <use x="127.246094" xlink:href="#DejaVuSans-30"/>
       <use x="190.869141" xlink:href="#DejaVuSans-30"/>
       <use x="254.492188" xlink:href="#DejaVuSans-30"/>
      </g>
     </g>
    </g>
    <g id="text_13">
     <!-- Counts -->
     <g transform="translate(12.707812 191.981125)rotate(-90)scale(0.1 -0.1)">
      <defs>
       <path d="M 4122 4306 
L 4122 3641 
Q 3803 3938 3442 4084 
Q 3081 4231 2675 4231 
Q 1875 4231 1450 3742 
Q 1025 3253 1025 2328 
Q 1025 1406 1450 917 
Q 1875 428 2675 428 
Q 3081 428 3442 575 
Q 3803 722 4122 1019 
L 4122 359 
Q 3791 134 3420 21 
Q 3050 -91 2638 -91 
Q 1578 -91 968 557 
Q 359 1206 359 2328 
Q 359 3453 968 4101 
Q 1578 4750 2638 4750 
Q 3056 4750 3426 4639 
Q 3797 4528 4122 4306 
z
" id="DejaVuSans-43" transform="scale(0.015625)"/>
       <path d="M 1959 3097 
Q 1497 3097 1228 2736 
Q 959 2375 959 1747 
Q 959 1119 1226 758 
Q 1494 397 1959 397 
Q 2419 397 2687 759 
Q 2956 1122 2956 1747 
Q 2956 2369 2687 2733 
Q 2419 3097 1959 3097 
z
M 1959 3584 
Q 2709 3584 3137 3096 
Q 3566 2609 3566 1747 
Q 3566 888 3137 398 
Q 2709 -91 1959 -91 
Q 1206 -91 779 398 
Q 353 888 353 1747 
Q 353 2609 779 3096 
Q 1206 3584 1959 3584 
z
" id="DejaVuSans-6f" transform="scale(0.015625)"/>
       <path d="M 544 1381 
L 544 3500 
L 1119 3500 
L 1119 1403 
Q 1119 906 1312 657 
Q 1506 409 1894 409 
Q 2359 409 2629 706 
Q 2900 1003 2900 1516 
L 2900 3500 
L 3475 3500 
L 3475 0 
L 2900 0 
L 2900 538 
Q 2691 219 2414 64 
Q 2138 -91 1772 -91 
Q 1169 -91 856 284 
Q 544 659 544 1381 
z
M 1991 3584 
L 1991 3584 
z
" id="DejaVuSans-75" transform="scale(0.015625)"/>
       <path d="M 2834 3397 
L 2834 2853 
Q 2591 2978 2328 3040 
Q 2066 3103 1784 3103 
Q 1356 3103 1142 2972 
Q 928 2841 928 2578 
Q 928 2378 1081 2264 
Q 1234 2150 1697 2047 
L 1894 2003 
Q 2506 1872 2764 1633 
Q 3022 1394 3022 966 
Q 3022 478 2636 193 
Q 2250 -91 1575 -91 
Q 1294 -91 989 -36 
Q 684 19 347 128 
L 347 722 
Q 666 556 975 473 
Q 1284 391 1588 391 
Q 1994 391 2212 530 
Q 2431 669 2431 922 
Q 2431 1156 2273 1281 
Q 2116 1406 1581 1522 
L 1381 1569 
Q 847 1681 609 1914 
Q 372 2147 372 2553 
Q 372 3047 722 3315 
Q 1072 3584 1716 3584 
Q 2034 3584 2315 3537 
Q 2597 3491 2834 3397 
z
" id="DejaVuSans-73" transform="scale(0.015625)"/>
      </defs>
      <use xlink:href="#DejaVuSans-43"/>
      <use x="69.824219" xlink:href="#DejaVuSans-6f"/>
      <use x="131.005859" xlink:href="#DejaVuSans-75"/>
      <use x="194.384766" xlink:href="#DejaVuSans-6e"/>
      <use x="257.763672" xlink:href="#DejaVuSans-74"/>
      <use x="296.972656" xlink:href="#DejaVuSans-73"/>
     </g>
    </g>
   </g>
   <g id="line2d_12">
    <path clip-path="url(#pa638a1174c)" d="M 73.832727 289.739901 
L 73.991327 290.489653 
L 74.149928 289.308225 
L 74.308528 284.17356 
L 74.467128 289.353665 
L 74.625728 286.695453 
L 74.784328 292.170915 
L 74.942928 291.057647 
L 75.101529 292.511711 
L 75.418729 286.786332 
L 75.577329 289.603582 
L 75.894529 284.968751 
L 76.05313 285.559465 
L 76.21173 286.581854 
L 76.37033 283.651005 
L 76.52893 288.694792 
L 76.68753 288.944709 
L 76.84613 292.216355 
L 77.004731 289.512703 
L 77.163331 290.012538 
L 77.321931 289.194627 
L 77.480531 289.058308 
L 77.639131 281.401749 
L 77.797731 291.353004 
L 77.956332 279.902245 
L 78.114932 290.035258 
L 78.273532 285.150509 
L 78.432132 294.329292 
L 78.590732 292.875228 
L 78.749333 288.013199 
L 78.907933 292.69347 
L 79.066533 288.967429 
L 79.383733 289.8535 
L 79.700934 292.988826 
L 79.859534 291.216685 
L 80.018134 287.990479 
L 80.176734 293.079705 
L 80.335334 289.081028 
L 80.493934 290.557812 
L 80.652535 290.944048 
L 80.811135 292.420832 
L 80.969735 285.12779 
L 81.128335 288.808391 
L 81.286935 289.353665 
L 81.445535 291.193965 
L 81.762736 289.80806 
L 81.921336 283.855483 
L 82.079936 290.875889 
L 82.238536 290.466933 
L 82.397136 290.580532 
L 82.714337 291.443883 
L 82.872937 289.535423 
L 83.031537 293.261464 
L 83.190137 291.421163 
L 83.348737 287.490645 
L 83.507338 292.579871 
L 83.665938 289.330945 
L 83.824538 291.67108 
L 83.983138 290.012538 
L 84.141738 286.263778 
L 84.300338 290.80773 
L 84.458939 286.241058 
L 84.776139 293.465941 
L 85.251939 286.241058 
L 85.41054 292.67075 
L 85.56914 291.284844 
L 85.72774 291.580201 
L 85.88634 288.649352 
L 86.20354 293.715859 
L 86.362141 284.582515 
L 86.679341 291.784679 
L 86.996541 286.786332 
L 87.155141 289.467264 
L 87.472342 287.831441 
L 87.789542 292.557151 
L 87.948142 282.855814 
L 88.106742 290.035258 
L 88.265343 290.330615 
L 88.423943 292.579871 
L 88.582543 291.171246 
L 88.899743 290.625971 
L 89.058343 292.511711 
L 89.216944 291.057647 
L 89.375544 287.331606 
L 89.534144 293.988496 
L 89.692744 291.330284 
L 89.851344 293.488661 
L 90.009944 287.8996 
L 90.327145 293.375062 
L 90.485745 285.536745 
L 90.644345 293.147865 
L 90.961545 290.376054 
L 91.120146 292.829788 
L 91.278746 291.375724 
L 91.437346 291.557482 
L 91.595946 294.829127 
L 91.754546 291.034927 
L 91.913147 291.557482 
L 92.071747 287.672403 
L 92.230347 292.466272 
L 92.388947 292.557151 
L 92.547547 286.922651 
L 92.864748 291.852838 
L 93.023348 291.784679 
L 93.181948 294.124814 
L 93.340548 289.78534 
L 93.657748 294.670089 
L 93.816349 289.444544 
L 93.974949 290.103417 
L 94.133549 289.240066 
L 94.292149 290.921328 
L 94.450749 291.193965 
L 94.609349 291.057647 
L 94.76795 291.534762 
L 94.92655 290.580532 
L 95.08515 283.878203 
L 95.40235 289.717181 
L 95.56095 290.535092 
L 95.719551 287.8996 
L 95.878151 291.875558 
L 96.036751 292.466272 
L 96.195351 290.489653 
L 96.353951 284.627955 
L 96.512551 289.489983 
L 96.671152 290.853169 
L 96.829752 287.513364 
L 96.988352 293.238744 
L 97.146952 292.216355 
L 97.305552 287.695122 
L 97.464152 288.331276 
L 97.622753 291.67108 
L 97.781353 288.444875 
L 98.098553 291.443883 
L 98.257153 288.740231 
L 98.415753 290.944048 
L 98.574354 290.830449 
L 98.732954 285.809382 
L 99.050154 291.193965 
L 99.208754 290.898609 
L 99.367354 292.920667 
L 99.525955 291.193965 
L 99.684555 284.650675 
L 99.843155 293.465941 
L 100.160355 291.012207 
L 100.318955 294.57921 
L 100.477556 290.921328 
L 100.636156 291.989157 
L 100.953356 284.241719 
L 101.111956 291.148526 
L 101.270556 287.672403 
L 101.429157 294.124814 
L 101.587757 291.148526 
L 101.746357 292.784349 
L 101.904957 283.537406 
L 102.063557 289.694461 
L 102.380758 291.602921 
L 102.539358 292.579871 
L 102.697958 290.625971 
L 102.856558 285.264108 
L 103.173758 290.966768 
L 103.490959 281.628947 
L 103.649559 287.672403 
L 103.808159 287.831441 
L 103.966759 285.445866 
L 104.12536 285.627624 
L 104.28396 279.220652 
L 104.60116 279.470569 
L 104.75976 277.380352 
L 104.91836 277.039555 
L 105.235561 270.405385 
L 105.394161 261.158443 
L 105.552761 261.749157 
L 106.187162 236.439345 
L 106.345762 229.986933 
L 107.138763 157.601779 
L 107.931764 66.972658 
L 108.248964 54.431351 
L 108.407564 53.568 
L 108.724764 61.906152 
L 110.152166 182.275438 
L 110.945167 209.743627 
L 111.103767 209.175633 
L 111.579567 224.420592 
L 111.738168 223.375483 
L 111.896768 234.758083 
L 112.055368 229.805175 
L 112.372568 241.823928 
L 112.689769 254.524273 
L 113.324169 266.361268 
L 113.482769 266.065911 
L 113.64137 265.043522 
L 113.79997 266.22495 
L 113.95857 271.132418 
L 114.11717 270.8825 
L 114.27577 273.631591 
L 114.43437 270.541704 
L 114.592971 276.176204 
L 114.751571 276.517001 
L 114.910171 277.244033 
L 115.227371 273.449833 
L 115.544572 281.697106 
L 115.703172 280.856475 
L 115.861772 276.880517 
L 116.178972 284.287159 
L 116.337573 273.995107 
L 116.496173 279.788646 
L 116.654773 280.220322 
L 116.813373 269.405716 
L 116.971973 285.604905 
L 117.130573 276.153485 
L 117.289174 286.195618 
L 117.447774 285.036911 
L 117.606374 287.218008 
L 117.923574 284.809713 
L 118.082174 285.877542 
L 118.240775 288.240397 
L 118.399375 280.561118 
L 119.192376 287.308887 
L 119.350976 288.717512 
L 119.509576 286.104739 
L 119.668176 286.286497 
L 119.826776 285.12779 
L 119.985376 287.218008 
L 120.302577 282.060622 
L 120.461177 287.558804 
L 120.619777 288.694792 
L 120.778377 288.217677 
L 120.936977 273.608872 
L 121.095578 285.10507 
L 121.254178 286.695453 
L 121.412778 285.809382 
L 121.571378 287.626963 
L 121.729978 285.195949 
L 121.888578 289.126467 
L 122.047179 287.149848 
L 122.364379 288.104078 
L 122.522979 288.422155 
L 122.681579 285.377707 
L 122.840179 288.376715 
L 122.99878 288.444875 
L 123.15738 289.308225 
L 123.31598 287.604243 
L 123.47458 288.240397 
L 123.63318 290.489653 
L 123.79178 285.309548 
L 123.950381 284.082681 
L 124.108981 289.353665 
L 124.267581 286.422816 
L 124.426181 286.127459 
L 124.584781 287.92232 
L 124.743381 284.241719 
L 124.901982 291.148526 
L 125.219182 286.03658 
L 125.536382 288.240397 
L 125.694982 290.353334 
L 125.853583 275.926287 
L 126.012183 287.581524 
L 126.170783 288.126798 
L 126.329383 287.195288 
L 126.487983 287.990479 
L 126.646583 286.513695 
L 126.805184 287.195288 
L 126.963784 287.263447 
L 127.122384 286.695453 
L 127.439584 291.330284 
L 127.598184 291.125806 
L 127.756785 288.717512 
L 127.915385 288.240397 
L 128.073985 291.489322 
L 128.391185 281.856144 
L 128.708386 289.558143 
L 128.866986 286.718173 
L 129.025586 289.580863 
L 129.184186 288.87655 
L 129.342786 288.85383 
L 129.501387 290.307895 
L 129.659987 290.171576 
L 129.977187 287.695122 
L 130.135787 289.671742 
L 130.294387 289.330945 
L 130.452988 290.875889 
L 130.611588 289.762621 
L 130.770188 291.148526 
L 131.087388 287.854161 
L 131.245988 288.672072 
L 131.563189 292.216355 
L 131.880389 285.377707 
L 132.038989 287.740562 
L 132.35619 283.923642 
L 132.51479 291.239405 
L 132.67339 287.104409 
L 132.83199 289.694461 
L 132.99059 287.990479 
L 133.307791 290.285175 
L 133.466391 288.194957 
L 133.624991 288.603913 
L 133.783591 285.650344 
L 133.942191 289.671742 
L 134.100791 287.240727 
L 134.259392 291.443883 
L 134.417992 291.193965 
L 134.893792 285.400427 
L 135.052392 291.171246 
L 135.210993 289.694461 
L 135.369593 293.511381 
L 135.528193 286.877211 
L 135.686793 292.466272 
L 135.845393 292.943387 
L 136.003993 289.035588 
L 136.162594 288.967429 
L 136.321194 289.081028 
L 136.479794 290.194296 
L 136.638394 290.239736 
L 136.796994 292.420832 
L 136.955594 292.329953 
L 137.114195 289.353665 
L 137.272795 291.648361 
L 137.589995 286.490975 
L 137.748595 290.285175 
L 137.907195 289.103748 
L 138.065796 291.262125 
L 138.224396 291.875558 
L 138.382996 288.376715 
L 138.541596 291.784679 
L 138.700196 290.966768 
L 138.858796 293.375062 
L 139.017397 293.034266 
L 139.175997 287.104409 
L 139.493197 292.239074 
L 139.651797 289.558143 
L 139.810397 289.240066 
L 140.127598 292.398113 
L 140.286198 289.739901 
L 140.444798 290.171576 
L 140.761998 291.512042 
L 140.920599 291.807399 
L 141.079199 288.444875 
L 141.237799 289.876219 
L 141.396399 289.649022 
L 141.554999 291.73924 
L 141.7136 291.148526 
L 141.8722 288.649352 
L 142.0308 291.057647 
L 142.1894 291.761959 
L 142.5066 286.740893 
L 142.665201 290.73957 
L 142.823801 287.740562 
L 142.982401 291.057647 
L 143.141001 291.216685 
L 143.299601 286.536415 
L 143.458201 291.375724 
L 143.775402 288.263116 
L 143.934002 291.943718 
L 144.092602 288.194957 
L 144.251202 292.034597 
L 144.568403 286.263778 
L 144.885603 293.034266 
L 145.202803 289.081028 
L 145.361403 289.012869 
L 145.520004 287.604243 
L 145.678604 290.353334 
L 145.837204 289.512703 
L 145.995804 290.171576 
L 146.154404 289.967098 
L 146.313004 291.966437 
L 146.471605 290.73957 
L 146.630205 292.602591 
L 146.788805 287.604243 
L 146.947405 289.103748 
L 147.106005 287.149848 
L 147.264605 286.650014 
L 147.423206 292.398113 
L 147.581806 288.376715 
L 147.899006 292.443552 
L 148.216206 287.036249 
L 148.374807 292.784349 
L 148.533407 287.695122 
L 148.850607 291.307564 
L 149.009207 292.329953 
L 149.167807 290.603252 
L 149.485008 294.170254 
L 149.643608 283.991802 
L 149.960808 289.694461 
L 150.119408 284.900592 
L 150.278009 290.353334 
L 150.436609 288.921989 
L 150.595209 291.784679 
L 150.753809 286.172899 
L 150.912409 289.898939 
L 151.071009 289.489983 
L 151.22961 293.375062 
L 151.38821 289.012869 
L 151.54681 292.239074 
L 151.70541 291.512042 
L 151.86401 292.966107 
L 152.02261 286.740893 
L 152.181211 290.171576 
L 152.339811 290.512373 
L 152.498411 291.875558 
L 152.657011 290.694131 
L 152.815611 290.376054 
L 152.974211 288.808391 
L 153.132812 289.103748 
L 153.291412 293.170585 
L 153.450012 291.125806 
L 153.608612 292.557151 
L 153.767212 287.8996 
L 154.243013 293.375062 
L 154.401613 288.194957 
L 154.560213 292.579871 
L 154.718813 291.443883 
L 154.877414 294.056655 
L 155.036014 292.920667 
L 155.194614 289.535423 
L 155.511814 292.557151 
L 155.670414 289.989818 
L 155.829015 292.057316 
L 155.987615 291.103086 
L 156.146215 287.01353 
L 156.304815 290.898609 
L 156.463415 289.444544 
L 156.622015 286.899931 
L 156.780616 290.648691 
L 157.097816 289.149187 
L 157.256416 287.377046 
L 157.415016 290.73957 
L 157.573616 291.625641 
L 157.732217 288.87655 
L 157.890817 292.875228 
L 158.049417 291.648361 
L 158.208017 291.989157 
L 158.366617 291.239405 
L 158.525217 293.284183 
L 159.001018 288.808391 
L 159.159618 289.217346 
L 159.318218 293.420502 
L 159.476818 283.946362 
L 159.635419 291.602921 
L 159.794019 292.011877 
L 159.952619 291.807399 
L 160.111219 287.94504 
L 160.269819 288.081358 
L 160.428419 291.443883 
L 160.58702 287.377046 
L 160.74562 294.056655 
L 160.90422 293.784018 
L 161.06282 292.557151 
L 161.22142 293.62498 
L 161.38002 290.853169 
L 161.538621 293.147865 
L 161.697221 289.603582 
L 162.014421 292.011877 
L 162.173021 290.557812 
L 162.331621 291.375724 
L 162.490222 294.124814 
L 162.648822 294.374732 
L 162.807422 288.672072 
L 162.966022 291.080367 
L 163.124622 291.466603 
L 163.283222 287.399766 
L 163.600423 293.852177 
L 163.759023 290.035258 
L 163.917623 294.261133 
L 164.234823 290.171576 
L 164.393424 288.89927 
L 164.552024 290.80773 
L 164.710624 289.421824 
L 165.027824 292.307234 
L 165.186424 284.014521 
L 165.503625 291.512042 
L 165.662225 290.71685 
L 165.820825 291.353004 
L 165.979425 293.193304 
L 166.138025 289.103748 
L 166.296626 291.193965 
L 166.455226 288.376715 
L 166.613826 293.011546 
L 166.772426 292.352673 
L 166.931026 287.672403 
L 167.089627 291.966437 
L 167.248227 291.966437 
L 167.406827 287.854161 
L 167.565427 291.398443 
L 167.724027 282.628616 
L 168.041228 293.306903 
L 168.199828 289.353665 
L 168.358428 291.898278 
L 168.517028 291.557482 
L 168.675628 293.62498 
L 169.151429 290.603252 
L 169.310029 291.262125 
L 169.468629 286.354657 
L 169.627229 290.76229 
L 169.785829 288.740231 
L 169.94443 293.011546 
L 170.10303 292.829788 
L 170.26163 290.103417 
L 170.42023 292.988826 
L 170.57883 288.717512 
L 170.73743 292.420832 
L 170.896031 292.875228 
L 171.054631 289.308225 
L 171.213231 291.943718 
L 171.371831 288.785671 
L 171.530431 290.307895 
L 171.689031 293.852177 
L 172.006232 287.786002 
L 172.323432 291.512042 
L 172.482032 289.671742 
L 172.640632 289.240066 
L 172.799233 293.465941 
L 173.116433 289.78534 
L 173.433633 291.534762 
L 173.592233 294.397452 
L 173.750834 291.148526 
L 173.909434 291.648361 
L 174.068034 290.376054 
L 174.226634 291.125806 
L 174.385234 291.012207 
L 174.543834 289.558143 
L 174.861035 294.261133 
L 175.019635 293.852177 
L 175.336835 289.989818 
L 175.654036 291.648361 
L 175.812636 292.557151 
L 175.971236 290.353334 
L 176.129836 293.784018 
L 176.288436 291.307564 
L 176.447036 295.169923 
L 176.605637 293.375062 
L 176.764237 289.489983 
L 176.922837 290.103417 
L 177.081437 285.718503 
L 177.240037 290.148856 
L 177.398637 289.035588 
L 177.557238 290.353334 
L 177.874438 288.967429 
L 178.033038 291.534762 
L 178.191638 291.148526 
L 178.350238 292.193635 
L 178.667439 289.535423 
L 178.826039 289.694461 
L 178.984639 290.148856 
L 179.143239 289.694461 
L 179.301839 293.897617 
L 179.46044 291.193965 
L 179.93624 295.056325 
L 180.253441 290.012538 
L 180.412041 289.989818 
L 180.570641 288.762951 
L 180.729241 288.649352 
L 180.887841 292.943387 
L 181.046441 289.921659 
L 181.205042 292.148195 
L 181.363642 287.92232 
L 181.522242 292.852508 
L 181.680842 290.78501 
L 181.839442 291.421163 
L 181.998042 290.944048 
L 182.156643 291.512042 
L 182.315243 291.193965 
L 182.632443 285.514026 
L 182.791043 293.874897 
L 182.949643 289.058308 
L 183.108244 292.488992 
L 183.266844 289.285506 
L 183.584044 293.761298 
L 183.742644 292.920667 
L 183.901244 294.215693 
L 184.059845 288.649352 
L 184.218445 290.694131 
L 184.377045 290.557812 
L 184.535645 291.512042 
L 184.694245 291.557482 
L 184.852845 287.626963 
L 185.170046 293.284183 
L 185.328646 290.307895 
L 185.487246 290.080697 
L 185.645846 292.943387 
L 185.804446 286.331937 
L 186.121647 293.125145 
L 186.280247 291.648361 
L 186.438847 292.761629 
L 186.597447 289.421824 
L 186.756047 290.489653 
L 186.914648 289.217346 
L 187.073248 292.875228 
L 187.231848 286.172899 
L 187.549048 291.761959 
L 187.707648 294.874566 
L 187.866249 291.012207 
L 188.024849 293.102425 
L 188.183449 289.626302 
L 188.342049 293.693139 
L 188.500649 291.557482 
L 188.659249 292.398113 
L 188.81785 288.331276 
L 189.13505 292.534431 
L 189.45225 288.85383 
L 189.61085 295.010885 
L 189.769451 289.421824 
L 189.928051 289.967098 
L 190.086651 292.69347 
L 190.245251 289.285506 
L 190.562451 291.125806 
L 190.721052 289.012869 
L 190.879652 293.125145 
L 191.196852 288.944709 
L 191.355452 288.285836 
L 191.831253 292.67075 
L 191.989853 290.989488 
L 192.307053 293.284183 
L 192.624254 290.171576 
L 192.782854 285.99114 
L 192.941454 293.034266 
L 193.100054 292.943387 
L 193.417255 290.625971 
L 193.734455 292.738909 
L 193.893055 288.104078 
L 194.051655 291.330284 
L 194.210255 289.467264 
L 194.368856 293.375062 
L 194.686056 289.512703 
L 194.844656 290.671411 
L 195.003256 288.83111 
L 195.161856 290.694131 
L 195.479057 287.604243 
L 195.637657 289.262786 
L 195.796257 292.534431 
L 195.954857 291.375724 
L 196.113457 291.875558 
L 196.272058 294.420171 
L 196.430658 287.195288 
L 196.747858 293.511381 
L 196.906458 289.694461 
L 197.065058 292.034597 
L 197.382259 288.944709 
L 197.540859 291.920998 
L 197.699459 290.535092 
L 197.858059 291.761959 
L 198.016659 290.853169 
L 198.17526 294.715528 
L 198.33386 280.720156 
L 198.49246 294.102095 
L 198.65106 289.081028 
L 198.80966 288.740231 
L 198.96826 292.034597 
L 199.126861 293.011546 
L 199.444061 289.944379 
L 199.602661 288.126798 
L 199.761261 289.421824 
L 199.919861 293.988496 
L 200.237062 291.489322 
L 200.554262 289.217346 
L 200.712862 291.73924 
L 200.871462 288.399435 
L 201.030063 287.990479 
L 201.188663 290.989488 
L 201.347263 285.264108 
L 201.664463 293.079705 
L 201.823063 292.011877 
L 201.981664 292.375393 
L 202.140264 293.897617 
L 202.298864 289.217346 
L 202.616064 292.080036 
L 202.774664 290.875889 
L 202.933265 290.898609 
L 203.091865 288.513034 
L 203.250465 283.719165 
L 203.409065 290.557812 
L 203.567665 289.421824 
L 203.726265 293.216024 
L 203.884866 293.647699 
L 204.202066 289.217346 
L 204.360666 290.307895 
L 204.519266 292.557151 
L 204.677867 290.694131 
L 204.836467 291.73924 
L 204.995067 290.921328 
L 205.153667 292.420832 
L 205.312267 292.64803 
L 205.470867 292.216355 
L 205.629468 293.57954 
L 205.788068 292.148195 
L 205.946668 286.513695 
L 206.263868 295.260802 
L 206.422468 288.694792 
L 206.581069 290.330615 
L 206.739669 293.988496 
L 206.898269 293.056986 
L 207.056869 290.057977 
L 207.215469 289.921659 
L 207.374069 289.126467 
L 207.53267 294.374732 
L 207.69127 285.968421 
L 207.84987 291.375724 
L 208.00847 287.786002 
L 208.32567 293.784018 
L 208.484271 290.285175 
L 208.801471 291.443883 
L 208.960071 289.83078 
L 209.118671 291.512042 
L 209.277271 289.262786 
L 209.435872 292.488992 
L 209.594472 290.398774 
L 209.753072 292.102756 
L 209.911672 289.558143 
L 210.070272 289.399104 
L 210.228872 293.715859 
L 210.704673 289.035588 
L 210.863273 290.830449 
L 211.180473 289.126467 
L 211.339074 290.103417 
L 211.656274 293.897617 
L 211.814874 288.149518 
L 211.973474 291.262125 
L 212.132074 291.421163 
L 212.290675 290.239736 
L 212.449275 291.648361 
L 212.607875 290.853169 
L 212.766475 289.285506 
L 212.925075 291.534762 
L 213.083675 289.694461 
L 213.242276 291.034927 
L 213.559476 288.467594 
L 213.718076 292.375393 
L 213.876676 292.193635 
L 214.035276 289.8535 
L 214.193877 290.171576 
L 214.352477 289.989818 
L 214.511077 290.194296 
L 214.669677 293.102425 
L 214.828277 289.78534 
L 214.986877 293.488661 
L 215.145478 293.216024 
L 215.621278 288.172237 
L 215.779878 291.512042 
L 215.938478 291.943718 
L 216.097079 289.944379 
L 216.255679 291.602921 
L 216.414279 291.239405 
L 216.572879 295.169923 
L 216.731479 284.196279 
L 216.890079 293.57954 
L 217.04868 289.308225 
L 217.20728 290.080697 
L 217.52448 292.102756 
L 217.68308 291.216685 
L 217.841681 288.172237 
L 218.000281 292.216355 
L 218.158881 292.875228 
L 218.317481 289.444544 
L 218.634681 292.398113 
L 218.793282 293.079705 
L 218.951882 290.853169 
L 219.110482 291.602921 
L 219.269082 293.784018 
L 219.427682 289.058308 
L 219.586282 293.443222 
L 219.744883 289.739901 
L 219.903483 291.443883 
L 220.062083 294.829127 
L 220.379283 288.649352 
L 220.537883 287.649683 
L 220.855084 293.125145 
L 221.013684 290.73957 
L 221.172284 291.875558 
L 221.330884 288.944709 
L 221.806685 292.375393 
L 221.965285 293.488661 
L 222.123885 290.285175 
L 222.282485 291.148526 
L 222.441085 280.765596 
L 222.599686 291.375724 
L 222.758286 292.420832 
L 222.916886 283.264769 
L 223.075486 290.535092 
L 223.234086 290.80773 
L 223.392686 288.353995 
L 223.551287 291.602921 
L 223.709887 289.126467 
L 223.868487 289.83078 
L 224.027087 292.148195 
L 224.185687 288.240397 
L 224.344287 288.535754 
L 224.502888 289.83078 
L 224.661488 293.261464 
L 224.820088 290.853169 
L 224.978688 293.534101 
L 225.137288 288.353995 
L 225.295888 293.874897 
L 225.613089 289.035588 
L 225.771689 289.921659 
L 225.930289 292.466272 
L 226.088889 292.829788 
L 226.40609 294.51105 
L 226.56469 286.536415 
L 226.88189 293.715859 
L 227.04049 293.784018 
L 227.19909 292.511711 
L 227.357691 289.512703 
L 227.516291 290.376054 
L 227.674891 292.034597 
L 227.833491 287.92232 
L 227.992091 291.307564 
L 228.150691 289.558143 
L 228.309292 286.377376 
L 228.626492 293.738579 
L 228.943692 288.626633 
L 229.102292 288.649352 
L 229.260893 293.874897 
L 229.419493 289.876219 
L 229.578093 289.058308 
L 229.736693 293.693139 
L 229.895293 292.375393 
L 230.053894 285.854822 
L 230.212494 291.103086 
L 230.371094 288.649352 
L 230.529694 289.035588 
L 230.846894 295.192643 
L 231.005495 290.944048 
L 231.164095 294.829127 
L 231.322695 291.852838 
L 231.481295 292.284514 
L 231.639895 292.125476 
L 231.798495 292.329953 
L 231.957096 291.284844 
L 232.115696 287.422485 
L 232.432896 294.738248 
L 232.591496 293.965776 
L 232.750096 285.763943 
L 232.908697 291.534762 
L 233.067297 288.694792 
L 233.543097 294.647369 
L 233.701697 288.490314 
L 233.860298 293.647699 
L 234.177498 291.989157 
L 234.336098 285.536745 
L 234.494698 291.489322 
L 234.653298 293.170585 
L 234.811899 292.284514 
L 234.970499 292.784349 
L 235.129099 290.603252 
L 235.287699 292.716189 
L 235.446299 291.625641 
L 235.604899 294.215693 
L 235.7635 289.967098 
L 235.9221 292.488992 
L 236.0807 292.080036 
L 236.2393 286.286497 
L 236.3979 288.967429 
L 236.5565 293.60226 
L 236.873701 289.898939 
L 237.032301 293.55682 
L 237.190901 289.898939 
L 237.349501 292.534431 
L 237.508101 289.240066 
L 237.666702 289.126467 
L 237.825302 290.376054 
L 237.983902 256.978008 
L 238.142502 294.192974 
L 238.301102 292.125476 
L 238.459702 293.761298 
L 238.618303 289.535423 
L 238.776903 293.170585 
L 238.935503 289.217346 
L 239.094103 292.875228 
L 239.252703 291.330284 
L 239.411303 293.329623 
L 239.569904 291.648361 
L 239.887104 292.761629 
L 240.045704 294.465611 
L 240.204304 286.604574 
L 240.362904 290.171576 
L 240.680105 287.513364 
L 240.838705 291.353004 
L 240.997305 290.239736 
L 241.155905 293.488661 
L 241.314505 291.216685 
L 241.473106 292.69347 
L 241.631706 288.104078 
L 241.790306 290.921328 
L 241.948906 291.057647 
L 242.107506 292.239074 
L 242.266106 289.671742 
L 242.424707 285.173229 
L 242.583307 293.170585 
L 242.741907 286.604574 
L 242.900507 291.943718 
L 243.059107 289.035588 
L 243.217708 293.420502 
L 243.376308 292.69347 
L 243.534908 288.990149 
L 243.693508 293.55682 
L 244.010708 290.421494 
L 244.169309 288.353995 
L 244.327909 292.511711 
L 244.645109 290.217016 
L 244.803709 293.261464 
L 244.962309 292.239074 
L 245.12091 292.897947 
L 245.27951 292.193635 
L 245.59671 286.854491 
L 245.75531 291.966437 
L 245.91391 290.580532 
L 246.072511 292.125476 
L 246.231111 287.581524 
L 246.389711 294.170254 
L 246.865511 287.92232 
L 247.024112 292.579871 
L 247.341312 291.330284 
L 247.499912 291.557482 
L 247.658512 290.421494 
L 247.817112 294.53377 
L 247.975713 289.921659 
L 248.134313 294.897286 
L 248.292913 290.171576 
L 248.451513 291.239405 
L 248.610113 290.648691 
L 248.768713 291.148526 
L 248.927314 291.012207 
L 249.085914 292.352673 
L 249.244514 291.057647 
L 249.403114 291.489322 
L 249.561714 286.650014 
L 249.878915 294.420171 
L 250.037515 293.534101 
L 250.196115 285.536745 
L 250.354715 291.330284 
L 250.513315 291.830119 
L 250.671915 294.420171 
L 250.830516 292.307234 
L 250.989116 288.217677 
L 251.147716 290.376054 
L 251.464916 289.376385 
L 251.623516 291.034927 
L 251.782117 291.239405 
L 251.940717 289.762621 
L 252.099317 293.306903 
L 252.257917 291.625641 
L 252.416517 286.877211 
L 252.575117 294.283853 
L 252.733718 288.513034 
L 253.050918 292.329953 
L 253.209518 288.921989 
L 253.526718 292.920667 
L 253.685319 289.285506 
L 254.002519 293.829458 
L 254.161119 290.239736 
L 254.319719 289.717181 
L 254.478319 292.284514 
L 254.63692 288.558473 
L 254.95412 292.966107 
L 255.11272 291.943718 
L 255.27132 292.080036 
L 255.429921 293.193304 
L 255.747121 288.058639 
L 255.905721 294.170254 
L 256.064321 290.78501 
L 256.222921 290.875889 
L 256.381522 291.262125 
L 256.540122 295.488 
L 256.698722 293.465941 
L 256.857322 287.8996 
L 257.015922 287.672403 
L 257.333123 294.420171 
L 257.491723 292.034597 
L 257.650323 291.443883 
L 257.808923 289.489983 
L 257.967523 294.51105 
L 258.284724 287.01353 
L 258.443324 291.875558 
L 258.601924 292.125476 
L 258.919124 291.284844 
L 259.077724 295.283522 
L 259.236325 292.875228 
L 259.394925 293.443222 
L 259.553525 289.717181 
L 259.712125 288.717512 
L 259.870725 292.307234 
L 260.029325 292.988826 
L 260.346526 291.012207 
L 260.505126 290.966768 
L 260.663726 282.855814 
L 260.822326 294.53377 
L 261.139527 289.83078 
L 261.298127 291.148526 
L 261.456727 291.353004 
L 261.615327 292.148195 
L 261.773927 287.536084 
L 261.932527 292.852508 
L 262.091128 293.375062 
L 262.408328 291.534762 
L 262.566928 293.284183 
L 262.725528 292.352673 
L 262.884128 293.147865 
L 263.042729 282.878533 
L 263.201329 293.943056 
L 263.359929 289.035588 
L 263.518529 288.013199 
L 263.677129 290.512373 
L 263.835729 287.558804 
L 264.31153 293.874897 
L 264.47013 293.216024 
L 264.62873 294.829127 
L 264.945931 290.353334 
L 265.104531 292.170915 
L 265.263131 291.125806 
L 265.421731 286.718173 
L 265.580331 290.625971 
L 265.738931 291.73924 
L 265.897532 291.852838 
L 266.056132 289.217346 
L 266.214732 292.329953 
L 266.373332 291.830119 
L 266.531932 288.921989 
L 266.690532 292.579871 
L 266.849133 283.628285 
L 267.007733 293.375062 
L 267.166333 288.126798 
L 267.324933 293.761298 
L 267.483533 292.511711 
L 267.642133 293.170585 
L 267.959334 287.626963 
L 268.117934 288.558473 
L 268.276534 284.832433 
L 268.593735 293.170585 
L 268.752335 290.603252 
L 268.910935 293.738579 
L 269.069535 290.307895 
L 269.228135 290.80773 
L 269.386735 286.627294 
L 269.545336 291.421163 
L 269.703936 291.284844 
L 269.862536 288.603913 
L 270.021136 289.489983 
L 270.179736 286.831772 
L 270.338336 292.284514 
L 270.496937 291.6938 
L 270.655537 292.057316 
L 270.814137 291.807399 
L 271.131337 291.171246 
L 271.448538 293.216024 
L 271.607138 290.285175 
L 271.765738 293.62498 
L 271.924338 289.694461 
L 272.082938 288.558473 
L 272.241538 293.216024 
L 272.400139 291.193965 
L 272.717339 293.284183 
L 273.034539 290.694131 
L 273.193139 291.989157 
L 273.35174 291.443883 
L 273.51034 288.558473 
L 273.66894 292.125476 
L 273.98614 288.149518 
L 274.14474 293.943056 
L 274.303341 294.215693 
L 274.461941 289.558143 
L 274.779141 292.307234 
L 274.937741 288.513034 
L 275.254942 293.761298 
L 275.413542 288.967429 
L 275.572142 292.875228 
L 275.730742 289.80806 
L 275.889342 293.034266 
L 276.047942 290.398774 
L 276.206543 291.466603 
L 276.365143 290.080697 
L 276.523743 291.375724 
L 276.682343 293.761298 
L 276.840943 292.829788 
L 276.999543 291.171246 
L 277.316744 291.989157 
L 277.475344 290.376054 
L 277.633944 286.513695 
L 277.792544 290.557812 
L 277.951144 291.73924 
L 278.109745 294.261133 
L 278.268345 285.673064 
L 278.585545 293.397782 
L 278.744145 291.557482 
L 278.902745 292.579871 
L 279.061346 286.536415 
L 279.219946 292.239074 
L 279.378546 293.55682 
L 279.537146 287.081689 
L 279.695746 292.102756 
L 279.854346 292.64803 
L 280.012947 291.148526 
L 280.171547 290.989488 
L 280.330147 287.581524 
L 280.647347 293.079705 
L 280.805948 294.329292 
L 280.964548 287.94504 
L 281.123148 291.73924 
L 281.281748 291.898278 
L 281.598948 288.217677 
L 281.757549 289.353665 
L 281.916149 291.852838 
L 282.074749 289.353665 
L 282.391949 290.648691 
L 282.550549 293.943056 
L 282.70915 288.672072 
L 282.86775 290.875889 
L 283.02635 291.466603 
L 283.18495 292.579871 
L 283.34355 290.171576 
L 283.50215 290.466933 
L 283.660751 292.466272 
L 283.977951 290.012538 
L 284.136551 292.988826 
L 284.295151 287.058969 
L 284.453751 292.784349 
L 284.612352 293.147865 
L 284.929552 291.284844 
L 285.088152 293.034266 
L 285.246752 293.397782 
L 285.405352 294.170254 
L 285.563953 292.488992 
L 285.722553 293.60226 
L 285.881153 292.966107 
L 286.039753 294.806407 
L 286.198353 291.943718 
L 286.356953 291.807399 
L 286.515554 288.194957 
L 286.674154 293.079705 
L 286.991354 288.104078 
L 287.149954 290.557812 
L 287.308554 286.127459 
L 287.625755 289.580863 
L 287.784355 286.96809 
L 287.942955 287.763282 
L 288.101555 287.377046 
L 288.260155 288.422155 
L 288.418756 292.875228 
L 288.735956 289.921659 
L 288.894556 284.832433 
L 289.053156 291.193965 
L 289.211756 290.830449 
L 289.370357 289.921659 
L 289.528957 290.989488 
L 289.687557 292.897947 
L 289.846157 290.535092 
L 290.004757 290.875889 
L 290.163357 293.079705 
L 290.480558 288.013199 
L 290.639158 292.329953 
L 290.797758 292.943387 
L 290.956358 289.467264 
L 291.114958 293.056986 
L 291.273559 292.011877 
L 291.432159 291.898278 
L 291.590759 293.57954 
L 291.907959 287.149848 
L 292.066559 295.419841 
L 292.22516 292.352673 
L 292.38376 293.693139 
L 292.54236 284.15084 
L 292.70096 292.034597 
L 292.85956 292.193635 
L 293.018161 289.80806 
L 293.176761 291.557482 
L 293.335361 290.126137 
L 293.493961 293.784018 
L 293.652561 293.079705 
L 293.969762 289.217346 
L 294.286962 292.125476 
L 294.445562 287.422485 
L 294.604162 291.171246 
L 294.762762 289.8535 
L 294.921363 293.55682 
L 295.079963 285.377707 
L 295.238563 286.513695 
L 295.397163 291.398443 
L 295.555763 289.626302 
L 295.714363 293.465941 
L 295.872964 290.330615 
L 296.031564 290.944048 
L 296.190164 290.376054 
L 296.348764 291.602921 
L 296.665964 289.512703 
L 296.824565 291.148526 
L 297.141765 288.422155 
L 297.300365 294.897286 
L 297.458965 289.80806 
L 297.776166 287.149848 
L 298.093366 292.69347 
L 298.251966 286.513695 
L 298.410566 289.967098 
L 298.569166 290.171576 
L 298.727767 288.331276 
L 298.886367 283.514687 
L 299.044967 293.102425 
L 299.203567 287.94504 
L 299.362167 287.695122 
L 299.679368 291.443883 
L 299.837968 291.284844 
L 299.996568 286.740893 
L 300.313768 294.329292 
L 300.472368 291.512042 
L 300.630969 293.511381 
L 300.789569 287.490645 
L 300.948169 286.604574 
L 301.106769 294.033935 
L 301.265369 287.581524 
L 301.423969 286.150179 
L 301.58257 291.761959 
L 301.74117 291.103086 
L 301.89977 289.126467 
L 302.05837 291.989157 
L 302.21697 289.8535 
L 302.37557 293.488661 
L 302.534171 292.398113 
L 302.851371 287.92232 
L 303.009971 288.87655 
L 303.327171 294.102095 
L 303.485772 292.488992 
L 303.644372 293.465941 
L 303.802972 286.104739 
L 304.120172 294.124814 
L 304.278772 289.149187 
L 304.437373 291.830119 
L 304.595973 292.443552 
L 304.754573 289.035588 
L 304.913173 292.057316 
L 305.071773 292.784349 
L 305.230373 291.875558 
L 305.388974 290.285175 
L 305.547574 294.056655 
L 305.706174 291.512042 
L 305.864774 293.056986 
L 306.023374 290.830449 
L 306.181975 291.284844 
L 306.499175 289.035588 
L 306.657775 291.920998 
L 306.816375 289.149187 
L 306.974975 292.557151 
L 307.133576 292.852508 
L 307.292176 289.081028 
L 307.450776 289.671742 
L 307.767976 292.69347 
L 307.926576 290.217016 
L 308.085177 290.262455 
L 308.243777 290.73957 
L 308.560977 289.421824 
L 308.719577 286.922651 
L 308.878177 290.853169 
L 309.036778 290.148856 
L 309.195378 290.239736 
L 309.353978 285.514026 
L 309.512578 291.830119 
L 309.671178 288.967429 
L 309.829778 289.921659 
L 309.988379 289.240066 
L 310.146979 292.738909 
L 310.305579 290.73957 
L 310.464179 293.420502 
L 310.622779 291.307564 
L 310.781379 290.78501 
L 310.93998 278.220983 
L 311.09858 291.466603 
L 311.25718 291.398443 
L 311.41578 294.783687 
L 311.57438 291.648361 
L 311.73298 285.491306 
L 311.891581 292.329953 
L 312.050181 294.374732 
L 312.367381 288.172237 
L 312.525981 292.011877 
L 312.684581 291.216685 
L 312.843182 285.332267 
L 313.001782 290.73957 
L 313.318982 294.261133 
L 313.477582 290.671411 
L 313.636182 293.874897 
L 313.794783 293.056986 
L 314.429183 287.331606 
L 314.587783 291.012207 
L 314.746384 291.103086 
L 314.904984 285.877542 
L 315.380784 291.421163 
L 315.539384 288.126798 
L 315.856585 290.012538 
L 316.015185 289.489983 
L 316.173785 290.330615 
L 316.490985 293.147865 
L 316.649586 291.602921 
L 316.808186 292.738909 
L 316.966786 285.854822 
L 317.125386 290.330615 
L 317.442586 292.398113 
L 317.918387 290.625971 
L 318.076987 291.761959 
L 318.235587 290.126137 
L 318.394188 292.216355 
L 318.552788 292.738909 
L 318.869988 288.672072 
L 319.028588 291.989157 
L 319.187188 288.126798 
L 319.345789 290.603252 
L 319.504389 290.921328 
L 319.662989 286.104739 
L 319.821589 287.581524 
L 319.980189 287.308887 
L 320.138789 292.579871 
L 320.29739 289.603582 
L 320.61459 288.081358 
L 320.93179 293.011546 
L 321.09039 292.966107 
L 321.248991 294.374732 
L 321.566191 289.217346 
L 321.724791 287.854161 
L 321.883391 291.080367 
L 322.041991 288.467594 
L 322.359192 293.715859 
L 322.517792 291.034927 
L 322.676392 290.376054 
L 322.834992 292.807068 
L 322.993592 292.420832 
L 323.152193 289.78534 
L 323.310793 290.262455 
L 323.469393 291.284844 
L 323.786593 289.489983 
L 323.945193 293.011546 
L 324.103794 286.218338 
L 324.262394 290.921328 
L 324.420994 284.559796 
L 324.579594 292.239074 
L 324.896794 291.284844 
L 325.055395 292.307234 
L 325.213995 288.081358 
L 325.372595 292.988826 
L 325.531195 292.488992 
L 325.689795 290.921328 
L 325.848395 284.991471 
L 326.006996 292.329953 
L 326.165596 290.512373 
L 326.324196 292.875228 
L 326.482796 293.284183 
L 326.641396 292.148195 
L 326.799996 292.466272 
L 326.958597 288.444875 
L 327.117197 292.988826 
L 327.275797 291.284844 
L 327.434397 287.286167 
L 327.592997 288.035919 
L 327.751597 286.400096 
L 327.910198 291.466603 
L 328.068798 289.240066 
L 328.227398 291.239405 
L 328.544598 286.08202 
L 328.703198 290.921328 
L 328.861799 291.034927 
L 329.020399 292.488992 
L 329.178999 291.966437 
L 329.337599 285.922981 
L 329.496199 293.60226 
L 329.654799 287.195288 
L 329.8134 293.420502 
L 329.972 291.398443 
L 330.1306 292.488992 
L 330.2892 292.057316 
L 330.4478 289.262786 
L 330.6064 292.852508 
L 330.765001 290.376054 
L 330.923601 289.921659 
L 331.082201 293.60226 
L 331.240801 287.990479 
L 331.399401 293.102425 
L 331.558002 288.422155 
L 331.716602 292.011877 
L 331.875202 291.73924 
L 332.033802 291.103086 
L 332.192402 289.78534 
L 332.351002 291.852838 
L 332.509603 287.172568 
L 332.668203 291.398443 
L 332.826803 292.534431 
L 332.985403 289.308225 
L 333.302603 294.420171 
L 333.461204 289.944379 
L 333.619804 290.217016 
L 333.778404 288.694792 
L 334.095604 292.943387 
L 334.254204 293.102425 
L 334.412805 291.920998 
L 334.571405 288.649352 
L 334.730005 294.056655 
L 334.888605 287.104409 
L 335.047205 288.285836 
L 335.205805 287.377046 
L 335.364406 290.78501 
L 335.523006 289.603582 
L 335.681606 292.784349 
L 335.998806 290.671411 
L 336.157406 292.488992 
L 336.474607 290.217016 
L 336.633207 290.603252 
L 336.791807 289.694461 
L 336.950407 291.080367 
L 337.109007 288.83111 
L 337.426208 292.102756 
L 337.584808 294.329292 
L 337.743408 289.240066 
L 337.902008 287.854161 
L 338.060608 289.80806 
L 338.219209 284.877872 
L 338.536409 292.261794 
L 338.695009 290.898609 
L 338.853609 293.965776 
L 339.012209 291.534762 
L 339.17081 292.557151 
L 339.32941 289.944379 
L 339.48801 290.353334 
L 339.64661 291.080367 
L 339.96381 287.149848 
L 340.122411 288.785671 
L 340.281011 287.695122 
L 340.439611 288.85383 
L 340.598211 292.261794 
L 340.756811 288.921989 
L 340.915411 289.421824 
L 341.074012 292.69347 
L 341.232612 289.762621 
L 341.391212 292.875228 
L 341.549812 289.558143 
L 341.708412 291.057647 
L 341.867012 288.89927 
L 342.025613 289.649022 
L 342.184213 289.262786 
L 342.342813 286.400096 
L 342.501413 291.148526 
L 342.660013 289.717181 
L 342.818613 287.240727 
L 342.977214 290.012538 
L 343.135814 287.081689 
L 343.294414 289.103748 
L 343.453014 288.85383 
L 343.611614 285.968421 
L 343.770215 289.671742 
L 343.928815 290.71685 
L 344.087415 287.96776 
L 344.246015 291.830119 
L 344.404615 291.103086 
L 344.563215 291.080367 
L 344.721816 283.514687 
L 344.880416 290.966768 
L 345.039016 292.011877 
L 345.197616 290.557812 
L 345.356216 290.285175 
L 345.514816 287.558804 
L 345.673417 292.716189 
L 345.832017 292.284514 
L 346.149217 288.603913 
L 346.307817 288.944709 
L 346.625018 292.62531 
L 346.783618 292.579871 
L 346.942218 291.148526 
L 347.100818 292.329953 
L 347.259418 288.694792 
L 347.418018 288.87655 
L 347.576619 293.193304 
L 347.893819 285.718503 
L 348.052419 290.853169 
L 348.211019 287.808721 
L 348.369619 287.377046 
L 348.52822 291.625641 
L 348.68682 291.193965 
L 349.00402 286.490975 
L 349.16262 287.808721 
L 349.32122 291.012207 
L 349.479821 291.943718 
L 349.638421 291.73924 
L 349.955621 288.808391 
L 350.114221 290.625971 
L 350.272821 287.695122 
L 350.590022 293.534101 
L 350.748622 291.784679 
L 350.907222 288.558473 
L 351.065822 294.738248 
L 351.224422 292.284514 
L 351.383023 293.715859 
L 351.541623 291.966437 
L 351.858823 286.400096 
L 352.334624 291.512042 
L 352.493224 286.786332 
L 352.651824 289.399104 
L 352.810424 288.785671 
L 352.969024 289.80806 
L 353.127624 292.193635 
L 353.444825 284.287159 
L 353.920625 292.988826 
L 354.555026 287.763282 
L 354.713626 292.375393 
L 355.030826 283.651005 
L 355.348027 291.080367 
L 355.506627 292.011877 
L 355.665227 287.490645 
L 355.823827 291.330284 
L 355.982427 290.580532 
L 356.299628 292.62531 
L 356.458228 288.603913 
L 356.616828 291.648361 
L 356.775428 290.444213 
L 356.934029 291.034927 
L 357.092629 288.376715 
L 357.251229 289.353665 
L 357.409829 292.943387 
L 357.727029 286.96809 
L 357.88563 289.762621 
L 358.04423 290.466933 
L 358.20283 292.102756 
L 358.52003 290.398774 
L 358.67863 290.217016 
L 358.837231 291.67108 
L 358.995831 290.012538 
L 359.154431 290.966768 
L 359.313031 290.73957 
L 359.471631 289.512703 
L 359.788832 290.76229 
L 360.106032 292.352673 
L 360.264632 289.558143 
L 360.423232 291.943718 
L 360.581832 290.262455 
L 360.740433 291.057647 
L 360.899033 284.809713 
L 361.057633 293.943056 
L 361.216233 284.014521 
L 361.374833 288.558473 
L 361.533433 288.058639 
L 361.692034 290.921328 
L 361.850634 291.580201 
L 362.009234 285.514026 
L 362.326434 290.421494 
L 362.485034 289.78534 
L 362.643635 290.648691 
L 362.802235 292.170915 
L 363.119435 289.308225 
L 363.278035 284.605235 
L 363.595236 289.353665 
L 363.753836 286.263778 
L 364.071036 291.875558 
L 364.388236 287.786002 
L 364.546837 290.76229 
L 364.705437 289.467264 
L 364.864037 290.71685 
L 365.022637 290.285175 
L 365.339837 287.422485 
L 365.498438 288.626633 
L 365.657038 287.786002 
L 365.815638 289.058308 
L 365.974238 288.104078 
L 366.132838 290.557812 
L 366.291438 284.15084 
L 366.450039 288.194957 
L 366.608639 288.717512 
L 366.767239 288.172237 
L 366.925839 291.943718 
L 367.243039 287.331606 
L 367.40164 284.196279 
L 367.56024 289.558143 
L 367.71884 290.694131 
L 368.03604 287.01353 
L 368.511841 293.329623 
L 368.670441 290.853169 
L 368.829041 292.216355 
L 368.987641 286.899931 
L 369.146242 287.763282 
L 369.304842 291.557482 
L 369.463442 287.058969 
L 369.780642 291.284844 
L 369.939242 290.648691 
L 370.097843 286.195618 
L 370.256443 289.399104 
L 370.415043 289.649022 
L 370.573643 291.193965 
L 370.732243 289.739901 
L 370.890843 291.034927 
L 371.049444 291.125806 
L 371.208044 288.649352 
L 371.366644 289.126467 
L 371.683844 287.240727 
L 371.842444 290.921328 
L 372.001045 286.94537 
L 372.159645 289.308225 
L 372.476845 290.239736 
L 372.635445 289.126467 
L 372.794045 289.467264 
L 372.952646 291.73924 
L 373.111246 286.718173 
L 373.269846 292.443552 
L 373.587046 291.852838 
L 373.745646 288.399435 
L 373.904247 288.104078 
L 374.062847 288.399435 
L 374.221447 289.78534 
L 374.380047 285.854822 
L 374.697247 290.194296 
L 374.855848 288.308556 
L 375.014448 289.78534 
L 375.173048 288.490314 
L 375.331648 288.285836 
L 375.648848 291.852838 
L 375.807449 287.990479 
L 375.966049 291.262125 
L 376.124649 290.239736 
L 376.283249 287.377046 
L 376.441849 287.854161 
L 376.75905 289.694461 
L 377.07625 285.945701 
L 377.23485 290.194296 
L 377.39345 289.376385 
L 377.55205 291.421163 
L 377.710651 288.013199 
L 377.869251 288.87655 
L 378.027851 288.149518 
L 378.345051 289.194627 
L 378.503651 286.99081 
L 378.662252 290.875889 
L 378.820852 288.308556 
L 378.979452 290.875889 
L 379.138052 287.01353 
L 379.296652 290.103417 
L 379.455252 290.76229 
L 379.613853 282.946693 
L 379.931053 289.626302 
L 380.089653 288.694792 
L 380.248253 290.148856 
L 380.565454 287.399766 
L 380.724054 287.01353 
L 380.882654 290.080697 
L 381.041254 285.695784 
L 381.199854 288.422155 
L 381.517055 284.582515 
L 381.675655 288.194957 
L 381.834255 287.467925 
L 381.992855 290.580532 
L 382.310056 286.263778 
L 382.468656 288.422155 
L 382.627256 286.831772 
L 382.785856 283.787324 
L 382.944456 287.717842 
L 383.103056 282.674056 
L 383.261657 286.218338 
L 383.578857 287.763282 
L 383.737457 289.399104 
L 383.896057 288.467594 
L 384.054657 284.991471 
L 384.371858 288.535754 
L 384.530458 288.353995 
L 384.689058 287.149848 
L 384.847658 279.152493 
L 385.006258 287.876881 
L 385.164859 282.446858 
L 385.323459 288.263116 
L 385.482059 288.740231 
L 385.957859 284.218999 
L 386.11646 287.604243 
L 386.27506 286.01386 
L 386.43366 286.445536 
L 386.59226 285.741223 
L 386.75086 287.127128 
L 386.90946 287.218008 
L 387.068061 286.377376 
L 387.226661 286.94537 
L 387.385261 284.741554 
L 387.543861 287.876881 
L 387.702461 287.058969 
L 387.861061 284.12812 
L 388.019662 289.240066 
L 388.178262 285.900261 
L 388.336862 286.96809 
L 388.495462 285.99114 
L 388.812662 286.718173 
L 388.971263 284.855153 
L 389.129863 285.12779 
L 389.447063 282.878533 
L 389.605663 287.172568 
L 389.764263 283.741884 
L 389.922864 284.287159 
L 390.081464 283.037572 
L 390.240064 287.536084 
L 390.398664 280.992793 
L 390.557264 284.627955 
L 390.874465 281.833424 
L 391.033065 282.992132 
L 391.191665 281.878864 
L 391.350265 284.491636 
L 391.508865 275.381013 
L 391.826066 284.309878 
L 391.984666 284.696114 
L 392.301866 280.901914 
L 392.460466 286.559134 
L 392.619066 280.788316 
L 392.777667 284.332598 
L 392.936267 281.992463 
L 393.094867 283.991802 
L 393.412067 279.834086 
L 393.570667 283.060292 
L 393.729268 283.900923 
L 393.887868 278.902576 
L 394.046468 283.560126 
L 394.363668 279.993124 
L 394.522269 281.379029 
L 394.839469 280.515678 
L 394.998069 282.651336 
L 395.156669 281.083672 
L 395.315269 275.335573 
L 395.47387 280.061283 
L 395.63247 278.198263 
L 395.79107 282.355979 
L 396.26687 276.062606 
L 396.425471 281.742545 
L 396.584071 275.903567 
L 396.742671 275.062936 
L 396.901271 278.49362 
L 397.059871 273.517992 
L 397.218471 276.58516 
L 397.377072 276.539721 
L 397.535672 271.473214 
L 397.694272 275.721809 
L 397.852872 269.405716 
L 398.011472 269.655633 
L 398.170072 272.859119 
L 398.328673 269.542035 
L 398.487273 271.223297 
L 398.487273 271.223297 
" style="fill:none;stroke:#1f77b4;stroke-linecap:square;stroke-width:1.5;"/>
   </g>
   <g id="patch_3">
    <path d="M 57.6 307.584 
L 57.6 41.472 
" style="fill:none;stroke:#000000;stroke-linecap:square;stroke-linejoin:miter;stroke-width:0.8;"/>
   </g>
   <g id="patch_4">
    <path d="M 414.72 307.584 
L 414.72 41.472 
" style="fill:none;stroke:#000000;stroke-linecap:square;stroke-linejoin:miter;stroke-width:0.8;"/>
   </g>
   <g id="patch_5">
    <path d="M 57.6 307.584 
L 414.72 307.584 
" style="fill:none;stroke:#000000;stroke-linecap:square;stroke-linejoin:miter;stroke-width:0.8;"/>
   </g>
   <g id="patch_6">
    <path d="M 57.6 41.472 
L 414.72 41.472 
" style="fill:none;stroke:#000000;stroke-linecap:square;stroke-linejoin:miter;stroke-width:0.8;"/>
   </g>
   <g id="text_14">
    <!-- Raw signal -->
    <g transform="translate(203.8875 35.472)scale(0.12 -0.12)">
     <defs>
      <path d="M 2841 2188 
Q 3044 2119 3236 1894 
Q 3428 1669 3622 1275 
L 4263 0 
L 3584 0 
L 2988 1197 
Q 2756 1666 2539 1819 
Q 2322 1972 1947 1972 
L 1259 1972 
L 1259 0 
L 628 0 
L 628 4666 
L 2053 4666 
Q 2853 4666 3247 4331 
Q 3641 3997 3641 3322 
Q 3641 2881 3436 2590 
Q 3231 2300 2841 2188 
z
M 1259 4147 
L 1259 2491 
L 2053 2491 
Q 2509 2491 2742 2702 
Q 2975 2913 2975 3322 
Q 2975 3731 2742 3939 
Q 2509 4147 2053 4147 
L 1259 4147 
z
" id="DejaVuSans-52" transform="scale(0.015625)"/>
      <path d="M 269 3500 
L 844 3500 
L 1563 769 
L 2278 3500 
L 2956 3500 
L 3675 769 
L 4391 3500 
L 4966 3500 
L 4050 0 
L 3372 0 
L 2619 2869 
L 1863 0 
L 1184 0 
L 269 3500 
z
" id="DejaVuSans-77" transform="scale(0.015625)"/>
      <path d="M 603 3500 
L 1178 3500 
L 1178 0 
L 603 0 
L 603 3500 
z
M 603 4863 
L 1178 4863 
L 1178 4134 
L 603 4134 
L 603 4863 
z
" id="DejaVuSans-69" transform="scale(0.015625)"/>
     </defs>
     <use xlink:href="#DejaVuSans-52"/>
     <use x="67.232422" xlink:href="#DejaVuSans-61"/>
     <use x="128.511719" xlink:href="#DejaVuSans-77"/>
     <use x="210.298828" xlink:href="#DejaVuSans-20"/>
     <use x="242.085938" xlink:href="#DejaVuSans-73"/>
     <use x="294.185547" xlink:href="#DejaVuSans-69"/>
     <use x="321.96875" xlink:href="#DejaVuSans-67"/>
     <use x="385.445312" xlink:href="#DejaVuSans-6e"/>
     <use x="448.824219" xlink:href="#DejaVuSans-61"/>
     <use x="510.103516" xlink:href="#DejaVuSans-6c"/>
    </g>
   </g>
  </g>
 </g>
 <defs>
  <clipPath id="pa638a1174c">
   <rect height="266.112" width="357.12" x="57.6" y="41.472"/>
  </clipPath>
 </defs>
</svg>
