<?xml version="1.0" encoding="utf-8" standalone="no"?>
<!DOCTYPE svg PUBLIC "-//W3C//DTD SVG 1.1//EN"
  "http://www.w3.org/Graphics/SVG/1.1/DTD/svg11.dtd">
<svg height="345.6pt" version="1.1" viewBox="0 0 460.8 345.6" width="460.8pt" xmlns="http://www.w3.org/2000/svg" xmlns:xlink="http://www.w3.org/1999/xlink">
 <metadata>
  <rdf:RDF xmlns:cc="http://creativecommons.org/ns#" xmlns:dc="http://purl.org/dc/elements/1.1/" xmlns:rdf="http://www.w3.org/1999/02/22-rdf-syntax-ns#">
   <cc:Work>
    <dc:type rdf:resource="http://purl.org/dc/dcmitype/StillImage"/>
    <dc:date>2022-06-03T23:55:07.133023</dc:date>
    <dc:format>image/svg+xml</dc:format>
    <dc:creator>
     <cc:Agent>
      <dc:title>Matplotlib v3.4.1, https://matplotlib.org/</dc:title>
     </cc:Agent>
    </dc:creator>
   </cc:Work>
  </rdf:RDF>
 </metadata>
 <defs>
  <style type="text/css">*{stroke-linecap:butt;stroke-linejoin:round;}</style>
 </defs>
 <g id="figure_1">
  <g id="patch_1">
   <path d="M 0 345.6 
L 460.8 345.6 
L 460.8 0 
L 0 0 
z
" style="fill:#ffffff;"/>
  </g>
  <g id="axes_1">
   <g id="patch_2">
    <path d="M 57.6 307.584 
L 414.72 307.584 
L 414.72 41.472 
L 57.6 41.472 
z
" style="fill:#ffffff;"/>
   </g>
   <g id="matplotlib.axis_1">
    <g id="xtick_1">
     <g id="line2d_1">
      <defs>
       <path d="M 0 0 
L 0 3.5 
" id="m71913a7870" style="stroke:#000000;stroke-width:0.8;"/>
      </defs>
      <g>
       <use style="stroke:#000000;stroke-width:0.8;" x="102.929605" xlink:href="#m71913a7870" y="307.584"/>
      </g>
     </g>
     <g id="text_1">
      <!-- 400 -->
      <g transform="translate(93.385855 322.182437)scale(0.1 -0.1)">
       <defs>
        <path d="M 2419 4116 
L 825 1625 
L 2419 1625 
L 2419 4116 
z
M 2253 4666 
L 3047 4666 
L 3047 1625 
L 3713 1625 
L 3713 1100 
L 3047 1100 
L 3047 0 
L 2419 0 
L 2419 1100 
L 313 1100 
L 313 1709 
L 2253 4666 
z
" id="DejaVuSans-34" transform="scale(0.015625)"/>
        <path d="M 2034 4250 
Q 1547 4250 1301 3770 
Q 1056 3291 1056 2328 
Q 1056 1369 1301 889 
Q 1547 409 2034 409 
Q 2525 409 2770 889 
Q 3016 1369 3016 2328 
Q 3016 3291 2770 3770 
Q 2525 4250 2034 4250 
z
M 2034 4750 
Q 2819 4750 3233 4129 
Q 3647 3509 3647 2328 
Q 3647 1150 3233 529 
Q 2819 -91 2034 -91 
Q 1250 -91 836 529 
Q 422 1150 422 2328 
Q 422 3509 836 4129 
Q 1250 4750 2034 4750 
z
" id="DejaVuSans-30" transform="scale(0.015625)"/>
       </defs>
       <use xlink:href="#DejaVuSans-34"/>
       <use x="63.623047" xlink:href="#DejaVuSans-30"/>
       <use x="127.246094" xlink:href="#DejaVuSans-30"/>
      </g>
     </g>
    </g>
    <g id="xtick_2">
     <g id="line2d_2">
      <g>
       <use style="stroke:#000000;stroke-width:0.8;" x="160.931952" xlink:href="#m71913a7870" y="307.584"/>
      </g>
     </g>
     <g id="text_2">
      <!-- 600 -->
      <g transform="translate(151.388202 322.182437)scale(0.1 -0.1)">
       <defs>
        <path d="M 2113 2584 
Q 1688 2584 1439 2293 
Q 1191 2003 1191 1497 
Q 1191 994 1439 701 
Q 1688 409 2113 409 
Q 2538 409 2786 701 
Q 3034 994 3034 1497 
Q 3034 2003 2786 2293 
Q 2538 2584 2113 2584 
z
M 3366 4563 
L 3366 3988 
Q 3128 4100 2886 4159 
Q 2644 4219 2406 4219 
Q 1781 4219 1451 3797 
Q 1122 3375 1075 2522 
Q 1259 2794 1537 2939 
Q 1816 3084 2150 3084 
Q 2853 3084 3261 2657 
Q 3669 2231 3669 1497 
Q 3669 778 3244 343 
Q 2819 -91 2113 -91 
Q 1303 -91 875 529 
Q 447 1150 447 2328 
Q 447 3434 972 4092 
Q 1497 4750 2381 4750 
Q 2619 4750 2861 4703 
Q 3103 4656 3366 4563 
z
" id="DejaVuSans-36" transform="scale(0.015625)"/>
       </defs>
       <use xlink:href="#DejaVuSans-36"/>
       <use x="63.623047" xlink:href="#DejaVuSans-30"/>
       <use x="127.246094" xlink:href="#DejaVuSans-30"/>
      </g>
     </g>
    </g>
    <g id="xtick_3">
     <g id="line2d_3">
      <g>
       <use style="stroke:#000000;stroke-width:0.8;" x="218.9343" xlink:href="#m71913a7870" y="307.584"/>
      </g>
     </g>
     <g id="text_3">
      <!-- 800 -->
      <g transform="translate(209.39055 322.182437)scale(0.1 -0.1)">
       <defs>
        <path d="M 2034 2216 
Q 1584 2216 1326 1975 
Q 1069 1734 1069 1313 
Q 1069 891 1326 650 
Q 1584 409 2034 409 
Q 2484 409 2743 651 
Q 3003 894 3003 1313 
Q 3003 1734 2745 1975 
Q 2488 2216 2034 2216 
z
M 1403 2484 
Q 997 2584 770 2862 
Q 544 3141 544 3541 
Q 544 4100 942 4425 
Q 1341 4750 2034 4750 
Q 2731 4750 3128 4425 
Q 3525 4100 3525 3541 
Q 3525 3141 3298 2862 
Q 3072 2584 2669 2484 
Q 3125 2378 3379 2068 
Q 3634 1759 3634 1313 
Q 3634 634 3220 271 
Q 2806 -91 2034 -91 
Q 1263 -91 848 271 
Q 434 634 434 1313 
Q 434 1759 690 2068 
Q 947 2378 1403 2484 
z
M 1172 3481 
Q 1172 3119 1398 2916 
Q 1625 2713 2034 2713 
Q 2441 2713 2670 2916 
Q 2900 3119 2900 3481 
Q 2900 3844 2670 4047 
Q 2441 4250 2034 4250 
Q 1625 4250 1398 4047 
Q 1172 3844 1172 3481 
z
" id="DejaVuSans-38" transform="scale(0.015625)"/>
       </defs>
       <use xlink:href="#DejaVuSans-38"/>
       <use x="63.623047" xlink:href="#DejaVuSans-30"/>
       <use x="127.246094" xlink:href="#DejaVuSans-30"/>
      </g>
     </g>
    </g>
    <g id="xtick_4">
     <g id="line2d_4">
      <g>
       <use style="stroke:#000000;stroke-width:0.8;" x="276.936647" xlink:href="#m71913a7870" y="307.584"/>
      </g>
     </g>
     <g id="text_4">
      <!-- 1000 -->
      <g transform="translate(264.211647 322.182437)scale(0.1 -0.1)">
       <defs>
        <path d="M 794 531 
L 1825 531 
L 1825 4091 
L 703 3866 
L 703 4441 
L 1819 4666 
L 2450 4666 
L 2450 531 
L 3481 531 
L 3481 0 
L 794 0 
L 794 531 
z
" id="DejaVuSans-31" transform="scale(0.015625)"/>
       </defs>
       <use xlink:href="#DejaVuSans-31"/>
       <use x="63.623047" xlink:href="#DejaVuSans-30"/>
       <use x="127.246094" xlink:href="#DejaVuSans-30"/>
       <use x="190.869141" xlink:href="#DejaVuSans-30"/>
      </g>
     </g>
    </g>
    <g id="xtick_5">
     <g id="line2d_5">
      <g>
       <use style="stroke:#000000;stroke-width:0.8;" x="334.938995" xlink:href="#m71913a7870" y="307.584"/>
      </g>
     </g>
     <g id="text_5">
      <!-- 1200 -->
      <g transform="translate(322.213995 322.182437)scale(0.1 -0.1)">
       <defs>
        <path d="M 1228 531 
L 3431 531 
L 3431 0 
L 469 0 
L 469 531 
Q 828 903 1448 1529 
Q 2069 2156 2228 2338 
Q 2531 2678 2651 2914 
Q 2772 3150 2772 3378 
Q 2772 3750 2511 3984 
Q 2250 4219 1831 4219 
Q 1534 4219 1204 4116 
Q 875 4013 500 3803 
L 500 4441 
Q 881 4594 1212 4672 
Q 1544 4750 1819 4750 
Q 2544 4750 2975 4387 
Q 3406 4025 3406 3419 
Q 3406 3131 3298 2873 
Q 3191 2616 2906 2266 
Q 2828 2175 2409 1742 
Q 1991 1309 1228 531 
z
" id="DejaVuSans-32" transform="scale(0.015625)"/>
       </defs>
       <use xlink:href="#DejaVuSans-31"/>
       <use x="63.623047" xlink:href="#DejaVuSans-32"/>
       <use x="127.246094" xlink:href="#DejaVuSans-30"/>
       <use x="190.869141" xlink:href="#DejaVuSans-30"/>
      </g>
     </g>
    </g>
    <g id="xtick_6">
     <g id="line2d_6">
      <g>
       <use style="stroke:#000000;stroke-width:0.8;" x="392.941342" xlink:href="#m71913a7870" y="307.584"/>
      </g>
     </g>
     <g id="text_6">
      <!-- 1400 -->
      <g transform="translate(380.216342 322.182437)scale(0.1 -0.1)">
       <use xlink:href="#DejaVuSans-31"/>
       <use x="63.623047" xlink:href="#DejaVuSans-34"/>
       <use x="127.246094" xlink:href="#DejaVuSans-30"/>
       <use x="190.869141" xlink:href="#DejaVuSans-30"/>
      </g>
     </g>
    </g>
    <g id="text_7">
     <!-- Wavelength [nm] -->
     <g transform="translate(192.967812 335.860562)scale(0.1 -0.1)">
      <defs>
       <path d="M 213 4666 
L 850 4666 
L 1831 722 
L 2809 4666 
L 3519 4666 
L 4500 722 
L 5478 4666 
L 6119 4666 
L 4947 0 
L 4153 0 
L 3169 4050 
L 2175 0 
L 1381 0 
L 213 4666 
z
" id="DejaVuSans-57" transform="scale(0.015625)"/>
       <path d="M 2194 1759 
Q 1497 1759 1228 1600 
Q 959 1441 959 1056 
Q 959 750 1161 570 
Q 1363 391 1709 391 
Q 2188 391 2477 730 
Q 2766 1069 2766 1631 
L 2766 1759 
L 2194 1759 
z
M 3341 1997 
L 3341 0 
L 2766 0 
L 2766 531 
Q 2569 213 2275 61 
Q 1981 -91 1556 -91 
Q 1019 -91 701 211 
Q 384 513 384 1019 
Q 384 1609 779 1909 
Q 1175 2209 1959 2209 
L 2766 2209 
L 2766 2266 
Q 2766 2663 2505 2880 
Q 2244 3097 1772 3097 
Q 1472 3097 1187 3025 
Q 903 2953 641 2809 
L 641 3341 
Q 956 3463 1253 3523 
Q 1550 3584 1831 3584 
Q 2591 3584 2966 3190 
Q 3341 2797 3341 1997 
z
" id="DejaVuSans-61" transform="scale(0.015625)"/>
       <path d="M 191 3500 
L 800 3500 
L 1894 563 
L 2988 3500 
L 3597 3500 
L 2284 0 
L 1503 0 
L 191 3500 
z
" id="DejaVuSans-76" transform="scale(0.015625)"/>
       <path d="M 3597 1894 
L 3597 1613 
L 953 1613 
Q 991 1019 1311 708 
Q 1631 397 2203 397 
Q 2534 397 2845 478 
Q 3156 559 3463 722 
L 3463 178 
Q 3153 47 2828 -22 
Q 2503 -91 2169 -91 
Q 1331 -91 842 396 
Q 353 884 353 1716 
Q 353 2575 817 3079 
Q 1281 3584 2069 3584 
Q 2775 3584 3186 3129 
Q 3597 2675 3597 1894 
z
M 3022 2063 
Q 3016 2534 2758 2815 
Q 2500 3097 2075 3097 
Q 1594 3097 1305 2825 
Q 1016 2553 972 2059 
L 3022 2063 
z
" id="DejaVuSans-65" transform="scale(0.015625)"/>
       <path d="M 603 4863 
L 1178 4863 
L 1178 0 
L 603 0 
L 603 4863 
z
" id="DejaVuSans-6c" transform="scale(0.015625)"/>
       <path d="M 3513 2113 
L 3513 0 
L 2938 0 
L 2938 2094 
Q 2938 2591 2744 2837 
Q 2550 3084 2163 3084 
Q 1697 3084 1428 2787 
Q 1159 2491 1159 1978 
L 1159 0 
L 581 0 
L 581 3500 
L 1159 3500 
L 1159 2956 
Q 1366 3272 1645 3428 
Q 1925 3584 2291 3584 
Q 2894 3584 3203 3211 
Q 3513 2838 3513 2113 
z
" id="DejaVuSans-6e" transform="scale(0.015625)"/>
       <path d="M 2906 1791 
Q 2906 2416 2648 2759 
Q 2391 3103 1925 3103 
Q 1463 3103 1205 2759 
Q 947 2416 947 1791 
Q 947 1169 1205 825 
Q 1463 481 1925 481 
Q 2391 481 2648 825 
Q 2906 1169 2906 1791 
z
M 3481 434 
Q 3481 -459 3084 -895 
Q 2688 -1331 1869 -1331 
Q 1566 -1331 1297 -1286 
Q 1028 -1241 775 -1147 
L 775 -588 
Q 1028 -725 1275 -790 
Q 1522 -856 1778 -856 
Q 2344 -856 2625 -561 
Q 2906 -266 2906 331 
L 2906 616 
Q 2728 306 2450 153 
Q 2172 0 1784 0 
Q 1141 0 747 490 
Q 353 981 353 1791 
Q 353 2603 747 3093 
Q 1141 3584 1784 3584 
Q 2172 3584 2450 3431 
Q 2728 3278 2906 2969 
L 2906 3500 
L 3481 3500 
L 3481 434 
z
" id="DejaVuSans-67" transform="scale(0.015625)"/>
       <path d="M 1172 4494 
L 1172 3500 
L 2356 3500 
L 2356 3053 
L 1172 3053 
L 1172 1153 
Q 1172 725 1289 603 
Q 1406 481 1766 481 
L 2356 481 
L 2356 0 
L 1766 0 
Q 1100 0 847 248 
Q 594 497 594 1153 
L 594 3053 
L 172 3053 
L 172 3500 
L 594 3500 
L 594 4494 
L 1172 4494 
z
" id="DejaVuSans-74" transform="scale(0.015625)"/>
       <path d="M 3513 2113 
L 3513 0 
L 2938 0 
L 2938 2094 
Q 2938 2591 2744 2837 
Q 2550 3084 2163 3084 
Q 1697 3084 1428 2787 
Q 1159 2491 1159 1978 
L 1159 0 
L 581 0 
L 581 4863 
L 1159 4863 
L 1159 2956 
Q 1366 3272 1645 3428 
Q 1925 3584 2291 3584 
Q 2894 3584 3203 3211 
Q 3513 2838 3513 2113 
z
" id="DejaVuSans-68" transform="scale(0.015625)"/>
       <path id="DejaVuSans-20" transform="scale(0.015625)"/>
       <path d="M 550 4863 
L 1875 4863 
L 1875 4416 
L 1125 4416 
L 1125 -397 
L 1875 -397 
L 1875 -844 
L 550 -844 
L 550 4863 
z
" id="DejaVuSans-5b" transform="scale(0.015625)"/>
       <path d="M 3328 2828 
Q 3544 3216 3844 3400 
Q 4144 3584 4550 3584 
Q 5097 3584 5394 3201 
Q 5691 2819 5691 2113 
L 5691 0 
L 5113 0 
L 5113 2094 
Q 5113 2597 4934 2840 
Q 4756 3084 4391 3084 
Q 3944 3084 3684 2787 
Q 3425 2491 3425 1978 
L 3425 0 
L 2847 0 
L 2847 2094 
Q 2847 2600 2669 2842 
Q 2491 3084 2119 3084 
Q 1678 3084 1418 2786 
Q 1159 2488 1159 1978 
L 1159 0 
L 581 0 
L 581 3500 
L 1159 3500 
L 1159 2956 
Q 1356 3278 1631 3431 
Q 1906 3584 2284 3584 
Q 2666 3584 2933 3390 
Q 3200 3197 3328 2828 
z
" id="DejaVuSans-6d" transform="scale(0.015625)"/>
       <path d="M 1947 4863 
L 1947 -844 
L 622 -844 
L 622 -397 
L 1369 -397 
L 1369 4416 
L 622 4416 
L 622 4863 
L 1947 4863 
z
" id="DejaVuSans-5d" transform="scale(0.015625)"/>
      </defs>
      <use xlink:href="#DejaVuSans-57"/>
      <use x="92.501953" xlink:href="#DejaVuSans-61"/>
      <use x="153.78125" xlink:href="#DejaVuSans-76"/>
      <use x="212.960938" xlink:href="#DejaVuSans-65"/>
      <use x="274.484375" xlink:href="#DejaVuSans-6c"/>
      <use x="302.267578" xlink:href="#DejaVuSans-65"/>
      <use x="363.791016" xlink:href="#DejaVuSans-6e"/>
      <use x="427.169922" xlink:href="#DejaVuSans-67"/>
      <use x="490.646484" xlink:href="#DejaVuSans-74"/>
      <use x="529.855469" xlink:href="#DejaVuSans-68"/>
      <use x="593.234375" xlink:href="#DejaVuSans-20"/>
      <use x="625.021484" xlink:href="#DejaVuSans-5b"/>
      <use x="664.035156" xlink:href="#DejaVuSans-6e"/>
      <use x="727.414062" xlink:href="#DejaVuSans-6d"/>
      <use x="824.826172" xlink:href="#DejaVuSans-5d"/>
     </g>
    </g>
   </g>
   <g id="matplotlib.axis_2">
    <g id="ytick_1">
     <g id="line2d_7">
      <defs>
       <path d="M 0 0 
L -3.5 0 
" id="me0e01da672" style="stroke:#000000;stroke-width:0.8;"/>
      </defs>
      <g>
       <use style="stroke:#000000;stroke-width:0.8;" x="57.6" xlink:href="#me0e01da672" y="295.752973"/>
      </g>
     </g>
     <g id="text_8">
      <!-- 1000 -->
      <g transform="translate(25.15 299.552191)scale(0.1 -0.1)">
       <use xlink:href="#DejaVuSans-31"/>
       <use x="63.623047" xlink:href="#DejaVuSans-30"/>
       <use x="127.246094" xlink:href="#DejaVuSans-30"/>
       <use x="190.869141" xlink:href="#DejaVuSans-30"/>
      </g>
     </g>
    </g>
    <g id="ytick_2">
     <g id="line2d_8">
      <g>
       <use style="stroke:#000000;stroke-width:0.8;" x="57.6" xlink:href="#me0e01da672" y="262.631395"/>
      </g>
     </g>
     <g id="text_9">
      <!-- 2000 -->
      <g transform="translate(25.15 266.430614)scale(0.1 -0.1)">
       <use xlink:href="#DejaVuSans-32"/>
       <use x="63.623047" xlink:href="#DejaVuSans-30"/>
       <use x="127.246094" xlink:href="#DejaVuSans-30"/>
       <use x="190.869141" xlink:href="#DejaVuSans-30"/>
      </g>
     </g>
    </g>
    <g id="ytick_3">
     <g id="line2d_9">
      <g>
       <use style="stroke:#000000;stroke-width:0.8;" x="57.6" xlink:href="#me0e01da672" y="229.509818"/>
      </g>
     </g>
     <g id="text_10">
      <!-- 3000 -->
      <g transform="translate(25.15 233.309037)scale(0.1 -0.1)">
       <defs>
        <path d="M 2597 2516 
Q 3050 2419 3304 2112 
Q 3559 1806 3559 1356 
Q 3559 666 3084 287 
Q 2609 -91 1734 -91 
Q 1441 -91 1130 -33 
Q 819 25 488 141 
L 488 750 
Q 750 597 1062 519 
Q 1375 441 1716 441 
Q 2309 441 2620 675 
Q 2931 909 2931 1356 
Q 2931 1769 2642 2001 
Q 2353 2234 1838 2234 
L 1294 2234 
L 1294 2753 
L 1863 2753 
Q 2328 2753 2575 2939 
Q 2822 3125 2822 3475 
Q 2822 3834 2567 4026 
Q 2313 4219 1838 4219 
Q 1578 4219 1281 4162 
Q 984 4106 628 3988 
L 628 4550 
Q 988 4650 1302 4700 
Q 1616 4750 1894 4750 
Q 2613 4750 3031 4423 
Q 3450 4097 3450 3541 
Q 3450 3153 3228 2886 
Q 3006 2619 2597 2516 
z
" id="DejaVuSans-33" transform="scale(0.015625)"/>
       </defs>
       <use xlink:href="#DejaVuSans-33"/>
       <use x="63.623047" xlink:href="#DejaVuSans-30"/>
       <use x="127.246094" xlink:href="#DejaVuSans-30"/>
       <use x="190.869141" xlink:href="#DejaVuSans-30"/>
      </g>
     </g>
    </g>
    <g id="ytick_4">
     <g id="line2d_10">
      <g>
       <use style="stroke:#000000;stroke-width:0.8;" x="57.6" xlink:href="#me0e01da672" y="196.388241"/>
      </g>
     </g>
     <g id="text_11">
      <!-- 4000 -->
      <g transform="translate(25.15 200.18746)scale(0.1 -0.1)">
       <use xlink:href="#DejaVuSans-34"/>
       <use x="63.623047" xlink:href="#DejaVuSans-30"/>
       <use x="127.246094" xlink:href="#DejaVuSans-30"/>
       <use x="190.869141" xlink:href="#DejaVuSans-30"/>
      </g>
     </g>
    </g>
    <g id="ytick_5">
     <g id="line2d_11">
      <g>
       <use style="stroke:#000000;stroke-width:0.8;" x="57.6" xlink:href="#me0e01da672" y="163.266664"/>
      </g>
     </g>
     <g id="text_12">
      <!-- 5000 -->
      <g transform="translate(25.15 167.065882)scale(0.1 -0.1)">
       <defs>
        <path d="M 691 4666 
L 3169 4666 
L 3169 4134 
L 1269 4134 
L 1269 2991 
Q 1406 3038 1543 3061 
Q 1681 3084 1819 3084 
Q 2600 3084 3056 2656 
Q 3513 2228 3513 1497 
Q 3513 744 3044 326 
Q 2575 -91 1722 -91 
Q 1428 -91 1123 -41 
Q 819 9 494 109 
L 494 744 
Q 775 591 1075 516 
Q 1375 441 1709 441 
Q 2250 441 2565 725 
Q 2881 1009 2881 1497 
Q 2881 1984 2565 2268 
Q 2250 2553 1709 2553 
Q 1456 2553 1204 2497 
Q 953 2441 691 2322 
L 691 4666 
z
" id="DejaVuSans-35" transform="scale(0.015625)"/>
       </defs>
       <use xlink:href="#DejaVuSans-35"/>
       <use x="63.623047" xlink:href="#DejaVuSans-30"/>
       <use x="127.246094" xlink:href="#DejaVuSans-30"/>
       <use x="190.869141" xlink:href="#DejaVuSans-30"/>
      </g>
     </g>
    </g>
    <g id="ytick_6">
     <g id="line2d_12">
      <g>
       <use style="stroke:#000000;stroke-width:0.8;" x="57.6" xlink:href="#me0e01da672" y="130.145087"/>
      </g>
     </g>
     <g id="text_13">
      <!-- 6000 -->
      <g transform="translate(25.15 133.944305)scale(0.1 -0.1)">
       <use xlink:href="#DejaVuSans-36"/>
       <use x="63.623047" xlink:href="#DejaVuSans-30"/>
       <use x="127.246094" xlink:href="#DejaVuSans-30"/>
       <use x="190.869141" xlink:href="#DejaVuSans-30"/>
      </g>
     </g>
    </g>
    <g id="ytick_7">
     <g id="line2d_13">
      <g>
       <use style="stroke:#000000;stroke-width:0.8;" x="57.6" xlink:href="#me0e01da672" y="97.023509"/>
      </g>
     </g>
     <g id="text_14">
      <!-- 7000 -->
      <g transform="translate(25.15 100.822728)scale(0.1 -0.1)">
       <defs>
        <path d="M 525 4666 
L 3525 4666 
L 3525 4397 
L 1831 0 
L 1172 0 
L 2766 4134 
L 525 4134 
L 525 4666 
z
" id="DejaVuSans-37" transform="scale(0.015625)"/>
       </defs>
       <use xlink:href="#DejaVuSans-37"/>
       <use x="63.623047" xlink:href="#DejaVuSans-30"/>
       <use x="127.246094" xlink:href="#DejaVuSans-30"/>
       <use x="190.869141" xlink:href="#DejaVuSans-30"/>
      </g>
     </g>
    </g>
    <g id="ytick_8">
     <g id="line2d_14">
      <g>
       <use style="stroke:#000000;stroke-width:0.8;" x="57.6" xlink:href="#me0e01da672" y="63.901932"/>
      </g>
     </g>
     <g id="text_15">
      <!-- 8000 -->
      <g transform="translate(25.15 67.701151)scale(0.1 -0.1)">
       <use xlink:href="#DejaVuSans-38"/>
       <use x="63.623047" xlink:href="#DejaVuSans-30"/>
       <use x="127.246094" xlink:href="#DejaVuSans-30"/>
       <use x="190.869141" xlink:href="#DejaVuSans-30"/>
      </g>
     </g>
    </g>
    <g id="text_16">
     <!-- Counts -->
     <g transform="translate(19.070312 191.981125)rotate(-90)scale(0.1 -0.1)">
      <defs>
       <path d="M 4122 4306 
L 4122 3641 
Q 3803 3938 3442 4084 
Q 3081 4231 2675 4231 
Q 1875 4231 1450 3742 
Q 1025 3253 1025 2328 
Q 1025 1406 1450 917 
Q 1875 428 2675 428 
Q 3081 428 3442 575 
Q 3803 722 4122 1019 
L 4122 359 
Q 3791 134 3420 21 
Q 3050 -91 2638 -91 
Q 1578 -91 968 557 
Q 359 1206 359 2328 
Q 359 3453 968 4101 
Q 1578 4750 2638 4750 
Q 3056 4750 3426 4639 
Q 3797 4528 4122 4306 
z
" id="DejaVuSans-43" transform="scale(0.015625)"/>
       <path d="M 1959 3097 
Q 1497 3097 1228 2736 
Q 959 2375 959 1747 
Q 959 1119 1226 758 
Q 1494 397 1959 397 
Q 2419 397 2687 759 
Q 2956 1122 2956 1747 
Q 2956 2369 2687 2733 
Q 2419 3097 1959 3097 
z
M 1959 3584 
Q 2709 3584 3137 3096 
Q 3566 2609 3566 1747 
Q 3566 888 3137 398 
Q 2709 -91 1959 -91 
Q 1206 -91 779 398 
Q 353 888 353 1747 
Q 353 2609 779 3096 
Q 1206 3584 1959 3584 
z
" id="DejaVuSans-6f" transform="scale(0.015625)"/>
       <path d="M 544 1381 
L 544 3500 
L 1119 3500 
L 1119 1403 
Q 1119 906 1312 657 
Q 1506 409 1894 409 
Q 2359 409 2629 706 
Q 2900 1003 2900 1516 
L 2900 3500 
L 3475 3500 
L 3475 0 
L 2900 0 
L 2900 538 
Q 2691 219 2414 64 
Q 2138 -91 1772 -91 
Q 1169 -91 856 284 
Q 544 659 544 1381 
z
M 1991 3584 
L 1991 3584 
z
" id="DejaVuSans-75" transform="scale(0.015625)"/>
       <path d="M 2834 3397 
L 2834 2853 
Q 2591 2978 2328 3040 
Q 2066 3103 1784 3103 
Q 1356 3103 1142 2972 
Q 928 2841 928 2578 
Q 928 2378 1081 2264 
Q 1234 2150 1697 2047 
L 1894 2003 
Q 2506 1872 2764 1633 
Q 3022 1394 3022 966 
Q 3022 478 2636 193 
Q 2250 -91 1575 -91 
Q 1294 -91 989 -36 
Q 684 19 347 128 
L 347 722 
Q 666 556 975 473 
Q 1284 391 1588 391 
Q 1994 391 2212 530 
Q 2431 669 2431 922 
Q 2431 1156 2273 1281 
Q 2116 1406 1581 1522 
L 1381 1569 
Q 847 1681 609 1914 
Q 372 2147 372 2553 
Q 372 3047 722 3315 
Q 1072 3584 1716 3584 
Q 2034 3584 2315 3537 
Q 2597 3491 2834 3397 
z
" id="DejaVuSans-73" transform="scale(0.015625)"/>
      </defs>
      <use xlink:href="#DejaVuSans-43"/>
      <use x="69.824219" xlink:href="#DejaVuSans-6f"/>
      <use x="131.005859" xlink:href="#DejaVuSans-75"/>
      <use x="194.384766" xlink:href="#DejaVuSans-6e"/>
      <use x="257.763672" xlink:href="#DejaVuSans-74"/>
      <use x="296.972656" xlink:href="#DejaVuSans-73"/>
     </g>
    </g>
   </g>
   <g id="line2d_15">
    <path clip-path="url(#pba785dc817)" d="M 73.832727 249.780223 
L 73.991327 259.58421 
L 74.149928 250.045196 
L 74.308528 223.547934 
L 74.467128 249.515251 
L 74.625728 242.758449 
L 74.784328 272.965327 
L 74.942928 263.293827 
L 75.101529 276.939917 
L 75.418729 243.685853 
L 75.577329 261.571505 
L 75.894529 224.475338 
L 76.21173 241.831045 
L 76.37033 222.753016 
L 76.52893 251.900004 
L 76.68753 256.801998 
L 76.84613 269.918142 
L 77.004731 257.331943 
L 77.163331 259.58421 
L 77.480531 255.212162 
L 77.639131 208.047036 
L 77.797731 265.016149 
L 77.956332 200.760289 
L 78.114932 264.883663 
L 78.273532 237.458997 
L 78.432132 284.756609 
L 78.590732 279.192184 
L 78.749333 246.733038 
L 78.907933 273.627759 
L 79.066533 254.019785 
L 79.225133 251.370059 
L 79.700934 276.277485 
L 79.859534 267.665875 
L 80.018134 241.698559 
L 80.176734 278.927211 
L 80.335334 253.622326 
L 80.652535 268.063334 
L 80.811135 277.337376 
L 80.969735 234.146839 
L 81.128335 257.464429 
L 81.286935 251.767518 
L 81.445535 267.400903 
L 81.604136 258.789292 
L 81.762736 256.669512 
L 81.921336 213.346488 
L 82.079936 263.823772 
L 82.238536 258.126861 
L 82.555737 273.097814 
L 82.872937 256.669512 
L 83.031537 281.179479 
L 83.190137 270.448088 
L 83.348737 241.698559 
L 83.507338 275.217595 
L 83.665938 252.297463 
L 83.824538 275.217595 
L 84.141738 233.086949 
L 84.300338 268.858252 
L 84.458939 260.776587 
L 84.617539 268.063334 
L 84.776139 283.034287 
L 85.093339 242.625963 
L 85.251939 234.544298 
L 85.41054 275.085108 
L 85.56914 264.221231 
L 85.72774 271.905437 
L 85.88634 250.707628 
L 86.20354 282.106883 
L 86.362141 230.702195 
L 86.520741 245.805634 
L 86.679341 274.68765 
L 86.996541 239.976237 
L 87.155141 263.426313 
L 87.472342 245.540662 
L 87.630942 256.272053 
L 87.789542 281.046992 
L 87.948142 216.52616 
L 88.106742 264.088745 
L 88.265343 265.546094 
L 88.423943 274.820136 
L 88.741143 268.858252 
L 88.899743 261.306532 
L 89.058343 276.144999 
L 89.216944 268.063334 
L 89.375544 238.518887 
L 89.534144 284.35915 
L 89.692744 262.896368 
L 89.851344 284.35915 
L 90.009944 238.916346 
L 90.327145 282.901801 
L 90.485745 232.159544 
L 90.644345 275.880026 
L 90.802945 276.277485 
L 90.961545 263.823772 
L 91.120146 274.952622 
L 91.278746 264.221231 
L 91.437346 267.930848 
L 91.595946 284.491636 
L 91.754546 262.233936 
L 91.913147 268.063334 
L 92.071747 248.45536 
L 92.230347 276.542458 
L 92.388947 276.674944 
L 92.547547 233.74938 
L 92.864748 272.567869 
L 93.023348 269.785656 
L 93.181948 286.611417 
L 93.340548 256.404539 
L 93.657748 282.504342 
L 93.816349 257.06697 
L 94.133549 259.716697 
L 94.292149 262.498909 
L 94.450749 268.858252 
L 94.609349 269.520683 
L 94.76795 269.65317 
L 94.92655 267.400903 
L 95.08515 218.513455 
L 95.24375 248.190388 
L 95.56095 259.451724 
L 95.719551 246.998011 
L 95.878151 277.469862 
L 96.036751 273.2303 
L 96.195351 258.921779 
L 96.353951 229.642304 
L 96.512551 256.404539 
L 96.671152 263.956258 
L 96.829752 246.070607 
L 96.988352 276.80743 
L 97.146952 268.19582 
L 97.305552 248.322874 
L 97.464152 255.742107 
L 97.622753 270.315601 
L 97.781353 249.382765 
L 97.939953 254.947189 
L 98.098553 268.990738 
L 98.257153 250.045196 
L 98.415753 263.5588 
L 98.574354 263.691286 
L 98.732954 241.698559 
L 98.891554 249.515251 
L 99.050154 269.65317 
L 99.208754 271.507978 
L 99.367354 278.132294 
L 99.525955 266.870957 
L 99.684555 232.424517 
L 99.843155 279.32467 
L 100.001755 271.110519 
L 100.160355 272.435382 
L 100.318955 293.235733 
L 100.477556 271.772951 
L 100.636156 268.328307 
L 100.794756 253.887299 
L 100.953356 223.017989 
L 101.111956 270.845547 
L 101.270556 245.143203 
L 101.429157 290.056061 
L 101.587757 266.473498 
L 101.746357 277.072403 
L 101.904957 231.762085 
L 102.222157 268.063334 
L 102.380758 274.555163 
L 102.539358 276.144999 
L 102.697958 267.003444 
L 102.856558 238.121428 
L 103.173758 281.179479 
L 103.490959 235.869161 
L 103.649559 270.448088 
L 103.808159 271.905437 
L 103.966759 263.956258 
L 104.12536 269.123225 
L 104.28396 238.651373 
L 104.60116 253.224867 
L 104.91836 274.025218 
L 105.076961 258.126861 
L 105.235561 268.990738 
L 105.394161 229.509818 
L 105.552761 254.417244 
L 105.869961 258.656806 
L 106.028562 282.504342 
L 106.187162 268.328307 
L 106.345762 278.529752 
L 106.662962 272.435382 
L 106.821562 264.883663 
L 106.980163 251.370059 
L 107.138763 270.845547 
L 107.297363 249.780223 
L 107.614563 276.542458 
L 107.931764 248.190388 
L 108.090364 267.400903 
L 108.248964 262.366423 
L 108.407564 249.91271 
L 108.566164 285.948986 
L 108.724764 250.840114 
L 108.883365 269.918142 
L 109.041965 255.742107 
L 109.200565 268.063334 
L 109.359165 231.099654 
L 109.517765 268.328307 
L 109.676365 276.144999 
L 109.834966 242.625963 
L 110.152166 274.952622 
L 110.310766 257.729402 
L 110.469366 272.965327 
L 110.627966 270.845547 
L 110.786567 257.331943 
L 110.945167 278.397266 
L 111.103767 248.720333 
L 111.262367 267.665875 
L 111.420967 260.776587 
L 111.579567 278.662239 
L 111.738168 242.096018 
L 111.896768 285.419041 
L 112.055368 226.462633 
L 112.372568 250.177682 
L 112.531168 276.939917 
L 112.689769 266.738471 
L 113.006969 281.311965 
L 113.165569 267.798361 
L 113.324169 280.914506 
L 113.482769 272.567869 
L 113.64137 252.694922 
L 113.79997 255.079676 
L 113.95857 273.627759 
L 114.11717 268.593279 
L 114.27577 279.589643 
L 114.43437 254.417244 
L 114.592971 281.444451 
L 114.751571 273.097814 
L 114.910171 274.820136 
L 115.227371 254.947189 
L 115.544572 285.419041 
L 115.861772 252.032491 
L 116.178972 286.081472 
L 116.337573 207.119632 
L 116.496173 250.045196 
L 116.654773 244.215798 
L 116.813373 175.720377 
L 116.971973 274.157704 
L 117.130573 223.150475 
L 117.289174 276.542458 
L 117.447774 267.268416 
L 117.606374 286.743904 
L 117.923574 264.221231 
L 118.240775 290.321034 
L 118.399375 251.502545 
L 118.557975 252.032491 
L 118.716575 254.417244 
L 119.033775 275.880026 
L 119.350976 286.478931 
L 119.509576 269.785656 
L 119.668176 269.65317 
L 119.826776 265.811067 
L 119.985376 272.832841 
L 120.302577 242.228504 
L 120.461177 277.072403 
L 120.619777 278.26478 
L 120.778377 273.362786 
L 120.936977 182.07972 
L 121.095578 249.647737 
L 121.254178 265.148635 
L 121.412778 259.451724 
L 121.571378 270.050629 
L 121.729978 253.092381 
L 121.888578 278.927211 
L 122.047179 264.61869 
L 122.205779 273.097814 
L 122.364379 274.422677 
L 122.522979 273.362786 
L 122.681579 258.391834 
L 122.840179 275.217595 
L 122.99878 274.68765 
L 123.15738 276.144999 
L 123.47458 266.076039 
L 123.63318 285.684013 
L 123.79178 258.259347 
L 123.950381 252.164977 
L 124.108981 268.593279 
L 124.267581 254.152272 
L 124.426181 257.199457 
L 124.584781 271.772951 
L 124.743381 251.370059 
L 124.901982 283.431746 
L 125.219182 253.754813 
L 125.694982 281.046992 
L 125.853583 209.901844 
L 126.012183 264.088745 
L 126.329383 264.353717 
L 126.487983 265.281122 
L 126.646583 256.669512 
L 126.805184 268.19582 
L 127.122384 263.293827 
L 127.280984 269.255711 
L 127.439584 285.154068 
L 127.598184 283.034287 
L 127.756785 278.132294 
L 127.915385 268.063334 
L 128.073985 285.551527 
L 128.391185 234.411812 
L 128.708386 273.362786 
L 128.866986 261.306532 
L 129.025586 276.012513 
L 129.342786 266.076039 
L 129.501387 275.217595 
L 129.659987 274.422677 
L 129.818587 272.832841 
L 129.977187 260.246642 
L 130.135787 270.448088 
L 130.294387 266.208526 
L 130.452988 281.974396 
L 130.611588 274.290191 
L 130.770188 274.290191 
L 130.928788 268.593279 
L 131.087388 254.152272 
L 131.563189 288.731198 
L 131.880389 243.950826 
L 132.038989 263.823772 
L 132.35619 237.856456 
L 132.51479 283.034287 
L 132.67339 255.212162 
L 132.83199 266.738471 
L 132.99059 268.328307 
L 133.14919 276.144999 
L 133.307791 274.555163 
L 133.466391 263.161341 
L 133.624991 266.473498 
L 133.783591 245.540662 
L 133.942191 272.435382 
L 134.100791 256.669512 
L 134.259392 286.346445 
L 134.893792 245.93812 
L 135.052392 282.371855 
L 135.210993 269.785656 
L 135.369593 288.996171 
L 135.528193 247.792929 
L 135.686793 285.816499 
L 135.845393 281.84191 
L 136.162594 258.259347 
L 136.321194 266.870957 
L 136.638394 270.580574 
L 136.796994 278.529752 
L 136.955594 275.482567 
L 137.114195 266.738471 
L 137.272795 280.649533 
L 137.589995 250.707628 
L 137.748595 262.631395 
L 137.907195 259.849183 
L 138.224396 281.576938 
L 138.382996 259.451724 
L 138.541596 275.085108 
L 138.700196 270.183115 
L 139.017397 291.380924 
L 139.175997 256.139566 
L 139.334597 261.306532 
L 139.493197 281.311965 
L 139.810397 254.549731 
L 139.968998 276.542458 
L 140.127598 282.504342 
L 140.286198 259.186751 
L 140.603398 277.734835 
L 140.761998 270.978033 
L 140.920599 278.397266 
L 141.079199 258.259347 
L 141.237799 270.183115 
L 141.396399 260.776587 
L 141.554999 274.555163 
L 141.7136 270.315601 
L 141.8722 251.502545 
L 142.0308 274.157704 
L 142.1894 276.144999 
L 142.5066 247.39547 
L 142.665201 265.546094 
L 142.823801 251.635032 
L 143.141001 275.350081 
L 143.299601 242.890935 
L 143.458201 271.110519 
L 143.775402 257.06697 
L 143.934002 274.952622 
L 144.092602 256.934484 
L 144.251202 285.021582 
L 144.409802 247.527956 
L 144.568403 239.181319 
L 144.727003 273.627759 
L 144.885603 281.576938 
L 145.044203 265.943553 
L 145.202803 262.763882 
L 145.520004 251.635032 
L 145.678604 265.016149 
L 145.837204 264.221231 
L 145.995804 257.331943 
L 146.154404 259.849183 
L 146.313004 277.072403 
L 146.471605 263.956258 
L 146.630205 275.615054 
L 146.788805 240.108723 
L 146.947405 258.921779 
L 147.106005 250.575141 
L 147.264605 248.190388 
L 147.423206 276.277485 
L 147.581806 248.720333 
L 147.899006 276.144999 
L 148.216206 247.527956 
L 148.374807 279.854616 
L 148.533407 235.736675 
L 148.692007 261.439019 
L 149.009207 274.555163 
L 149.167807 264.221231 
L 149.326408 272.17041 
L 149.485008 287.141363 
L 149.643608 217.851023 
L 149.960808 259.849183 
L 150.119408 231.762085 
L 150.278009 266.473498 
L 150.436609 254.549731 
L 150.595209 278.927211 
L 150.753809 240.903641 
L 150.912409 262.763882 
L 151.071009 255.079676 
L 151.22961 288.598712 
L 151.38821 253.092381 
L 151.54681 274.555163 
L 151.70541 276.144999 
L 151.86401 281.974396 
L 152.02261 242.096018 
L 152.339811 278.529752 
L 152.657011 268.19582 
L 152.815611 265.678581 
L 153.132812 256.139566 
L 153.291412 286.081472 
L 153.450012 272.037923 
L 153.608612 274.555163 
L 153.767212 246.865525 
L 154.084413 267.533389 
L 154.243013 276.80743 
L 154.401613 250.840114 
L 154.560213 270.845547 
L 154.718813 269.123225 
L 154.877414 289.526116 
L 155.036014 280.78202 
L 155.194614 258.391834 
L 155.353214 272.17041 
L 155.511814 276.144999 
L 155.670414 259.186751 
L 155.829015 274.820136 
L 155.987615 267.400903 
L 156.146215 245.93812 
L 156.304815 269.65317 
L 156.622015 248.322874 
L 156.780616 264.751176 
L 156.939216 266.473498 
L 157.256416 242.228504 
L 157.415016 264.486204 
L 157.573616 266.870957 
L 157.732217 252.164977 
L 157.890817 281.709424 
L 158.049417 263.5588 
L 158.208017 272.037923 
L 158.366617 269.520683 
L 158.525217 279.987102 
L 158.842418 265.413608 
L 159.001018 258.52432 
L 159.159618 257.06697 
L 159.318218 283.431746 
L 159.476818 225.932688 
L 159.635419 267.533389 
L 159.794019 275.217595 
L 159.952619 275.615054 
L 160.111219 251.767518 
L 160.269819 249.780223 
L 160.428419 265.281122 
L 160.58702 245.805634 
L 160.74562 286.213958 
L 160.90422 285.419041 
L 161.06282 278.927211 
L 161.22142 283.034287 
L 161.38002 270.050629 
L 161.538621 279.32467 
L 161.697221 259.58421 
L 161.855821 263.293827 
L 162.014421 269.785656 
L 162.173021 263.823772 
L 162.331621 268.063334 
L 162.490222 290.983465 
L 162.648822 285.154068 
L 162.807422 247.39547 
L 162.966022 267.798361 
L 163.124622 271.110519 
L 163.283222 245.143203 
L 163.600423 284.491636 
L 163.759023 253.092381 
L 163.917623 287.803794 
L 164.076223 265.678581 
L 164.234823 263.956258 
L 164.393424 257.199457 
L 164.552024 263.823772 
L 164.710624 261.306532 
L 165.027824 271.772951 
L 165.186424 214.00892 
L 165.345025 251.767518 
L 165.503625 262.498909 
L 165.662225 265.678581 
L 165.820825 263.5588 
L 165.979425 275.482567 
L 166.138025 250.840114 
L 166.296626 259.849183 
L 166.455226 252.297463 
L 166.613826 273.495273 
L 166.772426 274.025218 
L 166.931026 242.758449 
L 167.248227 271.640464 
L 167.406827 247.39547 
L 167.565427 269.918142 
L 167.724027 209.901844 
L 168.041228 276.277485 
L 168.199828 255.344648 
L 168.358428 272.302896 
L 168.517028 265.281122 
L 168.675628 282.106883 
L 168.992829 268.063334 
L 169.151429 267.268416 
L 169.310029 269.785656 
L 169.468629 233.484407 
L 169.627229 264.883663 
L 169.785829 247.925415 
L 169.94443 272.832841 
L 170.10303 277.734835 
L 170.26163 265.811067 
L 170.42023 278.927211 
L 170.57883 252.164977 
L 170.73743 269.388197 
L 170.896031 265.943553 
L 171.054631 252.959895 
L 171.213231 268.593279 
L 171.371831 257.199457 
L 171.530431 257.06697 
L 171.689031 279.854616 
L 171.847632 268.19582 
L 172.006232 245.93812 
L 172.164832 255.212162 
L 172.323432 272.037923 
L 172.482032 254.417244 
L 172.640632 256.934484 
L 172.799233 279.722129 
L 173.116433 252.827409 
L 173.275033 266.341012 
L 173.433633 269.785656 
L 173.592233 284.624123 
L 173.750834 265.413608 
L 173.909434 265.413608 
L 174.068034 257.464429 
L 174.226634 270.183115 
L 174.543834 257.464429 
L 174.861035 283.564232 
L 175.019635 279.32467 
L 175.336835 260.909073 
L 175.654036 272.965327 
L 175.812636 270.448088 
L 175.971236 264.353717 
L 176.129836 282.106883 
L 176.288436 272.700355 
L 176.447036 287.93628 
L 176.605637 280.384561 
L 176.764237 260.644101 
L 176.922837 259.849183 
L 177.081437 236.796565 
L 177.240037 256.272053 
L 177.398637 254.152272 
L 177.557238 260.511614 
L 177.715838 254.814703 
L 178.191638 269.65317 
L 178.350238 270.978033 
L 178.508839 266.738471 
L 178.667439 257.06697 
L 178.826039 262.763882 
L 178.984639 255.212162 
L 179.143239 257.994375 
L 179.301839 281.974396 
L 179.46044 267.665875 
L 179.77764 287.93628 
L 179.93624 291.513411 
L 180.09484 266.738471 
L 180.253441 263.426313 
L 180.570641 250.707628 
L 180.729241 247.660442 
L 180.887841 278.397266 
L 181.046441 261.836478 
L 181.205042 270.448088 
L 181.363642 251.237573 
L 181.522242 275.615054 
L 181.680842 263.293827 
L 181.839442 269.123225 
L 181.998042 259.716697 
L 182.156643 265.281122 
L 182.315243 260.379128 
L 182.632443 229.774791 
L 182.791043 277.602348 
L 182.949643 254.947189 
L 183.108244 275.085108 
L 183.266844 256.404539 
L 183.584044 284.491636 
L 183.742644 275.74754 
L 183.901244 290.586007 
L 184.059845 250.310169 
L 184.218445 265.148635 
L 184.377045 263.691286 
L 184.535645 264.751176 
L 184.694245 260.776587 
L 184.852845 251.502545 
L 185.170046 282.239369 
L 185.487246 258.259347 
L 185.645846 275.085108 
L 185.804446 236.796565 
L 186.121647 274.422677 
L 186.280247 270.448088 
L 186.438847 274.555163 
L 186.597447 254.947189 
L 186.756047 261.174046 
L 186.914648 262.763882 
L 187.073248 276.674944 
L 187.231848 238.253915 
L 187.549048 277.072403 
L 187.707648 287.538821 
L 187.866249 268.990738 
L 188.024849 280.649533 
L 188.183449 255.477135 
L 188.342049 284.094177 
L 188.500649 267.798361 
L 188.659249 278.26478 
L 188.81785 246.865525 
L 189.13505 271.375492 
L 189.45225 253.48984 
L 189.61085 284.226664 
L 189.769451 255.079676 
L 190.086651 276.012513 
L 190.245251 250.9726 
L 190.562451 266.208526 
L 190.721052 255.609621 
L 190.879652 278.662239 
L 191.196852 257.199457 
L 191.355452 251.237573 
L 191.514052 258.52432 
L 191.672653 260.114156 
L 191.831253 274.952622 
L 191.989853 265.546094 
L 192.148453 267.798361 
L 192.307053 278.794725 
L 192.624254 267.798361 
L 192.782854 233.351921 
L 192.941454 271.772951 
L 193.100054 279.059698 
L 193.417255 263.293827 
L 193.575855 279.722129 
L 193.734455 279.722129 
L 193.893055 251.900004 
L 194.051655 264.61869 
L 194.210255 259.451724 
L 194.368856 278.927211 
L 194.527456 262.498909 
L 194.686056 262.763882 
L 194.844656 264.221231 
L 195.003256 248.057901 
L 195.161856 269.255711 
L 195.479057 247.130497 
L 195.954857 270.315601 
L 196.113457 270.580574 
L 196.272058 288.863685 
L 196.430658 242.096018 
L 196.589258 255.079676 
L 196.747858 278.529752 
L 196.906458 262.366423 
L 197.065058 273.362786 
L 197.382259 250.177682 
L 197.540859 266.208526 
L 197.699459 263.426313 
L 197.858059 271.110519 
L 198.016659 260.114156 
L 198.17526 280.78202 
L 198.33386 197.448131 
L 198.49246 283.166773 
L 198.65106 254.549731 
L 198.80966 255.609621 
L 198.96826 272.435382 
L 199.126861 271.243005 
L 199.285461 268.460793 
L 199.444061 250.310169 
L 199.602661 248.057901 
L 199.761261 258.126861 
L 199.919861 281.179479 
L 200.078462 269.918142 
L 200.237062 266.870957 
L 200.554262 254.549731 
L 200.712862 274.157704 
L 200.871462 246.468066 
L 201.030063 247.39547 
L 201.188663 266.738471 
L 201.347263 230.967168 
L 201.505863 267.930848 
L 201.664463 270.978033 
L 201.823063 278.132294 
L 201.981664 270.050629 
L 202.140264 282.769314 
L 202.298864 254.549731 
L 202.457464 265.943553 
L 202.616064 267.13593 
L 202.774664 267.268416 
L 202.933265 263.823772 
L 203.091865 254.814703 
L 203.250465 225.402743 
L 203.409065 255.609621 
L 203.567665 247.792929 
L 203.726265 278.529752 
L 203.884866 284.756609 
L 204.202066 256.934484 
L 204.519266 275.74754 
L 204.677867 262.498909 
L 204.836467 274.157704 
L 204.995067 264.221231 
L 205.312267 278.662239 
L 205.470867 268.328307 
L 205.629468 277.867321 
L 205.788068 275.217595 
L 205.946668 239.976237 
L 206.263868 294.825568 
L 206.422468 257.994375 
L 206.581069 259.58421 
L 206.739669 284.35915 
L 206.898269 282.901801 
L 207.056869 260.114156 
L 207.215469 261.439019 
L 207.374069 257.06697 
L 207.53267 286.478931 
L 207.69127 234.941757 
L 207.84987 268.858252 
L 208.00847 243.950826 
L 208.32567 278.662239 
L 208.484271 260.379128 
L 208.642871 261.836478 
L 208.801471 267.13593 
L 208.960071 262.896368 
L 209.118671 267.533389 
L 209.277271 255.609621 
L 209.435872 272.700355 
L 209.594472 267.13593 
L 209.753072 275.350081 
L 209.911672 259.58421 
L 210.070272 258.921779 
L 210.228872 280.384561 
L 210.387473 278.26478 
L 210.546073 259.319238 
L 210.704673 257.331943 
L 210.863273 268.063334 
L 211.180473 252.959895 
L 211.656274 282.636828 
L 211.814874 247.792929 
L 211.973474 273.097814 
L 212.132074 267.268416 
L 212.290675 265.546094 
L 212.449275 277.072403 
L 212.766475 255.874594 
L 212.925075 273.760245 
L 213.083675 255.477135 
L 213.242276 267.268416 
L 213.559476 247.527956 
L 213.718076 274.555163 
L 213.876676 274.952622 
L 214.035276 259.451724 
L 214.193877 255.609621 
L 214.352477 261.306532 
L 214.511077 256.272053 
L 214.669677 282.504342 
L 214.828277 260.644101 
L 214.986877 282.239369 
L 215.145478 278.927211 
L 215.621278 249.91271 
L 215.779878 270.845547 
L 215.938478 268.593279 
L 216.097079 255.609621 
L 216.414279 271.110519 
L 216.572879 287.538821 
L 216.731479 248.587847 
L 216.890079 284.094177 
L 217.04868 261.04156 
L 217.20728 264.883663 
L 217.36588 265.678581 
L 217.52448 272.17041 
L 217.841681 242.228504 
L 218.000281 268.593279 
L 218.158881 272.965327 
L 218.317481 256.801998 
L 218.476081 270.580574 
L 218.634681 268.725766 
L 218.793282 279.722129 
L 218.951882 264.751176 
L 219.110482 264.486204 
L 219.269082 283.29926 
L 219.427682 246.468066 
L 219.586282 278.397266 
L 219.744883 250.045196 
L 220.062083 290.188548 
L 220.379283 246.865525 
L 220.537883 249.117792 
L 220.855084 280.252074 
L 221.013684 264.486204 
L 221.172284 272.17041 
L 221.330884 254.152272 
L 221.648085 263.5588 
L 221.806685 260.379128 
L 221.965285 276.542458 
L 222.123885 262.366423 
L 222.282485 266.208526 
L 222.441085 205.264824 
L 222.599686 265.413608 
L 222.758286 273.760245 
L 222.916886 232.292031 
L 223.075486 264.61869 
L 223.234086 262.631395 
L 223.392686 246.468066 
L 223.551287 262.631395 
L 223.709887 257.06697 
L 223.868487 256.00708 
L 224.027087 279.589643 
L 224.185687 240.638668 
L 224.502888 260.909073 
L 224.661488 281.179479 
L 224.820088 263.028854 
L 224.978688 281.311965 
L 225.137288 252.827409 
L 225.295888 281.974396 
L 225.613089 258.391834 
L 225.771689 259.58421 
L 225.930289 272.17041 
L 226.088889 275.74754 
L 226.247489 276.144999 
L 226.40609 286.081472 
L 226.56469 237.723969 
L 226.72329 270.183115 
L 226.88189 272.037923 
L 227.04049 279.457157 
L 227.19909 274.555163 
L 227.357691 258.126861 
L 227.516291 263.823772 
L 227.674891 265.016149 
L 227.833491 251.502545 
L 227.992091 264.221231 
L 228.309292 239.446291 
L 228.626492 283.29926 
L 228.785092 253.357354 
L 228.943692 258.52432 
L 229.102292 249.780223 
L 229.260893 284.889095 
L 229.419493 259.716697 
L 229.578093 256.934484 
L 229.736693 278.397266 
L 229.895293 276.144999 
L 230.053894 237.988942 
L 230.212494 267.400903 
L 230.371094 251.767518 
L 230.529694 256.00708 
L 230.846894 290.188548 
L 231.005495 268.063334 
L 231.164095 288.333739 
L 231.322695 270.978033 
L 231.481295 270.580574 
L 231.798495 275.085108 
L 232.115696 239.181319 
L 232.432896 284.756609 
L 232.591496 286.743904 
L 232.750096 235.869161 
L 232.908697 264.353717 
L 233.067297 245.805634 
L 233.384497 279.589643 
L 233.543097 290.321034 
L 233.701697 254.284758 
L 233.860298 287.141363 
L 234.177498 273.097814 
L 234.336098 235.471702 
L 234.653298 282.636828 
L 234.811899 272.17041 
L 234.970499 276.939917 
L 235.129099 268.19582 
L 235.287699 277.602348 
L 235.446299 267.930848 
L 235.604899 283.29926 
L 235.7635 261.306532 
L 235.9221 271.905437 
L 236.0807 269.785656 
L 236.2393 230.569709 
L 236.5565 277.734835 
L 236.873701 262.10145 
L 237.032301 279.854616 
L 237.190901 252.694922 
L 237.349501 273.495273 
L 237.666702 248.985306 
L 237.825302 259.981669 
L 237.983902 53.568 
L 238.142502 284.094177 
L 238.301102 275.74754 
L 238.459702 281.046992 
L 238.618303 255.609621 
L 238.776903 274.157704 
L 238.935503 254.549731 
L 239.094103 275.350081 
L 239.252703 270.71306 
L 239.411303 283.034287 
L 239.569904 272.302896 
L 239.728504 270.580574 
L 240.045704 283.564232 
L 240.204304 248.852819 
L 240.362904 261.174046 
L 240.680105 245.673148 
L 240.838705 271.772951 
L 240.997305 264.61869 
L 241.155905 279.987102 
L 241.314505 269.255711 
L 241.473106 277.469862 
L 241.631706 252.42995 
L 241.790306 268.460793 
L 241.948906 263.028854 
L 242.107506 273.495273 
L 242.424707 230.834681 
L 242.583307 280.517047 
L 242.741907 236.001647 
L 242.900507 272.832841 
L 243.059107 249.382765 
L 243.217708 279.722129 
L 243.376308 275.085108 
L 243.534908 247.660442 
L 243.693508 280.517047 
L 244.169309 251.767518 
L 244.327909 276.144999 
L 244.486509 274.157704 
L 244.645109 263.293827 
L 244.803709 276.674944 
L 244.962309 273.097814 
L 245.27951 274.025218 
L 245.59671 240.373696 
L 245.75531 267.13593 
L 245.91391 260.909073 
L 246.072511 278.662239 
L 246.231111 245.143203 
L 246.389711 279.457157 
L 246.865511 245.540662 
L 247.024112 277.999807 
L 247.182712 269.123225 
L 247.341312 271.375492 
L 247.658512 261.04156 
L 247.817112 285.551527 
L 247.975713 260.511614 
L 248.134313 286.743904 
L 248.292913 251.370059 
L 248.451513 263.956258 
L 248.610113 266.208526 
L 248.768713 266.076039 
L 248.927314 264.883663 
L 249.085914 272.832841 
L 249.244514 271.507978 
L 249.403114 268.990738 
L 249.561714 236.929051 
L 249.720314 253.887299 
L 249.878915 283.696719 
L 250.037515 285.286554 
L 250.196115 227.919982 
L 250.354715 268.725766 
L 250.513315 269.388197 
L 250.671915 284.226664 
L 250.989116 255.609621 
L 251.147716 264.221231 
L 251.306316 263.5588 
L 251.464916 257.199457 
L 251.623516 264.883663 
L 251.782117 263.293827 
L 251.940717 256.272053 
L 252.099317 280.517047 
L 252.257917 264.61869 
L 252.416517 234.411812 
L 252.575117 284.889095 
L 252.733718 254.284758 
L 253.050918 270.978033 
L 253.209518 250.177682 
L 253.526718 277.204889 
L 253.685319 254.549731 
L 254.002519 286.081472 
L 254.161119 258.126861 
L 254.319719 254.152272 
L 254.478319 272.037923 
L 254.63692 253.887299 
L 254.95412 273.097814 
L 255.11272 270.183115 
L 255.27132 271.905437 
L 255.429921 281.046992 
L 255.747121 241.168613 
L 255.905721 283.564232 
L 256.064321 271.507978 
L 256.222921 269.520683 
L 256.381522 263.823772 
L 256.540122 288.068767 
L 256.698722 275.482567 
L 256.857322 245.805634 
L 257.015922 243.288394 
L 257.333123 285.021582 
L 257.491723 271.110519 
L 257.650323 267.268416 
L 257.808923 255.477135 
L 257.967523 281.444451 
L 258.126123 270.183115 
L 258.284724 236.134134 
L 258.443324 271.905437 
L 258.601924 274.952622 
L 258.760524 266.738471 
L 258.919124 270.183115 
L 259.077724 295.488 
L 259.236325 273.627759 
L 259.394925 278.662239 
L 259.553525 258.259347 
L 259.712125 254.549731 
L 260.029325 276.542458 
L 260.346526 258.789292 
L 260.505126 270.978033 
L 260.663726 213.346488 
L 260.822326 282.239369 
L 261.139527 264.883663 
L 261.298127 267.798361 
L 261.456727 267.930848 
L 261.615327 279.059698 
L 261.773927 238.651373 
L 261.932527 273.362786 
L 262.091128 278.132294 
L 262.249728 276.277485 
L 262.408328 260.909073 
L 262.566928 276.542458 
L 262.884128 281.311965 
L 263.042729 207.782064 
L 263.201329 286.081472 
L 263.518529 248.587847 
L 263.677129 261.703991 
L 263.835729 246.335579 
L 264.15293 280.119588 
L 264.31153 279.987102 
L 264.47013 277.867321 
L 264.62873 290.718493 
L 264.945931 267.533389 
L 265.104531 270.448088 
L 265.263131 270.580574 
L 265.421731 231.23214 
L 265.580331 261.439019 
L 265.738931 270.183115 
L 265.897532 271.375492 
L 266.056132 251.370059 
L 266.214732 273.495273 
L 266.373332 274.422677 
L 266.531932 253.622326 
L 266.690532 281.709424 
L 266.849133 224.342852 
L 267.007733 276.542458 
L 267.166333 249.117792 
L 267.324933 276.144999 
L 267.483533 271.640464 
L 267.642133 272.567869 
L 267.959334 245.540662 
L 268.117934 246.600552 
L 268.276534 229.774791 
L 268.593735 276.144999 
L 268.752335 265.811067 
L 268.910935 284.756609 
L 269.069535 259.716697 
L 269.228135 265.546094 
L 269.386735 241.698559 
L 269.545336 263.028854 
L 269.703936 261.836478 
L 269.862536 247.130497 
L 270.021136 257.331943 
L 270.179736 243.553367 
L 270.338336 271.772951 
L 270.496937 269.520683 
L 270.814137 275.217595 
L 271.131337 263.823772 
L 271.448538 279.987102 
L 271.607138 262.233936 
L 271.765738 280.119588 
L 272.082938 250.310169 
L 272.241538 275.350081 
L 272.400139 265.546094 
L 272.717339 272.302896 
L 272.875939 273.097814 
L 273.034539 268.19582 
L 273.193139 273.627759 
L 273.35174 268.19582 
L 273.51034 250.707628 
L 273.66894 272.435382 
L 273.82754 253.224867 
L 273.98614 249.117792 
L 274.14474 277.867321 
L 274.303341 284.624123 
L 274.461941 251.237573 
L 274.620541 271.243005 
L 274.779141 274.820136 
L 274.937741 247.792929 
L 275.254942 281.709424 
L 275.413542 250.840114 
L 275.572142 270.845547 
L 275.730742 252.959895 
L 275.889342 281.444451 
L 276.047942 267.930848 
L 276.206543 274.555163 
L 276.365143 265.811067 
L 276.523743 271.243005 
L 276.682343 281.311965 
L 276.840943 270.580574 
L 277.158144 265.811067 
L 277.316744 272.037923 
L 277.475344 260.114156 
L 277.633944 233.74938 
L 277.792544 264.883663 
L 277.951144 270.580574 
L 278.109745 283.564232 
L 278.268345 234.809271 
L 278.585545 279.589643 
L 278.744145 272.832841 
L 278.902745 279.192184 
L 279.061346 240.638668 
L 279.219946 272.832841 
L 279.378546 280.517047 
L 279.537146 242.096018 
L 279.695746 269.123225 
L 279.854346 274.68765 
L 280.171547 267.665875 
L 280.330147 244.083312 
L 280.647347 279.987102 
L 280.805948 278.132294 
L 280.964548 248.190388 
L 281.123148 265.678581 
L 281.281748 268.725766 
L 281.598948 253.754813 
L 281.757549 250.707628 
L 281.916149 275.350081 
L 282.074749 253.357354 
L 282.233349 255.874594 
L 282.550549 274.952622 
L 282.70915 246.600552 
L 282.86775 273.2303 
L 283.02635 265.943553 
L 283.18495 279.589643 
L 283.34355 260.644101 
L 283.50215 258.259347 
L 283.660751 274.555163 
L 283.977951 256.934484 
L 284.136551 275.880026 
L 284.295151 233.881866 
L 284.453751 277.602348 
L 284.612352 276.674944 
L 284.770952 271.507978 
L 284.929552 258.789292 
L 285.246752 280.78202 
L 285.405352 284.094177 
L 285.563953 269.388197 
L 285.722553 280.649533 
L 285.881153 275.74754 
L 286.039753 283.564232 
L 286.198353 273.495273 
L 286.356953 273.627759 
L 286.515554 252.959895 
L 286.674154 276.012513 
L 286.832754 268.19582 
L 286.991354 243.950826 
L 287.149954 260.644101 
L 287.308554 241.566072 
L 287.467155 259.186751 
L 287.625755 257.06697 
L 287.784355 243.553367 
L 287.942955 248.587847 
L 288.260155 247.527956 
L 288.418756 274.68765 
L 288.735956 264.353717 
L 288.894556 222.885503 
L 289.053156 259.58421 
L 289.370357 266.076039 
L 289.528957 259.58421 
L 289.687557 275.085108 
L 289.846157 262.631395 
L 290.004757 262.631395 
L 290.163357 270.978033 
L 290.480558 248.852819 
L 290.797758 278.794725 
L 290.956358 252.42995 
L 291.114958 279.854616 
L 291.273559 270.845547 
L 291.432159 269.918142 
L 291.590759 277.072403 
L 291.907959 247.262984 
L 292.066559 294.693082 
L 292.22516 268.725766 
L 292.38376 284.756609 
L 292.54236 226.330147 
L 292.70096 268.990738 
L 292.85956 275.085108 
L 293.018161 264.221231 
L 293.176761 271.375492 
L 293.335361 259.054265 
L 293.493961 276.542458 
L 293.652561 274.157704 
L 293.969762 252.694922 
L 294.286962 275.085108 
L 294.445562 246.600552 
L 294.604162 264.883663 
L 294.762762 262.763882 
L 294.921363 278.662239 
L 295.079963 231.364627 
L 295.238563 235.736675 
L 295.397163 273.892732 
L 295.555763 253.48984 
L 295.714363 278.529752 
L 295.872964 263.028854 
L 296.031564 263.5588 
L 296.348764 272.037923 
L 296.507364 259.849183 
L 296.665964 259.054265 
L 296.824565 265.016149 
L 297.141765 251.502545 
L 297.300365 292.573301 
L 297.458965 256.00708 
L 297.617565 252.032491 
L 297.776166 241.433586 
L 298.093366 272.435382 
L 298.251966 236.531593 
L 298.410566 266.208526 
L 298.569166 261.836478 
L 298.727767 267.798361 
L 298.886367 220.368263 
L 299.044967 272.17041 
L 299.203567 244.613257 
L 299.362167 248.45536 
L 299.679368 267.533389 
L 299.837968 266.605985 
L 299.996568 245.93812 
L 300.313768 284.624123 
L 300.472368 269.918142 
L 300.630969 283.696719 
L 300.789569 246.733038 
L 300.948169 242.228504 
L 301.106769 282.901801 
L 301.265369 243.950826 
L 301.423969 238.121428 
L 301.58257 272.435382 
L 301.74117 267.798361 
L 301.89977 253.224867 
L 302.05837 265.546094 
L 302.21697 252.297463 
L 302.37557 281.179479 
L 302.534171 278.26478 
L 302.851371 243.288394 
L 303.327171 282.239369 
L 303.485772 274.555163 
L 303.644372 282.769314 
L 303.802972 235.869161 
L 304.120172 284.624123 
L 304.278772 246.733038 
L 304.595973 278.132294 
L 304.754573 255.079676 
L 305.071773 282.371855 
L 305.388974 263.823772 
L 305.547574 284.756609 
L 305.706174 270.315601 
L 305.864774 281.179479 
L 306.023374 262.10145 
L 306.181975 265.016149 
L 306.340575 264.61869 
L 306.499175 254.284758 
L 306.657775 266.870957 
L 306.816375 254.682217 
L 306.974975 275.482567 
L 307.133576 273.362786 
L 307.292176 259.849183 
L 307.450776 259.054265 
L 307.609376 264.61869 
L 307.767976 274.157704 
L 307.926576 260.909073 
L 308.085177 263.956258 
L 308.243777 256.404539 
L 308.402377 259.849183 
L 308.560977 256.00708 
L 308.719577 244.083312 
L 308.878177 266.870957 
L 309.195378 261.04156 
L 309.353978 231.894572 
L 309.512578 272.832841 
L 309.671178 257.464429 
L 309.829778 256.669512 
L 309.988379 256.801998 
L 310.146979 282.371855 
L 310.305579 265.811067 
L 310.464179 274.555163 
L 310.622779 270.580574 
L 310.781379 260.644101 
L 310.93998 190.956302 
L 311.09858 266.738471 
L 311.25718 268.593279 
L 311.41578 286.346445 
L 311.57438 266.473498 
L 311.73298 232.027058 
L 311.891581 277.204889 
L 312.050181 284.491636 
L 312.367381 247.925415 
L 312.525981 270.315601 
L 312.684581 272.435382 
L 312.843182 232.557003 
L 313.160382 278.26478 
L 313.318982 284.756609 
L 313.477582 261.439019 
L 313.636182 286.081472 
L 313.953383 265.546094 
L 314.111983 266.208526 
L 314.429183 239.84375 
L 314.746384 273.760245 
L 314.904984 231.099654 
L 315.380784 268.725766 
L 315.539384 244.348285 
L 315.697985 247.792929 
L 315.856585 264.353717 
L 316.173785 241.036127 
L 316.332385 274.68765 
L 316.490985 284.491636 
L 316.649586 270.315601 
L 316.808186 278.132294 
L 316.966786 236.001647 
L 317.125386 257.331943 
L 317.283986 262.366423 
L 317.442586 276.674944 
L 317.601187 268.858252 
L 317.759787 273.760245 
L 317.918387 263.028854 
L 318.076987 267.930848 
L 318.235587 264.486204 
L 318.394188 273.760245 
L 318.552788 274.952622 
L 318.869988 249.382765 
L 319.028588 267.930848 
L 319.187188 241.168613 
L 319.504389 268.328307 
L 319.662989 243.950826 
L 319.821589 240.903641 
L 319.980189 248.985306 
L 320.138789 281.974396 
L 320.29739 257.06697 
L 320.61459 247.660442 
L 320.77319 273.097814 
L 320.93179 277.469862 
L 321.09039 276.674944 
L 321.248991 283.564232 
L 321.566191 243.420881 
L 321.724791 245.540662 
L 321.883391 268.063334 
L 322.041991 257.331943 
L 322.200592 264.883663 
L 322.359192 279.854616 
L 322.676392 265.943553 
L 322.834992 275.880026 
L 322.993592 278.794725 
L 323.152193 254.549731 
L 323.627993 270.448088 
L 323.786593 257.729402 
L 323.945193 276.409972 
L 324.103794 241.831045 
L 324.262394 264.221231 
L 324.420994 230.304736 
L 324.579594 266.076039 
L 324.738194 269.255711 
L 324.896794 268.593279 
L 325.055395 274.422677 
L 325.213995 244.87823 
L 325.372595 277.469862 
L 325.689795 263.956258 
L 325.848395 237.856456 
L 326.006996 281.046992 
L 326.165596 261.439019 
L 326.324196 276.277485 
L 326.482796 276.674944 
L 326.641396 269.918142 
L 326.799996 272.037923 
L 326.958597 247.792929 
L 327.117197 276.012513 
L 327.275797 268.990738 
L 327.434397 237.988942 
L 327.592997 248.45536 
L 327.751597 235.206729 
L 327.910198 266.870957 
L 328.068798 251.635032 
L 328.227398 263.028854 
L 328.544598 237.194024 
L 328.703198 264.751176 
L 328.861799 263.028854 
L 329.020399 273.362786 
L 329.178999 269.388197 
L 329.337599 227.787496 
L 329.496199 281.046992 
L 329.654799 245.540662 
L 329.8134 277.867321 
L 329.972 271.243005 
L 330.1306 275.350081 
L 330.2892 274.820136 
L 330.4478 258.656806 
L 330.6064 280.384561 
L 330.765001 261.174046 
L 330.923601 259.186751 
L 331.082201 282.239369 
L 331.240801 248.985306 
L 331.399401 280.119588 
L 331.558002 247.262984 
L 331.716602 272.567869 
L 331.875202 272.567869 
L 332.033802 267.003444 
L 332.192402 256.801998 
L 332.351002 269.388197 
L 332.509603 241.963531 
L 332.826803 280.914506 
L 332.985403 258.391834 
L 333.302603 284.491636 
L 333.461204 260.379128 
L 333.619804 263.691286 
L 333.778404 249.647737 
L 334.095604 280.517047 
L 334.571405 251.635032 
L 334.730005 279.854616 
L 334.888605 242.758449 
L 335.047205 252.297463 
L 335.205805 245.143203 
L 335.364406 262.366423 
L 335.523006 260.644101 
L 335.681606 272.700355 
L 335.998806 261.439019 
L 336.157406 280.384561 
L 336.316007 266.738471 
L 336.474607 266.341012 
L 336.633207 263.028854 
L 336.791807 275.085108 
L 336.950407 270.580574 
L 337.109007 250.840114 
L 337.584808 287.273849 
L 337.902008 243.155908 
L 338.060608 262.896368 
L 338.219209 231.099654 
L 338.377809 264.221231 
L 338.536409 270.978033 
L 338.695009 257.331943 
L 338.853609 279.854616 
L 339.012209 270.845547 
L 339.17081 274.820136 
L 339.32941 257.729402 
L 339.48801 257.199457 
L 339.64661 262.631395 
L 339.80521 255.477135 
L 339.96381 242.228504 
L 340.122411 261.968964 
L 340.281011 250.310169 
L 340.439611 253.754813 
L 340.598211 279.32467 
L 340.915411 256.404539 
L 341.074012 274.820136 
L 341.232612 254.152272 
L 341.391212 275.085108 
L 341.549812 255.212162 
L 341.708412 261.306532 
L 341.867012 252.032491 
L 342.025613 255.477135 
L 342.184213 261.836478 
L 342.342813 239.048832 
L 342.501413 270.183115 
L 342.818613 247.130497 
L 342.977214 259.054265 
L 343.135814 253.357354 
L 343.294414 253.754813 
L 343.453014 253.48984 
L 343.611614 234.411812 
L 343.770215 257.994375 
L 343.928815 258.656806 
L 344.087415 241.963531 
L 344.246015 270.315601 
L 344.404615 262.763882 
L 344.563215 266.076039 
L 344.721816 223.680421 
L 344.880416 262.10145 
L 345.039016 270.183115 
L 345.356216 259.981669 
L 345.514816 243.553367 
L 345.673417 276.80743 
L 345.990617 263.956258 
L 346.149217 250.575141 
L 346.625018 273.760245 
L 346.942218 268.460793 
L 347.100818 273.2303 
L 347.259418 252.959895 
L 347.418018 249.647737 
L 347.576619 279.854616 
L 347.893819 239.048832 
L 348.052419 268.063334 
L 348.211019 246.600552 
L 348.369619 249.117792 
L 348.68682 270.71306 
L 348.84542 246.070607 
L 349.00402 242.758449 
L 349.16262 244.87823 
L 349.32122 269.65317 
L 349.479821 267.665875 
L 349.638421 270.050629 
L 349.797021 267.400903 
L 349.955621 249.117792 
L 350.114221 267.665875 
L 350.272821 248.057901 
L 350.590022 278.662239 
L 350.907222 245.143203 
L 351.065822 283.166773 
L 351.224422 273.097814 
L 351.383023 280.914506 
L 351.858823 239.181319 
L 352.017423 246.468066 
L 352.176023 263.691286 
L 352.334624 266.473498 
L 352.493224 241.3011 
L 352.651824 258.391834 
L 352.810424 258.126861 
L 352.969024 254.947189 
L 353.127624 276.012513 
L 353.444825 229.244846 
L 353.603425 235.604188 
L 353.762025 272.302896 
L 353.920625 273.760245 
L 354.396426 266.208526 
L 354.555026 249.515251 
L 354.713626 269.255711 
L 354.872226 255.477135 
L 355.030826 223.812907 
L 355.348027 265.546094 
L 355.506627 274.68765 
L 355.665227 241.433586 
L 355.823827 265.811067 
L 355.982427 267.665875 
L 356.299628 273.627759 
L 356.458228 247.925415 
L 356.616828 268.858252 
L 356.775428 262.498909 
L 356.934029 270.183115 
L 357.092629 242.493476 
L 357.251229 255.609621 
L 357.409829 278.397266 
L 357.568429 249.515251 
L 357.727029 244.348285 
L 357.88563 261.174046 
L 358.04423 261.439019 
L 358.20283 277.337376 
L 358.36143 268.328307 
L 358.52003 268.460793 
L 358.67863 261.439019 
L 358.837231 264.751176 
L 358.995831 261.439019 
L 359.154431 264.751176 
L 359.313031 264.221231 
L 359.471631 260.114156 
L 359.788832 270.448088 
L 359.947432 272.832841 
L 360.106032 270.71306 
L 360.264632 259.451724 
L 360.423232 272.302896 
L 360.581832 260.776587 
L 360.740433 267.798361 
L 360.899033 220.765722 
L 361.057633 281.84191 
L 361.216233 218.778427 
L 361.374833 253.357354 
L 361.533433 248.322874 
L 361.692034 263.161341 
L 361.850634 253.887299 
L 362.009234 233.351921 
L 362.326434 262.366423 
L 362.485034 260.379128 
L 362.643635 261.174046 
L 362.802235 274.820136 
L 363.119435 252.164977 
L 363.278035 230.17225 
L 363.595236 251.370059 
L 363.753836 237.458997 
L 364.071036 272.17041 
L 364.229636 262.896368 
L 364.388236 245.143203 
L 364.546837 268.725766 
L 364.705437 258.259347 
L 365.022637 265.943553 
L 365.339837 241.168613 
L 365.498438 252.42995 
L 365.657038 249.117792 
L 365.815638 248.45536 
L 365.974238 246.070607 
L 366.132838 265.811067 
L 366.291438 219.970804 
L 366.450039 251.105087 
L 366.608639 249.250278 
L 366.767239 243.950826 
L 366.925839 271.375492 
L 367.084439 266.076039 
L 367.40164 231.762085 
L 367.56024 264.751176 
L 367.71884 262.498909 
L 367.87744 247.39547 
L 368.03604 246.335579 
L 368.19464 251.237573 
L 368.511841 273.097814 
L 368.670441 270.448088 
L 368.829041 270.448088 
L 368.987641 239.711264 
L 369.146242 249.382765 
L 369.304842 267.930848 
L 369.463442 240.506182 
L 369.622042 256.139566 
L 369.780642 260.114156 
L 369.939242 258.789292 
L 370.097843 246.998011 
L 370.415043 262.10145 
L 370.573643 264.751176 
L 370.732243 245.408175 
L 370.890843 262.896368 
L 371.049444 267.268416 
L 371.208044 252.164977 
L 371.366644 253.754813 
L 371.525244 251.105087 
L 371.683844 245.010716 
L 371.842444 271.110519 
L 372.001045 243.553367 
L 372.318245 259.451724 
L 372.476845 260.909073 
L 372.794045 254.814703 
L 372.952646 268.460793 
L 373.111246 239.84375 
L 373.269846 273.760245 
L 373.428446 269.65317 
L 373.587046 275.74754 
L 373.904247 241.566072 
L 374.221447 258.259347 
L 374.380047 231.099654 
L 374.697247 265.281122 
L 374.855848 249.647737 
L 375.014448 262.763882 
L 375.173048 257.729402 
L 375.331648 246.335579 
L 375.490248 256.00708 
L 375.648848 277.999807 
L 375.807449 244.480771 
L 375.966049 267.798361 
L 376.283249 246.998011 
L 376.441849 247.262984 
L 376.600449 250.575141 
L 376.75905 258.52432 
L 377.07625 232.68949 
L 377.23485 264.61869 
L 377.39345 255.742107 
L 377.55205 263.691286 
L 377.710651 244.87823 
L 377.869251 255.609621 
L 378.027851 251.237573 
L 378.345051 257.06697 
L 378.503651 241.566072 
L 378.662252 260.644101 
L 378.820852 248.985306 
L 378.979452 260.644101 
L 379.138052 237.856456 
L 379.296652 261.174046 
L 379.455252 256.934484 
L 379.613853 221.958099 
L 379.931053 256.272053 
L 380.089653 251.237573 
L 380.248253 264.751176 
L 380.406853 251.900004 
L 380.565454 250.840114 
L 380.724054 237.856456 
L 380.882654 257.06697 
L 381.041254 229.509818 
L 381.199854 248.587847 
L 381.358455 245.408175 
L 381.517055 226.992578 
L 381.675655 250.707628 
L 381.834255 248.985306 
L 381.992855 266.473498 
L 382.310056 234.941757 
L 382.468656 250.840114 
L 382.627256 249.382765 
L 382.785856 233.219435 
L 382.944456 254.814703 
L 383.103056 219.308372 
L 383.261657 243.288394 
L 383.420257 242.758449 
L 383.737457 256.537025 
L 384.054657 230.702195 
L 384.213258 232.68949 
L 384.371858 249.515251 
L 384.530458 246.865525 
L 384.689058 240.506182 
L 384.847658 191.353761 
L 385.006258 251.767518 
L 385.164859 213.214002 
L 385.323459 250.575141 
L 385.482059 256.272053 
L 385.799259 227.390037 
L 385.957859 227.919982 
L 386.11646 243.420881 
L 386.27506 240.771154 
L 386.59226 234.411812 
L 386.75086 242.493476 
L 386.90946 242.096018 
L 387.068061 238.386401 
L 387.226661 240.638668 
L 387.385261 226.992578 
L 387.543861 247.660442 
L 387.702461 245.408175 
L 387.861061 227.65501 
L 388.019662 261.836478 
L 388.178262 234.411812 
L 388.336862 237.988942 
L 388.495462 236.001647 
L 388.654062 232.159544 
L 388.812662 244.215798 
L 389.129863 227.787496 
L 389.288463 229.377332 
L 389.447063 213.876434 
L 389.605663 246.468066 
L 389.764263 222.223071 
L 389.922864 228.847387 
L 390.081464 221.693126 
L 390.240064 244.745744 
L 390.398664 207.252118 
L 390.557264 233.881866 
L 390.874465 219.970804 
L 391.033065 223.017989 
L 391.191665 212.154112 
L 391.350265 225.535229 
L 391.508865 173.733082 
L 391.826066 233.219435 
L 392.301866 206.192228 
L 392.460466 237.591483 
L 392.619066 214.406379 
L 392.777667 217.851023 
L 392.936267 215.996215 
L 393.094867 230.967168 
L 393.412067 197.580618 
L 393.570667 216.923619 
L 393.729268 220.235777 
L 393.887868 194.26846 
L 394.046468 222.753016 
L 394.205068 208.841954 
L 394.363668 207.782064 
L 394.522269 204.867365 
L 394.680869 212.816543 
L 394.839469 205.529796 
L 394.998069 214.538865 
L 395.156669 209.504386 
L 395.315269 172.01076 
L 395.47387 204.602392 
L 395.63247 183.537069 
L 395.79107 214.538865 
L 395.94967 202.085152 
L 396.10827 177.04524 
L 396.26687 174.792973 
L 396.425471 212.684057 
L 396.584071 178.237617 
L 396.742671 178.635076 
L 396.901271 193.871001 
L 397.059871 156.509862 
L 397.377072 192.943597 
L 397.535672 157.30478 
L 397.694272 168.168657 
L 397.852872 142.333827 
L 398.011472 145.381012 
L 398.170072 164.459041 
L 398.328673 145.248526 
L 398.487273 148.958142 
L 398.487273 148.958142 
" style="fill:none;stroke:#1f77b4;stroke-linecap:square;stroke-width:1.5;"/>
   </g>
   <g id="patch_3">
    <path d="M 57.6 307.584 
L 57.6 41.472 
" style="fill:none;stroke:#000000;stroke-linecap:square;stroke-linejoin:miter;stroke-width:0.8;"/>
   </g>
   <g id="patch_4">
    <path d="M 414.72 307.584 
L 414.72 41.472 
" style="fill:none;stroke:#000000;stroke-linecap:square;stroke-linejoin:miter;stroke-width:0.8;"/>
   </g>
   <g id="patch_5">
    <path d="M 57.6 307.584 
L 414.72 307.584 
" style="fill:none;stroke:#000000;stroke-linecap:square;stroke-linejoin:miter;stroke-width:0.8;"/>
   </g>
   <g id="patch_6">
    <path d="M 57.6 41.472 
L 414.72 41.472 
" style="fill:none;stroke:#000000;stroke-linecap:square;stroke-linejoin:miter;stroke-width:0.8;"/>
   </g>
   <g id="text_17">
    <!-- Background -->
    <g transform="translate(200.367188 35.472)scale(0.12 -0.12)">
     <defs>
      <path d="M 1259 2228 
L 1259 519 
L 2272 519 
Q 2781 519 3026 730 
Q 3272 941 3272 1375 
Q 3272 1813 3026 2020 
Q 2781 2228 2272 2228 
L 1259 2228 
z
M 1259 4147 
L 1259 2741 
L 2194 2741 
Q 2656 2741 2882 2914 
Q 3109 3088 3109 3444 
Q 3109 3797 2882 3972 
Q 2656 4147 2194 4147 
L 1259 4147 
z
M 628 4666 
L 2241 4666 
Q 2963 4666 3353 4366 
Q 3744 4066 3744 3513 
Q 3744 3084 3544 2831 
Q 3344 2578 2956 2516 
Q 3422 2416 3680 2098 
Q 3938 1781 3938 1306 
Q 3938 681 3513 340 
Q 3088 0 2303 0 
L 628 0 
L 628 4666 
z
" id="DejaVuSans-42" transform="scale(0.015625)"/>
      <path d="M 3122 3366 
L 3122 2828 
Q 2878 2963 2633 3030 
Q 2388 3097 2138 3097 
Q 1578 3097 1268 2742 
Q 959 2388 959 1747 
Q 959 1106 1268 751 
Q 1578 397 2138 397 
Q 2388 397 2633 464 
Q 2878 531 3122 666 
L 3122 134 
Q 2881 22 2623 -34 
Q 2366 -91 2075 -91 
Q 1284 -91 818 406 
Q 353 903 353 1747 
Q 353 2603 823 3093 
Q 1294 3584 2113 3584 
Q 2378 3584 2631 3529 
Q 2884 3475 3122 3366 
z
" id="DejaVuSans-63" transform="scale(0.015625)"/>
      <path d="M 581 4863 
L 1159 4863 
L 1159 1991 
L 2875 3500 
L 3609 3500 
L 1753 1863 
L 3688 0 
L 2938 0 
L 1159 1709 
L 1159 0 
L 581 0 
L 581 4863 
z
" id="DejaVuSans-6b" transform="scale(0.015625)"/>
      <path d="M 2631 2963 
Q 2534 3019 2420 3045 
Q 2306 3072 2169 3072 
Q 1681 3072 1420 2755 
Q 1159 2438 1159 1844 
L 1159 0 
L 581 0 
L 581 3500 
L 1159 3500 
L 1159 2956 
Q 1341 3275 1631 3429 
Q 1922 3584 2338 3584 
Q 2397 3584 2469 3576 
Q 2541 3569 2628 3553 
L 2631 2963 
z
" id="DejaVuSans-72" transform="scale(0.015625)"/>
      <path d="M 2906 2969 
L 2906 4863 
L 3481 4863 
L 3481 0 
L 2906 0 
L 2906 525 
Q 2725 213 2448 61 
Q 2172 -91 1784 -91 
Q 1150 -91 751 415 
Q 353 922 353 1747 
Q 353 2572 751 3078 
Q 1150 3584 1784 3584 
Q 2172 3584 2448 3432 
Q 2725 3281 2906 2969 
z
M 947 1747 
Q 947 1113 1208 752 
Q 1469 391 1925 391 
Q 2381 391 2643 752 
Q 2906 1113 2906 1747 
Q 2906 2381 2643 2742 
Q 2381 3103 1925 3103 
Q 1469 3103 1208 2742 
Q 947 2381 947 1747 
z
" id="DejaVuSans-64" transform="scale(0.015625)"/>
     </defs>
     <use xlink:href="#DejaVuSans-42"/>
     <use x="68.603516" xlink:href="#DejaVuSans-61"/>
     <use x="129.882812" xlink:href="#DejaVuSans-63"/>
     <use x="184.863281" xlink:href="#DejaVuSans-6b"/>
     <use x="242.773438" xlink:href="#DejaVuSans-67"/>
     <use x="306.25" xlink:href="#DejaVuSans-72"/>
     <use x="345.113281" xlink:href="#DejaVuSans-6f"/>
     <use x="406.294922" xlink:href="#DejaVuSans-75"/>
     <use x="469.673828" xlink:href="#DejaVuSans-6e"/>
     <use x="533.052734" xlink:href="#DejaVuSans-64"/>
    </g>
   </g>
  </g>
 </g>
 <defs>
  <clipPath id="pba785dc817">
   <rect height="266.112" width="357.12" x="57.6" y="41.472"/>
  </clipPath>
 </defs>
</svg>
