<?xml version="1.0" encoding="utf-8" standalone="no"?>
<!DOCTYPE svg PUBLIC "-//W3C//DTD SVG 1.1//EN"
  "http://www.w3.org/Graphics/SVG/1.1/DTD/svg11.dtd">
<svg height="345.6pt" version="1.1" viewBox="0 0 460.8 345.6" width="460.8pt" xmlns="http://www.w3.org/2000/svg" xmlns:xlink="http://www.w3.org/1999/xlink">
 <metadata>
  <rdf:RDF xmlns:cc="http://creativecommons.org/ns#" xmlns:dc="http://purl.org/dc/elements/1.1/" xmlns:rdf="http://www.w3.org/1999/02/22-rdf-syntax-ns#">
   <cc:Work>
    <dc:type rdf:resource="http://purl.org/dc/dcmitype/StillImage"/>
    <dc:date>2022-06-03T23:55:07.707200</dc:date>
    <dc:format>image/svg+xml</dc:format>
    <dc:creator>
     <cc:Agent>
      <dc:title>Matplotlib v3.4.1, https://matplotlib.org/</dc:title>
     </cc:Agent>
    </dc:creator>
   </cc:Work>
  </rdf:RDF>
 </metadata>
 <defs>
  <style type="text/css">*{stroke-linecap:butt;stroke-linejoin:round;}</style>
 </defs>
 <g id="figure_1">
  <g id="patch_1">
   <path d="M 0 345.6 
L 460.8 345.6 
L 460.8 0 
L 0 0 
z
" style="fill:#ffffff;"/>
  </g>
  <g id="axes_1">
   <g id="patch_2">
    <path d="M 57.6 307.584 
L 414.72 307.584 
L 414.72 41.472 
L 57.6 41.472 
z
" style="fill:#ffffff;"/>
   </g>
   <g id="matplotlib.axis_1">
    <g id="xtick_1">
     <g id="line2d_1">
      <defs>
       <path d="M 0 0 
L 0 3.5 
" id="m9231fec757" style="stroke:#000000;stroke-width:0.8;"/>
      </defs>
      <g>
       <use style="stroke:#000000;stroke-width:0.8;" x="102.929605" xlink:href="#m9231fec757" y="307.584"/>
      </g>
     </g>
     <g id="text_1">
      <!-- 400 -->
      <g transform="translate(93.385855 322.182437)scale(0.1 -0.1)">
       <defs>
        <path d="M 2419 4116 
L 825 1625 
L 2419 1625 
L 2419 4116 
z
M 2253 4666 
L 3047 4666 
L 3047 1625 
L 3713 1625 
L 3713 1100 
L 3047 1100 
L 3047 0 
L 2419 0 
L 2419 1100 
L 313 1100 
L 313 1709 
L 2253 4666 
z
" id="DejaVuSans-34" transform="scale(0.015625)"/>
        <path d="M 2034 4250 
Q 1547 4250 1301 3770 
Q 1056 3291 1056 2328 
Q 1056 1369 1301 889 
Q 1547 409 2034 409 
Q 2525 409 2770 889 
Q 3016 1369 3016 2328 
Q 3016 3291 2770 3770 
Q 2525 4250 2034 4250 
z
M 2034 4750 
Q 2819 4750 3233 4129 
Q 3647 3509 3647 2328 
Q 3647 1150 3233 529 
Q 2819 -91 2034 -91 
Q 1250 -91 836 529 
Q 422 1150 422 2328 
Q 422 3509 836 4129 
Q 1250 4750 2034 4750 
z
" id="DejaVuSans-30" transform="scale(0.015625)"/>
       </defs>
       <use xlink:href="#DejaVuSans-34"/>
       <use x="63.623047" xlink:href="#DejaVuSans-30"/>
       <use x="127.246094" xlink:href="#DejaVuSans-30"/>
      </g>
     </g>
    </g>
    <g id="xtick_2">
     <g id="line2d_2">
      <g>
       <use style="stroke:#000000;stroke-width:0.8;" x="160.931952" xlink:href="#m9231fec757" y="307.584"/>
      </g>
     </g>
     <g id="text_2">
      <!-- 600 -->
      <g transform="translate(151.388202 322.182437)scale(0.1 -0.1)">
       <defs>
        <path d="M 2113 2584 
Q 1688 2584 1439 2293 
Q 1191 2003 1191 1497 
Q 1191 994 1439 701 
Q 1688 409 2113 409 
Q 2538 409 2786 701 
Q 3034 994 3034 1497 
Q 3034 2003 2786 2293 
Q 2538 2584 2113 2584 
z
M 3366 4563 
L 3366 3988 
Q 3128 4100 2886 4159 
Q 2644 4219 2406 4219 
Q 1781 4219 1451 3797 
Q 1122 3375 1075 2522 
Q 1259 2794 1537 2939 
Q 1816 3084 2150 3084 
Q 2853 3084 3261 2657 
Q 3669 2231 3669 1497 
Q 3669 778 3244 343 
Q 2819 -91 2113 -91 
Q 1303 -91 875 529 
Q 447 1150 447 2328 
Q 447 3434 972 4092 
Q 1497 4750 2381 4750 
Q 2619 4750 2861 4703 
Q 3103 4656 3366 4563 
z
" id="DejaVuSans-36" transform="scale(0.015625)"/>
       </defs>
       <use xlink:href="#DejaVuSans-36"/>
       <use x="63.623047" xlink:href="#DejaVuSans-30"/>
       <use x="127.246094" xlink:href="#DejaVuSans-30"/>
      </g>
     </g>
    </g>
    <g id="xtick_3">
     <g id="line2d_3">
      <g>
       <use style="stroke:#000000;stroke-width:0.8;" x="218.9343" xlink:href="#m9231fec757" y="307.584"/>
      </g>
     </g>
     <g id="text_3">
      <!-- 800 -->
      <g transform="translate(209.39055 322.182437)scale(0.1 -0.1)">
       <defs>
        <path d="M 2034 2216 
Q 1584 2216 1326 1975 
Q 1069 1734 1069 1313 
Q 1069 891 1326 650 
Q 1584 409 2034 409 
Q 2484 409 2743 651 
Q 3003 894 3003 1313 
Q 3003 1734 2745 1975 
Q 2488 2216 2034 2216 
z
M 1403 2484 
Q 997 2584 770 2862 
Q 544 3141 544 3541 
Q 544 4100 942 4425 
Q 1341 4750 2034 4750 
Q 2731 4750 3128 4425 
Q 3525 4100 3525 3541 
Q 3525 3141 3298 2862 
Q 3072 2584 2669 2484 
Q 3125 2378 3379 2068 
Q 3634 1759 3634 1313 
Q 3634 634 3220 271 
Q 2806 -91 2034 -91 
Q 1263 -91 848 271 
Q 434 634 434 1313 
Q 434 1759 690 2068 
Q 947 2378 1403 2484 
z
M 1172 3481 
Q 1172 3119 1398 2916 
Q 1625 2713 2034 2713 
Q 2441 2713 2670 2916 
Q 2900 3119 2900 3481 
Q 2900 3844 2670 4047 
Q 2441 4250 2034 4250 
Q 1625 4250 1398 4047 
Q 1172 3844 1172 3481 
z
" id="DejaVuSans-38" transform="scale(0.015625)"/>
       </defs>
       <use xlink:href="#DejaVuSans-38"/>
       <use x="63.623047" xlink:href="#DejaVuSans-30"/>
       <use x="127.246094" xlink:href="#DejaVuSans-30"/>
      </g>
     </g>
    </g>
    <g id="xtick_4">
     <g id="line2d_4">
      <g>
       <use style="stroke:#000000;stroke-width:0.8;" x="276.936647" xlink:href="#m9231fec757" y="307.584"/>
      </g>
     </g>
     <g id="text_4">
      <!-- 1000 -->
      <g transform="translate(264.211647 322.182437)scale(0.1 -0.1)">
       <defs>
        <path d="M 794 531 
L 1825 531 
L 1825 4091 
L 703 3866 
L 703 4441 
L 1819 4666 
L 2450 4666 
L 2450 531 
L 3481 531 
L 3481 0 
L 794 0 
L 794 531 
z
" id="DejaVuSans-31" transform="scale(0.015625)"/>
       </defs>
       <use xlink:href="#DejaVuSans-31"/>
       <use x="63.623047" xlink:href="#DejaVuSans-30"/>
       <use x="127.246094" xlink:href="#DejaVuSans-30"/>
       <use x="190.869141" xlink:href="#DejaVuSans-30"/>
      </g>
     </g>
    </g>
    <g id="xtick_5">
     <g id="line2d_5">
      <g>
       <use style="stroke:#000000;stroke-width:0.8;" x="334.938995" xlink:href="#m9231fec757" y="307.584"/>
      </g>
     </g>
     <g id="text_5">
      <!-- 1200 -->
      <g transform="translate(322.213995 322.182437)scale(0.1 -0.1)">
       <defs>
        <path d="M 1228 531 
L 3431 531 
L 3431 0 
L 469 0 
L 469 531 
Q 828 903 1448 1529 
Q 2069 2156 2228 2338 
Q 2531 2678 2651 2914 
Q 2772 3150 2772 3378 
Q 2772 3750 2511 3984 
Q 2250 4219 1831 4219 
Q 1534 4219 1204 4116 
Q 875 4013 500 3803 
L 500 4441 
Q 881 4594 1212 4672 
Q 1544 4750 1819 4750 
Q 2544 4750 2975 4387 
Q 3406 4025 3406 3419 
Q 3406 3131 3298 2873 
Q 3191 2616 2906 2266 
Q 2828 2175 2409 1742 
Q 1991 1309 1228 531 
z
" id="DejaVuSans-32" transform="scale(0.015625)"/>
       </defs>
       <use xlink:href="#DejaVuSans-31"/>
       <use x="63.623047" xlink:href="#DejaVuSans-32"/>
       <use x="127.246094" xlink:href="#DejaVuSans-30"/>
       <use x="190.869141" xlink:href="#DejaVuSans-30"/>
      </g>
     </g>
    </g>
    <g id="xtick_6">
     <g id="line2d_6">
      <g>
       <use style="stroke:#000000;stroke-width:0.8;" x="392.941342" xlink:href="#m9231fec757" y="307.584"/>
      </g>
     </g>
     <g id="text_6">
      <!-- 1400 -->
      <g transform="translate(380.216342 322.182437)scale(0.1 -0.1)">
       <use xlink:href="#DejaVuSans-31"/>
       <use x="63.623047" xlink:href="#DejaVuSans-34"/>
       <use x="127.246094" xlink:href="#DejaVuSans-30"/>
       <use x="190.869141" xlink:href="#DejaVuSans-30"/>
      </g>
     </g>
    </g>
    <g id="text_7">
     <!-- Wavelength [nm] -->
     <g transform="translate(192.967812 335.860562)scale(0.1 -0.1)">
      <defs>
       <path d="M 213 4666 
L 850 4666 
L 1831 722 
L 2809 4666 
L 3519 4666 
L 4500 722 
L 5478 4666 
L 6119 4666 
L 4947 0 
L 4153 0 
L 3169 4050 
L 2175 0 
L 1381 0 
L 213 4666 
z
" id="DejaVuSans-57" transform="scale(0.015625)"/>
       <path d="M 2194 1759 
Q 1497 1759 1228 1600 
Q 959 1441 959 1056 
Q 959 750 1161 570 
Q 1363 391 1709 391 
Q 2188 391 2477 730 
Q 2766 1069 2766 1631 
L 2766 1759 
L 2194 1759 
z
M 3341 1997 
L 3341 0 
L 2766 0 
L 2766 531 
Q 2569 213 2275 61 
Q 1981 -91 1556 -91 
Q 1019 -91 701 211 
Q 384 513 384 1019 
Q 384 1609 779 1909 
Q 1175 2209 1959 2209 
L 2766 2209 
L 2766 2266 
Q 2766 2663 2505 2880 
Q 2244 3097 1772 3097 
Q 1472 3097 1187 3025 
Q 903 2953 641 2809 
L 641 3341 
Q 956 3463 1253 3523 
Q 1550 3584 1831 3584 
Q 2591 3584 2966 3190 
Q 3341 2797 3341 1997 
z
" id="DejaVuSans-61" transform="scale(0.015625)"/>
       <path d="M 191 3500 
L 800 3500 
L 1894 563 
L 2988 3500 
L 3597 3500 
L 2284 0 
L 1503 0 
L 191 3500 
z
" id="DejaVuSans-76" transform="scale(0.015625)"/>
       <path d="M 3597 1894 
L 3597 1613 
L 953 1613 
Q 991 1019 1311 708 
Q 1631 397 2203 397 
Q 2534 397 2845 478 
Q 3156 559 3463 722 
L 3463 178 
Q 3153 47 2828 -22 
Q 2503 -91 2169 -91 
Q 1331 -91 842 396 
Q 353 884 353 1716 
Q 353 2575 817 3079 
Q 1281 3584 2069 3584 
Q 2775 3584 3186 3129 
Q 3597 2675 3597 1894 
z
M 3022 2063 
Q 3016 2534 2758 2815 
Q 2500 3097 2075 3097 
Q 1594 3097 1305 2825 
Q 1016 2553 972 2059 
L 3022 2063 
z
" id="DejaVuSans-65" transform="scale(0.015625)"/>
       <path d="M 603 4863 
L 1178 4863 
L 1178 0 
L 603 0 
L 603 4863 
z
" id="DejaVuSans-6c" transform="scale(0.015625)"/>
       <path d="M 3513 2113 
L 3513 0 
L 2938 0 
L 2938 2094 
Q 2938 2591 2744 2837 
Q 2550 3084 2163 3084 
Q 1697 3084 1428 2787 
Q 1159 2491 1159 1978 
L 1159 0 
L 581 0 
L 581 3500 
L 1159 3500 
L 1159 2956 
Q 1366 3272 1645 3428 
Q 1925 3584 2291 3584 
Q 2894 3584 3203 3211 
Q 3513 2838 3513 2113 
z
" id="DejaVuSans-6e" transform="scale(0.015625)"/>
       <path d="M 2906 1791 
Q 2906 2416 2648 2759 
Q 2391 3103 1925 3103 
Q 1463 3103 1205 2759 
Q 947 2416 947 1791 
Q 947 1169 1205 825 
Q 1463 481 1925 481 
Q 2391 481 2648 825 
Q 2906 1169 2906 1791 
z
M 3481 434 
Q 3481 -459 3084 -895 
Q 2688 -1331 1869 -1331 
Q 1566 -1331 1297 -1286 
Q 1028 -1241 775 -1147 
L 775 -588 
Q 1028 -725 1275 -790 
Q 1522 -856 1778 -856 
Q 2344 -856 2625 -561 
Q 2906 -266 2906 331 
L 2906 616 
Q 2728 306 2450 153 
Q 2172 0 1784 0 
Q 1141 0 747 490 
Q 353 981 353 1791 
Q 353 2603 747 3093 
Q 1141 3584 1784 3584 
Q 2172 3584 2450 3431 
Q 2728 3278 2906 2969 
L 2906 3500 
L 3481 3500 
L 3481 434 
z
" id="DejaVuSans-67" transform="scale(0.015625)"/>
       <path d="M 1172 4494 
L 1172 3500 
L 2356 3500 
L 2356 3053 
L 1172 3053 
L 1172 1153 
Q 1172 725 1289 603 
Q 1406 481 1766 481 
L 2356 481 
L 2356 0 
L 1766 0 
Q 1100 0 847 248 
Q 594 497 594 1153 
L 594 3053 
L 172 3053 
L 172 3500 
L 594 3500 
L 594 4494 
L 1172 4494 
z
" id="DejaVuSans-74" transform="scale(0.015625)"/>
       <path d="M 3513 2113 
L 3513 0 
L 2938 0 
L 2938 2094 
Q 2938 2591 2744 2837 
Q 2550 3084 2163 3084 
Q 1697 3084 1428 2787 
Q 1159 2491 1159 1978 
L 1159 0 
L 581 0 
L 581 4863 
L 1159 4863 
L 1159 2956 
Q 1366 3272 1645 3428 
Q 1925 3584 2291 3584 
Q 2894 3584 3203 3211 
Q 3513 2838 3513 2113 
z
" id="DejaVuSans-68" transform="scale(0.015625)"/>
       <path id="DejaVuSans-20" transform="scale(0.015625)"/>
       <path d="M 550 4863 
L 1875 4863 
L 1875 4416 
L 1125 4416 
L 1125 -397 
L 1875 -397 
L 1875 -844 
L 550 -844 
L 550 4863 
z
" id="DejaVuSans-5b" transform="scale(0.015625)"/>
       <path d="M 3328 2828 
Q 3544 3216 3844 3400 
Q 4144 3584 4550 3584 
Q 5097 3584 5394 3201 
Q 5691 2819 5691 2113 
L 5691 0 
L 5113 0 
L 5113 2094 
Q 5113 2597 4934 2840 
Q 4756 3084 4391 3084 
Q 3944 3084 3684 2787 
Q 3425 2491 3425 1978 
L 3425 0 
L 2847 0 
L 2847 2094 
Q 2847 2600 2669 2842 
Q 2491 3084 2119 3084 
Q 1678 3084 1418 2786 
Q 1159 2488 1159 1978 
L 1159 0 
L 581 0 
L 581 3500 
L 1159 3500 
L 1159 2956 
Q 1356 3278 1631 3431 
Q 1906 3584 2284 3584 
Q 2666 3584 2933 3390 
Q 3200 3197 3328 2828 
z
" id="DejaVuSans-6d" transform="scale(0.015625)"/>
       <path d="M 1947 4863 
L 1947 -844 
L 622 -844 
L 622 -397 
L 1369 -397 
L 1369 4416 
L 622 4416 
L 622 4863 
L 1947 4863 
z
" id="DejaVuSans-5d" transform="scale(0.015625)"/>
      </defs>
      <use xlink:href="#DejaVuSans-57"/>
      <use x="92.501953" xlink:href="#DejaVuSans-61"/>
      <use x="153.78125" xlink:href="#DejaVuSans-76"/>
      <use x="212.960938" xlink:href="#DejaVuSans-65"/>
      <use x="274.484375" xlink:href="#DejaVuSans-6c"/>
      <use x="302.267578" xlink:href="#DejaVuSans-65"/>
      <use x="363.791016" xlink:href="#DejaVuSans-6e"/>
      <use x="427.169922" xlink:href="#DejaVuSans-67"/>
      <use x="490.646484" xlink:href="#DejaVuSans-74"/>
      <use x="529.855469" xlink:href="#DejaVuSans-68"/>
      <use x="593.234375" xlink:href="#DejaVuSans-20"/>
      <use x="625.021484" xlink:href="#DejaVuSans-5b"/>
      <use x="664.035156" xlink:href="#DejaVuSans-6e"/>
      <use x="727.414062" xlink:href="#DejaVuSans-6d"/>
      <use x="824.826172" xlink:href="#DejaVuSans-5d"/>
     </g>
    </g>
   </g>
   <g id="matplotlib.axis_2">
    <g id="ytick_1">
     <g id="line2d_7">
      <defs>
       <path d="M 0 0 
L -3.5 0 
" id="me5c8dd91a1" style="stroke:#000000;stroke-width:0.8;"/>
      </defs>
      <g>
       <use style="stroke:#000000;stroke-width:0.8;" x="57.6" xlink:href="#me5c8dd91a1" y="303.398952"/>
      </g>
     </g>
     <g id="text_8">
      <!-- 0 -->
      <g transform="translate(44.2375 307.19817)scale(0.1 -0.1)">
       <use xlink:href="#DejaVuSans-30"/>
      </g>
     </g>
    </g>
    <g id="ytick_2">
     <g id="line2d_8">
      <g>
       <use style="stroke:#000000;stroke-width:0.8;" x="57.6" xlink:href="#me5c8dd91a1" y="264.619777"/>
      </g>
     </g>
     <g id="text_9">
      <!-- 5000 -->
      <g transform="translate(25.15 268.418996)scale(0.1 -0.1)">
       <defs>
        <path d="M 691 4666 
L 3169 4666 
L 3169 4134 
L 1269 4134 
L 1269 2991 
Q 1406 3038 1543 3061 
Q 1681 3084 1819 3084 
Q 2600 3084 3056 2656 
Q 3513 2228 3513 1497 
Q 3513 744 3044 326 
Q 2575 -91 1722 -91 
Q 1428 -91 1123 -41 
Q 819 9 494 109 
L 494 744 
Q 775 591 1075 516 
Q 1375 441 1709 441 
Q 2250 441 2565 725 
Q 2881 1009 2881 1497 
Q 2881 1984 2565 2268 
Q 2250 2553 1709 2553 
Q 1456 2553 1204 2497 
Q 953 2441 691 2322 
L 691 4666 
z
" id="DejaVuSans-35" transform="scale(0.015625)"/>
       </defs>
       <use xlink:href="#DejaVuSans-35"/>
       <use x="63.623047" xlink:href="#DejaVuSans-30"/>
       <use x="127.246094" xlink:href="#DejaVuSans-30"/>
       <use x="190.869141" xlink:href="#DejaVuSans-30"/>
      </g>
     </g>
    </g>
    <g id="ytick_3">
     <g id="line2d_9">
      <g>
       <use style="stroke:#000000;stroke-width:0.8;" x="57.6" xlink:href="#me5c8dd91a1" y="225.840603"/>
      </g>
     </g>
     <g id="text_10">
      <!-- 10000 -->
      <g transform="translate(18.7875 229.639822)scale(0.1 -0.1)">
       <use xlink:href="#DejaVuSans-31"/>
       <use x="63.623047" xlink:href="#DejaVuSans-30"/>
       <use x="127.246094" xlink:href="#DejaVuSans-30"/>
       <use x="190.869141" xlink:href="#DejaVuSans-30"/>
       <use x="254.492188" xlink:href="#DejaVuSans-30"/>
      </g>
     </g>
    </g>
    <g id="ytick_4">
     <g id="line2d_10">
      <g>
       <use style="stroke:#000000;stroke-width:0.8;" x="57.6" xlink:href="#me5c8dd91a1" y="187.061429"/>
      </g>
     </g>
     <g id="text_11">
      <!-- 15000 -->
      <g transform="translate(18.7875 190.860648)scale(0.1 -0.1)">
       <use xlink:href="#DejaVuSans-31"/>
       <use x="63.623047" xlink:href="#DejaVuSans-35"/>
       <use x="127.246094" xlink:href="#DejaVuSans-30"/>
       <use x="190.869141" xlink:href="#DejaVuSans-30"/>
       <use x="254.492188" xlink:href="#DejaVuSans-30"/>
      </g>
     </g>
    </g>
    <g id="ytick_5">
     <g id="line2d_11">
      <g>
       <use style="stroke:#000000;stroke-width:0.8;" x="57.6" xlink:href="#me5c8dd91a1" y="148.282255"/>
      </g>
     </g>
     <g id="text_12">
      <!-- 20000 -->
      <g transform="translate(18.7875 152.081474)scale(0.1 -0.1)">
       <use xlink:href="#DejaVuSans-32"/>
       <use x="63.623047" xlink:href="#DejaVuSans-30"/>
       <use x="127.246094" xlink:href="#DejaVuSans-30"/>
       <use x="190.869141" xlink:href="#DejaVuSans-30"/>
       <use x="254.492188" xlink:href="#DejaVuSans-30"/>
      </g>
     </g>
    </g>
    <g id="ytick_6">
     <g id="line2d_12">
      <g>
       <use style="stroke:#000000;stroke-width:0.8;" x="57.6" xlink:href="#me5c8dd91a1" y="109.503081"/>
      </g>
     </g>
     <g id="text_13">
      <!-- 25000 -->
      <g transform="translate(18.7875 113.3023)scale(0.1 -0.1)">
       <use xlink:href="#DejaVuSans-32"/>
       <use x="63.623047" xlink:href="#DejaVuSans-35"/>
       <use x="127.246094" xlink:href="#DejaVuSans-30"/>
       <use x="190.869141" xlink:href="#DejaVuSans-30"/>
       <use x="254.492188" xlink:href="#DejaVuSans-30"/>
      </g>
     </g>
    </g>
    <g id="ytick_7">
     <g id="line2d_13">
      <g>
       <use style="stroke:#000000;stroke-width:0.8;" x="57.6" xlink:href="#me5c8dd91a1" y="70.723907"/>
      </g>
     </g>
     <g id="text_14">
      <!-- 30000 -->
      <g transform="translate(18.7875 74.523125)scale(0.1 -0.1)">
       <defs>
        <path d="M 2597 2516 
Q 3050 2419 3304 2112 
Q 3559 1806 3559 1356 
Q 3559 666 3084 287 
Q 2609 -91 1734 -91 
Q 1441 -91 1130 -33 
Q 819 25 488 141 
L 488 750 
Q 750 597 1062 519 
Q 1375 441 1716 441 
Q 2309 441 2620 675 
Q 2931 909 2931 1356 
Q 2931 1769 2642 2001 
Q 2353 2234 1838 2234 
L 1294 2234 
L 1294 2753 
L 1863 2753 
Q 2328 2753 2575 2939 
Q 2822 3125 2822 3475 
Q 2822 3834 2567 4026 
Q 2313 4219 1838 4219 
Q 1578 4219 1281 4162 
Q 984 4106 628 3988 
L 628 4550 
Q 988 4650 1302 4700 
Q 1616 4750 1894 4750 
Q 2613 4750 3031 4423 
Q 3450 4097 3450 3541 
Q 3450 3153 3228 2886 
Q 3006 2619 2597 2516 
z
" id="DejaVuSans-33" transform="scale(0.015625)"/>
       </defs>
       <use xlink:href="#DejaVuSans-33"/>
       <use x="63.623047" xlink:href="#DejaVuSans-30"/>
       <use x="127.246094" xlink:href="#DejaVuSans-30"/>
       <use x="190.869141" xlink:href="#DejaVuSans-30"/>
       <use x="254.492188" xlink:href="#DejaVuSans-30"/>
      </g>
     </g>
    </g>
    <g id="text_15">
     <!-- Counts -->
     <g transform="translate(12.707812 191.981125)rotate(-90)scale(0.1 -0.1)">
      <defs>
       <path d="M 4122 4306 
L 4122 3641 
Q 3803 3938 3442 4084 
Q 3081 4231 2675 4231 
Q 1875 4231 1450 3742 
Q 1025 3253 1025 2328 
Q 1025 1406 1450 917 
Q 1875 428 2675 428 
Q 3081 428 3442 575 
Q 3803 722 4122 1019 
L 4122 359 
Q 3791 134 3420 21 
Q 3050 -91 2638 -91 
Q 1578 -91 968 557 
Q 359 1206 359 2328 
Q 359 3453 968 4101 
Q 1578 4750 2638 4750 
Q 3056 4750 3426 4639 
Q 3797 4528 4122 4306 
z
" id="DejaVuSans-43" transform="scale(0.015625)"/>
       <path d="M 1959 3097 
Q 1497 3097 1228 2736 
Q 959 2375 959 1747 
Q 959 1119 1226 758 
Q 1494 397 1959 397 
Q 2419 397 2687 759 
Q 2956 1122 2956 1747 
Q 2956 2369 2687 2733 
Q 2419 3097 1959 3097 
z
M 1959 3584 
Q 2709 3584 3137 3096 
Q 3566 2609 3566 1747 
Q 3566 888 3137 398 
Q 2709 -91 1959 -91 
Q 1206 -91 779 398 
Q 353 888 353 1747 
Q 353 2609 779 3096 
Q 1206 3584 1959 3584 
z
" id="DejaVuSans-6f" transform="scale(0.015625)"/>
       <path d="M 544 1381 
L 544 3500 
L 1119 3500 
L 1119 1403 
Q 1119 906 1312 657 
Q 1506 409 1894 409 
Q 2359 409 2629 706 
Q 2900 1003 2900 1516 
L 2900 3500 
L 3475 3500 
L 3475 0 
L 2900 0 
L 2900 538 
Q 2691 219 2414 64 
Q 2138 -91 1772 -91 
Q 1169 -91 856 284 
Q 544 659 544 1381 
z
M 1991 3584 
L 1991 3584 
z
" id="DejaVuSans-75" transform="scale(0.015625)"/>
       <path d="M 2834 3397 
L 2834 2853 
Q 2591 2978 2328 3040 
Q 2066 3103 1784 3103 
Q 1356 3103 1142 2972 
Q 928 2841 928 2578 
Q 928 2378 1081 2264 
Q 1234 2150 1697 2047 
L 1894 2003 
Q 2506 1872 2764 1633 
Q 3022 1394 3022 966 
Q 3022 478 2636 193 
Q 2250 -91 1575 -91 
Q 1294 -91 989 -36 
Q 684 19 347 128 
L 347 722 
Q 666 556 975 473 
Q 1284 391 1588 391 
Q 1994 391 2212 530 
Q 2431 669 2431 922 
Q 2431 1156 2273 1281 
Q 2116 1406 1581 1522 
L 1381 1569 
Q 847 1681 609 1914 
Q 372 2147 372 2553 
Q 372 3047 722 3315 
Q 1072 3584 1716 3584 
Q 2034 3584 2315 3537 
Q 2597 3491 2834 3397 
z
" id="DejaVuSans-73" transform="scale(0.015625)"/>
      </defs>
      <use xlink:href="#DejaVuSans-43"/>
      <use x="69.824219" xlink:href="#DejaVuSans-6f"/>
      <use x="131.005859" xlink:href="#DejaVuSans-75"/>
      <use x="194.384766" xlink:href="#DejaVuSans-6e"/>
      <use x="257.763672" xlink:href="#DejaVuSans-74"/>
      <use x="296.972656" xlink:href="#DejaVuSans-73"/>
     </g>
    </g>
   </g>
   <g id="line2d_14">
    <path clip-path="url(#pb9f98b3c13)" d="M 73.832727 286.398162 
L 73.991327 287.266815 
L 74.149928 286.025882 
L 74.308528 279.1387 
L 74.467128 285.994858 
L 74.625728 282.706384 
L 74.784328 290.276079 
L 74.942928 288.880029 
L 75.101529 291.113709 
L 75.418729 282.551268 
L 75.577329 286.180998 
L 75.894529 279.23177 
L 76.05313 282.054894 
L 76.21173 282.768431 
L 76.37033 279.945307 
L 76.52893 285.870765 
L 76.68753 284.940065 
L 76.84613 289.283332 
L 77.004731 286.987605 
L 77.321931 286.553278 
L 77.480531 285.064158 
L 77.639131 275.508969 
L 77.797731 290.151986 
L 77.956332 273.616546 
L 78.114932 287.949329 
L 78.273532 280.782937 
L 78.432132 292.199526 
L 78.590732 291.082686 
L 78.749333 283.730154 
L 78.907933 289.996869 
L 79.066533 284.878018 
L 79.383733 288.011375 
L 79.700934 292.230549 
L 79.859534 289.779706 
L 80.018134 285.219275 
L 80.176734 291.765199 
L 80.335334 285.312345 
L 80.652535 288.911052 
L 80.811135 290.679382 
L 80.969735 281.527497 
L 81.128335 286.801465 
L 81.286935 286.429185 
L 81.445535 288.693889 
L 81.604136 287.918305 
L 81.762736 286.584302 
L 81.921336 278.642327 
L 82.079936 287.452955 
L 82.238536 286.491232 
L 82.555737 289.965846 
L 82.714337 290.151986 
L 82.872937 285.126205 
L 83.031537 291.579059 
L 83.190137 289.252309 
L 83.348737 283.171734 
L 83.507338 290.679382 
L 83.665938 285.746671 
L 83.824538 290.648359 
L 83.983138 287.483978 
L 84.141738 281.124194 
L 84.300338 288.290585 
L 84.458939 286.212022 
L 84.617539 288.352632 
L 84.776139 292.013386 
L 85.251939 280.907031 
L 85.41054 291.051662 
L 85.56914 287.856259 
L 85.72774 289.066169 
L 85.88634 284.815971 
L 86.20354 292.323619 
L 86.362141 280.224517 
L 86.679341 290.183009 
L 86.996541 281.682614 
L 87.155141 288.166492 
L 87.472342 284.443691 
L 87.630942 286.367138 
L 87.789542 291.672129 
L 87.948142 275.819203 
L 88.106742 287.546025 
L 88.265343 287.732165 
L 88.423943 290.958592 
L 88.582543 290.245056 
L 88.741143 288.321609 
L 88.899743 287.856259 
L 89.058343 290.400172 
L 89.216944 288.880029 
L 89.375544 282.737408 
L 89.534144 293.81274 
L 89.692744 287.949329 
L 89.851344 292.882039 
L 90.009944 284.815971 
L 90.168545 286.801465 
L 90.327145 292.354643 
L 90.485745 281.713637 
L 90.644345 291.765199 
L 90.961545 288.724912 
L 91.120146 289.965846 
L 91.278746 288.414679 
L 91.437346 289.407425 
L 91.595946 293.6266 
L 91.754546 287.049652 
L 91.913147 289.283332 
L 92.071747 285.095181 
L 92.230347 291.982363 
L 92.388947 291.982363 
L 92.547547 281.403404 
L 92.864748 290.493242 
L 93.023348 289.469472 
L 93.181948 292.292596 
L 93.340548 287.390908 
L 93.657748 292.044409 
L 93.816349 287.173745 
L 93.974949 287.421932 
L 94.133549 286.708395 
L 94.292149 288.911052 
L 94.609349 289.934822 
L 94.76795 289.407425 
L 94.92655 288.197515 
L 95.08515 277.029113 
L 95.24375 285.064158 
L 95.56095 287.018628 
L 95.719551 284.381645 
L 95.878151 291.827246 
L 96.036751 290.710406 
L 96.195351 287.173745 
L 96.353951 279.759167 
L 96.512551 286.367138 
L 96.671152 287.452955 
L 96.829752 283.699131 
L 96.988352 291.672129 
L 97.146952 290.058916 
L 97.305552 284.536761 
L 97.464152 285.963835 
L 97.622753 289.407425 
L 97.781353 285.405415 
L 97.939953 285.746671 
L 98.098553 288.445702 
L 98.257153 286.149975 
L 98.415753 289.345379 
L 98.574354 287.483978 
L 98.732954 283.481968 
L 98.891554 283.450944 
L 99.050154 290.027892 
L 99.208754 288.445702 
L 99.367354 291.361896 
L 99.525955 289.221285 
L 99.684555 280.596797 
L 99.843155 291.020639 
L 100.001755 288.507749 
L 100.160355 289.531519 
L 100.318955 294.340136 
L 100.477556 290.183009 
L 100.636156 288.973099 
L 100.953356 280.193494 
L 101.111956 288.817982 
L 101.270556 282.892524 
L 101.429157 293.25432 
L 101.587757 289.190262 
L 101.746357 292.230549 
L 101.904957 279.945307 
L 102.222157 289.593566 
L 102.380758 289.903799 
L 102.539358 292.323619 
L 102.697958 290.710406 
L 102.856558 283.202758 
L 103.173758 292.013386 
L 103.490959 281.186241 
L 103.649559 289.314355 
L 103.808159 289.469472 
L 103.966759 287.701142 
L 104.12536 289.376402 
L 104.28396 283.575038 
L 104.44256 283.978341 
L 104.91836 289.779706 
L 105.076961 287.204768 
L 105.235561 288.911052 
L 105.394161 280.813961 
L 105.552761 286.243045 
L 105.711361 286.398162 
L 105.869961 286.925558 
L 106.028562 291.920316 
L 106.187162 288.321609 
L 106.345762 290.834499 
L 106.504362 290.648359 
L 106.821562 289.314355 
L 106.980163 285.684625 
L 107.138763 290.027892 
L 107.297363 285.839741 
L 107.455963 286.987605 
L 107.614563 290.772452 
L 107.931764 284.629831 
L 108.090364 288.600819 
L 108.248964 288.166492 
L 108.407564 284.257551 
L 108.566164 292.788969 
L 108.724764 285.312345 
L 108.883365 289.314355 
L 109.041965 286.894535 
L 109.200565 290.151986 
L 109.359165 281.372381 
L 109.517765 289.965846 
L 109.676365 290.679382 
L 109.834966 283.388898 
L 110.152166 290.307102 
L 110.310766 286.367138 
L 110.469366 290.151986 
L 110.627966 289.903799 
L 110.786567 288.911052 
L 110.945167 291.330873 
L 111.103767 284.288575 
L 111.262367 288.973099 
L 111.420967 289.159239 
L 111.579567 291.206779 
L 111.738168 282.178987 
L 111.896768 293.099203 
L 112.055368 280.25554 
L 112.213968 281.527497 
L 112.531168 291.858269 
L 112.689769 290.058916 
L 112.848369 290.151986 
L 113.006969 293.316366 
L 113.165569 288.755935 
L 113.324169 292.571806 
L 113.64137 285.529508 
L 113.79997 285.498485 
L 113.95857 290.710406 
L 114.11717 289.593566 
L 114.27577 291.951339 
L 114.43437 285.467461 
L 114.592971 292.726923 
L 114.751571 290.710406 
L 114.910171 290.214032 
L 115.227371 283.978341 
L 115.544572 292.292596 
L 115.861772 284.784948 
L 116.178972 292.261573 
L 116.337573 274.702363 
L 116.496173 284.598808 
L 116.654773 283.575038 
L 116.813373 267.442901 
L 116.971973 291.237803 
L 117.130573 278.11493 
L 117.289174 291.268826 
L 117.447774 290.400172 
L 117.606374 293.25432 
L 117.764974 291.765199 
L 117.923574 288.724912 
L 118.082174 290.400172 
L 118.240775 295.488 
L 118.399375 283.109688 
L 118.875175 289.376402 
L 119.350976 293.378413 
L 119.509576 288.911052 
L 119.668176 290.524266 
L 119.826776 289.655612 
L 119.985376 291.175756 
L 120.302577 283.078664 
L 120.461177 290.865522 
L 120.619777 291.796223 
L 120.778377 290.151986 
L 120.936977 270.203978 
L 121.095578 286.894535 
L 121.254178 288.135469 
L 121.412778 288.042399 
L 121.571378 290.183009 
L 121.729978 285.963835 
L 121.888578 291.858269 
L 122.047179 289.252309 
L 122.522979 291.517013 
L 122.681579 286.305092 
L 122.840179 290.896546 
L 122.99878 291.144732 
L 123.15738 289.500496 
L 123.31598 289.190262 
L 123.47458 290.400172 
L 123.63318 293.192273 
L 123.950381 283.450944 
L 124.108981 289.531519 
L 124.267581 286.212022 
L 124.426181 286.522255 
L 124.584781 289.841752 
L 124.743381 283.544014 
L 124.901982 293.688646 
L 125.060582 287.204768 
L 125.219182 285.343368 
L 125.694982 291.579059 
L 125.853583 273.678592 
L 126.012183 288.228539 
L 126.170783 287.390908 
L 126.329383 287.266815 
L 126.487983 289.066169 
L 126.646583 286.243045 
L 126.805184 289.376402 
L 126.963784 288.073422 
L 127.122384 288.135469 
L 127.280984 289.655612 
L 127.439584 294.495253 
L 127.598184 293.471483 
L 127.915385 288.631842 
L 128.073985 293.378413 
L 128.232585 288.942075 
L 128.391185 280.317587 
L 128.708386 289.562542 
L 128.866986 287.452955 
L 129.025586 291.144732 
L 129.184186 289.097192 
L 129.501387 290.834499 
L 129.659987 290.834499 
L 129.818587 290.214032 
L 129.977187 286.863512 
L 130.135787 290.989616 
L 130.294387 289.872776 
L 130.452988 292.944086 
L 130.611588 288.911052 
L 130.770188 292.044409 
L 131.087388 286.863512 
L 131.245988 289.655612 
L 131.404589 289.469472 
L 131.563189 295.30186 
L 131.880389 284.071411 
L 132.038989 288.383655 
L 132.35619 281.713637 
L 132.51479 292.602829 
L 132.67339 286.615325 
L 132.83199 288.724912 
L 132.99059 286.894535 
L 133.14919 291.113709 
L 133.307791 290.276079 
L 133.466391 288.135469 
L 133.624991 289.004122 
L 133.783591 283.637084 
L 133.942191 290.058916 
L 134.100791 286.491232 
L 134.259392 293.874786 
L 134.576592 289.252309 
L 134.735192 287.421932 
L 134.893792 283.326851 
L 135.052392 293.006133 
L 135.210993 289.624589 
L 135.369593 294.122973 
L 135.528193 285.622578 
L 135.686793 292.757946 
L 135.845393 293.71967 
L 136.003993 288.290585 
L 136.162594 286.956582 
L 136.321194 287.856259 
L 136.638394 290.151986 
L 136.796994 291.610083 
L 136.955594 291.423943 
L 137.114195 288.880029 
L 137.272795 291.392919 
L 137.589995 285.188251 
L 137.748595 288.228539 
L 137.907195 287.359885 
L 138.224396 292.695899 
L 138.382996 287.297838 
L 138.541596 290.989616 
L 138.700196 289.748682 
L 138.858796 294.18502 
L 139.017397 293.34739 
L 139.175997 285.436438 
L 139.493197 291.734176 
L 139.810397 287.546025 
L 139.968998 292.044409 
L 140.127598 291.454966 
L 140.286198 286.615325 
L 140.603398 290.958592 
L 140.761998 289.748682 
L 140.920599 291.392919 
L 141.079199 285.498485 
L 141.237799 288.662865 
L 141.396399 288.104445 
L 141.554999 289.934822 
L 141.7136 289.562542 
L 141.8722 286.149975 
L 142.1894 291.796223 
L 142.5066 283.140711 
L 142.665201 288.445702 
L 142.823801 285.374391 
L 143.141001 291.517013 
L 143.299601 283.512991 
L 143.458201 290.027892 
L 143.616802 287.421932 
L 143.775402 286.863512 
L 143.934002 290.958592 
L 144.092602 286.118952 
L 144.251202 291.610083 
L 144.568403 283.544014 
L 144.727003 290.772452 
L 144.885603 292.385666 
L 145.044203 288.321609 
L 145.520004 284.350621 
L 145.837204 289.035145 
L 145.995804 288.228539 
L 146.154404 286.243045 
L 146.313004 291.330873 
L 146.471605 288.849005 
L 146.630205 291.641106 
L 146.788805 281.961824 
L 146.947405 287.483978 
L 147.264605 282.489221 
L 147.423206 291.268826 
L 147.581806 284.164481 
L 147.899006 291.548036 
L 148.057606 284.878018 
L 148.216206 285.219275 
L 148.374807 291.423943 
L 148.533407 282.054894 
L 148.692007 287.825235 
L 149.009207 290.555289 
L 149.167807 288.600819 
L 149.326408 289.469472 
L 149.485008 292.633853 
L 149.643608 279.88326 
L 149.960808 287.546025 
L 150.119408 280.224517 
L 150.278009 288.942075 
L 150.436609 286.398162 
L 150.595209 291.206779 
L 150.753809 283.202758 
L 150.912409 288.228539 
L 151.071009 286.398162 
L 151.22961 294.340136 
L 151.38821 286.925558 
L 151.70541 290.555289 
L 151.86401 291.858269 
L 152.02261 282.768431 
L 152.339811 290.648359 
L 152.498411 291.113709 
L 152.657011 288.445702 
L 152.815611 288.817982 
L 152.974211 285.994858 
L 153.132812 286.087928 
L 153.291412 292.168503 
L 153.450012 289.655612 
L 153.608612 291.517013 
L 153.767212 284.288575 
L 154.084413 288.724912 
L 154.243013 292.602829 
L 154.401613 284.195504 
L 154.560213 291.206779 
L 154.718813 288.817982 
L 154.877414 294.46423 
L 155.036014 292.882039 
L 155.194614 287.111698 
L 155.353214 288.849005 
L 155.511814 292.354643 
L 155.670414 288.290585 
L 155.829015 290.679382 
L 155.987615 288.073422 
L 156.146215 283.512991 
L 156.304815 289.035145 
L 156.622015 284.350621 
L 156.780616 291.082686 
L 157.256416 280.844984 
L 157.415016 289.128215 
L 157.573616 288.817982 
L 157.732217 286.522255 
L 157.890817 292.788969 
L 158.049417 288.880029 
L 158.208017 290.183009 
L 158.366617 289.500496 
L 158.525217 292.044409 
L 158.683818 288.166492 
L 158.842418 288.042399 
L 159.159618 286.894535 
L 159.318218 293.378413 
L 159.476818 279.69712 
L 159.635419 289.779706 
L 159.794019 289.717659 
L 159.952619 289.779706 
L 160.111219 284.722901 
L 160.269819 285.343368 
L 160.428419 288.880029 
L 160.58702 284.505738 
L 160.74562 293.409436 
L 161.06282 291.082686 
L 161.22142 292.788969 
L 161.38002 288.724912 
L 161.538621 291.641106 
L 161.697221 287.018628 
L 162.014421 291.082686 
L 162.173021 289.066169 
L 162.331621 289.779706 
L 162.490222 294.060926 
L 162.648822 294.433206 
L 162.807422 285.932811 
L 162.966022 290.027892 
L 163.124622 288.445702 
L 163.283222 284.567785 
L 163.600423 293.781716 
L 163.759023 286.863512 
L 163.917623 293.6266 
L 164.234823 288.321609 
L 164.393424 285.746671 
L 164.552024 288.228539 
L 164.710624 287.359885 
L 164.869224 289.345379 
L 165.027824 289.748682 
L 165.186424 276.005343 
L 165.345025 286.584302 
L 165.503625 288.942075 
L 165.820825 288.724912 
L 165.979425 290.834499 
L 166.138025 285.622578 
L 166.296626 287.887282 
L 166.455226 284.226528 
L 166.613826 290.865522 
L 166.772426 290.648359 
L 166.931026 282.365127 
L 167.089627 288.693889 
L 167.248227 289.314355 
L 167.406827 282.861501 
L 167.565427 288.538772 
L 167.724027 275.105666 
L 168.041228 291.392919 
L 168.199828 287.049652 
L 168.358428 290.400172 
L 168.517028 288.849005 
L 168.675628 290.555289 
L 168.834228 290.555289 
L 168.992829 287.763189 
L 169.310029 287.701142 
L 169.468629 279.293817 
L 169.627229 286.491232 
L 169.785829 281.558521 
L 169.94443 287.421932 
L 170.10303 288.321609 
L 170.26163 285.064158 
L 170.42023 289.965846 
L 170.57883 283.481968 
L 170.73743 287.887282 
L 170.896031 287.949329 
L 171.054631 283.947318 
L 171.213231 286.708395 
L 171.371831 282.396151 
L 171.530431 283.202758 
L 171.689031 289.035145 
L 171.847632 286.274068 
L 172.006232 280.100424 
L 172.323432 285.529508 
L 172.482032 281.031124 
L 172.640632 281.775684 
L 172.799233 287.670118 
L 173.116433 281.000101 
L 173.275033 284.133458 
L 173.433633 284.629831 
L 173.592233 287.359885 
L 173.750834 282.365127 
L 173.909434 282.241034 
L 174.068034 279.666097 
L 174.226634 282.210011 
L 174.385234 281.558521 
L 174.543834 279.386887 
L 174.861035 283.295828 
L 175.019635 282.551268 
L 175.178235 280.410657 
L 175.336835 275.664086 
L 175.654036 278.425163 
L 175.812636 277.215253 
L 175.971236 274.609293 
L 176.129836 279.69712 
L 176.288436 275.167713 
L 176.447036 279.542004 
L 176.764237 267.598018 
L 176.922837 269.025092 
L 177.081437 261.76563 
L 177.240037 265.705594 
L 177.715838 262.293027 
L 177.874438 259.128646 
L 178.033038 261.982794 
L 178.191638 261.02107 
L 178.508839 255.902219 
L 178.826039 251.869185 
L 178.984639 246.657264 
L 179.143239 248.022291 
L 179.301839 251.279741 
L 179.61904 243.058557 
L 179.77764 246.719311 
L 180.412041 225.71651 
L 180.570641 220.659706 
L 180.729241 219.294679 
L 180.887841 221.280172 
L 181.046441 210.732237 
L 181.205042 210.918377 
L 181.363642 200.246348 
L 181.522242 210.359957 
L 181.839442 196.182291 
L 182.156643 186.968359 
L 182.632443 166.213745 
L 182.791043 175.334607 
L 183.108244 160.567497 
L 183.901244 140.61949 
L 184.059845 122.098557 
L 184.218445 122.625953 
L 184.535645 104.57037 
L 184.852845 83.412452 
L 185.011446 82.574822 
L 185.328646 73.950334 
L 185.487246 57.383871 
L 185.645846 58.562758 
L 185.804446 53.568 
L 186.597447 88.841537 
L 187.073248 133.887425 
L 187.231848 142.232704 
L 187.707648 189.29511 
L 188.342049 233.875648 
L 188.500649 233.813601 
L 188.659249 240.111339 
L 188.81785 238.715289 
L 189.13505 256.026312 
L 189.45225 256.832919 
L 189.61085 269.924768 
L 189.769451 264.898987 
L 190.086651 274.888503 
L 190.245251 271.320819 
L 190.562451 277.46344 
L 190.721052 274.330083 
L 190.879652 281.651591 
L 191.196852 278.39414 
L 191.355452 278.76642 
L 191.514052 281.961824 
L 191.672653 281.682614 
L 191.831253 284.753925 
L 191.989853 283.761178 
L 192.307053 288.290585 
L 192.465654 287.080675 
L 192.624254 284.722901 
L 192.782854 277.990837 
L 192.941454 289.562542 
L 193.100054 289.066169 
L 193.417255 285.808718 
L 193.734455 290.245056 
L 193.893055 284.257551 
L 194.051655 287.328862 
L 194.210255 285.746671 
L 194.368856 289.469472 
L 194.686056 286.615325 
L 194.844656 287.235792 
L 195.003256 284.909041 
L 195.161856 288.693889 
L 195.479057 282.923548 
L 195.637657 284.629831 
L 195.796257 288.538772 
L 195.954857 286.863512 
L 196.272058 292.788969 
L 196.430658 282.520244 
L 196.589258 285.188251 
L 196.747858 291.330873 
L 196.906458 286.336115 
L 197.065058 289.128215 
L 197.382259 285.281321 
L 197.540859 288.104445 
L 197.699459 288.228539 
L 197.858059 289.655612 
L 198.016659 285.653601 
L 198.17526 291.889293 
L 198.33386 272.003332 
L 198.49246 291.299849 
L 198.65106 284.443691 
L 198.80966 285.932811 
L 198.96826 290.586312 
L 199.126861 290.245056 
L 199.285461 288.849005 
L 199.602661 283.140711 
L 199.761261 286.087928 
L 199.919861 292.695899 
L 200.237062 288.849005 
L 200.554262 286.243045 
L 200.712862 289.872776 
L 200.871462 284.102434 
L 201.030063 284.722901 
L 201.188663 288.911052 
L 201.347263 279.945307 
L 201.505863 288.662865 
L 201.823063 291.051662 
L 201.981664 289.221285 
L 202.140264 292.106456 
L 202.298864 285.591555 
L 202.457464 288.166492 
L 202.774664 289.004122 
L 202.933265 287.825235 
L 203.091865 285.343368 
L 203.250465 278.30107 
L 203.409065 287.173745 
L 203.567665 284.784948 
L 203.726265 291.206779 
L 203.884866 292.261573 
L 204.043466 287.701142 
L 204.202066 286.739418 
L 204.360666 288.042399 
L 204.519266 291.548036 
L 204.677867 288.383655 
L 204.836467 289.872776 
L 204.995067 288.507749 
L 205.312267 291.734176 
L 205.470867 290.741429 
L 205.629468 291.982363 
L 205.788068 289.159239 
L 205.946668 282.178987 
L 206.263868 294.526276 
L 206.422468 286.553278 
L 206.581069 287.856259 
L 206.739669 293.006133 
L 206.898269 291.889293 
L 207.056869 287.359885 
L 207.215469 286.056905 
L 207.374069 286.894535 
L 207.53267 293.285343 
L 207.69127 281.837731 
L 207.84987 289.035145 
L 208.00847 283.295828 
L 208.32567 291.175756 
L 208.484271 286.180998 
L 209.118671 288.662865 
L 209.277271 285.622578 
L 209.435872 290.183009 
L 209.594472 287.794212 
L 209.753072 289.686636 
L 209.911672 286.832488 
L 210.070272 286.708395 
L 210.228872 291.734176 
L 210.387473 291.548036 
L 210.546073 286.863512 
L 210.704673 286.180998 
L 210.863273 289.531519 
L 211.180473 285.188251 
L 211.497674 292.354643 
L 211.656274 292.168503 
L 211.814874 284.319598 
L 211.973474 290.462219 
L 212.290675 287.794212 
L 212.449275 289.996869 
L 212.607875 289.376402 
L 212.766475 285.281321 
L 212.925075 290.741429 
L 213.083675 286.429185 
L 213.242276 289.500496 
L 213.559476 283.699131 
L 213.718076 291.454966 
L 214.035276 287.266815 
L 214.193877 285.839741 
L 214.352477 287.483978 
L 214.511077 286.677372 
L 214.669677 291.796223 
L 214.828277 286.832488 
L 214.986877 291.734176 
L 215.304078 289.159239 
L 215.462678 286.305092 
L 215.621278 285.560531 
L 215.938478 288.942075 
L 216.097079 287.359885 
L 216.255679 289.469472 
L 216.414279 288.973099 
L 216.572879 294.619346 
L 216.731479 285.901788 
L 216.890079 292.106456 
L 217.04868 286.305092 
L 217.36588 289.841752 
L 217.68308 288.414679 
L 217.841681 283.916294 
L 218.000281 290.679382 
L 218.158881 291.858269 
L 218.317481 286.491232 
L 218.476081 290.307102 
L 218.634681 291.113709 
L 218.793282 291.144732 
L 218.951882 287.235792 
L 219.269082 292.664876 
L 219.427682 285.002111 
L 219.586282 290.431196 
L 219.744883 284.009364 
L 220.062083 293.25432 
L 220.379283 283.792201 
L 220.537883 284.598808 
L 220.855084 291.517013 
L 221.013684 286.460208 
L 221.172284 288.662865 
L 221.330884 285.622578 
L 221.648085 289.345379 
L 221.806685 288.600819 
L 221.965285 290.896546 
L 222.123885 287.670118 
L 222.282485 287.297838 
L 222.441085 274.640316 
L 222.599686 289.221285 
L 222.758286 290.958592 
L 222.916886 278.611303 
L 223.075486 288.414679 
L 223.234086 288.569795 
L 223.392686 284.071411 
L 223.551287 287.142722 
L 223.709887 286.615325 
L 223.868487 286.646348 
L 224.027087 290.089939 
L 224.185687 283.264804 
L 224.661488 291.175756 
L 224.820088 287.918305 
L 224.978688 291.951339 
L 225.137288 285.963835 
L 225.295888 292.540783 
L 225.613089 285.808718 
L 225.771689 286.894535 
L 225.930289 290.896546 
L 226.088889 291.082686 
L 226.247489 290.927569 
L 226.40609 294.060926 
L 226.56469 282.210011 
L 226.88189 292.354643 
L 227.19909 290.710406 
L 227.357691 286.987605 
L 227.516291 287.515002 
L 227.674891 289.190262 
L 227.833491 285.436438 
L 227.992091 288.445702 
L 228.150691 287.887282 
L 228.309292 282.303081 
L 228.626492 292.851016 
L 228.785092 286.956582 
L 228.943692 286.925558 
L 229.102292 284.629831 
L 229.260893 292.664876 
L 229.419493 286.770442 
L 229.578093 285.901788 
L 229.736693 291.051662 
L 229.895293 291.020639 
L 230.053894 282.489221 
L 230.212494 288.755935 
L 230.371094 285.467461 
L 230.529694 286.398162 
L 230.846894 294.46423 
L 231.005495 289.624589 
L 231.164095 294.060926 
L 231.322695 290.151986 
L 231.481295 290.803476 
L 231.639895 290.089939 
L 231.798495 290.555289 
L 232.115696 283.419921 
L 232.432896 293.16125 
L 232.591496 292.571806 
L 232.750096 281.372381 
L 232.908697 289.035145 
L 233.067297 284.257551 
L 233.384497 292.075433 
L 233.543097 294.18502 
L 233.701697 284.257551 
L 233.860298 292.788969 
L 234.177498 289.500496 
L 234.336098 281.806707 
L 234.653298 292.013386 
L 234.811899 290.710406 
L 234.970499 291.517013 
L 235.129099 289.066169 
L 235.287699 289.841752 
L 235.446299 289.965846 
L 235.604899 292.013386 
L 235.7635 287.670118 
L 235.9221 291.268826 
L 236.0807 290.524266 
L 236.2393 280.317587 
L 236.5565 292.075433 
L 236.873701 288.662865 
L 237.032301 292.044409 
L 237.190901 285.994858 
L 237.349501 290.617336 
L 237.666702 284.598808 
L 237.825302 286.180998 
L 237.983902 239.087569 
L 238.142502 292.292596 
L 238.301102 291.206779 
L 238.459702 292.168503 
L 238.618303 286.429185 
L 238.776903 291.361896 
L 238.935503 287.080675 
L 239.094103 291.765199 
L 239.252703 288.662865 
L 239.411303 291.020639 
L 239.569904 290.772452 
L 239.728504 290.927569 
L 239.887104 290.834499 
L 240.045704 291.641106 
L 240.204304 282.768431 
L 240.362904 287.515002 
L 240.680105 283.016618 
L 240.838705 289.717659 
L 240.997305 287.794212 
L 241.155905 291.703153 
L 241.314505 289.221285 
L 241.473106 292.044409 
L 241.631706 285.994858 
L 241.790306 289.841752 
L 241.948906 288.631842 
L 242.107506 290.648359 
L 242.424707 281.403404 
L 242.583307 291.920316 
L 242.741907 281.868754 
L 242.900507 290.151986 
L 243.059107 285.839741 
L 243.217708 293.34739 
L 243.376308 292.788969 
L 243.534908 284.412668 
L 243.693508 292.509759 
L 243.852108 288.166492 
L 244.010708 289.283332 
L 244.169309 284.040388 
L 244.327909 289.934822 
L 244.486509 289.190262 
L 244.645109 286.987605 
L 244.803709 291.051662 
L 244.962309 291.392919 
L 245.27951 289.624589 
L 245.43811 285.157228 
L 245.59671 283.885271 
L 245.75531 289.252309 
L 245.91391 287.701142 
L 246.072511 291.020639 
L 246.231111 284.815971 
L 246.389711 291.548036 
L 246.865511 283.575038 
L 247.024112 291.237803 
L 247.341312 289.190262 
L 247.499912 289.128215 
L 247.658512 287.173745 
L 247.817112 293.99888 
L 247.975713 286.087928 
L 248.134313 293.192273 
L 248.292913 285.374391 
L 248.451513 288.817982 
L 248.610113 288.600819 
L 248.768713 289.035145 
L 248.927314 288.073422 
L 249.244514 289.810729 
L 249.403114 288.507749 
L 249.561714 282.923548 
L 249.720314 286.677372 
L 249.878915 293.099203 
L 250.037515 292.230549 
L 250.196115 279.728144 
L 250.354715 288.290585 
L 250.513315 288.973099 
L 250.671915 293.316366 
L 250.989116 285.002111 
L 251.147716 287.390908 
L 251.306316 286.832488 
L 251.464916 287.204768 
L 251.782117 288.414679 
L 251.940717 285.901788 
L 252.099317 292.137479 
L 252.257917 288.197515 
L 252.416517 280.876007 
L 252.575117 292.851016 
L 252.733718 286.118952 
L 252.892318 287.515002 
L 253.050918 290.307102 
L 253.209518 283.730154 
L 253.368118 288.724912 
L 253.526718 289.624589 
L 253.685319 286.336115 
L 254.002519 292.97511 
L 254.161119 286.894535 
L 254.319719 286.987605 
L 254.478319 290.338126 
L 254.63692 284.784948 
L 254.95412 290.772452 
L 255.27132 289.624589 
L 255.429921 290.648359 
L 255.747121 282.613314 
L 255.905721 292.230549 
L 256.064321 288.352632 
L 256.222921 288.166492 
L 256.381522 289.438449 
L 256.540122 293.967856 
L 256.698722 291.485989 
L 256.857322 282.799454 
L 257.015922 284.319598 
L 257.333123 293.037156 
L 257.491723 290.431196 
L 257.650323 289.934822 
L 257.808923 287.328862 
L 257.967523 293.192273 
L 258.284724 282.954571 
L 258.443324 289.779706 
L 258.601924 289.686636 
L 258.760524 289.996869 
L 258.919124 289.221285 
L 259.077724 294.712417 
L 259.236325 290.151986 
L 259.394925 291.299849 
L 259.553525 285.808718 
L 259.712125 286.087928 
L 259.870725 289.345379 
L 260.029325 290.120962 
L 260.187926 289.686636 
L 260.346526 288.445702 
L 260.505126 289.531519 
L 260.663726 277.09116 
L 260.822326 292.664876 
L 260.980926 288.476725 
L 261.139527 288.135469 
L 261.456727 289.283332 
L 261.615327 291.392919 
L 261.773927 282.334104 
L 261.932527 291.175756 
L 262.091128 292.168503 
L 262.249728 291.392919 
L 262.408328 287.235792 
L 262.566928 290.927569 
L 262.725528 290.524266 
L 262.884128 292.013386 
L 263.042729 276.222506 
L 263.201329 293.564553 
L 263.359929 285.839741 
L 263.518529 284.598808 
L 263.677129 287.483978 
L 263.835729 283.357874 
L 264.31153 292.851016 
L 264.47013 291.082686 
L 264.62873 293.71967 
L 264.945931 288.569795 
L 265.104531 290.834499 
L 265.263131 290.058916 
L 265.421731 282.023871 
L 265.580331 287.577048 
L 265.738931 288.166492 
L 265.897532 289.593566 
L 266.056132 284.505738 
L 266.214732 289.748682 
L 266.373332 290.431196 
L 266.531932 285.932811 
L 266.690532 291.827246 
L 266.849133 277.64958 
L 267.007733 292.106456 
L 267.166333 285.622578 
L 267.324933 293.285343 
L 267.483533 290.679382 
L 267.642133 291.082686 
L 267.959334 284.381645 
L 268.117934 284.412668 
L 268.276534 279.914284 
L 268.593735 291.175756 
L 268.752335 288.631842 
L 268.910935 292.944086 
L 269.069535 288.476725 
L 269.228135 290.214032 
L 269.386735 282.427174 
L 269.545336 289.872776 
L 269.703936 287.732165 
L 269.862536 283.792201 
L 270.021136 286.584302 
L 270.179736 282.737408 
L 270.338336 289.655612 
L 270.814137 289.965846 
L 270.972737 290.058916 
L 271.131337 288.817982 
L 271.448538 291.610083 
L 271.607138 287.359885 
L 271.765738 292.540783 
L 271.924338 286.553278 
L 272.082938 285.963835 
L 272.241538 291.144732 
L 272.400139 289.097192 
L 272.875939 291.175756 
L 273.034539 288.197515 
L 273.193139 289.841752 
L 273.35174 288.880029 
L 273.51034 284.940065 
L 273.66894 290.679382 
L 273.82754 285.095181 
L 273.98614 285.591555 
L 274.14474 291.703153 
L 274.303341 293.378413 
L 274.461941 285.281321 
L 274.620541 290.027892 
L 274.779141 290.431196 
L 274.937741 284.909041 
L 275.254942 291.734176 
L 275.413542 284.691878 
L 275.572142 290.524266 
L 275.730742 285.715648 
L 275.889342 292.540783 
L 276.047942 288.538772 
L 276.206543 289.996869 
L 276.365143 288.104445 
L 276.523743 289.066169 
L 276.682343 291.951339 
L 276.999543 289.314355 
L 277.158144 289.996869 
L 277.316744 289.438449 
L 277.475344 287.049652 
L 277.633944 280.410657 
L 277.951144 290.431196 
L 278.109745 292.788969 
L 278.268345 281.558521 
L 278.426945 285.467461 
L 278.585545 292.416689 
L 278.744145 289.872776 
L 278.902745 290.865522 
L 279.061346 282.365127 
L 279.219946 290.958592 
L 279.378546 291.610083 
L 279.537146 283.544014 
L 279.695746 290.089939 
L 279.854346 291.237803 
L 280.330147 283.419921 
L 280.647347 291.765199 
L 280.805948 290.586312 
L 280.964548 283.885271 
L 281.123148 289.655612 
L 281.281748 290.245056 
L 281.598948 283.202758 
L 281.757549 285.436438 
L 281.916149 290.617336 
L 282.074749 285.715648 
L 282.550549 292.447713 
L 282.70915 285.250298 
L 282.86775 290.027892 
L 283.02635 288.817982 
L 283.18495 291.579059 
L 283.34355 286.553278 
L 283.50215 287.204768 
L 283.660751 291.268826 
L 283.977951 286.584302 
L 284.136551 291.641106 
L 284.295151 282.861501 
L 284.453751 290.493242 
L 284.612352 291.796223 
L 284.770952 290.617336 
L 284.929552 287.856259 
L 285.088152 291.020639 
L 285.246752 291.641106 
L 285.405352 293.378413 
L 285.563953 289.872776 
L 285.722553 291.889293 
L 285.881153 291.765199 
L 286.039753 293.34739 
L 286.198353 289.965846 
L 286.356953 290.058916 
L 286.515554 285.436438 
L 286.674154 291.051662 
L 286.832754 289.903799 
L 286.991354 284.412668 
L 287.149954 287.701142 
L 287.308554 283.016618 
L 287.467155 287.483978 
L 287.625755 286.180998 
L 287.784355 282.675361 
L 287.942955 285.126205 
L 288.101555 284.350621 
L 288.260155 284.567785 
L 288.418756 290.865522 
L 288.735956 287.049652 
L 288.894556 279.41791 
L 289.053156 287.856259 
L 289.211756 288.600819 
L 289.528957 287.949329 
L 289.687557 289.903799 
L 290.004757 287.515002 
L 290.163357 291.703153 
L 290.321958 286.708395 
L 290.480558 285.374391 
L 290.797758 291.361896 
L 290.956358 287.018628 
L 291.114958 291.113709 
L 291.273559 289.872776 
L 291.432159 289.903799 
L 291.590759 292.416689 
L 291.907959 283.947318 
L 292.066559 294.46423 
L 292.22516 290.183009 
L 292.38376 291.734176 
L 292.54236 279.945307 
L 292.70096 287.949329 
L 292.85956 288.755935 
L 293.018161 287.546025 
L 293.176761 288.104445 
L 293.335361 287.173745 
L 293.493961 292.478736 
L 293.969762 285.808718 
L 294.286962 290.307102 
L 294.445562 284.102434 
L 294.604162 289.562542 
L 294.762762 286.553278 
L 294.921363 290.834499 
L 295.079963 279.51098 
L 295.238563 282.241034 
L 295.397163 290.772452 
L 295.555763 285.746671 
L 295.714363 291.796223 
L 295.872964 288.662865 
L 296.031564 289.407425 
L 296.190164 287.546025 
L 296.348764 289.531519 
L 296.665964 287.266815 
L 296.824565 287.980352 
L 296.983165 286.025882 
L 297.141765 286.491232 
L 297.300365 294.774463 
L 297.458965 285.932811 
L 297.776166 282.272057 
L 297.934766 288.538772 
L 298.093366 290.307102 
L 298.251966 280.410657 
L 298.410566 287.701142 
L 298.569166 288.569795 
L 298.727767 288.259562 
L 298.886367 279.23177 
L 299.044967 291.113709 
L 299.203567 284.040388 
L 299.362167 283.606061 
L 299.679368 288.662865 
L 299.837968 289.965846 
L 299.996568 283.388898 
L 300.313768 292.882039 
L 300.472368 290.338126 
L 300.630969 292.416689 
L 300.789569 284.257551 
L 300.948169 283.357874 
L 301.106769 293.037156 
L 301.265369 284.909041 
L 301.423969 283.233781 
L 301.58257 289.686636 
L 301.89977 287.794212 
L 302.05837 289.686636 
L 302.21697 286.149975 
L 302.37557 292.695899 
L 302.534171 292.168503 
L 302.692771 284.753925 
L 302.851371 284.878018 
L 303.009971 285.963835 
L 303.327171 292.913063 
L 303.485772 290.958592 
L 303.644372 293.471483 
L 303.802972 283.171734 
L 304.120172 293.564553 
L 304.278772 286.056905 
L 304.595973 291.175756 
L 304.754573 286.987605 
L 305.071773 291.641106 
L 305.388974 288.042399 
L 305.547574 292.633853 
L 305.706174 289.035145 
L 305.864774 291.920316 
L 306.023374 288.228539 
L 306.181975 289.469472 
L 306.499175 286.677372 
L 306.657775 289.128215 
L 306.816375 285.560531 
L 307.133576 290.369149 
L 307.292176 285.250298 
L 307.450776 285.126205 
L 307.767976 290.307102 
L 307.926576 285.281321 
L 308.085177 288.073422 
L 308.243777 287.018628 
L 308.402377 288.538772 
L 308.560977 286.677372 
L 308.719577 283.295828 
L 308.878177 288.817982 
L 309.195378 287.359885 
L 309.353978 280.658844 
L 309.512578 290.089939 
L 309.671178 286.056905 
L 309.829778 286.305092 
L 309.988379 285.746671 
L 310.146979 291.082686 
L 310.305579 287.732165 
L 310.464179 291.299849 
L 310.622779 289.841752 
L 310.781379 285.808718 
L 310.93998 273.182219 
L 311.09858 289.004122 
L 311.25718 288.849005 
L 311.41578 293.285343 
L 311.73298 281.155217 
L 311.891581 291.020639 
L 312.050181 293.099203 
L 312.208781 290.586312 
L 312.367381 283.761178 
L 312.525981 289.314355 
L 312.684581 288.724912 
L 312.843182 281.217264 
L 313.160382 290.772452 
L 313.318982 291.889293 
L 313.477582 286.367138 
L 313.636182 293.53353 
L 313.953383 288.724912 
L 314.111983 288.538772 
L 314.270583 285.405415 
L 314.429183 285.281321 
L 314.746384 289.221285 
L 314.904984 280.751914 
L 315.222184 285.219275 
L 315.380784 288.724912 
L 315.539384 284.412668 
L 315.697985 284.505738 
L 315.856585 287.297838 
L 316.015185 286.056905 
L 316.173785 282.458197 
L 316.332385 289.965846 
L 316.490985 291.765199 
L 316.649586 289.314355 
L 316.808186 291.858269 
L 316.966786 281.589544 
L 317.283986 290.462219 
L 317.442586 289.407425 
L 317.759787 289.717659 
L 317.918387 288.135469 
L 318.076987 288.973099 
L 318.235587 286.987605 
L 318.394188 290.400172 
L 318.552788 289.810729 
L 318.711388 285.808718 
L 318.869988 284.660855 
L 319.028588 289.190262 
L 319.187188 283.885271 
L 319.504389 290.089939 
L 319.662989 280.844984 
L 319.821589 285.653601 
L 319.980189 284.412668 
L 320.138789 291.361896 
L 320.45599 284.319598 
L 320.61459 285.684625 
L 320.93179 291.672129 
L 321.09039 290.896546 
L 321.248991 293.688646 
L 321.566191 285.250298 
L 321.724791 285.064158 
L 321.883391 288.849005 
L 322.041991 287.080675 
L 322.200592 288.880029 
L 322.359192 292.354643 
L 322.517792 290.710406 
L 322.676392 287.421932 
L 322.834992 292.168503 
L 322.993592 291.889293 
L 323.152193 287.080675 
L 323.469393 288.476725 
L 323.786593 286.956582 
L 323.945193 292.137479 
L 324.103794 282.892524 
L 324.262394 287.980352 
L 324.420994 281.620567 
L 324.579594 290.307102 
L 324.738194 289.438449 
L 324.896794 289.345379 
L 325.055395 290.896546 
L 325.213995 283.730154 
L 325.372595 290.927569 
L 325.689795 288.445702 
L 325.848395 280.565774 
L 326.006996 291.268826 
L 326.165596 287.856259 
L 326.482796 292.106456 
L 326.641396 289.965846 
L 326.799996 291.206779 
L 326.958597 284.691878 
L 327.117197 290.741429 
L 327.275797 289.903799 
L 327.434397 282.365127 
L 327.592997 284.971088 
L 327.751597 282.085917 
L 327.910198 289.593566 
L 328.068798 284.412668 
L 328.227398 288.631842 
L 328.385998 286.832488 
L 328.544598 282.116941 
L 328.703198 287.887282 
L 328.861799 287.142722 
L 329.020399 290.120962 
L 329.178999 290.307102 
L 329.337599 281.155217 
L 329.496199 291.982363 
L 329.654799 284.909041 
L 329.8134 290.896546 
L 329.972 289.376402 
L 330.1306 290.524266 
L 330.2892 290.710406 
L 330.4478 285.839741 
L 330.6064 290.958592 
L 330.765001 287.701142 
L 330.923601 287.608072 
L 331.082201 292.726923 
L 331.240801 285.126205 
L 331.399401 291.517013 
L 331.558002 284.784948 
L 331.716602 290.027892 
L 331.875202 289.872776 
L 332.192402 286.863512 
L 332.351002 288.911052 
L 332.509603 284.381645 
L 332.826803 290.679382 
L 332.985403 287.608072 
L 333.302603 293.564553 
L 333.461204 287.173745 
L 333.619804 287.235792 
L 333.778404 286.180998 
L 334.095604 291.796223 
L 334.254204 291.082686 
L 334.571405 286.212022 
L 334.730005 291.982363 
L 334.888605 283.978341 
L 335.047205 285.529508 
L 335.205805 283.140711 
L 335.364406 288.445702 
L 335.523006 285.808718 
L 335.681606 290.089939 
L 335.840206 289.593566 
L 335.998806 287.794212 
L 336.157406 292.354643 
L 336.474607 287.639095 
L 336.633207 288.383655 
L 336.791807 289.903799 
L 336.950407 290.183009 
L 337.109007 286.429185 
L 337.267608 287.173745 
L 337.584808 293.130226 
L 337.902008 284.040388 
L 338.060608 285.901788 
L 338.219209 281.000101 
L 338.536409 290.058916 
L 338.695009 287.080675 
L 338.853609 292.478736 
L 339.012209 289.779706 
L 339.17081 289.810729 
L 339.32941 287.173745 
L 339.48801 286.553278 
L 339.64661 289.190262 
L 339.96381 282.954571 
L 340.122411 286.087928 
L 340.281011 285.498485 
L 340.439611 285.963835 
L 340.598211 290.741429 
L 340.756811 286.801465 
L 340.915411 287.856259 
L 341.074012 290.493242 
L 341.232612 286.801465 
L 341.391212 290.989616 
L 341.549812 286.801465 
L 341.708412 288.849005 
L 341.867012 285.684625 
L 342.025613 286.832488 
L 342.184213 287.049652 
L 342.342813 282.799454 
L 342.501413 289.469472 
L 342.818613 284.350621 
L 342.977214 286.708395 
L 343.135814 284.257551 
L 343.294414 285.994858 
L 343.453014 285.777695 
L 343.611614 281.186241 
L 343.770215 286.180998 
L 343.928815 287.639095 
L 344.087415 284.536761 
L 344.246015 289.159239 
L 344.404615 288.445702 
L 344.563215 289.252309 
L 344.721816 278.95256 
L 344.880416 288.849005 
L 345.039016 288.631842 
L 345.197616 288.631842 
L 345.356216 287.111698 
L 345.514816 283.978341 
L 345.673417 291.175756 
L 345.990617 289.159239 
L 346.149217 284.164481 
L 346.625018 289.841752 
L 346.783618 289.934822 
L 346.942218 288.042399 
L 347.100818 290.151986 
L 347.259418 285.343368 
L 347.418018 285.219275 
L 347.576619 292.013386 
L 347.735219 288.352632 
L 347.893819 280.907031 
L 348.052419 288.786959 
L 348.211019 284.350621 
L 348.369619 284.505738 
L 348.68682 290.431196 
L 349.00402 282.644338 
L 349.16262 283.016618 
L 349.32122 288.135469 
L 349.638421 290.027892 
L 349.955621 285.126205 
L 350.114221 287.887282 
L 350.272821 284.257551 
L 350.590022 289.934822 
L 350.907222 284.195504 
L 351.065822 292.261573 
L 351.224422 289.779706 
L 351.383023 291.920316 
L 351.858823 281.682614 
L 352.334624 289.996869 
L 352.493224 283.575038 
L 352.651824 286.863512 
L 352.810424 285.064158 
L 352.969024 286.118952 
L 353.127624 290.958592 
L 353.286225 283.512991 
L 353.444825 281.434427 
L 353.603425 282.489221 
L 353.762025 288.600819 
L 353.920625 289.903799 
L 354.079225 290.276079 
L 354.237826 289.314355 
L 354.555026 284.629831 
L 354.713626 289.810729 
L 354.872226 285.498485 
L 355.030826 277.959813 
L 355.348027 288.973099 
L 355.506627 290.493242 
L 355.665227 282.706384 
L 355.823827 287.639095 
L 355.982427 288.228539 
L 356.141028 289.996869 
L 356.299628 289.562542 
L 356.458228 285.188251 
L 356.616828 289.438449 
L 356.934029 288.197515 
L 357.092629 283.823224 
L 357.251229 285.343368 
L 357.409829 291.858269 
L 357.568429 285.374391 
L 357.727029 283.730154 
L 357.88563 286.832488 
L 358.04423 287.701142 
L 358.20283 290.710406 
L 358.36143 288.693889 
L 358.52003 288.786959 
L 358.67863 287.980352 
L 358.837231 288.538772 
L 358.995831 287.452955 
L 359.154431 288.786959 
L 359.313031 286.708395 
L 359.471631 286.367138 
L 359.630231 288.290585 
L 359.788832 288.011375 
L 359.947432 288.755935 
L 360.106032 290.307102 
L 360.264632 286.212022 
L 360.423232 290.338126 
L 360.581832 286.956582 
L 360.740433 289.314355 
L 360.899033 279.262794 
L 361.057633 292.757946 
L 361.216233 277.680603 
L 361.374833 285.560531 
L 361.533433 284.940065 
L 361.692034 287.359885 
L 361.850634 285.498485 
L 362.009234 280.131447 
L 362.326434 288.414679 
L 362.485034 287.732165 
L 362.643635 288.414679 
L 362.802235 288.600819 
L 362.960835 287.452955 
L 363.119435 284.784948 
L 363.278035 280.224517 
L 363.436635 282.085917 
L 363.595236 286.429185 
L 363.753836 281.620567 
L 364.071036 290.586312 
L 364.388236 284.443691 
L 364.546837 289.345379 
L 364.705437 285.777695 
L 365.022637 288.259562 
L 365.339837 283.109688 
L 365.498438 284.878018 
L 365.815638 282.799454 
L 365.974238 283.947318 
L 366.132838 287.577048 
L 366.291438 279.169724 
L 366.450039 284.443691 
L 366.608639 284.815971 
L 366.767239 283.140711 
L 366.925839 290.772452 
L 367.40164 278.85949 
L 367.56024 287.204768 
L 367.71884 288.476725 
L 367.87744 283.730154 
L 368.03604 283.575038 
L 368.511841 289.469472 
L 368.670441 287.701142 
L 368.829041 289.066169 
L 368.987641 281.341357 
L 369.304842 286.367138 
L 369.463442 281.806707 
L 369.780642 288.166492 
L 369.939242 287.018628 
L 370.097843 281.341357 
L 370.256443 286.087928 
L 370.415043 287.297838 
L 370.573643 287.018628 
L 370.732243 284.009364 
L 370.890843 287.825235 
L 371.049444 288.755935 
L 371.208044 284.102434 
L 371.366644 287.421932 
L 371.683844 282.054894 
L 371.842444 288.538772 
L 372.001045 281.341357 
L 372.318245 285.653601 
L 372.476845 287.359885 
L 372.635445 284.536761 
L 372.794045 285.374391 
L 372.952646 287.173745 
L 373.111246 279.60405 
L 373.269846 288.942075 
L 373.428446 288.476725 
L 373.587046 288.880029 
L 373.904247 282.985594 
L 374.062847 283.016618 
L 374.221447 285.560531 
L 374.380047 279.41791 
L 374.697247 285.436438 
L 374.855848 284.381645 
L 375.014448 286.212022 
L 375.173048 286.429185 
L 375.331648 283.419921 
L 375.490248 284.195504 
L 375.648848 288.693889 
L 375.807449 281.496474 
L 375.966049 287.794212 
L 376.283249 282.582291 
L 376.600449 283.885271 
L 376.75905 283.823224 
L 377.07625 278.549257 
L 377.23485 285.994858 
L 377.39345 284.009364 
L 377.55205 286.491232 
L 377.710651 281.806707 
L 377.869251 283.699131 
L 378.027851 283.295828 
L 378.186451 283.388898 
L 378.345051 283.637084 
L 378.503651 279.355864 
L 378.662252 283.792201 
L 378.820852 282.861501 
L 378.979452 285.560531 
L 379.138052 279.573027 
L 379.455252 285.467461 
L 379.613853 275.571016 
L 379.931053 283.916294 
L 380.089653 283.171734 
L 380.248253 284.940065 
L 380.406853 280.0694 
L 380.565454 279.821214 
L 380.724054 280.193494 
L 380.882654 281.961824 
L 381.041254 278.083907 
L 381.199854 280.62782 
L 381.358455 279.479957 
L 381.517055 277.122183 
L 381.675655 282.334104 
L 381.834255 281.155217 
L 381.992855 284.164481 
L 382.310056 278.735397 
L 382.468656 282.644338 
L 382.627256 280.658844 
L 382.785856 275.198736 
L 382.944456 279.759167 
L 383.103056 275.819203 
L 383.261657 279.107677 
L 383.420257 278.611303 
L 383.578857 281.589544 
L 383.737457 282.085917 
L 383.896057 281.496474 
L 384.054657 276.377623 
L 384.213258 276.62581 
L 384.530458 280.53475 
L 384.689058 277.64958 
L 384.847658 265.457408 
L 385.006258 278.332093 
L 385.164859 272.965056 
L 385.323459 279.479957 
L 385.482059 280.16247 
L 385.640659 279.41791 
L 385.799259 274.857479 
L 385.957859 274.919526 
L 386.11646 278.270047 
L 386.27506 278.363117 
L 386.43366 274.392129 
L 386.59226 274.454176 
L 386.75086 275.198736 
L 386.90946 277.18423 
L 387.068061 276.06739 
L 387.226661 277.246276 
L 387.385261 274.205989 
L 387.543861 277.18423 
L 387.702461 277.773673 
L 387.861061 272.716869 
L 388.019662 281.806707 
L 388.178262 274.454176 
L 388.336862 277.618557 
L 388.495462 275.571016 
L 388.654062 275.136689 
L 388.812662 278.176977 
L 389.129863 273.120172 
L 389.288463 275.012596 
L 389.447063 272.592776 
L 389.605663 280.53475 
L 389.764263 274.268036 
L 389.922864 276.780926 
L 390.081464 272.840962 
L 390.240064 280.193494 
L 390.398664 270.452165 
L 390.557264 277.308323 
L 390.715864 273.926779 
L 390.874465 273.461429 
L 391.033065 275.384876 
L 391.191665 274.640316 
L 391.350265 277.55651 
L 391.508865 265.333314 
L 391.667465 270.297048 
L 391.826066 278.95256 
L 391.984666 278.363117 
L 392.301866 273.461429 
L 392.460466 280.224517 
L 392.619066 274.609293 
L 392.777667 276.315576 
L 392.936267 274.826456 
L 393.094867 278.642327 
L 393.412067 270.762399 
L 393.570667 275.664086 
L 393.729268 276.3466 
L 393.887868 270.669329 
L 394.046468 276.408646 
L 394.522269 272.716869 
L 394.680869 274.268036 
L 394.839469 272.840962 
L 394.998069 275.446923 
L 395.156669 274.857479 
L 395.315269 264.805917 
L 395.47387 273.647569 
L 395.63247 270.514212 
L 395.79107 275.69511 
L 395.94967 273.368359 
L 396.10827 266.543224 
L 396.425471 274.174966 
L 396.584071 265.922758 
L 396.742671 267.070621 
L 396.901271 273.306312 
L 397.059871 263.875217 
L 397.218471 270.017838 
L 397.377072 269.242255 
L 397.535672 262.448144 
L 397.694272 267.504948 
L 397.852872 257.515433 
L 398.011472 259.687066 
L 398.170072 263.658054 
L 398.328673 257.422363 
L 398.487273 260.307533 
L 398.487273 260.307533 
" style="fill:none;stroke:#1f77b4;stroke-linecap:square;stroke-width:1.5;"/>
   </g>
   <g id="patch_3">
    <path d="M 57.6 307.584 
L 57.6 41.472 
" style="fill:none;stroke:#000000;stroke-linecap:square;stroke-linejoin:miter;stroke-width:0.8;"/>
   </g>
   <g id="patch_4">
    <path d="M 414.72 307.584 
L 414.72 41.472 
" style="fill:none;stroke:#000000;stroke-linecap:square;stroke-linejoin:miter;stroke-width:0.8;"/>
   </g>
   <g id="patch_5">
    <path d="M 57.6 307.584 
L 414.72 307.584 
" style="fill:none;stroke:#000000;stroke-linecap:square;stroke-linejoin:miter;stroke-width:0.8;"/>
   </g>
   <g id="patch_6">
    <path d="M 57.6 41.472 
L 414.72 41.472 
" style="fill:none;stroke:#000000;stroke-linecap:square;stroke-linejoin:miter;stroke-width:0.8;"/>
   </g>
   <g id="text_16">
    <!-- Raw signal -->
    <g transform="translate(203.8875 35.472)scale(0.12 -0.12)">
     <defs>
      <path d="M 2841 2188 
Q 3044 2119 3236 1894 
Q 3428 1669 3622 1275 
L 4263 0 
L 3584 0 
L 2988 1197 
Q 2756 1666 2539 1819 
Q 2322 1972 1947 1972 
L 1259 1972 
L 1259 0 
L 628 0 
L 628 4666 
L 2053 4666 
Q 2853 4666 3247 4331 
Q 3641 3997 3641 3322 
Q 3641 2881 3436 2590 
Q 3231 2300 2841 2188 
z
M 1259 4147 
L 1259 2491 
L 2053 2491 
Q 2509 2491 2742 2702 
Q 2975 2913 2975 3322 
Q 2975 3731 2742 3939 
Q 2509 4147 2053 4147 
L 1259 4147 
z
" id="DejaVuSans-52" transform="scale(0.015625)"/>
      <path d="M 269 3500 
L 844 3500 
L 1563 769 
L 2278 3500 
L 2956 3500 
L 3675 769 
L 4391 3500 
L 4966 3500 
L 4050 0 
L 3372 0 
L 2619 2869 
L 1863 0 
L 1184 0 
L 269 3500 
z
" id="DejaVuSans-77" transform="scale(0.015625)"/>
      <path d="M 603 3500 
L 1178 3500 
L 1178 0 
L 603 0 
L 603 3500 
z
M 603 4863 
L 1178 4863 
L 1178 4134 
L 603 4134 
L 603 4863 
z
" id="DejaVuSans-69" transform="scale(0.015625)"/>
     </defs>
     <use xlink:href="#DejaVuSans-52"/>
     <use x="67.232422" xlink:href="#DejaVuSans-61"/>
     <use x="128.511719" xlink:href="#DejaVuSans-77"/>
     <use x="210.298828" xlink:href="#DejaVuSans-20"/>
     <use x="242.085938" xlink:href="#DejaVuSans-73"/>
     <use x="294.185547" xlink:href="#DejaVuSans-69"/>
     <use x="321.96875" xlink:href="#DejaVuSans-67"/>
     <use x="385.445312" xlink:href="#DejaVuSans-6e"/>
     <use x="448.824219" xlink:href="#DejaVuSans-61"/>
     <use x="510.103516" xlink:href="#DejaVuSans-6c"/>
    </g>
   </g>
  </g>
 </g>
 <defs>
  <clipPath id="pb9f98b3c13">
   <rect height="266.112" width="357.12" x="57.6" y="41.472"/>
  </clipPath>
 </defs>
</svg>
