<?xml version="1.0" encoding="utf-8" standalone="no"?>
<!DOCTYPE svg PUBLIC "-//W3C//DTD SVG 1.1//EN"
  "http://www.w3.org/Graphics/SVG/1.1/DTD/svg11.dtd">
<svg height="345.6pt" version="1.1" viewBox="0 0 460.8 345.6" width="460.8pt" xmlns="http://www.w3.org/2000/svg" xmlns:xlink="http://www.w3.org/1999/xlink">
 <metadata>
  <rdf:RDF xmlns:cc="http://creativecommons.org/ns#" xmlns:dc="http://purl.org/dc/elements/1.1/" xmlns:rdf="http://www.w3.org/1999/02/22-rdf-syntax-ns#">
   <cc:Work>
    <dc:type rdf:resource="http://purl.org/dc/dcmitype/StillImage"/>
    <dc:date>2022-06-03T23:55:08.224220</dc:date>
    <dc:format>image/svg+xml</dc:format>
    <dc:creator>
     <cc:Agent>
      <dc:title>Matplotlib v3.4.1, https://matplotlib.org/</dc:title>
     </cc:Agent>
    </dc:creator>
   </cc:Work>
  </rdf:RDF>
 </metadata>
 <defs>
  <style type="text/css">*{stroke-linecap:butt;stroke-linejoin:round;}</style>
 </defs>
 <g id="figure_1">
  <g id="patch_1">
   <path d="M 0 345.6 
L 460.8 345.6 
L 460.8 0 
L 0 0 
z
" style="fill:#ffffff;"/>
  </g>
  <g id="axes_1">
   <g id="patch_2">
    <path d="M 57.6 307.584 
L 414.72 307.584 
L 414.72 41.472 
L 57.6 41.472 
z
" style="fill:#ffffff;"/>
   </g>
   <g id="matplotlib.axis_1">
    <g id="xtick_1">
     <g id="line2d_1">
      <defs>
       <path d="M 0 0 
L 0 3.5 
" id="mcd7b6e1e7c" style="stroke:#000000;stroke-width:0.8;"/>
      </defs>
      <g>
       <use style="stroke:#000000;stroke-width:0.8;" x="102.929605" xlink:href="#mcd7b6e1e7c" y="307.584"/>
      </g>
     </g>
     <g id="text_1">
      <!-- 400 -->
      <g transform="translate(93.385855 322.182437)scale(0.1 -0.1)">
       <defs>
        <path d="M 2419 4116 
L 825 1625 
L 2419 1625 
L 2419 4116 
z
M 2253 4666 
L 3047 4666 
L 3047 1625 
L 3713 1625 
L 3713 1100 
L 3047 1100 
L 3047 0 
L 2419 0 
L 2419 1100 
L 313 1100 
L 313 1709 
L 2253 4666 
z
" id="DejaVuSans-34" transform="scale(0.015625)"/>
        <path d="M 2034 4250 
Q 1547 4250 1301 3770 
Q 1056 3291 1056 2328 
Q 1056 1369 1301 889 
Q 1547 409 2034 409 
Q 2525 409 2770 889 
Q 3016 1369 3016 2328 
Q 3016 3291 2770 3770 
Q 2525 4250 2034 4250 
z
M 2034 4750 
Q 2819 4750 3233 4129 
Q 3647 3509 3647 2328 
Q 3647 1150 3233 529 
Q 2819 -91 2034 -91 
Q 1250 -91 836 529 
Q 422 1150 422 2328 
Q 422 3509 836 4129 
Q 1250 4750 2034 4750 
z
" id="DejaVuSans-30" transform="scale(0.015625)"/>
       </defs>
       <use xlink:href="#DejaVuSans-34"/>
       <use x="63.623047" xlink:href="#DejaVuSans-30"/>
       <use x="127.246094" xlink:href="#DejaVuSans-30"/>
      </g>
     </g>
    </g>
    <g id="xtick_2">
     <g id="line2d_2">
      <g>
       <use style="stroke:#000000;stroke-width:0.8;" x="160.931952" xlink:href="#mcd7b6e1e7c" y="307.584"/>
      </g>
     </g>
     <g id="text_2">
      <!-- 600 -->
      <g transform="translate(151.388202 322.182437)scale(0.1 -0.1)">
       <defs>
        <path d="M 2113 2584 
Q 1688 2584 1439 2293 
Q 1191 2003 1191 1497 
Q 1191 994 1439 701 
Q 1688 409 2113 409 
Q 2538 409 2786 701 
Q 3034 994 3034 1497 
Q 3034 2003 2786 2293 
Q 2538 2584 2113 2584 
z
M 3366 4563 
L 3366 3988 
Q 3128 4100 2886 4159 
Q 2644 4219 2406 4219 
Q 1781 4219 1451 3797 
Q 1122 3375 1075 2522 
Q 1259 2794 1537 2939 
Q 1816 3084 2150 3084 
Q 2853 3084 3261 2657 
Q 3669 2231 3669 1497 
Q 3669 778 3244 343 
Q 2819 -91 2113 -91 
Q 1303 -91 875 529 
Q 447 1150 447 2328 
Q 447 3434 972 4092 
Q 1497 4750 2381 4750 
Q 2619 4750 2861 4703 
Q 3103 4656 3366 4563 
z
" id="DejaVuSans-36" transform="scale(0.015625)"/>
       </defs>
       <use xlink:href="#DejaVuSans-36"/>
       <use x="63.623047" xlink:href="#DejaVuSans-30"/>
       <use x="127.246094" xlink:href="#DejaVuSans-30"/>
      </g>
     </g>
    </g>
    <g id="xtick_3">
     <g id="line2d_3">
      <g>
       <use style="stroke:#000000;stroke-width:0.8;" x="218.9343" xlink:href="#mcd7b6e1e7c" y="307.584"/>
      </g>
     </g>
     <g id="text_3">
      <!-- 800 -->
      <g transform="translate(209.39055 322.182437)scale(0.1 -0.1)">
       <defs>
        <path d="M 2034 2216 
Q 1584 2216 1326 1975 
Q 1069 1734 1069 1313 
Q 1069 891 1326 650 
Q 1584 409 2034 409 
Q 2484 409 2743 651 
Q 3003 894 3003 1313 
Q 3003 1734 2745 1975 
Q 2488 2216 2034 2216 
z
M 1403 2484 
Q 997 2584 770 2862 
Q 544 3141 544 3541 
Q 544 4100 942 4425 
Q 1341 4750 2034 4750 
Q 2731 4750 3128 4425 
Q 3525 4100 3525 3541 
Q 3525 3141 3298 2862 
Q 3072 2584 2669 2484 
Q 3125 2378 3379 2068 
Q 3634 1759 3634 1313 
Q 3634 634 3220 271 
Q 2806 -91 2034 -91 
Q 1263 -91 848 271 
Q 434 634 434 1313 
Q 434 1759 690 2068 
Q 947 2378 1403 2484 
z
M 1172 3481 
Q 1172 3119 1398 2916 
Q 1625 2713 2034 2713 
Q 2441 2713 2670 2916 
Q 2900 3119 2900 3481 
Q 2900 3844 2670 4047 
Q 2441 4250 2034 4250 
Q 1625 4250 1398 4047 
Q 1172 3844 1172 3481 
z
" id="DejaVuSans-38" transform="scale(0.015625)"/>
       </defs>
       <use xlink:href="#DejaVuSans-38"/>
       <use x="63.623047" xlink:href="#DejaVuSans-30"/>
       <use x="127.246094" xlink:href="#DejaVuSans-30"/>
      </g>
     </g>
    </g>
    <g id="xtick_4">
     <g id="line2d_4">
      <g>
       <use style="stroke:#000000;stroke-width:0.8;" x="276.936647" xlink:href="#mcd7b6e1e7c" y="307.584"/>
      </g>
     </g>
     <g id="text_4">
      <!-- 1000 -->
      <g transform="translate(264.211647 322.182437)scale(0.1 -0.1)">
       <defs>
        <path d="M 794 531 
L 1825 531 
L 1825 4091 
L 703 3866 
L 703 4441 
L 1819 4666 
L 2450 4666 
L 2450 531 
L 3481 531 
L 3481 0 
L 794 0 
L 794 531 
z
" id="DejaVuSans-31" transform="scale(0.015625)"/>
       </defs>
       <use xlink:href="#DejaVuSans-31"/>
       <use x="63.623047" xlink:href="#DejaVuSans-30"/>
       <use x="127.246094" xlink:href="#DejaVuSans-30"/>
       <use x="190.869141" xlink:href="#DejaVuSans-30"/>
      </g>
     </g>
    </g>
    <g id="xtick_5">
     <g id="line2d_5">
      <g>
       <use style="stroke:#000000;stroke-width:0.8;" x="334.938995" xlink:href="#mcd7b6e1e7c" y="307.584"/>
      </g>
     </g>
     <g id="text_5">
      <!-- 1200 -->
      <g transform="translate(322.213995 322.182437)scale(0.1 -0.1)">
       <defs>
        <path d="M 1228 531 
L 3431 531 
L 3431 0 
L 469 0 
L 469 531 
Q 828 903 1448 1529 
Q 2069 2156 2228 2338 
Q 2531 2678 2651 2914 
Q 2772 3150 2772 3378 
Q 2772 3750 2511 3984 
Q 2250 4219 1831 4219 
Q 1534 4219 1204 4116 
Q 875 4013 500 3803 
L 500 4441 
Q 881 4594 1212 4672 
Q 1544 4750 1819 4750 
Q 2544 4750 2975 4387 
Q 3406 4025 3406 3419 
Q 3406 3131 3298 2873 
Q 3191 2616 2906 2266 
Q 2828 2175 2409 1742 
Q 1991 1309 1228 531 
z
" id="DejaVuSans-32" transform="scale(0.015625)"/>
       </defs>
       <use xlink:href="#DejaVuSans-31"/>
       <use x="63.623047" xlink:href="#DejaVuSans-32"/>
       <use x="127.246094" xlink:href="#DejaVuSans-30"/>
       <use x="190.869141" xlink:href="#DejaVuSans-30"/>
      </g>
     </g>
    </g>
    <g id="xtick_6">
     <g id="line2d_6">
      <g>
       <use style="stroke:#000000;stroke-width:0.8;" x="392.941342" xlink:href="#mcd7b6e1e7c" y="307.584"/>
      </g>
     </g>
     <g id="text_6">
      <!-- 1400 -->
      <g transform="translate(380.216342 322.182437)scale(0.1 -0.1)">
       <use xlink:href="#DejaVuSans-31"/>
       <use x="63.623047" xlink:href="#DejaVuSans-34"/>
       <use x="127.246094" xlink:href="#DejaVuSans-30"/>
       <use x="190.869141" xlink:href="#DejaVuSans-30"/>
      </g>
     </g>
    </g>
    <g id="text_7">
     <!-- Wavelength [nm] -->
     <g transform="translate(192.967812 335.860562)scale(0.1 -0.1)">
      <defs>
       <path d="M 213 4666 
L 850 4666 
L 1831 722 
L 2809 4666 
L 3519 4666 
L 4500 722 
L 5478 4666 
L 6119 4666 
L 4947 0 
L 4153 0 
L 3169 4050 
L 2175 0 
L 1381 0 
L 213 4666 
z
" id="DejaVuSans-57" transform="scale(0.015625)"/>
       <path d="M 2194 1759 
Q 1497 1759 1228 1600 
Q 959 1441 959 1056 
Q 959 750 1161 570 
Q 1363 391 1709 391 
Q 2188 391 2477 730 
Q 2766 1069 2766 1631 
L 2766 1759 
L 2194 1759 
z
M 3341 1997 
L 3341 0 
L 2766 0 
L 2766 531 
Q 2569 213 2275 61 
Q 1981 -91 1556 -91 
Q 1019 -91 701 211 
Q 384 513 384 1019 
Q 384 1609 779 1909 
Q 1175 2209 1959 2209 
L 2766 2209 
L 2766 2266 
Q 2766 2663 2505 2880 
Q 2244 3097 1772 3097 
Q 1472 3097 1187 3025 
Q 903 2953 641 2809 
L 641 3341 
Q 956 3463 1253 3523 
Q 1550 3584 1831 3584 
Q 2591 3584 2966 3190 
Q 3341 2797 3341 1997 
z
" id="DejaVuSans-61" transform="scale(0.015625)"/>
       <path d="M 191 3500 
L 800 3500 
L 1894 563 
L 2988 3500 
L 3597 3500 
L 2284 0 
L 1503 0 
L 191 3500 
z
" id="DejaVuSans-76" transform="scale(0.015625)"/>
       <path d="M 3597 1894 
L 3597 1613 
L 953 1613 
Q 991 1019 1311 708 
Q 1631 397 2203 397 
Q 2534 397 2845 478 
Q 3156 559 3463 722 
L 3463 178 
Q 3153 47 2828 -22 
Q 2503 -91 2169 -91 
Q 1331 -91 842 396 
Q 353 884 353 1716 
Q 353 2575 817 3079 
Q 1281 3584 2069 3584 
Q 2775 3584 3186 3129 
Q 3597 2675 3597 1894 
z
M 3022 2063 
Q 3016 2534 2758 2815 
Q 2500 3097 2075 3097 
Q 1594 3097 1305 2825 
Q 1016 2553 972 2059 
L 3022 2063 
z
" id="DejaVuSans-65" transform="scale(0.015625)"/>
       <path d="M 603 4863 
L 1178 4863 
L 1178 0 
L 603 0 
L 603 4863 
z
" id="DejaVuSans-6c" transform="scale(0.015625)"/>
       <path d="M 3513 2113 
L 3513 0 
L 2938 0 
L 2938 2094 
Q 2938 2591 2744 2837 
Q 2550 3084 2163 3084 
Q 1697 3084 1428 2787 
Q 1159 2491 1159 1978 
L 1159 0 
L 581 0 
L 581 3500 
L 1159 3500 
L 1159 2956 
Q 1366 3272 1645 3428 
Q 1925 3584 2291 3584 
Q 2894 3584 3203 3211 
Q 3513 2838 3513 2113 
z
" id="DejaVuSans-6e" transform="scale(0.015625)"/>
       <path d="M 2906 1791 
Q 2906 2416 2648 2759 
Q 2391 3103 1925 3103 
Q 1463 3103 1205 2759 
Q 947 2416 947 1791 
Q 947 1169 1205 825 
Q 1463 481 1925 481 
Q 2391 481 2648 825 
Q 2906 1169 2906 1791 
z
M 3481 434 
Q 3481 -459 3084 -895 
Q 2688 -1331 1869 -1331 
Q 1566 -1331 1297 -1286 
Q 1028 -1241 775 -1147 
L 775 -588 
Q 1028 -725 1275 -790 
Q 1522 -856 1778 -856 
Q 2344 -856 2625 -561 
Q 2906 -266 2906 331 
L 2906 616 
Q 2728 306 2450 153 
Q 2172 0 1784 0 
Q 1141 0 747 490 
Q 353 981 353 1791 
Q 353 2603 747 3093 
Q 1141 3584 1784 3584 
Q 2172 3584 2450 3431 
Q 2728 3278 2906 2969 
L 2906 3500 
L 3481 3500 
L 3481 434 
z
" id="DejaVuSans-67" transform="scale(0.015625)"/>
       <path d="M 1172 4494 
L 1172 3500 
L 2356 3500 
L 2356 3053 
L 1172 3053 
L 1172 1153 
Q 1172 725 1289 603 
Q 1406 481 1766 481 
L 2356 481 
L 2356 0 
L 1766 0 
Q 1100 0 847 248 
Q 594 497 594 1153 
L 594 3053 
L 172 3053 
L 172 3500 
L 594 3500 
L 594 4494 
L 1172 4494 
z
" id="DejaVuSans-74" transform="scale(0.015625)"/>
       <path d="M 3513 2113 
L 3513 0 
L 2938 0 
L 2938 2094 
Q 2938 2591 2744 2837 
Q 2550 3084 2163 3084 
Q 1697 3084 1428 2787 
Q 1159 2491 1159 1978 
L 1159 0 
L 581 0 
L 581 4863 
L 1159 4863 
L 1159 2956 
Q 1366 3272 1645 3428 
Q 1925 3584 2291 3584 
Q 2894 3584 3203 3211 
Q 3513 2838 3513 2113 
z
" id="DejaVuSans-68" transform="scale(0.015625)"/>
       <path id="DejaVuSans-20" transform="scale(0.015625)"/>
       <path d="M 550 4863 
L 1875 4863 
L 1875 4416 
L 1125 4416 
L 1125 -397 
L 1875 -397 
L 1875 -844 
L 550 -844 
L 550 4863 
z
" id="DejaVuSans-5b" transform="scale(0.015625)"/>
       <path d="M 3328 2828 
Q 3544 3216 3844 3400 
Q 4144 3584 4550 3584 
Q 5097 3584 5394 3201 
Q 5691 2819 5691 2113 
L 5691 0 
L 5113 0 
L 5113 2094 
Q 5113 2597 4934 2840 
Q 4756 3084 4391 3084 
Q 3944 3084 3684 2787 
Q 3425 2491 3425 1978 
L 3425 0 
L 2847 0 
L 2847 2094 
Q 2847 2600 2669 2842 
Q 2491 3084 2119 3084 
Q 1678 3084 1418 2786 
Q 1159 2488 1159 1978 
L 1159 0 
L 581 0 
L 581 3500 
L 1159 3500 
L 1159 2956 
Q 1356 3278 1631 3431 
Q 1906 3584 2284 3584 
Q 2666 3584 2933 3390 
Q 3200 3197 3328 2828 
z
" id="DejaVuSans-6d" transform="scale(0.015625)"/>
       <path d="M 1947 4863 
L 1947 -844 
L 622 -844 
L 622 -397 
L 1369 -397 
L 1369 4416 
L 622 4416 
L 622 4863 
L 1947 4863 
z
" id="DejaVuSans-5d" transform="scale(0.015625)"/>
      </defs>
      <use xlink:href="#DejaVuSans-57"/>
      <use x="92.501953" xlink:href="#DejaVuSans-61"/>
      <use x="153.78125" xlink:href="#DejaVuSans-76"/>
      <use x="212.960938" xlink:href="#DejaVuSans-65"/>
      <use x="274.484375" xlink:href="#DejaVuSans-6c"/>
      <use x="302.267578" xlink:href="#DejaVuSans-65"/>
      <use x="363.791016" xlink:href="#DejaVuSans-6e"/>
      <use x="427.169922" xlink:href="#DejaVuSans-67"/>
      <use x="490.646484" xlink:href="#DejaVuSans-74"/>
      <use x="529.855469" xlink:href="#DejaVuSans-68"/>
      <use x="593.234375" xlink:href="#DejaVuSans-20"/>
      <use x="625.021484" xlink:href="#DejaVuSans-5b"/>
      <use x="664.035156" xlink:href="#DejaVuSans-6e"/>
      <use x="727.414062" xlink:href="#DejaVuSans-6d"/>
      <use x="824.826172" xlink:href="#DejaVuSans-5d"/>
     </g>
    </g>
   </g>
   <g id="matplotlib.axis_2">
    <g id="ytick_1">
     <g id="line2d_7">
      <defs>
       <path d="M 0 0 
L -3.5 0 
" id="m06bed4a636" style="stroke:#000000;stroke-width:0.8;"/>
      </defs>
      <g>
       <use style="stroke:#000000;stroke-width:0.8;" x="57.6" xlink:href="#m06bed4a636" y="292.550993"/>
      </g>
     </g>
     <g id="text_8">
      <!-- 0 -->
      <g transform="translate(44.2375 296.350212)scale(0.1 -0.1)">
       <use xlink:href="#DejaVuSans-30"/>
      </g>
     </g>
    </g>
    <g id="ytick_2">
     <g id="line2d_8">
      <g>
       <use style="stroke:#000000;stroke-width:0.8;" x="57.6" xlink:href="#m06bed4a636" y="252.646005"/>
      </g>
     </g>
     <g id="text_9">
      <!-- 5000 -->
      <g transform="translate(25.15 256.445224)scale(0.1 -0.1)">
       <defs>
        <path d="M 691 4666 
L 3169 4666 
L 3169 4134 
L 1269 4134 
L 1269 2991 
Q 1406 3038 1543 3061 
Q 1681 3084 1819 3084 
Q 2600 3084 3056 2656 
Q 3513 2228 3513 1497 
Q 3513 744 3044 326 
Q 2575 -91 1722 -91 
Q 1428 -91 1123 -41 
Q 819 9 494 109 
L 494 744 
Q 775 591 1075 516 
Q 1375 441 1709 441 
Q 2250 441 2565 725 
Q 2881 1009 2881 1497 
Q 2881 1984 2565 2268 
Q 2250 2553 1709 2553 
Q 1456 2553 1204 2497 
Q 953 2441 691 2322 
L 691 4666 
z
" id="DejaVuSans-35" transform="scale(0.015625)"/>
       </defs>
       <use xlink:href="#DejaVuSans-35"/>
       <use x="63.623047" xlink:href="#DejaVuSans-30"/>
       <use x="127.246094" xlink:href="#DejaVuSans-30"/>
       <use x="190.869141" xlink:href="#DejaVuSans-30"/>
      </g>
     </g>
    </g>
    <g id="ytick_3">
     <g id="line2d_9">
      <g>
       <use style="stroke:#000000;stroke-width:0.8;" x="57.6" xlink:href="#m06bed4a636" y="212.741017"/>
      </g>
     </g>
     <g id="text_10">
      <!-- 10000 -->
      <g transform="translate(18.7875 216.540235)scale(0.1 -0.1)">
       <use xlink:href="#DejaVuSans-31"/>
       <use x="63.623047" xlink:href="#DejaVuSans-30"/>
       <use x="127.246094" xlink:href="#DejaVuSans-30"/>
       <use x="190.869141" xlink:href="#DejaVuSans-30"/>
       <use x="254.492188" xlink:href="#DejaVuSans-30"/>
      </g>
     </g>
    </g>
    <g id="ytick_4">
     <g id="line2d_10">
      <g>
       <use style="stroke:#000000;stroke-width:0.8;" x="57.6" xlink:href="#m06bed4a636" y="172.836029"/>
      </g>
     </g>
     <g id="text_11">
      <!-- 15000 -->
      <g transform="translate(18.7875 176.635247)scale(0.1 -0.1)">
       <use xlink:href="#DejaVuSans-31"/>
       <use x="63.623047" xlink:href="#DejaVuSans-35"/>
       <use x="127.246094" xlink:href="#DejaVuSans-30"/>
       <use x="190.869141" xlink:href="#DejaVuSans-30"/>
       <use x="254.492188" xlink:href="#DejaVuSans-30"/>
      </g>
     </g>
    </g>
    <g id="ytick_5">
     <g id="line2d_11">
      <g>
       <use style="stroke:#000000;stroke-width:0.8;" x="57.6" xlink:href="#m06bed4a636" y="132.93104"/>
      </g>
     </g>
     <g id="text_12">
      <!-- 20000 -->
      <g transform="translate(18.7875 136.730259)scale(0.1 -0.1)">
       <use xlink:href="#DejaVuSans-32"/>
       <use x="63.623047" xlink:href="#DejaVuSans-30"/>
       <use x="127.246094" xlink:href="#DejaVuSans-30"/>
       <use x="190.869141" xlink:href="#DejaVuSans-30"/>
       <use x="254.492188" xlink:href="#DejaVuSans-30"/>
      </g>
     </g>
    </g>
    <g id="ytick_6">
     <g id="line2d_12">
      <g>
       <use style="stroke:#000000;stroke-width:0.8;" x="57.6" xlink:href="#m06bed4a636" y="93.026052"/>
      </g>
     </g>
     <g id="text_13">
      <!-- 25000 -->
      <g transform="translate(18.7875 96.825271)scale(0.1 -0.1)">
       <use xlink:href="#DejaVuSans-32"/>
       <use x="63.623047" xlink:href="#DejaVuSans-35"/>
       <use x="127.246094" xlink:href="#DejaVuSans-30"/>
       <use x="190.869141" xlink:href="#DejaVuSans-30"/>
       <use x="254.492188" xlink:href="#DejaVuSans-30"/>
      </g>
     </g>
    </g>
    <g id="ytick_7">
     <g id="line2d_13">
      <g>
       <use style="stroke:#000000;stroke-width:0.8;" x="57.6" xlink:href="#m06bed4a636" y="53.121064"/>
      </g>
     </g>
     <g id="text_14">
      <!-- 30000 -->
      <g transform="translate(18.7875 56.920283)scale(0.1 -0.1)">
       <defs>
        <path d="M 2597 2516 
Q 3050 2419 3304 2112 
Q 3559 1806 3559 1356 
Q 3559 666 3084 287 
Q 2609 -91 1734 -91 
Q 1441 -91 1130 -33 
Q 819 25 488 141 
L 488 750 
Q 750 597 1062 519 
Q 1375 441 1716 441 
Q 2309 441 2620 675 
Q 2931 909 2931 1356 
Q 2931 1769 2642 2001 
Q 2353 2234 1838 2234 
L 1294 2234 
L 1294 2753 
L 1863 2753 
Q 2328 2753 2575 2939 
Q 2822 3125 2822 3475 
Q 2822 3834 2567 4026 
Q 2313 4219 1838 4219 
Q 1578 4219 1281 4162 
Q 984 4106 628 3988 
L 628 4550 
Q 988 4650 1302 4700 
Q 1616 4750 1894 4750 
Q 2613 4750 3031 4423 
Q 3450 4097 3450 3541 
Q 3450 3153 3228 2886 
Q 3006 2619 2597 2516 
z
" id="DejaVuSans-33" transform="scale(0.015625)"/>
       </defs>
       <use xlink:href="#DejaVuSans-33"/>
       <use x="63.623047" xlink:href="#DejaVuSans-30"/>
       <use x="127.246094" xlink:href="#DejaVuSans-30"/>
       <use x="190.869141" xlink:href="#DejaVuSans-30"/>
       <use x="254.492188" xlink:href="#DejaVuSans-30"/>
      </g>
     </g>
    </g>
    <g id="text_15">
     <!-- Counts -->
     <g transform="translate(12.707812 191.981125)rotate(-90)scale(0.1 -0.1)">
      <defs>
       <path d="M 4122 4306 
L 4122 3641 
Q 3803 3938 3442 4084 
Q 3081 4231 2675 4231 
Q 1875 4231 1450 3742 
Q 1025 3253 1025 2328 
Q 1025 1406 1450 917 
Q 1875 428 2675 428 
Q 3081 428 3442 575 
Q 3803 722 4122 1019 
L 4122 359 
Q 3791 134 3420 21 
Q 3050 -91 2638 -91 
Q 1578 -91 968 557 
Q 359 1206 359 2328 
Q 359 3453 968 4101 
Q 1578 4750 2638 4750 
Q 3056 4750 3426 4639 
Q 3797 4528 4122 4306 
z
" id="DejaVuSans-43" transform="scale(0.015625)"/>
       <path d="M 1959 3097 
Q 1497 3097 1228 2736 
Q 959 2375 959 1747 
Q 959 1119 1226 758 
Q 1494 397 1959 397 
Q 2419 397 2687 759 
Q 2956 1122 2956 1747 
Q 2956 2369 2687 2733 
Q 2419 3097 1959 3097 
z
M 1959 3584 
Q 2709 3584 3137 3096 
Q 3566 2609 3566 1747 
Q 3566 888 3137 398 
Q 2709 -91 1959 -91 
Q 1206 -91 779 398 
Q 353 888 353 1747 
Q 353 2609 779 3096 
Q 1206 3584 1959 3584 
z
" id="DejaVuSans-6f" transform="scale(0.015625)"/>
       <path d="M 544 1381 
L 544 3500 
L 1119 3500 
L 1119 1403 
Q 1119 906 1312 657 
Q 1506 409 1894 409 
Q 2359 409 2629 706 
Q 2900 1003 2900 1516 
L 2900 3500 
L 3475 3500 
L 3475 0 
L 2900 0 
L 2900 538 
Q 2691 219 2414 64 
Q 2138 -91 1772 -91 
Q 1169 -91 856 284 
Q 544 659 544 1381 
z
M 1991 3584 
L 1991 3584 
z
" id="DejaVuSans-75" transform="scale(0.015625)"/>
       <path d="M 2834 3397 
L 2834 2853 
Q 2591 2978 2328 3040 
Q 2066 3103 1784 3103 
Q 1356 3103 1142 2972 
Q 928 2841 928 2578 
Q 928 2378 1081 2264 
Q 1234 2150 1697 2047 
L 1894 2003 
Q 2506 1872 2764 1633 
Q 3022 1394 3022 966 
Q 3022 478 2636 193 
Q 2250 -91 1575 -91 
Q 1294 -91 989 -36 
Q 684 19 347 128 
L 347 722 
Q 666 556 975 473 
Q 1284 391 1588 391 
Q 1994 391 2212 530 
Q 2431 669 2431 922 
Q 2431 1156 2273 1281 
Q 2116 1406 1581 1522 
L 1381 1569 
Q 847 1681 609 1914 
Q 372 2147 372 2553 
Q 372 3047 722 3315 
Q 1072 3584 1716 3584 
Q 2034 3584 2315 3537 
Q 2597 3491 2834 3397 
z
" id="DejaVuSans-73" transform="scale(0.015625)"/>
      </defs>
      <use xlink:href="#DejaVuSans-43"/>
      <use x="69.824219" xlink:href="#DejaVuSans-6f"/>
      <use x="131.005859" xlink:href="#DejaVuSans-75"/>
      <use x="194.384766" xlink:href="#DejaVuSans-6e"/>
      <use x="257.763672" xlink:href="#DejaVuSans-74"/>
      <use x="296.972656" xlink:href="#DejaVuSans-73"/>
     </g>
    </g>
   </g>
   <g id="line2d_14">
    <path clip-path="url(#p62953afef5)" d="M 73.832727 294.115268 
L 73.991327 292.646765 
L 74.149928 293.668333 
L 74.308528 292.966005 
L 74.467128 293.764105 
L 74.625728 292.008285 
L 74.784328 292.519069 
L 74.942928 293.412941 
L 75.101529 292.423297 
L 75.260129 292.423297 
L 75.577329 291.050565 
L 76.05313 294.05142 
L 76.21173 292.295601 
L 76.37033 293.987572 
L 76.52893 293.061777 
L 76.68753 290.922869 
L 77.004731 292.902157 
L 77.163331 292.072133 
L 77.321931 292.678689 
L 77.480531 291.433653 
L 77.797731 294.306812 
L 78.114932 292.072133 
L 78.273532 291.305957 
L 78.749333 292.104057 
L 78.907933 292.072133 
L 79.066533 291.529425 
L 79.225133 293.381017 
L 79.383733 293.381017 
L 79.542333 292.231753 
L 79.700934 293.732181 
L 79.859534 293.285245 
L 80.018134 294.84952 
L 80.176734 292.614841 
L 80.335334 292.072133 
L 80.493934 292.359449 
L 80.652535 292.295601 
L 80.811135 291.880589 
L 80.969735 292.870233 
L 81.128335 292.678689 
L 81.286935 293.668333 
L 81.445535 292.231753 
L 81.604136 293.508713 
L 81.762736 292.646765 
L 81.921336 294.913368 
L 82.079936 291.816741 
L 82.397136 292.423297 
L 82.555737 292.167905 
L 82.714337 294.37066 
L 82.872937 291.146337 
L 83.031537 291.880589 
L 83.190137 292.072133 
L 83.348737 292.742537 
L 83.507338 292.391373 
L 83.665938 292.838309 
L 83.824538 292.359449 
L 83.983138 293.221397 
L 84.141738 292.710613 
L 84.300338 291.465577 
L 84.458939 291.274033 
L 84.776139 291.880589 
L 85.093339 293.349093 
L 85.251939 292.135981 
L 85.41054 292.806385 
L 85.72774 291.529425 
L 85.88634 292.263677 
L 86.04494 291.976361 
L 86.20354 292.423297 
L 86.362141 292.359449 
L 86.520741 293.412941 
L 86.679341 292.008285 
L 86.837941 292.167905 
L 86.996541 291.625197 
L 87.313742 292.997929 
L 87.472342 293.125625 
L 87.948142 291.242109 
L 88.106742 291.848665 
L 88.265343 291.689045 
L 88.423943 292.774461 
L 88.582543 292.774461 
L 88.741143 291.497501 
L 88.899743 292.838309 
L 89.058343 291.880589 
L 89.216944 292.263677 
L 89.534144 293.412941 
L 89.692744 292.550993 
L 89.851344 292.455221 
L 90.009944 295.104912 
L 90.168545 291.593273 
L 90.327145 292.263677 
L 90.485745 293.540637 
L 90.644345 293.349093 
L 90.802945 291.433653 
L 90.961545 293.125625 
L 91.120146 291.720969 
L 91.278746 292.710613 
L 91.437346 292.838309 
L 91.595946 293.189473 
L 91.754546 291.784817 
L 92.071747 293.093701 
L 92.230347 293.412941 
L 92.388947 293.381017 
L 92.547547 292.838309 
L 92.706147 291.305957 
L 92.864748 292.838309 
L 93.023348 292.455221 
L 93.181948 291.305957 
L 93.340548 293.540637 
L 93.499148 291.657121 
L 93.657748 292.040209 
L 93.816349 293.157549 
L 93.974949 293.125625 
L 94.133549 292.040209 
L 94.292149 293.636409 
L 94.450749 292.487145 
L 94.609349 292.997929 
L 94.92655 291.720969 
L 95.08515 292.008285 
L 95.24375 293.125625 
L 95.56095 292.423297 
L 95.878151 293.029853 
L 96.195351 292.710613 
L 96.353951 292.135981 
L 96.512551 292.487145 
L 96.671152 291.784817 
L 96.829752 292.231753 
L 97.146952 293.444865 
L 97.464152 292.231753 
L 97.622753 292.263677 
L 97.781353 293.189473 
L 98.098553 291.593273 
L 98.257153 293.796029 
L 98.415753 293.827952 
L 98.574354 291.880589 
L 98.732954 293.061777 
L 98.891554 291.146337 
L 99.050154 293.061777 
L 99.208754 290.986717 
L 99.525955 292.902157 
L 100.001755 291.146337 
L 100.160355 291.880589 
L 100.318955 291.816741 
L 100.477556 292.710613 
L 100.636156 292.295601 
L 100.794756 291.561349 
L 100.953356 294.179116 
L 101.111956 291.529425 
L 101.270556 291.625197 
L 101.429157 291.465577 
L 101.746357 293.540637 
L 101.904957 291.816741 
L 102.222157 292.997929 
L 102.380758 291.752893 
L 102.539358 293.859876 
L 102.697958 294.402584 
L 103.173758 292.327525 
L 103.332359 293.572561 
L 103.490959 292.104057 
L 103.649559 292.135981 
L 103.808159 291.944437 
L 103.966759 292.040209 
L 104.12536 292.519069 
L 104.28396 293.8918 
L 104.44256 292.806385 
L 104.91836 291.752893 
L 105.076961 292.934081 
L 105.235561 292.072133 
L 105.394161 293.253321 
L 105.711361 292.550993 
L 105.869961 292.519069 
L 106.187162 291.625197 
L 106.345762 291.752893 
L 106.504362 292.231753 
L 106.662962 292.327525 
L 106.821562 293.476789 
L 107.138763 292.774461 
L 107.297363 293.540637 
L 107.455963 292.295601 
L 107.773163 292.104057 
L 107.931764 292.678689 
L 108.090364 292.135981 
L 108.248964 292.902157 
L 108.407564 291.880589 
L 108.566164 291.976361 
L 108.724764 292.742537 
L 108.883365 292.263677 
L 109.200565 293.572561 
L 109.517765 293.317169 
L 109.676365 292.167905 
L 109.834966 292.742537 
L 109.993566 292.774461 
L 110.152166 292.072133 
L 110.469366 292.391373 
L 110.627966 292.646765 
L 110.786567 294.881444 
L 110.945167 292.295601 
L 111.103767 292.199829 
L 111.262367 292.455221 
L 111.420967 294.306812 
L 111.579567 292.104057 
L 111.738168 291.625197 
L 112.055368 293.412941 
L 112.213968 292.295601 
L 112.372568 293.381017 
L 112.531168 293.189473 
L 112.689769 293.796029 
L 112.848369 291.210185 
L 113.006969 293.636409 
L 113.165569 292.199829 
L 113.324169 292.966005 
L 113.482769 291.784817 
L 113.64137 292.519069 
L 113.79997 291.912513 
L 113.95857 292.806385 
L 114.11717 292.870233 
L 114.27577 292.646765 
L 114.43437 292.040209 
L 114.592971 292.997929 
L 114.751571 292.934081 
L 114.910171 292.008285 
L 115.068771 292.710613 
L 115.227371 290.380162 
L 115.385971 293.157549 
L 115.544572 291.593273 
L 115.861772 291.912513 
L 116.020372 292.934081 
L 116.178972 291.401729 
L 116.337573 292.359449 
L 116.496173 292.199829 
L 116.654773 292.550993 
L 116.813373 292.455221 
L 116.971973 293.221397 
L 117.130573 292.008285 
L 117.289174 292.678689 
L 117.447774 294.019496 
L 117.606374 292.263677 
L 117.764974 292.997929 
L 117.923574 293.029853 
L 118.082174 292.327525 
L 118.240775 293.700257 
L 118.399375 290.316314 
L 118.557975 292.742537 
L 118.716575 293.125625 
L 118.875175 292.966005 
L 119.033775 292.072133 
L 119.192376 291.976361 
L 119.350976 292.455221 
L 119.509576 291.880589 
L 119.668176 293.572561 
L 119.826776 293.604485 
L 119.985376 293.476789 
L 120.143977 292.263677 
L 120.302577 292.519069 
L 120.461177 292.135981 
L 120.619777 292.806385 
L 120.778377 292.295601 
L 121.095578 294.657976 
L 121.254178 292.199829 
L 121.412778 293.476789 
L 121.729978 292.870233 
L 121.888578 292.710613 
L 122.047179 293.476789 
L 122.205779 292.391373 
L 122.364379 292.710613 
L 122.522979 293.700257 
L 122.681579 291.944437 
L 122.99878 292.997929 
L 123.15738 290.954793 
L 123.31598 291.976361 
L 123.47458 294.306812 
L 123.63318 292.455221 
L 123.79178 292.487145 
L 123.950381 290.507857 
L 124.108981 292.806385 
L 124.267581 292.870233 
L 124.426181 292.455221 
L 124.584781 292.359449 
L 124.743381 290.795173 
L 124.901982 293.508713 
L 125.060582 291.976361 
L 125.219182 292.072133 
L 125.377782 292.423297 
L 125.536382 292.455221 
L 125.694982 291.912513 
L 125.853583 290.635553 
L 126.012183 292.550993 
L 126.170783 291.657121 
L 126.329383 291.497501 
L 126.487983 293.125625 
L 126.646583 292.295601 
L 126.805184 292.742537 
L 126.963784 292.167905 
L 127.439584 293.923724 
L 127.915385 292.008285 
L 128.232585 292.934081 
L 128.391185 291.561349 
L 128.549785 292.838309 
L 128.708386 291.689045 
L 129.025586 292.678689 
L 129.184186 292.135981 
L 129.342786 293.8918 
L 129.501387 292.550993 
L 129.659987 292.742537 
L 129.977187 292.072133 
L 130.135787 293.859876 
L 130.294387 293.732181 
L 130.452988 293.093701 
L 130.611588 290.795173 
L 130.770188 294.019496 
L 130.928788 291.720969 
L 131.087388 293.540637 
L 131.245988 292.934081 
L 131.404589 291.369805 
L 131.563189 293.8918 
L 131.721789 290.667477 
L 131.880389 293.125625 
L 132.35619 292.167905 
L 132.67339 293.029853 
L 132.83199 292.423297 
L 132.99059 290.156694 
L 133.14919 292.614841 
L 133.307791 292.135981 
L 133.466391 292.678689 
L 133.624991 292.774461 
L 133.783591 292.295601 
L 134.100791 292.550993 
L 134.259392 292.997929 
L 134.417992 292.487145 
L 134.576592 292.455221 
L 134.735192 292.614841 
L 134.893792 291.880589 
L 135.052392 293.061777 
L 135.210993 292.614841 
L 135.369593 292.614841 
L 135.528193 293.796029 
L 135.686793 291.976361 
L 135.845393 293.923724 
L 136.003993 292.614841 
L 136.162594 292.646765 
L 136.321194 291.497501 
L 136.479794 292.774461 
L 136.638394 292.966005 
L 136.796994 292.550993 
L 136.955594 293.093701 
L 137.272795 291.816741 
L 137.748595 292.902157 
L 137.907195 292.678689 
L 138.065796 292.072133 
L 138.224396 292.934081 
L 138.382996 292.710613 
L 138.541596 292.742537 
L 138.700196 292.646765 
L 138.858796 293.476789 
L 139.017397 291.242109 
L 139.175997 291.593273 
L 139.334597 293.668333 
L 139.493197 292.008285 
L 139.651797 292.423297 
L 139.810397 294.147192 
L 139.968998 293.476789 
L 140.127598 291.433653 
L 140.286198 292.072133 
L 140.444798 291.848665 
L 140.920599 292.359449 
L 141.079199 291.146337 
L 141.237799 291.529425 
L 141.396399 293.221397 
L 141.554999 291.784817 
L 141.8722 293.444865 
L 142.0308 291.689045 
L 142.1894 293.317169 
L 142.5066 291.337881 
L 142.665201 292.423297 
L 142.982401 292.838309 
L 143.141001 293.221397 
L 143.299601 292.806385 
L 143.458201 292.710613 
L 143.616802 292.167905 
L 143.775402 292.838309 
L 143.934002 292.742537 
L 144.092602 292.104057 
L 144.251202 290.986717 
L 144.409802 294.05142 
L 144.568403 293.732181 
L 144.885603 292.614841 
L 145.202803 291.816741 
L 145.361403 292.774461 
L 145.520004 291.561349 
L 145.678604 291.497501 
L 145.995804 294.179116 
L 146.154404 291.529425 
L 146.471605 293.221397 
L 146.630205 293.285245 
L 146.788805 291.880589 
L 146.947405 293.029853 
L 147.106005 292.934081 
L 147.264605 290.475933 
L 147.423206 292.742537 
L 147.581806 292.072133 
L 147.899006 293.061777 
L 148.057606 290.986717 
L 148.216206 293.444865 
L 148.374807 292.040209 
L 148.533407 293.029853 
L 148.692007 292.774461 
L 148.850607 292.902157 
L 149.009207 292.423297 
L 149.167807 292.902157 
L 149.485008 291.529425 
L 149.643608 295.104912 
L 149.802208 292.550993 
L 149.960808 292.870233 
L 150.119408 292.104057 
L 150.436609 292.966005 
L 150.595209 292.040209 
L 150.753809 292.966005 
L 151.071009 292.838309 
L 151.22961 292.934081 
L 151.38821 293.859876 
L 151.54681 291.529425 
L 151.70541 292.040209 
L 151.86401 291.976361 
L 152.02261 292.231753 
L 152.181211 291.050565 
L 152.339811 291.561349 
L 152.498411 293.827952 
L 152.657011 291.784817 
L 152.815611 292.774461 
L 152.974211 291.274033 
L 153.132812 292.263677 
L 153.291412 291.305957 
L 153.608612 293.412941 
L 153.767212 292.646765 
L 153.925812 291.178261 
L 154.243013 293.987572 
L 154.401613 291.593273 
L 154.560213 293.987572 
L 154.718813 291.944437 
L 155.036014 293.317169 
L 155.194614 292.774461 
L 155.353214 291.242109 
L 155.511814 293.8918 
L 155.670414 293.796029 
L 155.987615 291.593273 
L 156.146215 292.072133 
L 156.304815 292.040209 
L 156.463415 292.391373 
L 156.622015 292.359449 
L 156.780616 295.32838 
L 156.939216 291.146337 
L 157.097816 291.337881 
L 157.256416 290.220542 
L 157.415016 293.381017 
L 157.573616 292.487145 
L 157.732217 293.668333 
L 157.890817 292.997929 
L 158.049417 293.349093 
L 158.208017 292.646765 
L 158.366617 292.550993 
L 158.525217 292.646765 
L 158.683818 289.96515 
L 159.001018 292.934081 
L 159.159618 292.870233 
L 159.318218 293.189473 
L 159.476818 292.966005 
L 159.635419 293.317169 
L 159.794019 291.401729 
L 159.952619 291.369805 
L 160.111219 291.912513 
L 160.269819 293.029853 
L 160.428419 292.934081 
L 160.58702 293.125625 
L 160.90422 291.720969 
L 161.06282 291.912513 
L 161.22142 292.678689 
L 161.38002 291.625197 
L 161.538621 292.391373 
L 161.697221 292.391373 
L 161.855821 293.987572 
L 162.014421 294.115268 
L 162.490222 292.072133 
L 162.648822 293.859876 
L 162.807422 294.21104 
L 162.966022 293.508713 
L 163.124622 291.082489 
L 163.283222 293.349093 
L 163.441823 293.189473 
L 163.600423 293.349093 
L 163.759023 293.796029 
L 163.917623 292.391373 
L 164.076223 293.859876 
L 164.393424 291.657121 
L 164.552024 292.614841 
L 164.710624 292.327525 
L 164.869224 293.061777 
L 165.027824 292.263677 
L 165.186424 292.040209 
L 165.345025 293.827952 
L 165.503625 293.668333 
L 165.662225 292.774461 
L 165.820825 293.189473 
L 165.979425 292.487145 
L 166.296626 293.221397 
L 166.455226 291.274033 
L 166.613826 292.997929 
L 166.772426 292.646765 
L 166.931026 291.657121 
L 167.089627 293.189473 
L 167.406827 291.050565 
L 167.724027 292.104057 
L 167.882627 293.444865 
L 168.041228 292.870233 
L 168.199828 293.444865 
L 168.358428 292.806385 
L 168.517028 292.902157 
L 168.675628 290.603629 
L 168.834228 292.487145 
L 168.992829 291.114413 
L 169.151429 291.210185 
L 169.310029 290.635553 
L 169.468629 290.731325 
L 169.627229 290.571705 
L 169.785829 289.582062 
L 169.94443 289.613986 
L 170.10303 289.358594 
L 170.26163 288.879734 
L 170.42023 290.763249 
L 170.57883 290.539781 
L 170.73743 290.922869 
L 170.896031 291.816741 
L 171.371831 288.20933 
L 171.689031 289.582062 
L 171.847632 289.550138 
L 172.006232 288.560494 
L 172.164832 289.16705 
L 172.323432 287.858166 
L 172.482032 287.475078 
L 172.640632 287.634698 
L 172.957833 288.464722 
L 173.116433 287.826242 
L 173.275033 287.794318 
L 173.433633 287.475078 
L 173.750834 286.198119 
L 173.909434 286.070423 
L 174.226634 284.889235 
L 174.385234 286.389663 
L 174.543834 285.048855 
L 174.702435 284.825387 
L 174.861035 282.782252 
L 175.019635 283.037644 
L 175.178235 283.803819 
L 175.336835 280.387952 
L 175.495435 280.77104 
L 175.812636 279.685625 
L 175.971236 278.472513 
L 176.129836 279.430233 
L 176.288436 277.035933 
L 176.447036 277.865957 
L 176.764237 272.151563 
L 176.922837 273.81161 
L 177.240037 271.257691 
L 177.398637 270.427667 
L 177.557238 268.384532 
L 177.715838 268.097216 
L 177.874438 263.372466 
L 178.033038 265.000589 
L 178.191638 263.212846 
L 178.508839 258.647715 
L 178.667439 259.190423 
L 178.984639 251.911753 
L 179.143239 252.646005 
L 179.46044 247.665862 
L 179.61904 242.558024 
L 179.77764 244.090375 
L 179.93624 236.779781 
L 180.09484 236.396694 
L 180.253441 230.586527 
L 180.412041 230.554603 
L 180.570641 226.244865 
L 180.729241 225.574461 
L 181.363642 205.111183 
L 181.522242 209.64439 
L 181.998042 191.766955 
L 182.315243 182.668618 
L 182.632443 175.262252 
L 182.791043 173.123344 
L 182.949643 167.919734 
L 183.108244 158.534081 
L 183.266844 159.012941 
L 184.694245 93.057976 
L 185.170046 69.945007 
L 185.328646 71.349663 
L 185.487246 56.409235 
L 185.645846 53.568 
L 186.121647 64.996789 
L 186.597447 89.578261 
L 187.231848 148.541872 
L 188.342049 231.799639 
L 188.81785 245.750423 
L 189.29365 261.32933 
L 189.45225 262.797834 
L 189.769451 270.714983 
L 190.562451 280.962584 
L 190.721052 280.292181 
L 191.038252 284.027287 
L 191.196852 284.091135 
L 191.514052 287.443154 
L 191.831253 286.357739 
L 192.148453 289.198974 
L 192.307053 289.071278 
L 192.465654 289.518214 
L 192.624254 288.04971 
L 192.782854 289.422442 
L 192.941454 292.072133 
L 193.100054 289.80553 
L 193.417255 290.252466 
L 193.575855 289.039354 
L 193.893055 291.401729 
L 194.051655 291.497501 
L 194.210255 291.114413 
L 194.368856 290.252466 
L 194.527456 292.487145 
L 194.686056 291.210185 
L 194.844656 291.497501 
L 195.003256 292.997929 
L 195.320457 291.305957 
L 195.479057 291.178261 
L 195.637657 290.667477 
L 195.796257 292.487145 
L 195.954857 289.64591 
L 196.113457 291.880589 
L 196.272058 291.274033 
L 196.430658 291.976361 
L 196.589258 291.593273 
L 196.747858 292.263677 
L 196.906458 291.018641 
L 197.065058 291.242109 
L 197.382259 292.870233 
L 197.540859 291.912513 
L 197.699459 292.710613 
L 197.858059 292.327525 
L 198.016659 290.859021 
L 198.17526 292.295601 
L 198.33386 291.912513 
L 198.49246 291.114413 
L 198.65106 290.954793 
L 198.96826 292.966005 
L 199.126861 292.902157 
L 199.285461 292.135981 
L 199.444061 292.550993 
L 199.602661 291.178261 
L 199.761261 291.784817 
L 199.919861 293.029853 
L 200.078462 293.061777 
L 200.237062 292.519069 
L 200.554262 292.806385 
L 200.712862 291.816741 
L 201.030063 292.966005 
L 201.505863 292.072133 
L 201.664463 292.806385 
L 201.823063 292.072133 
L 201.981664 292.135981 
L 202.140264 292.040209 
L 202.298864 292.135981 
L 202.457464 292.040209 
L 202.774664 292.582917 
L 203.250465 291.657121 
L 203.409065 293.508713 
L 203.884866 291.720969 
L 204.043466 291.976361 
L 204.202066 292.742537 
L 204.360666 291.689045 
L 204.519266 293.157549 
L 204.677867 293.093701 
L 204.836467 291.816741 
L 204.995067 292.806385 
L 205.153667 292.359449 
L 205.312267 292.646765 
L 205.470867 294.115268 
L 205.629468 293.093701 
L 205.788068 290.827097 
L 206.105268 293.668333 
L 206.263868 291.625197 
L 206.581069 293.253321 
L 206.898269 291.784817 
L 207.056869 292.614841 
L 207.215469 290.954793 
L 207.374069 292.870233 
L 207.53267 292.359449 
L 207.69127 292.997929 
L 207.84987 292.231753 
L 208.16707 292.295601 
L 208.32567 292.072133 
L 208.484271 291.337881 
L 208.642871 291.720969 
L 208.801471 291.305957 
L 208.960071 292.455221 
L 209.277271 291.912513 
L 209.435872 292.487145 
L 209.594472 291.369805 
L 209.753072 291.337881 
L 209.911672 292.199829 
L 210.228872 292.231753 
L 210.387473 292.550993 
L 210.704673 292.072133 
L 210.863273 292.934081 
L 211.021873 293.125625 
L 211.180473 292.104057 
L 211.497674 293.061777 
L 211.656274 292.135981 
L 211.973474 292.678689 
L 212.132074 292.455221 
L 212.449275 291.242109 
L 212.607875 293.157549 
L 212.766475 291.497501 
L 212.925075 292.806385 
L 213.083675 292.774461 
L 213.242276 293.093701 
L 213.400876 293.700257 
L 213.559476 291.880589 
L 213.718076 293.349093 
L 213.876676 290.316314 
L 214.035276 292.678689 
L 214.193877 292.135981 
L 214.511077 292.838309 
L 214.669677 291.784817 
L 214.828277 291.944437 
L 215.145478 291.593273 
L 215.304078 292.966005 
L 215.462678 292.806385 
L 215.621278 293.221397 
L 215.779878 290.827097 
L 216.097079 293.700257 
L 216.255679 293.796029 
L 216.414279 291.625197 
L 216.572879 293.476789 
L 216.731479 293.8918 
L 216.890079 291.720969 
L 217.04868 291.305957 
L 217.20728 291.816741 
L 217.36588 293.827952 
L 217.52448 291.497501 
L 217.68308 293.476789 
L 217.841681 293.381017 
L 218.000281 293.987572 
L 218.158881 294.147192 
L 218.317481 292.519069 
L 218.476081 293.125625 
L 218.634681 294.402584 
L 218.793282 291.784817 
L 218.951882 291.369805 
L 219.110482 293.796029 
L 219.269082 292.487145 
L 219.427682 293.476789 
L 219.586282 291.369805 
L 219.903483 291.848665 
L 220.062083 291.433653 
L 220.220683 292.519069 
L 220.379283 292.135981 
L 220.537883 292.423297 
L 220.696484 293.732181 
L 221.013684 290.635553 
L 221.172284 291.050565 
L 221.489484 293.444865 
L 221.648085 293.827952 
L 221.806685 293.827952 
L 221.965285 292.295601 
L 222.123885 292.391373 
L 222.282485 291.082489 
L 222.599686 293.253321 
L 222.758286 293.029853 
L 222.916886 290.316314 
L 223.075486 292.614841 
L 223.234086 293.253321 
L 223.551287 291.784817 
L 223.868487 292.870233 
L 224.027087 290.731325 
L 224.185687 293.093701 
L 224.344287 293.061777 
L 224.502888 293.923724 
L 224.661488 291.465577 
L 224.820088 292.487145 
L 224.978688 292.231753 
L 225.137288 292.934081 
L 225.295888 292.678689 
L 225.613089 291.433653 
L 225.930289 293.349093 
L 226.247489 292.423297 
L 226.40609 293.253321 
L 226.56469 292.710613 
L 226.72329 291.305957 
L 226.88189 294.881444 
L 227.04049 292.104057 
L 227.357691 292.710613 
L 227.516291 291.880589 
L 227.674891 293.317169 
L 227.833491 292.710613 
L 227.992091 292.742537 
L 228.150691 294.466432 
L 228.309292 292.391373 
L 228.467892 292.391373 
L 228.626492 292.678689 
L 228.785092 293.827952 
L 228.943692 292.550993 
L 229.260893 292.104057 
L 229.419493 292.104057 
L 229.578093 291.880589 
L 229.736693 292.008285 
L 230.053894 292.934081 
L 230.212494 292.295601 
L 230.371094 292.678689 
L 230.529694 292.614841 
L 230.688294 292.774461 
L 230.846894 292.678689 
L 231.005495 293.029853 
L 231.164095 292.710613 
L 231.322695 292.870233 
L 231.481295 293.636409 
L 231.639895 292.072133 
L 231.798495 292.295601 
L 232.115696 293.604485 
L 232.274296 291.752893 
L 232.432896 292.646765 
L 232.591496 291.561349 
L 232.908697 293.317169 
L 233.225897 292.359449 
L 233.384497 292.774461 
L 233.543097 292.359449 
L 233.701697 290.827097 
L 234.018898 292.231753 
L 234.177498 291.689045 
L 234.494698 293.189473 
L 234.653298 291.976361 
L 234.811899 293.157549 
L 235.129099 292.423297 
L 235.287699 290.954793 
L 235.446299 293.412941 
L 235.604899 291.816741 
L 235.9221 293.796029 
L 236.0807 293.540637 
L 236.2393 292.487145 
L 236.3979 293.381017 
L 236.5565 293.221397 
L 236.715101 293.796029 
L 236.873701 293.476789 
L 237.032301 292.678689 
L 237.190901 292.997929 
L 237.349501 292.742537 
L 237.508101 292.710613 
L 237.666702 292.455221 
L 237.825302 291.433653 
L 237.983902 292.710613 
L 238.142502 291.912513 
L 238.301102 292.806385 
L 238.459702 292.519069 
L 238.618303 292.742537 
L 238.935503 293.668333 
L 239.094103 293.476789 
L 239.252703 291.401729 
L 239.411303 290.859021 
L 239.569904 293.189473 
L 239.728504 293.764105 
L 240.045704 291.369805 
L 240.204304 290.603629 
L 240.362904 292.519069 
L 240.521505 291.369805 
L 240.680105 291.625197 
L 240.838705 292.231753 
L 240.997305 291.976361 
L 241.155905 292.295601 
L 241.314505 292.327525 
L 241.473106 293.253321 
L 241.631706 293.061777 
L 241.948906 293.221397 
L 242.107506 292.774461 
L 242.266106 292.678689 
L 242.424707 293.540637 
L 242.583307 292.391373 
L 242.741907 292.774461 
L 242.900507 292.423297 
L 243.217708 294.05142 
L 243.376308 294.594128 
L 243.534908 292.582917 
L 243.693508 292.997929 
L 243.852108 291.465577 
L 244.010708 293.604485 
L 244.169309 291.210185 
L 244.327909 291.401729 
L 244.486509 291.114413 
L 244.645109 291.465577 
L 244.962309 293.636409 
L 245.43811 290.731325 
L 245.59671 293.796029 
L 245.75531 292.870233 
L 245.91391 292.774461 
L 246.072511 291.912513 
L 246.231111 293.604485 
L 246.548311 291.848665 
L 246.706911 293.029853 
L 246.865511 292.231753 
L 247.024112 292.295601 
L 247.182712 293.381017 
L 247.341312 291.784817 
L 247.499912 292.838309 
L 247.658512 292.199829 
L 247.817112 293.317169 
L 247.975713 291.210185 
L 248.292913 292.678689 
L 248.451513 293.189473 
L 248.610113 292.423297 
L 248.768713 292.902157 
L 249.085914 291.274033 
L 249.244514 292.391373 
L 249.403114 291.657121 
L 249.561714 293.636409 
L 249.720314 293.412941 
L 249.878915 292.838309 
L 250.037515 291.561349 
L 250.196115 292.519069 
L 250.354715 291.497501 
L 250.671915 292.934081 
L 250.989116 291.274033 
L 251.147716 291.657121 
L 251.306316 291.242109 
L 251.464916 293.157549 
L 251.623516 292.199829 
L 251.782117 292.934081 
L 251.940717 292.040209 
L 252.099317 292.614841 
L 252.416517 292.135981 
L 252.575117 292.295601 
L 252.733718 292.742537 
L 252.892318 292.199829 
L 253.050918 293.029853 
L 253.209518 291.274033 
L 253.368118 292.327525 
L 253.526718 290.827097 
L 253.685319 292.902157 
L 253.843919 292.199829 
L 254.002519 292.135981 
L 254.161119 292.614841 
L 254.319719 293.668333 
L 254.63692 291.465577 
L 254.79552 291.912513 
L 254.95412 292.997929 
L 255.11272 292.806385 
L 255.588521 290.475933 
L 255.747121 292.295601 
L 255.905721 291.976361 
L 256.064321 290.890945 
L 256.222921 291.178261 
L 256.381522 293.859876 
L 256.540122 292.678689 
L 256.698722 293.157549 
L 256.857322 291.369805 
L 257.015922 293.540637 
L 257.174522 292.231753 
L 257.333123 292.455221 
L 257.650323 293.540637 
L 257.808923 293.700257 
L 257.967523 293.476789 
L 258.126123 291.561349 
L 258.284724 293.859876 
L 258.601924 291.433653 
L 258.760524 293.732181 
L 258.919124 292.104057 
L 259.077724 291.657121 
L 259.236325 292.231753 
L 259.394925 292.199829 
L 259.553525 291.465577 
L 259.712125 292.646765 
L 260.029325 291.497501 
L 260.187926 293.859876 
L 260.346526 294.05142 
L 260.505126 292.231753 
L 260.663726 293.317169 
L 260.822326 292.742537 
L 260.980926 291.433653 
L 261.139527 292.263677 
L 261.298127 292.040209 
L 261.456727 292.710613 
L 261.615327 292.199829 
L 261.773927 292.614841 
L 261.932527 293.349093 
L 262.091128 293.221397 
L 262.566928 292.327525 
L 262.725528 291.401729 
L 263.042729 293.764105 
L 263.359929 291.369805 
L 263.518529 292.550993 
L 263.677129 292.359449 
L 263.835729 291.816741 
L 263.99433 292.455221 
L 264.15293 292.614841 
L 264.31153 293.476789 
L 264.47013 292.167905 
L 264.62873 291.784817 
L 264.78733 292.550993 
L 264.945931 292.072133 
L 265.104531 293.700257 
L 265.263131 292.870233 
L 265.421731 294.083344 
L 265.738931 291.018641 
L 265.897532 292.199829 
L 266.056132 291.784817 
L 266.214732 291.848665 
L 266.531932 292.710613 
L 266.849133 291.242109 
L 267.007733 293.540637 
L 267.166333 293.476789 
L 267.324933 294.84952 
L 267.483533 293.253321 
L 267.642133 293.444865 
L 267.800734 291.497501 
L 267.959334 293.061777 
L 268.117934 292.838309 
L 268.435134 291.752893 
L 268.593735 292.678689 
L 268.910935 292.423297 
L 269.069535 293.859876 
L 269.228135 294.242964 
L 269.386735 291.976361 
L 269.545336 294.498356 
L 269.703936 292.582917 
L 269.862536 292.072133 
L 270.021136 292.487145 
L 270.179736 291.848665 
L 270.338336 292.167905 
L 270.496937 292.870233 
L 270.814137 291.657121 
L 270.972737 293.508713 
L 271.289937 292.710613 
L 271.448538 292.199829 
L 271.607138 292.104057 
L 271.765738 293.125625 
L 271.924338 291.720969 
L 272.082938 293.540637 
L 272.241538 292.838309 
L 272.717339 293.444865 
L 272.875939 293.412941 
L 273.034539 291.529425 
L 273.66894 293.061777 
L 273.82754 291.944437 
L 273.98614 293.444865 
L 274.14474 292.806385 
L 274.303341 292.902157 
L 274.461941 292.614841 
L 274.620541 292.678689 
L 274.779141 292.231753 
L 274.937741 293.061777 
L 275.096341 292.678689 
L 275.254942 291.912513 
L 275.413542 292.104057 
L 275.572142 293.285245 
L 275.730742 292.646765 
L 275.889342 292.806385 
L 276.047942 291.944437 
L 276.206543 291.848665 
L 276.365143 292.008285 
L 276.523743 291.689045 
L 276.682343 292.231753 
L 276.840943 293.508713 
L 276.999543 292.550993 
L 277.158144 293.955648 
L 277.316744 291.880589 
L 277.475344 292.295601 
L 277.633944 291.816741 
L 277.792544 292.008285 
L 277.951144 293.253321 
L 278.109745 292.550993 
L 278.268345 292.742537 
L 278.426945 292.487145 
L 278.585545 293.125625 
L 278.902745 291.625197 
L 279.061346 292.167905 
L 279.219946 293.253321 
L 279.378546 292.072133 
L 279.537146 293.029853 
L 279.695746 293.253321 
L 279.854346 293.093701 
L 280.012947 290.667477 
L 280.171547 290.060922 
L 280.330147 292.423297 
L 280.488747 292.167905 
L 280.647347 292.359449 
L 280.805948 291.593273 
L 280.964548 291.912513 
L 281.123148 293.636409 
L 281.281748 293.508713 
L 281.598948 289.869378 
L 281.757549 292.902157 
L 281.916149 292.295601 
L 282.074749 292.550993 
L 282.233349 294.05142 
L 282.391949 293.572561 
L 282.550549 294.274888 
L 282.70915 293.700257 
L 282.86775 292.199829 
L 283.02635 292.710613 
L 283.34355 291.657121 
L 283.50215 292.902157 
L 283.819351 293.381017 
L 283.977951 292.582917 
L 284.295151 294.306812 
L 284.453751 291.625197 
L 284.612352 293.189473 
L 284.770952 293.221397 
L 284.929552 293.444865 
L 285.088152 293.125625 
L 285.246752 292.040209 
L 285.405352 293.029853 
L 285.563953 292.966005 
L 285.722553 292.327525 
L 285.881153 293.381017 
L 286.039753 293.125625 
L 286.198353 292.072133 
L 286.356953 292.135981 
L 286.674154 292.582917 
L 286.832754 293.285245 
L 286.991354 293.476789 
L 287.308554 292.614841 
L 287.467155 292.966005 
L 287.784355 291.784817 
L 287.942955 293.093701 
L 288.101555 292.423297 
L 288.260155 292.774461 
L 288.418756 292.710613 
L 288.735956 291.274033 
L 288.894556 293.412941 
L 289.211756 292.966005 
L 289.370357 292.135981 
L 289.528957 293.349093 
L 289.687557 291.625197 
L 289.846157 293.572561 
L 290.004757 292.167905 
L 290.163357 294.466432 
L 290.321958 292.550993 
L 290.480558 293.285245 
L 290.639158 292.199829 
L 290.797758 292.231753 
L 290.956358 294.115268 
L 291.114958 291.720969 
L 291.273559 292.614841 
L 291.432159 292.870233 
L 291.590759 293.732181 
L 291.749359 291.880589 
L 291.907959 292.199829 
L 292.066559 291.593273 
L 292.22516 293.444865 
L 292.38376 291.178261 
L 292.54236 293.125625 
L 292.85956 290.44401 
L 293.018161 291.816741 
L 293.176761 290.667477 
L 293.493961 293.923724 
L 293.652561 292.072133 
L 293.969762 292.806385 
L 294.128362 292.167905 
L 294.286962 292.040209 
L 294.445562 292.519069 
L 294.604162 293.732181 
L 294.762762 291.146337 
L 294.921363 291.720969 
L 295.079963 291.465577 
L 295.238563 293.221397 
L 295.555763 292.550993 
L 295.714363 292.742537 
L 296.031564 293.8918 
L 296.190164 290.922869 
L 296.348764 291.976361 
L 296.507364 293.8918 
L 296.824565 292.072133 
L 296.983165 292.295601 
L 297.141765 293.796029 
L 297.300365 292.423297 
L 297.458965 292.135981 
L 297.617565 291.337881 
L 297.776166 291.880589 
L 297.934766 293.317169 
L 298.093366 292.678689 
L 298.251966 291.146337 
L 298.410566 291.497501 
L 298.569166 293.444865 
L 298.727767 291.689045 
L 298.886367 293.827952 
L 299.044967 293.572561 
L 299.203567 292.934081 
L 299.362167 291.561349 
L 299.520767 292.104057 
L 299.679368 292.167905 
L 299.837968 293.732181 
L 299.996568 291.944437 
L 300.313768 292.391373 
L 300.472368 293.317169 
L 300.630969 292.135981 
L 300.948169 292.806385 
L 301.106769 292.966005 
L 301.265369 293.987572 
L 301.423969 293.668333 
L 301.58257 292.040209 
L 301.74117 292.359449 
L 301.89977 294.721824 
L 302.21697 293.253321 
L 302.37557 293.029853 
L 302.534171 293.189473 
L 302.692771 291.593273 
L 302.851371 294.115268 
L 303.009971 292.295601 
L 303.168571 292.455221 
L 303.327171 292.997929 
L 303.485772 292.838309 
L 303.802972 294.147192 
L 303.961572 292.327525 
L 304.120172 293.093701 
L 304.278772 294.498356 
L 304.595973 292.199829 
L 304.754573 293.444865 
L 305.071773 291.657121 
L 305.230373 292.774461 
L 305.706174 291.880589 
L 305.864774 292.231753 
L 306.181975 293.604485 
L 306.340575 292.327525 
L 306.499175 293.317169 
L 306.816375 292.072133 
L 306.974975 290.827097 
L 307.133576 292.519069 
L 307.292176 290.507857 
L 307.450776 290.571705 
L 307.609376 292.199829 
L 307.767976 292.263677 
L 307.926576 290.28439 
L 308.243777 293.157549 
L 308.402377 293.8918 
L 308.719577 292.295601 
L 309.036778 292.646765 
L 309.195378 292.391373 
L 309.353978 292.519069 
L 309.512578 292.359449 
L 309.671178 291.912513 
L 309.829778 292.359449 
L 310.146979 291.082489 
L 310.305579 291.625197 
L 310.464179 293.189473 
L 310.622779 292.646765 
L 310.781379 290.890945 
L 310.93998 294.6899 
L 311.25718 292.104057 
L 311.73298 292.997929 
L 311.891581 292.263677 
L 312.050181 292.646765 
L 312.208781 293.700257 
L 312.367381 291.848665 
L 312.525981 292.167905 
L 312.684581 291.050565 
L 312.843182 292.934081 
L 313.001782 291.657121 
L 313.160382 291.752893 
L 313.318982 291.337881 
L 313.477582 291.274033 
L 313.636182 292.710613 
L 313.794783 292.487145 
L 313.953383 292.710613 
L 314.111983 292.359449 
L 314.429183 295.360304 
L 314.587783 291.880589 
L 314.746384 291.242109 
L 314.904984 292.806385 
L 315.063584 292.263677 
L 315.222184 292.423297 
L 315.380784 291.944437 
L 315.539384 293.381017 
L 315.856585 291.529425 
L 316.015185 293.412941 
L 316.332385 291.784817 
L 316.490985 291.274033 
L 316.808186 292.902157 
L 316.966786 292.487145 
L 317.125386 293.189473 
L 317.283986 295.264532 
L 317.442586 290.731325 
L 317.601187 292.710613 
L 317.759787 291.752893 
L 317.918387 292.710613 
L 318.076987 292.391373 
L 318.235587 291.178261 
L 318.394188 292.455221 
L 318.552788 291.561349 
L 318.711388 291.720969 
L 318.869988 292.423297 
L 319.028588 292.614841 
L 319.187188 293.604485 
L 319.345789 292.966005 
L 319.504389 293.444865 
L 319.662989 289.80553 
L 319.821589 295.488 
L 319.980189 292.263677 
L 320.138789 291.465577 
L 320.29739 292.455221 
L 320.45599 291.529425 
L 320.61459 293.8918 
L 320.77319 291.529425 
L 320.93179 292.870233 
L 321.09039 292.263677 
L 321.248991 293.476789 
L 321.407591 291.242109 
L 321.566191 294.466432 
L 321.724791 293.764105 
L 321.883391 292.231753 
L 322.041991 292.997929 
L 322.359192 292.997929 
L 322.517792 293.604485 
L 322.676392 291.274033 
L 322.834992 293.764105 
L 322.993592 292.774461 
L 323.152193 293.668333 
L 323.469393 292.838309 
L 323.627993 290.475933 
L 323.945193 293.604485 
L 324.103794 292.423297 
L 324.262394 292.263677 
L 324.420994 293.8918 
L 324.579594 294.21104 
L 324.738194 292.550993 
L 324.896794 292.614841 
L 325.055395 292.806385 
L 325.372595 292.104057 
L 325.689795 292.806385 
L 325.848395 290.986717 
L 326.006996 291.593273 
L 326.165596 292.806385 
L 326.324196 292.582917 
L 326.482796 293.508713 
L 326.641396 292.934081 
L 326.799996 293.700257 
L 327.117197 292.263677 
L 327.275797 293.093701 
L 327.434397 292.806385 
L 327.910198 293.285245 
L 328.068798 291.625197 
L 328.385998 293.732181 
L 328.703198 292.040209 
L 328.861799 291.689045 
L 329.020399 292.263677 
L 329.337599 294.019496 
L 329.496199 292.327525 
L 329.654799 293.604485 
L 329.8134 291.976361 
L 329.972 292.008285 
L 330.2892 292.519069 
L 330.4478 291.401729 
L 330.6064 291.433653 
L 330.923601 293.093701 
L 331.082201 292.806385 
L 331.240801 292.997929 
L 331.399401 292.072133 
L 331.558002 293.061777 
L 331.716602 292.359449 
L 331.875202 292.199829 
L 332.033802 291.784817 
L 332.192402 292.902157 
L 332.351002 291.976361 
L 332.509603 293.923724 
L 332.668203 293.285245 
L 332.826803 291.018641 
L 332.985403 293.285245 
L 333.302603 293.125625 
L 333.619804 291.625197 
L 333.778404 293.923724 
L 334.095604 292.263677 
L 334.254204 293.412941 
L 334.412805 292.295601 
L 334.571405 293.476789 
L 334.730005 292.614841 
L 334.888605 293.317169 
L 335.205805 291.880589 
L 335.364406 293.189473 
L 335.523006 290.890945 
L 335.840206 292.997929 
L 335.998806 292.742537 
L 336.157406 292.870233 
L 336.316007 292.614841 
L 336.474607 291.401729 
L 336.633207 292.966005 
L 336.791807 291.625197 
L 337.109007 293.8918 
L 337.267608 291.816741 
L 337.426208 292.519069 
L 337.584808 292.008285 
L 337.743408 293.381017 
L 337.902008 293.285245 
L 338.060608 290.44401 
L 338.219209 293.061777 
L 338.377809 290.475933 
L 338.536409 292.774461 
L 338.853609 293.125625 
L 339.17081 291.593273 
L 339.32941 292.997929 
L 339.48801 292.487145 
L 339.64661 293.8918 
L 339.80521 291.752893 
L 339.96381 292.391373 
L 340.122411 290.859021 
L 340.281011 293.061777 
L 340.439611 292.710613 
L 340.598211 291.465577 
L 340.756811 291.625197 
L 340.915411 294.019496 
L 341.074012 292.295601 
L 341.232612 293.476789 
L 341.391212 292.742537 
L 341.708412 293.859876 
L 341.867012 292.838309 
L 342.025613 293.189473 
L 342.184213 291.880589 
L 342.342813 292.997929 
L 342.501413 292.359449 
L 342.660013 292.231753 
L 342.818613 292.646765 
L 342.977214 292.199829 
L 343.135814 291.050565 
L 343.294414 292.742537 
L 343.611614 292.455221 
L 343.770215 291.912513 
L 344.087415 294.083344 
L 344.246015 292.008285 
L 344.404615 293.093701 
L 344.563215 293.125625 
L 344.721816 292.742537 
L 344.880416 293.668333 
L 345.039016 291.497501 
L 345.197616 292.902157 
L 345.356216 292.391373 
L 345.514816 293.125625 
L 345.673417 292.519069 
L 345.832017 292.614841 
L 345.990617 293.540637 
L 346.149217 291.625197 
L 346.307817 291.880589 
L 346.466417 291.689045 
L 346.625018 291.880589 
L 346.783618 292.806385 
L 346.942218 291.305957 
L 347.100818 292.327525 
L 347.259418 292.263677 
L 347.418018 292.934081 
L 347.576619 292.646765 
L 347.735219 292.806385 
L 347.893819 291.050565 
L 348.211019 292.774461 
L 348.369619 292.327525 
L 348.52822 293.157549 
L 348.68682 293.221397 
L 348.84542 293.157549 
L 349.00402 291.944437 
L 349.16262 291.816741 
L 349.32122 291.114413 
L 349.479821 292.742537 
L 349.638421 292.966005 
L 349.797021 291.497501 
L 349.955621 292.966005 
L 350.114221 291.337881 
L 350.272821 292.327525 
L 350.431422 292.582917 
L 350.590022 290.795173 
L 350.748622 291.497501 
L 350.907222 292.966005 
L 351.065822 292.104057 
L 351.224422 291.976361 
L 351.383023 292.295601 
L 351.541623 291.976361 
L 351.700223 292.231753 
L 351.858823 291.816741 
L 352.017423 292.742537 
L 352.176023 292.678689 
L 352.334624 293.796029 
L 352.651824 292.519069 
L 352.810424 290.731325 
L 352.969024 292.582917 
L 353.127624 292.487145 
L 353.286225 290.986717 
L 353.444825 293.955648 
L 353.603425 293.508713 
L 353.762025 290.954793 
L 354.079225 292.838309 
L 354.237826 292.646765 
L 354.396426 291.146337 
L 354.713626 292.934081 
L 354.872226 291.816741 
L 355.189427 291.657121 
L 355.348027 292.966005 
L 355.506627 292.327525 
L 355.665227 292.327525 
L 355.823827 291.529425 
L 355.982427 291.689045 
L 356.141028 292.519069 
L 356.299628 291.625197 
L 356.458228 293.317169 
L 356.616828 292.646765 
L 356.775428 293.381017 
L 356.934029 291.050565 
L 357.092629 293.221397 
L 357.251229 291.625197 
L 357.409829 292.838309 
L 357.568429 293.125625 
L 357.727029 292.678689 
L 357.88563 291.816741 
L 358.04423 292.646765 
L 358.20283 291.912513 
L 358.52003 292.072133 
L 358.67863 292.934081 
L 358.995831 292.391373 
L 359.154431 292.966005 
L 359.313031 290.954793 
L 359.630231 291.976361 
L 359.788832 290.795173 
L 359.947432 290.986717 
L 360.106032 293.093701 
L 360.264632 291.593273 
L 360.423232 292.742537 
L 360.581832 292.040209 
L 360.899033 293.764105 
L 361.216233 292.614841 
L 361.374833 292.391373 
L 361.533433 292.966005 
L 361.692034 291.880589 
L 361.850634 292.199829 
L 362.009234 291.625197 
L 362.167834 292.104057 
L 362.326434 293.157549 
L 362.485034 292.934081 
L 362.643635 293.444865 
L 362.802235 290.348238 
L 363.119435 291.880589 
L 363.278035 292.487145 
L 363.436635 290.890945 
L 363.595236 293.764105 
L 363.753836 292.167905 
L 363.912436 292.359449 
L 364.071036 293.029853 
L 364.229636 291.465577 
L 364.388236 293.221397 
L 364.546837 292.582917 
L 364.705437 291.433653 
L 365.022637 292.135981 
L 365.181237 293.636409 
L 365.815638 290.731325 
L 365.974238 292.487145 
L 366.132838 291.465577 
L 366.291438 293.859876 
L 366.450039 291.784817 
L 366.608639 292.614841 
L 366.767239 292.167905 
L 366.925839 293.412941 
L 367.084439 290.539781 
L 367.40164 290.699401 
L 367.56024 291.337881 
L 367.71884 293.189473 
L 367.87744 291.944437 
L 368.03604 292.040209 
L 368.19464 292.902157 
L 368.353241 291.401729 
L 368.511841 291.657121 
L 368.670441 290.475933 
L 368.829041 291.880589 
L 368.987641 291.337881 
L 369.146242 291.465577 
L 369.304842 289.709758 
L 369.622042 292.263677 
L 369.780642 293.444865 
L 369.939242 292.582917 
L 370.097843 289.582062 
L 370.256443 292.199829 
L 370.415043 292.072133 
L 370.573643 291.146337 
L 370.732243 292.710613 
L 371.049444 292.327525 
L 371.208044 291.178261 
L 371.366644 294.21104 
L 371.683844 290.795173 
L 371.842444 291.178261 
L 372.001045 290.412086 
L 372.159645 290.954793 
L 372.318245 291.018641 
L 372.476845 292.423297 
L 372.635445 290.571705 
L 372.794045 291.848665 
L 373.111246 289.518214 
L 373.428446 291.465577 
L 373.587046 290.412086 
L 373.745646 290.922869 
L 373.904247 292.582917 
L 374.062847 289.869378 
L 374.221447 291.210185 
L 374.380047 291.433653 
L 374.697247 289.390518 
L 374.855848 292.072133 
L 375.014448 290.795173 
L 375.173048 292.231753 
L 375.331648 291.880589 
L 375.648848 289.677834 
L 375.966049 291.210185 
L 376.124649 290.571705 
L 376.283249 290.859021 
L 376.441849 291.593273 
L 376.600449 291.337881 
L 376.75905 289.358594 
L 376.91765 289.518214 
L 377.07625 290.156694 
L 377.23485 290.12477 
L 377.39345 290.220542 
L 377.55205 290.859021 
L 377.710651 290.571705 
L 377.869251 289.933226 
L 378.027851 290.571705 
L 378.503651 288.84781 
L 378.662252 288.815886 
L 378.820852 290.667477 
L 378.979452 290.635553 
L 379.138052 289.96515 
L 379.296652 288.113558 
L 379.455252 291.433653 
L 379.613853 289.677834 
L 379.772453 289.709758 
L 380.089653 290.44401 
L 380.565454 287.09199 
L 380.724054 290.603629 
L 380.882654 287.794318 
L 381.041254 290.44401 
L 381.199854 288.464722 
L 381.358455 288.04971 
L 381.517055 290.060922 
L 381.675655 289.709758 
L 381.992855 287.794318 
L 382.310056 289.80553 
L 382.468656 289.997074 
L 382.944456 286.070423 
L 383.103056 290.571705 
L 383.261657 288.177406 
L 383.420257 287.794318 
L 383.578857 289.230898 
L 383.737457 288.04971 
L 383.896057 290.316314 
L 384.054657 288.400874 
L 384.213258 288.177406 
L 384.371858 286.230043 
L 384.530458 288.783962 
L 385.006258 285.336171 
L 385.164859 289.103202 
L 385.323459 286.804675 
L 385.482059 286.134271 
L 385.640659 288.911658 
L 385.799259 287.634698 
L 385.957859 287.57085 
L 386.11646 287.283534 
L 386.27506 288.017786 
L 386.43366 285.048855 
L 386.59226 285.527715 
L 386.75086 284.346527 
L 386.90946 286.485435 
L 387.068061 286.230043 
L 387.226661 286.900447 
L 387.385261 287.060067 
L 387.543861 285.144627 
L 387.702461 286.293891 
L 387.861061 285.368095 
L 388.019662 286.485435 
L 388.178262 285.527715 
L 388.336862 287.922014 
L 388.495462 286.293891 
L 388.812662 286.996219 
L 389.129863 285.751183 
L 389.447063 288.560494 
L 389.605663 288.879734 
L 389.764263 288.273178 
L 389.922864 289.262822 
L 390.081464 286.932371 
L 390.240064 288.943582 
L 390.398664 287.953938 
L 390.557264 288.592418 
L 390.715864 287.41123 
L 390.874465 287.985862 
L 391.191665 291.082489 
L 391.350265 290.859021 
L 391.508865 290.763249 
L 391.667465 289.613986 
L 391.984666 291.657121 
L 392.143266 289.80553 
L 392.301866 291.305957 
L 392.619066 290.507857 
L 392.777667 291.433653 
L 392.936267 290.348238 
L 393.094867 290.667477 
L 393.253467 289.48629 
L 393.570667 290.986717 
L 393.729268 290.890945 
L 393.887868 291.305957 
L 394.046468 290.348238 
L 394.205068 292.104057 
L 394.363668 291.657121 
L 394.680869 290.539781 
L 394.998069 291.337881 
L 395.156669 291.944437 
L 395.315269 290.635553 
L 395.63247 293.732181 
L 395.79107 291.593273 
L 395.94967 292.199829 
L 396.10827 291.210185 
L 396.26687 294.881444 
L 396.425471 290.475933 
L 396.584071 290.28439 
L 396.742671 291.369805 
L 396.901271 294.115268 
L 397.059871 293.412941 
L 397.218471 293.572561 
L 397.377072 290.156694 
L 397.694272 294.338736 
L 397.852872 290.28439 
L 398.011472 291.784817 
L 398.170072 291.274033 
L 398.328673 289.48629 
L 398.487273 291.561349 
L 398.487273 291.561349 
" style="fill:none;stroke:#1f77b4;stroke-linecap:square;stroke-width:1.5;"/>
   </g>
   <g id="patch_3">
    <path d="M 57.6 307.584 
L 57.6 41.472 
" style="fill:none;stroke:#000000;stroke-linecap:square;stroke-linejoin:miter;stroke-width:0.8;"/>
   </g>
   <g id="patch_4">
    <path d="M 414.72 307.584 
L 414.72 41.472 
" style="fill:none;stroke:#000000;stroke-linecap:square;stroke-linejoin:miter;stroke-width:0.8;"/>
   </g>
   <g id="patch_5">
    <path d="M 57.6 307.584 
L 414.72 307.584 
" style="fill:none;stroke:#000000;stroke-linecap:square;stroke-linejoin:miter;stroke-width:0.8;"/>
   </g>
   <g id="patch_6">
    <path d="M 57.6 41.472 
L 414.72 41.472 
" style="fill:none;stroke:#000000;stroke-linecap:square;stroke-linejoin:miter;stroke-width:0.8;"/>
   </g>
   <g id="text_16">
    <!-- Background subtracted -->
    <g transform="translate(166.075312 35.472)scale(0.12 -0.12)">
     <defs>
      <path d="M 1259 2228 
L 1259 519 
L 2272 519 
Q 2781 519 3026 730 
Q 3272 941 3272 1375 
Q 3272 1813 3026 2020 
Q 2781 2228 2272 2228 
L 1259 2228 
z
M 1259 4147 
L 1259 2741 
L 2194 2741 
Q 2656 2741 2882 2914 
Q 3109 3088 3109 3444 
Q 3109 3797 2882 3972 
Q 2656 4147 2194 4147 
L 1259 4147 
z
M 628 4666 
L 2241 4666 
Q 2963 4666 3353 4366 
Q 3744 4066 3744 3513 
Q 3744 3084 3544 2831 
Q 3344 2578 2956 2516 
Q 3422 2416 3680 2098 
Q 3938 1781 3938 1306 
Q 3938 681 3513 340 
Q 3088 0 2303 0 
L 628 0 
L 628 4666 
z
" id="DejaVuSans-42" transform="scale(0.015625)"/>
      <path d="M 3122 3366 
L 3122 2828 
Q 2878 2963 2633 3030 
Q 2388 3097 2138 3097 
Q 1578 3097 1268 2742 
Q 959 2388 959 1747 
Q 959 1106 1268 751 
Q 1578 397 2138 397 
Q 2388 397 2633 464 
Q 2878 531 3122 666 
L 3122 134 
Q 2881 22 2623 -34 
Q 2366 -91 2075 -91 
Q 1284 -91 818 406 
Q 353 903 353 1747 
Q 353 2603 823 3093 
Q 1294 3584 2113 3584 
Q 2378 3584 2631 3529 
Q 2884 3475 3122 3366 
z
" id="DejaVuSans-63" transform="scale(0.015625)"/>
      <path d="M 581 4863 
L 1159 4863 
L 1159 1991 
L 2875 3500 
L 3609 3500 
L 1753 1863 
L 3688 0 
L 2938 0 
L 1159 1709 
L 1159 0 
L 581 0 
L 581 4863 
z
" id="DejaVuSans-6b" transform="scale(0.015625)"/>
      <path d="M 2631 2963 
Q 2534 3019 2420 3045 
Q 2306 3072 2169 3072 
Q 1681 3072 1420 2755 
Q 1159 2438 1159 1844 
L 1159 0 
L 581 0 
L 581 3500 
L 1159 3500 
L 1159 2956 
Q 1341 3275 1631 3429 
Q 1922 3584 2338 3584 
Q 2397 3584 2469 3576 
Q 2541 3569 2628 3553 
L 2631 2963 
z
" id="DejaVuSans-72" transform="scale(0.015625)"/>
      <path d="M 2906 2969 
L 2906 4863 
L 3481 4863 
L 3481 0 
L 2906 0 
L 2906 525 
Q 2725 213 2448 61 
Q 2172 -91 1784 -91 
Q 1150 -91 751 415 
Q 353 922 353 1747 
Q 353 2572 751 3078 
Q 1150 3584 1784 3584 
Q 2172 3584 2448 3432 
Q 2725 3281 2906 2969 
z
M 947 1747 
Q 947 1113 1208 752 
Q 1469 391 1925 391 
Q 2381 391 2643 752 
Q 2906 1113 2906 1747 
Q 2906 2381 2643 2742 
Q 2381 3103 1925 3103 
Q 1469 3103 1208 2742 
Q 947 2381 947 1747 
z
" id="DejaVuSans-64" transform="scale(0.015625)"/>
      <path d="M 3116 1747 
Q 3116 2381 2855 2742 
Q 2594 3103 2138 3103 
Q 1681 3103 1420 2742 
Q 1159 2381 1159 1747 
Q 1159 1113 1420 752 
Q 1681 391 2138 391 
Q 2594 391 2855 752 
Q 3116 1113 3116 1747 
z
M 1159 2969 
Q 1341 3281 1617 3432 
Q 1894 3584 2278 3584 
Q 2916 3584 3314 3078 
Q 3713 2572 3713 1747 
Q 3713 922 3314 415 
Q 2916 -91 2278 -91 
Q 1894 -91 1617 61 
Q 1341 213 1159 525 
L 1159 0 
L 581 0 
L 581 4863 
L 1159 4863 
L 1159 2969 
z
" id="DejaVuSans-62" transform="scale(0.015625)"/>
     </defs>
     <use xlink:href="#DejaVuSans-42"/>
     <use x="68.603516" xlink:href="#DejaVuSans-61"/>
     <use x="129.882812" xlink:href="#DejaVuSans-63"/>
     <use x="184.863281" xlink:href="#DejaVuSans-6b"/>
     <use x="242.773438" xlink:href="#DejaVuSans-67"/>
     <use x="306.25" xlink:href="#DejaVuSans-72"/>
     <use x="345.113281" xlink:href="#DejaVuSans-6f"/>
     <use x="406.294922" xlink:href="#DejaVuSans-75"/>
     <use x="469.673828" xlink:href="#DejaVuSans-6e"/>
     <use x="533.052734" xlink:href="#DejaVuSans-64"/>
     <use x="596.529297" xlink:href="#DejaVuSans-20"/>
     <use x="628.316406" xlink:href="#DejaVuSans-73"/>
     <use x="680.416016" xlink:href="#DejaVuSans-75"/>
     <use x="743.794922" xlink:href="#DejaVuSans-62"/>
     <use x="807.271484" xlink:href="#DejaVuSans-74"/>
     <use x="846.480469" xlink:href="#DejaVuSans-72"/>
     <use x="887.59375" xlink:href="#DejaVuSans-61"/>
     <use x="948.873047" xlink:href="#DejaVuSans-63"/>
     <use x="1003.853516" xlink:href="#DejaVuSans-74"/>
     <use x="1043.0625" xlink:href="#DejaVuSans-65"/>
     <use x="1104.585938" xlink:href="#DejaVuSans-64"/>
    </g>
   </g>
  </g>
 </g>
 <defs>
  <clipPath id="p62953afef5">
   <rect height="266.112" width="357.12" x="57.6" y="41.472"/>
  </clipPath>
 </defs>
</svg>
