<?xml version="1.0" encoding="utf-8" standalone="no"?>
<!DOCTYPE svg PUBLIC "-//W3C//DTD SVG 1.1//EN"
  "http://www.w3.org/Graphics/SVG/1.1/DTD/svg11.dtd">
<svg height="345.6pt" version="1.1" viewBox="0 0 460.8 345.6" width="460.8pt" xmlns="http://www.w3.org/2000/svg" xmlns:xlink="http://www.w3.org/1999/xlink">
 <metadata>
  <rdf:RDF xmlns:cc="http://creativecommons.org/ns#" xmlns:dc="http://purl.org/dc/elements/1.1/" xmlns:rdf="http://www.w3.org/1999/02/22-rdf-syntax-ns#">
   <cc:Work>
    <dc:type rdf:resource="http://purl.org/dc/dcmitype/StillImage"/>
    <dc:date>2022-06-03T23:55:09.244732</dc:date>
    <dc:format>image/svg+xml</dc:format>
    <dc:creator>
     <cc:Agent>
      <dc:title>Matplotlib v3.4.1, https://matplotlib.org/</dc:title>
     </cc:Agent>
    </dc:creator>
   </cc:Work>
  </rdf:RDF>
 </metadata>
 <defs>
  <style type="text/css">*{stroke-linecap:butt;stroke-linejoin:round;}</style>
 </defs>
 <g id="figure_1">
  <g id="patch_1">
   <path d="M 0 345.6 
L 460.8 345.6 
L 460.8 0 
L 0 0 
z
" style="fill:#ffffff;"/>
  </g>
  <g id="axes_1">
   <g id="patch_2">
    <path d="M 57.6 307.584 
L 414.72 307.584 
L 414.72 41.472 
L 57.6 41.472 
z
" style="fill:#ffffff;"/>
   </g>
   <g id="matplotlib.axis_1">
    <g id="xtick_1">
     <g id="line2d_1">
      <defs>
       <path d="M 0 0 
L 0 3.5 
" id="ma5effbaf6e" style="stroke:#000000;stroke-width:0.8;"/>
      </defs>
      <g>
       <use style="stroke:#000000;stroke-width:0.8;" x="103.072447" xlink:href="#ma5effbaf6e" y="307.584"/>
      </g>
     </g>
     <g id="text_1">
      <!-- 400 -->
      <g transform="translate(93.528697 322.182437)scale(0.1 -0.1)">
       <defs>
        <path d="M 2419 4116 
L 825 1625 
L 2419 1625 
L 2419 4116 
z
M 2253 4666 
L 3047 4666 
L 3047 1625 
L 3713 1625 
L 3713 1100 
L 3047 1100 
L 3047 0 
L 2419 0 
L 2419 1100 
L 313 1100 
L 313 1709 
L 2253 4666 
z
" id="DejaVuSans-34" transform="scale(0.015625)"/>
        <path d="M 2034 4250 
Q 1547 4250 1301 3770 
Q 1056 3291 1056 2328 
Q 1056 1369 1301 889 
Q 1547 409 2034 409 
Q 2525 409 2770 889 
Q 3016 1369 3016 2328 
Q 3016 3291 2770 3770 
Q 2525 4250 2034 4250 
z
M 2034 4750 
Q 2819 4750 3233 4129 
Q 3647 3509 3647 2328 
Q 3647 1150 3233 529 
Q 2819 -91 2034 -91 
Q 1250 -91 836 529 
Q 422 1150 422 2328 
Q 422 3509 836 4129 
Q 1250 4750 2034 4750 
z
" id="DejaVuSans-30" transform="scale(0.015625)"/>
       </defs>
       <use xlink:href="#DejaVuSans-34"/>
       <use x="63.623047" xlink:href="#DejaVuSans-30"/>
       <use x="127.246094" xlink:href="#DejaVuSans-30"/>
      </g>
     </g>
    </g>
    <g id="xtick_2">
     <g id="line2d_2">
      <g>
       <use style="stroke:#000000;stroke-width:0.8;" x="161.359538" xlink:href="#ma5effbaf6e" y="307.584"/>
      </g>
     </g>
     <g id="text_2">
      <!-- 600 -->
      <g transform="translate(151.815788 322.182437)scale(0.1 -0.1)">
       <defs>
        <path d="M 2113 2584 
Q 1688 2584 1439 2293 
Q 1191 2003 1191 1497 
Q 1191 994 1439 701 
Q 1688 409 2113 409 
Q 2538 409 2786 701 
Q 3034 994 3034 1497 
Q 3034 2003 2786 2293 
Q 2538 2584 2113 2584 
z
M 3366 4563 
L 3366 3988 
Q 3128 4100 2886 4159 
Q 2644 4219 2406 4219 
Q 1781 4219 1451 3797 
Q 1122 3375 1075 2522 
Q 1259 2794 1537 2939 
Q 1816 3084 2150 3084 
Q 2853 3084 3261 2657 
Q 3669 2231 3669 1497 
Q 3669 778 3244 343 
Q 2819 -91 2113 -91 
Q 1303 -91 875 529 
Q 447 1150 447 2328 
Q 447 3434 972 4092 
Q 1497 4750 2381 4750 
Q 2619 4750 2861 4703 
Q 3103 4656 3366 4563 
z
" id="DejaVuSans-36" transform="scale(0.015625)"/>
       </defs>
       <use xlink:href="#DejaVuSans-36"/>
       <use x="63.623047" xlink:href="#DejaVuSans-30"/>
       <use x="127.246094" xlink:href="#DejaVuSans-30"/>
      </g>
     </g>
    </g>
    <g id="xtick_3">
     <g id="line2d_3">
      <g>
       <use style="stroke:#000000;stroke-width:0.8;" x="219.646629" xlink:href="#ma5effbaf6e" y="307.584"/>
      </g>
     </g>
     <g id="text_3">
      <!-- 800 -->
      <g transform="translate(210.102879 322.182437)scale(0.1 -0.1)">
       <defs>
        <path d="M 2034 2216 
Q 1584 2216 1326 1975 
Q 1069 1734 1069 1313 
Q 1069 891 1326 650 
Q 1584 409 2034 409 
Q 2484 409 2743 651 
Q 3003 894 3003 1313 
Q 3003 1734 2745 1975 
Q 2488 2216 2034 2216 
z
M 1403 2484 
Q 997 2584 770 2862 
Q 544 3141 544 3541 
Q 544 4100 942 4425 
Q 1341 4750 2034 4750 
Q 2731 4750 3128 4425 
Q 3525 4100 3525 3541 
Q 3525 3141 3298 2862 
Q 3072 2584 2669 2484 
Q 3125 2378 3379 2068 
Q 3634 1759 3634 1313 
Q 3634 634 3220 271 
Q 2806 -91 2034 -91 
Q 1263 -91 848 271 
Q 434 634 434 1313 
Q 434 1759 690 2068 
Q 947 2378 1403 2484 
z
M 1172 3481 
Q 1172 3119 1398 2916 
Q 1625 2713 2034 2713 
Q 2441 2713 2670 2916 
Q 2900 3119 2900 3481 
Q 2900 3844 2670 4047 
Q 2441 4250 2034 4250 
Q 1625 4250 1398 4047 
Q 1172 3844 1172 3481 
z
" id="DejaVuSans-38" transform="scale(0.015625)"/>
       </defs>
       <use xlink:href="#DejaVuSans-38"/>
       <use x="63.623047" xlink:href="#DejaVuSans-30"/>
       <use x="127.246094" xlink:href="#DejaVuSans-30"/>
      </g>
     </g>
    </g>
    <g id="xtick_4">
     <g id="line2d_4">
      <g>
       <use style="stroke:#000000;stroke-width:0.8;" x="277.933721" xlink:href="#ma5effbaf6e" y="307.584"/>
      </g>
     </g>
     <g id="text_4">
      <!-- 1000 -->
      <g transform="translate(265.208721 322.182437)scale(0.1 -0.1)">
       <defs>
        <path d="M 794 531 
L 1825 531 
L 1825 4091 
L 703 3866 
L 703 4441 
L 1819 4666 
L 2450 4666 
L 2450 531 
L 3481 531 
L 3481 0 
L 794 0 
L 794 531 
z
" id="DejaVuSans-31" transform="scale(0.015625)"/>
       </defs>
       <use xlink:href="#DejaVuSans-31"/>
       <use x="63.623047" xlink:href="#DejaVuSans-30"/>
       <use x="127.246094" xlink:href="#DejaVuSans-30"/>
       <use x="190.869141" xlink:href="#DejaVuSans-30"/>
      </g>
     </g>
    </g>
    <g id="xtick_5">
     <g id="line2d_5">
      <g>
       <use style="stroke:#000000;stroke-width:0.8;" x="336.220812" xlink:href="#ma5effbaf6e" y="307.584"/>
      </g>
     </g>
     <g id="text_5">
      <!-- 1200 -->
      <g transform="translate(323.495812 322.182437)scale(0.1 -0.1)">
       <defs>
        <path d="M 1228 531 
L 3431 531 
L 3431 0 
L 469 0 
L 469 531 
Q 828 903 1448 1529 
Q 2069 2156 2228 2338 
Q 2531 2678 2651 2914 
Q 2772 3150 2772 3378 
Q 2772 3750 2511 3984 
Q 2250 4219 1831 4219 
Q 1534 4219 1204 4116 
Q 875 4013 500 3803 
L 500 4441 
Q 881 4594 1212 4672 
Q 1544 4750 1819 4750 
Q 2544 4750 2975 4387 
Q 3406 4025 3406 3419 
Q 3406 3131 3298 2873 
Q 3191 2616 2906 2266 
Q 2828 2175 2409 1742 
Q 1991 1309 1228 531 
z
" id="DejaVuSans-32" transform="scale(0.015625)"/>
       </defs>
       <use xlink:href="#DejaVuSans-31"/>
       <use x="63.623047" xlink:href="#DejaVuSans-32"/>
       <use x="127.246094" xlink:href="#DejaVuSans-30"/>
       <use x="190.869141" xlink:href="#DejaVuSans-30"/>
      </g>
     </g>
    </g>
    <g id="xtick_6">
     <g id="line2d_6">
      <g>
       <use style="stroke:#000000;stroke-width:0.8;" x="394.507904" xlink:href="#ma5effbaf6e" y="307.584"/>
      </g>
     </g>
     <g id="text_6">
      <!-- 1400 -->
      <g transform="translate(381.782904 322.182437)scale(0.1 -0.1)">
       <use xlink:href="#DejaVuSans-31"/>
       <use x="63.623047" xlink:href="#DejaVuSans-34"/>
       <use x="127.246094" xlink:href="#DejaVuSans-30"/>
       <use x="190.869141" xlink:href="#DejaVuSans-30"/>
      </g>
     </g>
    </g>
    <g id="text_7">
     <!-- Wavelength [nm] -->
     <g transform="translate(192.967812 335.860562)scale(0.1 -0.1)">
      <defs>
       <path d="M 213 4666 
L 850 4666 
L 1831 722 
L 2809 4666 
L 3519 4666 
L 4500 722 
L 5478 4666 
L 6119 4666 
L 4947 0 
L 4153 0 
L 3169 4050 
L 2175 0 
L 1381 0 
L 213 4666 
z
" id="DejaVuSans-57" transform="scale(0.015625)"/>
       <path d="M 2194 1759 
Q 1497 1759 1228 1600 
Q 959 1441 959 1056 
Q 959 750 1161 570 
Q 1363 391 1709 391 
Q 2188 391 2477 730 
Q 2766 1069 2766 1631 
L 2766 1759 
L 2194 1759 
z
M 3341 1997 
L 3341 0 
L 2766 0 
L 2766 531 
Q 2569 213 2275 61 
Q 1981 -91 1556 -91 
Q 1019 -91 701 211 
Q 384 513 384 1019 
Q 384 1609 779 1909 
Q 1175 2209 1959 2209 
L 2766 2209 
L 2766 2266 
Q 2766 2663 2505 2880 
Q 2244 3097 1772 3097 
Q 1472 3097 1187 3025 
Q 903 2953 641 2809 
L 641 3341 
Q 956 3463 1253 3523 
Q 1550 3584 1831 3584 
Q 2591 3584 2966 3190 
Q 3341 2797 3341 1997 
z
" id="DejaVuSans-61" transform="scale(0.015625)"/>
       <path d="M 191 3500 
L 800 3500 
L 1894 563 
L 2988 3500 
L 3597 3500 
L 2284 0 
L 1503 0 
L 191 3500 
z
" id="DejaVuSans-76" transform="scale(0.015625)"/>
       <path d="M 3597 1894 
L 3597 1613 
L 953 1613 
Q 991 1019 1311 708 
Q 1631 397 2203 397 
Q 2534 397 2845 478 
Q 3156 559 3463 722 
L 3463 178 
Q 3153 47 2828 -22 
Q 2503 -91 2169 -91 
Q 1331 -91 842 396 
Q 353 884 353 1716 
Q 353 2575 817 3079 
Q 1281 3584 2069 3584 
Q 2775 3584 3186 3129 
Q 3597 2675 3597 1894 
z
M 3022 2063 
Q 3016 2534 2758 2815 
Q 2500 3097 2075 3097 
Q 1594 3097 1305 2825 
Q 1016 2553 972 2059 
L 3022 2063 
z
" id="DejaVuSans-65" transform="scale(0.015625)"/>
       <path d="M 603 4863 
L 1178 4863 
L 1178 0 
L 603 0 
L 603 4863 
z
" id="DejaVuSans-6c" transform="scale(0.015625)"/>
       <path d="M 3513 2113 
L 3513 0 
L 2938 0 
L 2938 2094 
Q 2938 2591 2744 2837 
Q 2550 3084 2163 3084 
Q 1697 3084 1428 2787 
Q 1159 2491 1159 1978 
L 1159 0 
L 581 0 
L 581 3500 
L 1159 3500 
L 1159 2956 
Q 1366 3272 1645 3428 
Q 1925 3584 2291 3584 
Q 2894 3584 3203 3211 
Q 3513 2838 3513 2113 
z
" id="DejaVuSans-6e" transform="scale(0.015625)"/>
       <path d="M 2906 1791 
Q 2906 2416 2648 2759 
Q 2391 3103 1925 3103 
Q 1463 3103 1205 2759 
Q 947 2416 947 1791 
Q 947 1169 1205 825 
Q 1463 481 1925 481 
Q 2391 481 2648 825 
Q 2906 1169 2906 1791 
z
M 3481 434 
Q 3481 -459 3084 -895 
Q 2688 -1331 1869 -1331 
Q 1566 -1331 1297 -1286 
Q 1028 -1241 775 -1147 
L 775 -588 
Q 1028 -725 1275 -790 
Q 1522 -856 1778 -856 
Q 2344 -856 2625 -561 
Q 2906 -266 2906 331 
L 2906 616 
Q 2728 306 2450 153 
Q 2172 0 1784 0 
Q 1141 0 747 490 
Q 353 981 353 1791 
Q 353 2603 747 3093 
Q 1141 3584 1784 3584 
Q 2172 3584 2450 3431 
Q 2728 3278 2906 2969 
L 2906 3500 
L 3481 3500 
L 3481 434 
z
" id="DejaVuSans-67" transform="scale(0.015625)"/>
       <path d="M 1172 4494 
L 1172 3500 
L 2356 3500 
L 2356 3053 
L 1172 3053 
L 1172 1153 
Q 1172 725 1289 603 
Q 1406 481 1766 481 
L 2356 481 
L 2356 0 
L 1766 0 
Q 1100 0 847 248 
Q 594 497 594 1153 
L 594 3053 
L 172 3053 
L 172 3500 
L 594 3500 
L 594 4494 
L 1172 4494 
z
" id="DejaVuSans-74" transform="scale(0.015625)"/>
       <path d="M 3513 2113 
L 3513 0 
L 2938 0 
L 2938 2094 
Q 2938 2591 2744 2837 
Q 2550 3084 2163 3084 
Q 1697 3084 1428 2787 
Q 1159 2491 1159 1978 
L 1159 0 
L 581 0 
L 581 4863 
L 1159 4863 
L 1159 2956 
Q 1366 3272 1645 3428 
Q 1925 3584 2291 3584 
Q 2894 3584 3203 3211 
Q 3513 2838 3513 2113 
z
" id="DejaVuSans-68" transform="scale(0.015625)"/>
       <path id="DejaVuSans-20" transform="scale(0.015625)"/>
       <path d="M 550 4863 
L 1875 4863 
L 1875 4416 
L 1125 4416 
L 1125 -397 
L 1875 -397 
L 1875 -844 
L 550 -844 
L 550 4863 
z
" id="DejaVuSans-5b" transform="scale(0.015625)"/>
       <path d="M 3328 2828 
Q 3544 3216 3844 3400 
Q 4144 3584 4550 3584 
Q 5097 3584 5394 3201 
Q 5691 2819 5691 2113 
L 5691 0 
L 5113 0 
L 5113 2094 
Q 5113 2597 4934 2840 
Q 4756 3084 4391 3084 
Q 3944 3084 3684 2787 
Q 3425 2491 3425 1978 
L 3425 0 
L 2847 0 
L 2847 2094 
Q 2847 2600 2669 2842 
Q 2491 3084 2119 3084 
Q 1678 3084 1418 2786 
Q 1159 2488 1159 1978 
L 1159 0 
L 581 0 
L 581 3500 
L 1159 3500 
L 1159 2956 
Q 1356 3278 1631 3431 
Q 1906 3584 2284 3584 
Q 2666 3584 2933 3390 
Q 3200 3197 3328 2828 
z
" id="DejaVuSans-6d" transform="scale(0.015625)"/>
       <path d="M 1947 4863 
L 1947 -844 
L 622 -844 
L 622 -397 
L 1369 -397 
L 1369 4416 
L 622 4416 
L 622 4863 
L 1947 4863 
z
" id="DejaVuSans-5d" transform="scale(0.015625)"/>
      </defs>
      <use xlink:href="#DejaVuSans-57"/>
      <use x="92.501953" xlink:href="#DejaVuSans-61"/>
      <use x="153.78125" xlink:href="#DejaVuSans-76"/>
      <use x="212.960938" xlink:href="#DejaVuSans-65"/>
      <use x="274.484375" xlink:href="#DejaVuSans-6c"/>
      <use x="302.267578" xlink:href="#DejaVuSans-65"/>
      <use x="363.791016" xlink:href="#DejaVuSans-6e"/>
      <use x="427.169922" xlink:href="#DejaVuSans-67"/>
      <use x="490.646484" xlink:href="#DejaVuSans-74"/>
      <use x="529.855469" xlink:href="#DejaVuSans-68"/>
      <use x="593.234375" xlink:href="#DejaVuSans-20"/>
      <use x="625.021484" xlink:href="#DejaVuSans-5b"/>
      <use x="664.035156" xlink:href="#DejaVuSans-6e"/>
      <use x="727.414062" xlink:href="#DejaVuSans-6d"/>
      <use x="824.826172" xlink:href="#DejaVuSans-5d"/>
     </g>
    </g>
   </g>
   <g id="matplotlib.axis_2">
    <g id="ytick_1">
     <g id="line2d_7">
      <defs>
       <path d="M 0 0 
L -3.5 0 
" id="m1364c6232d" style="stroke:#000000;stroke-width:0.8;"/>
      </defs>
      <g>
       <use style="stroke:#000000;stroke-width:0.8;" x="57.6" xlink:href="#m1364c6232d" y="294.667955"/>
      </g>
     </g>
     <g id="text_8">
      <!-- 0 -->
      <g transform="translate(44.2375 298.467174)scale(0.1 -0.1)">
       <use xlink:href="#DejaVuSans-30"/>
      </g>
     </g>
    </g>
    <g id="ytick_2">
     <g id="line2d_8">
      <g>
       <use style="stroke:#000000;stroke-width:0.8;" x="57.6" xlink:href="#m1364c6232d" y="252.134515"/>
      </g>
     </g>
     <g id="text_9">
      <!-- 5000 -->
      <g transform="translate(25.15 255.933734)scale(0.1 -0.1)">
       <defs>
        <path d="M 691 4666 
L 3169 4666 
L 3169 4134 
L 1269 4134 
L 1269 2991 
Q 1406 3038 1543 3061 
Q 1681 3084 1819 3084 
Q 2600 3084 3056 2656 
Q 3513 2228 3513 1497 
Q 3513 744 3044 326 
Q 2575 -91 1722 -91 
Q 1428 -91 1123 -41 
Q 819 9 494 109 
L 494 744 
Q 775 591 1075 516 
Q 1375 441 1709 441 
Q 2250 441 2565 725 
Q 2881 1009 2881 1497 
Q 2881 1984 2565 2268 
Q 2250 2553 1709 2553 
Q 1456 2553 1204 2497 
Q 953 2441 691 2322 
L 691 4666 
z
" id="DejaVuSans-35" transform="scale(0.015625)"/>
       </defs>
       <use xlink:href="#DejaVuSans-35"/>
       <use x="63.623047" xlink:href="#DejaVuSans-30"/>
       <use x="127.246094" xlink:href="#DejaVuSans-30"/>
       <use x="190.869141" xlink:href="#DejaVuSans-30"/>
      </g>
     </g>
    </g>
    <g id="ytick_3">
     <g id="line2d_9">
      <g>
       <use style="stroke:#000000;stroke-width:0.8;" x="57.6" xlink:href="#m1364c6232d" y="209.601075"/>
      </g>
     </g>
     <g id="text_10">
      <!-- 10000 -->
      <g transform="translate(18.7875 213.400294)scale(0.1 -0.1)">
       <use xlink:href="#DejaVuSans-31"/>
       <use x="63.623047" xlink:href="#DejaVuSans-30"/>
       <use x="127.246094" xlink:href="#DejaVuSans-30"/>
       <use x="190.869141" xlink:href="#DejaVuSans-30"/>
       <use x="254.492188" xlink:href="#DejaVuSans-30"/>
      </g>
     </g>
    </g>
    <g id="ytick_4">
     <g id="line2d_10">
      <g>
       <use style="stroke:#000000;stroke-width:0.8;" x="57.6" xlink:href="#m1364c6232d" y="167.067635"/>
      </g>
     </g>
     <g id="text_11">
      <!-- 15000 -->
      <g transform="translate(18.7875 170.866853)scale(0.1 -0.1)">
       <use xlink:href="#DejaVuSans-31"/>
       <use x="63.623047" xlink:href="#DejaVuSans-35"/>
       <use x="127.246094" xlink:href="#DejaVuSans-30"/>
       <use x="190.869141" xlink:href="#DejaVuSans-30"/>
       <use x="254.492188" xlink:href="#DejaVuSans-30"/>
      </g>
     </g>
    </g>
    <g id="ytick_5">
     <g id="line2d_11">
      <g>
       <use style="stroke:#000000;stroke-width:0.8;" x="57.6" xlink:href="#m1364c6232d" y="124.534194"/>
      </g>
     </g>
     <g id="text_12">
      <!-- 20000 -->
      <g transform="translate(18.7875 128.333413)scale(0.1 -0.1)">
       <use xlink:href="#DejaVuSans-32"/>
       <use x="63.623047" xlink:href="#DejaVuSans-30"/>
       <use x="127.246094" xlink:href="#DejaVuSans-30"/>
       <use x="190.869141" xlink:href="#DejaVuSans-30"/>
       <use x="254.492188" xlink:href="#DejaVuSans-30"/>
      </g>
     </g>
    </g>
    <g id="ytick_6">
     <g id="line2d_12">
      <g>
       <use style="stroke:#000000;stroke-width:0.8;" x="57.6" xlink:href="#m1364c6232d" y="82.000754"/>
      </g>
     </g>
     <g id="text_13">
      <!-- 25000 -->
      <g transform="translate(18.7875 85.799973)scale(0.1 -0.1)">
       <use xlink:href="#DejaVuSans-32"/>
       <use x="63.623047" xlink:href="#DejaVuSans-35"/>
       <use x="127.246094" xlink:href="#DejaVuSans-30"/>
       <use x="190.869141" xlink:href="#DejaVuSans-30"/>
       <use x="254.492188" xlink:href="#DejaVuSans-30"/>
      </g>
     </g>
    </g>
    <g id="text_14">
     <!-- Counts -->
     <g transform="translate(12.707812 191.981125)rotate(-90)scale(0.1 -0.1)">
      <defs>
       <path d="M 4122 4306 
L 4122 3641 
Q 3803 3938 3442 4084 
Q 3081 4231 2675 4231 
Q 1875 4231 1450 3742 
Q 1025 3253 1025 2328 
Q 1025 1406 1450 917 
Q 1875 428 2675 428 
Q 3081 428 3442 575 
Q 3803 722 4122 1019 
L 4122 359 
Q 3791 134 3420 21 
Q 3050 -91 2638 -91 
Q 1578 -91 968 557 
Q 359 1206 359 2328 
Q 359 3453 968 4101 
Q 1578 4750 2638 4750 
Q 3056 4750 3426 4639 
Q 3797 4528 4122 4306 
z
" id="DejaVuSans-43" transform="scale(0.015625)"/>
       <path d="M 1959 3097 
Q 1497 3097 1228 2736 
Q 959 2375 959 1747 
Q 959 1119 1226 758 
Q 1494 397 1959 397 
Q 2419 397 2687 759 
Q 2956 1122 2956 1747 
Q 2956 2369 2687 2733 
Q 2419 3097 1959 3097 
z
M 1959 3584 
Q 2709 3584 3137 3096 
Q 3566 2609 3566 1747 
Q 3566 888 3137 398 
Q 2709 -91 1959 -91 
Q 1206 -91 779 398 
Q 353 888 353 1747 
Q 353 2609 779 3096 
Q 1206 3584 1959 3584 
z
" id="DejaVuSans-6f" transform="scale(0.015625)"/>
       <path d="M 544 1381 
L 544 3500 
L 1119 3500 
L 1119 1403 
Q 1119 906 1312 657 
Q 1506 409 1894 409 
Q 2359 409 2629 706 
Q 2900 1003 2900 1516 
L 2900 3500 
L 3475 3500 
L 3475 0 
L 2900 0 
L 2900 538 
Q 2691 219 2414 64 
Q 2138 -91 1772 -91 
Q 1169 -91 856 284 
Q 544 659 544 1381 
z
M 1991 3584 
L 1991 3584 
z
" id="DejaVuSans-75" transform="scale(0.015625)"/>
       <path d="M 2834 3397 
L 2834 2853 
Q 2591 2978 2328 3040 
Q 2066 3103 1784 3103 
Q 1356 3103 1142 2972 
Q 928 2841 928 2578 
Q 928 2378 1081 2264 
Q 1234 2150 1697 2047 
L 1894 2003 
Q 2506 1872 2764 1633 
Q 3022 1394 3022 966 
Q 3022 478 2636 193 
Q 2250 -91 1575 -91 
Q 1294 -91 989 -36 
Q 684 19 347 128 
L 347 722 
Q 666 556 975 473 
Q 1284 391 1588 391 
Q 1994 391 2212 530 
Q 2431 669 2431 922 
Q 2431 1156 2273 1281 
Q 2116 1406 1581 1522 
L 1381 1569 
Q 847 1681 609 1914 
Q 372 2147 372 2553 
Q 372 3047 722 3315 
Q 1072 3584 1716 3584 
Q 2034 3584 2315 3537 
Q 2597 3491 2834 3397 
z
" id="DejaVuSans-73" transform="scale(0.015625)"/>
      </defs>
      <use xlink:href="#DejaVuSans-43"/>
      <use x="69.824219" xlink:href="#DejaVuSans-6f"/>
      <use x="131.005859" xlink:href="#DejaVuSans-75"/>
      <use x="194.384766" xlink:href="#DejaVuSans-6e"/>
      <use x="257.763672" xlink:href="#DejaVuSans-74"/>
      <use x="296.972656" xlink:href="#DejaVuSans-73"/>
     </g>
    </g>
   </g>
   <g id="line2d_13">
    <path clip-path="url(#p0741d1a8a9)" d="M 73.832727 295.140927 
L 74.310864 294.55907 
L 74.789 294.606707 
L 74.948379 294.76323 
L 75.107757 294.725801 
L 75.426515 294.545459 
L 75.904651 294.831284 
L 76.223409 294.565875 
L 76.382788 294.780244 
L 76.701545 294.545459 
L 77.020303 294.525043 
L 77.33906 294.416157 
L 77.657818 294.361715 
L 77.817196 294.405949 
L 78.135954 294.249426 
L 78.454711 294.637331 
L 78.773469 295.059263 
L 79.092227 295.086484 
L 79.251605 295.168149 
L 79.570363 294.95378 
L 79.88912 294.994612 
L 80.367257 294.742814 
L 80.526635 295.045652 
L 80.845393 294.977599 
L 81.004772 295.035444 
L 81.16415 294.960585 
L 81.323529 295.140927 
L 81.482908 294.872116 
L 81.642287 294.834686 
L 81.801666 294.681566 
L 81.961044 294.691774 
L 82.120423 294.422963 
L 82.598559 294.633929 
L 82.757938 294.691774 
L 82.917317 294.382131 
L 84.032968 294.456989 
L 84.351726 294.215399 
L 85.14862 294.548862 
L 85.467377 294.409352 
L 85.626756 294.283453 
L 85.945513 294.494419 
L 86.264271 294.644137 
L 86.583029 294.480808 
L 86.901786 294.28005 
L 87.220544 294.467197 
L 87.69868 294.194983 
L 87.858059 294.167762 
L 88.495574 294.667955 
L 88.654952 294.916351 
L 88.814331 294.790452 
L 89.451846 295.015028 
L 89.611225 295.021833 
L 89.770604 294.841492 
L 90.089361 294.899337 
L 90.24874 294.695177 
L 90.886255 294.718995 
L 91.045634 294.926559 
L 91.683149 294.824478 
L 91.842528 294.62372 
L 92.001907 294.810868 
L 92.480043 294.562472 
L 92.7988 294.450184 
L 92.958179 294.698579 
L 93.276937 294.718995 
L 93.436315 294.838089 
L 93.595694 294.644137 
L 94.392588 294.753022 
L 94.711346 294.732606 
L 95.189482 294.753022 
L 95.826997 294.770036 
L 96.145754 294.667955 
L 96.464512 294.650942 
L 96.942648 294.776841 
L 97.102027 294.946975 
L 97.580163 294.633929 
L 97.739542 294.722398 
L 98.0583 294.501224 
L 98.377057 294.654345 
L 98.855193 294.150749 
L 99.014572 294.018044 
L 99.173951 294.184775 
L 99.33333 294.103111 
L 99.492709 294.164359 
L 99.652087 294.354909 
L 99.970845 294.133735 
L 100.130224 294.103111 
L 100.448981 294.474003 
L 101.245875 294.52164 
L 101.564632 295.04225 
L 101.724011 295.168149 
L 102.042769 295.103498 
L 102.361526 295.086484 
L 102.520905 294.974196 
L 102.680284 295.00482 
L 103.15842 294.718995 
L 103.477178 294.674761 
L 103.636556 294.480808 
L 104.274071 294.787049 
L 104.43345 294.790452 
L 104.911587 294.453587 
L 105.389723 294.409352 
L 105.549102 294.55907 
L 105.867859 294.525043 
L 106.186617 294.606707 
L 107.142889 294.664553 
L 107.621026 294.416157 
L 108.736677 294.95378 
L 109.214813 294.916351 
L 109.374192 294.858505 
L 109.533571 294.998015 
L 109.852328 294.756425 
L 110.011707 294.787049 
L 110.171086 294.95378 
L 110.489843 294.834686 
L 110.96798 294.933364 
L 111.127358 294.773438 
L 111.446116 295.038847 
L 111.764873 294.834686 
L 111.924252 294.844894 
L 112.083631 294.987807 
L 113.039904 294.565875 
L 113.199282 294.654345 
L 113.358661 294.586291 
L 113.51804 294.664553 
L 113.677419 294.562472 
L 113.836797 294.66115 
L 113.996176 294.433171 
L 114.155555 294.565875 
L 114.633691 294.232413 
L 114.79307 294.327688 
L 115.111828 294.096306 
L 115.430585 294.099709 
L 115.589964 294.320882 
L 115.908721 294.371923 
L 117.024373 295.008223 
L 117.34313 294.729203 
L 117.661888 294.878921 
L 117.980645 294.640734 
L 118.299403 294.460392 
L 118.936918 294.868713 
L 119.415054 294.793854 
L 119.733812 294.967391 
L 119.893191 295.263423 
L 120.211948 295.103498 
L 120.530706 295.130719 
L 120.690084 295.151135 
L 120.849463 295.294048 
L 121.168221 295.294048 
L 121.327599 295.287242 
L 121.486978 294.998015 
L 121.805736 294.991209 
L 122.124493 294.664553 
L 122.283872 294.834686 
L 122.921387 294.405949 
L 123.240145 294.487613 
L 123.558902 294.402547 
L 123.718281 294.565875 
L 123.87766 294.31748 
L 124.196417 294.269842 
L 124.355796 294.477405 
L 124.515175 294.382131 
L 124.674553 294.143943 
L 126.108962 294.303869 
L 126.42772 294.742814 
L 126.746477 294.90274 
L 127.224614 294.797257 
L 127.383993 294.868713 
L 128.021508 294.463795 
L 128.340265 294.654345 
L 128.97778 294.776841 
L 129.296538 295.066068 
L 129.455916 294.86531 
L 129.615295 295.066068 
L 129.774674 294.834686 
L 130.093432 294.960585 
L 130.25281 294.841492 
L 130.412189 295.035444 
L 130.571568 294.695177 
L 130.890325 294.596499 
L 131.049704 294.797257 
L 131.209083 294.599902 
L 131.368462 294.681566 
L 131.846598 294.443379 
L 132.005977 294.307272 
L 132.165355 294.463795 
L 132.643492 294.375325 
L 133.281007 294.412755 
L 133.440386 294.657747 
L 134.237279 294.688371 
L 134.396658 294.834686 
L 134.556037 294.773438 
L 134.874794 294.885726 
L 135.034173 294.906143 
L 135.193552 294.787049 
L 135.51231 294.872116 
L 136.149825 294.770036 
L 136.309203 294.586291 
L 136.627961 294.616915 
L 136.78734 294.742814 
L 137.106097 294.664553 
L 137.902991 294.725801 
L 138.06237 294.613512 
L 138.221749 294.695177 
L 138.540506 294.66115 
L 138.859264 294.872116 
L 139.3374 294.497822 
L 139.656157 294.678163 
L 140.453051 294.072487 
L 141.090566 294.439976 
L 141.568703 294.463795 
L 141.728081 294.579486 
L 141.88746 294.538654 
L 142.206218 294.732606 
L 142.365596 294.654345 
L 142.684354 294.654345 
L 143.003112 294.770036 
L 143.16249 294.616915 
L 143.481248 294.86531 
L 144.596899 294.518238 
L 144.756278 294.770036 
L 144.915657 294.783646 
L 145.075035 294.548862 
L 145.393793 294.586291 
L 145.712551 294.708787 
L 145.871929 294.736009 
L 146.031308 294.882324 
L 146.509444 294.484211 
L 146.828202 294.66115 
L 146.987581 294.422963 
L 147.625096 294.439976 
L 147.784474 294.698579 
L 147.943853 294.664553 
L 148.103232 294.753022 
L 148.42199 294.497822 
L 148.581368 294.936767 
L 148.740747 294.841492 
L 148.900126 294.929961 
L 149.218883 294.824478 
L 149.856398 294.90274 
L 150.015777 295.04225 
L 150.175156 294.810868 
L 150.334535 294.950377 
L 150.653292 294.80066 
L 152.24708 294.086098 
L 152.406459 294.099709 
L 152.884595 294.354909 
L 153.043974 294.184775 
L 153.203353 294.41956 
L 153.362731 294.293661 
L 153.52211 294.582888 
L 153.681489 294.548862 
L 154.000246 294.841492 
L 154.319004 294.62372 
L 154.637761 295.079679 
L 154.79714 294.919753 
L 154.956519 294.919753 
L 155.115898 294.715593 
L 155.434655 294.678163 
L 155.594034 294.576083 
L 155.753413 294.848297 
L 155.912792 294.838089 
L 156.231549 294.184775 
L 157.187822 294.780244 
L 157.3472 294.484211 
L 157.506579 294.644137 
L 157.665958 294.497822 
L 157.825337 294.691774 
L 158.303473 294.633929 
L 158.622231 294.627123 
L 159.100367 294.290258 
L 159.419124 294.71219 
L 159.737882 294.698579 
L 160.216018 294.361715 
L 160.694155 294.545459 
L 161.33167 294.878921 
L 161.491048 294.916351 
L 161.969185 295.488 
L 162.128563 295.34849 
L 162.287942 295.450571 
L 162.925457 295.232799 
L 163.084836 295.423349 
L 163.244215 295.29745 
L 163.562972 294.929961 
L 163.722351 295.062666 
L 164.041109 294.933364 
L 164.359866 294.797257 
L 164.519245 294.933364 
L 164.678624 294.817673 
L 165.316139 295.103498 
L 165.475517 294.912948 
L 165.794275 295.05586 
L 166.113033 294.773438 
L 166.43179 294.446781 
L 166.750548 294.235816 
L 166.909926 294.259634 
L 167.228684 294.477405 
L 167.388063 294.494419 
L 167.547441 294.627123 
L 167.70682 294.351506 
L 168.025578 294.426365 
L 168.184956 294.399144 
L 168.503714 293.953393 
L 168.822472 293.296677 
L 169.300608 292.394968 
L 169.619365 292.149976 
L 169.778744 292.119352 
L 170.097502 292.255459 
L 170.735017 292.003661 
L 170.894396 292.075117 
L 171.372532 291.36736 
L 171.691289 290.564329 
L 171.850668 290.383987 
L 172.010047 290.411209 
L 172.328804 290.087954 
L 173.444456 288.447865 
L 174.24135 286.447092 
L 175.675758 280.482202 
L 176.153895 277.593331 
L 176.79141 273.357 
L 178.385197 257.772748 
L 178.863334 251.668349 
L 179.819606 235.52946 
L 180.935258 211.077836 
L 182.369667 171.525139 
L 183.325939 140.254554 
L 183.963454 112.250537 
L 185.079106 60.540082 
L 185.397863 54.326797 
L 185.557242 53.568 
L 185.716621 54.653453 
L 186.035378 63.381315 
L 186.513515 92.498007 
L 188.266681 225.168314 
L 188.904196 252.080072 
L 189.70109 271.597817 
L 190.338605 280.128324 
L 190.816741 284.463332 
L 191.773014 289.17944 
L 192.25115 290.656201 
L 192.729286 291.585132 
L 193.207423 292.221432 
L 193.52618 292.636558 
L 193.844938 292.830511 
L 194.004317 292.973423 
L 194.323074 293.558683 
L 194.641832 293.582502 
L 194.80121 293.494032 
L 194.960589 293.640347 
L 195.438725 293.517851 
L 195.598104 293.568891 
L 195.757483 293.419173 
L 196.07624 293.43959 
L 196.235619 293.446395 
L 197.032513 294.065682 
L 197.191892 293.946588 
L 197.510649 293.984018 
L 199.104437 294.171165 
L 199.423195 294.545459 
L 199.741952 294.576083 
L 199.901331 294.460392 
L 200.698225 294.62372 
L 201.654497 294.388936 
L 201.973255 294.310674 
L 202.292012 294.303869 
L 202.451391 294.181373 
L 202.770149 294.41956 
L 203.407664 294.429768 
L 203.567042 294.334493 
L 204.045179 294.589694 
L 204.363936 294.453587 
L 204.523315 294.50803 
L 204.842073 294.882324 
L 205.001451 294.678163 
L 205.320209 294.780244 
L 205.479588 294.62372 
L 205.957724 294.746217 
L 206.276481 294.494419 
L 206.43586 294.26644 
L 206.595239 294.484211 
L 207.232754 294.504627 
L 207.870269 294.205191 
L 208.189027 294.198386 
L 208.667163 294.0895 
L 209.145299 293.898951 
L 209.782814 294.164359 
L 209.942193 294.154151 
L 210.739087 294.644137 
L 211.854738 294.477405 
L 212.332875 294.395741 
L 212.651632 294.630526 
L 212.811011 294.545459 
L 212.97039 294.640734 
L 213.129768 294.487613 
L 213.289147 294.640734 
L 213.448526 294.531848 
L 213.767283 294.637331 
L 214.564177 294.133735 
L 214.882935 294.456989 
L 215.201692 294.290258 
L 215.839207 294.742814 
L 215.998586 294.987807 
L 216.476722 294.545459 
L 216.636101 294.86531 
L 217.114238 294.722398 
L 217.432995 295.045652 
L 217.592374 294.899337 
L 217.751753 295.049055 
L 217.911131 295.379114 
L 218.07051 295.375712 
L 218.229889 295.113706 
L 218.389268 295.358698 
L 218.867404 294.984404 
L 219.186161 294.640734 
L 219.504919 294.259634 
L 220.142434 294.354909 
L 220.301813 294.052071 
L 220.62057 294.0895 
L 221.258085 294.671358 
L 221.417464 294.667955 
L 221.576843 294.385533 
L 221.736222 294.460392 
L 222.054979 294.950377 
L 222.373737 294.654345 
L 223.011252 294.41956 
L 223.170631 294.61011 
L 223.330009 294.395741 
L 223.648767 294.382131 
L 223.808146 294.766633 
L 224.286282 294.531848 
L 224.605039 294.664553 
L 224.764418 294.562472 
L 224.923797 294.637331 
L 225.401933 294.446781 
L 225.88007 294.681566 
L 226.039448 294.50803 
L 226.198827 294.742814 
L 226.517585 294.885726 
L 226.676963 294.933364 
L 226.836342 294.776841 
L 227.1551 294.875518 
L 227.314479 294.821076 
L 227.633236 295.123914 
L 227.792615 294.858505 
L 228.43013 295.079679 
L 229.227024 294.545459 
L 229.545781 294.562472 
L 229.864539 294.446781 
L 230.502054 294.746217 
L 230.820811 294.957183 
L 231.139569 294.86531 
L 231.617705 294.899337 
L 231.777084 294.895935 
L 232.095841 294.695177 
L 232.25522 294.742814 
L 232.573978 294.691774 
L 232.733357 294.742814 
L 232.892735 294.671358 
L 233.052114 294.375325 
L 234.645902 294.399144 
L 234.80528 294.582888 
L 234.964659 294.538654 
L 235.602174 294.834686 
L 235.920932 294.899337 
L 236.558447 295.362101 
L 236.717826 295.372309 
L 237.833477 294.61011 
L 238.152235 294.654345 
L 238.470992 294.834686 
L 238.78975 294.66115 
L 238.949128 294.71219 
L 239.108507 294.909545 
L 239.427265 294.695177 
L 240.06478 293.93638 
L 240.383537 294.143943 
L 240.702295 293.895548 
L 241.021052 294.215399 
L 241.33981 294.562472 
L 241.817946 294.963988 
L 242.61484 295.215786 
L 242.774219 295.368906 
L 243.88987 294.790452 
L 244.368006 294.283453 
L 244.527385 294.26644 
L 244.846143 294.03846 
L 245.005521 294.058876 
L 245.643037 294.695177 
L 245.802415 294.678163 
L 245.961794 294.487613 
L 246.599309 294.742814 
L 246.918067 294.633929 
L 247.236824 294.633929 
L 247.396203 294.52164 
L 248.033718 294.637331 
L 248.830612 294.307272 
L 249.149369 294.695177 
L 249.308748 294.71219 
L 249.468127 294.538654 
L 249.627506 294.548862 
L 249.946263 294.382131 
L 250.105642 294.55907 
L 250.4244 294.477405 
L 250.743157 294.035058 
L 252.018187 294.365117 
L 252.336945 294.582888 
L 252.655702 294.4706 
L 253.293217 294.286856 
L 253.611975 294.320882 
L 253.930732 294.484211 
L 254.090111 294.31748 
L 254.408869 294.456989 
L 254.568247 294.667955 
L 254.887005 294.450184 
L 255.52452 293.854716 
L 255.683899 293.824092 
L 255.843278 294.031655 
L 256.321414 293.956796 
L 256.640171 294.41956 
L 256.958929 294.55907 
L 257.277686 295.110303 
L 257.755823 295.025236 
L 257.915201 295.120511 
L 258.07458 294.895935 
L 258.233959 295.05586 
L 258.393338 295.018431 
L 259.030853 294.348104 
L 259.190232 294.463795 
L 259.508989 294.181373 
L 259.668368 294.439976 
L 259.987125 294.487613 
L 260.305883 294.718995 
L 260.465262 294.637331 
L 260.624641 294.722398 
L 260.784019 294.657747 
L 261.102777 294.810868 
L 261.421534 294.603304 
L 261.580913 294.708787 
L 261.899671 294.613512 
L 262.059049 294.708787 
L 262.377807 294.644137 
L 262.696564 294.81427 
L 263.33408 294.392339 
L 263.652837 294.439976 
L 263.812216 294.66115 
L 263.971595 294.647539 
L 264.130973 294.436573 
L 264.449731 294.491016 
L 265.087246 294.916351 
L 265.406003 294.61011 
L 265.88414 294.552264 
L 266.043519 294.620318 
L 266.521655 294.208594 
L 266.681034 294.310674 
L 266.999791 294.831284 
L 267.15917 295.008223 
L 267.318549 294.970793 
L 267.796685 295.089887 
L 267.956064 295.14433 
L 268.274821 294.95378 
L 268.4342 294.695177 
L 269.549851 295.079679 
L 269.868609 294.950377 
L 270.027988 294.998015 
L 270.346745 294.535251 
L 270.506124 294.698579 
L 270.665503 294.562472 
L 271.621775 294.708787 
L 272.418669 295.001417 
L 272.896805 294.81427 
L 273.056184 294.885726 
L 274.012457 294.596499 
L 274.490593 294.841492 
L 274.649972 294.872116 
L 274.968729 294.766633 
L 275.606244 294.650942 
L 276.24376 294.344701 
L 276.562517 294.562472 
L 276.721896 294.633929 
L 277.200032 294.484211 
L 277.359411 294.501224 
L 277.837547 294.780244 
L 277.996926 294.671358 
L 278.156305 294.732606 
L 278.475062 294.511432 
L 278.634441 294.497822 
L 278.953199 294.657747 
L 279.271956 294.708787 
L 279.431335 294.746217 
L 279.909471 294.256232 
L 280.228229 294.334493 
L 280.546986 294.140541 
L 280.865744 294.232413 
L 281.184501 293.902353 
L 281.34388 294.205191 
L 281.662638 294.232413 
L 282.300153 294.882324 
L 282.459531 294.742814 
L 282.778289 295.202175 
L 282.937668 295.069471 
L 283.256425 295.198773 
L 284.053319 294.912948 
L 284.372077 295.066068 
L 284.690834 295.280437 
L 285.009592 295.123914 
L 285.16897 295.164746 
L 285.487728 294.970793 
L 285.647107 295.130719 
L 286.284622 294.722398 
L 286.603379 294.90274 
L 288.197167 294.657747 
L 288.356546 294.491016 
L 288.994061 294.732606 
L 289.472197 294.759828 
L 289.631576 294.701982 
L 289.950333 295.09329 
L 290.269091 294.967391 
L 290.42847 294.889129 
L 290.587848 295.100095 
L 290.747227 294.926559 
L 290.906606 295.032042 
L 291.065985 294.957183 
L 291.225364 295.123914 
L 291.384742 294.848297 
L 291.544121 294.810868 
L 291.7035 294.630526 
L 291.862879 294.76323 
L 292.659772 294.133735 
L 292.819151 293.807078 
L 293.616045 294.194983 
L 293.775424 294.092903 
L 294.094181 294.416157 
L 294.412939 294.671358 
L 294.572318 294.569278 
L 294.731696 294.307272 
L 295.050454 294.467197 
L 295.369211 294.501224 
L 295.687969 294.776841 
L 295.847348 294.477405 
L 296.006726 294.565875 
L 296.325484 294.936767 
L 296.644242 294.759828 
L 296.80362 294.892532 
L 297.122378 294.739411 
L 297.281757 294.467197 
L 297.600514 294.71219 
L 298.07865 294.348104 
L 298.238029 294.4706 
L 298.397408 294.246024 
L 298.875544 294.718995 
L 299.194302 294.555667 
L 299.353681 294.501224 
L 299.513059 294.776841 
L 299.672438 294.824478 
L 299.831817 294.695177 
L 299.991196 294.770036 
L 300.628711 294.664553 
L 301.266226 294.95378 
L 301.425604 294.967391 
L 301.584983 295.215786 
L 302.381877 295.311061 
L 302.541256 295.324672 
L 302.700635 295.178357 
L 303.019392 295.290645 
L 303.33815 295.062666 
L 303.497528 295.157941 
L 303.816286 295.072874 
L 303.975665 295.382517 
L 304.294422 295.232799 
L 304.453801 295.338282 
L 304.931937 295.083082 
L 305.250695 294.875518 
L 305.728831 294.528446 
L 305.88821 294.678163 
L 306.047589 294.55907 
L 306.366346 294.773438 
L 307.003861 294.426365 
L 307.800755 293.704998 
L 307.960134 293.742428 
L 308.278891 294.157554 
L 308.43827 294.133735 
L 308.916406 294.586291 
L 309.075785 294.613512 
L 309.235164 294.834686 
L 309.553922 294.695177 
L 310.032058 294.201789 
L 310.350815 294.276648 
L 310.510194 294.116722 
L 310.828952 294.385533 
L 311.307088 294.487613 
L 311.625845 294.759828 
L 311.785224 294.701982 
L 312.103982 294.916351 
L 312.422739 294.4706 
L 312.582118 294.55907 
L 313.060254 294.225607 
L 313.538391 293.997628 
L 314.016527 294.36852 
L 314.175906 294.627123 
L 314.654042 294.753022 
L 314.813421 294.858505 
L 315.291557 294.841492 
L 315.450936 294.872116 
L 315.769693 294.456989 
L 316.088451 294.545459 
L 316.407208 294.371923 
L 316.885345 294.460392 
L 317.044724 294.739411 
L 317.52286 294.535251 
L 317.841617 294.753022 
L 318.479132 294.344701 
L 318.638511 294.041863 
L 319.116647 294.467197 
L 319.276026 294.545459 
L 319.435405 294.269842 
L 319.594784 294.729203 
L 320.232299 294.681566 
L 320.391678 294.817673 
L 320.551056 294.596499 
L 320.710435 294.586291 
L 320.869814 294.460392 
L 321.029193 294.8517 
L 321.188571 294.399144 
L 321.507329 294.878921 
L 321.666708 294.855102 
L 321.826086 295.011625 
L 321.985465 294.919753 
L 322.304223 295.154538 
L 322.463602 295.049055 
L 322.62298 295.079679 
L 322.782359 295.243007 
L 323.101117 295.1069 
L 323.260495 295.171551 
L 323.419874 294.90274 
L 323.89801 294.81427 
L 324.376147 295.086484 
L 324.694904 294.895935 
L 324.854283 294.892532 
L 325.013662 295.113706 
L 325.651177 294.824478 
L 325.969934 294.429768 
L 326.448071 294.542056 
L 326.766828 294.742814 
L 327.085586 294.753022 
L 327.404343 295.09329 
L 327.723101 295.208981 
L 327.88248 295.008223 
L 328.360616 295.032042 
L 328.519995 295.008223 
L 328.838752 294.80066 
L 329.476267 295.045652 
L 329.954404 294.671358 
L 330.273161 294.691774 
L 330.751297 294.429768 
L 331.070055 294.416157 
L 331.866949 294.562472 
L 332.026327 294.718995 
L 332.185706 294.640734 
L 332.504464 294.780244 
L 332.663843 294.569278 
L 332.9826 294.718995 
L 333.301358 294.817673 
L 333.460736 294.80066 
L 333.779494 295.00482 
L 333.938873 294.827881 
L 334.098251 294.841492 
L 334.417009 294.998015 
L 334.735767 294.950377 
L 335.213903 294.926559 
L 335.373282 294.715593 
L 336.010797 294.667955 
L 336.170175 294.667955 
L 336.329554 294.463795 
L 336.648312 294.474003 
L 336.80769 294.453587 
L 336.967069 294.773438 
L 337.604584 294.637331 
L 337.763963 294.708787 
L 338.242099 294.494419 
L 338.720236 294.514835 
L 339.198372 294.429768 
L 339.357751 294.344701 
L 339.517129 294.71219 
L 339.676508 294.57268 
L 339.835887 294.776841 
L 339.995266 294.57268 
L 340.314023 294.535251 
L 340.632781 294.426365 
L 340.951538 294.514835 
L 341.110917 294.4706 
L 341.429675 294.664553 
L 341.589053 294.984404 
L 341.907811 295.011625 
L 342.226568 295.202175 
L 342.385947 295.025236 
L 342.704705 294.929961 
L 342.864084 294.872116 
L 343.182841 294.52164 
L 343.820356 294.446781 
L 343.979735 294.630526 
L 344.298492 294.654345 
L 344.776629 295.032042 
L 344.936007 294.916351 
L 345.414144 295.001417 
L 345.573523 294.834686 
L 345.89228 294.946975 
L 346.370416 294.484211 
L 346.689174 294.514835 
L 347.16731 294.286856 
L 347.326689 294.320882 
L 347.486068 294.225607 
L 347.645447 294.351506 
L 347.804825 294.263037 
L 348.44234 294.555667 
L 348.761098 294.746217 
L 349.239234 294.371923 
L 349.557992 294.637331 
L 349.71737 294.501224 
L 349.876749 294.569278 
L 350.195507 294.28005 
L 350.673643 294.062279 
L 350.833022 294.259634 
L 351.470537 294.065682 
L 351.629916 294.160957 
L 351.948673 294.123527 
L 352.426809 294.599902 
L 352.586188 294.644137 
L 352.745567 294.511432 
L 353.064325 294.596499 
L 353.223703 294.463795 
L 353.542461 294.773438 
L 354.020597 294.348104 
L 354.817491 294.518238 
L 355.136248 294.079292 
L 355.455006 294.334493 
L 355.933142 294.218802 
L 356.092521 294.235816 
L 356.2519 294.096306 
L 356.730036 294.542056 
L 356.889415 294.337896 
L 357.048794 294.433171 
L 357.208172 294.358312 
L 357.686309 294.667955 
L 358.005066 294.616915 
L 358.483203 294.501224 
L 358.642581 294.4706 
L 358.80196 294.586291 
L 359.598854 294.242621 
L 359.917611 294.014642 
L 360.07699 294.123527 
L 360.395748 293.984018 
L 360.714505 293.926172 
L 361.033263 294.36852 
L 361.35202 294.606707 
L 361.511399 294.817673 
L 361.670778 294.688371 
L 361.830157 294.753022 
L 362.148914 294.640734 
L 362.308293 294.681566 
L 362.467672 294.593096 
L 362.62705 294.647539 
L 362.945808 294.290258 
L 363.105187 294.174567 
L 363.264566 294.239218 
L 363.423944 294.099709 
L 363.583323 294.327688 
L 364.061459 294.259634 
L 364.220838 294.048668 
L 364.539596 294.491016 
L 364.858353 294.375325 
L 365.017732 294.50803 
L 365.655247 294.344701 
L 366.133383 294.069084 
L 366.292762 294.327688 
L 366.930277 294.28005 
L 367.249035 294.041863 
L 367.408413 294.03846 
L 367.567792 293.915964 
L 367.727171 294.099709 
L 367.88655 293.895548 
L 368.364686 293.871729 
L 368.524065 293.684582 
L 368.683444 293.677777 
L 369.002201 293.88534 
L 369.16158 293.898951 
L 369.320959 293.528059 
L 369.639716 293.517851 
L 369.958474 293.701596 
L 370.117852 293.480422 
L 370.43661 293.684582 
L 370.595989 293.664166 
L 370.755368 293.79687 
L 371.074125 294.160957 
L 371.233504 294.045266 
L 371.392883 294.12693 
L 371.552261 294.065682 
L 371.71164 294.194983 
L 372.667913 293.521254 
L 372.827291 293.59271 
L 373.146049 292.922383 
L 373.783564 292.966618 
L 373.942943 293.133349 
L 374.102322 292.861135 
L 374.421079 292.884953 
L 375.058594 292.929188 
L 375.377352 293.225221 
L 375.53673 292.987034 
L 376.174246 292.857732 
L 376.333624 293.014255 
L 376.652382 293.02106 
L 376.971139 292.463022 
L 378.086791 292.23164 
L 378.24617 292.075117 
L 378.564927 292.020674 
L 378.724306 291.877762 
L 379.043063 291.979842 
L 379.202442 291.884567 
L 379.361821 291.622561 
L 379.5212 291.782487 
L 379.839957 291.670198 
L 379.999336 291.721239 
L 380.318093 291.911788 
L 380.636851 291.152992 
L 380.955609 291.187019 
L 381.752502 290.703839 
L 382.07126 290.768489 
L 382.230639 290.986261 
L 382.390017 290.901194 
L 382.549396 291.135978 
L 383.027532 290.496275 
L 383.186911 290.550718 
L 383.505669 290.268296 
L 383.665048 290.421417 
L 383.824426 290.305726 
L 383.983805 290.360168 
L 384.302563 290.176424 
L 384.461941 290.138995 
L 384.62132 290.428222 
L 385.099456 289.659217 
L 385.258835 289.645607 
L 385.418214 289.512902 
L 385.577593 289.067152 
L 386.055729 289.206662 
L 386.215108 289.046736 
L 386.374487 289.118192 
L 386.533865 288.948058 
L 386.693244 288.968474 
L 386.852623 288.461476 
L 387.17138 288.437657 
L 387.649517 287.903437 
L 387.808895 287.797954 
L 387.968274 287.515532 
L 388.605789 288.029336 
L 388.924547 288.097389 
L 389.083926 288.012323 
L 389.402683 288.185859 
L 389.880819 289.073957 
L 391.315228 290.421417 
L 392.112122 291.69742 
L 392.271501 291.826721 
L 392.590258 292.531075 
L 392.909016 292.704612 
L 393.387152 292.62635 
L 394.502804 292.844121 
L 395.618455 293.242234 
L 395.777834 293.602918 
L 396.096591 293.606321 
L 396.25597 293.64375 
L 396.415349 294.106514 
L 396.893485 293.895548 
L 397.212243 294.429768 
L 397.371621 294.412755 
L 397.690379 294.211997 
L 397.849758 294.545459 
L 398.009136 294.055474 
L 398.327894 294.300466 
L 398.487273 294.099709 
L 398.487273 294.099709 
" style="fill:none;stroke:#1f77b4;stroke-linecap:square;stroke-width:1.5;"/>
   </g>
   <g id="line2d_14">
    <path clip-path="url(#p0741d1a8a9)" d="M 185.557242 53.568 
" style="fill:none;stroke:#ff7f0e;stroke-linecap:square;stroke-width:1.5;"/>
    <defs>
     <path d="M -1.5 -2.598076 
L -3 -0 
L -1.5 2.598076 
L 1.5 2.598076 
L 3 0 
L 1.5 -2.598076 
z
" id="m6dc255e8c4" style="stroke:#ff7f0e;stroke-linejoin:miter;"/>
    </defs>
    <g clip-path="url(#p0741d1a8a9)">
     <use style="fill:#ff7f0e;stroke:#ff7f0e;stroke-linejoin:miter;" x="185.557242" xlink:href="#m6dc255e8c4" y="53.568"/>
    </g>
   </g>
   <g id="patch_3">
    <path d="M 57.6 307.584 
L 57.6 41.472 
" style="fill:none;stroke:#000000;stroke-linecap:square;stroke-linejoin:miter;stroke-width:0.8;"/>
   </g>
   <g id="patch_4">
    <path d="M 414.72 307.584 
L 414.72 41.472 
" style="fill:none;stroke:#000000;stroke-linecap:square;stroke-linejoin:miter;stroke-width:0.8;"/>
   </g>
   <g id="patch_5">
    <path d="M 57.6 307.584 
L 414.72 307.584 
" style="fill:none;stroke:#000000;stroke-linecap:square;stroke-linejoin:miter;stroke-width:0.8;"/>
   </g>
   <g id="patch_6">
    <path d="M 57.6 41.472 
L 414.72 41.472 
" style="fill:none;stroke:#000000;stroke-linecap:square;stroke-linejoin:miter;stroke-width:0.8;"/>
   </g>
   <g id="text_15">
    <!-- Peaks -->
    <g transform="translate(218.790937 35.472)scale(0.12 -0.12)">
     <defs>
      <path d="M 1259 4147 
L 1259 2394 
L 2053 2394 
Q 2494 2394 2734 2622 
Q 2975 2850 2975 3272 
Q 2975 3691 2734 3919 
Q 2494 4147 2053 4147 
L 1259 4147 
z
M 628 4666 
L 2053 4666 
Q 2838 4666 3239 4311 
Q 3641 3956 3641 3272 
Q 3641 2581 3239 2228 
Q 2838 1875 2053 1875 
L 1259 1875 
L 1259 0 
L 628 0 
L 628 4666 
z
" id="DejaVuSans-50" transform="scale(0.015625)"/>
      <path d="M 581 4863 
L 1159 4863 
L 1159 1991 
L 2875 3500 
L 3609 3500 
L 1753 1863 
L 3688 0 
L 2938 0 
L 1159 1709 
L 1159 0 
L 581 0 
L 581 4863 
z
" id="DejaVuSans-6b" transform="scale(0.015625)"/>
     </defs>
     <use xlink:href="#DejaVuSans-50"/>
     <use x="56.677734" xlink:href="#DejaVuSans-65"/>
     <use x="118.201172" xlink:href="#DejaVuSans-61"/>
     <use x="179.480469" xlink:href="#DejaVuSans-6b"/>
     <use x="237.390625" xlink:href="#DejaVuSans-73"/>
    </g>
   </g>
  </g>
 </g>
 <defs>
  <clipPath id="p0741d1a8a9">
   <rect height="266.112" width="357.12" x="57.6" y="41.472"/>
  </clipPath>
 </defs>
</svg>
