<?xml version="1.0" encoding="utf-8" standalone="no"?>
<!DOCTYPE svg PUBLIC "-//W3C//DTD SVG 1.1//EN"
  "http://www.w3.org/Graphics/SVG/1.1/DTD/svg11.dtd">
<svg height="345.6pt" version="1.1" viewBox="0 0 460.8 345.6" width="460.8pt" xmlns="http://www.w3.org/2000/svg" xmlns:xlink="http://www.w3.org/1999/xlink">
 <metadata>
  <rdf:RDF xmlns:cc="http://creativecommons.org/ns#" xmlns:dc="http://purl.org/dc/elements/1.1/" xmlns:rdf="http://www.w3.org/1999/02/22-rdf-syntax-ns#">
   <cc:Work>
    <dc:type rdf:resource="http://purl.org/dc/dcmitype/StillImage"/>
    <dc:date>2022-06-03T23:54:23.805148</dc:date>
    <dc:format>image/svg+xml</dc:format>
    <dc:creator>
     <cc:Agent>
      <dc:title>Matplotlib v3.4.1, https://matplotlib.org/</dc:title>
     </cc:Agent>
    </dc:creator>
   </cc:Work>
  </rdf:RDF>
 </metadata>
 <defs>
  <style type="text/css">*{stroke-linecap:butt;stroke-linejoin:round;}</style>
 </defs>
 <g id="figure_1">
  <g id="patch_1">
   <path d="M 0 345.6 
L 460.8 345.6 
L 460.8 0 
L 0 0 
z
" style="fill:#ffffff;"/>
  </g>
  <g id="axes_1">
   <g id="patch_2">
    <path d="M 57.6 307.584 
L 414.72 307.584 
L 414.72 41.472 
L 57.6 41.472 
z
" style="fill:#ffffff;"/>
   </g>
   <g id="matplotlib.axis_1">
    <g id="xtick_1">
     <g id="line2d_1">
      <defs>
       <path d="M 0 0 
L 0 3.5 
" id="m99964567ce" style="stroke:#000000;stroke-width:0.8;"/>
      </defs>
      <g>
       <use style="stroke:#000000;stroke-width:0.8;" x="102.929605" xlink:href="#m99964567ce" y="307.584"/>
      </g>
     </g>
     <g id="text_1">
      <!-- 400 -->
      <g transform="translate(93.385855 322.182437)scale(0.1 -0.1)">
       <defs>
        <path d="M 2419 4116 
L 825 1625 
L 2419 1625 
L 2419 4116 
z
M 2253 4666 
L 3047 4666 
L 3047 1625 
L 3713 1625 
L 3713 1100 
L 3047 1100 
L 3047 0 
L 2419 0 
L 2419 1100 
L 313 1100 
L 313 1709 
L 2253 4666 
z
" id="DejaVuSans-34" transform="scale(0.015625)"/>
        <path d="M 2034 4250 
Q 1547 4250 1301 3770 
Q 1056 3291 1056 2328 
Q 1056 1369 1301 889 
Q 1547 409 2034 409 
Q 2525 409 2770 889 
Q 3016 1369 3016 2328 
Q 3016 3291 2770 3770 
Q 2525 4250 2034 4250 
z
M 2034 4750 
Q 2819 4750 3233 4129 
Q 3647 3509 3647 2328 
Q 3647 1150 3233 529 
Q 2819 -91 2034 -91 
Q 1250 -91 836 529 
Q 422 1150 422 2328 
Q 422 3509 836 4129 
Q 1250 4750 2034 4750 
z
" id="DejaVuSans-30" transform="scale(0.015625)"/>
       </defs>
       <use xlink:href="#DejaVuSans-34"/>
       <use x="63.623047" xlink:href="#DejaVuSans-30"/>
       <use x="127.246094" xlink:href="#DejaVuSans-30"/>
      </g>
     </g>
    </g>
    <g id="xtick_2">
     <g id="line2d_2">
      <g>
       <use style="stroke:#000000;stroke-width:0.8;" x="160.931952" xlink:href="#m99964567ce" y="307.584"/>
      </g>
     </g>
     <g id="text_2">
      <!-- 600 -->
      <g transform="translate(151.388202 322.182437)scale(0.1 -0.1)">
       <defs>
        <path d="M 2113 2584 
Q 1688 2584 1439 2293 
Q 1191 2003 1191 1497 
Q 1191 994 1439 701 
Q 1688 409 2113 409 
Q 2538 409 2786 701 
Q 3034 994 3034 1497 
Q 3034 2003 2786 2293 
Q 2538 2584 2113 2584 
z
M 3366 4563 
L 3366 3988 
Q 3128 4100 2886 4159 
Q 2644 4219 2406 4219 
Q 1781 4219 1451 3797 
Q 1122 3375 1075 2522 
Q 1259 2794 1537 2939 
Q 1816 3084 2150 3084 
Q 2853 3084 3261 2657 
Q 3669 2231 3669 1497 
Q 3669 778 3244 343 
Q 2819 -91 2113 -91 
Q 1303 -91 875 529 
Q 447 1150 447 2328 
Q 447 3434 972 4092 
Q 1497 4750 2381 4750 
Q 2619 4750 2861 4703 
Q 3103 4656 3366 4563 
z
" id="DejaVuSans-36" transform="scale(0.015625)"/>
       </defs>
       <use xlink:href="#DejaVuSans-36"/>
       <use x="63.623047" xlink:href="#DejaVuSans-30"/>
       <use x="127.246094" xlink:href="#DejaVuSans-30"/>
      </g>
     </g>
    </g>
    <g id="xtick_3">
     <g id="line2d_3">
      <g>
       <use style="stroke:#000000;stroke-width:0.8;" x="218.9343" xlink:href="#m99964567ce" y="307.584"/>
      </g>
     </g>
     <g id="text_3">
      <!-- 800 -->
      <g transform="translate(209.39055 322.182437)scale(0.1 -0.1)">
       <defs>
        <path d="M 2034 2216 
Q 1584 2216 1326 1975 
Q 1069 1734 1069 1313 
Q 1069 891 1326 650 
Q 1584 409 2034 409 
Q 2484 409 2743 651 
Q 3003 894 3003 1313 
Q 3003 1734 2745 1975 
Q 2488 2216 2034 2216 
z
M 1403 2484 
Q 997 2584 770 2862 
Q 544 3141 544 3541 
Q 544 4100 942 4425 
Q 1341 4750 2034 4750 
Q 2731 4750 3128 4425 
Q 3525 4100 3525 3541 
Q 3525 3141 3298 2862 
Q 3072 2584 2669 2484 
Q 3125 2378 3379 2068 
Q 3634 1759 3634 1313 
Q 3634 634 3220 271 
Q 2806 -91 2034 -91 
Q 1263 -91 848 271 
Q 434 634 434 1313 
Q 434 1759 690 2068 
Q 947 2378 1403 2484 
z
M 1172 3481 
Q 1172 3119 1398 2916 
Q 1625 2713 2034 2713 
Q 2441 2713 2670 2916 
Q 2900 3119 2900 3481 
Q 2900 3844 2670 4047 
Q 2441 4250 2034 4250 
Q 1625 4250 1398 4047 
Q 1172 3844 1172 3481 
z
" id="DejaVuSans-38" transform="scale(0.015625)"/>
       </defs>
       <use xlink:href="#DejaVuSans-38"/>
       <use x="63.623047" xlink:href="#DejaVuSans-30"/>
       <use x="127.246094" xlink:href="#DejaVuSans-30"/>
      </g>
     </g>
    </g>
    <g id="xtick_4">
     <g id="line2d_4">
      <g>
       <use style="stroke:#000000;stroke-width:0.8;" x="276.936647" xlink:href="#m99964567ce" y="307.584"/>
      </g>
     </g>
     <g id="text_4">
      <!-- 1000 -->
      <g transform="translate(264.211647 322.182437)scale(0.1 -0.1)">
       <defs>
        <path d="M 794 531 
L 1825 531 
L 1825 4091 
L 703 3866 
L 703 4441 
L 1819 4666 
L 2450 4666 
L 2450 531 
L 3481 531 
L 3481 0 
L 794 0 
L 794 531 
z
" id="DejaVuSans-31" transform="scale(0.015625)"/>
       </defs>
       <use xlink:href="#DejaVuSans-31"/>
       <use x="63.623047" xlink:href="#DejaVuSans-30"/>
       <use x="127.246094" xlink:href="#DejaVuSans-30"/>
       <use x="190.869141" xlink:href="#DejaVuSans-30"/>
      </g>
     </g>
    </g>
    <g id="xtick_5">
     <g id="line2d_5">
      <g>
       <use style="stroke:#000000;stroke-width:0.8;" x="334.938995" xlink:href="#m99964567ce" y="307.584"/>
      </g>
     </g>
     <g id="text_5">
      <!-- 1200 -->
      <g transform="translate(322.213995 322.182437)scale(0.1 -0.1)">
       <defs>
        <path d="M 1228 531 
L 3431 531 
L 3431 0 
L 469 0 
L 469 531 
Q 828 903 1448 1529 
Q 2069 2156 2228 2338 
Q 2531 2678 2651 2914 
Q 2772 3150 2772 3378 
Q 2772 3750 2511 3984 
Q 2250 4219 1831 4219 
Q 1534 4219 1204 4116 
Q 875 4013 500 3803 
L 500 4441 
Q 881 4594 1212 4672 
Q 1544 4750 1819 4750 
Q 2544 4750 2975 4387 
Q 3406 4025 3406 3419 
Q 3406 3131 3298 2873 
Q 3191 2616 2906 2266 
Q 2828 2175 2409 1742 
Q 1991 1309 1228 531 
z
" id="DejaVuSans-32" transform="scale(0.015625)"/>
       </defs>
       <use xlink:href="#DejaVuSans-31"/>
       <use x="63.623047" xlink:href="#DejaVuSans-32"/>
       <use x="127.246094" xlink:href="#DejaVuSans-30"/>
       <use x="190.869141" xlink:href="#DejaVuSans-30"/>
      </g>
     </g>
    </g>
    <g id="xtick_6">
     <g id="line2d_6">
      <g>
       <use style="stroke:#000000;stroke-width:0.8;" x="392.941342" xlink:href="#m99964567ce" y="307.584"/>
      </g>
     </g>
     <g id="text_6">
      <!-- 1400 -->
      <g transform="translate(380.216342 322.182437)scale(0.1 -0.1)">
       <use xlink:href="#DejaVuSans-31"/>
       <use x="63.623047" xlink:href="#DejaVuSans-34"/>
       <use x="127.246094" xlink:href="#DejaVuSans-30"/>
       <use x="190.869141" xlink:href="#DejaVuSans-30"/>
      </g>
     </g>
    </g>
    <g id="text_7">
     <!-- Wavelength [nm] -->
     <g transform="translate(192.967812 335.860562)scale(0.1 -0.1)">
      <defs>
       <path d="M 213 4666 
L 850 4666 
L 1831 722 
L 2809 4666 
L 3519 4666 
L 4500 722 
L 5478 4666 
L 6119 4666 
L 4947 0 
L 4153 0 
L 3169 4050 
L 2175 0 
L 1381 0 
L 213 4666 
z
" id="DejaVuSans-57" transform="scale(0.015625)"/>
       <path d="M 2194 1759 
Q 1497 1759 1228 1600 
Q 959 1441 959 1056 
Q 959 750 1161 570 
Q 1363 391 1709 391 
Q 2188 391 2477 730 
Q 2766 1069 2766 1631 
L 2766 1759 
L 2194 1759 
z
M 3341 1997 
L 3341 0 
L 2766 0 
L 2766 531 
Q 2569 213 2275 61 
Q 1981 -91 1556 -91 
Q 1019 -91 701 211 
Q 384 513 384 1019 
Q 384 1609 779 1909 
Q 1175 2209 1959 2209 
L 2766 2209 
L 2766 2266 
Q 2766 2663 2505 2880 
Q 2244 3097 1772 3097 
Q 1472 3097 1187 3025 
Q 903 2953 641 2809 
L 641 3341 
Q 956 3463 1253 3523 
Q 1550 3584 1831 3584 
Q 2591 3584 2966 3190 
Q 3341 2797 3341 1997 
z
" id="DejaVuSans-61" transform="scale(0.015625)"/>
       <path d="M 191 3500 
L 800 3500 
L 1894 563 
L 2988 3500 
L 3597 3500 
L 2284 0 
L 1503 0 
L 191 3500 
z
" id="DejaVuSans-76" transform="scale(0.015625)"/>
       <path d="M 3597 1894 
L 3597 1613 
L 953 1613 
Q 991 1019 1311 708 
Q 1631 397 2203 397 
Q 2534 397 2845 478 
Q 3156 559 3463 722 
L 3463 178 
Q 3153 47 2828 -22 
Q 2503 -91 2169 -91 
Q 1331 -91 842 396 
Q 353 884 353 1716 
Q 353 2575 817 3079 
Q 1281 3584 2069 3584 
Q 2775 3584 3186 3129 
Q 3597 2675 3597 1894 
z
M 3022 2063 
Q 3016 2534 2758 2815 
Q 2500 3097 2075 3097 
Q 1594 3097 1305 2825 
Q 1016 2553 972 2059 
L 3022 2063 
z
" id="DejaVuSans-65" transform="scale(0.015625)"/>
       <path d="M 603 4863 
L 1178 4863 
L 1178 0 
L 603 0 
L 603 4863 
z
" id="DejaVuSans-6c" transform="scale(0.015625)"/>
       <path d="M 3513 2113 
L 3513 0 
L 2938 0 
L 2938 2094 
Q 2938 2591 2744 2837 
Q 2550 3084 2163 3084 
Q 1697 3084 1428 2787 
Q 1159 2491 1159 1978 
L 1159 0 
L 581 0 
L 581 3500 
L 1159 3500 
L 1159 2956 
Q 1366 3272 1645 3428 
Q 1925 3584 2291 3584 
Q 2894 3584 3203 3211 
Q 3513 2838 3513 2113 
z
" id="DejaVuSans-6e" transform="scale(0.015625)"/>
       <path d="M 2906 1791 
Q 2906 2416 2648 2759 
Q 2391 3103 1925 3103 
Q 1463 3103 1205 2759 
Q 947 2416 947 1791 
Q 947 1169 1205 825 
Q 1463 481 1925 481 
Q 2391 481 2648 825 
Q 2906 1169 2906 1791 
z
M 3481 434 
Q 3481 -459 3084 -895 
Q 2688 -1331 1869 -1331 
Q 1566 -1331 1297 -1286 
Q 1028 -1241 775 -1147 
L 775 -588 
Q 1028 -725 1275 -790 
Q 1522 -856 1778 -856 
Q 2344 -856 2625 -561 
Q 2906 -266 2906 331 
L 2906 616 
Q 2728 306 2450 153 
Q 2172 0 1784 0 
Q 1141 0 747 490 
Q 353 981 353 1791 
Q 353 2603 747 3093 
Q 1141 3584 1784 3584 
Q 2172 3584 2450 3431 
Q 2728 3278 2906 2969 
L 2906 3500 
L 3481 3500 
L 3481 434 
z
" id="DejaVuSans-67" transform="scale(0.015625)"/>
       <path d="M 1172 4494 
L 1172 3500 
L 2356 3500 
L 2356 3053 
L 1172 3053 
L 1172 1153 
Q 1172 725 1289 603 
Q 1406 481 1766 481 
L 2356 481 
L 2356 0 
L 1766 0 
Q 1100 0 847 248 
Q 594 497 594 1153 
L 594 3053 
L 172 3053 
L 172 3500 
L 594 3500 
L 594 4494 
L 1172 4494 
z
" id="DejaVuSans-74" transform="scale(0.015625)"/>
       <path d="M 3513 2113 
L 3513 0 
L 2938 0 
L 2938 2094 
Q 2938 2591 2744 2837 
Q 2550 3084 2163 3084 
Q 1697 3084 1428 2787 
Q 1159 2491 1159 1978 
L 1159 0 
L 581 0 
L 581 4863 
L 1159 4863 
L 1159 2956 
Q 1366 3272 1645 3428 
Q 1925 3584 2291 3584 
Q 2894 3584 3203 3211 
Q 3513 2838 3513 2113 
z
" id="DejaVuSans-68" transform="scale(0.015625)"/>
       <path id="DejaVuSans-20" transform="scale(0.015625)"/>
       <path d="M 550 4863 
L 1875 4863 
L 1875 4416 
L 1125 4416 
L 1125 -397 
L 1875 -397 
L 1875 -844 
L 550 -844 
L 550 4863 
z
" id="DejaVuSans-5b" transform="scale(0.015625)"/>
       <path d="M 3328 2828 
Q 3544 3216 3844 3400 
Q 4144 3584 4550 3584 
Q 5097 3584 5394 3201 
Q 5691 2819 5691 2113 
L 5691 0 
L 5113 0 
L 5113 2094 
Q 5113 2597 4934 2840 
Q 4756 3084 4391 3084 
Q 3944 3084 3684 2787 
Q 3425 2491 3425 1978 
L 3425 0 
L 2847 0 
L 2847 2094 
Q 2847 2600 2669 2842 
Q 2491 3084 2119 3084 
Q 1678 3084 1418 2786 
Q 1159 2488 1159 1978 
L 1159 0 
L 581 0 
L 581 3500 
L 1159 3500 
L 1159 2956 
Q 1356 3278 1631 3431 
Q 1906 3584 2284 3584 
Q 2666 3584 2933 3390 
Q 3200 3197 3328 2828 
z
" id="DejaVuSans-6d" transform="scale(0.015625)"/>
       <path d="M 1947 4863 
L 1947 -844 
L 622 -844 
L 622 -397 
L 1369 -397 
L 1369 4416 
L 622 4416 
L 622 4863 
L 1947 4863 
z
" id="DejaVuSans-5d" transform="scale(0.015625)"/>
      </defs>
      <use xlink:href="#DejaVuSans-57"/>
      <use x="92.501953" xlink:href="#DejaVuSans-61"/>
      <use x="153.78125" xlink:href="#DejaVuSans-76"/>
      <use x="212.960938" xlink:href="#DejaVuSans-65"/>
      <use x="274.484375" xlink:href="#DejaVuSans-6c"/>
      <use x="302.267578" xlink:href="#DejaVuSans-65"/>
      <use x="363.791016" xlink:href="#DejaVuSans-6e"/>
      <use x="427.169922" xlink:href="#DejaVuSans-67"/>
      <use x="490.646484" xlink:href="#DejaVuSans-74"/>
      <use x="529.855469" xlink:href="#DejaVuSans-68"/>
      <use x="593.234375" xlink:href="#DejaVuSans-20"/>
      <use x="625.021484" xlink:href="#DejaVuSans-5b"/>
      <use x="664.035156" xlink:href="#DejaVuSans-6e"/>
      <use x="727.414062" xlink:href="#DejaVuSans-6d"/>
      <use x="824.826172" xlink:href="#DejaVuSans-5d"/>
     </g>
    </g>
   </g>
   <g id="matplotlib.axis_2">
    <g id="ytick_1">
     <g id="line2d_7">
      <defs>
       <path d="M 0 0 
L -3.5 0 
" id="m32e4869b19" style="stroke:#000000;stroke-width:0.8;"/>
      </defs>
      <g>
       <use style="stroke:#000000;stroke-width:0.8;" x="57.6" xlink:href="#m32e4869b19" y="295.211204"/>
      </g>
     </g>
     <g id="text_8">
      <!-- 1000 -->
      <g transform="translate(25.15 299.010422)scale(0.1 -0.1)">
       <use xlink:href="#DejaVuSans-31"/>
       <use x="63.623047" xlink:href="#DejaVuSans-30"/>
       <use x="127.246094" xlink:href="#DejaVuSans-30"/>
       <use x="190.869141" xlink:href="#DejaVuSans-30"/>
      </g>
     </g>
    </g>
    <g id="ytick_2">
     <g id="line2d_8">
      <g>
       <use style="stroke:#000000;stroke-width:0.8;" x="57.6" xlink:href="#m32e4869b19" y="260.611661"/>
      </g>
     </g>
     <g id="text_9">
      <!-- 2000 -->
      <g transform="translate(25.15 264.41088)scale(0.1 -0.1)">
       <use xlink:href="#DejaVuSans-32"/>
       <use x="63.623047" xlink:href="#DejaVuSans-30"/>
       <use x="127.246094" xlink:href="#DejaVuSans-30"/>
       <use x="190.869141" xlink:href="#DejaVuSans-30"/>
      </g>
     </g>
    </g>
    <g id="ytick_3">
     <g id="line2d_9">
      <g>
       <use style="stroke:#000000;stroke-width:0.8;" x="57.6" xlink:href="#m32e4869b19" y="226.012119"/>
      </g>
     </g>
     <g id="text_10">
      <!-- 3000 -->
      <g transform="translate(25.15 229.811338)scale(0.1 -0.1)">
       <defs>
        <path d="M 2597 2516 
Q 3050 2419 3304 2112 
Q 3559 1806 3559 1356 
Q 3559 666 3084 287 
Q 2609 -91 1734 -91 
Q 1441 -91 1130 -33 
Q 819 25 488 141 
L 488 750 
Q 750 597 1062 519 
Q 1375 441 1716 441 
Q 2309 441 2620 675 
Q 2931 909 2931 1356 
Q 2931 1769 2642 2001 
Q 2353 2234 1838 2234 
L 1294 2234 
L 1294 2753 
L 1863 2753 
Q 2328 2753 2575 2939 
Q 2822 3125 2822 3475 
Q 2822 3834 2567 4026 
Q 2313 4219 1838 4219 
Q 1578 4219 1281 4162 
Q 984 4106 628 3988 
L 628 4550 
Q 988 4650 1302 4700 
Q 1616 4750 1894 4750 
Q 2613 4750 3031 4423 
Q 3450 4097 3450 3541 
Q 3450 3153 3228 2886 
Q 3006 2619 2597 2516 
z
" id="DejaVuSans-33" transform="scale(0.015625)"/>
       </defs>
       <use xlink:href="#DejaVuSans-33"/>
       <use x="63.623047" xlink:href="#DejaVuSans-30"/>
       <use x="127.246094" xlink:href="#DejaVuSans-30"/>
       <use x="190.869141" xlink:href="#DejaVuSans-30"/>
      </g>
     </g>
    </g>
    <g id="ytick_4">
     <g id="line2d_10">
      <g>
       <use style="stroke:#000000;stroke-width:0.8;" x="57.6" xlink:href="#m32e4869b19" y="191.412577"/>
      </g>
     </g>
     <g id="text_11">
      <!-- 4000 -->
      <g transform="translate(25.15 195.211795)scale(0.1 -0.1)">
       <use xlink:href="#DejaVuSans-34"/>
       <use x="63.623047" xlink:href="#DejaVuSans-30"/>
       <use x="127.246094" xlink:href="#DejaVuSans-30"/>
       <use x="190.869141" xlink:href="#DejaVuSans-30"/>
      </g>
     </g>
    </g>
    <g id="ytick_5">
     <g id="line2d_11">
      <g>
       <use style="stroke:#000000;stroke-width:0.8;" x="57.6" xlink:href="#m32e4869b19" y="156.813034"/>
      </g>
     </g>
     <g id="text_12">
      <!-- 5000 -->
      <g transform="translate(25.15 160.612253)scale(0.1 -0.1)">
       <defs>
        <path d="M 691 4666 
L 3169 4666 
L 3169 4134 
L 1269 4134 
L 1269 2991 
Q 1406 3038 1543 3061 
Q 1681 3084 1819 3084 
Q 2600 3084 3056 2656 
Q 3513 2228 3513 1497 
Q 3513 744 3044 326 
Q 2575 -91 1722 -91 
Q 1428 -91 1123 -41 
Q 819 9 494 109 
L 494 744 
Q 775 591 1075 516 
Q 1375 441 1709 441 
Q 2250 441 2565 725 
Q 2881 1009 2881 1497 
Q 2881 1984 2565 2268 
Q 2250 2553 1709 2553 
Q 1456 2553 1204 2497 
Q 953 2441 691 2322 
L 691 4666 
z
" id="DejaVuSans-35" transform="scale(0.015625)"/>
       </defs>
       <use xlink:href="#DejaVuSans-35"/>
       <use x="63.623047" xlink:href="#DejaVuSans-30"/>
       <use x="127.246094" xlink:href="#DejaVuSans-30"/>
       <use x="190.869141" xlink:href="#DejaVuSans-30"/>
      </g>
     </g>
    </g>
    <g id="ytick_6">
     <g id="line2d_12">
      <g>
       <use style="stroke:#000000;stroke-width:0.8;" x="57.6" xlink:href="#m32e4869b19" y="122.213492"/>
      </g>
     </g>
     <g id="text_13">
      <!-- 6000 -->
      <g transform="translate(25.15 126.012711)scale(0.1 -0.1)">
       <use xlink:href="#DejaVuSans-36"/>
       <use x="63.623047" xlink:href="#DejaVuSans-30"/>
       <use x="127.246094" xlink:href="#DejaVuSans-30"/>
       <use x="190.869141" xlink:href="#DejaVuSans-30"/>
      </g>
     </g>
    </g>
    <g id="ytick_7">
     <g id="line2d_13">
      <g>
       <use style="stroke:#000000;stroke-width:0.8;" x="57.6" xlink:href="#m32e4869b19" y="87.61395"/>
      </g>
     </g>
     <g id="text_14">
      <!-- 7000 -->
      <g transform="translate(25.15 91.413168)scale(0.1 -0.1)">
       <defs>
        <path d="M 525 4666 
L 3525 4666 
L 3525 4397 
L 1831 0 
L 1172 0 
L 2766 4134 
L 525 4134 
L 525 4666 
z
" id="DejaVuSans-37" transform="scale(0.015625)"/>
       </defs>
       <use xlink:href="#DejaVuSans-37"/>
       <use x="63.623047" xlink:href="#DejaVuSans-30"/>
       <use x="127.246094" xlink:href="#DejaVuSans-30"/>
       <use x="190.869141" xlink:href="#DejaVuSans-30"/>
      </g>
     </g>
    </g>
    <g id="ytick_8">
     <g id="line2d_14">
      <g>
       <use style="stroke:#000000;stroke-width:0.8;" x="57.6" xlink:href="#m32e4869b19" y="53.014407"/>
      </g>
     </g>
     <g id="text_15">
      <!-- 8000 -->
      <g transform="translate(25.15 56.813626)scale(0.1 -0.1)">
       <use xlink:href="#DejaVuSans-38"/>
       <use x="63.623047" xlink:href="#DejaVuSans-30"/>
       <use x="127.246094" xlink:href="#DejaVuSans-30"/>
       <use x="190.869141" xlink:href="#DejaVuSans-30"/>
      </g>
     </g>
    </g>
    <g id="text_16">
     <!-- Counts -->
     <g transform="translate(19.070312 191.981125)rotate(-90)scale(0.1 -0.1)">
      <defs>
       <path d="M 4122 4306 
L 4122 3641 
Q 3803 3938 3442 4084 
Q 3081 4231 2675 4231 
Q 1875 4231 1450 3742 
Q 1025 3253 1025 2328 
Q 1025 1406 1450 917 
Q 1875 428 2675 428 
Q 3081 428 3442 575 
Q 3803 722 4122 1019 
L 4122 359 
Q 3791 134 3420 21 
Q 3050 -91 2638 -91 
Q 1578 -91 968 557 
Q 359 1206 359 2328 
Q 359 3453 968 4101 
Q 1578 4750 2638 4750 
Q 3056 4750 3426 4639 
Q 3797 4528 4122 4306 
z
" id="DejaVuSans-43" transform="scale(0.015625)"/>
       <path d="M 1959 3097 
Q 1497 3097 1228 2736 
Q 959 2375 959 1747 
Q 959 1119 1226 758 
Q 1494 397 1959 397 
Q 2419 397 2687 759 
Q 2956 1122 2956 1747 
Q 2956 2369 2687 2733 
Q 2419 3097 1959 3097 
z
M 1959 3584 
Q 2709 3584 3137 3096 
Q 3566 2609 3566 1747 
Q 3566 888 3137 398 
Q 2709 -91 1959 -91 
Q 1206 -91 779 398 
Q 353 888 353 1747 
Q 353 2609 779 3096 
Q 1206 3584 1959 3584 
z
" id="DejaVuSans-6f" transform="scale(0.015625)"/>
       <path d="M 544 1381 
L 544 3500 
L 1119 3500 
L 1119 1403 
Q 1119 906 1312 657 
Q 1506 409 1894 409 
Q 2359 409 2629 706 
Q 2900 1003 2900 1516 
L 2900 3500 
L 3475 3500 
L 3475 0 
L 2900 0 
L 2900 538 
Q 2691 219 2414 64 
Q 2138 -91 1772 -91 
Q 1169 -91 856 284 
Q 544 659 544 1381 
z
M 1991 3584 
L 1991 3584 
z
" id="DejaVuSans-75" transform="scale(0.015625)"/>
       <path d="M 2834 3397 
L 2834 2853 
Q 2591 2978 2328 3040 
Q 2066 3103 1784 3103 
Q 1356 3103 1142 2972 
Q 928 2841 928 2578 
Q 928 2378 1081 2264 
Q 1234 2150 1697 2047 
L 1894 2003 
Q 2506 1872 2764 1633 
Q 3022 1394 3022 966 
Q 3022 478 2636 193 
Q 2250 -91 1575 -91 
Q 1294 -91 989 -36 
Q 684 19 347 128 
L 347 722 
Q 666 556 975 473 
Q 1284 391 1588 391 
Q 1994 391 2212 530 
Q 2431 669 2431 922 
Q 2431 1156 2273 1281 
Q 2116 1406 1581 1522 
L 1381 1569 
Q 847 1681 609 1914 
Q 372 2147 372 2553 
Q 372 3047 722 3315 
Q 1072 3584 1716 3584 
Q 2034 3584 2315 3537 
Q 2597 3491 2834 3397 
z
" id="DejaVuSans-73" transform="scale(0.015625)"/>
      </defs>
      <use xlink:href="#DejaVuSans-43"/>
      <use x="69.824219" xlink:href="#DejaVuSans-6f"/>
      <use x="131.005859" xlink:href="#DejaVuSans-75"/>
      <use x="194.384766" xlink:href="#DejaVuSans-6e"/>
      <use x="257.763672" xlink:href="#DejaVuSans-74"/>
      <use x="296.972656" xlink:href="#DejaVuSans-73"/>
     </g>
    </g>
   </g>
   <g id="line2d_15">
    <path clip-path="url(#pa287173453)" d="M 73.832727 252.030975 
L 73.991327 261.580449 
L 74.149928 251.754178 
L 74.308528 223.105757 
L 74.467128 254.798938 
L 74.625728 238.191158 
L 74.784328 271.545117 
L 74.942928 262.134041 
L 75.101529 272.098709 
L 75.260129 260.473263 
L 75.418729 237.775963 
L 75.577329 252.030975 
L 75.735929 242.204705 
L 75.894529 224.212943 
L 76.05313 224.074545 
L 76.21173 232.378435 
L 76.37033 218.815414 
L 76.52893 250.923789 
L 76.68753 254.66054 
L 76.84613 271.960311 
L 77.163331 253.13816 
L 77.321931 253.830151 
L 77.480531 247.325437 
L 77.639131 200.546856 
L 77.797731 263.933217 
L 77.956332 199.301272 
L 78.114932 261.026856 
L 78.273532 230.717657 
L 78.432132 281.371387 
L 78.590732 275.973858 
L 78.749333 248.709419 
L 78.907933 276.527451 
L 79.066533 252.030975 
L 79.225133 252.999762 
L 79.383733 258.535689 
L 79.700934 275.281867 
L 79.859534 267.669968 
L 80.018134 248.986215 
L 80.176734 276.527451 
L 80.335334 252.722966 
L 80.811135 269.192348 
L 80.969735 227.672897 
L 81.286935 257.428503 
L 81.445535 259.089281 
L 81.604136 258.950883 
L 81.762736 258.258892 
L 81.921336 216.739442 
L 82.079936 264.071616 
L 82.238536 253.553355 
L 82.714337 270.853126 
L 82.872937 260.750059 
L 83.031537 274.31308 
L 83.190137 269.607542 
L 83.348737 241.927908 
L 83.507338 271.545117 
L 83.665938 246.771844 
L 83.824538 273.897886 
L 84.141738 231.271249 
L 84.300338 261.857245 
L 84.458939 250.0934 
L 84.617539 271.26832 
L 84.776139 273.897886 
L 85.251939 235.561593 
L 85.41054 278.741822 
L 85.56914 263.379625 
L 85.72774 270.714728 
L 85.88634 251.61578 
L 86.20354 282.61697 
L 86.362141 230.025666 
L 86.679341 266.977977 
L 86.996541 238.191158 
L 87.155141 254.66054 
L 87.313742 247.87903 
L 87.472342 247.325437 
L 87.630942 251.477382 
L 87.789542 277.773034 
L 87.948142 211.757108 
L 88.106742 258.120494 
L 88.265343 261.026856 
L 88.423943 272.929098 
L 88.582543 269.330746 
L 88.741143 261.718847 
L 89.058343 273.897886 
L 89.216944 265.870792 
L 89.375544 242.481501 
L 89.534144 282.201776 
L 89.692744 259.366078 
L 89.851344 278.188229 
L 90.009944 248.986215 
L 90.168545 258.950883 
L 90.327145 280.540998 
L 90.485745 236.945574 
L 90.644345 279.849007 
L 90.961545 260.888458 
L 91.120146 274.866673 
L 91.278746 266.147588 
L 91.437346 267.393172 
L 91.595946 284.831341 
L 91.754546 260.750059 
L 91.913147 266.977977 
L 92.071747 243.035094 
L 92.230347 273.897886 
L 92.388947 278.465025 
L 92.547547 230.302462 
L 92.864748 271.545117 
L 93.023348 269.884339 
L 93.181948 285.800128 
L 93.340548 258.397291 
L 93.657748 282.340174 
L 93.816349 256.459716 
L 93.974949 257.151707 
L 94.133549 255.352531 
L 94.450749 266.839579 
L 94.76795 270.853126 
L 94.92655 265.732394 
L 95.08515 211.480311 
L 95.24375 251.062188 
L 95.56095 261.026856 
L 95.719551 245.249465 
L 95.878151 278.603423 
L 96.036751 276.665849 
L 96.195351 260.058069 
L 96.353951 226.70411 
L 96.512551 257.843698 
L 96.671152 262.687634 
L 96.829752 243.450288 
L 96.988352 279.433812 
L 97.146952 270.299533 
L 97.305552 244.83427 
L 97.464152 248.017428 
L 97.622753 270.437931 
L 97.781353 246.771844 
L 98.098553 267.393172 
L 98.257153 250.508595 
L 98.415753 262.410838 
L 98.574354 261.165254 
L 98.732954 240.128732 
L 99.208754 268.777153 
L 99.367354 277.773034 
L 99.525955 266.285986 
L 99.684555 226.427314 
L 99.843155 275.143469 
L 100.001755 270.853126 
L 100.160355 271.960311 
L 100.318955 290.644064 
L 100.477556 269.192348 
L 100.636156 270.57633 
L 100.953356 226.70411 
L 101.111956 262.687634 
L 101.270556 242.066307 
L 101.429157 287.18411 
L 101.587757 273.759487 
L 101.746357 278.049831 
L 101.904957 229.195277 
L 102.222157 267.946764 
L 102.380758 268.223561 
L 102.539358 280.817794 
L 102.697958 269.05395 
L 102.856558 232.655231 
L 103.173758 275.973858 
L 103.490959 224.904934 
L 103.649559 265.455597 
L 103.808159 266.285986 
L 103.966759 263.241227 
L 104.12536 264.763606 
L 104.28396 239.57514 
L 104.44256 241.512714 
L 104.91836 272.513904 
L 105.076961 254.106947 
L 105.235561 267.254773 
L 105.394161 226.012119 
L 105.552761 254.106947 
L 105.711361 250.508595 
L 105.869961 252.861364 
L 106.028562 281.924979 
L 106.187162 263.794819 
L 106.345762 271.683515 
L 106.662962 276.112256 
L 106.821562 266.424384 
L 106.980163 247.463835 
L 107.138763 272.375506 
L 107.297363 248.709419 
L 107.455963 259.22768 
L 107.614563 277.496238 
L 107.931764 246.495048 
L 108.090364 266.00919 
L 108.248964 262.272439 
L 108.407564 247.87903 
L 108.566164 287.876101 
L 108.724764 247.187039 
L 108.883365 270.714728 
L 109.041965 249.40141 
L 109.200565 265.317199 
L 109.359165 234.177611 
L 109.517765 271.406719 
L 109.676365 275.005071 
L 109.834966 243.588686 
L 109.993566 254.245346 
L 110.152166 273.759487 
L 110.310766 258.258892 
L 110.469366 269.192348 
L 110.786567 262.410838 
L 110.945167 274.174682 
L 111.103767 250.370197 
L 111.262367 263.933217 
L 111.420967 262.826032 
L 111.579567 274.589876 
L 111.738168 232.240037 
L 111.896768 284.000952 
L 112.055368 228.641684 
L 112.213968 234.454407 
L 112.531168 277.634636 
L 112.689769 266.562783 
L 113.006969 280.956192 
L 113.165569 268.223561 
L 113.324169 281.786581 
L 113.79997 252.722966 
L 113.95857 269.607542 
L 114.11717 265.593995 
L 114.27577 274.451478 
L 114.43437 252.861364 
L 114.592971 283.724156 
L 114.751571 274.31308 
L 114.910171 277.634636 
L 115.227371 246.633446 
L 115.544572 286.076924 
L 115.703172 272.652302 
L 115.861772 246.910243 
L 116.178972 283.170563 
L 116.337573 200.546856 
L 116.496173 247.187039 
L 116.654773 245.664659 
L 116.813373 171.206444 
L 116.971973 271.129922 
L 117.130573 216.739442 
L 117.289174 275.143469 
L 117.447774 271.406719 
L 117.606374 284.416146 
L 117.764974 280.817794 
L 117.923574 266.562783 
L 118.082174 274.174682 
L 118.240775 290.644064 
L 118.399375 243.865483 
L 118.557975 243.727085 
L 119.033775 274.866673 
L 119.192376 281.232989 
L 119.350976 282.340174 
L 119.509576 266.562783 
L 119.668176 265.870792 
L 119.826776 266.977977 
L 119.985376 276.665849 
L 120.302577 234.454407 
L 120.461177 276.389053 
L 120.619777 279.295414 
L 120.778377 272.7907 
L 120.936977 182.693492 
L 121.095578 252.861364 
L 121.254178 268.361959 
L 121.412778 260.750059 
L 121.571378 267.393172 
L 121.729978 249.816604 
L 121.888578 279.157016 
L 122.205779 268.500357 
L 122.364379 271.26832 
L 122.522979 278.049831 
L 122.681579 255.352531 
L 122.840179 277.219442 
L 122.99878 277.634636 
L 123.15738 276.665849 
L 123.31598 268.223561 
L 123.47458 273.621089 
L 123.63318 286.215323 
L 123.79178 253.276558 
L 123.950381 244.142279 
L 124.108981 269.745941 
L 124.267581 260.750059 
L 124.426181 261.165254 
L 124.584781 272.513904 
L 124.743381 247.602233 
L 124.901982 280.4026 
L 125.219182 248.986215 
L 125.694982 280.125803 
L 125.853583 201.792439 
L 126.012183 265.317199 
L 126.170783 262.272439 
L 126.487983 268.777153 
L 126.646583 254.106947 
L 126.805184 266.424384 
L 126.963784 266.562783 
L 127.122384 265.178801 
L 127.280984 267.808366 
L 127.439584 287.045712 
L 127.598184 282.893767 
L 127.915385 266.562783 
L 128.073985 287.460906 
L 128.391185 234.454407 
L 128.708386 276.112256 
L 128.866986 259.91967 
L 129.025586 275.973858 
L 129.184186 268.638755 
L 129.342786 269.192348 
L 129.659987 278.049831 
L 129.818587 274.451478 
L 129.977187 260.750059 
L 130.135787 272.375506 
L 130.294387 273.344293 
L 130.452988 279.433812 
L 130.611588 267.393172 
L 130.770188 276.389053 
L 131.087388 257.566902 
L 131.404589 272.513904 
L 131.563189 290.782462 
L 131.880389 253.414957 
L 132.038989 262.549236 
L 132.35619 238.606352 
L 132.51479 282.201776 
L 132.67339 254.522142 
L 132.83199 269.607542 
L 132.99059 265.178801 
L 133.14919 272.652302 
L 133.307791 273.621089 
L 133.624991 265.178801 
L 133.783591 242.204705 
L 133.942191 272.513904 
L 134.100791 253.13816 
L 134.259392 284.000952 
L 134.735192 253.553355 
L 134.893792 240.820723 
L 135.052392 279.710609 
L 135.210993 268.915551 
L 135.369593 288.844888 
L 135.528193 251.892577 
L 135.686793 283.447359 
L 135.845393 286.353721 
L 136.003993 262.410838 
L 136.162594 264.210014 
L 136.321194 260.196467 
L 136.479794 267.946764 
L 136.638394 269.884339 
L 136.796994 276.112256 
L 136.955594 276.250654 
L 137.114195 268.638755 
L 137.272795 280.540998 
L 137.589995 248.571021 
L 137.748595 269.05395 
L 137.907195 259.642874 
L 138.224396 283.447359 
L 138.382996 257.428503 
L 138.541596 277.496238 
L 138.700196 269.05395 
L 138.858796 284.831341 
L 139.017397 288.291295 
L 139.175997 253.414957 
L 139.334597 262.272439 
L 139.493197 283.170563 
L 139.651797 265.178801 
L 139.810397 262.96443 
L 139.968998 281.924979 
L 140.127598 282.201776 
L 140.286198 260.473263 
L 140.444798 265.870792 
L 140.603398 276.389053 
L 140.761998 278.603423 
L 140.920599 277.35784 
L 141.079199 262.410838 
L 141.237799 266.147588 
L 141.396399 261.718847 
L 141.554999 273.897886 
L 141.7136 270.853126 
L 141.8722 246.079854 
L 142.0308 271.545117 
L 142.1894 276.112256 
L 142.5066 242.619899 
L 142.665201 266.562783 
L 142.823801 254.106947 
L 143.141001 277.634636 
L 143.299601 235.423195 
L 143.458201 269.607542 
L 143.775402 255.767725 
L 143.934002 277.219442 
L 144.092602 252.722966 
L 144.251202 274.866673 
L 144.409802 244.419076 
L 144.568403 243.727085 
L 144.885603 280.679396 
L 145.044203 260.750059 
L 145.202803 255.629327 
L 145.361403 256.736513 
L 145.520004 247.048641 
L 145.678604 264.48681 
L 145.995804 260.196467 
L 146.154404 263.241227 
L 146.313004 276.804247 
L 146.471605 267.393172 
L 146.630205 278.326627 
L 146.788805 242.758297 
L 146.947405 262.549236 
L 147.264605 236.391982 
L 147.423206 275.005071 
L 147.581806 248.571021 
L 147.899006 282.61697 
L 148.057606 256.874911 
L 148.216206 251.61578 
L 148.374807 281.648183 
L 148.533407 243.865483 
L 148.692007 265.593995 
L 149.009207 277.773034 
L 149.167807 261.995643 
L 149.485008 285.108137 
L 149.643608 224.351341 
L 149.960808 258.535689 
L 150.119408 235.008 
L 150.278009 267.53157 
L 150.436609 258.674087 
L 150.595209 275.420265 
L 150.753809 240.682325 
L 150.912409 264.210014 
L 151.071009 250.785391 
L 151.22961 291.612851 
L 151.38821 255.075735 
L 151.54681 278.049831 
L 151.70541 275.83546 
L 151.86401 280.264201 
L 152.02261 240.543927 
L 152.181211 265.040403 
L 152.498411 276.804247 
L 152.657011 266.977977 
L 152.815611 267.808366 
L 152.974211 253.830151 
L 153.132812 256.736513 
L 153.291412 280.956192 
L 153.450012 265.455597 
L 153.608612 269.884339 
L 153.767212 244.83427 
L 154.243013 282.478572 
L 154.401613 243.035094 
L 154.560213 271.406719 
L 154.718813 268.915551 
L 154.877414 285.938526 
L 155.036014 279.572211 
L 155.194614 259.642874 
L 155.353214 267.254773 
L 155.511814 281.371387 
L 155.670414 257.843698 
L 155.829015 280.956192 
L 156.146215 244.419076 
L 156.304815 271.960311 
L 156.463415 250.231799 
L 156.622015 245.111066 
L 156.780616 269.745941 
L 156.939216 260.196467 
L 157.097816 257.982096 
L 157.256416 240.128732 
L 157.415016 263.102828 
L 157.573616 266.562783 
L 157.732217 257.151707 
L 157.890817 283.447359 
L 158.049417 263.656421 
L 158.208017 272.513904 
L 158.366617 272.652302 
L 158.525217 281.371387 
L 158.683818 265.455597 
L 158.842418 262.96443 
L 159.001018 256.321318 
L 159.159618 257.290105 
L 159.318218 285.108137 
L 159.476818 221.998572 
L 159.635419 272.929098 
L 159.794019 270.714728 
L 159.952619 274.31308 
L 160.111219 249.955002 
L 160.269819 250.0934 
L 160.428419 273.205895 
L 160.58702 247.187039 
L 160.74562 282.61697 
L 160.90422 287.322508 
L 161.06282 275.558664 
L 161.22142 287.322508 
L 161.38002 270.161135 
L 161.538621 279.433812 
L 161.697221 259.91967 
L 161.855821 263.102828 
L 162.014421 278.188229 
L 162.173021 263.518023 
L 162.331621 269.745941 
L 162.490222 289.121684 
L 162.648822 291.889648 
L 162.807422 252.584568 
L 162.966022 271.683515 
L 163.124622 266.424384 
L 163.283222 245.249465 
L 163.600423 281.09459 
L 163.759023 253.13816 
L 163.917623 285.66173 
L 164.076223 265.593995 
L 164.234823 263.241227 
L 164.393424 250.508595 
L 164.552024 263.241227 
L 164.710624 257.428503 
L 165.027824 273.205895 
L 165.186424 218.40022 
L 165.503625 269.745941 
L 165.662225 266.147588 
L 165.820825 267.254773 
L 165.979425 281.371387 
L 166.138025 255.767725 
L 166.296626 264.902005 
L 166.455226 249.539808 
L 166.613826 276.389053 
L 166.772426 277.496238 
L 166.931026 247.325437 
L 167.089627 271.129922 
L 167.248227 270.161135 
L 167.406827 244.83427 
L 167.565427 265.870792 
L 167.724027 206.913172 
L 168.041228 280.540998 
L 168.199828 257.428503 
L 168.358428 274.036284 
L 168.517028 270.714728 
L 168.675628 281.924979 
L 169.151429 261.580449 
L 169.310029 268.223561 
L 169.468629 233.624018 
L 169.627229 264.902005 
L 169.785829 248.294224 
L 169.94443 274.589876 
L 170.10303 272.929098 
L 170.26163 262.687634 
L 170.42023 277.634636 
L 170.57883 259.781272 
L 170.73743 274.728275 
L 170.896031 270.299533 
L 171.054631 255.352531 
L 171.213231 269.330746 
L 171.371831 251.892577 
L 171.530431 261.580449 
L 171.689031 285.108137 
L 171.847632 271.960311 
L 172.006232 240.543927 
L 172.323432 268.777153 
L 172.482032 252.446169 
L 172.640632 256.321318 
L 172.799233 281.09459 
L 172.957833 262.134041 
L 173.116433 259.22768 
L 173.433633 270.57633 
L 173.592233 282.201776 
L 173.750834 260.888458 
L 173.909434 265.178801 
L 174.068034 254.522142 
L 174.226634 267.116375 
L 174.543834 253.13816 
L 174.861035 282.893767 
L 175.019635 280.817794 
L 175.336835 258.258892 
L 175.495435 266.839579 
L 175.812636 268.777153 
L 175.971236 263.241227 
L 176.129836 278.465025 
L 176.288436 268.777153 
L 176.447036 289.121684 
L 176.605637 278.88022 
L 176.764237 252.722966 
L 176.922837 256.459716 
L 177.081437 231.824842 
L 177.240037 251.61578 
L 177.557238 258.258892 
L 177.715838 252.722966 
L 177.874438 254.937336 
L 178.033038 266.00919 
L 178.191638 263.241227 
L 178.350238 269.469144 
L 178.508839 267.53157 
L 178.667439 253.553355 
L 178.826039 261.857245 
L 178.984639 255.767725 
L 179.143239 256.874911 
L 179.301839 280.264201 
L 179.46044 262.687634 
L 179.77764 282.893767 
L 179.93624 289.952073 
L 180.09484 265.732394 
L 180.253441 261.580449 
L 180.412041 250.785391 
L 180.570641 249.263011 
L 180.729241 248.847817 
L 180.887841 280.540998 
L 181.046441 257.290105 
L 181.205042 272.652302 
L 181.363642 241.235918 
L 181.522242 275.143469 
L 181.680842 260.334865 
L 181.839442 264.071616 
L 181.998042 259.366078 
L 182.156643 266.00919 
L 182.473843 252.030975 
L 182.632443 226.980906 
L 182.791043 279.849007 
L 182.949643 253.414957 
L 183.108244 275.420265 
L 183.266844 249.40141 
L 183.584044 280.679396 
L 183.742644 273.067497 
L 183.901244 286.630517 
L 184.059845 252.584568 
L 184.377045 267.53157 
L 184.535645 267.254773 
L 184.694245 263.102828 
L 184.852845 250.646993 
L 185.170046 285.523332 
L 185.328646 264.625208 
L 185.487246 259.91967 
L 185.645846 276.527451 
L 185.804446 236.668778 
L 186.121647 279.710609 
L 186.280247 268.085162 
L 186.438847 272.098709 
L 186.597447 256.044522 
L 186.756047 263.933217 
L 186.914648 261.303652 
L 187.073248 274.866673 
L 187.231848 232.932027 
L 187.549048 270.022737 
L 187.707648 285.523332 
L 187.866249 261.580449 
L 188.024849 280.264201 
L 188.183449 254.522142 
L 188.342049 283.724156 
L 188.500649 265.593995 
L 188.659249 273.067497 
L 188.81785 241.78951 
L 188.97645 265.870792 
L 189.13505 272.237108 
L 189.45225 249.955002 
L 189.61085 286.492119 
L 189.769451 251.477382 
L 189.928051 257.982096 
L 190.086651 273.621089 
L 190.245251 254.245346 
L 190.403851 256.321318 
L 190.562451 266.285986 
L 190.721052 253.968549 
L 190.879652 268.361959 
L 191.355452 248.709419 
L 191.514052 254.106947 
L 191.672653 253.553355 
L 191.831253 270.714728 
L 191.989853 261.303652 
L 192.148453 265.455597 
L 192.307053 274.451478 
L 192.465654 270.853126 
L 192.624254 259.91967 
L 192.782854 226.842508 
L 192.941454 269.607542 
L 193.100054 276.527451 
L 193.417255 259.91967 
L 193.575855 275.281867 
L 193.734455 273.067497 
L 193.893055 254.106947 
L 194.051655 270.437931 
L 194.210255 257.013309 
L 194.368856 277.081043 
L 194.527456 263.379625 
L 194.686056 259.91967 
L 194.844656 262.96443 
L 195.003256 253.691753 
L 195.161856 267.116375 
L 195.320457 258.120494 
L 195.479057 242.481501 
L 195.796257 268.085162 
L 195.954857 261.44205 
L 196.272058 284.831341 
L 196.430658 238.191158 
L 196.589258 251.892577 
L 196.747858 279.710609 
L 196.906458 257.982096 
L 197.065058 267.946764 
L 197.382259 251.61578 
L 197.540859 266.562783 
L 197.699459 260.473263 
L 197.858059 269.192348 
L 198.016659 257.566902 
L 198.17526 281.509785 
L 198.33386 194.18054 
L 198.49246 282.063378 
L 198.65106 247.187039 
L 198.80966 252.030975 
L 198.96826 274.866673 
L 199.126861 273.482691 
L 199.444061 252.030975 
L 199.602661 252.446169 
L 199.761261 248.986215 
L 199.919861 280.264201 
L 200.237062 261.995643 
L 200.395662 263.933217 
L 200.554262 250.785391 
L 200.712862 269.607542 
L 200.871462 243.173492 
L 201.188663 265.317199 
L 201.347263 222.828961 
L 201.664463 272.7907 
L 201.823063 273.621089 
L 202.140264 281.648183 
L 202.298864 254.383744 
L 202.457464 265.317199 
L 202.616064 266.701181 
L 202.774664 263.379625 
L 202.933265 264.210014 
L 203.091865 253.13816 
L 203.250465 216.601043 
L 203.409065 252.307771 
L 203.567665 245.803057 
L 203.726265 279.157016 
L 204.202066 262.272439 
L 204.360666 261.718847 
L 204.519266 279.157016 
L 204.677867 263.518023 
L 204.836467 269.884339 
L 204.995067 262.549236 
L 205.153667 275.973858 
L 205.470867 273.205895 
L 205.629468 278.741822 
L 205.788068 269.330746 
L 205.946668 231.548046 
L 206.263868 290.367268 
L 206.422468 255.214133 
L 206.581069 264.625208 
L 206.739669 280.817794 
L 206.898269 280.817794 
L 207.056869 255.767725 
L 207.215469 253.968549 
L 207.374069 254.66054 
L 207.53267 284.13935 
L 207.69127 236.391982 
L 207.84987 262.96443 
L 208.00847 244.695872 
L 208.32567 278.188229 
L 208.484271 255.906124 
L 208.642871 264.348412 
L 208.801471 264.902005 
L 208.960071 255.075735 
L 209.118671 268.085162 
L 209.277271 251.338984 
L 209.435872 274.174682 
L 209.594472 264.763606 
L 209.753072 275.420265 
L 209.911672 254.522142 
L 210.070272 257.7053 
L 210.228872 280.264201 
L 210.387473 276.112256 
L 210.546073 257.843698 
L 210.704673 256.598114 
L 210.863273 266.147588 
L 211.021873 254.798938 
L 211.180473 253.276558 
L 211.339074 256.18292 
L 211.656274 285.66173 
L 211.814874 252.999762 
L 211.973474 270.853126 
L 212.132074 269.884339 
L 212.290675 260.888458 
L 212.449275 266.701181 
L 212.607875 265.317199 
L 212.766475 257.982096 
L 212.925075 269.192348 
L 213.083675 255.906124 
L 213.242276 268.085162 
L 213.559476 247.187039 
L 213.718076 279.295414 
L 213.876676 272.929098 
L 214.035276 259.22768 
L 214.193877 255.767725 
L 214.352477 258.535689 
L 214.511077 253.13816 
L 214.669677 286.768915 
L 214.828277 261.026856 
L 214.986877 276.804247 
L 215.145478 275.697062 
L 215.621278 248.847817 
L 215.779878 267.946764 
L 215.938478 270.57633 
L 216.097079 259.504476 
L 216.255679 263.933217 
L 216.414279 271.683515 
L 216.572879 288.983286 
L 216.731479 252.722966 
L 216.890079 282.893767 
L 217.04868 255.214133 
L 217.52448 269.330746 
L 217.68308 261.303652 
L 217.841681 240.820723 
L 218.000281 270.299533 
L 218.158881 272.929098 
L 218.317481 251.200586 
L 218.476081 268.223561 
L 218.793282 275.420265 
L 218.951882 263.102828 
L 219.110482 262.549236 
L 219.269082 283.724156 
L 219.427682 248.847817 
L 219.586282 273.897886 
L 219.744883 255.352531 
L 219.903483 265.317199 
L 220.062083 289.121684 
L 220.379283 240.820723 
L 220.537883 243.31189 
L 220.855084 279.157016 
L 221.013684 260.473263 
L 221.172284 267.393172 
L 221.330884 248.294224 
L 221.489484 258.120494 
L 221.648085 259.22768 
L 221.965285 271.545117 
L 222.123885 262.134041 
L 222.282485 265.455597 
L 222.441085 195.287725 
L 222.599686 267.116375 
L 222.758286 277.081043 
L 222.916886 219.369007 
L 223.075486 259.91967 
L 223.234086 264.625208 
L 223.392686 241.78951 
L 223.551287 254.798938 
L 223.709887 254.798938 
L 223.868487 254.106947 
L 224.027087 271.960311 
L 224.185687 245.111066 
L 224.502888 261.44205 
L 224.661488 277.35784 
L 224.820088 264.348412 
L 224.978688 277.081043 
L 225.137288 246.910243 
L 225.295888 282.478572 
L 225.613089 256.321318 
L 226.247489 278.326627 
L 226.40609 287.599304 
L 226.56469 237.914362 
L 226.88189 275.281867 
L 227.04049 282.063378 
L 227.19909 277.634636 
L 227.357691 258.258892 
L 227.674891 267.254773 
L 227.833491 250.370197 
L 227.992091 262.826032 
L 228.150691 255.767725 
L 228.309292 230.856055 
L 228.626492 281.232989 
L 228.785092 259.22768 
L 229.102292 251.892577 
L 229.260893 283.862554 
L 229.419493 258.258892 
L 229.578093 254.383744 
L 229.736693 275.005071 
L 229.895293 274.728275 
L 230.053894 232.378435 
L 230.212494 269.607542 
L 230.371094 247.87903 
L 230.529694 255.352531 
L 230.846894 293.96562 
L 231.005495 268.638755 
L 231.164095 290.090471 
L 231.322695 269.745941 
L 231.481295 270.299533 
L 231.639895 267.808366 
L 231.798495 272.237108 
L 231.957096 261.026856 
L 232.115696 239.713538 
L 232.432896 287.045712 
L 232.591496 282.755368 
L 232.750096 232.655231 
L 232.908697 267.393172 
L 233.067297 252.307771 
L 233.543097 291.474453 
L 233.701697 250.923789 
L 233.860298 278.88022 
L 234.177498 271.821913 
L 234.336098 240.543927 
L 234.653298 281.371387 
L 234.811899 271.960311 
L 234.970499 275.143469 
L 235.129099 263.933217 
L 235.287699 275.83546 
L 235.446299 264.210014 
L 235.604899 282.893767 
L 235.7635 261.026856 
L 235.9221 277.496238 
L 236.0807 269.330746 
L 236.2393 229.333675 
L 236.5565 278.88022 
L 236.715101 272.513904 
L 236.873701 259.91967 
L 237.032301 279.433812 
L 237.190901 258.535689 
L 237.349501 270.714728 
L 237.666702 244.695872 
L 237.825302 258.535689 
L 237.983902 53.568 
L 238.142502 283.724156 
L 238.301102 275.83546 
L 238.459702 284.692943 
L 238.618303 256.459716 
L 238.776903 279.710609 
L 238.935503 256.18292 
L 239.094103 270.714728 
L 239.252703 265.870792 
L 239.411303 278.88022 
L 239.569904 270.991524 
L 239.728504 269.884339 
L 239.887104 273.897886 
L 240.045704 286.076924 
L 240.204304 243.865483 
L 240.362904 259.089281 
L 240.680105 237.775963 
L 240.838705 271.406719 
L 240.997305 261.580449 
L 241.155905 280.264201 
L 241.314505 267.808366 
L 241.473106 278.603423 
L 241.631706 255.214133 
L 241.790306 269.05395 
L 241.948906 265.870792 
L 242.107506 274.589876 
L 242.424707 230.302462 
L 242.583307 280.817794 
L 242.741907 230.856055 
L 242.900507 275.420265 
L 243.059107 247.740632 
L 243.217708 278.326627 
L 243.376308 278.603423 
L 243.534908 248.432622 
L 243.693508 278.326627 
L 243.852108 262.272439 
L 244.010708 259.504476 
L 244.169309 248.709419 
L 244.327909 268.361959 
L 244.486509 267.393172 
L 244.645109 262.826032 
L 244.803709 278.326627 
L 244.962309 277.35784 
L 245.12091 269.469144 
L 245.27951 267.946764 
L 245.59671 237.222371 
L 245.75531 267.53157 
L 245.91391 261.718847 
L 246.072511 272.098709 
L 246.231111 243.31189 
L 246.389711 277.496238 
L 246.865511 248.017428 
L 247.024112 272.7907 
L 247.182712 271.821913 
L 247.341312 266.977977 
L 247.499912 268.223561 
L 247.658512 261.718847 
L 247.817112 284.000952 
L 247.975713 254.383744 
L 248.134313 283.170563 
L 248.292913 249.678206 
L 248.451513 269.330746 
L 248.610113 264.071616 
L 248.768713 264.625208 
L 248.927314 258.397291 
L 249.085914 270.57633 
L 249.244514 269.330746 
L 249.403114 266.701181 
L 249.561714 238.191158 
L 249.720314 254.798938 
L 249.878915 285.108137 
L 250.037515 280.817794 
L 250.196115 226.842508 
L 250.354715 269.745941 
L 250.513315 271.683515 
L 250.671915 280.817794 
L 250.989116 251.062188 
L 251.147716 261.857245 
L 251.306316 256.598114 
L 251.464916 255.075735 
L 251.782117 266.00919 
L 251.940717 250.923789 
L 252.099317 279.295414 
L 252.257917 264.210014 
L 252.416517 232.793629 
L 252.575117 281.509785 
L 252.733718 251.892577 
L 253.050918 271.406719 
L 253.209518 245.526261 
L 253.526718 270.991524 
L 253.685319 250.231799 
L 254.002519 283.862554 
L 254.161119 255.629327 
L 254.319719 257.428503 
L 254.478319 277.634636 
L 254.63692 247.463835 
L 254.95412 270.57633 
L 255.11272 270.022737 
L 255.27132 270.022737 
L 255.429921 277.081043 
L 255.747121 237.499167 
L 255.905721 283.170563 
L 256.064321 262.687634 
L 256.222921 266.424384 
L 256.381522 265.317199 
L 256.540122 290.367268 
L 256.698722 277.081043 
L 256.857322 243.727085 
L 257.015922 241.097519 
L 257.333123 281.648183 
L 257.650323 269.469144 
L 257.808923 250.923789 
L 257.967523 283.170563 
L 258.126123 270.161135 
L 258.284724 239.713538 
L 258.443324 263.933217 
L 258.601924 269.884339 
L 258.760524 267.53157 
L 258.919124 267.393172 
L 259.077724 295.488 
L 259.236325 275.558664 
L 259.394925 277.081043 
L 259.553525 253.414957 
L 259.712125 252.169373 
L 259.870725 270.022737 
L 260.029325 275.281867 
L 260.346526 261.44205 
L 260.505126 263.933217 
L 260.663726 212.864293 
L 260.822326 284.831341 
L 260.980926 264.763606 
L 261.139527 262.549236 
L 261.615327 274.728275 
L 261.773927 235.838389 
L 261.932527 277.081043 
L 262.091128 279.295414 
L 262.249728 273.621089 
L 262.408328 263.794819 
L 262.566928 273.621089 
L 262.725528 273.897886 
L 262.884128 279.710609 
L 263.042729 205.667588 
L 263.201329 286.630517 
L 263.359929 252.999762 
L 263.518529 244.972668 
L 263.677129 257.290105 
L 263.835729 245.111066 
L 264.31153 281.648183 
L 264.47013 275.281867 
L 264.62873 291.751249 
L 264.945931 268.638755 
L 265.104531 271.545117 
L 265.263131 266.977977 
L 265.421731 238.191158 
L 265.738931 269.469144 
L 265.897532 266.839579 
L 266.056132 253.691753 
L 266.214732 270.991524 
L 266.373332 270.991524 
L 266.531932 248.709419 
L 266.690532 275.420265 
L 266.849133 215.078664 
L 267.007733 280.679396 
L 267.166333 242.896696 
L 267.324933 279.157016 
L 267.483533 271.129922 
L 267.642133 272.929098 
L 267.959334 245.803057 
L 268.117934 245.387863 
L 268.276534 226.565712 
L 268.593735 275.558664 
L 268.752335 261.026856 
L 268.910935 281.786581 
L 269.069535 266.147588 
L 269.228135 271.26832 
L 269.386735 237.083973 
L 269.545336 268.223561 
L 269.703936 259.366078 
L 269.862536 243.450288 
L 270.021136 254.106947 
L 270.179736 239.713538 
L 270.338336 273.067497 
L 270.496937 266.285986 
L 270.814137 272.929098 
L 270.972737 265.040403 
L 271.131337 262.826032 
L 271.448538 277.496238 
L 271.607138 257.566902 
L 271.765738 270.991524 
L 272.082938 249.816604 
L 272.241538 277.634636 
L 272.400139 265.178801 
L 272.558739 271.406719 
L 272.717339 271.545117 
L 272.875939 270.299533 
L 273.034539 262.549236 
L 273.35174 270.853126 
L 273.51034 250.370197 
L 273.66894 271.129922 
L 273.82754 248.571021 
L 273.98614 247.325437 
L 274.14474 277.773034 
L 274.303341 278.465025 
L 274.461941 249.816604 
L 274.620541 268.777153 
L 274.779141 269.192348 
L 274.937741 249.40141 
L 275.096341 259.781272 
L 275.254942 281.09459 
L 275.413542 244.83427 
L 275.572142 271.683515 
L 275.730742 249.263011 
L 275.889342 280.956192 
L 276.047942 265.317199 
L 276.206543 267.946764 
L 276.365143 264.348412 
L 276.523743 268.361959 
L 276.682343 281.371387 
L 276.999543 264.071616 
L 277.158144 268.638755 
L 277.316744 268.500357 
L 277.475344 256.459716 
L 277.633944 235.976787 
L 277.792544 263.518023 
L 277.951144 270.299533 
L 278.109745 284.277748 
L 278.268345 231.548046 
L 278.585545 280.264201 
L 278.744145 267.669968 
L 278.902745 278.465025 
L 279.061346 238.329556 
L 279.219946 272.7907 
L 279.378546 276.389053 
L 279.537146 241.097519 
L 279.695746 273.897886 
L 279.854346 272.513904 
L 280.171547 264.763606 
L 280.330147 245.664659 
L 280.647347 278.326627 
L 280.805948 276.112256 
L 280.964548 246.633446 
L 281.123148 266.839579 
L 281.281748 264.210014 
L 281.598948 247.602233 
L 281.757549 253.553355 
L 281.916149 266.839579 
L 282.074749 253.691753 
L 282.233349 262.410838 
L 282.391949 264.071616 
L 282.550549 279.018618 
L 282.70915 247.87903 
L 282.86775 269.05395 
L 283.02635 265.593995 
L 283.18495 278.188229 
L 283.34355 259.366078 
L 283.50215 257.566902 
L 283.660751 274.451478 
L 283.977951 254.798938 
L 284.136551 279.710609 
L 284.295151 239.436741 
L 284.453751 275.281867 
L 284.612352 277.911432 
L 284.929552 266.00919 
L 285.088152 275.973858 
L 285.246752 277.773034 
L 285.405352 282.340174 
L 285.563953 265.455597 
L 285.722553 278.049831 
L 285.881153 281.09459 
L 286.039753 287.322508 
L 286.198353 272.652302 
L 286.356953 268.915551 
L 286.515554 249.955002 
L 286.674154 274.728275 
L 286.991354 249.124613 
L 287.149954 260.750059 
L 287.308554 237.083973 
L 287.467155 257.982096 
L 287.784355 239.57514 
L 287.942955 250.370197 
L 288.101555 238.05276 
L 288.260155 249.40141 
L 288.418756 275.281867 
L 288.577356 264.48681 
L 288.735956 262.96443 
L 288.894556 223.936146 
L 289.053156 268.638755 
L 289.211756 267.116375 
L 289.370357 261.303652 
L 289.528957 262.687634 
L 289.687557 272.929098 
L 289.846157 263.656421 
L 290.004757 264.210014 
L 290.163357 275.558664 
L 290.321958 252.446169 
L 290.480558 249.678206 
L 290.797758 276.804247 
L 290.956358 257.151707 
L 291.114958 275.005071 
L 291.432159 267.53157 
L 291.590759 279.157016 
L 291.907959 241.374316 
L 292.066559 289.260082 
L 292.22516 271.129922 
L 292.38376 277.911432 
L 292.54236 224.766535 
L 292.70096 265.732394 
L 292.85956 269.884339 
L 293.018161 257.151707 
L 293.176761 265.732394 
L 293.335361 260.334865 
L 293.493961 279.157016 
L 293.652561 280.264201 
L 293.969762 246.771844 
L 294.286962 275.420265 
L 294.445562 247.602233 
L 294.604162 268.223561 
L 294.762762 257.843698 
L 294.921363 274.866673 
L 295.079963 225.873721 
L 295.238563 237.637565 
L 295.397163 271.129922 
L 295.555763 256.18292 
L 295.714363 278.88022 
L 295.872964 261.44205 
L 296.031564 265.870792 
L 296.190164 260.611661 
L 296.348764 264.625208 
L 296.507364 263.933217 
L 296.665964 258.950883 
L 296.824565 262.410838 
L 297.141765 247.602233 
L 297.300365 288.844888 
L 297.458965 253.830151 
L 297.776166 240.26713 
L 298.093366 272.098709 
L 298.251966 233.070426 
L 298.410566 259.366078 
L 298.569166 255.767725 
L 298.727767 264.348412 
L 298.886367 225.320128 
L 299.044967 272.7907 
L 299.203567 244.557474 
L 299.362167 243.035094 
L 299.679368 272.929098 
L 299.837968 267.946764 
L 299.996568 239.851936 
L 300.313768 284.13935 
L 300.472368 269.607542 
L 300.630969 279.849007 
L 300.789569 242.481501 
L 300.948169 241.651112 
L 301.106769 281.786581 
L 301.265369 244.83427 
L 301.423969 235.008 
L 301.58257 269.05395 
L 301.74117 266.424384 
L 301.89977 250.646993 
L 302.05837 267.254773 
L 302.21697 253.414957 
L 302.37557 282.755368 
L 302.534171 274.728275 
L 302.692771 252.030975 
L 302.851371 246.633446 
L 303.009971 248.432622 
L 303.327171 282.893767 
L 303.485772 274.31308 
L 303.644372 279.710609 
L 303.802972 230.025666 
L 304.120172 285.384934 
L 304.278772 257.013309 
L 304.595973 268.085162 
L 304.754573 253.13816 
L 305.071773 279.433812 
L 305.388974 261.718847 
L 305.547574 281.09459 
L 305.706174 266.562783 
L 305.864774 278.88022 
L 306.023374 264.348412 
L 306.181975 267.946764 
L 306.340575 256.044522 
L 306.499175 255.906124 
L 306.657775 267.53157 
L 306.816375 251.477382 
L 306.974975 272.237108 
L 307.133576 271.821913 
L 307.450776 250.508595 
L 307.767976 275.973858 
L 307.926576 255.629327 
L 308.085177 263.379625 
L 308.243777 252.169373 
L 308.402377 264.625208 
L 308.719577 246.910243 
L 308.878177 265.870792 
L 309.036778 266.562783 
L 309.195378 256.459716 
L 309.353978 233.208824 
L 309.512578 269.745941 
L 309.671178 252.307771 
L 309.829778 257.428503 
L 309.988379 254.66054 
L 310.146979 276.665849 
L 310.305579 265.870792 
L 310.464179 274.451478 
L 310.622779 268.500357 
L 310.781379 256.598114 
L 310.93998 191.689373 
L 311.09858 264.071616 
L 311.25718 263.379625 
L 311.41578 285.938526 
L 311.73298 229.887268 
L 311.891581 273.344293 
L 312.050181 285.108137 
L 312.367381 243.035094 
L 312.525981 266.147588 
L 312.684581 267.254773 
L 312.843182 228.22649 
L 313.160382 273.205895 
L 313.318982 278.88022 
L 313.477582 259.089281 
L 313.636182 281.09459 
L 313.953383 269.607542 
L 314.111983 263.518023 
L 314.270583 243.865483 
L 314.429183 250.785391 
L 314.587783 268.223561 
L 314.746384 266.424384 
L 314.904984 233.48562 
L 315.222184 249.539808 
L 315.380784 267.53157 
L 315.539384 242.896696 
L 315.697985 247.87903 
L 315.856585 256.874911 
L 316.015185 257.566902 
L 316.173785 237.222371 
L 316.490985 283.585757 
L 316.649586 268.500357 
L 316.808186 275.83546 
L 316.966786 235.284796 
L 317.283986 268.361959 
L 317.442586 275.973858 
L 317.601187 266.839579 
L 317.759787 270.57633 
L 317.918387 265.732394 
L 318.076987 270.853126 
L 318.235587 257.566902 
L 318.394188 270.57633 
L 318.552788 270.853126 
L 318.869988 245.111066 
L 319.028588 269.192348 
L 319.187188 243.450288 
L 319.504389 274.866673 
L 319.662989 240.543927 
L 319.980189 243.588686 
L 320.138789 275.558664 
L 320.45599 255.490929 
L 320.61459 255.214133 
L 320.93179 278.188229 
L 321.09039 278.188229 
L 321.248991 283.862554 
L 321.566191 245.803057 
L 321.724791 247.602233 
L 321.883391 268.223561 
L 322.041991 250.370197 
L 322.359192 279.572211 
L 322.676392 257.7053 
L 322.834992 280.540998 
L 322.993592 274.451478 
L 323.152193 252.584568 
L 323.310793 264.348412 
L 323.469393 262.96443 
L 323.627993 267.254773 
L 323.786593 260.888458 
L 323.945193 277.081043 
L 324.103794 238.329556 
L 324.262394 261.857245 
L 324.420994 225.873721 
L 324.579594 269.192348 
L 324.738194 266.00919 
L 324.896794 259.504476 
L 325.055395 272.513904 
L 325.213995 242.619899 
L 325.372595 275.83546 
L 325.531195 270.853126 
L 325.689795 259.089281 
L 325.848395 233.624018 
L 326.006996 273.759487 
L 326.165596 261.026856 
L 326.324196 275.005071 
L 326.482796 277.634636 
L 326.641396 269.745941 
L 326.799996 273.205895 
L 326.958597 249.40141 
L 327.117197 271.26832 
L 327.275797 264.625208 
L 327.434397 232.655231 
L 327.592997 250.923789 
L 327.751597 237.775963 
L 327.910198 265.178801 
L 328.068798 244.972668 
L 328.227398 265.455597 
L 328.544598 239.713538 
L 328.703198 262.272439 
L 329.020399 271.960311 
L 329.178999 271.26832 
L 329.337599 232.793629 
L 329.496199 276.527451 
L 329.654799 242.343103 
L 329.8134 276.112256 
L 329.972 271.406719 
L 330.1306 272.929098 
L 330.2892 269.884339 
L 330.4478 253.830151 
L 330.6064 279.018618 
L 330.765001 259.504476 
L 330.923601 257.7053 
L 331.082201 282.063378 
L 331.240801 252.030975 
L 331.399401 283.447359 
L 331.558002 250.923789 
L 331.716602 275.420265 
L 331.875202 273.205895 
L 332.033802 261.303652 
L 332.192402 259.22768 
L 332.351002 266.839579 
L 332.509603 239.57514 
L 332.826803 274.728275 
L 332.985403 256.736513 
L 333.302603 281.09459 
L 333.461204 256.874911 
L 333.619804 260.334865 
L 333.778404 256.321318 
L 334.095604 277.35784 
L 334.254204 275.281867 
L 334.412805 269.05395 
L 334.571405 253.553355 
L 334.730005 283.308961 
L 334.888605 240.543927 
L 335.047205 250.0934 
L 335.205805 240.26713 
L 335.364406 262.410838 
L 335.523006 256.459716 
L 335.681606 269.607542 
L 335.840206 260.196467 
L 335.998806 265.455597 
L 336.157406 274.728275 
L 336.474607 261.857245 
L 336.633207 261.026856 
L 336.791807 277.35784 
L 337.109007 255.214133 
L 337.584808 287.322508 
L 337.902008 239.57514 
L 338.060608 251.754178 
L 338.219209 233.208824 
L 338.536409 276.250654 
L 338.695009 254.937336 
L 338.853609 282.61697 
L 339.012209 270.437931 
L 339.17081 273.205895 
L 339.32941 260.196467 
L 339.48801 259.089281 
L 339.64661 264.902005 
L 339.80521 255.352531 
L 339.96381 236.53038 
L 340.122411 252.584568 
L 340.281011 248.017428 
L 340.439611 251.892577 
L 340.598211 279.295414 
L 340.756811 257.013309 
L 340.915411 256.874911 
L 341.074012 278.188229 
L 341.232612 253.691753 
L 341.391212 275.83546 
L 341.549812 257.290105 
L 341.708412 260.750059 
L 341.867012 251.477382 
L 342.025613 254.383744 
L 342.184213 255.075735 
L 342.342813 241.78951 
L 342.501413 265.732394 
L 342.818613 239.436741 
L 342.977214 257.428503 
L 343.135814 245.111066 
L 343.294414 251.477382 
L 343.453014 251.61578 
L 343.611614 230.994453 
L 343.928815 271.683515 
L 344.087415 241.374316 
L 344.246015 270.991524 
L 344.404615 261.857245 
L 344.563215 263.241227 
L 344.721816 221.998572 
L 344.880416 267.669968 
L 345.039016 271.683515 
L 345.356216 257.843698 
L 345.514816 238.329556 
L 345.673417 275.973858 
L 346.149217 248.709419 
L 346.307817 247.87903 
L 346.625018 270.299533 
L 346.783618 270.714728 
L 346.942218 270.437931 
L 347.100818 271.545117 
L 347.259418 252.861364 
L 347.418018 250.370197 
L 347.576619 280.125803 
L 347.893819 232.240037 
L 348.052419 257.290105 
L 348.211019 245.803057 
L 348.369619 246.079854 
L 348.52822 268.777153 
L 348.68682 265.732394 
L 349.00402 234.731204 
L 349.16262 240.405529 
L 349.32122 265.870792 
L 349.638421 272.098709 
L 349.797021 257.013309 
L 349.955621 255.075735 
L 350.114221 264.902005 
L 350.272821 242.204705 
L 350.590022 276.389053 
L 350.907222 244.695872 
L 351.065822 285.66173 
L 351.224422 272.7907 
L 351.383023 282.063378 
L 351.700223 249.816604 
L 351.858823 233.208824 
L 352.017423 250.785391 
L 352.176023 255.906124 
L 352.334624 269.330746 
L 352.493224 237.637565 
L 352.651824 249.263011 
L 352.810424 249.124613 
L 352.969024 254.937336 
L 353.127624 270.714728 
L 353.444825 224.212943 
L 353.603425 237.637565 
L 353.762025 268.638755 
L 353.920625 273.621089 
L 354.079225 272.098709 
L 354.396426 261.857245 
L 354.555026 246.495048 
L 354.713626 274.036284 
L 355.030826 221.306581 
L 355.348027 266.562783 
L 355.506627 274.451478 
L 355.665227 240.959121 
L 355.823827 258.674087 
L 355.982427 262.687634 
L 356.141028 269.884339 
L 356.299628 269.330746 
L 356.458228 253.276558 
L 356.616828 273.897886 
L 356.775428 263.933217 
L 356.934029 265.732394 
L 357.092629 245.111066 
L 357.251229 253.276558 
L 357.409829 278.049831 
L 357.568429 252.999762 
L 357.727029 246.218252 
L 358.20283 275.420265 
L 358.36143 266.285986 
L 358.52003 264.348412 
L 358.67863 258.812485 
L 358.837231 266.147588 
L 358.995831 255.075735 
L 359.154431 267.53157 
L 359.471631 252.169373 
L 359.630231 263.241227 
L 359.947432 266.562783 
L 360.106032 276.389053 
L 360.264632 252.861364 
L 360.423232 264.902005 
L 360.581832 259.642874 
L 360.740433 266.562783 
L 360.899033 221.583378 
L 361.057633 283.585757 
L 361.216233 219.369007 
L 361.374833 252.999762 
L 361.533433 244.142279 
L 361.692034 263.656421 
L 361.850634 255.214133 
L 362.009234 228.088092 
L 362.167834 254.383744 
L 362.326434 261.857245 
L 362.485034 252.722966 
L 362.802235 270.161135 
L 362.960835 263.933217 
L 363.119435 250.785391 
L 363.278035 225.735323 
L 363.595236 251.754178 
L 363.753836 235.838389 
L 363.912436 264.071616 
L 364.071036 268.223561 
L 364.388236 246.35665 
L 364.546837 269.05395 
L 364.705437 251.61578 
L 364.864037 262.687634 
L 365.022637 264.071616 
L 365.339837 237.083973 
L 365.498438 248.986215 
L 365.657038 248.294224 
L 365.815638 248.986215 
L 365.974238 250.370197 
L 366.132838 264.348412 
L 366.291438 217.569831 
L 366.450039 249.40141 
L 366.608639 243.173492 
L 366.767239 245.803057 
L 366.925839 270.714728 
L 367.40164 227.949693 
L 367.56024 256.044522 
L 367.71884 262.549236 
L 368.03604 239.436741 
L 368.511841 277.35784 
L 368.670441 264.763606 
L 368.829041 266.701181 
L 368.987641 241.097519 
L 369.146242 239.021547 
L 369.304842 267.669968 
L 369.463442 236.391982 
L 369.780642 267.254773 
L 369.939242 265.040403 
L 370.097843 230.302462 
L 370.256443 259.089281 
L 370.415043 262.826032 
L 370.573643 262.826032 
L 370.732243 245.526261 
L 370.890843 260.611661 
L 371.049444 264.625208 
L 371.208044 250.370197 
L 371.366644 253.968549 
L 371.525244 250.646993 
L 371.683844 241.097519 
L 371.842444 262.826032 
L 372.001045 239.159945 
L 372.318245 259.91967 
L 372.476845 256.044522 
L 372.635445 255.906124 
L 372.794045 257.982096 
L 372.952646 265.593995 
L 373.111246 234.592805 
L 373.269846 268.915551 
L 373.428446 268.223561 
L 373.587046 275.281867 
L 373.904247 235.008 
L 374.062847 243.588686 
L 374.221447 260.334865 
L 374.380047 226.427314 
L 374.697247 261.995643 
L 374.855848 248.847817 
L 375.173048 259.504476 
L 375.331648 245.803057 
L 375.490248 254.245346 
L 375.648848 275.005071 
L 375.807449 238.744751 
L 375.966049 265.178801 
L 376.124649 260.196467 
L 376.283249 241.651112 
L 376.441849 243.450288 
L 376.600449 255.490929 
L 376.75905 258.535689 
L 377.07625 235.423195 
L 377.23485 259.366078 
L 377.39345 251.754178 
L 377.55205 266.562783 
L 377.710651 241.097519 
L 377.869251 257.428503 
L 378.027851 258.120494 
L 378.186451 257.290105 
L 378.345051 255.214133 
L 378.503651 240.682325 
L 378.662252 262.134041 
L 378.820852 252.584568 
L 378.979452 259.642874 
L 379.138052 236.53038 
L 379.296652 259.504476 
L 379.455252 258.812485 
L 379.613853 213.556284 
L 379.931053 249.816604 
L 380.089653 252.584568 
L 380.248253 261.026856 
L 380.565454 244.557474 
L 380.724054 240.820723 
L 380.882654 254.66054 
L 381.041254 234.592805 
L 381.199854 247.325437 
L 381.517055 227.672897 
L 381.675655 249.678206 
L 381.834255 237.360769 
L 381.992855 256.874911 
L 382.310056 230.44086 
L 382.468656 245.941455 
L 382.627256 246.079854 
L 382.785856 226.012119 
L 382.944456 249.678206 
L 383.103056 208.435551 
L 383.261657 239.57514 
L 383.420257 233.347222 
L 383.578857 246.633446 
L 383.737457 249.124613 
L 383.896057 247.187039 
L 384.054657 223.244156 
L 384.371858 246.495048 
L 384.530458 246.35665 
L 384.689058 237.083973 
L 384.847658 187.952622 
L 385.006258 242.619899 
L 385.164859 212.864293 
L 385.323459 247.187039 
L 385.482059 252.030975 
L 385.640659 231.271249 
L 385.799259 228.641684 
L 385.957859 224.074545 
L 386.11646 240.543927 
L 386.27506 233.624018 
L 386.43366 238.191158 
L 386.75086 225.320128 
L 386.90946 242.204705 
L 387.068061 240.543927 
L 387.385261 231.824842 
L 387.543861 245.111066 
L 387.702461 243.450288 
L 387.861061 233.208824 
L 388.019662 255.352531 
L 388.178262 229.333675 
L 388.336862 239.57514 
L 388.654062 231.824842 
L 388.812662 242.066307 
L 389.129863 224.074545 
L 389.288463 229.195277 
L 389.447063 217.431432 
L 389.605663 242.896696 
L 389.764263 224.904934 
L 389.922864 228.22649 
L 390.081464 215.217062 
L 390.240064 242.204705 
L 390.398664 200.685254 
L 390.557264 225.596924 
L 390.715864 225.18173 
L 390.874465 210.511524 
L 391.033065 222.690563 
L 391.191665 205.390792 
L 391.350265 227.119304 
L 391.508865 167.884888 
L 391.826066 237.637565 
L 392.301866 206.913172 
L 392.460466 238.606352 
L 392.619066 203.453217 
L 392.777667 212.864293 
L 392.936267 211.203515 
L 393.094867 226.427314 
L 393.412067 201.238847 
L 393.729268 216.601043 
L 393.887868 192.242966 
L 394.046468 219.9226 
L 394.205068 213.002691 
L 394.363668 195.426124 
L 394.839469 206.082783 
L 394.998069 213.83308 
L 395.315269 168.576879 
L 395.47387 190.997382 
L 395.63247 179.510334 
L 395.79107 218.538618 
L 396.10827 176.603973 
L 396.26687 174.112805 
L 396.425471 204.975597 
L 396.584071 172.175231 
L 396.742671 168.023286 
L 396.901271 186.153446 
L 397.059871 159.304201 
L 397.218471 191.550975 
L 397.377072 182.278297 
L 397.535672 156.674636 
L 397.694272 159.857794 
L 397.852872 132.039762 
L 398.011472 134.807725 
L 398.170072 153.906673 
L 398.328673 129.271799 
L 398.487273 143.111616 
L 398.487273 143.111616 
" style="fill:none;stroke:#1f77b4;stroke-linecap:square;stroke-width:1.5;"/>
   </g>
   <g id="patch_3">
    <path d="M 57.6 307.584 
L 57.6 41.472 
" style="fill:none;stroke:#000000;stroke-linecap:square;stroke-linejoin:miter;stroke-width:0.8;"/>
   </g>
   <g id="patch_4">
    <path d="M 414.72 307.584 
L 414.72 41.472 
" style="fill:none;stroke:#000000;stroke-linecap:square;stroke-linejoin:miter;stroke-width:0.8;"/>
   </g>
   <g id="patch_5">
    <path d="M 57.6 307.584 
L 414.72 307.584 
" style="fill:none;stroke:#000000;stroke-linecap:square;stroke-linejoin:miter;stroke-width:0.8;"/>
   </g>
   <g id="patch_6">
    <path d="M 57.6 41.472 
L 414.72 41.472 
" style="fill:none;stroke:#000000;stroke-linecap:square;stroke-linejoin:miter;stroke-width:0.8;"/>
   </g>
   <g id="text_17">
    <!-- Background -->
    <g transform="translate(200.367188 35.472)scale(0.12 -0.12)">
     <defs>
      <path d="M 1259 2228 
L 1259 519 
L 2272 519 
Q 2781 519 3026 730 
Q 3272 941 3272 1375 
Q 3272 1813 3026 2020 
Q 2781 2228 2272 2228 
L 1259 2228 
z
M 1259 4147 
L 1259 2741 
L 2194 2741 
Q 2656 2741 2882 2914 
Q 3109 3088 3109 3444 
Q 3109 3797 2882 3972 
Q 2656 4147 2194 4147 
L 1259 4147 
z
M 628 4666 
L 2241 4666 
Q 2963 4666 3353 4366 
Q 3744 4066 3744 3513 
Q 3744 3084 3544 2831 
Q 3344 2578 2956 2516 
Q 3422 2416 3680 2098 
Q 3938 1781 3938 1306 
Q 3938 681 3513 340 
Q 3088 0 2303 0 
L 628 0 
L 628 4666 
z
" id="DejaVuSans-42" transform="scale(0.015625)"/>
      <path d="M 3122 3366 
L 3122 2828 
Q 2878 2963 2633 3030 
Q 2388 3097 2138 3097 
Q 1578 3097 1268 2742 
Q 959 2388 959 1747 
Q 959 1106 1268 751 
Q 1578 397 2138 397 
Q 2388 397 2633 464 
Q 2878 531 3122 666 
L 3122 134 
Q 2881 22 2623 -34 
Q 2366 -91 2075 -91 
Q 1284 -91 818 406 
Q 353 903 353 1747 
Q 353 2603 823 3093 
Q 1294 3584 2113 3584 
Q 2378 3584 2631 3529 
Q 2884 3475 3122 3366 
z
" id="DejaVuSans-63" transform="scale(0.015625)"/>
      <path d="M 581 4863 
L 1159 4863 
L 1159 1991 
L 2875 3500 
L 3609 3500 
L 1753 1863 
L 3688 0 
L 2938 0 
L 1159 1709 
L 1159 0 
L 581 0 
L 581 4863 
z
" id="DejaVuSans-6b" transform="scale(0.015625)"/>
      <path d="M 2631 2963 
Q 2534 3019 2420 3045 
Q 2306 3072 2169 3072 
Q 1681 3072 1420 2755 
Q 1159 2438 1159 1844 
L 1159 0 
L 581 0 
L 581 3500 
L 1159 3500 
L 1159 2956 
Q 1341 3275 1631 3429 
Q 1922 3584 2338 3584 
Q 2397 3584 2469 3576 
Q 2541 3569 2628 3553 
L 2631 2963 
z
" id="DejaVuSans-72" transform="scale(0.015625)"/>
      <path d="M 2906 2969 
L 2906 4863 
L 3481 4863 
L 3481 0 
L 2906 0 
L 2906 525 
Q 2725 213 2448 61 
Q 2172 -91 1784 -91 
Q 1150 -91 751 415 
Q 353 922 353 1747 
Q 353 2572 751 3078 
Q 1150 3584 1784 3584 
Q 2172 3584 2448 3432 
Q 2725 3281 2906 2969 
z
M 947 1747 
Q 947 1113 1208 752 
Q 1469 391 1925 391 
Q 2381 391 2643 752 
Q 2906 1113 2906 1747 
Q 2906 2381 2643 2742 
Q 2381 3103 1925 3103 
Q 1469 3103 1208 2742 
Q 947 2381 947 1747 
z
" id="DejaVuSans-64" transform="scale(0.015625)"/>
     </defs>
     <use xlink:href="#DejaVuSans-42"/>
     <use x="68.603516" xlink:href="#DejaVuSans-61"/>
     <use x="129.882812" xlink:href="#DejaVuSans-63"/>
     <use x="184.863281" xlink:href="#DejaVuSans-6b"/>
     <use x="242.773438" xlink:href="#DejaVuSans-67"/>
     <use x="306.25" xlink:href="#DejaVuSans-72"/>
     <use x="345.113281" xlink:href="#DejaVuSans-6f"/>
     <use x="406.294922" xlink:href="#DejaVuSans-75"/>
     <use x="469.673828" xlink:href="#DejaVuSans-6e"/>
     <use x="533.052734" xlink:href="#DejaVuSans-64"/>
    </g>
   </g>
  </g>
 </g>
 <defs>
  <clipPath id="pa287173453">
   <rect height="266.112" width="357.12" x="57.6" y="41.472"/>
  </clipPath>
 </defs>
</svg>
