<?xml version="1.0" encoding="utf-8" standalone="no"?>
<!DOCTYPE svg PUBLIC "-//W3C//DTD SVG 1.1//EN"
  "http://www.w3.org/Graphics/SVG/1.1/DTD/svg11.dtd">
<svg height="345.6pt" version="1.1" viewBox="0 0 460.8 345.6" width="460.8pt" xmlns="http://www.w3.org/2000/svg" xmlns:xlink="http://www.w3.org/1999/xlink">
 <metadata>
  <rdf:RDF xmlns:cc="http://creativecommons.org/ns#" xmlns:dc="http://purl.org/dc/elements/1.1/" xmlns:rdf="http://www.w3.org/1999/02/22-rdf-syntax-ns#">
   <cc:Work>
    <dc:type rdf:resource="http://purl.org/dc/dcmitype/StillImage"/>
    <dc:date>2022-06-03T23:54:24.902684</dc:date>
    <dc:format>image/svg+xml</dc:format>
    <dc:creator>
     <cc:Agent>
      <dc:title>Matplotlib v3.4.1, https://matplotlib.org/</dc:title>
     </cc:Agent>
    </dc:creator>
   </cc:Work>
  </rdf:RDF>
 </metadata>
 <defs>
  <style type="text/css">*{stroke-linecap:butt;stroke-linejoin:round;}</style>
 </defs>
 <g id="figure_1">
  <g id="patch_1">
   <path d="M 0 345.6 
L 460.8 345.6 
L 460.8 0 
L 0 0 
z
" style="fill:#ffffff;"/>
  </g>
  <g id="axes_1">
   <g id="patch_2">
    <path d="M 57.6 307.584 
L 414.72 307.584 
L 414.72 41.472 
L 57.6 41.472 
z
" style="fill:#ffffff;"/>
   </g>
   <g id="matplotlib.axis_1">
    <g id="xtick_1">
     <g id="line2d_1">
      <defs>
       <path d="M 0 0 
L 0 3.5 
" id="mdf223e9a25" style="stroke:#000000;stroke-width:0.8;"/>
      </defs>
      <g>
       <use style="stroke:#000000;stroke-width:0.8;" x="102.929605" xlink:href="#mdf223e9a25" y="307.584"/>
      </g>
     </g>
     <g id="text_1">
      <!-- 400 -->
      <g transform="translate(93.385855 322.182437)scale(0.1 -0.1)">
       <defs>
        <path d="M 2419 4116 
L 825 1625 
L 2419 1625 
L 2419 4116 
z
M 2253 4666 
L 3047 4666 
L 3047 1625 
L 3713 1625 
L 3713 1100 
L 3047 1100 
L 3047 0 
L 2419 0 
L 2419 1100 
L 313 1100 
L 313 1709 
L 2253 4666 
z
" id="DejaVuSans-34" transform="scale(0.015625)"/>
        <path d="M 2034 4250 
Q 1547 4250 1301 3770 
Q 1056 3291 1056 2328 
Q 1056 1369 1301 889 
Q 1547 409 2034 409 
Q 2525 409 2770 889 
Q 3016 1369 3016 2328 
Q 3016 3291 2770 3770 
Q 2525 4250 2034 4250 
z
M 2034 4750 
Q 2819 4750 3233 4129 
Q 3647 3509 3647 2328 
Q 3647 1150 3233 529 
Q 2819 -91 2034 -91 
Q 1250 -91 836 529 
Q 422 1150 422 2328 
Q 422 3509 836 4129 
Q 1250 4750 2034 4750 
z
" id="DejaVuSans-30" transform="scale(0.015625)"/>
       </defs>
       <use xlink:href="#DejaVuSans-34"/>
       <use x="63.623047" xlink:href="#DejaVuSans-30"/>
       <use x="127.246094" xlink:href="#DejaVuSans-30"/>
      </g>
     </g>
    </g>
    <g id="xtick_2">
     <g id="line2d_2">
      <g>
       <use style="stroke:#000000;stroke-width:0.8;" x="160.931952" xlink:href="#mdf223e9a25" y="307.584"/>
      </g>
     </g>
     <g id="text_2">
      <!-- 600 -->
      <g transform="translate(151.388202 322.182437)scale(0.1 -0.1)">
       <defs>
        <path d="M 2113 2584 
Q 1688 2584 1439 2293 
Q 1191 2003 1191 1497 
Q 1191 994 1439 701 
Q 1688 409 2113 409 
Q 2538 409 2786 701 
Q 3034 994 3034 1497 
Q 3034 2003 2786 2293 
Q 2538 2584 2113 2584 
z
M 3366 4563 
L 3366 3988 
Q 3128 4100 2886 4159 
Q 2644 4219 2406 4219 
Q 1781 4219 1451 3797 
Q 1122 3375 1075 2522 
Q 1259 2794 1537 2939 
Q 1816 3084 2150 3084 
Q 2853 3084 3261 2657 
Q 3669 2231 3669 1497 
Q 3669 778 3244 343 
Q 2819 -91 2113 -91 
Q 1303 -91 875 529 
Q 447 1150 447 2328 
Q 447 3434 972 4092 
Q 1497 4750 2381 4750 
Q 2619 4750 2861 4703 
Q 3103 4656 3366 4563 
z
" id="DejaVuSans-36" transform="scale(0.015625)"/>
       </defs>
       <use xlink:href="#DejaVuSans-36"/>
       <use x="63.623047" xlink:href="#DejaVuSans-30"/>
       <use x="127.246094" xlink:href="#DejaVuSans-30"/>
      </g>
     </g>
    </g>
    <g id="xtick_3">
     <g id="line2d_3">
      <g>
       <use style="stroke:#000000;stroke-width:0.8;" x="218.9343" xlink:href="#mdf223e9a25" y="307.584"/>
      </g>
     </g>
     <g id="text_3">
      <!-- 800 -->
      <g transform="translate(209.39055 322.182437)scale(0.1 -0.1)">
       <defs>
        <path d="M 2034 2216 
Q 1584 2216 1326 1975 
Q 1069 1734 1069 1313 
Q 1069 891 1326 650 
Q 1584 409 2034 409 
Q 2484 409 2743 651 
Q 3003 894 3003 1313 
Q 3003 1734 2745 1975 
Q 2488 2216 2034 2216 
z
M 1403 2484 
Q 997 2584 770 2862 
Q 544 3141 544 3541 
Q 544 4100 942 4425 
Q 1341 4750 2034 4750 
Q 2731 4750 3128 4425 
Q 3525 4100 3525 3541 
Q 3525 3141 3298 2862 
Q 3072 2584 2669 2484 
Q 3125 2378 3379 2068 
Q 3634 1759 3634 1313 
Q 3634 634 3220 271 
Q 2806 -91 2034 -91 
Q 1263 -91 848 271 
Q 434 634 434 1313 
Q 434 1759 690 2068 
Q 947 2378 1403 2484 
z
M 1172 3481 
Q 1172 3119 1398 2916 
Q 1625 2713 2034 2713 
Q 2441 2713 2670 2916 
Q 2900 3119 2900 3481 
Q 2900 3844 2670 4047 
Q 2441 4250 2034 4250 
Q 1625 4250 1398 4047 
Q 1172 3844 1172 3481 
z
" id="DejaVuSans-38" transform="scale(0.015625)"/>
       </defs>
       <use xlink:href="#DejaVuSans-38"/>
       <use x="63.623047" xlink:href="#DejaVuSans-30"/>
       <use x="127.246094" xlink:href="#DejaVuSans-30"/>
      </g>
     </g>
    </g>
    <g id="xtick_4">
     <g id="line2d_4">
      <g>
       <use style="stroke:#000000;stroke-width:0.8;" x="276.936647" xlink:href="#mdf223e9a25" y="307.584"/>
      </g>
     </g>
     <g id="text_4">
      <!-- 1000 -->
      <g transform="translate(264.211647 322.182437)scale(0.1 -0.1)">
       <defs>
        <path d="M 794 531 
L 1825 531 
L 1825 4091 
L 703 3866 
L 703 4441 
L 1819 4666 
L 2450 4666 
L 2450 531 
L 3481 531 
L 3481 0 
L 794 0 
L 794 531 
z
" id="DejaVuSans-31" transform="scale(0.015625)"/>
       </defs>
       <use xlink:href="#DejaVuSans-31"/>
       <use x="63.623047" xlink:href="#DejaVuSans-30"/>
       <use x="127.246094" xlink:href="#DejaVuSans-30"/>
       <use x="190.869141" xlink:href="#DejaVuSans-30"/>
      </g>
     </g>
    </g>
    <g id="xtick_5">
     <g id="line2d_5">
      <g>
       <use style="stroke:#000000;stroke-width:0.8;" x="334.938995" xlink:href="#mdf223e9a25" y="307.584"/>
      </g>
     </g>
     <g id="text_5">
      <!-- 1200 -->
      <g transform="translate(322.213995 322.182437)scale(0.1 -0.1)">
       <defs>
        <path d="M 1228 531 
L 3431 531 
L 3431 0 
L 469 0 
L 469 531 
Q 828 903 1448 1529 
Q 2069 2156 2228 2338 
Q 2531 2678 2651 2914 
Q 2772 3150 2772 3378 
Q 2772 3750 2511 3984 
Q 2250 4219 1831 4219 
Q 1534 4219 1204 4116 
Q 875 4013 500 3803 
L 500 4441 
Q 881 4594 1212 4672 
Q 1544 4750 1819 4750 
Q 2544 4750 2975 4387 
Q 3406 4025 3406 3419 
Q 3406 3131 3298 2873 
Q 3191 2616 2906 2266 
Q 2828 2175 2409 1742 
Q 1991 1309 1228 531 
z
" id="DejaVuSans-32" transform="scale(0.015625)"/>
       </defs>
       <use xlink:href="#DejaVuSans-31"/>
       <use x="63.623047" xlink:href="#DejaVuSans-32"/>
       <use x="127.246094" xlink:href="#DejaVuSans-30"/>
       <use x="190.869141" xlink:href="#DejaVuSans-30"/>
      </g>
     </g>
    </g>
    <g id="xtick_6">
     <g id="line2d_6">
      <g>
       <use style="stroke:#000000;stroke-width:0.8;" x="392.941342" xlink:href="#mdf223e9a25" y="307.584"/>
      </g>
     </g>
     <g id="text_6">
      <!-- 1400 -->
      <g transform="translate(380.216342 322.182437)scale(0.1 -0.1)">
       <use xlink:href="#DejaVuSans-31"/>
       <use x="63.623047" xlink:href="#DejaVuSans-34"/>
       <use x="127.246094" xlink:href="#DejaVuSans-30"/>
       <use x="190.869141" xlink:href="#DejaVuSans-30"/>
      </g>
     </g>
    </g>
    <g id="text_7">
     <!-- Wavelength [nm] -->
     <g transform="translate(192.967812 335.860562)scale(0.1 -0.1)">
      <defs>
       <path d="M 213 4666 
L 850 4666 
L 1831 722 
L 2809 4666 
L 3519 4666 
L 4500 722 
L 5478 4666 
L 6119 4666 
L 4947 0 
L 4153 0 
L 3169 4050 
L 2175 0 
L 1381 0 
L 213 4666 
z
" id="DejaVuSans-57" transform="scale(0.015625)"/>
       <path d="M 2194 1759 
Q 1497 1759 1228 1600 
Q 959 1441 959 1056 
Q 959 750 1161 570 
Q 1363 391 1709 391 
Q 2188 391 2477 730 
Q 2766 1069 2766 1631 
L 2766 1759 
L 2194 1759 
z
M 3341 1997 
L 3341 0 
L 2766 0 
L 2766 531 
Q 2569 213 2275 61 
Q 1981 -91 1556 -91 
Q 1019 -91 701 211 
Q 384 513 384 1019 
Q 384 1609 779 1909 
Q 1175 2209 1959 2209 
L 2766 2209 
L 2766 2266 
Q 2766 2663 2505 2880 
Q 2244 3097 1772 3097 
Q 1472 3097 1187 3025 
Q 903 2953 641 2809 
L 641 3341 
Q 956 3463 1253 3523 
Q 1550 3584 1831 3584 
Q 2591 3584 2966 3190 
Q 3341 2797 3341 1997 
z
" id="DejaVuSans-61" transform="scale(0.015625)"/>
       <path d="M 191 3500 
L 800 3500 
L 1894 563 
L 2988 3500 
L 3597 3500 
L 2284 0 
L 1503 0 
L 191 3500 
z
" id="DejaVuSans-76" transform="scale(0.015625)"/>
       <path d="M 3597 1894 
L 3597 1613 
L 953 1613 
Q 991 1019 1311 708 
Q 1631 397 2203 397 
Q 2534 397 2845 478 
Q 3156 559 3463 722 
L 3463 178 
Q 3153 47 2828 -22 
Q 2503 -91 2169 -91 
Q 1331 -91 842 396 
Q 353 884 353 1716 
Q 353 2575 817 3079 
Q 1281 3584 2069 3584 
Q 2775 3584 3186 3129 
Q 3597 2675 3597 1894 
z
M 3022 2063 
Q 3016 2534 2758 2815 
Q 2500 3097 2075 3097 
Q 1594 3097 1305 2825 
Q 1016 2553 972 2059 
L 3022 2063 
z
" id="DejaVuSans-65" transform="scale(0.015625)"/>
       <path d="M 603 4863 
L 1178 4863 
L 1178 0 
L 603 0 
L 603 4863 
z
" id="DejaVuSans-6c" transform="scale(0.015625)"/>
       <path d="M 3513 2113 
L 3513 0 
L 2938 0 
L 2938 2094 
Q 2938 2591 2744 2837 
Q 2550 3084 2163 3084 
Q 1697 3084 1428 2787 
Q 1159 2491 1159 1978 
L 1159 0 
L 581 0 
L 581 3500 
L 1159 3500 
L 1159 2956 
Q 1366 3272 1645 3428 
Q 1925 3584 2291 3584 
Q 2894 3584 3203 3211 
Q 3513 2838 3513 2113 
z
" id="DejaVuSans-6e" transform="scale(0.015625)"/>
       <path d="M 2906 1791 
Q 2906 2416 2648 2759 
Q 2391 3103 1925 3103 
Q 1463 3103 1205 2759 
Q 947 2416 947 1791 
Q 947 1169 1205 825 
Q 1463 481 1925 481 
Q 2391 481 2648 825 
Q 2906 1169 2906 1791 
z
M 3481 434 
Q 3481 -459 3084 -895 
Q 2688 -1331 1869 -1331 
Q 1566 -1331 1297 -1286 
Q 1028 -1241 775 -1147 
L 775 -588 
Q 1028 -725 1275 -790 
Q 1522 -856 1778 -856 
Q 2344 -856 2625 -561 
Q 2906 -266 2906 331 
L 2906 616 
Q 2728 306 2450 153 
Q 2172 0 1784 0 
Q 1141 0 747 490 
Q 353 981 353 1791 
Q 353 2603 747 3093 
Q 1141 3584 1784 3584 
Q 2172 3584 2450 3431 
Q 2728 3278 2906 2969 
L 2906 3500 
L 3481 3500 
L 3481 434 
z
" id="DejaVuSans-67" transform="scale(0.015625)"/>
       <path d="M 1172 4494 
L 1172 3500 
L 2356 3500 
L 2356 3053 
L 1172 3053 
L 1172 1153 
Q 1172 725 1289 603 
Q 1406 481 1766 481 
L 2356 481 
L 2356 0 
L 1766 0 
Q 1100 0 847 248 
Q 594 497 594 1153 
L 594 3053 
L 172 3053 
L 172 3500 
L 594 3500 
L 594 4494 
L 1172 4494 
z
" id="DejaVuSans-74" transform="scale(0.015625)"/>
       <path d="M 3513 2113 
L 3513 0 
L 2938 0 
L 2938 2094 
Q 2938 2591 2744 2837 
Q 2550 3084 2163 3084 
Q 1697 3084 1428 2787 
Q 1159 2491 1159 1978 
L 1159 0 
L 581 0 
L 581 4863 
L 1159 4863 
L 1159 2956 
Q 1366 3272 1645 3428 
Q 1925 3584 2291 3584 
Q 2894 3584 3203 3211 
Q 3513 2838 3513 2113 
z
" id="DejaVuSans-68" transform="scale(0.015625)"/>
       <path id="DejaVuSans-20" transform="scale(0.015625)"/>
       <path d="M 550 4863 
L 1875 4863 
L 1875 4416 
L 1125 4416 
L 1125 -397 
L 1875 -397 
L 1875 -844 
L 550 -844 
L 550 4863 
z
" id="DejaVuSans-5b" transform="scale(0.015625)"/>
       <path d="M 3328 2828 
Q 3544 3216 3844 3400 
Q 4144 3584 4550 3584 
Q 5097 3584 5394 3201 
Q 5691 2819 5691 2113 
L 5691 0 
L 5113 0 
L 5113 2094 
Q 5113 2597 4934 2840 
Q 4756 3084 4391 3084 
Q 3944 3084 3684 2787 
Q 3425 2491 3425 1978 
L 3425 0 
L 2847 0 
L 2847 2094 
Q 2847 2600 2669 2842 
Q 2491 3084 2119 3084 
Q 1678 3084 1418 2786 
Q 1159 2488 1159 1978 
L 1159 0 
L 581 0 
L 581 3500 
L 1159 3500 
L 1159 2956 
Q 1356 3278 1631 3431 
Q 1906 3584 2284 3584 
Q 2666 3584 2933 3390 
Q 3200 3197 3328 2828 
z
" id="DejaVuSans-6d" transform="scale(0.015625)"/>
       <path d="M 1947 4863 
L 1947 -844 
L 622 -844 
L 622 -397 
L 1369 -397 
L 1369 4416 
L 622 4416 
L 622 4863 
L 1947 4863 
z
" id="DejaVuSans-5d" transform="scale(0.015625)"/>
      </defs>
      <use xlink:href="#DejaVuSans-57"/>
      <use x="92.501953" xlink:href="#DejaVuSans-61"/>
      <use x="153.78125" xlink:href="#DejaVuSans-76"/>
      <use x="212.960938" xlink:href="#DejaVuSans-65"/>
      <use x="274.484375" xlink:href="#DejaVuSans-6c"/>
      <use x="302.267578" xlink:href="#DejaVuSans-65"/>
      <use x="363.791016" xlink:href="#DejaVuSans-6e"/>
      <use x="427.169922" xlink:href="#DejaVuSans-67"/>
      <use x="490.646484" xlink:href="#DejaVuSans-74"/>
      <use x="529.855469" xlink:href="#DejaVuSans-68"/>
      <use x="593.234375" xlink:href="#DejaVuSans-20"/>
      <use x="625.021484" xlink:href="#DejaVuSans-5b"/>
      <use x="664.035156" xlink:href="#DejaVuSans-6e"/>
      <use x="727.414062" xlink:href="#DejaVuSans-6d"/>
      <use x="824.826172" xlink:href="#DejaVuSans-5d"/>
     </g>
    </g>
   </g>
   <g id="matplotlib.axis_2">
    <g id="ytick_1">
     <g id="line2d_7">
      <defs>
       <path d="M 0 0 
L -3.5 0 
" id="m3d104b3f48" style="stroke:#000000;stroke-width:0.8;"/>
      </defs>
      <g>
       <use style="stroke:#000000;stroke-width:0.8;" x="57.6" xlink:href="#m3d104b3f48" y="294.287553"/>
      </g>
     </g>
     <g id="text_8">
      <!-- 0 -->
      <g transform="translate(44.2375 298.086772)scale(0.1 -0.1)">
       <use xlink:href="#DejaVuSans-30"/>
      </g>
     </g>
    </g>
    <g id="ytick_2">
     <g id="line2d_8">
      <g>
       <use style="stroke:#000000;stroke-width:0.8;" x="57.6" xlink:href="#m3d104b3f48" y="256.773597"/>
      </g>
     </g>
     <g id="text_9">
      <!-- 10000 -->
      <g transform="translate(18.7875 260.572816)scale(0.1 -0.1)">
       <use xlink:href="#DejaVuSans-31"/>
       <use x="63.623047" xlink:href="#DejaVuSans-30"/>
       <use x="127.246094" xlink:href="#DejaVuSans-30"/>
       <use x="190.869141" xlink:href="#DejaVuSans-30"/>
       <use x="254.492188" xlink:href="#DejaVuSans-30"/>
      </g>
     </g>
    </g>
    <g id="ytick_3">
     <g id="line2d_9">
      <g>
       <use style="stroke:#000000;stroke-width:0.8;" x="57.6" xlink:href="#m3d104b3f48" y="219.259641"/>
      </g>
     </g>
     <g id="text_10">
      <!-- 20000 -->
      <g transform="translate(18.7875 223.05886)scale(0.1 -0.1)">
       <use xlink:href="#DejaVuSans-32"/>
       <use x="63.623047" xlink:href="#DejaVuSans-30"/>
       <use x="127.246094" xlink:href="#DejaVuSans-30"/>
       <use x="190.869141" xlink:href="#DejaVuSans-30"/>
       <use x="254.492188" xlink:href="#DejaVuSans-30"/>
      </g>
     </g>
    </g>
    <g id="ytick_4">
     <g id="line2d_10">
      <g>
       <use style="stroke:#000000;stroke-width:0.8;" x="57.6" xlink:href="#m3d104b3f48" y="181.745685"/>
      </g>
     </g>
     <g id="text_11">
      <!-- 30000 -->
      <g transform="translate(18.7875 185.544904)scale(0.1 -0.1)">
       <defs>
        <path d="M 2597 2516 
Q 3050 2419 3304 2112 
Q 3559 1806 3559 1356 
Q 3559 666 3084 287 
Q 2609 -91 1734 -91 
Q 1441 -91 1130 -33 
Q 819 25 488 141 
L 488 750 
Q 750 597 1062 519 
Q 1375 441 1716 441 
Q 2309 441 2620 675 
Q 2931 909 2931 1356 
Q 2931 1769 2642 2001 
Q 2353 2234 1838 2234 
L 1294 2234 
L 1294 2753 
L 1863 2753 
Q 2328 2753 2575 2939 
Q 2822 3125 2822 3475 
Q 2822 3834 2567 4026 
Q 2313 4219 1838 4219 
Q 1578 4219 1281 4162 
Q 984 4106 628 3988 
L 628 4550 
Q 988 4650 1302 4700 
Q 1616 4750 1894 4750 
Q 2613 4750 3031 4423 
Q 3450 4097 3450 3541 
Q 3450 3153 3228 2886 
Q 3006 2619 2597 2516 
z
" id="DejaVuSans-33" transform="scale(0.015625)"/>
       </defs>
       <use xlink:href="#DejaVuSans-33"/>
       <use x="63.623047" xlink:href="#DejaVuSans-30"/>
       <use x="127.246094" xlink:href="#DejaVuSans-30"/>
       <use x="190.869141" xlink:href="#DejaVuSans-30"/>
       <use x="254.492188" xlink:href="#DejaVuSans-30"/>
      </g>
     </g>
    </g>
    <g id="ytick_5">
     <g id="line2d_11">
      <g>
       <use style="stroke:#000000;stroke-width:0.8;" x="57.6" xlink:href="#m3d104b3f48" y="144.231729"/>
      </g>
     </g>
     <g id="text_12">
      <!-- 40000 -->
      <g transform="translate(18.7875 148.030948)scale(0.1 -0.1)">
       <use xlink:href="#DejaVuSans-34"/>
       <use x="63.623047" xlink:href="#DejaVuSans-30"/>
       <use x="127.246094" xlink:href="#DejaVuSans-30"/>
       <use x="190.869141" xlink:href="#DejaVuSans-30"/>
       <use x="254.492188" xlink:href="#DejaVuSans-30"/>
      </g>
     </g>
    </g>
    <g id="ytick_6">
     <g id="line2d_12">
      <g>
       <use style="stroke:#000000;stroke-width:0.8;" x="57.6" xlink:href="#m3d104b3f48" y="106.717773"/>
      </g>
     </g>
     <g id="text_13">
      <!-- 50000 -->
      <g transform="translate(18.7875 110.516992)scale(0.1 -0.1)">
       <defs>
        <path d="M 691 4666 
L 3169 4666 
L 3169 4134 
L 1269 4134 
L 1269 2991 
Q 1406 3038 1543 3061 
Q 1681 3084 1819 3084 
Q 2600 3084 3056 2656 
Q 3513 2228 3513 1497 
Q 3513 744 3044 326 
Q 2575 -91 1722 -91 
Q 1428 -91 1123 -41 
Q 819 9 494 109 
L 494 744 
Q 775 591 1075 516 
Q 1375 441 1709 441 
Q 2250 441 2565 725 
Q 2881 1009 2881 1497 
Q 2881 1984 2565 2268 
Q 2250 2553 1709 2553 
Q 1456 2553 1204 2497 
Q 953 2441 691 2322 
L 691 4666 
z
" id="DejaVuSans-35" transform="scale(0.015625)"/>
       </defs>
       <use xlink:href="#DejaVuSans-35"/>
       <use x="63.623047" xlink:href="#DejaVuSans-30"/>
       <use x="127.246094" xlink:href="#DejaVuSans-30"/>
       <use x="190.869141" xlink:href="#DejaVuSans-30"/>
       <use x="254.492188" xlink:href="#DejaVuSans-30"/>
      </g>
     </g>
    </g>
    <g id="ytick_7">
     <g id="line2d_13">
      <g>
       <use style="stroke:#000000;stroke-width:0.8;" x="57.6" xlink:href="#m3d104b3f48" y="69.203817"/>
      </g>
     </g>
     <g id="text_14">
      <!-- 60000 -->
      <g transform="translate(18.7875 73.003036)scale(0.1 -0.1)">
       <use xlink:href="#DejaVuSans-36"/>
       <use x="63.623047" xlink:href="#DejaVuSans-30"/>
       <use x="127.246094" xlink:href="#DejaVuSans-30"/>
       <use x="190.869141" xlink:href="#DejaVuSans-30"/>
       <use x="254.492188" xlink:href="#DejaVuSans-30"/>
      </g>
     </g>
    </g>
    <g id="text_15">
     <!-- Counts -->
     <g transform="translate(12.707812 191.981125)rotate(-90)scale(0.1 -0.1)">
      <defs>
       <path d="M 4122 4306 
L 4122 3641 
Q 3803 3938 3442 4084 
Q 3081 4231 2675 4231 
Q 1875 4231 1450 3742 
Q 1025 3253 1025 2328 
Q 1025 1406 1450 917 
Q 1875 428 2675 428 
Q 3081 428 3442 575 
Q 3803 722 4122 1019 
L 4122 359 
Q 3791 134 3420 21 
Q 3050 -91 2638 -91 
Q 1578 -91 968 557 
Q 359 1206 359 2328 
Q 359 3453 968 4101 
Q 1578 4750 2638 4750 
Q 3056 4750 3426 4639 
Q 3797 4528 4122 4306 
z
" id="DejaVuSans-43" transform="scale(0.015625)"/>
       <path d="M 1959 3097 
Q 1497 3097 1228 2736 
Q 959 2375 959 1747 
Q 959 1119 1226 758 
Q 1494 397 1959 397 
Q 2419 397 2687 759 
Q 2956 1122 2956 1747 
Q 2956 2369 2687 2733 
Q 2419 3097 1959 3097 
z
M 1959 3584 
Q 2709 3584 3137 3096 
Q 3566 2609 3566 1747 
Q 3566 888 3137 398 
Q 2709 -91 1959 -91 
Q 1206 -91 779 398 
Q 353 888 353 1747 
Q 353 2609 779 3096 
Q 1206 3584 1959 3584 
z
" id="DejaVuSans-6f" transform="scale(0.015625)"/>
       <path d="M 544 1381 
L 544 3500 
L 1119 3500 
L 1119 1403 
Q 1119 906 1312 657 
Q 1506 409 1894 409 
Q 2359 409 2629 706 
Q 2900 1003 2900 1516 
L 2900 3500 
L 3475 3500 
L 3475 0 
L 2900 0 
L 2900 538 
Q 2691 219 2414 64 
Q 2138 -91 1772 -91 
Q 1169 -91 856 284 
Q 544 659 544 1381 
z
M 1991 3584 
L 1991 3584 
z
" id="DejaVuSans-75" transform="scale(0.015625)"/>
       <path d="M 2834 3397 
L 2834 2853 
Q 2591 2978 2328 3040 
Q 2066 3103 1784 3103 
Q 1356 3103 1142 2972 
Q 928 2841 928 2578 
Q 928 2378 1081 2264 
Q 1234 2150 1697 2047 
L 1894 2003 
Q 2506 1872 2764 1633 
Q 3022 1394 3022 966 
Q 3022 478 2636 193 
Q 2250 -91 1575 -91 
Q 1294 -91 989 -36 
Q 684 19 347 128 
L 347 722 
Q 666 556 975 473 
Q 1284 391 1588 391 
Q 1994 391 2212 530 
Q 2431 669 2431 922 
Q 2431 1156 2273 1281 
Q 2116 1406 1581 1522 
L 1381 1569 
Q 847 1681 609 1914 
Q 372 2147 372 2553 
Q 372 3047 722 3315 
Q 1072 3584 1716 3584 
Q 2034 3584 2315 3537 
Q 2597 3491 2834 3397 
z
" id="DejaVuSans-73" transform="scale(0.015625)"/>
      </defs>
      <use xlink:href="#DejaVuSans-43"/>
      <use x="69.824219" xlink:href="#DejaVuSans-6f"/>
      <use x="131.005859" xlink:href="#DejaVuSans-75"/>
      <use x="194.384766" xlink:href="#DejaVuSans-6e"/>
      <use x="257.763672" xlink:href="#DejaVuSans-74"/>
      <use x="296.972656" xlink:href="#DejaVuSans-73"/>
     </g>
    </g>
   </g>
   <g id="line2d_14">
    <path clip-path="url(#pd2e6ab7761)" d="M 73.832727 294.122492 
L 73.991327 294.032459 
L 74.149928 294.632682 
L 74.308528 294.632682 
L 74.467128 293.522269 
L 74.625728 294.33257 
L 74.784328 294.017453 
L 74.942928 294.46762 
L 75.101529 294.392592 
L 75.260129 294.527643 
L 75.418729 294.887777 
L 75.577329 294.46762 
L 75.735929 293.492258 
L 76.05313 294.797743 
L 76.21173 294.482626 
L 76.37033 294.572659 
L 76.52893 294.167509 
L 76.68753 293.132124 
L 77.004731 294.482626 
L 77.321931 294.512637 
L 77.480531 294.137498 
L 77.639131 294.962805 
L 77.797731 294.182514 
L 77.956332 294.002447 
L 78.114932 294.047464 
L 78.273532 293.957431 
L 78.432132 294.362581 
L 78.590732 293.807375 
L 78.907933 294.06247 
L 79.066533 294.452615 
L 79.225133 293.732347 
L 79.700934 294.317565 
L 80.018134 293.567285 
L 80.176734 293.792369 
L 80.335334 293.792369 
L 80.493934 294.527643 
L 80.652535 293.717341 
L 80.811135 294.542648 
L 80.969735 294.752726 
L 81.128335 294.437609 
L 81.286935 293.522269 
L 81.445535 294.797743 
L 81.762736 293.627308 
L 81.921336 294.932793 
L 82.079936 293.792369 
L 82.397136 294.632682 
L 82.872937 293.582291 
L 83.031537 294.767732 
L 83.190137 293.957431 
L 83.348737 294.032459 
L 83.665938 294.767732 
L 83.983138 293.462246 
L 84.300338 294.617676 
L 84.458939 294.827754 
L 84.617539 293.777364 
L 84.776139 294.737721 
L 85.093339 294.317565 
L 85.41054 293.027084 
L 85.56914 293.882403 
L 85.72774 293.642313 
L 85.88634 294.302559 
L 86.04494 293.717341 
L 86.20354 294.107486 
L 86.362141 293.252168 
L 86.520741 294.602671 
L 86.679341 294.242537 
L 86.837941 294.272548 
L 86.996541 294.077475 
L 87.155141 294.182514 
L 87.313742 294.947799 
L 87.472342 292.982068 
L 87.630942 294.362581 
L 87.789542 293.702336 
L 87.948142 294.302559 
L 88.106742 294.287553 
L 88.265343 294.632682 
L 88.423943 293.882403 
L 88.582543 294.827754 
L 88.741143 293.897408 
L 89.058343 294.587665 
L 89.216944 293.357207 
L 89.692744 294.992816 
L 90.009944 293.387218 
L 90.168545 294.152503 
L 90.485745 293.507263 
L 90.802945 294.152503 
L 90.961545 294.33257 
L 91.120146 293.82238 
L 91.278746 293.942425 
L 91.913147 293.807375 
L 92.071747 294.902782 
L 92.388947 294.287553 
L 92.706147 294.722715 
L 92.864748 294.392592 
L 93.023348 294.362581 
L 93.340548 293.957431 
L 93.657748 293.972436 
L 93.816349 293.927419 
L 93.974949 293.462246 
L 94.133549 294.602671 
L 94.292149 293.867397 
L 94.609349 293.957431 
L 94.76795 293.597297 
L 95.08515 294.647687 
L 95.40235 293.717341 
L 95.719551 294.437609 
L 96.036751 293.762358 
L 96.195351 294.317565 
L 96.353951 294.407598 
L 96.671152 293.747352 
L 96.829752 293.492258 
L 96.988352 293.882403 
L 97.146952 293.68733 
L 97.464152 294.752726 
L 97.622753 293.702336 
L 97.781353 294.212525 
L 97.939953 294.047464 
L 98.098553 294.46762 
L 98.257153 293.68733 
L 98.415753 294.002447 
L 98.574354 293.942425 
L 98.891554 292.802001 
L 99.050154 293.237163 
L 99.208754 292.141755 
L 99.367354 293.057096 
L 99.525955 293.147129 
L 99.684555 294.272548 
L 100.001755 293.192146 
L 100.318955 293.867397 
L 100.636156 293.957431 
L 100.794756 294.377587 
L 100.953356 293.957431 
L 101.111956 294.452615 
L 101.270556 294.302559 
L 101.429157 293.762358 
L 101.587757 293.657319 
L 101.746357 294.182514 
L 102.063557 293.927419 
L 102.222157 293.987442 
L 102.380758 294.437609 
L 102.697958 293.612302 
L 102.856558 294.572659 
L 103.015158 293.987442 
L 103.173758 294.46762 
L 103.332359 293.717341 
L 103.649559 294.362581 
L 103.808159 294.257542 
L 103.966759 293.582291 
L 104.28396 294.572659 
L 104.60116 293.717341 
L 105.076961 294.242537 
L 105.235561 293.747352 
L 105.394161 294.017453 
L 105.552761 293.17714 
L 105.711361 294.84276 
L 105.869961 294.662693 
L 106.028562 293.68733 
L 106.345762 294.347576 
L 106.504362 294.287553 
L 106.662962 293.237163 
L 106.821562 293.672325 
L 106.980163 294.602671 
L 107.455963 293.237163 
L 107.614563 294.107486 
L 107.773163 293.747352 
L 107.931764 293.942425 
L 108.090364 293.597297 
L 108.407564 293.717341 
L 108.566164 293.222157 
L 108.724764 293.912414 
L 109.041965 292.006705 
L 109.834966 279.432027 
L 110.152166 280.54244 
L 110.310766 282.448149 
L 110.627966 287.865164 
L 110.786567 289.215667 
L 110.945167 292.546906 
L 111.103767 291.841643 
L 111.262367 292.111744 
L 111.420967 293.657319 
L 111.579567 293.147129 
L 111.738168 294.242537 
L 111.896768 293.237163 
L 112.213968 293.357207 
L 112.372568 292.306817 
L 112.689769 293.04209 
L 112.848369 292.411856 
L 113.006969 292.726973 
L 113.324169 292.321822 
L 113.64137 292.366839 
L 113.79997 291.301443 
L 113.95857 292.306817 
L 114.11717 291.826638 
L 114.27577 292.381844 
L 114.592971 291.706593 
L 114.751571 292.141755 
L 114.910171 291.961688 
L 115.227371 291.226415 
L 115.385971 291.421487 
L 115.544572 291.181398 
L 115.703172 291.226415 
L 115.861772 290.626191 
L 116.178972 290.716225 
L 116.337573 291.796627 
L 116.654773 290.08599 
L 116.813373 290.100996 
L 116.971973 289.800884 
L 117.130573 288.93056 
L 117.289174 284.713992 
L 117.606374 256.128357 
L 118.082174 179.449831 
L 118.240775 173.852749 
L 118.399375 175.368313 
L 118.557975 183.15621 
L 118.716575 197.231446 
L 119.033775 242.608328 
L 119.509576 287.985209 
L 119.668176 288.990583 
L 119.826776 289.080616 
L 119.985376 288.870538 
L 120.143977 288.915555 
L 120.302577 289.290694 
L 120.461177 289.3057 
L 120.619777 288.960572 
L 120.778377 289.605812 
L 120.936977 289.260683 
L 121.095578 289.560795 
L 121.254178 289.005588 
L 121.412778 289.515778 
L 121.571378 288.690471 
L 121.729978 290.296068 
L 121.888578 288.720482 
L 122.047179 288.28532 
L 122.364379 289.860907 
L 122.522979 288.66046 
L 122.681579 288.570426 
L 122.840179 288.990583 
L 122.99878 288.360348 
L 123.15738 289.140639 
L 123.31598 289.3057 
L 123.47458 288.465387 
L 123.63318 289.005588 
L 123.79178 289.065611 
L 124.267581 289.620817 
L 124.426181 288.615443 
L 124.584781 289.395734 
L 124.743381 288.405365 
L 124.901982 288.915555 
L 125.060582 288.510404 
L 125.377782 289.575801 
L 125.536382 288.240304 
L 125.694982 288.915555 
L 125.853583 288.735488 
L 126.012183 289.260683 
L 126.329383 288.090248 
L 126.487983 288.39036 
L 126.646583 289.425745 
L 126.963784 288.090248 
L 127.122384 288.300326 
L 127.439584 289.485767 
L 127.756785 288.900549 
L 127.915385 289.515778 
L 128.073985 289.545789 
L 128.232585 289.200661 
L 128.391185 289.590806 
L 128.549785 289.425745 
L 128.708386 288.825521 
L 128.866986 288.93056 
L 129.025586 289.635823 
L 129.184186 289.17065 
L 129.342786 289.230672 
L 129.501387 290.476135 
L 129.818587 288.630449 
L 129.977187 288.465387 
L 130.135787 288.645454 
L 130.452988 286.694729 
L 130.770188 282.148037 
L 131.563189 254.492749 
L 131.880389 238.616843 
L 132.35619 225.742053 
L 132.51479 226.747427 
L 132.67339 223.266132 
L 132.83199 226.882477 
L 132.99059 226.987516 
L 133.307791 232.254476 
L 134.417992 252.977185 
L 134.576592 253.997565 
L 134.893792 260.314915 
L 135.210993 265.611885 
L 135.686793 273.564844 
L 135.845393 277.031134 
L 136.003993 277.96148 
L 136.479794 284.954081 
L 136.796994 288.675466 
L 136.955594 288.570426 
L 137.431395 291.046348 
L 137.589995 291.331454 
L 137.748595 291.076359 
L 137.907195 291.061353 
L 138.065796 291.766616 
L 138.224396 290.866281 
L 138.382996 291.24142 
L 138.541596 291.24142 
L 138.700196 290.926303 
L 138.858796 291.406482 
L 139.017397 291.016336 
L 139.175997 291.211409 
L 139.334597 290.956314 
L 139.493197 291.166392 
L 139.651797 291.586549 
L 139.810397 291.481509 
L 139.968998 291.721599 
L 140.127598 291.466504 
L 140.444798 291.946683 
L 140.603398 291.211409 
L 140.761998 291.946683 
L 140.920599 291.841643 
L 141.079199 291.991699 
L 141.396399 291.781621 
L 141.554999 292.516895 
L 141.7136 292.2618 
L 141.8722 293.17714 
L 142.0308 293.282179 
L 142.1894 292.501889 
L 142.348 293.567285 
L 142.5066 292.231789 
L 142.665201 293.192146 
L 143.141001 292.606928 
L 143.458201 293.17714 
L 143.616802 292.246794 
L 143.775402 292.291811 
L 143.934002 291.481509 
L 144.092602 291.856649 
L 144.409802 289.800884 
L 144.727003 285.989466 
L 144.885603 285.899433 
L 145.044203 286.109511 
L 145.520004 281.412764 
L 145.995804 269.018153 
L 146.313004 250.051096 
L 146.630205 209.926169 
L 147.423206 54.393307 
L 147.581806 57.259373 
L 147.899006 53.568 
L 148.057606 56.359038 
L 148.216206 56.92925 
L 148.374807 53.673039 
L 148.533407 57.769563 
L 148.692007 69.188811 
L 149.485008 194.020252 
L 149.802208 210.946549 
L 150.436609 238.106653 
L 150.753809 253.802492 
L 151.071009 269.228231 
L 151.54681 281.787903 
L 151.86401 284.338852 
L 152.02261 286.694729 
L 152.181211 285.824405 
L 152.339811 287.309958 
L 152.657011 287.745119 
L 152.815611 287.550047 
L 152.974211 288.210293 
L 153.132812 288.300326 
L 153.291412 288.855533 
L 153.450012 288.810516 
L 153.608612 289.905923 
L 153.767212 289.845901 
L 153.925812 290.356091 
L 154.084413 289.125633 
L 154.243013 288.93056 
L 154.401613 289.905923 
L 154.718813 289.81589 
L 154.877414 290.32608 
L 155.036014 290.010962 
L 155.194614 290.221041 
L 155.353214 289.605812 
L 155.511814 288.495399 
L 155.670414 288.705477 
L 155.987615 286.469645 
L 156.304815 279.852183 
L 156.780616 262.895875 
L 157.732217 227.497706 
L 158.525217 210.706459 
L 158.683818 209.415979 
L 159.159618 200.097512 
L 159.318218 191.964487 
L 159.476818 191.424286 
L 159.794019 187.237728 
L 159.952619 189.713649 
L 160.74562 217.278904 
L 161.06282 220.430077 
L 161.22142 220.910255 
L 161.538621 226.957505 
L 162.173021 252.331945 
L 162.331621 253.712459 
L 162.490222 256.443475 
L 162.648822 254.222648 
L 162.807422 254.807866 
L 162.966022 252.121867 
L 163.124622 252.692079 
L 163.283222 252.677073 
L 163.441823 253.922537 
L 164.234823 271.073917 
L 164.393424 271.208968 
L 164.552024 272.199336 
L 164.710624 270.998889 
L 165.186424 255.54314 
L 165.345025 238.121658 
L 165.662225 152.304732 
L 165.979425 53.70305 
L 166.138025 56.479083 
L 166.296626 55.488715 
L 166.455226 57.154334 
L 166.613826 54.243251 
L 166.772426 54.123207 
L 166.931026 57.394424 
L 167.089627 54.813463 
L 167.248227 54.918502 
L 167.406827 73.435391 
L 167.724027 155.140787 
L 168.199828 209.31094 
L 168.517028 226.43231 
L 168.675628 230.348767 
L 168.834228 230.858956 
L 168.992829 230.138689 
L 169.151429 232.599604 
L 169.310029 232.449548 
L 169.468629 235.150553 
L 169.627229 235.885827 
L 170.10303 244.063869 
L 170.26163 243.478651 
L 170.57883 248.670583 
L 170.896031 250.471253 
L 171.689031 234.400274 
L 171.847632 234.55033 
L 172.323432 250.351208 
L 172.799233 272.904598 
L 173.116433 281.112652 
L 173.275033 284.954081 
L 173.592233 285.899433 
L 173.750834 286.694729 
L 173.909434 286.244561 
L 174.068034 287.414997 
L 174.226634 287.354974 
L 174.385234 288.090248 
L 174.543834 288.030226 
L 174.861035 288.225298 
L 175.019635 287.745119 
L 175.178235 288.030226 
L 175.336835 286.889801 
L 175.495435 287.399991 
L 175.654036 286.85979 
L 175.812636 287.009846 
L 175.971236 286.664718 
L 176.129836 286.979835 
L 176.288436 286.874796 
L 176.922837 282.223065 
L 177.081437 278.87682 
L 177.240037 279.672116 
L 177.398637 278.441658 
L 177.557238 278.771781 
L 178.033038 281.32273 
L 178.191638 284.188796 
L 178.350238 284.518919 
L 178.508839 286.934818 
L 178.667439 287.23493 
L 178.826039 287.099879 
L 178.984639 288.120259 
L 179.143239 287.745119 
L 179.301839 288.720482 
L 179.46044 288.885544 
L 179.77764 288.060237 
L 179.93624 288.315332 
L 180.412041 286.154528 
L 180.570641 284.683981 
L 180.729241 284.759009 
L 180.887841 284.969087 
L 181.046441 284.683981 
L 181.205042 285.19417 
L 181.522242 287.625075 
L 181.998042 288.195287 
L 182.156643 288.780505 
L 182.315243 288.645454 
L 182.473843 287.129891 
L 182.791043 289.200661 
L 182.949643 288.420371 
L 183.108244 288.210293 
L 183.266844 290.491141 
L 183.425444 289.770873 
L 183.584044 289.830895 
L 183.742644 290.131007 
L 184.059845 289.785879 
L 184.218445 290.025968 
L 184.377045 289.335711 
L 184.535645 290.656202 
L 184.852845 289.575801 
L 185.011446 289.425745 
L 185.170046 289.065611 
L 185.328646 289.470761 
L 185.645846 288.975577 
L 185.804446 289.215667 
L 186.121647 289.215667 
L 186.280247 290.191029 
L 186.438847 290.281063 
L 186.597447 288.93056 
L 186.756047 289.455756 
L 187.073248 287.865164 
L 187.231848 288.135265 
L 187.390448 286.72474 
L 187.549048 286.379611 
L 187.707648 285.119143 
L 187.866249 285.94445 
L 188.024849 285.329221 
L 188.183449 286.559678 
L 188.342049 288.66046 
L 188.500649 288.375354 
L 188.659249 288.780505 
L 188.81785 289.560795 
L 188.97645 288.090248 
L 189.13505 287.865164 
L 189.45225 287.955198 
L 189.61085 287.955198 
L 189.928051 289.830895 
L 190.086651 290.206035 
L 190.245251 291.061353 
L 190.403851 292.952057 
L 190.562451 291.88666 
L 190.721052 291.901666 
L 190.879652 293.012079 
L 191.355452 291.61656 
L 191.514052 292.546906 
L 191.672653 292.276805 
L 192.307053 286.229556 
L 192.941454 271.674141 
L 193.258654 265.641897 
L 193.417255 265.942008 
L 193.575855 265.026668 
L 193.893055 265.942008 
L 194.051655 267.337527 
L 194.368856 271.13394 
L 195.003256 279.447032 
L 195.479057 288.465387 
L 195.796257 291.841643 
L 196.113457 292.847017 
L 196.272058 293.222157 
L 196.430658 293.102112 
L 196.589258 293.477252 
L 196.747858 293.132124 
L 196.906458 293.612302 
L 197.065058 293.282179 
L 197.223659 293.837386 
L 197.382259 293.297185 
L 197.699459 293.102112 
L 197.858059 293.792369 
L 198.016659 293.147129 
L 198.17526 293.372213 
L 198.33386 293.372213 
L 198.49246 293.222157 
L 198.65106 293.657319 
L 198.96826 292.922045 
L 199.285461 293.68733 
L 199.444061 293.432235 
L 199.602661 291.961688 
L 199.761261 293.657319 
L 199.919861 293.402224 
L 200.078462 293.912414 
L 200.237062 293.882403 
L 200.395662 293.447241 
L 200.554262 293.852392 
L 200.871462 293.627308 
L 201.030063 293.717341 
L 201.347263 294.377587 
L 201.505863 294.287553 
L 201.664463 293.432235 
L 201.823063 293.777364 
L 201.981664 292.877029 
L 202.140264 293.492258 
L 202.457464 293.207151 
L 202.616064 293.597297 
L 202.774664 293.492258 
L 202.933265 292.636939 
L 203.091865 293.147129 
L 203.250465 292.561911 
L 203.409065 293.777364 
L 203.567665 293.462246 
L 203.726265 293.432235 
L 203.884866 294.287553 
L 204.043466 293.282179 
L 204.202066 293.012079 
L 204.677867 293.477252 
L 204.836467 293.477252 
L 204.995067 293.612302 
L 205.153667 293.027084 
L 205.312267 293.642313 
L 205.470867 293.087107 
L 205.629468 293.627308 
L 205.788068 293.342202 
L 205.946668 294.19752 
L 206.105268 294.047464 
L 206.422468 294.06247 
L 206.581069 293.072101 
L 206.739669 293.897408 
L 207.215469 291.511521 
L 207.69127 284.744003 
L 207.84987 284.533925 
L 208.16707 282.673233 
L 208.32567 282.898316 
L 208.960071 290.46113 
L 209.118671 290.656202 
L 209.277271 292.006705 
L 209.435872 291.346459 
L 209.753072 292.802001 
L 209.911672 293.477252 
L 210.070272 293.087107 
L 210.387473 292.862023 
L 210.546073 291.856649 
L 210.704673 292.411856 
L 210.863273 292.186772 
L 211.180473 292.817006 
L 211.339074 292.922045 
L 211.497674 293.55228 
L 211.656274 292.802001 
L 211.973474 293.55228 
L 212.132074 293.192146 
L 212.449275 294.452615 
L 212.607875 294.317565 
L 212.766475 293.522269 
L 212.925075 294.19752 
L 213.083675 293.867397 
L 213.400876 294.077475 
L 213.559476 293.657319 
L 213.718076 294.152503 
L 214.193877 294.152503 
L 214.352477 293.657319 
L 214.511077 293.972436 
L 214.669677 293.41723 
L 214.986877 294.227531 
L 215.145478 293.162135 
L 215.304078 293.357207 
L 215.462678 293.222157 
L 215.621278 292.847017 
L 215.779878 293.68733 
L 216.097079 292.756984 
L 216.255679 293.612302 
L 216.890079 294.422604 
L 217.36588 293.927419 
L 217.52448 293.867397 
L 217.68308 294.407598 
L 217.841681 293.717341 
L 218.476081 294.182514 
L 218.634681 293.642313 
L 218.793282 294.032459 
L 218.951882 293.732347 
L 219.110482 294.527643 
L 219.269082 293.702336 
L 219.427682 293.82238 
L 219.586282 294.122492 
L 219.744883 293.162135 
L 219.903483 293.222157 
L 220.062083 293.132124 
L 220.379283 294.482626 
L 220.537883 293.162135 
L 220.696484 293.41723 
L 221.172284 293.132124 
L 221.330884 293.327196 
L 221.648085 293.072101 
L 222.123885 286.199544 
L 222.599686 282.568194 
L 222.758286 282.298093 
L 223.551287 292.802001 
L 223.868487 294.167509 
L 224.027087 293.777364 
L 224.185687 294.017453 
L 224.344287 293.117118 
L 224.502888 293.507263 
L 224.820088 292.321822 
L 224.978688 292.756984 
L 225.137288 293.612302 
L 225.295888 293.072101 
L 225.454489 293.792369 
L 225.613089 293.762358 
L 225.771689 293.207151 
L 225.930289 294.122492 
L 226.088889 293.657319 
L 226.247489 293.867397 
L 226.56469 292.997073 
L 226.72329 293.102112 
L 227.19909 290.941309 
L 227.357691 291.346459 
L 227.516291 290.881286 
L 227.674891 291.556537 
L 227.833491 290.746236 
L 227.992091 291.661576 
L 228.150691 291.88666 
L 228.309292 293.447241 
L 228.467892 292.546906 
L 228.943692 294.227531 
L 229.260893 293.957431 
L 229.736693 294.527643 
L 229.895293 294.572659 
L 230.212494 293.82238 
L 230.371094 294.46762 
L 230.529694 294.227531 
L 230.688294 294.392592 
L 230.846894 293.657319 
L 231.005495 293.927419 
L 231.164095 293.372213 
L 231.322695 293.582291 
L 231.481295 293.162135 
L 231.798495 294.557654 
L 231.957096 293.942425 
L 232.115696 294.70771 
L 232.432896 293.717341 
L 232.591496 294.122492 
L 232.750096 294.077475 
L 232.908697 294.812749 
L 233.067297 293.627308 
L 233.225897 293.807375 
L 233.384497 293.402224 
L 233.543097 293.792369 
L 233.701697 293.612302 
L 233.860298 294.19752 
L 234.018898 294.152503 
L 234.177498 293.717341 
L 234.336098 292.922045 
L 234.653298 294.362581 
L 234.811899 293.507263 
L 234.970499 294.422604 
L 235.129099 294.587665 
L 235.287699 294.242537 
L 235.446299 294.362581 
L 235.604899 294.632682 
L 235.9221 293.55228 
L 236.0807 294.092481 
L 236.2393 294.19752 
L 236.715101 293.927419 
L 236.873701 294.362581 
L 237.190901 293.882403 
L 237.666702 294.902782 
L 237.983902 293.55228 
L 238.142502 294.182514 
L 238.459702 293.852392 
L 238.618303 294.33257 
L 238.776903 293.492258 
L 239.094103 294.377587 
L 239.252703 294.497632 
L 239.411303 294.017453 
L 239.569904 294.167509 
L 239.887104 293.882403 
L 240.045704 294.212525 
L 240.204304 294.137498 
L 240.362904 294.542648 
L 240.521505 294.362581 
L 240.680105 294.362581 
L 240.838705 293.04209 
L 240.997305 293.072101 
L 241.155905 292.501889 
L 241.314505 292.381844 
L 241.631706 291.451498 
L 241.790306 291.436493 
L 241.948906 292.561911 
L 242.107506 292.426861 
L 242.266106 292.666951 
L 242.741907 294.257542 
L 242.900507 293.747352 
L 243.059107 294.407598 
L 243.217708 294.527643 
L 243.376308 293.897408 
L 243.534908 294.257542 
L 243.852108 293.702336 
L 244.327909 294.992816 
L 244.645109 293.492258 
L 244.803709 294.19752 
L 244.962309 293.312191 
L 245.12091 294.227531 
L 245.75531 292.817006 
L 245.91391 292.276805 
L 246.072511 293.027084 
L 246.231111 292.216783 
L 246.389711 293.492258 
L 246.548311 293.117118 
L 246.706911 293.867397 
L 246.865511 293.702336 
L 247.024112 294.077475 
L 247.182712 293.792369 
L 247.341312 294.19752 
L 247.658512 293.987442 
L 247.975713 294.752726 
L 248.134313 294.497632 
L 248.292913 294.572659 
L 248.451513 293.642313 
L 248.610113 293.807375 
L 248.768713 294.497632 
L 248.927314 294.587665 
L 249.085914 293.942425 
L 249.244514 294.857766 
L 249.403114 294.362581 
L 249.561714 294.70771 
L 249.878915 294.017453 
L 250.037515 294.122492 
L 250.196115 294.767732 
L 250.354715 293.837386 
L 250.513315 293.807375 
L 250.830516 294.587665 
L 250.989116 293.732347 
L 251.147716 294.362581 
L 251.464916 294.767732 
L 251.623516 293.852392 
L 251.782117 293.82238 
L 251.940717 294.512637 
L 252.099317 294.392592 
L 252.257917 293.957431 
L 252.416517 294.572659 
L 252.733718 293.567285 
L 253.050918 294.452615 
L 253.209518 294.752726 
L 253.368118 294.002447 
L 253.526718 294.782738 
L 253.685319 294.872771 
L 254.161119 294.06247 
L 254.319719 294.19752 
L 254.478319 293.522269 
L 254.79552 294.557654 
L 254.95412 294.347576 
L 255.11272 293.837386 
L 255.588521 294.212525 
L 255.747121 294.827754 
L 255.905721 294.33257 
L 256.064321 294.857766 
L 256.381522 293.792369 
L 256.540122 294.437609 
L 256.698722 294.46762 
L 256.857322 295.052838 
L 257.015922 294.422604 
L 257.333123 294.617676 
L 257.650323 293.82238 
L 257.808923 294.84276 
L 258.126123 293.972436 
L 258.443324 294.722715 
L 258.601924 294.032459 
L 258.760524 294.302559 
L 258.919124 294.137498 
L 259.077724 294.272548 
L 259.236325 293.912414 
L 259.394925 294.587665 
L 259.553525 294.497632 
L 259.712125 295.397967 
L 259.870725 294.002447 
L 260.029325 293.837386 
L 260.187926 293.477252 
L 260.346526 293.897408 
L 260.505126 294.722715 
L 260.663726 293.897408 
L 260.980926 294.752726 
L 261.139527 294.19752 
L 261.298127 294.317565 
L 261.456727 294.047464 
L 261.615327 294.542648 
L 261.932527 294.137498 
L 262.091128 294.107486 
L 262.249728 294.46762 
L 262.408328 294.137498 
L 262.566928 294.557654 
L 262.725528 294.317565 
L 262.884128 294.407598 
L 263.042729 295.127866 
L 263.201329 293.762358 
L 263.359929 294.737721 
L 263.518529 294.662693 
L 263.835729 294.06247 
L 263.99433 294.077475 
L 264.31153 293.957431 
L 264.47013 294.497632 
L 264.62873 293.807375 
L 265.104531 294.392592 
L 265.263131 294.107486 
L 265.421731 294.242537 
L 265.580331 294.047464 
L 265.897532 294.437609 
L 266.056132 293.792369 
L 266.214732 294.482626 
L 266.373332 294.542648 
L 266.531932 294.377587 
L 266.849133 294.812749 
L 267.007733 294.137498 
L 267.324933 294.767732 
L 267.642133 294.557654 
L 267.800734 294.542648 
L 267.959334 294.97781 
L 268.435134 294.092481 
L 268.593735 294.182514 
L 268.752335 294.482626 
L 268.910935 294.437609 
L 269.069535 293.867397 
L 269.228135 293.717341 
L 269.386735 294.047464 
L 269.545336 293.747352 
L 269.862536 294.497632 
L 270.021136 293.987442 
L 270.338336 293.732347 
L 270.655537 295.337944 
L 270.814137 294.392592 
L 270.972737 294.617676 
L 271.131337 294.377587 
L 271.289937 294.737721 
L 271.448538 294.362581 
L 271.607138 294.497632 
L 271.765738 294.002447 
L 271.924338 293.897408 
L 272.241538 294.06247 
L 272.400139 294.212525 
L 272.558739 294.602671 
L 272.875939 294.33257 
L 273.034539 294.962805 
L 273.193139 294.257542 
L 273.35174 294.212525 
L 273.51034 293.792369 
L 273.66894 294.932793 
L 273.98614 294.06247 
L 274.14474 294.70771 
L 274.303341 294.227531 
L 274.461941 294.422604 
L 275.096341 294.407598 
L 275.254942 293.747352 
L 275.413542 294.167509 
L 275.572142 294.152503 
L 275.730742 295.142872 
L 276.047942 294.272548 
L 276.206543 294.542648 
L 276.365143 293.972436 
L 276.523743 294.677699 
L 276.682343 294.212525 
L 276.840943 294.422604 
L 276.999543 293.867397 
L 277.158144 294.092481 
L 277.475344 294.992816 
L 277.951144 293.492258 
L 278.268345 294.617676 
L 278.426945 293.717341 
L 278.744145 294.512637 
L 278.902745 294.377587 
L 279.061346 294.512637 
L 279.219946 294.46762 
L 279.378546 294.242537 
L 279.537146 294.527643 
L 279.695746 294.33257 
L 279.854346 294.662693 
L 280.012947 293.942425 
L 280.171547 293.942425 
L 280.330147 293.537274 
L 280.647347 294.122492 
L 280.805948 294.017453 
L 280.964548 294.827754 
L 281.123148 293.297185 
L 281.281748 293.867397 
L 281.598948 293.582291 
L 281.757549 294.287553 
L 281.916149 294.002447 
L 282.074749 294.032459 
L 282.233349 293.867397 
L 282.391949 294.632682 
L 282.550549 294.542648 
L 282.86775 293.41723 
L 283.18495 294.152503 
L 283.34355 294.077475 
L 283.50215 294.137498 
L 283.660751 294.317565 
L 283.819351 294.122492 
L 283.977951 294.617676 
L 284.136551 293.942425 
L 284.295151 293.882403 
L 284.612352 294.257542 
L 284.770952 294.827754 
L 284.929552 293.432235 
L 285.405352 294.452615 
L 285.563953 294.33257 
L 285.881153 293.852392 
L 286.039753 293.807375 
L 286.198353 294.002447 
L 286.356953 294.737721 
L 286.515554 294.677699 
L 286.674154 294.362581 
L 286.832754 294.70771 
L 286.991354 293.987442 
L 287.308554 294.677699 
L 287.467155 293.942425 
L 287.625755 294.902782 
L 287.784355 294.017453 
L 287.942955 294.782738 
L 288.101555 294.227531 
L 288.260155 294.512637 
L 288.418756 293.927419 
L 288.894556 294.587665 
L 289.053156 293.702336 
L 289.211756 294.19752 
L 289.370357 294.257542 
L 289.528957 294.587665 
L 289.687557 294.002447 
L 290.004757 294.287553 
L 290.163357 294.257542 
L 290.321958 294.557654 
L 290.480558 293.942425 
L 290.797758 294.827754 
L 290.956358 294.047464 
L 291.114958 294.557654 
L 291.432159 294.587665 
L 291.590759 294.437609 
L 291.749359 294.122492 
L 291.907959 294.632682 
L 292.066559 294.617676 
L 292.22516 294.257542 
L 292.38376 294.947799 
L 292.70096 294.182514 
L 292.85956 294.227531 
L 293.018161 294.947799 
L 293.176761 294.107486 
L 293.335361 294.512637 
L 293.652561 293.447241 
L 293.811161 293.882403 
L 293.969762 295.292927 
L 294.286962 293.972436 
L 294.445562 293.582291 
L 294.604162 293.717341 
L 294.762762 294.557654 
L 294.921363 294.737721 
L 295.079963 294.047464 
L 295.238563 294.33257 
L 295.397163 293.702336 
L 295.714363 294.632682 
L 296.031564 293.68733 
L 296.348764 294.812749 
L 296.507364 294.347576 
L 296.665964 294.437609 
L 296.824565 294.032459 
L 296.983165 295.037833 
L 297.300365 294.512637 
L 297.458965 294.947799 
L 297.617565 293.972436 
L 297.776166 293.927419 
L 298.093366 294.46762 
L 298.251966 294.227531 
L 298.410566 294.347576 
L 298.727767 293.642313 
L 298.886367 293.747352 
L 299.044967 294.362581 
L 299.203567 294.422604 
L 299.520767 294.317565 
L 299.679368 293.807375 
L 299.837968 294.122492 
L 299.996568 294.797743 
L 300.155168 293.747352 
L 300.472368 294.632682 
L 300.948169 293.972436 
L 301.423969 295.157877 
L 301.58257 294.032459 
L 301.89977 294.482626 
L 302.05837 294.242537 
L 302.21697 294.407598 
L 302.37557 293.882403 
L 302.534171 294.692704 
L 302.692771 293.807375 
L 302.851371 293.747352 
L 303.009971 294.527643 
L 303.168571 294.33257 
L 303.644372 294.392592 
L 303.802972 294.932793 
L 303.961572 293.732347 
L 304.120172 294.737721 
L 304.278772 293.567285 
L 304.437373 295.082849 
L 304.595973 294.737721 
L 304.754573 294.107486 
L 304.913173 294.272548 
L 305.071773 294.182514 
L 305.230373 294.632682 
L 305.388974 293.612302 
L 305.547574 294.632682 
L 305.864774 293.777364 
L 306.340575 294.377587 
L 306.499175 293.627308 
L 306.657775 294.017453 
L 306.816375 293.732347 
L 307.133576 294.422604 
L 307.292176 294.362581 
L 307.450776 294.737721 
L 307.609376 294.602671 
L 307.767976 293.657319 
L 307.926576 294.122492 
L 308.085177 294.017453 
L 308.243777 294.752726 
L 308.402377 293.792369 
L 308.560977 294.572659 
L 308.878177 293.792369 
L 309.036778 293.597297 
L 309.195378 294.287553 
L 309.353978 293.597297 
L 309.512578 293.82238 
L 309.671178 294.917788 
L 309.829778 293.912414 
L 309.988379 294.422604 
L 310.146979 294.422604 
L 310.305579 293.492258 
L 310.464179 294.617676 
L 310.622779 293.927419 
L 310.781379 294.437609 
L 311.09858 294.557654 
L 311.25718 294.33257 
L 311.41578 293.837386 
L 311.57438 293.82238 
L 311.73298 294.422604 
L 312.050181 294.032459 
L 312.208781 294.662693 
L 312.367381 293.777364 
L 312.525981 294.587665 
L 312.684581 294.032459 
L 312.843182 294.722715 
L 313.160382 294.242537 
L 313.318982 294.482626 
L 313.477582 293.912414 
L 313.636182 294.46762 
L 314.111983 293.942425 
L 314.270583 294.812749 
L 314.429183 293.912414 
L 314.587783 293.702336 
L 314.746384 294.137498 
L 314.904984 293.627308 
L 315.063584 294.722715 
L 315.380784 293.972436 
L 315.539384 293.912414 
L 315.697985 294.107486 
L 315.856585 294.542648 
L 316.015185 294.302559 
L 316.173785 294.932793 
L 316.332385 293.972436 
L 316.649586 293.777364 
L 316.808186 293.957431 
L 316.966786 294.512637 
L 317.125386 293.882403 
L 317.283986 293.927419 
L 317.759787 294.677699 
L 318.076987 293.507263 
L 318.235587 294.992816 
L 318.394188 294.647687 
L 318.552788 294.797743 
L 319.028588 293.82238 
L 319.187188 294.122492 
L 319.345789 295.307933 
L 319.504389 293.867397 
L 319.662989 293.537274 
L 319.821589 294.422604 
L 319.980189 293.972436 
L 320.138789 293.897408 
L 320.29739 294.092481 
L 320.45599 293.717341 
L 320.93179 294.047464 
L 321.09039 293.897408 
L 321.248991 294.46762 
L 321.407591 294.182514 
L 321.566191 294.452615 
L 322.041991 294.377587 
L 322.200592 293.507263 
L 322.359192 294.302559 
L 322.676392 294.527643 
L 322.834992 294.227531 
L 322.993592 294.407598 
L 323.152193 294.767732 
L 323.310793 293.672325 
L 323.469393 294.677699 
L 323.627993 293.657319 
L 323.786593 294.227531 
L 323.945193 294.347576 
L 324.103794 293.717341 
L 324.262394 294.392592 
L 324.579594 294.167509 
L 324.738194 294.812749 
L 324.896794 294.287553 
L 325.055395 294.287553 
L 325.213995 294.407598 
L 325.372595 294.287553 
L 325.531195 294.347576 
L 325.689795 294.152503 
L 325.848395 293.477252 
L 326.006996 294.482626 
L 326.165596 293.792369 
L 326.324196 293.987442 
L 326.641396 294.002447 
L 326.799996 294.33257 
L 326.958597 294.107486 
L 327.117197 294.542648 
L 327.434397 294.662693 
L 327.751597 293.852392 
L 327.910198 293.882403 
L 328.068798 294.287553 
L 328.227398 294.377587 
L 328.385998 293.732347 
L 328.544598 293.912414 
L 328.703198 294.302559 
L 328.861799 293.747352 
L 329.178999 294.497632 
L 329.337599 293.987442 
L 329.496199 294.602671 
L 329.654799 294.512637 
L 329.972 293.657319 
L 330.1306 293.897408 
L 330.2892 294.662693 
L 330.6064 294.047464 
L 330.923601 294.872771 
L 331.240801 294.137498 
L 331.399401 293.17714 
L 331.558002 293.537274 
L 331.716602 293.41723 
L 331.875202 293.102112 
L 332.033802 294.422604 
L 332.192402 294.407598 
L 332.351002 294.647687 
L 332.509603 294.047464 
L 332.668203 294.542648 
L 332.826803 294.167509 
L 332.985403 294.482626 
L 333.144003 293.702336 
L 333.302603 294.542648 
L 333.461204 293.942425 
L 333.619804 293.927419 
L 333.778404 293.477252 
L 334.095604 294.632682 
L 334.254204 294.287553 
L 334.412805 294.302559 
L 334.571405 293.807375 
L 334.888605 294.19752 
L 335.047205 293.852392 
L 335.205805 295.037833 
L 335.523006 294.347576 
L 335.840206 294.84276 
L 335.998806 293.882403 
L 336.157406 294.46762 
L 336.316007 293.942425 
L 336.633207 294.452615 
L 336.791807 293.522269 
L 336.950407 293.717341 
L 337.109007 293.657319 
L 337.426208 294.017453 
L 337.743408 293.897408 
L 337.902008 294.647687 
L 338.060608 294.677699 
L 338.219209 294.497632 
L 338.377809 295.097855 
L 338.695009 293.957431 
L 338.853609 294.002447 
L 339.012209 293.792369 
L 339.48801 293.927419 
L 339.64661 294.422604 
L 339.80521 294.452615 
L 339.96381 294.647687 
L 340.122411 294.632682 
L 340.281011 293.837386 
L 340.598211 293.942425 
L 340.756811 293.702336 
L 340.915411 293.897408 
L 341.074012 293.582291 
L 341.232612 294.122492 
L 341.391212 293.477252 
L 341.708412 294.257542 
L 342.025613 293.162135 
L 342.184213 293.567285 
L 342.342813 292.696962 
L 342.501413 292.877029 
L 342.660013 292.276805 
L 342.818613 292.39685 
L 343.294414 289.0356 
L 344.087415 282.012987 
L 344.246015 282.718249 
L 344.880416 287.790136 
L 345.039016 287.610069 
L 345.514816 290.97132 
L 345.673417 290.251052 
L 345.832017 290.176024 
L 346.149217 291.166392 
L 346.307817 290.566169 
L 346.783618 292.366839 
L 346.942218 291.24142 
L 347.100818 291.526526 
L 347.259418 293.087107 
L 347.418018 293.312191 
L 347.576619 292.576917 
L 348.052419 293.732347 
L 348.211019 292.786995 
L 348.369619 292.982068 
L 348.52822 292.786995 
L 348.68682 293.537274 
L 348.84542 292.231789 
L 349.00402 292.786995 
L 349.16262 292.922045 
L 349.32122 292.877029 
L 349.479821 292.246794 
L 349.797021 293.282179 
L 349.955621 291.766616 
L 350.272821 292.90704 
L 350.590022 292.847017 
L 350.907222 293.492258 
L 351.065822 292.982068 
L 351.383023 293.312191 
L 351.541623 292.696962 
L 351.700223 293.027084 
L 351.858823 293.927419 
L 352.017423 292.681956 
L 352.176023 294.302559 
L 352.334624 292.922045 
L 352.651824 294.287553 
L 352.969024 292.802001 
L 353.286225 294.317565 
L 353.444825 293.867397 
L 353.603425 293.777364 
L 353.762025 293.282179 
L 353.920625 293.672325 
L 354.079225 293.237163 
L 354.237826 293.732347 
L 354.396426 293.147129 
L 354.713626 293.237163 
L 354.872226 293.717341 
L 355.030826 293.17714 
L 355.189427 293.612302 
L 355.348027 293.057096 
L 355.506627 292.90704 
L 355.665227 293.447241 
L 355.982427 293.327196 
L 356.141028 292.681956 
L 356.299628 292.802001 
L 356.458228 292.456872 
L 356.775428 292.952057 
L 356.934029 293.507263 
L 357.092629 293.072101 
L 357.251229 293.897408 
L 357.409829 294.107486 
L 357.568429 293.102112 
L 357.88563 294.002447 
L 358.04423 293.957431 
L 358.20283 294.497632 
L 358.36143 293.837386 
L 358.52003 294.632682 
L 358.837231 293.777364 
L 358.995831 294.212525 
L 359.154431 293.252168 
L 359.313031 294.947799 
L 359.471631 294.06247 
L 359.630231 293.82238 
L 359.788832 294.422604 
L 360.106032 293.867397 
L 360.264632 294.452615 
L 360.740433 293.55228 
L 360.899033 294.737721 
L 361.057633 293.897408 
L 361.374833 293.792369 
L 361.533433 295.097855 
L 361.692034 293.867397 
L 361.850634 293.717341 
L 362.009234 294.647687 
L 362.167834 293.117118 
L 362.485034 294.317565 
L 362.643635 294.617676 
L 362.802235 294.542648 
L 362.960835 293.987442 
L 363.595236 294.542648 
L 363.753836 294.137498 
L 363.912436 294.122492 
L 364.071036 293.702336 
L 364.229636 293.852392 
L 364.388236 293.507263 
L 364.546837 294.182514 
L 364.705437 294.272548 
L 364.864037 293.537274 
L 365.022637 294.70771 
L 365.181237 294.122492 
L 365.339837 294.84276 
L 365.657038 293.762358 
L 365.974238 294.06247 
L 366.450039 293.927419 
L 366.767239 293.537274 
L 366.925839 294.392592 
L 367.084439 294.602671 
L 367.243039 293.192146 
L 367.56024 294.452615 
L 367.71884 293.68733 
L 367.87744 294.257542 
L 368.19464 293.41723 
L 368.670441 293.837386 
L 368.829041 293.702336 
L 369.146242 294.497632 
L 369.304842 293.657319 
L 369.463442 294.047464 
L 369.622042 293.972436 
L 369.780642 294.272548 
L 369.939242 293.41723 
L 370.097843 294.317565 
L 370.256443 294.422604 
L 370.573643 293.747352 
L 370.732243 294.077475 
L 370.890843 294.917788 
L 371.049444 294.107486 
L 371.208044 294.257542 
L 371.366644 294.662693 
L 371.525244 293.567285 
L 371.683844 293.642313 
L 371.842444 294.362581 
L 372.001045 293.897408 
L 372.159645 294.302559 
L 372.318245 293.68733 
L 372.476845 294.437609 
L 372.635445 293.462246 
L 372.794045 293.267174 
L 373.111246 294.542648 
L 373.269846 294.617676 
L 373.587046 293.792369 
L 373.904247 295.007821 
L 374.221447 293.68733 
L 374.380047 294.647687 
L 374.538647 294.497632 
L 374.697247 293.987442 
L 375.014448 294.932793 
L 375.173048 293.55228 
L 375.490248 293.912414 
L 375.648848 293.777364 
L 375.807449 294.542648 
L 376.124649 293.82238 
L 376.283249 294.422604 
L 376.75905 293.68733 
L 376.91765 294.46762 
L 377.07625 293.897408 
L 377.23485 294.527643 
L 377.39345 294.497632 
L 377.55205 294.002447 
L 377.710651 294.19752 
L 377.869251 293.582291 
L 378.027851 293.777364 
L 378.186451 293.087107 
L 378.345051 293.867397 
L 378.503651 293.747352 
L 378.662252 293.927419 
L 378.820852 293.732347 
L 379.138052 295.052838 
L 379.296652 293.987442 
L 379.613853 294.857766 
L 380.089653 294.137498 
L 380.248253 294.557654 
L 380.406853 293.837386 
L 380.724054 294.377587 
L 380.882654 294.06247 
L 381.041254 294.017453 
L 381.199854 293.792369 
L 381.358455 294.872771 
L 381.517055 294.122492 
L 381.675655 294.047464 
L 381.992855 294.722715 
L 382.151455 294.377587 
L 382.310056 294.662693 
L 382.468656 294.617676 
L 382.627256 293.927419 
L 382.785856 294.017453 
L 382.944456 293.432235 
L 383.103056 294.782738 
L 383.261657 293.927419 
L 383.420257 294.227531 
L 383.578857 294.167509 
L 383.737457 294.917788 
L 384.054657 293.732347 
L 384.213258 294.347576 
L 384.371858 294.032459 
L 384.847658 294.407598 
L 385.006258 293.852392 
L 385.323459 294.377587 
L 385.482059 293.762358 
L 385.640659 294.767732 
L 385.957859 293.252168 
L 386.27506 294.482626 
L 386.43366 294.527643 
L 386.59226 293.882403 
L 386.75086 295.488 
L 387.068061 293.387218 
L 387.226661 294.932793 
L 387.385261 292.77199 
L 387.702461 294.617676 
L 387.861061 292.5319 
L 388.019662 294.122492 
L 388.812662 293.807375 
L 388.971263 295.097855 
L 389.129863 294.392592 
L 389.447063 293.987442 
L 389.764263 293.282179 
L 389.922864 293.717341 
L 390.081464 294.497632 
L 390.240064 293.972436 
L 390.398664 293.972436 
L 390.557264 294.872771 
L 390.715864 293.522269 
L 390.874465 294.002447 
L 391.033065 293.402224 
L 391.191665 294.827754 
L 391.350265 293.852392 
L 391.508865 294.347576 
L 391.667465 293.567285 
L 391.826066 293.867397 
L 391.984666 293.462246 
L 392.143266 293.642313 
L 392.301866 293.432235 
L 392.460466 293.462246 
L 392.777667 295.157877 
L 392.936267 293.82238 
L 393.094867 294.272548 
L 393.253467 293.927419 
L 393.412067 292.741978 
L 393.570667 294.572659 
L 393.729268 294.06247 
L 393.887868 294.452615 
L 394.046468 294.182514 
L 394.205068 294.302559 
L 394.363668 295.488 
L 394.522269 294.167509 
L 394.680869 293.882403 
L 394.839469 293.957431 
L 394.998069 293.68733 
L 395.156669 294.947799 
L 395.315269 294.902782 
L 395.63247 293.537274 
L 395.79107 293.867397 
L 395.94967 293.792369 
L 396.10827 293.462246 
L 396.425471 294.287553 
L 396.584071 294.827754 
L 396.742671 294.242537 
L 396.901271 295.037833 
L 397.218471 292.621934 
L 397.377072 293.957431 
L 397.535672 292.982068 
L 397.694272 295.442983 
L 397.852872 293.522269 
L 398.011472 294.662693 
L 398.170072 294.587665 
L 398.328673 295.127866 
L 398.487273 292.711967 
L 398.487273 292.711967 
" style="fill:none;stroke:#1f77b4;stroke-linecap:square;stroke-width:1.5;"/>
   </g>
   <g id="patch_3">
    <path d="M 57.6 307.584 
L 57.6 41.472 
" style="fill:none;stroke:#000000;stroke-linecap:square;stroke-linejoin:miter;stroke-width:0.8;"/>
   </g>
   <g id="patch_4">
    <path d="M 414.72 307.584 
L 414.72 41.472 
" style="fill:none;stroke:#000000;stroke-linecap:square;stroke-linejoin:miter;stroke-width:0.8;"/>
   </g>
   <g id="patch_5">
    <path d="M 57.6 307.584 
L 414.72 307.584 
" style="fill:none;stroke:#000000;stroke-linecap:square;stroke-linejoin:miter;stroke-width:0.8;"/>
   </g>
   <g id="patch_6">
    <path d="M 57.6 41.472 
L 414.72 41.472 
" style="fill:none;stroke:#000000;stroke-linecap:square;stroke-linejoin:miter;stroke-width:0.8;"/>
   </g>
   <g id="text_16">
    <!-- Background subtracted -->
    <g transform="translate(166.075312 35.472)scale(0.12 -0.12)">
     <defs>
      <path d="M 1259 2228 
L 1259 519 
L 2272 519 
Q 2781 519 3026 730 
Q 3272 941 3272 1375 
Q 3272 1813 3026 2020 
Q 2781 2228 2272 2228 
L 1259 2228 
z
M 1259 4147 
L 1259 2741 
L 2194 2741 
Q 2656 2741 2882 2914 
Q 3109 3088 3109 3444 
Q 3109 3797 2882 3972 
Q 2656 4147 2194 4147 
L 1259 4147 
z
M 628 4666 
L 2241 4666 
Q 2963 4666 3353 4366 
Q 3744 4066 3744 3513 
Q 3744 3084 3544 2831 
Q 3344 2578 2956 2516 
Q 3422 2416 3680 2098 
Q 3938 1781 3938 1306 
Q 3938 681 3513 340 
Q 3088 0 2303 0 
L 628 0 
L 628 4666 
z
" id="DejaVuSans-42" transform="scale(0.015625)"/>
      <path d="M 3122 3366 
L 3122 2828 
Q 2878 2963 2633 3030 
Q 2388 3097 2138 3097 
Q 1578 3097 1268 2742 
Q 959 2388 959 1747 
Q 959 1106 1268 751 
Q 1578 397 2138 397 
Q 2388 397 2633 464 
Q 2878 531 3122 666 
L 3122 134 
Q 2881 22 2623 -34 
Q 2366 -91 2075 -91 
Q 1284 -91 818 406 
Q 353 903 353 1747 
Q 353 2603 823 3093 
Q 1294 3584 2113 3584 
Q 2378 3584 2631 3529 
Q 2884 3475 3122 3366 
z
" id="DejaVuSans-63" transform="scale(0.015625)"/>
      <path d="M 581 4863 
L 1159 4863 
L 1159 1991 
L 2875 3500 
L 3609 3500 
L 1753 1863 
L 3688 0 
L 2938 0 
L 1159 1709 
L 1159 0 
L 581 0 
L 581 4863 
z
" id="DejaVuSans-6b" transform="scale(0.015625)"/>
      <path d="M 2631 2963 
Q 2534 3019 2420 3045 
Q 2306 3072 2169 3072 
Q 1681 3072 1420 2755 
Q 1159 2438 1159 1844 
L 1159 0 
L 581 0 
L 581 3500 
L 1159 3500 
L 1159 2956 
Q 1341 3275 1631 3429 
Q 1922 3584 2338 3584 
Q 2397 3584 2469 3576 
Q 2541 3569 2628 3553 
L 2631 2963 
z
" id="DejaVuSans-72" transform="scale(0.015625)"/>
      <path d="M 2906 2969 
L 2906 4863 
L 3481 4863 
L 3481 0 
L 2906 0 
L 2906 525 
Q 2725 213 2448 61 
Q 2172 -91 1784 -91 
Q 1150 -91 751 415 
Q 353 922 353 1747 
Q 353 2572 751 3078 
Q 1150 3584 1784 3584 
Q 2172 3584 2448 3432 
Q 2725 3281 2906 2969 
z
M 947 1747 
Q 947 1113 1208 752 
Q 1469 391 1925 391 
Q 2381 391 2643 752 
Q 2906 1113 2906 1747 
Q 2906 2381 2643 2742 
Q 2381 3103 1925 3103 
Q 1469 3103 1208 2742 
Q 947 2381 947 1747 
z
" id="DejaVuSans-64" transform="scale(0.015625)"/>
      <path d="M 3116 1747 
Q 3116 2381 2855 2742 
Q 2594 3103 2138 3103 
Q 1681 3103 1420 2742 
Q 1159 2381 1159 1747 
Q 1159 1113 1420 752 
Q 1681 391 2138 391 
Q 2594 391 2855 752 
Q 3116 1113 3116 1747 
z
M 1159 2969 
Q 1341 3281 1617 3432 
Q 1894 3584 2278 3584 
Q 2916 3584 3314 3078 
Q 3713 2572 3713 1747 
Q 3713 922 3314 415 
Q 2916 -91 2278 -91 
Q 1894 -91 1617 61 
Q 1341 213 1159 525 
L 1159 0 
L 581 0 
L 581 4863 
L 1159 4863 
L 1159 2969 
z
" id="DejaVuSans-62" transform="scale(0.015625)"/>
     </defs>
     <use xlink:href="#DejaVuSans-42"/>
     <use x="68.603516" xlink:href="#DejaVuSans-61"/>
     <use x="129.882812" xlink:href="#DejaVuSans-63"/>
     <use x="184.863281" xlink:href="#DejaVuSans-6b"/>
     <use x="242.773438" xlink:href="#DejaVuSans-67"/>
     <use x="306.25" xlink:href="#DejaVuSans-72"/>
     <use x="345.113281" xlink:href="#DejaVuSans-6f"/>
     <use x="406.294922" xlink:href="#DejaVuSans-75"/>
     <use x="469.673828" xlink:href="#DejaVuSans-6e"/>
     <use x="533.052734" xlink:href="#DejaVuSans-64"/>
     <use x="596.529297" xlink:href="#DejaVuSans-20"/>
     <use x="628.316406" xlink:href="#DejaVuSans-73"/>
     <use x="680.416016" xlink:href="#DejaVuSans-75"/>
     <use x="743.794922" xlink:href="#DejaVuSans-62"/>
     <use x="807.271484" xlink:href="#DejaVuSans-74"/>
     <use x="846.480469" xlink:href="#DejaVuSans-72"/>
     <use x="887.59375" xlink:href="#DejaVuSans-61"/>
     <use x="948.873047" xlink:href="#DejaVuSans-63"/>
     <use x="1003.853516" xlink:href="#DejaVuSans-74"/>
     <use x="1043.0625" xlink:href="#DejaVuSans-65"/>
     <use x="1104.585938" xlink:href="#DejaVuSans-64"/>
    </g>
   </g>
  </g>
 </g>
 <defs>
  <clipPath id="pd2e6ab7761">
   <rect height="266.112" width="357.12" x="57.6" y="41.472"/>
  </clipPath>
 </defs>
</svg>
