<?xml version="1.0" encoding="utf-8" standalone="no"?>
<!DOCTYPE svg PUBLIC "-//W3C//DTD SVG 1.1//EN"
  "http://www.w3.org/Graphics/SVG/1.1/DTD/svg11.dtd">
<svg height="345.6pt" version="1.1" viewBox="0 0 460.8 345.6" width="460.8pt" xmlns="http://www.w3.org/2000/svg" xmlns:xlink="http://www.w3.org/1999/xlink">
 <metadata>
  <rdf:RDF xmlns:cc="http://creativecommons.org/ns#" xmlns:dc="http://purl.org/dc/elements/1.1/" xmlns:rdf="http://www.w3.org/1999/02/22-rdf-syntax-ns#">
   <cc:Work>
    <dc:type rdf:resource="http://purl.org/dc/dcmitype/StillImage"/>
    <dc:date>2022-06-03T23:54:24.396166</dc:date>
    <dc:format>image/svg+xml</dc:format>
    <dc:creator>
     <cc:Agent>
      <dc:title>Matplotlib v3.4.1, https://matplotlib.org/</dc:title>
     </cc:Agent>
    </dc:creator>
   </cc:Work>
  </rdf:RDF>
 </metadata>
 <defs>
  <style type="text/css">*{stroke-linecap:butt;stroke-linejoin:round;}</style>
 </defs>
 <g id="figure_1">
  <g id="patch_1">
   <path d="M 0 345.6 
L 460.8 345.6 
L 460.8 0 
L 0 0 
z
" style="fill:#ffffff;"/>
  </g>
  <g id="axes_1">
   <g id="patch_2">
    <path d="M 57.6 307.584 
L 414.72 307.584 
L 414.72 41.472 
L 57.6 41.472 
z
" style="fill:#ffffff;"/>
   </g>
   <g id="matplotlib.axis_1">
    <g id="xtick_1">
     <g id="line2d_1">
      <defs>
       <path d="M 0 0 
L 0 3.5 
" id="mb59197b1da" style="stroke:#000000;stroke-width:0.8;"/>
      </defs>
      <g>
       <use style="stroke:#000000;stroke-width:0.8;" x="102.929605" xlink:href="#mb59197b1da" y="307.584"/>
      </g>
     </g>
     <g id="text_1">
      <!-- 400 -->
      <g transform="translate(93.385855 322.182437)scale(0.1 -0.1)">
       <defs>
        <path d="M 2419 4116 
L 825 1625 
L 2419 1625 
L 2419 4116 
z
M 2253 4666 
L 3047 4666 
L 3047 1625 
L 3713 1625 
L 3713 1100 
L 3047 1100 
L 3047 0 
L 2419 0 
L 2419 1100 
L 313 1100 
L 313 1709 
L 2253 4666 
z
" id="DejaVuSans-34" transform="scale(0.015625)"/>
        <path d="M 2034 4250 
Q 1547 4250 1301 3770 
Q 1056 3291 1056 2328 
Q 1056 1369 1301 889 
Q 1547 409 2034 409 
Q 2525 409 2770 889 
Q 3016 1369 3016 2328 
Q 3016 3291 2770 3770 
Q 2525 4250 2034 4250 
z
M 2034 4750 
Q 2819 4750 3233 4129 
Q 3647 3509 3647 2328 
Q 3647 1150 3233 529 
Q 2819 -91 2034 -91 
Q 1250 -91 836 529 
Q 422 1150 422 2328 
Q 422 3509 836 4129 
Q 1250 4750 2034 4750 
z
" id="DejaVuSans-30" transform="scale(0.015625)"/>
       </defs>
       <use xlink:href="#DejaVuSans-34"/>
       <use x="63.623047" xlink:href="#DejaVuSans-30"/>
       <use x="127.246094" xlink:href="#DejaVuSans-30"/>
      </g>
     </g>
    </g>
    <g id="xtick_2">
     <g id="line2d_2">
      <g>
       <use style="stroke:#000000;stroke-width:0.8;" x="160.931952" xlink:href="#mb59197b1da" y="307.584"/>
      </g>
     </g>
     <g id="text_2">
      <!-- 600 -->
      <g transform="translate(151.388202 322.182437)scale(0.1 -0.1)">
       <defs>
        <path d="M 2113 2584 
Q 1688 2584 1439 2293 
Q 1191 2003 1191 1497 
Q 1191 994 1439 701 
Q 1688 409 2113 409 
Q 2538 409 2786 701 
Q 3034 994 3034 1497 
Q 3034 2003 2786 2293 
Q 2538 2584 2113 2584 
z
M 3366 4563 
L 3366 3988 
Q 3128 4100 2886 4159 
Q 2644 4219 2406 4219 
Q 1781 4219 1451 3797 
Q 1122 3375 1075 2522 
Q 1259 2794 1537 2939 
Q 1816 3084 2150 3084 
Q 2853 3084 3261 2657 
Q 3669 2231 3669 1497 
Q 3669 778 3244 343 
Q 2819 -91 2113 -91 
Q 1303 -91 875 529 
Q 447 1150 447 2328 
Q 447 3434 972 4092 
Q 1497 4750 2381 4750 
Q 2619 4750 2861 4703 
Q 3103 4656 3366 4563 
z
" id="DejaVuSans-36" transform="scale(0.015625)"/>
       </defs>
       <use xlink:href="#DejaVuSans-36"/>
       <use x="63.623047" xlink:href="#DejaVuSans-30"/>
       <use x="127.246094" xlink:href="#DejaVuSans-30"/>
      </g>
     </g>
    </g>
    <g id="xtick_3">
     <g id="line2d_3">
      <g>
       <use style="stroke:#000000;stroke-width:0.8;" x="218.9343" xlink:href="#mb59197b1da" y="307.584"/>
      </g>
     </g>
     <g id="text_3">
      <!-- 800 -->
      <g transform="translate(209.39055 322.182437)scale(0.1 -0.1)">
       <defs>
        <path d="M 2034 2216 
Q 1584 2216 1326 1975 
Q 1069 1734 1069 1313 
Q 1069 891 1326 650 
Q 1584 409 2034 409 
Q 2484 409 2743 651 
Q 3003 894 3003 1313 
Q 3003 1734 2745 1975 
Q 2488 2216 2034 2216 
z
M 1403 2484 
Q 997 2584 770 2862 
Q 544 3141 544 3541 
Q 544 4100 942 4425 
Q 1341 4750 2034 4750 
Q 2731 4750 3128 4425 
Q 3525 4100 3525 3541 
Q 3525 3141 3298 2862 
Q 3072 2584 2669 2484 
Q 3125 2378 3379 2068 
Q 3634 1759 3634 1313 
Q 3634 634 3220 271 
Q 2806 -91 2034 -91 
Q 1263 -91 848 271 
Q 434 634 434 1313 
Q 434 1759 690 2068 
Q 947 2378 1403 2484 
z
M 1172 3481 
Q 1172 3119 1398 2916 
Q 1625 2713 2034 2713 
Q 2441 2713 2670 2916 
Q 2900 3119 2900 3481 
Q 2900 3844 2670 4047 
Q 2441 4250 2034 4250 
Q 1625 4250 1398 4047 
Q 1172 3844 1172 3481 
z
" id="DejaVuSans-38" transform="scale(0.015625)"/>
       </defs>
       <use xlink:href="#DejaVuSans-38"/>
       <use x="63.623047" xlink:href="#DejaVuSans-30"/>
       <use x="127.246094" xlink:href="#DejaVuSans-30"/>
      </g>
     </g>
    </g>
    <g id="xtick_4">
     <g id="line2d_4">
      <g>
       <use style="stroke:#000000;stroke-width:0.8;" x="276.936647" xlink:href="#mb59197b1da" y="307.584"/>
      </g>
     </g>
     <g id="text_4">
      <!-- 1000 -->
      <g transform="translate(264.211647 322.182437)scale(0.1 -0.1)">
       <defs>
        <path d="M 794 531 
L 1825 531 
L 1825 4091 
L 703 3866 
L 703 4441 
L 1819 4666 
L 2450 4666 
L 2450 531 
L 3481 531 
L 3481 0 
L 794 0 
L 794 531 
z
" id="DejaVuSans-31" transform="scale(0.015625)"/>
       </defs>
       <use xlink:href="#DejaVuSans-31"/>
       <use x="63.623047" xlink:href="#DejaVuSans-30"/>
       <use x="127.246094" xlink:href="#DejaVuSans-30"/>
       <use x="190.869141" xlink:href="#DejaVuSans-30"/>
      </g>
     </g>
    </g>
    <g id="xtick_5">
     <g id="line2d_5">
      <g>
       <use style="stroke:#000000;stroke-width:0.8;" x="334.938995" xlink:href="#mb59197b1da" y="307.584"/>
      </g>
     </g>
     <g id="text_5">
      <!-- 1200 -->
      <g transform="translate(322.213995 322.182437)scale(0.1 -0.1)">
       <defs>
        <path d="M 1228 531 
L 3431 531 
L 3431 0 
L 469 0 
L 469 531 
Q 828 903 1448 1529 
Q 2069 2156 2228 2338 
Q 2531 2678 2651 2914 
Q 2772 3150 2772 3378 
Q 2772 3750 2511 3984 
Q 2250 4219 1831 4219 
Q 1534 4219 1204 4116 
Q 875 4013 500 3803 
L 500 4441 
Q 881 4594 1212 4672 
Q 1544 4750 1819 4750 
Q 2544 4750 2975 4387 
Q 3406 4025 3406 3419 
Q 3406 3131 3298 2873 
Q 3191 2616 2906 2266 
Q 2828 2175 2409 1742 
Q 1991 1309 1228 531 
z
" id="DejaVuSans-32" transform="scale(0.015625)"/>
       </defs>
       <use xlink:href="#DejaVuSans-31"/>
       <use x="63.623047" xlink:href="#DejaVuSans-32"/>
       <use x="127.246094" xlink:href="#DejaVuSans-30"/>
       <use x="190.869141" xlink:href="#DejaVuSans-30"/>
      </g>
     </g>
    </g>
    <g id="xtick_6">
     <g id="line2d_6">
      <g>
       <use style="stroke:#000000;stroke-width:0.8;" x="392.941342" xlink:href="#mb59197b1da" y="307.584"/>
      </g>
     </g>
     <g id="text_6">
      <!-- 1400 -->
      <g transform="translate(380.216342 322.182437)scale(0.1 -0.1)">
       <use xlink:href="#DejaVuSans-31"/>
       <use x="63.623047" xlink:href="#DejaVuSans-34"/>
       <use x="127.246094" xlink:href="#DejaVuSans-30"/>
       <use x="190.869141" xlink:href="#DejaVuSans-30"/>
      </g>
     </g>
    </g>
    <g id="text_7">
     <!-- Wavelength [nm] -->
     <g transform="translate(192.967812 335.860562)scale(0.1 -0.1)">
      <defs>
       <path d="M 213 4666 
L 850 4666 
L 1831 722 
L 2809 4666 
L 3519 4666 
L 4500 722 
L 5478 4666 
L 6119 4666 
L 4947 0 
L 4153 0 
L 3169 4050 
L 2175 0 
L 1381 0 
L 213 4666 
z
" id="DejaVuSans-57" transform="scale(0.015625)"/>
       <path d="M 2194 1759 
Q 1497 1759 1228 1600 
Q 959 1441 959 1056 
Q 959 750 1161 570 
Q 1363 391 1709 391 
Q 2188 391 2477 730 
Q 2766 1069 2766 1631 
L 2766 1759 
L 2194 1759 
z
M 3341 1997 
L 3341 0 
L 2766 0 
L 2766 531 
Q 2569 213 2275 61 
Q 1981 -91 1556 -91 
Q 1019 -91 701 211 
Q 384 513 384 1019 
Q 384 1609 779 1909 
Q 1175 2209 1959 2209 
L 2766 2209 
L 2766 2266 
Q 2766 2663 2505 2880 
Q 2244 3097 1772 3097 
Q 1472 3097 1187 3025 
Q 903 2953 641 2809 
L 641 3341 
Q 956 3463 1253 3523 
Q 1550 3584 1831 3584 
Q 2591 3584 2966 3190 
Q 3341 2797 3341 1997 
z
" id="DejaVuSans-61" transform="scale(0.015625)"/>
       <path d="M 191 3500 
L 800 3500 
L 1894 563 
L 2988 3500 
L 3597 3500 
L 2284 0 
L 1503 0 
L 191 3500 
z
" id="DejaVuSans-76" transform="scale(0.015625)"/>
       <path d="M 3597 1894 
L 3597 1613 
L 953 1613 
Q 991 1019 1311 708 
Q 1631 397 2203 397 
Q 2534 397 2845 478 
Q 3156 559 3463 722 
L 3463 178 
Q 3153 47 2828 -22 
Q 2503 -91 2169 -91 
Q 1331 -91 842 396 
Q 353 884 353 1716 
Q 353 2575 817 3079 
Q 1281 3584 2069 3584 
Q 2775 3584 3186 3129 
Q 3597 2675 3597 1894 
z
M 3022 2063 
Q 3016 2534 2758 2815 
Q 2500 3097 2075 3097 
Q 1594 3097 1305 2825 
Q 1016 2553 972 2059 
L 3022 2063 
z
" id="DejaVuSans-65" transform="scale(0.015625)"/>
       <path d="M 603 4863 
L 1178 4863 
L 1178 0 
L 603 0 
L 603 4863 
z
" id="DejaVuSans-6c" transform="scale(0.015625)"/>
       <path d="M 3513 2113 
L 3513 0 
L 2938 0 
L 2938 2094 
Q 2938 2591 2744 2837 
Q 2550 3084 2163 3084 
Q 1697 3084 1428 2787 
Q 1159 2491 1159 1978 
L 1159 0 
L 581 0 
L 581 3500 
L 1159 3500 
L 1159 2956 
Q 1366 3272 1645 3428 
Q 1925 3584 2291 3584 
Q 2894 3584 3203 3211 
Q 3513 2838 3513 2113 
z
" id="DejaVuSans-6e" transform="scale(0.015625)"/>
       <path d="M 2906 1791 
Q 2906 2416 2648 2759 
Q 2391 3103 1925 3103 
Q 1463 3103 1205 2759 
Q 947 2416 947 1791 
Q 947 1169 1205 825 
Q 1463 481 1925 481 
Q 2391 481 2648 825 
Q 2906 1169 2906 1791 
z
M 3481 434 
Q 3481 -459 3084 -895 
Q 2688 -1331 1869 -1331 
Q 1566 -1331 1297 -1286 
Q 1028 -1241 775 -1147 
L 775 -588 
Q 1028 -725 1275 -790 
Q 1522 -856 1778 -856 
Q 2344 -856 2625 -561 
Q 2906 -266 2906 331 
L 2906 616 
Q 2728 306 2450 153 
Q 2172 0 1784 0 
Q 1141 0 747 490 
Q 353 981 353 1791 
Q 353 2603 747 3093 
Q 1141 3584 1784 3584 
Q 2172 3584 2450 3431 
Q 2728 3278 2906 2969 
L 2906 3500 
L 3481 3500 
L 3481 434 
z
" id="DejaVuSans-67" transform="scale(0.015625)"/>
       <path d="M 1172 4494 
L 1172 3500 
L 2356 3500 
L 2356 3053 
L 1172 3053 
L 1172 1153 
Q 1172 725 1289 603 
Q 1406 481 1766 481 
L 2356 481 
L 2356 0 
L 1766 0 
Q 1100 0 847 248 
Q 594 497 594 1153 
L 594 3053 
L 172 3053 
L 172 3500 
L 594 3500 
L 594 4494 
L 1172 4494 
z
" id="DejaVuSans-74" transform="scale(0.015625)"/>
       <path d="M 3513 2113 
L 3513 0 
L 2938 0 
L 2938 2094 
Q 2938 2591 2744 2837 
Q 2550 3084 2163 3084 
Q 1697 3084 1428 2787 
Q 1159 2491 1159 1978 
L 1159 0 
L 581 0 
L 581 4863 
L 1159 4863 
L 1159 2956 
Q 1366 3272 1645 3428 
Q 1925 3584 2291 3584 
Q 2894 3584 3203 3211 
Q 3513 2838 3513 2113 
z
" id="DejaVuSans-68" transform="scale(0.015625)"/>
       <path id="DejaVuSans-20" transform="scale(0.015625)"/>
       <path d="M 550 4863 
L 1875 4863 
L 1875 4416 
L 1125 4416 
L 1125 -397 
L 1875 -397 
L 1875 -844 
L 550 -844 
L 550 4863 
z
" id="DejaVuSans-5b" transform="scale(0.015625)"/>
       <path d="M 3328 2828 
Q 3544 3216 3844 3400 
Q 4144 3584 4550 3584 
Q 5097 3584 5394 3201 
Q 5691 2819 5691 2113 
L 5691 0 
L 5113 0 
L 5113 2094 
Q 5113 2597 4934 2840 
Q 4756 3084 4391 3084 
Q 3944 3084 3684 2787 
Q 3425 2491 3425 1978 
L 3425 0 
L 2847 0 
L 2847 2094 
Q 2847 2600 2669 2842 
Q 2491 3084 2119 3084 
Q 1678 3084 1418 2786 
Q 1159 2488 1159 1978 
L 1159 0 
L 581 0 
L 581 3500 
L 1159 3500 
L 1159 2956 
Q 1356 3278 1631 3431 
Q 1906 3584 2284 3584 
Q 2666 3584 2933 3390 
Q 3200 3197 3328 2828 
z
" id="DejaVuSans-6d" transform="scale(0.015625)"/>
       <path d="M 1947 4863 
L 1947 -844 
L 622 -844 
L 622 -397 
L 1369 -397 
L 1369 4416 
L 622 4416 
L 622 4863 
L 1947 4863 
z
" id="DejaVuSans-5d" transform="scale(0.015625)"/>
      </defs>
      <use xlink:href="#DejaVuSans-57"/>
      <use x="92.501953" xlink:href="#DejaVuSans-61"/>
      <use x="153.78125" xlink:href="#DejaVuSans-76"/>
      <use x="212.960938" xlink:href="#DejaVuSans-65"/>
      <use x="274.484375" xlink:href="#DejaVuSans-6c"/>
      <use x="302.267578" xlink:href="#DejaVuSans-65"/>
      <use x="363.791016" xlink:href="#DejaVuSans-6e"/>
      <use x="427.169922" xlink:href="#DejaVuSans-67"/>
      <use x="490.646484" xlink:href="#DejaVuSans-74"/>
      <use x="529.855469" xlink:href="#DejaVuSans-68"/>
      <use x="593.234375" xlink:href="#DejaVuSans-20"/>
      <use x="625.021484" xlink:href="#DejaVuSans-5b"/>
      <use x="664.035156" xlink:href="#DejaVuSans-6e"/>
      <use x="727.414062" xlink:href="#DejaVuSans-6d"/>
      <use x="824.826172" xlink:href="#DejaVuSans-5d"/>
     </g>
    </g>
   </g>
   <g id="matplotlib.axis_2">
    <g id="ytick_1">
     <g id="line2d_7">
      <defs>
       <path d="M 0 0 
L -3.5 0 
" id="m816abc7281" style="stroke:#000000;stroke-width:0.8;"/>
      </defs>
      <g>
       <use style="stroke:#000000;stroke-width:0.8;" x="57.6" xlink:href="#m816abc7281" y="299.221611"/>
      </g>
     </g>
     <g id="text_8">
      <!-- 0 -->
      <g transform="translate(44.2375 303.02083)scale(0.1 -0.1)">
       <use xlink:href="#DejaVuSans-30"/>
      </g>
     </g>
    </g>
    <g id="ytick_2">
     <g id="line2d_8">
      <g>
       <use style="stroke:#000000;stroke-width:0.8;" x="57.6" xlink:href="#m816abc7281" y="261.735557"/>
      </g>
     </g>
     <g id="text_9">
      <!-- 10000 -->
      <g transform="translate(18.7875 265.534775)scale(0.1 -0.1)">
       <use xlink:href="#DejaVuSans-31"/>
       <use x="63.623047" xlink:href="#DejaVuSans-30"/>
       <use x="127.246094" xlink:href="#DejaVuSans-30"/>
       <use x="190.869141" xlink:href="#DejaVuSans-30"/>
       <use x="254.492188" xlink:href="#DejaVuSans-30"/>
      </g>
     </g>
    </g>
    <g id="ytick_3">
     <g id="line2d_9">
      <g>
       <use style="stroke:#000000;stroke-width:0.8;" x="57.6" xlink:href="#m816abc7281" y="224.249502"/>
      </g>
     </g>
     <g id="text_10">
      <!-- 20000 -->
      <g transform="translate(18.7875 228.048721)scale(0.1 -0.1)">
       <use xlink:href="#DejaVuSans-32"/>
       <use x="63.623047" xlink:href="#DejaVuSans-30"/>
       <use x="127.246094" xlink:href="#DejaVuSans-30"/>
       <use x="190.869141" xlink:href="#DejaVuSans-30"/>
       <use x="254.492188" xlink:href="#DejaVuSans-30"/>
      </g>
     </g>
    </g>
    <g id="ytick_4">
     <g id="line2d_10">
      <g>
       <use style="stroke:#000000;stroke-width:0.8;" x="57.6" xlink:href="#m816abc7281" y="186.763448"/>
      </g>
     </g>
     <g id="text_11">
      <!-- 30000 -->
      <g transform="translate(18.7875 190.562667)scale(0.1 -0.1)">
       <defs>
        <path d="M 2597 2516 
Q 3050 2419 3304 2112 
Q 3559 1806 3559 1356 
Q 3559 666 3084 287 
Q 2609 -91 1734 -91 
Q 1441 -91 1130 -33 
Q 819 25 488 141 
L 488 750 
Q 750 597 1062 519 
Q 1375 441 1716 441 
Q 2309 441 2620 675 
Q 2931 909 2931 1356 
Q 2931 1769 2642 2001 
Q 2353 2234 1838 2234 
L 1294 2234 
L 1294 2753 
L 1863 2753 
Q 2328 2753 2575 2939 
Q 2822 3125 2822 3475 
Q 2822 3834 2567 4026 
Q 2313 4219 1838 4219 
Q 1578 4219 1281 4162 
Q 984 4106 628 3988 
L 628 4550 
Q 988 4650 1302 4700 
Q 1616 4750 1894 4750 
Q 2613 4750 3031 4423 
Q 3450 4097 3450 3541 
Q 3450 3153 3228 2886 
Q 3006 2619 2597 2516 
z
" id="DejaVuSans-33" transform="scale(0.015625)"/>
       </defs>
       <use xlink:href="#DejaVuSans-33"/>
       <use x="63.623047" xlink:href="#DejaVuSans-30"/>
       <use x="127.246094" xlink:href="#DejaVuSans-30"/>
       <use x="190.869141" xlink:href="#DejaVuSans-30"/>
       <use x="254.492188" xlink:href="#DejaVuSans-30"/>
      </g>
     </g>
    </g>
    <g id="ytick_5">
     <g id="line2d_11">
      <g>
       <use style="stroke:#000000;stroke-width:0.8;" x="57.6" xlink:href="#m816abc7281" y="149.277394"/>
      </g>
     </g>
     <g id="text_12">
      <!-- 40000 -->
      <g transform="translate(18.7875 153.076613)scale(0.1 -0.1)">
       <use xlink:href="#DejaVuSans-34"/>
       <use x="63.623047" xlink:href="#DejaVuSans-30"/>
       <use x="127.246094" xlink:href="#DejaVuSans-30"/>
       <use x="190.869141" xlink:href="#DejaVuSans-30"/>
       <use x="254.492188" xlink:href="#DejaVuSans-30"/>
      </g>
     </g>
    </g>
    <g id="ytick_6">
     <g id="line2d_12">
      <g>
       <use style="stroke:#000000;stroke-width:0.8;" x="57.6" xlink:href="#m816abc7281" y="111.79134"/>
      </g>
     </g>
     <g id="text_13">
      <!-- 50000 -->
      <g transform="translate(18.7875 115.590558)scale(0.1 -0.1)">
       <defs>
        <path d="M 691 4666 
L 3169 4666 
L 3169 4134 
L 1269 4134 
L 1269 2991 
Q 1406 3038 1543 3061 
Q 1681 3084 1819 3084 
Q 2600 3084 3056 2656 
Q 3513 2228 3513 1497 
Q 3513 744 3044 326 
Q 2575 -91 1722 -91 
Q 1428 -91 1123 -41 
Q 819 9 494 109 
L 494 744 
Q 775 591 1075 516 
Q 1375 441 1709 441 
Q 2250 441 2565 725 
Q 2881 1009 2881 1497 
Q 2881 1984 2565 2268 
Q 2250 2553 1709 2553 
Q 1456 2553 1204 2497 
Q 953 2441 691 2322 
L 691 4666 
z
" id="DejaVuSans-35" transform="scale(0.015625)"/>
       </defs>
       <use xlink:href="#DejaVuSans-35"/>
       <use x="63.623047" xlink:href="#DejaVuSans-30"/>
       <use x="127.246094" xlink:href="#DejaVuSans-30"/>
       <use x="190.869141" xlink:href="#DejaVuSans-30"/>
       <use x="254.492188" xlink:href="#DejaVuSans-30"/>
      </g>
     </g>
    </g>
    <g id="ytick_7">
     <g id="line2d_13">
      <g>
       <use style="stroke:#000000;stroke-width:0.8;" x="57.6" xlink:href="#m816abc7281" y="74.305285"/>
      </g>
     </g>
     <g id="text_14">
      <!-- 60000 -->
      <g transform="translate(18.7875 78.104504)scale(0.1 -0.1)">
       <use xlink:href="#DejaVuSans-36"/>
       <use x="63.623047" xlink:href="#DejaVuSans-30"/>
       <use x="127.246094" xlink:href="#DejaVuSans-30"/>
       <use x="190.869141" xlink:href="#DejaVuSans-30"/>
       <use x="254.492188" xlink:href="#DejaVuSans-30"/>
      </g>
     </g>
    </g>
    <g id="text_15">
     <!-- Counts -->
     <g transform="translate(12.707812 191.981125)rotate(-90)scale(0.1 -0.1)">
      <defs>
       <path d="M 4122 4306 
L 4122 3641 
Q 3803 3938 3442 4084 
Q 3081 4231 2675 4231 
Q 1875 4231 1450 3742 
Q 1025 3253 1025 2328 
Q 1025 1406 1450 917 
Q 1875 428 2675 428 
Q 3081 428 3442 575 
Q 3803 722 4122 1019 
L 4122 359 
Q 3791 134 3420 21 
Q 3050 -91 2638 -91 
Q 1578 -91 968 557 
Q 359 1206 359 2328 
Q 359 3453 968 4101 
Q 1578 4750 2638 4750 
Q 3056 4750 3426 4639 
Q 3797 4528 4122 4306 
z
" id="DejaVuSans-43" transform="scale(0.015625)"/>
       <path d="M 1959 3097 
Q 1497 3097 1228 2736 
Q 959 2375 959 1747 
Q 959 1119 1226 758 
Q 1494 397 1959 397 
Q 2419 397 2687 759 
Q 2956 1122 2956 1747 
Q 2956 2369 2687 2733 
Q 2419 3097 1959 3097 
z
M 1959 3584 
Q 2709 3584 3137 3096 
Q 3566 2609 3566 1747 
Q 3566 888 3137 398 
Q 2709 -91 1959 -91 
Q 1206 -91 779 398 
Q 353 888 353 1747 
Q 353 2609 779 3096 
Q 1206 3584 1959 3584 
z
" id="DejaVuSans-6f" transform="scale(0.015625)"/>
       <path d="M 544 1381 
L 544 3500 
L 1119 3500 
L 1119 1403 
Q 1119 906 1312 657 
Q 1506 409 1894 409 
Q 2359 409 2629 706 
Q 2900 1003 2900 1516 
L 2900 3500 
L 3475 3500 
L 3475 0 
L 2900 0 
L 2900 538 
Q 2691 219 2414 64 
Q 2138 -91 1772 -91 
Q 1169 -91 856 284 
Q 544 659 544 1381 
z
M 1991 3584 
L 1991 3584 
z
" id="DejaVuSans-75" transform="scale(0.015625)"/>
       <path d="M 2834 3397 
L 2834 2853 
Q 2591 2978 2328 3040 
Q 2066 3103 1784 3103 
Q 1356 3103 1142 2972 
Q 928 2841 928 2578 
Q 928 2378 1081 2264 
Q 1234 2150 1697 2047 
L 1894 2003 
Q 2506 1872 2764 1633 
Q 3022 1394 3022 966 
Q 3022 478 2636 193 
Q 2250 -91 1575 -91 
Q 1294 -91 989 -36 
Q 684 19 347 128 
L 347 722 
Q 666 556 975 473 
Q 1284 391 1588 391 
Q 1994 391 2212 530 
Q 2431 669 2431 922 
Q 2431 1156 2273 1281 
Q 2116 1406 1581 1522 
L 1381 1569 
Q 847 1681 609 1914 
Q 372 2147 372 2553 
Q 372 3047 722 3315 
Q 1072 3584 1716 3584 
Q 2034 3584 2315 3537 
Q 2597 3491 2834 3397 
z
" id="DejaVuSans-73" transform="scale(0.015625)"/>
      </defs>
      <use xlink:href="#DejaVuSans-43"/>
      <use x="69.824219" xlink:href="#DejaVuSans-6f"/>
      <use x="131.005859" xlink:href="#DejaVuSans-75"/>
      <use x="194.384766" xlink:href="#DejaVuSans-6e"/>
      <use x="257.763672" xlink:href="#DejaVuSans-74"/>
      <use x="296.972656" xlink:href="#DejaVuSans-73"/>
     </g>
    </g>
   </g>
   <g id="line2d_14">
    <path clip-path="url(#p4171814f11)" d="M 73.832727 290.629807 
L 73.991327 291.574456 
L 74.149928 291.109629 
L 74.308528 288.005784 
L 74.467128 290.329919 
L 74.625728 289.340287 
L 74.784328 292.63906 
L 74.942928 292.069272 
L 75.101529 293.073898 
L 75.260129 291.949316 
L 75.418729 289.850097 
L 75.577329 290.974679 
L 75.894529 287.675906 
L 76.21173 288.860466 
L 76.37033 287.480979 
L 76.52893 290.554835 
L 76.68753 289.92507 
L 76.84613 292.833987 
L 77.163331 291.109629 
L 77.321931 291.21459 
L 77.480531 290.134991 
L 77.639131 285.89157 
L 77.797731 291.979305 
L 77.956332 284.796977 
L 78.114932 291.529473 
L 78.273532 288.155728 
L 78.432132 294.048536 
L 78.590732 292.908959 
L 78.749333 290.090008 
L 78.907933 293.223842 
L 79.066533 290.959685 
L 79.225133 290.344913 
L 79.700934 293.343798 
L 79.859534 292.23421 
L 80.018134 289.745136 
L 80.176734 292.953943 
L 80.335334 290.374902 
L 80.493934 291.799372 
L 80.652535 292.054277 
L 80.811135 292.908959 
L 80.969735 288.620555 
L 81.128335 290.749763 
L 81.286935 290.614813 
L 81.445535 292.069272 
L 81.762736 290.80974 
L 81.921336 287.615929 
L 82.079936 291.604445 
L 82.238536 291.004668 
L 82.555737 292.609071 
L 82.714337 292.624065 
L 82.872937 291.034657 
L 83.031537 293.688669 
L 83.190137 292.36916 
L 83.348737 289.445248 
L 83.507338 292.968937 
L 83.665938 290.704779 
L 83.824538 292.998926 
L 84.141738 288.410633 
L 84.300338 292.189227 
L 84.458939 291.124623 
L 84.776139 293.613697 
L 85.251939 288.545583 
L 85.41054 292.429138 
L 85.56914 291.619439 
L 85.72774 292.174233 
L 85.88634 290.764757 
L 86.04494 291.814367 
L 86.20354 293.92858 
L 86.362141 287.376018 
L 86.679341 292.36916 
L 86.996541 289.085382 
L 87.155141 290.974679 
L 87.313742 291.004668 
L 87.472342 288.980421 
L 87.789542 292.998926 
L 87.948142 286.446364 
L 88.106742 291.454501 
L 88.582543 293.208848 
L 88.741143 291.454501 
L 89.058343 293.463753 
L 89.375544 289.295304 
L 89.534144 294.303441 
L 89.692744 292.294188 
L 89.851344 293.688669 
L 90.009944 289.565203 
L 90.327145 293.448759 
L 90.485745 288.380644 
L 90.644345 293.403775 
L 90.961545 291.799372 
L 91.120146 292.803999 
L 91.278746 291.979305 
L 91.437346 292.054277 
L 91.595946 293.868602 
L 91.754546 291.274567 
L 91.913147 291.934322 
L 92.071747 290.43488 
L 92.230347 293.433764 
L 92.388947 293.658681 
L 92.547547 288.60556 
L 92.864748 293.01392 
L 93.023348 292.803999 
L 93.181948 294.288446 
L 93.340548 291.154612 
L 93.657748 293.763642 
L 93.816349 290.914701 
L 93.974949 290.524846 
L 94.133549 291.469495 
L 94.292149 291.499484 
L 94.609349 292.279194 
L 94.92655 292.12925 
L 95.08515 286.761247 
L 95.24375 290.704779 
L 95.40235 290.584824 
L 95.56095 291.514478 
L 95.719551 290.209964 
L 95.878151 293.55372 
L 96.036751 292.938948 
L 96.195351 291.694411 
L 96.353951 288.170722 
L 96.512551 291.109629 
L 96.671152 291.409517 
L 96.829752 289.070388 
L 96.988352 293.358792 
L 97.146952 292.174233 
L 97.305552 289.92507 
L 97.622753 292.204222 
L 97.781353 290.149986 
L 97.939953 290.899707 
L 98.098553 292.63906 
L 98.257153 290.03003 
L 98.415753 291.634434 
L 98.574354 291.439506 
L 98.732954 288.74051 
L 98.891554 289.265315 
L 99.050154 291.364534 
L 99.208754 290.464869 
L 99.367354 292.354166 
L 99.525955 291.199595 
L 99.684555 288.005784 
L 99.843155 292.77401 
L 100.001755 291.739395 
L 100.160355 292.204222 
L 100.318955 294.558346 
L 100.477556 292.249205 
L 100.636156 292.474121 
L 100.953356 287.72089 
L 101.111956 292.114255 
L 101.270556 289.730142 
L 101.429157 294.078524 
L 101.587757 292.519104 
L 101.746357 293.508736 
L 101.904957 288.050767 
L 102.222157 292.219216 
L 102.380758 292.699038 
L 102.539358 293.613697 
L 102.697958 291.964311 
L 102.856558 288.980421 
L 103.173758 293.568714 
L 103.490959 287.675906 
L 103.649559 292.324177 
L 103.808159 292.309183 
L 103.966759 291.304556 
L 104.12536 291.934322 
L 104.28396 289.730142 
L 104.44256 289.475237 
L 104.60116 290.179975 
L 104.91836 292.759015 
L 105.076961 290.974679 
L 105.235561 291.904333 
L 105.394161 287.705895 
L 105.711361 291.184601 
L 105.869961 291.259573 
L 106.028562 293.433764 
L 106.187162 291.874344 
L 106.345762 292.983932 
L 106.504362 293.14887 
L 106.980163 290.614813 
L 107.138763 292.759015 
L 107.297363 289.985047 
L 107.455963 290.524846 
L 107.614563 293.373787 
L 107.931764 289.850097 
L 108.090364 291.619439 
L 108.248964 291.259573 
L 108.407564 289.775125 
L 108.566164 293.613697 
L 108.724764 289.895081 
L 108.883365 291.21459 
L 109.200565 287.241068 
L 109.359165 279.833824 
L 109.517765 280.763478 
L 109.676365 279.638896 
L 109.834966 275.035609 
L 110.310766 279.638896 
L 110.627966 285.771615 
L 110.786567 286.851213 
L 110.945167 291.454501 
L 111.103767 288.170722 
L 111.420967 291.334545 
L 111.579567 292.099261 
L 111.738168 288.60556 
L 111.896768 293.208848 
L 112.055368 287.256062 
L 112.372568 288.74051 
L 112.531168 291.889339 
L 112.689769 291.124623 
L 112.848369 291.559462 
L 113.006969 292.36916 
L 113.165569 290.779752 
L 113.324169 292.054277 
L 113.79997 287.885828 
L 113.95857 290.719774 
L 114.11717 289.805114 
L 114.27577 291.319551 
L 114.43437 288.710521 
L 114.592971 291.649428 
L 114.751571 291.064646 
L 114.910171 291.244579 
L 115.227371 287.151102 
L 115.544572 291.379528 
L 115.703172 289.970053 
L 115.861772 286.581313 
L 116.178972 290.599819 
L 116.337573 282.727747 
L 116.496173 286.506341 
L 116.654773 285.906565 
L 116.813373 277.85456 
L 116.971973 288.380644 
L 117.130573 281.61816 
L 117.289174 283.732373 
L 117.606374 256.172626 
L 118.082174 178.441544 
L 118.399375 171.079283 
L 118.557975 178.846393 
L 118.716575 194.245665 
L 119.033775 241.628037 
L 119.509576 286.071503 
L 119.668176 287.001157 
L 119.826776 287.211079 
L 119.985376 288.050767 
L 120.302577 283.897312 
L 120.461177 288.455616 
L 120.778377 288.36565 
L 120.936977 278.259409 
L 121.095578 286.16147 
L 121.254178 287.286051 
L 121.729978 286.566319 
L 121.888578 288.170722 
L 122.047179 287.091124 
L 122.205779 287.555951 
L 122.364379 288.455616 
L 122.522979 287.990789 
L 122.681579 285.441737 
L 122.840179 288.2307 
L 122.99878 287.645917 
L 123.15738 288.320666 
L 123.47458 287.31604 
L 123.63318 289.220332 
L 123.79178 285.711637 
L 123.950381 284.961916 
L 124.108981 287.825851 
L 124.426181 286.116486 
L 124.584781 288.125739 
L 124.743381 284.437111 
L 124.901982 288.500599 
L 125.219182 285.231816 
L 125.377782 286.821224 
L 125.536382 287.046141 
L 125.694982 288.470611 
L 125.853583 279.803835 
L 126.012183 287.211079 
L 126.170783 286.266431 
L 126.329383 286.146475 
L 126.487983 286.716263 
L 126.646583 286.16147 
L 126.805184 286.686274 
L 126.963784 286.176464 
L 127.122384 286.236442 
L 127.280984 287.346029 
L 127.439584 289.79012 
L 127.598184 289.085382 
L 127.756785 287.705895 
L 127.915385 287.600934 
L 128.073985 289.895081 
L 128.391185 284.1972 
L 128.708386 287.945806 
L 128.866986 286.296419 
L 129.025586 288.74051 
L 129.184186 287.480979 
L 129.342786 287.600934 
L 129.501387 289.370276 
L 129.659987 288.785493 
L 129.977187 285.921559 
L 130.135787 287.361023 
L 130.452988 286.176464 
L 130.928788 275.14057 
L 131.721789 243.50234 
L 132.038989 232.301507 
L 132.35619 220.845769 
L 132.51479 226.573638 
L 132.67339 220.096048 
L 132.83199 225.344095 
L 132.99059 224.969235 
L 133.14919 229.737461 
L 133.466391 233.441083 
L 133.783591 237.369621 
L 133.942191 242.512708 
L 134.100791 243.202451 
L 134.259392 250.144869 
L 134.417992 252.019171 
L 134.576592 252.004177 
L 134.893792 255.632827 
L 135.210993 263.969726 
L 135.369593 268.483046 
L 135.528193 265.889012 
L 135.845393 277.269778 
L 136.003993 275.605397 
L 136.479794 283.192574 
L 136.796994 287.795862 
L 136.955594 287.705895 
L 137.114195 287.795862 
L 137.272795 289.415259 
L 137.589995 287.465984 
L 137.748595 289.430254 
L 137.907195 288.395639 
L 138.224396 290.779752 
L 138.382996 288.335661 
L 138.541596 290.509852 
L 138.700196 289.280309 
L 138.858796 291.469495 
L 139.017397 291.454501 
L 139.175997 287.870834 
L 139.334597 288.575572 
L 139.493197 291.049651 
L 139.651797 289.52022 
L 139.810397 289.175348 
L 139.968998 291.469495 
L 140.127598 291.244579 
L 140.286198 289.205337 
L 140.761998 291.334545 
L 140.920599 291.094634 
L 141.079199 289.625181 
L 141.237799 289.865092 
L 141.396399 289.340287 
L 141.554999 291.394523 
L 141.7136 290.80974 
L 141.8722 289.040399 
L 142.0308 291.904333 
L 142.1894 291.619439 
L 142.348 290.854724 
L 142.5066 287.72089 
L 142.665201 291.274567 
L 142.823801 289.745136 
L 143.141001 291.889339 
L 143.299601 287.540956 
L 143.458201 291.58945 
L 143.616802 289.52022 
L 143.775402 289.205337 
L 143.934002 290.719774 
L 144.092602 288.440622 
L 144.251202 289.985047 
L 144.568403 283.477468 
L 144.885603 285.51671 
L 145.837204 272.53154 
L 146.154404 257.552113 
L 146.313004 249.275192 
L 146.630205 209.345047 
L 147.423206 53.568 
L 148.533407 53.568 
L 148.692007 67.332879 
L 149.485008 194.185687 
L 149.802208 206.30118 
L 150.595209 248.525471 
L 150.753809 249.110254 
L 151.071009 265.619112 
L 151.22961 274.49581 
L 151.38821 275.035609 
L 151.54681 281.123344 
L 151.70541 281.978026 
L 151.86401 283.912306 
L 152.02261 281.963032 
L 152.498411 286.836219 
L 152.657011 285.876576 
L 152.815611 285.771615 
L 152.974211 284.916933 
L 153.132812 285.321782 
L 153.291412 288.500599 
L 153.450012 286.776241 
L 153.608612 288.350655 
L 153.767212 285.576687 
L 153.925812 287.675906 
L 154.084413 287.735884 
L 154.243013 288.74051 
L 154.401613 285.441737 
L 154.560213 288.440622 
L 154.718813 288.155728 
L 154.877414 290.509852 
L 155.036014 289.505226 
L 155.194614 287.555951 
L 155.353214 287.765873 
L 155.511814 288.185717 
L 155.670414 285.846587 
L 155.829015 287.046141 
L 156.304815 278.529309 
L 157.256416 238.284281 
L 157.415016 236.005129 
L 157.890817 223.739692 
L 158.525217 210.454634 
L 159.159618 197.244549 
L 159.476818 184.754196 
L 159.635419 188.487807 
L 159.794019 185.848788 
L 160.111219 191.621641 
L 160.90422 219.481276 
L 161.06282 219.541254 
L 161.38002 222.705077 
L 161.697221 230.817059 
L 162.173021 250.11488 
L 162.331621 252.169116 
L 162.490222 256.997319 
L 162.648822 255.078033 
L 162.807422 251.4044 
L 162.966022 250.789629 
L 163.124622 250.789629 
L 163.283222 248.480488 
L 164.076223 266.533772 
L 164.234823 268.812924 
L 164.393424 267.568387 
L 164.552024 269.937505 
L 164.710624 268.108186 
L 165.027824 262.080428 
L 165.345025 235.06048 
L 165.662225 150.446959 
L 165.979425 53.568 
L 167.248227 53.568 
L 167.406827 69.327137 
L 167.724027 146.863292 
L 168.041228 196.464839 
L 168.675628 230.14231 
L 168.834228 229.917394 
L 168.992829 228.882779 
L 169.310029 230.757081 
L 169.468629 229.707472 
L 169.627229 233.830938 
L 169.785829 234.55067 
L 170.10303 242.872574 
L 170.26163 241.178205 
L 170.42023 246.771124 
L 170.57883 246.051392 
L 170.73743 248.69041 
L 170.896031 248.990298 
L 171.054631 244.1471 
L 171.213231 243.322407 
L 171.530431 234.730603 
L 171.689031 234.535676 
L 171.847632 233.26115 
L 172.006232 234.580659 
L 172.640632 262.875133 
L 172.957833 276.400101 
L 173.116433 278.409354 
L 173.275033 282.847702 
L 173.433633 283.837334 
L 173.592233 285.681648 
L 173.750834 284.167212 
L 174.068034 284.1972 
L 174.226634 285.501715 
L 174.385234 285.411749 
L 174.543834 284.662028 
L 174.861035 288.080756 
L 175.019635 287.376018 
L 175.336835 284.077245 
L 175.495435 285.51671 
L 175.654036 285.081871 
L 175.812636 285.336776 
L 175.971236 284.392128 
L 176.129836 286.356397 
L 176.288436 285.201827 
L 176.447036 286.101492 
L 176.605637 283.882318 
L 176.764237 279.713868 
L 176.922837 279.219052 
L 177.081437 273.206289 
L 177.240037 276.145196 
L 177.398637 275.290514 
L 177.557238 275.965263 
L 177.715838 276.055229 
L 177.874438 276.819945 
L 178.350238 282.922675 
L 178.508839 285.126855 
L 178.667439 283.912306 
L 178.984639 285.036888 
L 179.143239 284.781983 
L 179.301839 288.290678 
L 179.46044 286.551325 
L 179.93624 288.935438 
L 180.253441 284.092239 
L 180.570641 280.898428 
L 180.729241 280.928417 
L 180.887841 284.572061 
L 181.046441 281.768104 
L 181.205042 283.942295 
L 181.363642 281.99302 
L 181.522242 286.641291 
L 181.680842 285.231816 
L 181.839442 285.726631 
L 181.998042 285.501715 
L 182.156643 286.80623 
L 182.315243 285.876576 
L 182.632443 282.382875 
L 182.791043 288.725516 
L 182.949643 285.081871 
L 183.108244 287.256062 
L 183.266844 286.716263 
L 183.584044 289.445248 
L 183.742644 288.920443 
L 183.901244 290.105003 
L 184.059845 286.356397 
L 184.218445 287.58594 
L 184.377045 287.525962 
L 184.535645 288.815482 
L 184.852845 285.936553 
L 185.170046 289.205337 
L 185.487246 286.656286 
L 185.645846 288.140733 
L 185.804446 284.062251 
L 186.121647 288.725516 
L 186.280247 288.440622 
L 186.438847 288.965427 
L 186.597447 285.876576 
L 186.756047 287.256062 
L 186.914648 286.131481 
L 187.073248 286.851213 
L 187.231848 282.577803 
L 187.549048 284.841961 
L 187.707648 285.261804 
L 187.866249 283.492463 
L 188.024849 284.901938 
L 188.183449 283.342518 
L 188.342049 288.60556 
L 188.500649 286.356397 
L 188.659249 287.570945 
L 188.81785 284.961916 
L 189.13505 286.566319 
L 189.45225 284.242184 
L 189.61085 288.200711 
L 189.769451 285.576687 
L 190.086651 289.055393 
L 190.245251 287.810856 
L 190.403851 289.92507 
L 190.562451 289.940064 
L 190.721052 288.620555 
L 190.879652 291.289562 
L 191.355452 287.765873 
L 191.514052 289.280309 
L 191.672653 288.950432 
L 191.831253 289.205337 
L 191.989853 286.611302 
L 192.148453 286.341403 
L 192.307053 285.171838 
L 192.782854 269.247762 
L 192.941454 270.102444 
L 193.100054 268.048208 
L 193.258654 263.774798 
L 193.417255 263.324965 
L 193.734455 264.434553 
L 193.893055 262.6952 
L 194.368856 270.372344 
L 194.686056 271.37697 
L 195.320457 282.877691 
L 195.479057 283.942295 
L 195.796257 290.090008 
L 195.954857 290.119997 
L 196.272058 293.28382 
L 196.430658 288.110745 
L 196.747858 292.63906 
L 196.906458 290.764757 
L 197.065058 291.514478 
L 197.223659 290.989673 
L 197.382259 289.760131 
L 197.540859 291.259573 
L 197.699459 290.524846 
L 197.858059 292.159238 
L 198.016659 290.254947 
L 198.17526 293.073898 
L 198.33386 283.612418 
L 198.49246 292.983932 
L 198.65106 289.640176 
L 198.80966 289.730142 
L 198.96826 291.904333 
L 199.126861 292.23421 
L 199.285461 291.499484 
L 199.602661 288.515594 
L 199.761261 289.835103 
L 199.919861 292.968937 
L 200.078462 292.534099 
L 200.237062 291.469495 
L 200.395662 291.244579 
L 200.554262 290.224958 
L 200.712862 292.12925 
L 200.871462 289.175348 
L 201.030063 290.179975 
L 201.188663 292.024289 
L 201.347263 287.72089 
L 201.505863 291.634434 
L 201.823063 292.624065 
L 201.981664 292.159238 
L 202.140264 293.208848 
L 202.298864 290.16498 
L 202.616064 291.694411 
L 202.933265 290.464869 
L 203.091865 289.775125 
L 203.250465 285.231816 
L 203.409065 290.314925 
L 203.567665 289.295304 
L 203.726265 292.878971 
L 203.884866 293.118881 
L 204.202066 290.629807 
L 204.360666 290.734768 
L 204.519266 292.863976 
L 204.677867 291.229584 
L 204.836467 291.919328 
L 204.995067 291.259573 
L 205.312267 292.564088 
L 205.470867 291.889339 
L 205.629468 293.028915 
L 205.788068 291.7244 
L 205.946668 288.485605 
L 206.263868 294.768268 
L 206.422468 290.914701 
L 206.581069 290.94469 
L 206.739669 293.523731 
L 206.898269 292.684043 
L 207.215469 288.2307 
L 207.374069 285.816598 
L 207.53267 287.840845 
L 207.69127 279.563924 
L 207.84987 282.232931 
L 208.00847 279.009131 
L 208.32567 282.247926 
L 208.484271 281.738115 
L 209.118671 288.905449 
L 209.277271 288.440622 
L 209.435872 290.254947 
L 209.594472 290.209964 
L 209.753072 291.844356 
L 209.911672 290.254947 
L 210.070272 290.209964 
L 210.228872 292.564088 
L 210.387473 291.979305 
L 210.546073 288.995415 
L 210.704673 289.415259 
L 210.863273 290.224958 
L 211.021873 289.38527 
L 211.180473 289.460242 
L 211.339074 289.880086 
L 211.497674 292.908959 
L 211.656274 292.953943 
L 211.814874 289.865092 
L 211.973474 292.099261 
L 212.132074 291.634434 
L 212.290675 291.574456 
L 212.449275 292.549093 
L 212.607875 292.264199 
L 212.766475 290.674791 
L 212.925075 292.564088 
L 213.083675 290.794746 
L 213.242276 292.189227 
L 213.559476 289.640176 
L 213.718076 293.613697 
L 213.876676 292.923954 
L 214.035276 291.379528 
L 214.511077 290.599819 
L 214.669677 293.688669 
L 214.828277 291.304556 
L 214.986877 293.41877 
L 215.621278 289.01041 
L 215.779878 291.919328 
L 215.938478 291.739395 
L 216.097079 290.075014 
L 216.572879 294.408402 
L 216.731479 290.794746 
L 216.890079 294.273452 
L 217.04868 291.07964 
L 217.52448 292.249205 
L 217.68308 291.919328 
L 217.841681 289.01041 
L 218.000281 292.354166 
L 218.158881 292.669049 
L 218.317481 290.674791 
L 218.476081 292.444132 
L 218.634681 292.429138 
L 218.793282 293.073898 
L 218.951882 291.439506 
L 219.110482 292.174233 
L 219.269082 293.643686 
L 219.427682 289.985047 
L 219.586282 292.998926 
L 219.744883 290.03003 
L 219.903483 291.169607 
L 220.062083 293.658681 
L 220.537883 288.725516 
L 220.855084 292.759015 
L 221.013684 290.56983 
L 221.172284 291.304556 
L 221.330884 289.430254 
L 221.489484 290.419885 
L 221.648085 290.359908 
L 222.282485 282.892686 
L 222.441085 273.985999 
L 222.599686 280.718495 
L 222.758286 281.528193 
L 222.916886 277.569666 
L 223.075486 284.33215 
L 223.709887 290.359908 
L 223.868487 290.899707 
L 224.027087 292.444132 
L 224.185687 289.775125 
L 224.344287 289.685159 
L 224.661488 292.204222 
L 224.820088 290.16498 
L 224.978688 291.979305 
L 225.137288 289.565203 
L 225.295888 292.878971 
L 225.613089 290.734768 
L 225.771689 290.764757 
L 225.930289 292.474121 
L 226.088889 292.429138 
L 226.40609 293.688669 
L 226.56469 287.975795 
L 226.72329 291.064646 
L 227.04049 291.559462 
L 227.516291 288.485605 
L 227.674891 289.715148 
L 227.833491 287.076129 
L 227.992091 289.340287 
L 228.150691 288.800488 
L 228.309292 287.660912 
L 228.626492 292.714032 
L 228.785092 290.854724 
L 228.943692 290.989673 
L 229.102292 290.554835 
L 229.260893 293.913586 
L 229.419493 291.34954 
L 229.578093 291.169607 
L 229.736693 293.523731 
L 229.895293 293.538725 
L 230.053894 288.665538 
L 230.212494 292.23421 
L 230.371094 290.524846 
L 230.529694 291.094634 
L 230.846894 294.70829 
L 231.005495 292.23421 
L 231.164095 294.003552 
L 231.322695 292.009294 
L 231.481295 291.649428 
L 231.798495 293.253831 
L 232.115696 289.880086 
L 232.432896 294.018547 
L 232.591496 293.958569 
L 232.750096 288.485605 
L 232.908697 292.983932 
L 233.067297 290.16498 
L 233.543097 294.57334 
L 233.701697 290.000042 
L 233.860298 293.613697 
L 234.018898 293.223842 
L 234.177498 292.36916 
L 234.336098 288.185717 
L 234.653298 294.048536 
L 234.811899 292.174233 
L 234.970499 293.433764 
L 235.129099 292.384155 
L 235.287699 293.328803 
L 235.446299 292.189227 
L 235.604899 294.483374 
L 235.7635 291.544467 
L 235.9221 292.818993 
L 236.0807 292.474121 
L 236.2393 288.245694 
L 236.5565 293.583708 
L 236.873701 291.7244 
L 237.032301 293.508736 
L 237.190901 291.094634 
L 237.349501 292.803999 
L 237.666702 290.614813 
L 237.825302 291.559462 
L 237.983902 268.558019 
L 238.142502 294.123508 
L 238.301102 293.028915 
L 238.459702 293.898591 
L 238.618303 291.319551 
L 238.776903 292.998926 
L 238.935503 291.139618 
L 239.094103 292.908959 
L 239.252703 292.50411 
L 239.411303 293.433764 
L 239.728504 292.36916 
L 239.887104 292.759015 
L 240.045704 294.408402 
L 240.204304 289.760131 
L 240.362904 291.814367 
L 240.680105 289.325293 
L 240.838705 291.649428 
L 240.997305 290.614813 
L 241.155905 292.069272 
L 241.314505 290.599819 
L 241.473106 291.21459 
L 241.631706 288.305672 
L 241.948906 290.56983 
L 242.107506 291.379528 
L 242.424707 287.495973 
L 242.583307 293.463753 
L 242.741907 288.470611 
L 242.900507 292.789004 
L 243.059107 290.449874 
L 243.217708 293.883597 
L 243.376308 293.28382 
L 243.534908 290.374902 
L 243.693508 293.403775 
L 243.852108 291.319551 
L 244.010708 291.469495 
L 244.169309 290.959685 
L 244.327909 293.268826 
L 244.645109 291.169607 
L 244.803709 293.55372 
L 244.962309 292.564088 
L 245.12091 292.624065 
L 245.27951 292.144244 
L 245.59671 288.050767 
L 245.75531 291.004668 
L 245.91391 289.835103 
L 246.072511 291.709406 
L 246.231111 287.780867 
L 246.389711 292.759015 
L 246.706911 290.719774 
L 246.865511 289.775125 
L 247.024112 292.833987 
L 247.341312 292.324177 
L 247.499912 292.399149 
L 247.658512 291.544467 
L 247.817112 294.378413 
L 247.975713 291.514478 
L 248.134313 294.378413 
L 248.292913 290.824735 
L 248.451513 292.024289 
L 248.610113 291.619439 
L 248.768713 292.36916 
L 248.927314 291.784378 
L 249.244514 293.238837 
L 249.403114 292.459127 
L 249.561714 289.715148 
L 249.720314 291.004668 
L 249.878915 294.108513 
L 250.037515 293.748647 
L 250.196115 288.545583 
L 250.354715 292.264199 
L 250.513315 292.444132 
L 250.671915 293.898591 
L 250.830516 292.549093 
L 250.989116 290.134991 
L 251.147716 291.934322 
L 251.306316 291.529473 
L 251.464916 291.604445 
L 251.623516 291.319551 
L 251.782117 291.844356 
L 251.940717 290.899707 
L 252.099317 293.853608 
L 252.416517 288.995415 
L 252.575117 293.838614 
L 252.733718 290.060019 
L 253.050918 293.058904 
L 253.209518 290.554835 
L 253.526718 293.343798 
L 253.685319 291.184601 
L 254.002519 294.318435 
L 254.161119 290.959685 
L 254.319719 291.289562 
L 254.478319 292.803999 
L 254.63692 290.269941 
L 254.95412 292.863976 
L 255.11272 292.294188 
L 255.27132 292.444132 
L 255.429921 293.373787 
L 255.747121 289.760131 
L 255.905721 294.213474 
L 256.064321 292.519104 
L 256.222921 292.354166 
L 256.381522 291.739395 
L 256.540122 295.098145 
L 256.698722 293.688669 
L 257.015922 289.745136 
L 257.333123 294.33343 
L 257.650323 292.219216 
L 257.808923 291.229584 
L 257.967523 294.213474 
L 258.284724 289.460242 
L 258.443324 292.519104 
L 258.919124 292.309183 
L 259.077724 295.488 
L 259.236325 292.968937 
L 259.394925 293.808625 
L 259.553525 291.154612 
L 259.870725 292.459127 
L 260.029325 292.863976 
L 260.346526 291.424512 
L 260.505126 292.519104 
L 260.663726 286.16147 
L 260.822326 294.318435 
L 261.139527 291.844356 
L 261.298127 292.384155 
L 261.456727 292.444132 
L 261.615327 293.508736 
L 261.773927 288.980421 
L 261.932527 293.358792 
L 262.091128 293.568714 
L 262.249728 293.313809 
L 262.408328 291.919328 
L 262.566928 293.403775 
L 262.725528 293.193853 
L 262.884128 293.913586 
L 263.042729 286.611302 
L 263.201329 294.018547 
L 263.518529 290.404891 
L 263.677129 291.334545 
L 263.835729 289.820109 
L 264.31153 293.673675 
L 264.47013 293.523731 
L 264.62873 294.618324 
L 264.945931 292.399149 
L 265.104531 293.01392 
L 265.263131 292.23421 
L 265.421731 289.250321 
L 265.738931 292.594077 
L 265.897532 292.549093 
L 266.056132 290.479863 
L 266.214732 293.043909 
L 266.373332 293.103887 
L 266.531932 290.524846 
L 266.690532 293.718658 
L 266.849133 287.31604 
L 267.007733 293.748647 
L 267.166333 290.000042 
L 267.324933 294.213474 
L 267.483533 293.193853 
L 267.642133 293.328803 
L 267.959334 290.80974 
L 268.117934 290.389897 
L 268.276534 288.09575 
L 268.593735 293.238837 
L 268.752335 291.964311 
L 268.910935 294.168491 
L 269.069535 291.904333 
L 269.228135 292.309183 
L 269.386735 288.935438 
L 269.545336 292.009294 
L 269.703936 291.334545 
L 269.862536 290.075014 
L 270.021136 290.719774 
L 270.179736 289.070388 
L 270.338336 292.519104 
L 270.496937 292.699038 
L 270.655537 293.688669 
L 271.131337 292.054277 
L 271.289937 293.433764 
L 271.448538 293.628692 
L 271.607138 291.604445 
L 271.765738 292.564088 
L 272.082938 290.209964 
L 272.241538 293.343798 
L 272.400139 292.144244 
L 272.558739 293.208848 
L 272.717339 293.14887 
L 273.193139 292.399149 
L 273.35174 292.759015 
L 273.51034 290.119997 
L 273.66894 293.508736 
L 273.82754 290.56983 
L 273.98614 290.060019 
L 274.14474 294.003552 
L 274.303341 293.598703 
L 274.461941 290.689785 
L 274.620541 292.714032 
L 274.779141 292.789004 
L 274.937741 290.449874 
L 275.254942 293.403775 
L 275.413542 289.895081 
L 275.572142 292.789004 
L 275.730742 291.34954 
L 275.889342 294.19848 
L 276.047942 292.219216 
L 276.206543 292.77401 
L 276.365143 291.814367 
L 276.682343 293.898591 
L 276.840943 293.313809 
L 276.999543 291.679417 
L 277.316744 293.073898 
L 277.475344 291.979305 
L 277.633944 289.310298 
L 277.792544 292.114255 
L 277.951144 291.979305 
L 278.109745 294.33343 
L 278.268345 288.905449 
L 278.426945 290.149986 
L 278.585545 293.838614 
L 278.744145 292.714032 
L 278.902745 293.748647 
L 279.061346 289.535215 
L 279.219946 293.223842 
L 279.378546 293.388781 
L 279.537146 289.850097 
L 279.695746 293.208848 
L 279.854346 293.388781 
L 280.171547 291.829361 
L 280.330147 289.355282 
L 280.647347 293.478747 
L 280.805948 293.133876 
L 280.964548 290.749763 
L 281.281748 291.694411 
L 281.598948 289.610187 
L 281.916149 292.114255 
L 282.074749 290.719774 
L 282.391949 292.444132 
L 282.550549 293.973563 
L 282.70915 289.760131 
L 282.86775 291.769383 
L 283.02635 291.964311 
L 283.18495 293.493742 
L 283.34355 291.379528 
L 283.50215 291.244579 
L 283.660751 293.253831 
L 283.819351 291.634434 
L 283.977951 291.424512 
L 284.136551 293.448759 
L 284.295151 289.025404 
L 284.453751 293.088893 
L 284.612352 293.568714 
L 284.770952 293.508736 
L 284.929552 291.454501 
L 285.088152 292.968937 
L 285.246752 293.28382 
L 285.405352 294.243463 
L 285.563953 292.294188 
L 285.722553 293.373787 
L 285.881153 293.508736 
L 286.039753 294.138502 
L 286.198353 292.744021 
L 286.356953 293.073898 
L 286.515554 290.959685 
L 286.674154 293.328803 
L 286.832754 292.294188 
L 286.991354 290.179975 
L 287.149954 291.7244 
L 287.308554 289.565203 
L 287.467155 291.094634 
L 287.625755 291.274567 
L 287.784355 289.175348 
L 287.942955 291.109629 
L 288.101555 289.220332 
L 288.418756 292.953943 
L 288.577356 292.039283 
L 288.735956 292.039283 
L 288.894556 288.050767 
L 289.053156 292.009294 
L 289.211756 292.339171 
L 289.370357 291.769383 
L 289.687557 292.77401 
L 289.846157 291.979305 
L 290.004757 292.114255 
L 290.163357 293.313809 
L 290.480558 290.194969 
L 290.797758 294.018547 
L 290.956358 291.109629 
L 291.114958 293.55372 
L 291.432159 292.77401 
L 291.590759 293.883597 
L 291.907959 289.985047 
L 292.066559 295.158123 
L 292.22516 292.833987 
L 292.38376 294.258457 
L 292.54236 288.09575 
L 292.70096 292.174233 
L 292.85956 292.669049 
L 293.018161 292.009294 
L 293.176761 292.099261 
L 293.335361 291.919328 
L 293.493961 293.508736 
L 293.652561 293.01392 
L 293.811161 291.634434 
L 293.969762 291.229584 
L 294.286962 293.01392 
L 294.445562 289.610187 
L 294.604162 291.979305 
L 294.762762 291.694411 
L 294.921363 293.718658 
L 295.079963 287.72089 
L 295.238563 289.280309 
L 295.397163 292.279194 
L 295.555763 291.034657 
L 295.714363 294.048536 
L 295.872964 291.7244 
L 296.190164 291.694411 
L 296.348764 292.684043 
L 296.665964 291.694411 
L 296.824565 291.664422 
L 296.983165 291.454501 
L 297.141765 290.869718 
L 297.300365 295.008179 
L 297.617565 290.03003 
L 297.776166 289.160354 
L 298.093366 293.14887 
L 298.251966 288.680533 
L 298.410566 291.649428 
L 298.569166 290.989673 
L 298.727767 291.484489 
L 298.886367 287.361023 
L 299.044967 293.118881 
L 299.203567 290.119997 
L 299.362167 289.835103 
L 299.679368 292.579082 
L 299.837968 292.354166 
L 299.996568 289.985047 
L 300.313768 294.348424 
L 300.472368 293.043909 
L 300.630969 293.913586 
L 300.789569 289.580198 
L 300.948169 289.355282 
L 301.106769 294.033541 
L 301.265369 290.43488 
L 301.423969 289.820109 
L 301.58257 292.384155 
L 301.74117 292.309183 
L 301.89977 290.839729 
L 302.05837 292.399149 
L 302.21697 291.064646 
L 302.37557 293.718658 
L 302.534171 293.658681 
L 302.692771 290.314925 
L 302.851371 289.670164 
L 303.009971 290.644802 
L 303.327171 294.213474 
L 303.485772 293.358792 
L 303.644372 293.898591 
L 303.802972 289.055393 
L 304.120172 294.858234 
L 304.278772 290.614813 
L 304.437373 292.654054 
L 304.595973 292.983932 
L 304.754573 290.734768 
L 305.071773 293.658681 
L 305.230373 293.088893 
L 305.388974 291.169607 
L 305.547574 294.288446 
L 305.706174 292.399149 
L 305.864774 293.193853 
L 306.023374 291.784378 
L 306.181975 292.489116 
L 306.499175 290.554835 
L 306.657775 292.204222 
L 306.816375 290.179975 
L 306.974975 292.729026 
L 307.133576 293.073898 
L 307.292176 291.439506 
L 307.450776 291.07964 
L 307.767976 292.759015 
L 307.926576 291.019662 
L 308.085177 291.754389 
L 308.243777 291.274567 
L 308.402377 291.664422 
L 308.560977 291.454501 
L 308.719577 290.000042 
L 308.878177 291.799372 
L 309.036778 291.679417 
L 309.195378 291.274567 
L 309.353978 288.065761 
L 309.512578 292.249205 
L 309.829778 291.004668 
L 309.988379 291.21459 
L 310.146979 293.598703 
L 310.305579 291.499484 
L 310.464179 293.55372 
L 310.781379 291.439506 
L 310.93998 284.482094 
L 311.09858 292.36916 
L 311.25718 292.069272 
L 311.41578 294.018547 
L 311.73298 288.530588 
L 311.891581 293.058904 
L 312.050181 294.123508 
L 312.208781 292.833987 
L 312.367381 289.310298 
L 312.525981 292.624065 
L 312.684581 292.189227 
L 312.843182 288.650544 
L 313.160382 293.043909 
L 313.318982 293.898591 
L 313.477582 291.184601 
L 313.636182 294.123508 
L 314.111983 291.694411 
L 314.270583 290.43488 
L 314.429183 290.284936 
L 314.587783 291.964311 
L 314.746384 292.204222 
L 314.904984 288.125739 
L 315.380784 292.159238 
L 315.539384 289.430254 
L 315.697985 290.16498 
L 315.856585 291.574456 
L 316.015185 291.409517 
L 316.173785 289.835103 
L 316.490985 293.823619 
L 316.649586 292.069272 
L 316.808186 293.043909 
L 316.966786 289.205337 
L 317.442586 293.253831 
L 317.601187 292.309183 
L 317.759787 293.193853 
L 317.918387 291.874344 
L 318.235587 292.099261 
L 318.394188 293.163865 
L 318.552788 293.343798 
L 318.869988 290.015036 
L 319.028588 292.189227 
L 319.187188 289.700153 
L 319.345789 292.923954 
L 319.504389 292.848982 
L 319.662989 288.800488 
L 319.821589 289.835103 
L 319.980189 289.565203 
L 320.138789 292.953943 
L 320.45599 290.599819 
L 320.61459 290.674791 
L 320.93179 293.388781 
L 321.09039 293.238837 
L 321.248991 294.423396 
L 321.566191 290.284936 
L 321.724791 290.479863 
L 321.883391 292.744021 
L 322.041991 290.704779 
L 322.359192 293.79363 
L 322.676392 291.649428 
L 322.834992 293.823619 
L 322.993592 293.343798 
L 323.152193 291.334545 
L 323.310793 291.514478 
L 323.469393 292.36916 
L 323.627993 291.814367 
L 323.786593 291.694411 
L 323.945193 293.568714 
L 324.103794 288.74051 
L 324.262394 291.964311 
L 324.420994 287.870834 
L 324.579594 292.534099 
L 324.738194 292.833987 
L 324.896794 291.604445 
L 325.055395 293.01392 
L 325.213995 289.895081 
L 325.372595 293.373787 
L 325.531195 292.893965 
L 325.689795 291.424512 
L 325.848395 287.990789 
L 326.006996 293.343798 
L 326.165596 291.274567 
L 326.324196 292.983932 
L 326.482796 293.268826 
L 326.641396 292.429138 
L 326.799996 293.133876 
L 326.958597 290.329919 
L 327.117197 293.133876 
L 327.275797 292.50411 
L 327.434397 289.070388 
L 327.592997 290.419885 
L 327.751597 288.815482 
L 327.910198 291.814367 
L 328.068798 290.03003 
L 328.227398 292.339171 
L 328.544598 289.085382 
L 328.703198 291.919328 
L 328.861799 291.919328 
L 329.178999 293.088893 
L 329.337599 288.410633 
L 329.496199 293.763642 
L 329.654799 289.970053 
L 329.8134 293.268826 
L 329.972 292.264199 
L 330.2892 293.103887 
L 330.4478 291.019662 
L 330.6064 293.478747 
L 330.765001 291.979305 
L 330.923601 291.9943 
L 331.082201 294.288446 
L 331.240801 290.644802 
L 331.399401 293.088893 
L 331.558002 289.92507 
L 331.716602 292.459127 
L 331.875202 291.904333 
L 332.033802 291.934322 
L 332.192402 291.694411 
L 332.351002 292.759015 
L 332.509603 289.205337 
L 332.668203 292.429138 
L 332.826803 293.133876 
L 332.985403 291.499484 
L 333.144003 292.294188 
L 333.302603 294.19848 
L 333.461204 290.974679 
L 333.619804 291.334545 
L 333.778404 290.449874 
L 334.095604 293.883597 
L 334.412805 292.654054 
L 334.571405 290.479863 
L 334.730005 293.988558 
L 334.888605 289.460242 
L 335.047205 290.149986 
L 335.205805 290.269941 
L 335.364406 292.23421 
L 335.523006 291.334545 
L 335.681606 293.01392 
L 335.998806 291.844356 
L 336.157406 293.433764 
L 336.316007 292.069272 
L 336.474607 291.694411 
L 336.633207 291.934322 
L 336.791807 292.77401 
L 337.109007 290.509852 
L 337.584808 294.258457 
L 337.743408 290.764757 
L 337.902008 289.805114 
L 338.060608 291.154612 
L 338.219209 288.965427 
L 338.536409 293.388781 
L 338.695009 290.779752 
L 338.853609 293.823619 
L 339.012209 292.294188 
L 339.17081 292.654054 
L 339.32941 291.199595 
L 339.48801 291.199595 
L 339.64661 292.324177 
L 339.80521 291.319551 
L 339.96381 289.475237 
L 340.122411 291.199595 
L 340.281011 289.910075 
L 340.439611 290.329919 
L 340.598211 293.403775 
L 340.756811 290.749763 
L 340.915411 290.929696 
L 341.074012 292.923954 
L 341.232612 290.80974 
L 341.391212 292.564088 
L 341.549812 290.899707 
L 341.708412 291.709406 
L 341.867012 289.865092 
L 342.025613 289.92507 
L 342.184213 290.404891 
L 342.342813 288.09575 
L 342.501413 290.869718 
L 342.818613 287.540956 
L 342.977214 288.485605 
L 343.453014 284.002273 
L 343.611614 279.309019 
L 343.928815 281.213311 
L 344.087415 277.374739 
L 344.246015 281.288283 
L 344.404615 281.663143 
L 344.563215 282.862697 
L 344.721816 280.133712 
L 344.880416 285.996531 
L 345.197616 286.641291 
L 345.356216 287.046141 
L 345.514816 285.996531 
L 345.673417 289.355282 
L 345.990617 287.690901 
L 346.149217 287.31604 
L 346.307817 286.626297 
L 346.625018 290.584824 
L 346.783618 290.899707 
L 346.942218 289.745136 
L 347.100818 290.149986 
L 347.259418 289.685159 
L 347.418018 289.640176 
L 347.576619 292.12925 
L 347.735219 290.524846 
L 347.893819 287.555951 
L 348.052419 290.80974 
L 348.211019 288.620555 
L 348.369619 288.845471 
L 348.52822 291.109629 
L 348.68682 291.529473 
L 348.84542 288.305672 
L 349.00402 287.421001 
L 349.16262 288.170722 
L 349.32122 290.884713 
L 349.479821 290.719774 
L 349.638421 291.304556 
L 349.797021 290.329919 
L 349.955621 288.60556 
L 350.114221 290.479863 
L 350.272821 288.350655 
L 350.590022 291.9943 
L 350.907222 289.205337 
L 351.065822 293.133876 
L 351.224422 291.964311 
L 351.383023 293.073898 
L 351.858823 288.395639 
L 352.017423 289.055393 
L 352.176023 291.229584 
L 352.334624 291.304556 
L 352.493224 288.395639 
L 352.651824 290.494858 
L 352.810424 289.595192 
L 352.969024 289.625181 
L 353.127624 292.249205 
L 353.444825 287.361023 
L 353.603425 288.725516 
L 353.920625 292.519104 
L 354.079225 291.919328 
L 354.237826 291.919328 
L 354.555026 289.160354 
L 354.713626 292.12925 
L 354.872226 290.194969 
L 355.030826 286.356397 
L 355.348027 291.139618 
L 355.506627 291.844356 
L 355.665227 288.755505 
L 355.823827 290.599819 
L 356.141028 291.124623 
L 356.299628 291.184601 
L 356.458228 289.100376 
L 356.616828 291.544467 
L 356.775428 290.749763 
L 356.934029 291.499484 
L 357.092629 288.830477 
L 357.409829 293.433764 
L 357.568429 289.715148 
L 357.727029 289.580198 
L 358.20283 293.538725 
L 358.36143 291.889339 
L 358.52003 292.474121 
L 358.67863 291.319551 
L 358.837231 291.814367 
L 358.995831 291.049651 
L 359.154431 291.439506 
L 359.313031 292.144244 
L 359.471631 290.584824 
L 359.788832 292.384155 
L 359.947432 292.309183 
L 360.106032 293.01392 
L 360.264632 291.049651 
L 360.423232 292.069272 
L 360.581832 291.364534 
L 360.740433 291.634434 
L 360.899033 287.945806 
L 361.057633 293.823619 
L 361.216233 286.836219 
L 361.374833 290.404891 
L 361.533433 290.749763 
L 361.692034 291.634434 
L 361.850634 290.56983 
L 362.009234 288.560577 
L 362.326434 291.364534 
L 362.485034 290.899707 
L 362.802235 293.01392 
L 363.119435 290.494858 
L 363.278035 287.825851 
L 363.595236 291.019662 
L 363.753836 288.890454 
L 363.912436 291.934322 
L 364.071036 291.964311 
L 364.388236 289.400265 
L 364.546837 292.534099 
L 364.705437 290.734768 
L 364.864037 291.199595 
L 365.022637 292.519104 
L 365.339837 289.730142 
L 365.498438 290.374902 
L 365.657038 289.865092 
L 365.974238 290.389897 
L 366.132838 291.889339 
L 366.291438 286.791235 
L 366.450039 290.149986 
L 366.608639 289.250321 
L 366.767239 289.370276 
L 366.925839 292.923954 
L 367.084439 291.769383 
L 367.40164 287.885828 
L 367.56024 291.394523 
L 367.71884 291.334545 
L 368.03604 288.815482 
L 368.511841 292.953943 
L 368.670441 291.7244 
L 368.829041 291.799372 
L 368.987641 289.340287 
L 369.146242 289.595192 
L 369.304842 291.85935 
L 369.463442 288.860466 
L 369.780642 292.429138 
L 369.939242 291.334545 
L 370.097843 288.470611 
L 370.256443 291.694411 
L 370.573643 291.424512 
L 370.732243 289.880086 
L 370.890843 292.354166 
L 371.049444 291.979305 
L 371.208044 290.584824 
L 371.366644 291.379528 
L 371.683844 288.965427 
L 371.842444 292.039283 
L 372.001045 289.01041 
L 372.159645 290.899707 
L 372.318245 291.049651 
L 372.476845 291.379528 
L 372.635445 290.389897 
L 372.794045 290.419885 
L 372.952646 292.054277 
L 373.111246 289.160354 
L 373.269846 292.953943 
L 373.428446 292.36916 
L 373.587046 292.818993 
L 373.904247 289.670164 
L 374.062847 289.715148 
L 374.221447 291.094634 
L 374.380047 288.380644 
L 374.697247 291.574456 
L 374.855848 290.764757 
L 375.014448 291.529473 
L 375.173048 290.869718 
L 375.331648 289.595192 
L 375.490248 290.659796 
L 375.648848 292.77401 
L 375.807449 289.610187 
L 375.966049 292.024289 
L 376.124649 291.21459 
L 376.283249 289.805114 
L 376.441849 289.715148 
L 376.600449 290.734768 
L 376.75905 290.899707 
L 377.07625 288.60556 
L 377.23485 291.829361 
L 377.39345 290.974679 
L 377.55205 292.084266 
L 377.710651 289.52022 
L 377.869251 290.674791 
L 378.027851 290.94469 
L 378.186451 290.16498 
L 378.345051 290.719774 
L 378.503651 289.025404 
L 378.662252 291.529473 
L 378.820852 290.29993 
L 378.979452 291.694411 
L 379.138052 289.880086 
L 379.296652 291.304556 
L 379.455252 291.634434 
L 379.613853 287.196085 
L 379.931053 290.674791 
L 380.089653 290.704779 
L 380.248253 292.039283 
L 380.406853 290.090008 
L 380.724054 289.670164 
L 380.882654 290.854724 
L 381.041254 288.635549 
L 381.199854 289.79012 
L 381.358455 289.820109 
L 381.517055 287.990789 
L 381.675655 290.29993 
L 381.834255 289.340287 
L 381.992855 291.754389 
L 382.310056 288.830477 
L 382.468656 290.464869 
L 382.627256 289.79012 
L 382.785856 287.705895 
L 382.944456 289.685159 
L 383.103056 286.566319 
L 383.261657 289.085382 
L 383.420257 288.710521 
L 383.737457 291.109629 
L 383.896057 290.224958 
L 384.054657 287.121113 
L 384.213258 289.505226 
L 384.530458 290.060019 
L 384.689058 289.250321 
L 384.847658 283.972284 
L 385.006258 289.340287 
L 385.164859 286.491347 
L 385.323459 290.359908 
L 385.482059 290.269941 
L 385.957859 286.731258 
L 386.11646 289.130365 
L 386.27506 288.995415 
L 386.43366 289.535215 
L 386.59226 287.945806 
L 386.90946 289.535215 
L 387.068061 288.650544 
L 387.226661 289.565203 
L 387.385261 287.091124 
L 387.543861 289.580198 
L 387.702461 290.194969 
L 387.861061 287.001157 
L 388.019662 290.989673 
L 388.178262 288.09575 
L 388.336862 289.235326 
L 388.654062 288.140733 
L 388.812662 289.235326 
L 388.971263 289.190343 
L 389.129863 287.870834 
L 389.288463 288.290678 
L 389.447063 286.746252 
L 389.605663 289.175348 
L 389.764263 286.851213 
L 389.922864 287.645917 
L 390.081464 287.016152 
L 390.240064 289.415259 
L 390.398664 284.916933 
L 390.557264 288.515594 
L 390.874465 286.011525 
L 391.033065 286.731258 
L 391.191665 286.281425 
L 391.350265 287.660912 
L 391.508865 281.738115 
L 391.826066 288.815482 
L 391.984666 287.061135 
L 392.143266 286.656286 
L 392.301866 285.051882 
L 392.460466 288.515594 
L 392.619066 285.771615 
L 392.777667 287.421001 
L 392.936267 285.906565 
L 393.094867 288.005784 
L 393.253467 286.641291 
L 393.412067 283.747368 
L 393.570667 286.641291 
L 393.729268 286.731258 
L 393.887868 284.482094 
L 394.046468 287.211079 
L 394.522269 284.946922 
L 394.839469 285.486721 
L 394.998069 286.056509 
L 395.156669 285.456732 
L 395.315269 282.367881 
L 395.47387 283.82234 
L 395.63247 282.187948 
L 395.79107 286.746252 
L 396.10827 281.798093 
L 396.26687 282.12797 
L 396.425471 285.696643 
L 396.742671 281.648149 
L 396.901271 284.407122 
L 397.059871 280.298651 
L 397.218471 282.577803 
L 397.377072 282.90768 
L 397.535672 279.159075 
L 397.694272 281.963032 
L 397.852872 277.029867 
L 398.170072 280.463589 
L 398.487273 277.419722 
L 398.487273 277.419722 
" style="fill:none;stroke:#1f77b4;stroke-linecap:square;stroke-width:1.5;"/>
   </g>
   <g id="patch_3">
    <path d="M 57.6 307.584 
L 57.6 41.472 
" style="fill:none;stroke:#000000;stroke-linecap:square;stroke-linejoin:miter;stroke-width:0.8;"/>
   </g>
   <g id="patch_4">
    <path d="M 414.72 307.584 
L 414.72 41.472 
" style="fill:none;stroke:#000000;stroke-linecap:square;stroke-linejoin:miter;stroke-width:0.8;"/>
   </g>
   <g id="patch_5">
    <path d="M 57.6 307.584 
L 414.72 307.584 
" style="fill:none;stroke:#000000;stroke-linecap:square;stroke-linejoin:miter;stroke-width:0.8;"/>
   </g>
   <g id="patch_6">
    <path d="M 57.6 41.472 
L 414.72 41.472 
" style="fill:none;stroke:#000000;stroke-linecap:square;stroke-linejoin:miter;stroke-width:0.8;"/>
   </g>
   <g id="text_16">
    <!-- Raw signal -->
    <g transform="translate(203.8875 35.472)scale(0.12 -0.12)">
     <defs>
      <path d="M 2841 2188 
Q 3044 2119 3236 1894 
Q 3428 1669 3622 1275 
L 4263 0 
L 3584 0 
L 2988 1197 
Q 2756 1666 2539 1819 
Q 2322 1972 1947 1972 
L 1259 1972 
L 1259 0 
L 628 0 
L 628 4666 
L 2053 4666 
Q 2853 4666 3247 4331 
Q 3641 3997 3641 3322 
Q 3641 2881 3436 2590 
Q 3231 2300 2841 2188 
z
M 1259 4147 
L 1259 2491 
L 2053 2491 
Q 2509 2491 2742 2702 
Q 2975 2913 2975 3322 
Q 2975 3731 2742 3939 
Q 2509 4147 2053 4147 
L 1259 4147 
z
" id="DejaVuSans-52" transform="scale(0.015625)"/>
      <path d="M 269 3500 
L 844 3500 
L 1563 769 
L 2278 3500 
L 2956 3500 
L 3675 769 
L 4391 3500 
L 4966 3500 
L 4050 0 
L 3372 0 
L 2619 2869 
L 1863 0 
L 1184 0 
L 269 3500 
z
" id="DejaVuSans-77" transform="scale(0.015625)"/>
      <path d="M 603 3500 
L 1178 3500 
L 1178 0 
L 603 0 
L 603 3500 
z
M 603 4863 
L 1178 4863 
L 1178 4134 
L 603 4134 
L 603 4863 
z
" id="DejaVuSans-69" transform="scale(0.015625)"/>
     </defs>
     <use xlink:href="#DejaVuSans-52"/>
     <use x="67.232422" xlink:href="#DejaVuSans-61"/>
     <use x="128.511719" xlink:href="#DejaVuSans-77"/>
     <use x="210.298828" xlink:href="#DejaVuSans-20"/>
     <use x="242.085938" xlink:href="#DejaVuSans-73"/>
     <use x="294.185547" xlink:href="#DejaVuSans-69"/>
     <use x="321.96875" xlink:href="#DejaVuSans-67"/>
     <use x="385.445312" xlink:href="#DejaVuSans-6e"/>
     <use x="448.824219" xlink:href="#DejaVuSans-61"/>
     <use x="510.103516" xlink:href="#DejaVuSans-6c"/>
    </g>
   </g>
  </g>
 </g>
 <defs>
  <clipPath id="p4171814f11">
   <rect height="266.112" width="357.12" x="57.6" y="41.472"/>
  </clipPath>
 </defs>
</svg>
