<?xml version="1.0" encoding="utf-8" standalone="no"?>
<!DOCTYPE svg PUBLIC "-//W3C//DTD SVG 1.1//EN"
  "http://www.w3.org/Graphics/SVG/1.1/DTD/svg11.dtd">
<svg height="345.6pt" version="1.1" viewBox="0 0 460.8 345.6" width="460.8pt" xmlns="http://www.w3.org/2000/svg" xmlns:xlink="http://www.w3.org/1999/xlink">
 <metadata>
  <rdf:RDF xmlns:cc="http://creativecommons.org/ns#" xmlns:dc="http://purl.org/dc/elements/1.1/" xmlns:rdf="http://www.w3.org/1999/02/22-rdf-syntax-ns#">
   <cc:Work>
    <dc:type rdf:resource="http://purl.org/dc/dcmitype/StillImage"/>
    <dc:date>2022-06-03T23:54:25.915650</dc:date>
    <dc:format>image/svg+xml</dc:format>
    <dc:creator>
     <cc:Agent>
      <dc:title>Matplotlib v3.4.1, https://matplotlib.org/</dc:title>
     </cc:Agent>
    </dc:creator>
   </cc:Work>
  </rdf:RDF>
 </metadata>
 <defs>
  <style type="text/css">*{stroke-linecap:butt;stroke-linejoin:round;}</style>
 </defs>
 <g id="figure_1">
  <g id="patch_1">
   <path d="M 0 345.6 
L 460.8 345.6 
L 460.8 0 
L 0 0 
z
" style="fill:#ffffff;"/>
  </g>
  <g id="axes_1">
   <g id="patch_2">
    <path d="M 57.6 307.584 
L 414.72 307.584 
L 414.72 41.472 
L 57.6 41.472 
z
" style="fill:#ffffff;"/>
   </g>
   <g id="matplotlib.axis_1">
    <g id="xtick_1">
     <g id="line2d_1">
      <defs>
       <path d="M 0 0 
L 0 3.5 
" id="mede7995d1d" style="stroke:#000000;stroke-width:0.8;"/>
      </defs>
      <g>
       <use style="stroke:#000000;stroke-width:0.8;" x="103.072447" xlink:href="#mede7995d1d" y="307.584"/>
      </g>
     </g>
     <g id="text_1">
      <!-- 400 -->
      <g transform="translate(93.528697 322.182437)scale(0.1 -0.1)">
       <defs>
        <path d="M 2419 4116 
L 825 1625 
L 2419 1625 
L 2419 4116 
z
M 2253 4666 
L 3047 4666 
L 3047 1625 
L 3713 1625 
L 3713 1100 
L 3047 1100 
L 3047 0 
L 2419 0 
L 2419 1100 
L 313 1100 
L 313 1709 
L 2253 4666 
z
" id="DejaVuSans-34" transform="scale(0.015625)"/>
        <path d="M 2034 4250 
Q 1547 4250 1301 3770 
Q 1056 3291 1056 2328 
Q 1056 1369 1301 889 
Q 1547 409 2034 409 
Q 2525 409 2770 889 
Q 3016 1369 3016 2328 
Q 3016 3291 2770 3770 
Q 2525 4250 2034 4250 
z
M 2034 4750 
Q 2819 4750 3233 4129 
Q 3647 3509 3647 2328 
Q 3647 1150 3233 529 
Q 2819 -91 2034 -91 
Q 1250 -91 836 529 
Q 422 1150 422 2328 
Q 422 3509 836 4129 
Q 1250 4750 2034 4750 
z
" id="DejaVuSans-30" transform="scale(0.015625)"/>
       </defs>
       <use xlink:href="#DejaVuSans-34"/>
       <use x="63.623047" xlink:href="#DejaVuSans-30"/>
       <use x="127.246094" xlink:href="#DejaVuSans-30"/>
      </g>
     </g>
    </g>
    <g id="xtick_2">
     <g id="line2d_2">
      <g>
       <use style="stroke:#000000;stroke-width:0.8;" x="161.359538" xlink:href="#mede7995d1d" y="307.584"/>
      </g>
     </g>
     <g id="text_2">
      <!-- 600 -->
      <g transform="translate(151.815788 322.182437)scale(0.1 -0.1)">
       <defs>
        <path d="M 2113 2584 
Q 1688 2584 1439 2293 
Q 1191 2003 1191 1497 
Q 1191 994 1439 701 
Q 1688 409 2113 409 
Q 2538 409 2786 701 
Q 3034 994 3034 1497 
Q 3034 2003 2786 2293 
Q 2538 2584 2113 2584 
z
M 3366 4563 
L 3366 3988 
Q 3128 4100 2886 4159 
Q 2644 4219 2406 4219 
Q 1781 4219 1451 3797 
Q 1122 3375 1075 2522 
Q 1259 2794 1537 2939 
Q 1816 3084 2150 3084 
Q 2853 3084 3261 2657 
Q 3669 2231 3669 1497 
Q 3669 778 3244 343 
Q 2819 -91 2113 -91 
Q 1303 -91 875 529 
Q 447 1150 447 2328 
Q 447 3434 972 4092 
Q 1497 4750 2381 4750 
Q 2619 4750 2861 4703 
Q 3103 4656 3366 4563 
z
" id="DejaVuSans-36" transform="scale(0.015625)"/>
       </defs>
       <use xlink:href="#DejaVuSans-36"/>
       <use x="63.623047" xlink:href="#DejaVuSans-30"/>
       <use x="127.246094" xlink:href="#DejaVuSans-30"/>
      </g>
     </g>
    </g>
    <g id="xtick_3">
     <g id="line2d_3">
      <g>
       <use style="stroke:#000000;stroke-width:0.8;" x="219.646629" xlink:href="#mede7995d1d" y="307.584"/>
      </g>
     </g>
     <g id="text_3">
      <!-- 800 -->
      <g transform="translate(210.102879 322.182437)scale(0.1 -0.1)">
       <defs>
        <path d="M 2034 2216 
Q 1584 2216 1326 1975 
Q 1069 1734 1069 1313 
Q 1069 891 1326 650 
Q 1584 409 2034 409 
Q 2484 409 2743 651 
Q 3003 894 3003 1313 
Q 3003 1734 2745 1975 
Q 2488 2216 2034 2216 
z
M 1403 2484 
Q 997 2584 770 2862 
Q 544 3141 544 3541 
Q 544 4100 942 4425 
Q 1341 4750 2034 4750 
Q 2731 4750 3128 4425 
Q 3525 4100 3525 3541 
Q 3525 3141 3298 2862 
Q 3072 2584 2669 2484 
Q 3125 2378 3379 2068 
Q 3634 1759 3634 1313 
Q 3634 634 3220 271 
Q 2806 -91 2034 -91 
Q 1263 -91 848 271 
Q 434 634 434 1313 
Q 434 1759 690 2068 
Q 947 2378 1403 2484 
z
M 1172 3481 
Q 1172 3119 1398 2916 
Q 1625 2713 2034 2713 
Q 2441 2713 2670 2916 
Q 2900 3119 2900 3481 
Q 2900 3844 2670 4047 
Q 2441 4250 2034 4250 
Q 1625 4250 1398 4047 
Q 1172 3844 1172 3481 
z
" id="DejaVuSans-38" transform="scale(0.015625)"/>
       </defs>
       <use xlink:href="#DejaVuSans-38"/>
       <use x="63.623047" xlink:href="#DejaVuSans-30"/>
       <use x="127.246094" xlink:href="#DejaVuSans-30"/>
      </g>
     </g>
    </g>
    <g id="xtick_4">
     <g id="line2d_4">
      <g>
       <use style="stroke:#000000;stroke-width:0.8;" x="277.933721" xlink:href="#mede7995d1d" y="307.584"/>
      </g>
     </g>
     <g id="text_4">
      <!-- 1000 -->
      <g transform="translate(265.208721 322.182437)scale(0.1 -0.1)">
       <defs>
        <path d="M 794 531 
L 1825 531 
L 1825 4091 
L 703 3866 
L 703 4441 
L 1819 4666 
L 2450 4666 
L 2450 531 
L 3481 531 
L 3481 0 
L 794 0 
L 794 531 
z
" id="DejaVuSans-31" transform="scale(0.015625)"/>
       </defs>
       <use xlink:href="#DejaVuSans-31"/>
       <use x="63.623047" xlink:href="#DejaVuSans-30"/>
       <use x="127.246094" xlink:href="#DejaVuSans-30"/>
       <use x="190.869141" xlink:href="#DejaVuSans-30"/>
      </g>
     </g>
    </g>
    <g id="xtick_5">
     <g id="line2d_5">
      <g>
       <use style="stroke:#000000;stroke-width:0.8;" x="336.220812" xlink:href="#mede7995d1d" y="307.584"/>
      </g>
     </g>
     <g id="text_5">
      <!-- 1200 -->
      <g transform="translate(323.495812 322.182437)scale(0.1 -0.1)">
       <defs>
        <path d="M 1228 531 
L 3431 531 
L 3431 0 
L 469 0 
L 469 531 
Q 828 903 1448 1529 
Q 2069 2156 2228 2338 
Q 2531 2678 2651 2914 
Q 2772 3150 2772 3378 
Q 2772 3750 2511 3984 
Q 2250 4219 1831 4219 
Q 1534 4219 1204 4116 
Q 875 4013 500 3803 
L 500 4441 
Q 881 4594 1212 4672 
Q 1544 4750 1819 4750 
Q 2544 4750 2975 4387 
Q 3406 4025 3406 3419 
Q 3406 3131 3298 2873 
Q 3191 2616 2906 2266 
Q 2828 2175 2409 1742 
Q 1991 1309 1228 531 
z
" id="DejaVuSans-32" transform="scale(0.015625)"/>
       </defs>
       <use xlink:href="#DejaVuSans-31"/>
       <use x="63.623047" xlink:href="#DejaVuSans-32"/>
       <use x="127.246094" xlink:href="#DejaVuSans-30"/>
       <use x="190.869141" xlink:href="#DejaVuSans-30"/>
      </g>
     </g>
    </g>
    <g id="xtick_6">
     <g id="line2d_6">
      <g>
       <use style="stroke:#000000;stroke-width:0.8;" x="394.507904" xlink:href="#mede7995d1d" y="307.584"/>
      </g>
     </g>
     <g id="text_6">
      <!-- 1400 -->
      <g transform="translate(381.782904 322.182437)scale(0.1 -0.1)">
       <use xlink:href="#DejaVuSans-31"/>
       <use x="63.623047" xlink:href="#DejaVuSans-34"/>
       <use x="127.246094" xlink:href="#DejaVuSans-30"/>
       <use x="190.869141" xlink:href="#DejaVuSans-30"/>
      </g>
     </g>
    </g>
    <g id="text_7">
     <!-- Wavelength [nm] -->
     <g transform="translate(192.967812 335.860562)scale(0.1 -0.1)">
      <defs>
       <path d="M 213 4666 
L 850 4666 
L 1831 722 
L 2809 4666 
L 3519 4666 
L 4500 722 
L 5478 4666 
L 6119 4666 
L 4947 0 
L 4153 0 
L 3169 4050 
L 2175 0 
L 1381 0 
L 213 4666 
z
" id="DejaVuSans-57" transform="scale(0.015625)"/>
       <path d="M 2194 1759 
Q 1497 1759 1228 1600 
Q 959 1441 959 1056 
Q 959 750 1161 570 
Q 1363 391 1709 391 
Q 2188 391 2477 730 
Q 2766 1069 2766 1631 
L 2766 1759 
L 2194 1759 
z
M 3341 1997 
L 3341 0 
L 2766 0 
L 2766 531 
Q 2569 213 2275 61 
Q 1981 -91 1556 -91 
Q 1019 -91 701 211 
Q 384 513 384 1019 
Q 384 1609 779 1909 
Q 1175 2209 1959 2209 
L 2766 2209 
L 2766 2266 
Q 2766 2663 2505 2880 
Q 2244 3097 1772 3097 
Q 1472 3097 1187 3025 
Q 903 2953 641 2809 
L 641 3341 
Q 956 3463 1253 3523 
Q 1550 3584 1831 3584 
Q 2591 3584 2966 3190 
Q 3341 2797 3341 1997 
z
" id="DejaVuSans-61" transform="scale(0.015625)"/>
       <path d="M 191 3500 
L 800 3500 
L 1894 563 
L 2988 3500 
L 3597 3500 
L 2284 0 
L 1503 0 
L 191 3500 
z
" id="DejaVuSans-76" transform="scale(0.015625)"/>
       <path d="M 3597 1894 
L 3597 1613 
L 953 1613 
Q 991 1019 1311 708 
Q 1631 397 2203 397 
Q 2534 397 2845 478 
Q 3156 559 3463 722 
L 3463 178 
Q 3153 47 2828 -22 
Q 2503 -91 2169 -91 
Q 1331 -91 842 396 
Q 353 884 353 1716 
Q 353 2575 817 3079 
Q 1281 3584 2069 3584 
Q 2775 3584 3186 3129 
Q 3597 2675 3597 1894 
z
M 3022 2063 
Q 3016 2534 2758 2815 
Q 2500 3097 2075 3097 
Q 1594 3097 1305 2825 
Q 1016 2553 972 2059 
L 3022 2063 
z
" id="DejaVuSans-65" transform="scale(0.015625)"/>
       <path d="M 603 4863 
L 1178 4863 
L 1178 0 
L 603 0 
L 603 4863 
z
" id="DejaVuSans-6c" transform="scale(0.015625)"/>
       <path d="M 3513 2113 
L 3513 0 
L 2938 0 
L 2938 2094 
Q 2938 2591 2744 2837 
Q 2550 3084 2163 3084 
Q 1697 3084 1428 2787 
Q 1159 2491 1159 1978 
L 1159 0 
L 581 0 
L 581 3500 
L 1159 3500 
L 1159 2956 
Q 1366 3272 1645 3428 
Q 1925 3584 2291 3584 
Q 2894 3584 3203 3211 
Q 3513 2838 3513 2113 
z
" id="DejaVuSans-6e" transform="scale(0.015625)"/>
       <path d="M 2906 1791 
Q 2906 2416 2648 2759 
Q 2391 3103 1925 3103 
Q 1463 3103 1205 2759 
Q 947 2416 947 1791 
Q 947 1169 1205 825 
Q 1463 481 1925 481 
Q 2391 481 2648 825 
Q 2906 1169 2906 1791 
z
M 3481 434 
Q 3481 -459 3084 -895 
Q 2688 -1331 1869 -1331 
Q 1566 -1331 1297 -1286 
Q 1028 -1241 775 -1147 
L 775 -588 
Q 1028 -725 1275 -790 
Q 1522 -856 1778 -856 
Q 2344 -856 2625 -561 
Q 2906 -266 2906 331 
L 2906 616 
Q 2728 306 2450 153 
Q 2172 0 1784 0 
Q 1141 0 747 490 
Q 353 981 353 1791 
Q 353 2603 747 3093 
Q 1141 3584 1784 3584 
Q 2172 3584 2450 3431 
Q 2728 3278 2906 2969 
L 2906 3500 
L 3481 3500 
L 3481 434 
z
" id="DejaVuSans-67" transform="scale(0.015625)"/>
       <path d="M 1172 4494 
L 1172 3500 
L 2356 3500 
L 2356 3053 
L 1172 3053 
L 1172 1153 
Q 1172 725 1289 603 
Q 1406 481 1766 481 
L 2356 481 
L 2356 0 
L 1766 0 
Q 1100 0 847 248 
Q 594 497 594 1153 
L 594 3053 
L 172 3053 
L 172 3500 
L 594 3500 
L 594 4494 
L 1172 4494 
z
" id="DejaVuSans-74" transform="scale(0.015625)"/>
       <path d="M 3513 2113 
L 3513 0 
L 2938 0 
L 2938 2094 
Q 2938 2591 2744 2837 
Q 2550 3084 2163 3084 
Q 1697 3084 1428 2787 
Q 1159 2491 1159 1978 
L 1159 0 
L 581 0 
L 581 4863 
L 1159 4863 
L 1159 2956 
Q 1366 3272 1645 3428 
Q 1925 3584 2291 3584 
Q 2894 3584 3203 3211 
Q 3513 2838 3513 2113 
z
" id="DejaVuSans-68" transform="scale(0.015625)"/>
       <path id="DejaVuSans-20" transform="scale(0.015625)"/>
       <path d="M 550 4863 
L 1875 4863 
L 1875 4416 
L 1125 4416 
L 1125 -397 
L 1875 -397 
L 1875 -844 
L 550 -844 
L 550 4863 
z
" id="DejaVuSans-5b" transform="scale(0.015625)"/>
       <path d="M 3328 2828 
Q 3544 3216 3844 3400 
Q 4144 3584 4550 3584 
Q 5097 3584 5394 3201 
Q 5691 2819 5691 2113 
L 5691 0 
L 5113 0 
L 5113 2094 
Q 5113 2597 4934 2840 
Q 4756 3084 4391 3084 
Q 3944 3084 3684 2787 
Q 3425 2491 3425 1978 
L 3425 0 
L 2847 0 
L 2847 2094 
Q 2847 2600 2669 2842 
Q 2491 3084 2119 3084 
Q 1678 3084 1418 2786 
Q 1159 2488 1159 1978 
L 1159 0 
L 581 0 
L 581 3500 
L 1159 3500 
L 1159 2956 
Q 1356 3278 1631 3431 
Q 1906 3584 2284 3584 
Q 2666 3584 2933 3390 
Q 3200 3197 3328 2828 
z
" id="DejaVuSans-6d" transform="scale(0.015625)"/>
       <path d="M 1947 4863 
L 1947 -844 
L 622 -844 
L 622 -397 
L 1369 -397 
L 1369 4416 
L 622 4416 
L 622 4863 
L 1947 4863 
z
" id="DejaVuSans-5d" transform="scale(0.015625)"/>
      </defs>
      <use xlink:href="#DejaVuSans-57"/>
      <use x="92.501953" xlink:href="#DejaVuSans-61"/>
      <use x="153.78125" xlink:href="#DejaVuSans-76"/>
      <use x="212.960938" xlink:href="#DejaVuSans-65"/>
      <use x="274.484375" xlink:href="#DejaVuSans-6c"/>
      <use x="302.267578" xlink:href="#DejaVuSans-65"/>
      <use x="363.791016" xlink:href="#DejaVuSans-6e"/>
      <use x="427.169922" xlink:href="#DejaVuSans-67"/>
      <use x="490.646484" xlink:href="#DejaVuSans-74"/>
      <use x="529.855469" xlink:href="#DejaVuSans-68"/>
      <use x="593.234375" xlink:href="#DejaVuSans-20"/>
      <use x="625.021484" xlink:href="#DejaVuSans-5b"/>
      <use x="664.035156" xlink:href="#DejaVuSans-6e"/>
      <use x="727.414062" xlink:href="#DejaVuSans-6d"/>
      <use x="824.826172" xlink:href="#DejaVuSans-5d"/>
     </g>
    </g>
   </g>
   <g id="matplotlib.axis_2">
    <g id="ytick_1">
     <g id="line2d_7">
      <defs>
       <path d="M 0 0 
L -3.5 0 
" id="m287c27b388" style="stroke:#000000;stroke-width:0.8;"/>
      </defs>
      <g>
       <use style="stroke:#000000;stroke-width:0.8;" x="57.6" xlink:href="#m287c27b388" y="295.151652"/>
      </g>
     </g>
     <g id="text_8">
      <!-- 0 -->
      <g transform="translate(44.2375 298.950871)scale(0.1 -0.1)">
       <use xlink:href="#DejaVuSans-30"/>
      </g>
     </g>
    </g>
    <g id="ytick_2">
     <g id="line2d_8">
      <g>
       <use style="stroke:#000000;stroke-width:0.8;" x="57.6" xlink:href="#m287c27b388" y="256.930261"/>
      </g>
     </g>
     <g id="text_9">
      <!-- 10000 -->
      <g transform="translate(18.7875 260.72948)scale(0.1 -0.1)">
       <use xlink:href="#DejaVuSans-31"/>
       <use x="63.623047" xlink:href="#DejaVuSans-30"/>
       <use x="127.246094" xlink:href="#DejaVuSans-30"/>
       <use x="190.869141" xlink:href="#DejaVuSans-30"/>
       <use x="254.492188" xlink:href="#DejaVuSans-30"/>
      </g>
     </g>
    </g>
    <g id="ytick_3">
     <g id="line2d_9">
      <g>
       <use style="stroke:#000000;stroke-width:0.8;" x="57.6" xlink:href="#m287c27b388" y="218.70887"/>
      </g>
     </g>
     <g id="text_10">
      <!-- 20000 -->
      <g transform="translate(18.7875 222.508089)scale(0.1 -0.1)">
       <use xlink:href="#DejaVuSans-32"/>
       <use x="63.623047" xlink:href="#DejaVuSans-30"/>
       <use x="127.246094" xlink:href="#DejaVuSans-30"/>
       <use x="190.869141" xlink:href="#DejaVuSans-30"/>
       <use x="254.492188" xlink:href="#DejaVuSans-30"/>
      </g>
     </g>
    </g>
    <g id="ytick_4">
     <g id="line2d_10">
      <g>
       <use style="stroke:#000000;stroke-width:0.8;" x="57.6" xlink:href="#m287c27b388" y="180.487479"/>
      </g>
     </g>
     <g id="text_11">
      <!-- 30000 -->
      <g transform="translate(18.7875 184.286698)scale(0.1 -0.1)">
       <defs>
        <path d="M 2597 2516 
Q 3050 2419 3304 2112 
Q 3559 1806 3559 1356 
Q 3559 666 3084 287 
Q 2609 -91 1734 -91 
Q 1441 -91 1130 -33 
Q 819 25 488 141 
L 488 750 
Q 750 597 1062 519 
Q 1375 441 1716 441 
Q 2309 441 2620 675 
Q 2931 909 2931 1356 
Q 2931 1769 2642 2001 
Q 2353 2234 1838 2234 
L 1294 2234 
L 1294 2753 
L 1863 2753 
Q 2328 2753 2575 2939 
Q 2822 3125 2822 3475 
Q 2822 3834 2567 4026 
Q 2313 4219 1838 4219 
Q 1578 4219 1281 4162 
Q 984 4106 628 3988 
L 628 4550 
Q 988 4650 1302 4700 
Q 1616 4750 1894 4750 
Q 2613 4750 3031 4423 
Q 3450 4097 3450 3541 
Q 3450 3153 3228 2886 
Q 3006 2619 2597 2516 
z
" id="DejaVuSans-33" transform="scale(0.015625)"/>
       </defs>
       <use xlink:href="#DejaVuSans-33"/>
       <use x="63.623047" xlink:href="#DejaVuSans-30"/>
       <use x="127.246094" xlink:href="#DejaVuSans-30"/>
       <use x="190.869141" xlink:href="#DejaVuSans-30"/>
       <use x="254.492188" xlink:href="#DejaVuSans-30"/>
      </g>
     </g>
    </g>
    <g id="ytick_5">
     <g id="line2d_11">
      <g>
       <use style="stroke:#000000;stroke-width:0.8;" x="57.6" xlink:href="#m287c27b388" y="142.266088"/>
      </g>
     </g>
     <g id="text_12">
      <!-- 40000 -->
      <g transform="translate(18.7875 146.065307)scale(0.1 -0.1)">
       <use xlink:href="#DejaVuSans-34"/>
       <use x="63.623047" xlink:href="#DejaVuSans-30"/>
       <use x="127.246094" xlink:href="#DejaVuSans-30"/>
       <use x="190.869141" xlink:href="#DejaVuSans-30"/>
       <use x="254.492188" xlink:href="#DejaVuSans-30"/>
      </g>
     </g>
    </g>
    <g id="ytick_6">
     <g id="line2d_12">
      <g>
       <use style="stroke:#000000;stroke-width:0.8;" x="57.6" xlink:href="#m287c27b388" y="104.044698"/>
      </g>
     </g>
     <g id="text_13">
      <!-- 50000 -->
      <g transform="translate(18.7875 107.843916)scale(0.1 -0.1)">
       <defs>
        <path d="M 691 4666 
L 3169 4666 
L 3169 4134 
L 1269 4134 
L 1269 2991 
Q 1406 3038 1543 3061 
Q 1681 3084 1819 3084 
Q 2600 3084 3056 2656 
Q 3513 2228 3513 1497 
Q 3513 744 3044 326 
Q 2575 -91 1722 -91 
Q 1428 -91 1123 -41 
Q 819 9 494 109 
L 494 744 
Q 775 591 1075 516 
Q 1375 441 1709 441 
Q 2250 441 2565 725 
Q 2881 1009 2881 1497 
Q 2881 1984 2565 2268 
Q 2250 2553 1709 2553 
Q 1456 2553 1204 2497 
Q 953 2441 691 2322 
L 691 4666 
z
" id="DejaVuSans-35" transform="scale(0.015625)"/>
       </defs>
       <use xlink:href="#DejaVuSans-35"/>
       <use x="63.623047" xlink:href="#DejaVuSans-30"/>
       <use x="127.246094" xlink:href="#DejaVuSans-30"/>
       <use x="190.869141" xlink:href="#DejaVuSans-30"/>
       <use x="254.492188" xlink:href="#DejaVuSans-30"/>
      </g>
     </g>
    </g>
    <g id="ytick_7">
     <g id="line2d_13">
      <g>
       <use style="stroke:#000000;stroke-width:0.8;" x="57.6" xlink:href="#m287c27b388" y="65.823307"/>
      </g>
     </g>
     <g id="text_14">
      <!-- 60000 -->
      <g transform="translate(18.7875 69.622526)scale(0.1 -0.1)">
       <use xlink:href="#DejaVuSans-36"/>
       <use x="63.623047" xlink:href="#DejaVuSans-30"/>
       <use x="127.246094" xlink:href="#DejaVuSans-30"/>
       <use x="190.869141" xlink:href="#DejaVuSans-30"/>
       <use x="254.492188" xlink:href="#DejaVuSans-30"/>
      </g>
     </g>
    </g>
    <g id="text_15">
     <!-- Counts -->
     <g transform="translate(12.707812 191.981125)rotate(-90)scale(0.1 -0.1)">
      <defs>
       <path d="M 4122 4306 
L 4122 3641 
Q 3803 3938 3442 4084 
Q 3081 4231 2675 4231 
Q 1875 4231 1450 3742 
Q 1025 3253 1025 2328 
Q 1025 1406 1450 917 
Q 1875 428 2675 428 
Q 3081 428 3442 575 
Q 3803 722 4122 1019 
L 4122 359 
Q 3791 134 3420 21 
Q 3050 -91 2638 -91 
Q 1578 -91 968 557 
Q 359 1206 359 2328 
Q 359 3453 968 4101 
Q 1578 4750 2638 4750 
Q 3056 4750 3426 4639 
Q 3797 4528 4122 4306 
z
" id="DejaVuSans-43" transform="scale(0.015625)"/>
       <path d="M 1959 3097 
Q 1497 3097 1228 2736 
Q 959 2375 959 1747 
Q 959 1119 1226 758 
Q 1494 397 1959 397 
Q 2419 397 2687 759 
Q 2956 1122 2956 1747 
Q 2956 2369 2687 2733 
Q 2419 3097 1959 3097 
z
M 1959 3584 
Q 2709 3584 3137 3096 
Q 3566 2609 3566 1747 
Q 3566 888 3137 398 
Q 2709 -91 1959 -91 
Q 1206 -91 779 398 
Q 353 888 353 1747 
Q 353 2609 779 3096 
Q 1206 3584 1959 3584 
z
" id="DejaVuSans-6f" transform="scale(0.015625)"/>
       <path d="M 544 1381 
L 544 3500 
L 1119 3500 
L 1119 1403 
Q 1119 906 1312 657 
Q 1506 409 1894 409 
Q 2359 409 2629 706 
Q 2900 1003 2900 1516 
L 2900 3500 
L 3475 3500 
L 3475 0 
L 2900 0 
L 2900 538 
Q 2691 219 2414 64 
Q 2138 -91 1772 -91 
Q 1169 -91 856 284 
Q 544 659 544 1381 
z
M 1991 3584 
L 1991 3584 
z
" id="DejaVuSans-75" transform="scale(0.015625)"/>
       <path d="M 2834 3397 
L 2834 2853 
Q 2591 2978 2328 3040 
Q 2066 3103 1784 3103 
Q 1356 3103 1142 2972 
Q 928 2841 928 2578 
Q 928 2378 1081 2264 
Q 1234 2150 1697 2047 
L 1894 2003 
Q 2506 1872 2764 1633 
Q 3022 1394 3022 966 
Q 3022 478 2636 193 
Q 2250 -91 1575 -91 
Q 1294 -91 989 -36 
Q 684 19 347 128 
L 347 722 
Q 666 556 975 473 
Q 1284 391 1588 391 
Q 1994 391 2212 530 
Q 2431 669 2431 922 
Q 2431 1156 2273 1281 
Q 2116 1406 1581 1522 
L 1381 1569 
Q 847 1681 609 1914 
Q 372 2147 372 2553 
Q 372 3047 722 3315 
Q 1072 3584 1716 3584 
Q 2034 3584 2315 3537 
Q 2597 3491 2834 3397 
z
" id="DejaVuSans-73" transform="scale(0.015625)"/>
      </defs>
      <use xlink:href="#DejaVuSans-43"/>
      <use x="69.824219" xlink:href="#DejaVuSans-6f"/>
      <use x="131.005859" xlink:href="#DejaVuSans-75"/>
      <use x="194.384766" xlink:href="#DejaVuSans-6e"/>
      <use x="257.763672" xlink:href="#DejaVuSans-74"/>
      <use x="296.972656" xlink:href="#DejaVuSans-73"/>
     </g>
    </g>
   </g>
   <g id="line2d_14">
    <path clip-path="url(#pe074bdcf48)" d="M 73.832727 295.131777 
L 74.151485 295.254085 
L 74.470242 295.092026 
L 74.789 295.237268 
L 75.107757 295.263258 
L 75.426515 295.098142 
L 75.745272 295.058392 
L 76.06403 295.157767 
L 76.382788 295.144007 
L 76.701545 295.07368 
L 77.020303 295.177642 
L 77.498439 295.007939 
L 77.657818 295.040045 
L 77.976575 294.891746 
L 78.454711 294.951372 
L 78.773469 294.868813 
L 79.410984 294.908564 
L 79.729742 295.009468 
L 79.88912 294.928439 
L 80.526635 295.159296 
L 80.686014 295.084382 
L 81.004772 295.156238 
L 81.642287 295.078267 
L 82.120423 295.046161 
L 82.439181 295.124132 
L 82.757938 294.988064 
L 83.554832 295.197517 
L 83.87359 295.098142 
L 84.032968 294.986535 
L 84.351726 294.977362 
L 84.829862 294.865756 
L 84.989241 294.714399 
L 85.467377 294.761794 
L 85.945513 295.032401 
L 86.104892 294.897862 
L 86.583029 295.029343 
L 87.061165 294.997237 
L 87.379922 295.044632 
L 87.539301 294.963603 
L 87.69868 295.12719 
L 88.017437 295.036988 
L 88.654952 295.052276 
L 89.292468 294.841294 
L 89.611225 294.974305 
L 90.24874 294.790842 
L 90.567498 294.75262 
L 90.886255 294.963603 
L 91.52377 295.12719 
L 92.161285 295.241854 
L 92.639422 294.998766 
L 92.958179 294.92691 
L 93.595694 294.80613 
L 94.07383 294.884102 
L 94.551967 294.955958 
L 94.870724 294.972776 
L 95.189482 295.038516 
L 95.667618 294.881044 
L 96.145754 294.881044 
L 97.580163 294.770967 
L 98.217678 294.248098 
L 99.014572 294.147194 
L 100.130224 294.786255 
L 100.927117 294.922323 
L 103.317799 294.954429 
L 103.636556 294.929968 
L 103.955314 294.881044 
L 104.43345 294.896333 
L 106.027238 294.907035 
L 106.186617 294.761794 
L 106.505374 294.769438 
L 107.621026 294.431561 
L 107.780404 294.306195 
L 107.939783 293.815432 
L 108.258541 291.748419 
L 109.214813 284.426729 
L 109.374192 284.004765 
L 109.533571 283.997121 
L 109.852328 285.727786 
L 110.96798 293.49743 
L 111.127358 293.812374 
L 111.286737 293.81849 
L 111.605495 293.971375 
L 112.402389 293.427103 
L 112.561767 293.217649 
L 112.880525 293.138149 
L 114.633691 292.318682 
L 114.952449 292.069479 
L 115.271206 291.887545 
L 115.908721 291.237781 
L 116.0681 290.574258 
L 116.227479 288.719756 
L 116.386858 285.201859 
L 116.705615 269.388905 
L 117.661888 208.22092 
L 117.821267 205.183084 
L 117.980645 205.476625 
L 118.140024 210.709897 
L 118.61816 242.63699 
L 119.255675 280.934823 
L 119.574433 288.774795 
L 119.733812 289.791484 
L 119.893191 289.952014 
L 120.371327 289.979533 
L 120.530706 290.120188 
L 121.008842 289.988706 
L 121.327599 289.953543 
L 121.805736 289.733387 
L 121.965114 289.779253 
L 122.283872 289.652358 
L 122.60263 289.705868 
L 122.762008 289.6493 
L 123.399523 289.898504 
L 123.87766 289.788426 
L 124.355796 289.736445 
L 125.312069 289.501001 
L 125.471447 289.594262 
L 126.108962 289.426087 
L 126.42772 289.499472 
L 126.587099 289.525463 
L 126.905856 289.788426 
L 127.065235 289.765493 
L 127.70275 290.034572 
L 128.659023 290.107957 
L 129.296538 289.575915 
L 129.615295 288.372706 
L 129.934053 285.269129 
L 130.25281 280.242252 
L 130.571568 272.399222 
L 132.005977 230.537626 
L 132.165355 229.173887 
L 132.324734 228.829894 
L 132.484113 229.134137 
L 132.802871 232.25606 
L 133.281007 239.669481 
L 135.831067 281.852137 
L 136.309203 286.984505 
L 136.627961 289.407741 
L 137.106097 291.15981 
L 137.743612 292.002209 
L 138.859264 292.078652 
L 139.496779 292.263643 
L 140.931188 293.008196 
L 141.88746 293.688537 
L 142.684354 293.628912 
L 143.321869 292.827791 
L 143.640627 291.65363 
L 144.278142 288.409398 
L 144.596899 285.964758 
L 144.915657 282.212947 
L 145.234414 275.692377 
L 145.553172 262.545748 
L 145.871929 237.640689 
L 146.509444 155.27665 
L 147.146959 80.751053 
L 147.465717 59.27216 
L 147.625096 55.376636 
L 147.784474 57.436005 
L 148.103232 74.901652 
L 148.581368 116.578256 
L 149.69702 219.393797 
L 150.334535 249.882236 
L 150.97205 272.712638 
L 151.450186 282.385707 
L 151.768944 285.684978 
L 152.087701 287.369777 
L 152.565837 288.761035 
L 152.884595 289.481126 
L 154.159625 290.617066 
L 154.319004 290.592604 
L 154.637761 290.360218 
L 154.79714 290.204275 
L 155.115898 289.236509 
L 155.434655 286.669561 
L 155.753413 281.801684 
L 156.231549 269.765004 
L 158.144094 212.558284 
L 158.781609 199.430001 
L 159.100367 195.482495 
L 159.259746 194.669144 
L 159.419124 194.90153 
L 159.578503 195.841776 
L 159.897261 200.356487 
L 160.534776 214.056562 
L 161.969185 246.916257 
L 162.447321 252.959823 
L 163.403594 260.856362 
L 163.88173 266.193597 
L 164.041109 267.144545 
L 164.200487 266.933563 
L 164.359866 264.560779 
L 164.519245 258.327635 
L 164.838002 227.856013 
L 166.113033 64.997725 
L 166.272411 55.075452 
L 166.43179 53.568 
L 166.750548 70.862415 
L 167.228684 113.361544 
L 168.184956 210.358261 
L 168.503714 224.067509 
L 168.822472 231.014629 
L 169.778744 241.43378 
L 170.097502 244.502193 
L 170.416259 245.772673 
L 170.575638 245.44244 
L 171.213153 242.198208 
L 171.372532 242.265478 
L 171.531911 243.196551 
L 171.850668 247.948234 
L 172.328804 261.341009 
L 172.966319 279.311179 
L 173.444456 285.879142 
L 173.763213 287.534893 
L 174.24135 288.332956 
L 174.878865 288.378821 
L 175.51638 287.729058 
L 175.835137 286.894302 
L 175.994516 286.418828 
L 176.950789 281.67326 
L 177.110167 281.240594 
L 177.269546 281.213075 
L 177.428925 281.355259 
L 177.588304 281.835319 
L 178.863334 288.308494 
L 179.022713 288.695294 
L 179.182091 288.759506 
L 179.500849 288.592861 
L 180.457121 286.658859 
L 180.775879 286.614522 
L 181.094636 286.961572 
L 181.89153 288.800785 
L 183.325939 290.346459 
L 183.485318 290.360218 
L 183.804076 290.774538 
L 184.441591 290.500873 
L 185.716621 290.152294 
L 185.875999 290.192044 
L 186.354136 289.874042 
L 186.832272 288.918507 
L 187.310408 287.73976 
L 187.629166 287.634269 
L 188.107302 288.011896 
L 188.42606 288.453735 
L 189.382332 289.725743 
L 189.860469 290.869327 
L 190.338605 292.271288 
L 190.816741 293.012783 
L 190.97612 292.973032 
L 191.454256 291.644457 
L 191.773014 289.005652 
L 192.25115 282.861181 
L 193.048044 270.790866 
L 193.366801 268.5144 
L 193.52618 268.07409 
L 193.685559 268.225446 
L 193.844938 268.748315 
L 194.163695 271.260225 
L 194.80121 279.797355 
L 195.598104 289.843465 
L 195.916862 292.309509 
L 196.235619 293.605979 
L 196.554377 294.084511 
L 197.191892 294.23281 
L 199.263816 294.171655 
L 200.220088 294.367349 
L 200.538846 294.656303 
L 200.698225 294.746505 
L 202.292012 294.15178 
L 202.61077 294.063107 
L 203.248285 294.214463 
L 203.567042 294.122732 
L 204.045179 294.329127 
L 205.001451 294.235867 
L 205.638966 294.527879 
L 205.798345 294.47284 
L 205.957724 294.561513 
L 206.276481 294.431561 
L 206.43586 294.215992 
L 206.754618 293.128976 
L 208.029648 286.064134 
L 208.348405 286.4968 
L 208.98592 289.883215 
L 209.464057 292.520491 
L 209.782814 293.168726 
L 210.101572 293.365948 
L 210.420329 293.541767 
L 211.217223 293.628912 
L 211.695359 294.168598 
L 212.173496 294.547754 
L 212.492253 294.696053 
L 212.97039 294.888689 
L 213.767283 294.830592 
L 215.201692 294.342887 
L 215.361071 294.21905 
L 216.157965 294.423916 
L 217.114238 294.928439 
L 218.07051 294.838236 
L 219.186161 294.670062 
L 219.504919 294.569158 
L 219.823677 294.556927 
L 220.461192 294.234338 
L 220.939328 294.248098 
L 221.258085 293.353718 
L 221.736222 290.791355 
L 222.373737 287.079294 
L 222.533116 286.582416 
L 222.692494 286.703196 
L 222.851873 287.088467 
L 223.330009 289.814417 
L 223.808146 292.991379 
L 224.126903 294.021827 
L 224.445661 294.225165 
L 225.083176 294.053933 
L 225.720691 294.367349 
L 226.039448 294.339829 
L 226.198827 294.27256 
L 226.676963 293.592219 
L 227.1551 292.729944 
L 227.473857 292.447106 
L 227.951994 292.622925 
L 229.386402 294.942199 
L 230.023918 295.147065 
L 230.502054 294.986535 
L 230.98019 294.737332 
L 231.139569 294.812246 
L 231.458326 294.807659 
L 231.936463 294.810717 
L 232.573978 295.015584 
L 233.052114 294.770967 
L 233.53025 294.777082 
L 233.849008 294.541638 
L 234.645902 294.835179 
L 235.283417 295.000295 
L 235.920932 295.064507 
L 236.558447 294.899391 
L 236.877204 295.053805 
L 237.195962 295.151652 
L 237.51472 295.095084 
L 238.311613 295.026286 
L 238.78975 294.902448 
L 239.108507 294.939141 
L 239.586643 294.949843 
L 239.905401 295.075209 
L 240.06478 295.07368 
L 240.861674 294.292435 
L 241.499189 293.3369 
L 241.658567 293.164139 
L 241.977325 293.272688 
L 242.455461 293.853653 
L 242.933598 294.590562 
L 243.411734 294.943727 
L 243.88987 295.154709 
L 244.368006 294.968189 
L 245.005521 294.853525 
L 245.643037 294.133434 
L 246.121173 294.00501 
L 246.43993 294.017241 
L 246.758688 294.223636 
L 247.555582 295.003353 
L 247.874339 295.069094 
L 248.193097 295.11343 
L 248.989991 295.212806 
L 249.468127 295.174585 
L 249.627506 295.272431 
L 250.105642 295.159296 
L 250.743157 295.066036 
L 251.061915 295.114959 
L 251.221293 295.018641 
L 251.69943 295.114959 
L 253.133839 295.185287 
L 253.452596 295.228095 
L 254.568247 295.124132 
L 255.046384 294.974305 
L 255.683899 295.205162 
L 256.002656 295.136363 
L 256.79955 295.34123 
L 258.552717 295.136363 
L 259.668368 295.105786 
L 260.146504 295.085911 
L 260.624641 295.107315 
L 260.943398 295.001824 
L 261.421534 295.174585 
L 261.580913 295.111902 
L 261.899671 295.157767 
L 262.377807 295.159296 
L 262.537186 295.269374 
L 262.696564 295.189873 
L 263.174701 295.310653 
L 264.768488 294.959016 
L 266.681034 295.260201 
L 267.477927 295.465067 
L 267.796685 295.454365 
L 268.115442 295.385567 
L 268.593579 295.275489 
L 269.390473 294.971247 
L 270.187366 295.026286 
L 271.143639 295.32747 
L 271.621775 295.283133 
L 271.940533 295.134834 
L 273.056184 295.154709 
L 273.374942 295.293835 
L 274.490593 295.228095 
L 274.649972 295.290778 
L 274.968729 295.142479 
L 277.51879 295.209748 
L 277.996926 295.144007 
L 278.475062 295.186815 
L 278.953199 295.118017 
L 279.271956 295.223508 
L 279.750092 295.217393 
L 280.228229 295.036988 
L 281.34388 294.778611 
L 281.981395 294.868813 
L 282.61891 294.864227 
L 282.937668 294.900919 
L 285.009592 294.99418 
L 285.965864 294.911621 
L 286.444001 295.162354 
L 286.762758 295.108844 
L 287.400273 295.295364 
L 287.878409 295.269374 
L 288.197167 295.209748 
L 288.675303 295.183758 
L 288.994061 295.136363 
L 290.109712 295.062978 
L 290.42847 295.212806 
L 290.906606 295.244912 
L 291.7035 295.361105 
L 292.022257 295.344288 
L 292.341015 295.356518 
L 292.819151 295.325941 
L 293.137909 295.307595 
L 293.456666 295.150123 
L 293.934803 295.160825 
L 294.412939 295.015584 
L 295.050454 295.108844 
L 295.369211 294.997237 
L 297.122378 295.359576 
L 297.441135 295.35499 
L 297.919272 295.290778 
L 298.07865 295.322884 
L 298.716165 294.965131 
L 299.194302 295.053805 
L 299.513059 294.975833 
L 300.309953 295.154709 
L 300.788089 295.08744 
L 301.106847 295.284662 
L 301.266226 295.206691 
L 301.584983 295.269374 
L 302.06312 295.208219 
L 302.222498 295.281604 
L 303.019392 295.111902 
L 303.975665 295.14095 
L 304.294422 295.298422 
L 307.003861 294.914679 
L 307.322619 295.079796 
L 307.641376 294.992651 
L 308.43827 295.130248 
L 309.235164 294.88716 
L 309.394543 294.978891 
L 309.553922 294.893275 
L 309.872679 294.942199 
L 310.032058 294.885631 
L 310.828952 295.186815 
L 311.466467 295.058392 
L 311.625845 295.134834 
L 311.785224 295.075209 
L 311.944603 295.150123 
L 312.422739 295.036988 
L 313.379012 295.188344 
L 313.857148 295.108844 
L 314.016527 295.188344 
L 314.654042 294.942199 
L 314.9728 295.010997 
L 315.610315 294.957487 
L 316.24783 295.133305 
L 316.566587 294.998766 
L 316.885345 295.050747 
L 318.000996 295.030872 
L 318.638511 295.228095 
L 318.957269 295.186815 
L 319.276026 295.249499 
L 319.594784 295.19446 
L 320.391678 294.936083 
L 320.551056 294.922323 
L 320.869814 294.796957 
L 321.188571 294.867285 
L 322.463602 295.189873 
L 323.419874 295.08744 
L 323.738632 295.165411 
L 324.057389 295.072151 
L 325.332419 295.154709 
L 325.491798 295.199046 
L 325.810556 295.134834 
L 326.926207 294.946785 
L 327.563722 295.076738 
L 328.679373 294.939141 
L 328.998131 294.92691 
L 330.591919 295.11343 
L 330.910676 295.195989 
L 331.548191 294.997237 
L 331.70757 294.838236 
L 332.9826 294.954429 
L 333.301358 295.154709 
L 334.098251 295.010997 
L 334.735767 294.960545 
L 334.895145 294.951372 
L 335.373282 295.1807 
L 336.329554 295.235739 
L 336.488933 295.296893 
L 336.967069 294.981949 
L 337.604584 294.772496 
L 338.720236 295.162354 
L 340.632781 294.981949 
L 341.110917 294.925381 
L 341.589053 294.703697 
L 342.226568 294.451436 
L 342.704705 294.038645 
L 343.023462 293.523421 
L 343.501599 291.568014 
L 344.61725 285.625352 
L 344.936007 285.506102 
L 345.254765 286.447877 
L 346.051659 290.176756 
L 346.848553 291.864612 
L 347.007931 291.92118 
L 347.964204 293.44392 
L 348.44234 293.734403 
L 348.601719 293.939269 
L 348.920477 293.798615 
L 349.239234 293.823076 
L 349.557992 293.613623 
L 349.71737 293.664075 
L 350.036128 293.518834 
L 350.195507 293.454622 
L 351.151779 293.749691 
L 351.470537 293.847538 
L 354.020597 294.488128 
L 354.339355 294.40557 
L 354.658112 294.402513 
L 355.455006 294.153309 
L 355.933142 294.156367 
L 356.889415 293.852124 
L 357.52693 293.966789 
L 358.005066 294.345945 
L 358.483203 294.737332 
L 358.80196 294.827534 
L 359.120718 294.853525 
L 359.439475 294.986535 
L 360.555127 294.986535 
L 361.033263 294.978891 
L 361.989535 294.981949 
L 362.308293 294.91315 
L 362.467672 294.870342 
L 362.945808 295.032401 
L 363.264566 294.963603 
L 363.902081 295.150123 
L 364.858353 294.874929 
L 365.495868 294.952901 
L 366.61152 294.922323 
L 367.249035 294.800015 
L 368.364686 294.781669 
L 368.842822 294.685351 
L 369.958474 294.769438 
L 370.43661 294.911621 
L 370.755368 294.841294 
L 371.074125 294.975833 
L 371.71164 294.991122 
L 372.667913 294.88716 
L 372.98667 294.72663 
L 373.464807 294.899391 
L 373.783564 294.88716 
L 373.942943 295.021699 
L 374.2617 295.012526 
L 374.580458 295.195989 
L 374.899215 295.137892 
L 375.217973 295.197517 
L 376.174246 294.959016 
L 376.493003 294.955958 
L 376.811761 294.85964 
L 377.289897 295.00641 
L 378.086791 294.908564 
L 378.564927 294.775553 
L 379.5212 294.851996 
L 380.318093 295.280076 
L 380.636851 295.267845 
L 381.274366 295.05992 
L 381.752502 295.044632 
L 382.07126 295.121075 
L 382.868154 295.244912 
L 383.027532 295.098142 
L 383.34629 295.153181 
L 384.461941 295.043103 
L 384.780699 295.075209 
L 385.099456 295.085911 
L 385.418214 295.036988 
L 385.577593 294.988064 
L 385.736971 295.093555 
L 386.374487 294.929968 
L 387.808895 295.062978 
L 388.127653 294.822948 
L 388.287032 294.839765 
L 388.605789 294.680764 
L 388.765168 294.725101 
L 388.924547 294.610437 
L 389.243304 294.905506 
L 389.402683 294.868813 
L 389.562062 295.017112 
L 390.199577 294.911621 
L 390.677713 294.920795 
L 391.15585 294.746505 
L 391.633986 294.988064 
L 392.271501 294.705226 
L 392.749637 294.755678 
L 393.387152 294.815304 
L 393.546531 294.700639 
L 394.184046 295.03393 
L 394.502804 295.044632 
L 395.618455 295.209748 
L 396.574728 294.907035 
L 396.734106 295.023228 
L 397.052864 294.965131 
L 397.531 294.871871 
L 397.690379 294.789313 
L 397.849758 294.991122 
L 398.168515 294.974305 
L 398.327894 294.949843 
L 398.487273 295.040045 
L 398.487273 295.040045 
" style="fill:none;stroke:#1f77b4;stroke-linecap:square;stroke-width:1.5;"/>
   </g>
   <g id="line2d_15">
    <path clip-path="url(#pe074bdcf48)" d="M 166.43179 53.568 
" style="fill:none;stroke:#ff7f0e;stroke-linecap:square;stroke-width:1.5;"/>
    <defs>
     <path d="M -1.5 -2.598076 
L -3 -0 
L -1.5 2.598076 
L 1.5 2.598076 
L 3 0 
L 1.5 -2.598076 
z
" id="m2aacb2b2a8" style="stroke:#ff7f0e;stroke-linejoin:miter;"/>
    </defs>
    <g clip-path="url(#pe074bdcf48)">
     <use style="fill:#ff7f0e;stroke:#ff7f0e;stroke-linejoin:miter;" x="166.43179" xlink:href="#m2aacb2b2a8" y="53.568"/>
    </g>
   </g>
   <g id="patch_3">
    <path d="M 57.6 307.584 
L 57.6 41.472 
" style="fill:none;stroke:#000000;stroke-linecap:square;stroke-linejoin:miter;stroke-width:0.8;"/>
   </g>
   <g id="patch_4">
    <path d="M 414.72 307.584 
L 414.72 41.472 
" style="fill:none;stroke:#000000;stroke-linecap:square;stroke-linejoin:miter;stroke-width:0.8;"/>
   </g>
   <g id="patch_5">
    <path d="M 57.6 307.584 
L 414.72 307.584 
" style="fill:none;stroke:#000000;stroke-linecap:square;stroke-linejoin:miter;stroke-width:0.8;"/>
   </g>
   <g id="patch_6">
    <path d="M 57.6 41.472 
L 414.72 41.472 
" style="fill:none;stroke:#000000;stroke-linecap:square;stroke-linejoin:miter;stroke-width:0.8;"/>
   </g>
   <g id="text_16">
    <!-- Peaks -->
    <g transform="translate(218.790937 35.472)scale(0.12 -0.12)">
     <defs>
      <path d="M 1259 4147 
L 1259 2394 
L 2053 2394 
Q 2494 2394 2734 2622 
Q 2975 2850 2975 3272 
Q 2975 3691 2734 3919 
Q 2494 4147 2053 4147 
L 1259 4147 
z
M 628 4666 
L 2053 4666 
Q 2838 4666 3239 4311 
Q 3641 3956 3641 3272 
Q 3641 2581 3239 2228 
Q 2838 1875 2053 1875 
L 1259 1875 
L 1259 0 
L 628 0 
L 628 4666 
z
" id="DejaVuSans-50" transform="scale(0.015625)"/>
      <path d="M 581 4863 
L 1159 4863 
L 1159 1991 
L 2875 3500 
L 3609 3500 
L 1753 1863 
L 3688 0 
L 2938 0 
L 1159 1709 
L 1159 0 
L 581 0 
L 581 4863 
z
" id="DejaVuSans-6b" transform="scale(0.015625)"/>
     </defs>
     <use xlink:href="#DejaVuSans-50"/>
     <use x="56.677734" xlink:href="#DejaVuSans-65"/>
     <use x="118.201172" xlink:href="#DejaVuSans-61"/>
     <use x="179.480469" xlink:href="#DejaVuSans-6b"/>
     <use x="237.390625" xlink:href="#DejaVuSans-73"/>
    </g>
   </g>
  </g>
 </g>
 <defs>
  <clipPath id="pe074bdcf48">
   <rect height="266.112" width="357.12" x="57.6" y="41.472"/>
  </clipPath>
 </defs>
</svg>
