<?xml version="1.0" encoding="utf-8" standalone="no"?>
<!DOCTYPE svg PUBLIC "-//W3C//DTD SVG 1.1//EN"
  "http://www.w3.org/Graphics/SVG/1.1/DTD/svg11.dtd">
<svg height="345.6pt" version="1.1" viewBox="0 0 460.8 345.6" width="460.8pt" xmlns="http://www.w3.org/2000/svg" xmlns:xlink="http://www.w3.org/1999/xlink">
 <metadata>
  <rdf:RDF xmlns:cc="http://creativecommons.org/ns#" xmlns:dc="http://purl.org/dc/elements/1.1/" xmlns:rdf="http://www.w3.org/1999/02/22-rdf-syntax-ns#">
   <cc:Work>
    <dc:type rdf:resource="http://purl.org/dc/dcmitype/StillImage"/>
    <dc:date>2022-06-03T23:57:23.388417</dc:date>
    <dc:format>image/svg+xml</dc:format>
    <dc:creator>
     <cc:Agent>
      <dc:title>Matplotlib v3.4.1, https://matplotlib.org/</dc:title>
     </cc:Agent>
    </dc:creator>
   </cc:Work>
  </rdf:RDF>
 </metadata>
 <defs>
  <style type="text/css">*{stroke-linecap:butt;stroke-linejoin:round;}</style>
 </defs>
 <g id="figure_1">
  <g id="patch_1">
   <path d="M 0 345.6 
L 460.8 345.6 
L 460.8 0 
L 0 0 
z
" style="fill:#ffffff;"/>
  </g>
  <g id="axes_1">
   <g id="patch_2">
    <path d="M 57.6 307.584 
L 414.72 307.584 
L 414.72 41.472 
L 57.6 41.472 
z
" style="fill:#ffffff;"/>
   </g>
   <g id="matplotlib.axis_1">
    <g id="xtick_1">
     <g id="line2d_1">
      <defs>
       <path d="M 0 0 
L 0 3.5 
" id="mb6cc72d794" style="stroke:#000000;stroke-width:0.8;"/>
      </defs>
      <g>
       <use style="stroke:#000000;stroke-width:0.8;" x="102.929605" xlink:href="#mb6cc72d794" y="307.584"/>
      </g>
     </g>
     <g id="text_1">
      <!-- 400 -->
      <g transform="translate(93.385855 322.182437)scale(0.1 -0.1)">
       <defs>
        <path d="M 2419 4116 
L 825 1625 
L 2419 1625 
L 2419 4116 
z
M 2253 4666 
L 3047 4666 
L 3047 1625 
L 3713 1625 
L 3713 1100 
L 3047 1100 
L 3047 0 
L 2419 0 
L 2419 1100 
L 313 1100 
L 313 1709 
L 2253 4666 
z
" id="DejaVuSans-34" transform="scale(0.015625)"/>
        <path d="M 2034 4250 
Q 1547 4250 1301 3770 
Q 1056 3291 1056 2328 
Q 1056 1369 1301 889 
Q 1547 409 2034 409 
Q 2525 409 2770 889 
Q 3016 1369 3016 2328 
Q 3016 3291 2770 3770 
Q 2525 4250 2034 4250 
z
M 2034 4750 
Q 2819 4750 3233 4129 
Q 3647 3509 3647 2328 
Q 3647 1150 3233 529 
Q 2819 -91 2034 -91 
Q 1250 -91 836 529 
Q 422 1150 422 2328 
Q 422 3509 836 4129 
Q 1250 4750 2034 4750 
z
" id="DejaVuSans-30" transform="scale(0.015625)"/>
       </defs>
       <use xlink:href="#DejaVuSans-34"/>
       <use x="63.623047" xlink:href="#DejaVuSans-30"/>
       <use x="127.246094" xlink:href="#DejaVuSans-30"/>
      </g>
     </g>
    </g>
    <g id="xtick_2">
     <g id="line2d_2">
      <g>
       <use style="stroke:#000000;stroke-width:0.8;" x="160.931952" xlink:href="#mb6cc72d794" y="307.584"/>
      </g>
     </g>
     <g id="text_2">
      <!-- 600 -->
      <g transform="translate(151.388202 322.182437)scale(0.1 -0.1)">
       <defs>
        <path d="M 2113 2584 
Q 1688 2584 1439 2293 
Q 1191 2003 1191 1497 
Q 1191 994 1439 701 
Q 1688 409 2113 409 
Q 2538 409 2786 701 
Q 3034 994 3034 1497 
Q 3034 2003 2786 2293 
Q 2538 2584 2113 2584 
z
M 3366 4563 
L 3366 3988 
Q 3128 4100 2886 4159 
Q 2644 4219 2406 4219 
Q 1781 4219 1451 3797 
Q 1122 3375 1075 2522 
Q 1259 2794 1537 2939 
Q 1816 3084 2150 3084 
Q 2853 3084 3261 2657 
Q 3669 2231 3669 1497 
Q 3669 778 3244 343 
Q 2819 -91 2113 -91 
Q 1303 -91 875 529 
Q 447 1150 447 2328 
Q 447 3434 972 4092 
Q 1497 4750 2381 4750 
Q 2619 4750 2861 4703 
Q 3103 4656 3366 4563 
z
" id="DejaVuSans-36" transform="scale(0.015625)"/>
       </defs>
       <use xlink:href="#DejaVuSans-36"/>
       <use x="63.623047" xlink:href="#DejaVuSans-30"/>
       <use x="127.246094" xlink:href="#DejaVuSans-30"/>
      </g>
     </g>
    </g>
    <g id="xtick_3">
     <g id="line2d_3">
      <g>
       <use style="stroke:#000000;stroke-width:0.8;" x="218.9343" xlink:href="#mb6cc72d794" y="307.584"/>
      </g>
     </g>
     <g id="text_3">
      <!-- 800 -->
      <g transform="translate(209.39055 322.182437)scale(0.1 -0.1)">
       <defs>
        <path d="M 2034 2216 
Q 1584 2216 1326 1975 
Q 1069 1734 1069 1313 
Q 1069 891 1326 650 
Q 1584 409 2034 409 
Q 2484 409 2743 651 
Q 3003 894 3003 1313 
Q 3003 1734 2745 1975 
Q 2488 2216 2034 2216 
z
M 1403 2484 
Q 997 2584 770 2862 
Q 544 3141 544 3541 
Q 544 4100 942 4425 
Q 1341 4750 2034 4750 
Q 2731 4750 3128 4425 
Q 3525 4100 3525 3541 
Q 3525 3141 3298 2862 
Q 3072 2584 2669 2484 
Q 3125 2378 3379 2068 
Q 3634 1759 3634 1313 
Q 3634 634 3220 271 
Q 2806 -91 2034 -91 
Q 1263 -91 848 271 
Q 434 634 434 1313 
Q 434 1759 690 2068 
Q 947 2378 1403 2484 
z
M 1172 3481 
Q 1172 3119 1398 2916 
Q 1625 2713 2034 2713 
Q 2441 2713 2670 2916 
Q 2900 3119 2900 3481 
Q 2900 3844 2670 4047 
Q 2441 4250 2034 4250 
Q 1625 4250 1398 4047 
Q 1172 3844 1172 3481 
z
" id="DejaVuSans-38" transform="scale(0.015625)"/>
       </defs>
       <use xlink:href="#DejaVuSans-38"/>
       <use x="63.623047" xlink:href="#DejaVuSans-30"/>
       <use x="127.246094" xlink:href="#DejaVuSans-30"/>
      </g>
     </g>
    </g>
    <g id="xtick_4">
     <g id="line2d_4">
      <g>
       <use style="stroke:#000000;stroke-width:0.8;" x="276.936647" xlink:href="#mb6cc72d794" y="307.584"/>
      </g>
     </g>
     <g id="text_4">
      <!-- 1000 -->
      <g transform="translate(264.211647 322.182437)scale(0.1 -0.1)">
       <defs>
        <path d="M 794 531 
L 1825 531 
L 1825 4091 
L 703 3866 
L 703 4441 
L 1819 4666 
L 2450 4666 
L 2450 531 
L 3481 531 
L 3481 0 
L 794 0 
L 794 531 
z
" id="DejaVuSans-31" transform="scale(0.015625)"/>
       </defs>
       <use xlink:href="#DejaVuSans-31"/>
       <use x="63.623047" xlink:href="#DejaVuSans-30"/>
       <use x="127.246094" xlink:href="#DejaVuSans-30"/>
       <use x="190.869141" xlink:href="#DejaVuSans-30"/>
      </g>
     </g>
    </g>
    <g id="xtick_5">
     <g id="line2d_5">
      <g>
       <use style="stroke:#000000;stroke-width:0.8;" x="334.938995" xlink:href="#mb6cc72d794" y="307.584"/>
      </g>
     </g>
     <g id="text_5">
      <!-- 1200 -->
      <g transform="translate(322.213995 322.182437)scale(0.1 -0.1)">
       <defs>
        <path d="M 1228 531 
L 3431 531 
L 3431 0 
L 469 0 
L 469 531 
Q 828 903 1448 1529 
Q 2069 2156 2228 2338 
Q 2531 2678 2651 2914 
Q 2772 3150 2772 3378 
Q 2772 3750 2511 3984 
Q 2250 4219 1831 4219 
Q 1534 4219 1204 4116 
Q 875 4013 500 3803 
L 500 4441 
Q 881 4594 1212 4672 
Q 1544 4750 1819 4750 
Q 2544 4750 2975 4387 
Q 3406 4025 3406 3419 
Q 3406 3131 3298 2873 
Q 3191 2616 2906 2266 
Q 2828 2175 2409 1742 
Q 1991 1309 1228 531 
z
" id="DejaVuSans-32" transform="scale(0.015625)"/>
       </defs>
       <use xlink:href="#DejaVuSans-31"/>
       <use x="63.623047" xlink:href="#DejaVuSans-32"/>
       <use x="127.246094" xlink:href="#DejaVuSans-30"/>
       <use x="190.869141" xlink:href="#DejaVuSans-30"/>
      </g>
     </g>
    </g>
    <g id="xtick_6">
     <g id="line2d_6">
      <g>
       <use style="stroke:#000000;stroke-width:0.8;" x="392.941342" xlink:href="#mb6cc72d794" y="307.584"/>
      </g>
     </g>
     <g id="text_6">
      <!-- 1400 -->
      <g transform="translate(380.216342 322.182437)scale(0.1 -0.1)">
       <use xlink:href="#DejaVuSans-31"/>
       <use x="63.623047" xlink:href="#DejaVuSans-34"/>
       <use x="127.246094" xlink:href="#DejaVuSans-30"/>
       <use x="190.869141" xlink:href="#DejaVuSans-30"/>
      </g>
     </g>
    </g>
    <g id="text_7">
     <!-- Wavelength [nm] -->
     <g transform="translate(192.967812 335.860562)scale(0.1 -0.1)">
      <defs>
       <path d="M 213 4666 
L 850 4666 
L 1831 722 
L 2809 4666 
L 3519 4666 
L 4500 722 
L 5478 4666 
L 6119 4666 
L 4947 0 
L 4153 0 
L 3169 4050 
L 2175 0 
L 1381 0 
L 213 4666 
z
" id="DejaVuSans-57" transform="scale(0.015625)"/>
       <path d="M 2194 1759 
Q 1497 1759 1228 1600 
Q 959 1441 959 1056 
Q 959 750 1161 570 
Q 1363 391 1709 391 
Q 2188 391 2477 730 
Q 2766 1069 2766 1631 
L 2766 1759 
L 2194 1759 
z
M 3341 1997 
L 3341 0 
L 2766 0 
L 2766 531 
Q 2569 213 2275 61 
Q 1981 -91 1556 -91 
Q 1019 -91 701 211 
Q 384 513 384 1019 
Q 384 1609 779 1909 
Q 1175 2209 1959 2209 
L 2766 2209 
L 2766 2266 
Q 2766 2663 2505 2880 
Q 2244 3097 1772 3097 
Q 1472 3097 1187 3025 
Q 903 2953 641 2809 
L 641 3341 
Q 956 3463 1253 3523 
Q 1550 3584 1831 3584 
Q 2591 3584 2966 3190 
Q 3341 2797 3341 1997 
z
" id="DejaVuSans-61" transform="scale(0.015625)"/>
       <path d="M 191 3500 
L 800 3500 
L 1894 563 
L 2988 3500 
L 3597 3500 
L 2284 0 
L 1503 0 
L 191 3500 
z
" id="DejaVuSans-76" transform="scale(0.015625)"/>
       <path d="M 3597 1894 
L 3597 1613 
L 953 1613 
Q 991 1019 1311 708 
Q 1631 397 2203 397 
Q 2534 397 2845 478 
Q 3156 559 3463 722 
L 3463 178 
Q 3153 47 2828 -22 
Q 2503 -91 2169 -91 
Q 1331 -91 842 396 
Q 353 884 353 1716 
Q 353 2575 817 3079 
Q 1281 3584 2069 3584 
Q 2775 3584 3186 3129 
Q 3597 2675 3597 1894 
z
M 3022 2063 
Q 3016 2534 2758 2815 
Q 2500 3097 2075 3097 
Q 1594 3097 1305 2825 
Q 1016 2553 972 2059 
L 3022 2063 
z
" id="DejaVuSans-65" transform="scale(0.015625)"/>
       <path d="M 603 4863 
L 1178 4863 
L 1178 0 
L 603 0 
L 603 4863 
z
" id="DejaVuSans-6c" transform="scale(0.015625)"/>
       <path d="M 3513 2113 
L 3513 0 
L 2938 0 
L 2938 2094 
Q 2938 2591 2744 2837 
Q 2550 3084 2163 3084 
Q 1697 3084 1428 2787 
Q 1159 2491 1159 1978 
L 1159 0 
L 581 0 
L 581 3500 
L 1159 3500 
L 1159 2956 
Q 1366 3272 1645 3428 
Q 1925 3584 2291 3584 
Q 2894 3584 3203 3211 
Q 3513 2838 3513 2113 
z
" id="DejaVuSans-6e" transform="scale(0.015625)"/>
       <path d="M 2906 1791 
Q 2906 2416 2648 2759 
Q 2391 3103 1925 3103 
Q 1463 3103 1205 2759 
Q 947 2416 947 1791 
Q 947 1169 1205 825 
Q 1463 481 1925 481 
Q 2391 481 2648 825 
Q 2906 1169 2906 1791 
z
M 3481 434 
Q 3481 -459 3084 -895 
Q 2688 -1331 1869 -1331 
Q 1566 -1331 1297 -1286 
Q 1028 -1241 775 -1147 
L 775 -588 
Q 1028 -725 1275 -790 
Q 1522 -856 1778 -856 
Q 2344 -856 2625 -561 
Q 2906 -266 2906 331 
L 2906 616 
Q 2728 306 2450 153 
Q 2172 0 1784 0 
Q 1141 0 747 490 
Q 353 981 353 1791 
Q 353 2603 747 3093 
Q 1141 3584 1784 3584 
Q 2172 3584 2450 3431 
Q 2728 3278 2906 2969 
L 2906 3500 
L 3481 3500 
L 3481 434 
z
" id="DejaVuSans-67" transform="scale(0.015625)"/>
       <path d="M 1172 4494 
L 1172 3500 
L 2356 3500 
L 2356 3053 
L 1172 3053 
L 1172 1153 
Q 1172 725 1289 603 
Q 1406 481 1766 481 
L 2356 481 
L 2356 0 
L 1766 0 
Q 1100 0 847 248 
Q 594 497 594 1153 
L 594 3053 
L 172 3053 
L 172 3500 
L 594 3500 
L 594 4494 
L 1172 4494 
z
" id="DejaVuSans-74" transform="scale(0.015625)"/>
       <path d="M 3513 2113 
L 3513 0 
L 2938 0 
L 2938 2094 
Q 2938 2591 2744 2837 
Q 2550 3084 2163 3084 
Q 1697 3084 1428 2787 
Q 1159 2491 1159 1978 
L 1159 0 
L 581 0 
L 581 4863 
L 1159 4863 
L 1159 2956 
Q 1366 3272 1645 3428 
Q 1925 3584 2291 3584 
Q 2894 3584 3203 3211 
Q 3513 2838 3513 2113 
z
" id="DejaVuSans-68" transform="scale(0.015625)"/>
       <path id="DejaVuSans-20" transform="scale(0.015625)"/>
       <path d="M 550 4863 
L 1875 4863 
L 1875 4416 
L 1125 4416 
L 1125 -397 
L 1875 -397 
L 1875 -844 
L 550 -844 
L 550 4863 
z
" id="DejaVuSans-5b" transform="scale(0.015625)"/>
       <path d="M 3328 2828 
Q 3544 3216 3844 3400 
Q 4144 3584 4550 3584 
Q 5097 3584 5394 3201 
Q 5691 2819 5691 2113 
L 5691 0 
L 5113 0 
L 5113 2094 
Q 5113 2597 4934 2840 
Q 4756 3084 4391 3084 
Q 3944 3084 3684 2787 
Q 3425 2491 3425 1978 
L 3425 0 
L 2847 0 
L 2847 2094 
Q 2847 2600 2669 2842 
Q 2491 3084 2119 3084 
Q 1678 3084 1418 2786 
Q 1159 2488 1159 1978 
L 1159 0 
L 581 0 
L 581 3500 
L 1159 3500 
L 1159 2956 
Q 1356 3278 1631 3431 
Q 1906 3584 2284 3584 
Q 2666 3584 2933 3390 
Q 3200 3197 3328 2828 
z
" id="DejaVuSans-6d" transform="scale(0.015625)"/>
       <path d="M 1947 4863 
L 1947 -844 
L 622 -844 
L 622 -397 
L 1369 -397 
L 1369 4416 
L 622 4416 
L 622 4863 
L 1947 4863 
z
" id="DejaVuSans-5d" transform="scale(0.015625)"/>
      </defs>
      <use xlink:href="#DejaVuSans-57"/>
      <use x="92.501953" xlink:href="#DejaVuSans-61"/>
      <use x="153.78125" xlink:href="#DejaVuSans-76"/>
      <use x="212.960938" xlink:href="#DejaVuSans-65"/>
      <use x="274.484375" xlink:href="#DejaVuSans-6c"/>
      <use x="302.267578" xlink:href="#DejaVuSans-65"/>
      <use x="363.791016" xlink:href="#DejaVuSans-6e"/>
      <use x="427.169922" xlink:href="#DejaVuSans-67"/>
      <use x="490.646484" xlink:href="#DejaVuSans-74"/>
      <use x="529.855469" xlink:href="#DejaVuSans-68"/>
      <use x="593.234375" xlink:href="#DejaVuSans-20"/>
      <use x="625.021484" xlink:href="#DejaVuSans-5b"/>
      <use x="664.035156" xlink:href="#DejaVuSans-6e"/>
      <use x="727.414062" xlink:href="#DejaVuSans-6d"/>
      <use x="824.826172" xlink:href="#DejaVuSans-5d"/>
     </g>
    </g>
   </g>
   <g id="matplotlib.axis_2">
    <g id="ytick_1">
     <g id="line2d_7">
      <defs>
       <path d="M 0 0 
L -3.5 0 
" id="m8c1fca4cc7" style="stroke:#000000;stroke-width:0.8;"/>
      </defs>
      <g>
       <use style="stroke:#000000;stroke-width:0.8;" x="57.6" xlink:href="#m8c1fca4cc7" y="296.205438"/>
      </g>
     </g>
     <g id="text_8">
      <!-- 1000 -->
      <g transform="translate(25.15 300.004656)scale(0.1 -0.1)">
       <use xlink:href="#DejaVuSans-31"/>
       <use x="63.623047" xlink:href="#DejaVuSans-30"/>
       <use x="127.246094" xlink:href="#DejaVuSans-30"/>
       <use x="190.869141" xlink:href="#DejaVuSans-30"/>
      </g>
     </g>
    </g>
    <g id="ytick_2">
     <g id="line2d_8">
      <g>
       <use style="stroke:#000000;stroke-width:0.8;" x="57.6" xlink:href="#m8c1fca4cc7" y="260.333552"/>
      </g>
     </g>
     <g id="text_9">
      <!-- 2000 -->
      <g transform="translate(25.15 264.13277)scale(0.1 -0.1)">
       <use xlink:href="#DejaVuSans-32"/>
       <use x="63.623047" xlink:href="#DejaVuSans-30"/>
       <use x="127.246094" xlink:href="#DejaVuSans-30"/>
       <use x="190.869141" xlink:href="#DejaVuSans-30"/>
      </g>
     </g>
    </g>
    <g id="ytick_3">
     <g id="line2d_9">
      <g>
       <use style="stroke:#000000;stroke-width:0.8;" x="57.6" xlink:href="#m8c1fca4cc7" y="224.461665"/>
      </g>
     </g>
     <g id="text_10">
      <!-- 3000 -->
      <g transform="translate(25.15 228.260884)scale(0.1 -0.1)">
       <defs>
        <path d="M 2597 2516 
Q 3050 2419 3304 2112 
Q 3559 1806 3559 1356 
Q 3559 666 3084 287 
Q 2609 -91 1734 -91 
Q 1441 -91 1130 -33 
Q 819 25 488 141 
L 488 750 
Q 750 597 1062 519 
Q 1375 441 1716 441 
Q 2309 441 2620 675 
Q 2931 909 2931 1356 
Q 2931 1769 2642 2001 
Q 2353 2234 1838 2234 
L 1294 2234 
L 1294 2753 
L 1863 2753 
Q 2328 2753 2575 2939 
Q 2822 3125 2822 3475 
Q 2822 3834 2567 4026 
Q 2313 4219 1838 4219 
Q 1578 4219 1281 4162 
Q 984 4106 628 3988 
L 628 4550 
Q 988 4650 1302 4700 
Q 1616 4750 1894 4750 
Q 2613 4750 3031 4423 
Q 3450 4097 3450 3541 
Q 3450 3153 3228 2886 
Q 3006 2619 2597 2516 
z
" id="DejaVuSans-33" transform="scale(0.015625)"/>
       </defs>
       <use xlink:href="#DejaVuSans-33"/>
       <use x="63.623047" xlink:href="#DejaVuSans-30"/>
       <use x="127.246094" xlink:href="#DejaVuSans-30"/>
       <use x="190.869141" xlink:href="#DejaVuSans-30"/>
      </g>
     </g>
    </g>
    <g id="ytick_4">
     <g id="line2d_10">
      <g>
       <use style="stroke:#000000;stroke-width:0.8;" x="57.6" xlink:href="#m8c1fca4cc7" y="188.589779"/>
      </g>
     </g>
     <g id="text_11">
      <!-- 4000 -->
      <g transform="translate(25.15 192.388998)scale(0.1 -0.1)">
       <use xlink:href="#DejaVuSans-34"/>
       <use x="63.623047" xlink:href="#DejaVuSans-30"/>
       <use x="127.246094" xlink:href="#DejaVuSans-30"/>
       <use x="190.869141" xlink:href="#DejaVuSans-30"/>
      </g>
     </g>
    </g>
    <g id="ytick_5">
     <g id="line2d_11">
      <g>
       <use style="stroke:#000000;stroke-width:0.8;" x="57.6" xlink:href="#m8c1fca4cc7" y="152.717893"/>
      </g>
     </g>
     <g id="text_12">
      <!-- 5000 -->
      <g transform="translate(25.15 156.517112)scale(0.1 -0.1)">
       <defs>
        <path d="M 691 4666 
L 3169 4666 
L 3169 4134 
L 1269 4134 
L 1269 2991 
Q 1406 3038 1543 3061 
Q 1681 3084 1819 3084 
Q 2600 3084 3056 2656 
Q 3513 2228 3513 1497 
Q 3513 744 3044 326 
Q 2575 -91 1722 -91 
Q 1428 -91 1123 -41 
Q 819 9 494 109 
L 494 744 
Q 775 591 1075 516 
Q 1375 441 1709 441 
Q 2250 441 2565 725 
Q 2881 1009 2881 1497 
Q 2881 1984 2565 2268 
Q 2250 2553 1709 2553 
Q 1456 2553 1204 2497 
Q 953 2441 691 2322 
L 691 4666 
z
" id="DejaVuSans-35" transform="scale(0.015625)"/>
       </defs>
       <use xlink:href="#DejaVuSans-35"/>
       <use x="63.623047" xlink:href="#DejaVuSans-30"/>
       <use x="127.246094" xlink:href="#DejaVuSans-30"/>
       <use x="190.869141" xlink:href="#DejaVuSans-30"/>
      </g>
     </g>
    </g>
    <g id="ytick_6">
     <g id="line2d_12">
      <g>
       <use style="stroke:#000000;stroke-width:0.8;" x="57.6" xlink:href="#m8c1fca4cc7" y="116.846007"/>
      </g>
     </g>
     <g id="text_13">
      <!-- 6000 -->
      <g transform="translate(25.15 120.645226)scale(0.1 -0.1)">
       <use xlink:href="#DejaVuSans-36"/>
       <use x="63.623047" xlink:href="#DejaVuSans-30"/>
       <use x="127.246094" xlink:href="#DejaVuSans-30"/>
       <use x="190.869141" xlink:href="#DejaVuSans-30"/>
      </g>
     </g>
    </g>
    <g id="ytick_7">
     <g id="line2d_13">
      <g>
       <use style="stroke:#000000;stroke-width:0.8;" x="57.6" xlink:href="#m8c1fca4cc7" y="80.974121"/>
      </g>
     </g>
     <g id="text_14">
      <!-- 7000 -->
      <g transform="translate(25.15 84.77334)scale(0.1 -0.1)">
       <defs>
        <path d="M 525 4666 
L 3525 4666 
L 3525 4397 
L 1831 0 
L 1172 0 
L 2766 4134 
L 525 4134 
L 525 4666 
z
" id="DejaVuSans-37" transform="scale(0.015625)"/>
       </defs>
       <use xlink:href="#DejaVuSans-37"/>
       <use x="63.623047" xlink:href="#DejaVuSans-30"/>
       <use x="127.246094" xlink:href="#DejaVuSans-30"/>
       <use x="190.869141" xlink:href="#DejaVuSans-30"/>
      </g>
     </g>
    </g>
    <g id="ytick_8">
     <g id="line2d_14">
      <g>
       <use style="stroke:#000000;stroke-width:0.8;" x="57.6" xlink:href="#m8c1fca4cc7" y="45.102235"/>
      </g>
     </g>
     <g id="text_15">
      <!-- 8000 -->
      <g transform="translate(25.15 48.901454)scale(0.1 -0.1)">
       <use xlink:href="#DejaVuSans-38"/>
       <use x="63.623047" xlink:href="#DejaVuSans-30"/>
       <use x="127.246094" xlink:href="#DejaVuSans-30"/>
       <use x="190.869141" xlink:href="#DejaVuSans-30"/>
      </g>
     </g>
    </g>
    <g id="text_16">
     <!-- Counts -->
     <g transform="translate(19.070312 191.981125)rotate(-90)scale(0.1 -0.1)">
      <defs>
       <path d="M 4122 4306 
L 4122 3641 
Q 3803 3938 3442 4084 
Q 3081 4231 2675 4231 
Q 1875 4231 1450 3742 
Q 1025 3253 1025 2328 
Q 1025 1406 1450 917 
Q 1875 428 2675 428 
Q 3081 428 3442 575 
Q 3803 722 4122 1019 
L 4122 359 
Q 3791 134 3420 21 
Q 3050 -91 2638 -91 
Q 1578 -91 968 557 
Q 359 1206 359 2328 
Q 359 3453 968 4101 
Q 1578 4750 2638 4750 
Q 3056 4750 3426 4639 
Q 3797 4528 4122 4306 
z
" id="DejaVuSans-43" transform="scale(0.015625)"/>
       <path d="M 1959 3097 
Q 1497 3097 1228 2736 
Q 959 2375 959 1747 
Q 959 1119 1226 758 
Q 1494 397 1959 397 
Q 2419 397 2687 759 
Q 2956 1122 2956 1747 
Q 2956 2369 2687 2733 
Q 2419 3097 1959 3097 
z
M 1959 3584 
Q 2709 3584 3137 3096 
Q 3566 2609 3566 1747 
Q 3566 888 3137 398 
Q 2709 -91 1959 -91 
Q 1206 -91 779 398 
Q 353 888 353 1747 
Q 353 2609 779 3096 
Q 1206 3584 1959 3584 
z
" id="DejaVuSans-6f" transform="scale(0.015625)"/>
       <path d="M 544 1381 
L 544 3500 
L 1119 3500 
L 1119 1403 
Q 1119 906 1312 657 
Q 1506 409 1894 409 
Q 2359 409 2629 706 
Q 2900 1003 2900 1516 
L 2900 3500 
L 3475 3500 
L 3475 0 
L 2900 0 
L 2900 538 
Q 2691 219 2414 64 
Q 2138 -91 1772 -91 
Q 1169 -91 856 284 
Q 544 659 544 1381 
z
M 1991 3584 
L 1991 3584 
z
" id="DejaVuSans-75" transform="scale(0.015625)"/>
       <path d="M 2834 3397 
L 2834 2853 
Q 2591 2978 2328 3040 
Q 2066 3103 1784 3103 
Q 1356 3103 1142 2972 
Q 928 2841 928 2578 
Q 928 2378 1081 2264 
Q 1234 2150 1697 2047 
L 1894 2003 
Q 2506 1872 2764 1633 
Q 3022 1394 3022 966 
Q 3022 478 2636 193 
Q 2250 -91 1575 -91 
Q 1294 -91 989 -36 
Q 684 19 347 128 
L 347 722 
Q 666 556 975 473 
Q 1284 391 1588 391 
Q 1994 391 2212 530 
Q 2431 669 2431 922 
Q 2431 1156 2273 1281 
Q 2116 1406 1581 1522 
L 1381 1569 
Q 847 1681 609 1914 
Q 372 2147 372 2553 
Q 372 3047 722 3315 
Q 1072 3584 1716 3584 
Q 2034 3584 2315 3537 
Q 2597 3491 2834 3397 
z
" id="DejaVuSans-73" transform="scale(0.015625)"/>
      </defs>
      <use xlink:href="#DejaVuSans-43"/>
      <use x="69.824219" xlink:href="#DejaVuSans-6f"/>
      <use x="131.005859" xlink:href="#DejaVuSans-75"/>
      <use x="194.384766" xlink:href="#DejaVuSans-6e"/>
      <use x="257.763672" xlink:href="#DejaVuSans-74"/>
      <use x="296.972656" xlink:href="#DejaVuSans-73"/>
     </g>
    </g>
   </g>
   <g id="line2d_15">
    <path clip-path="url(#p52dc5d820f)" d="M 73.832727 251.150349 
L 73.991327 260.046577 
L 74.149928 252.011274 
L 74.308528 216.856826 
L 74.467128 250.863374 
L 74.625728 242.397609 
L 74.784328 273.247431 
L 74.942928 260.620527 
L 75.101529 275.830206 
L 75.418729 239.814833 
L 75.577329 252.872199 
L 75.735929 242.254121 
L 75.894529 222.165865 
L 76.21173 233.357893 
L 76.37033 220.013552 
L 76.52893 252.585224 
L 76.68753 253.589637 
L 76.84613 270.664655 
L 77.163331 251.150349 
L 77.321931 255.598463 
L 77.480531 249.571986 
L 77.639131 202.221096 
L 77.797731 267.220954 
L 77.956332 199.351345 
L 78.114932 261.911915 
L 78.273532 231.492555 
L 78.432132 283.291559 
L 78.590732 275.973694 
L 78.749333 238.092982 
L 78.907933 271.382093 
L 79.066533 249.715473 
L 79.225133 250.432911 
L 79.383733 257.320313 
L 79.700934 279.847858 
L 80.018134 251.867786 
L 80.176734 277.265082 
L 80.335334 255.168 
L 80.493934 259.759601 
L 80.811135 275.830206 
L 80.969735 230.344655 
L 81.128335 252.585224 
L 81.286935 250.145936 
L 81.445535 263.777253 
L 81.604136 255.598463 
L 81.762736 255.598463 
L 81.921336 215.134975 
L 82.079936 262.77284 
L 82.238536 253.159174 
L 82.555737 268.368854 
L 82.714337 269.660242 
L 82.872937 257.033338 
L 83.031537 276.834619 
L 83.190137 272.816968 
L 83.348737 239.814833 
L 83.507338 271.382093 
L 83.665938 248.13711 
L 83.824538 270.664655 
L 83.983138 255.311488 
L 84.141738 225.896541 
L 84.300338 262.77284 
L 84.458939 254.307075 
L 84.776139 279.847858 
L 85.251939 227.331416 
L 85.41054 274.825794 
L 85.56914 259.185651 
L 85.72774 270.37768 
L 85.88634 248.424085 
L 86.20354 285.730847 
L 86.362141 224.892128 
L 86.679341 270.37768 
L 86.996541 234.362306 
L 87.155141 258.755189 
L 87.472342 246.41526 
L 87.630942 252.441737 
L 87.789542 275.256256 
L 87.948142 212.265224 
L 88.106742 253.159174 
L 88.265343 255.885438 
L 88.423943 279.13042 
L 88.741143 263.203302 
L 88.899743 265.786078 
L 89.058343 273.534406 
L 89.216944 267.651416 
L 89.375544 237.806007 
L 89.534144 284.295972 
L 89.692744 262.485865 
L 89.851344 279.273907 
L 90.009944 249.285011 
L 90.327145 279.560883 
L 90.485745 231.492555 
L 90.644345 276.834619 
L 90.961545 259.472626 
L 91.120146 274.538819 
L 91.278746 262.916327 
L 91.437346 265.929566 
L 91.595946 284.008996 
L 91.754546 260.190064 
L 91.913147 260.190064 
L 92.071747 246.845722 
L 92.230347 272.09953 
L 92.388947 277.98252 
L 92.547547 235.797181 
L 92.864748 268.655829 
L 93.023348 273.247431 
L 93.181948 284.582947 
L 93.340548 259.759601 
L 93.657748 280.27832 
L 93.816349 254.163587 
L 93.974949 258.611701 
L 94.133549 257.894263 
L 94.292149 263.490278 
L 94.450749 262.342377 
L 94.609349 264.781665 
L 94.76795 263.92074 
L 94.92655 262.19889 
L 95.08515 212.408712 
L 95.24375 246.845722 
L 95.40235 250.719886 
L 95.56095 261.768427 
L 95.719551 246.558747 
L 95.878151 277.695544 
L 96.036751 272.816968 
L 96.195351 261.194477 
L 96.353951 224.892128 
L 96.671152 258.324726 
L 96.829752 240.101808 
L 96.988352 279.417395 
L 97.305552 246.558747 
L 97.464152 251.150349 
L 97.622753 267.651416 
L 97.781353 243.402021 
L 97.939953 249.858961 
L 98.098553 269.516754 
L 98.257153 247.706648 
L 98.415753 262.485865 
L 98.574354 263.633765 
L 98.732954 238.666932 
L 98.891554 245.123872 
L 99.050154 262.485865 
L 99.208754 265.929566 
L 99.367354 273.390918 
L 99.525955 263.92074 
L 99.684555 227.474904 
L 99.843155 279.417395 
L 100.001755 267.220954 
L 100.160355 270.090705 
L 100.318955 291.039886 
L 100.477556 267.507929 
L 100.636156 270.234192 
L 100.953356 222.596327 
L 101.111956 267.220954 
L 101.270556 240.388783 
L 101.429157 289.174548 
L 101.587757 268.368854 
L 101.746357 278.126007 
L 101.904957 224.17469 
L 102.063557 259.329139 
L 102.539358 283.004584 
L 102.697958 267.651416 
L 102.856558 230.63163 
L 103.173758 282.287146 
L 103.490959 224.461665 
L 103.649559 264.781665 
L 103.808159 272.09953 
L 103.966759 259.185651 
L 104.12536 267.938391 
L 104.28396 232.927431 
L 104.60116 250.145936 
L 104.91836 269.086292 
L 105.076961 257.176826 
L 105.235561 268.942804 
L 105.394161 222.022377 
L 105.711361 259.472626 
L 105.869961 251.293836 
L 106.028562 278.55647 
L 106.187162 265.068641 
L 106.504362 275.973694 
L 106.662962 274.108356 
L 106.821562 264.49469 
L 106.980163 245.697822 
L 107.138763 273.390918 
L 107.297363 250.576399 
L 107.455963 257.607288 
L 107.614563 279.273907 
L 107.931764 246.271772 
L 108.090364 267.364441 
L 108.248964 262.055402 
L 108.407564 245.697822 
L 108.566164 283.148071 
L 108.724764 246.98921 
L 108.883365 264.925153 
L 109.041965 255.168 
L 109.200565 269.086292 
L 109.359165 235.366719 
L 109.517765 267.077466 
L 109.676365 275.543231 
L 109.834966 237.088569 
L 110.152166 274.825794 
L 110.310766 258.468214 
L 110.627966 270.664655 
L 110.786567 257.894263 
L 110.945167 273.247431 
L 111.103767 250.002448 
L 111.579567 274.682306 
L 111.738168 239.814833 
L 111.896768 279.13042 
L 112.055368 223.170278 
L 112.372568 241.393196 
L 112.531168 276.404157 
L 112.689769 264.781665 
L 113.006969 282.287146 
L 113.165569 266.216541 
L 113.324169 280.134833 
L 113.482769 271.52558 
L 113.79997 245.410847 
L 113.95857 269.660242 
L 114.11717 260.333552 
L 114.27577 278.412982 
L 114.43437 250.145936 
L 114.592971 281.282733 
L 114.751571 276.978107 
L 114.910171 277.98252 
L 115.227371 240.101808 
L 115.544572 285.300384 
L 115.703172 277.98252 
L 115.861772 246.271772 
L 116.178972 285.013409 
L 116.337573 210.112911 
L 116.496173 245.267359 
L 116.654773 247.419673 
L 116.813373 167.784085 
L 116.971973 268.512342 
L 117.130573 217.430776 
L 117.289174 277.408569 
L 117.447774 270.95163 
L 117.606374 286.591772 
L 117.764974 278.699957 
L 117.923574 264.207715 
L 118.082174 272.67348 
L 118.240775 289.605011 
L 118.399375 240.53227 
L 119.350976 283.435046 
L 119.509576 269.086292 
L 119.668176 266.360028 
L 119.826776 271.095117 
L 119.985376 271.382093 
L 120.302577 233.501381 
L 120.461177 274.108356 
L 120.619777 282.861096 
L 120.778377 276.260669 
L 120.936977 178.545651 
L 121.095578 254.163587 
L 121.254178 263.059815 
L 121.412778 262.77284 
L 121.571378 268.799317 
L 121.729978 252.154762 
L 121.888578 277.695544 
L 122.047179 262.055402 
L 122.205779 273.534406 
L 122.364379 274.538819 
L 122.522979 276.547644 
L 122.681579 252.728712 
L 122.840179 274.682306 
L 122.99878 274.395331 
L 123.15738 276.691132 
L 123.31598 268.655829 
L 123.47458 270.664655 
L 123.63318 286.591772 
L 123.79178 253.015687 
L 123.950381 245.984797 
L 124.108981 272.09953 
L 124.267581 257.176826 
L 124.426181 258.181238 
L 124.584781 272.960456 
L 124.743381 239.95832 
L 124.901982 282.430633 
L 125.219182 244.693409 
L 125.536382 271.095117 
L 125.694982 280.708783 
L 125.853583 195.333694 
L 126.012183 267.651416 
L 126.170783 254.163587 
L 126.329383 258.468214 
L 126.487983 266.216541 
L 126.646583 257.607288 
L 126.805184 269.947217 
L 126.963784 261.194477 
L 127.122384 261.337964 
L 127.280984 267.507929 
L 127.439584 291.039886 
L 127.598184 283.004584 
L 127.756785 269.086292 
L 127.915385 268.655829 
L 128.073985 287.165722 
L 128.391185 224.892128 
L 128.708386 272.09953 
L 128.866986 250.432911 
L 129.025586 273.247431 
L 129.342786 269.086292 
L 129.501387 274.825794 
L 129.659987 275.686719 
L 129.818587 273.390918 
L 129.977187 255.74195 
L 130.135787 275.543231 
L 130.294387 270.664655 
L 130.452988 282.717609 
L 130.611588 270.808142 
L 130.770188 277.695544 
L 131.087388 257.463801 
L 131.563189 291.613836 
L 131.880389 247.56316 
L 132.038989 266.073053 
L 132.35619 228.048854 
L 132.51479 283.435046 
L 132.67339 254.59405 
L 132.83199 265.499103 
L 132.99059 264.49469 
L 133.14919 278.699957 
L 133.307791 274.825794 
L 133.466391 262.342377 
L 133.624991 265.786078 
L 133.783591 241.967146 
L 133.942191 274.108356 
L 134.100791 256.028925 
L 134.259392 287.452698 
L 134.893792 239.95832 
L 135.052392 281.856683 
L 135.210993 269.80373 
L 135.369593 291.183374 
L 135.528193 252.441737 
L 135.686793 283.291559 
L 135.845393 289.03106 
L 136.003993 266.790491 
L 136.162594 260.190064 
L 136.321194 261.911915 
L 136.479794 269.80373 
L 136.638394 270.090705 
L 136.955594 280.85227 
L 137.114195 268.225367 
L 137.272795 278.986932 
L 137.589995 249.715473 
L 137.748595 263.92074 
L 137.907195 254.450562 
L 138.224396 284.008996 
L 138.382996 255.598463 
L 138.541596 275.686719 
L 138.700196 270.37768 
L 138.858796 286.73526 
L 139.017397 289.174548 
L 139.175997 252.441737 
L 139.334597 259.759601 
L 139.493197 282.287146 
L 139.810397 259.759601 
L 140.127598 277.98252 
L 140.286198 256.3159 
L 140.603398 275.543231 
L 140.761998 275.543231 
L 140.920599 277.552057 
L 141.079199 257.176826 
L 141.237799 264.781665 
L 141.396399 255.74195 
L 141.554999 271.812555 
L 141.7136 267.794904 
L 141.8722 256.746363 
L 142.1894 277.265082 
L 142.5066 244.549922 
L 142.665201 267.651416 
L 142.823801 249.285011 
L 143.141001 276.834619 
L 143.299601 238.523445 
L 143.458201 274.538819 
L 143.616802 259.042164 
L 143.775402 255.024512 
L 143.934002 274.825794 
L 144.092602 253.876612 
L 144.251202 280.27832 
L 144.409802 248.998036 
L 144.568403 243.258534 
L 144.885603 285.587359 
L 145.044203 259.472626 
L 145.202803 260.764014 
L 145.361403 257.463801 
L 145.520004 244.836897 
L 145.678604 260.477039 
L 145.995804 265.929566 
L 146.154404 254.163587 
L 146.313004 279.417395 
L 146.471605 267.220954 
L 146.630205 276.834619 
L 146.788805 235.940669 
L 146.947405 259.903089 
L 147.264605 240.962733 
L 147.423206 276.547644 
L 147.581806 249.715473 
L 147.899006 277.839032 
L 148.216206 248.424085 
L 148.374807 282.574121 
L 148.533407 242.541096 
L 148.850607 270.37768 
L 149.009207 279.560883 
L 149.167807 264.49469 
L 149.485008 285.013409 
L 149.643608 220.730989 
L 149.960808 256.746363 
L 150.119408 231.20558 
L 150.278009 270.521167 
L 150.436609 253.302662 
L 150.595209 273.821381 
L 150.753809 234.649281 
L 150.912409 262.916327 
L 151.071009 255.311488 
L 151.22961 286.73526 
L 151.38821 252.585224 
L 151.54681 274.108356 
L 151.70541 271.669068 
L 151.86401 277.408569 
L 152.02261 237.375544 
L 152.339811 274.969281 
L 152.498411 276.117181 
L 152.657011 266.647004 
L 152.815611 266.503516 
L 152.974211 255.598463 
L 153.132812 258.324726 
L 153.291412 282.574121 
L 153.450012 270.95163 
L 153.608612 272.386505 
L 153.767212 246.128285 
L 154.243013 282.430633 
L 154.401613 243.258534 
L 154.560213 270.090705 
L 154.718813 266.933979 
L 154.877414 285.013409 
L 155.036014 282.000171 
L 155.194614 258.611701 
L 155.511814 278.126007 
L 155.670414 253.876612 
L 155.829015 274.969281 
L 156.146215 246.558747 
L 156.304815 267.507929 
L 156.622015 246.558747 
L 156.780616 269.086292 
L 156.939216 262.19889 
L 157.097816 261.337964 
L 157.256416 239.527858 
L 157.415016 264.925153 
L 157.573616 269.086292 
L 157.732217 254.881025 
L 157.890817 283.148071 
L 158.049417 265.929566 
L 158.208017 270.95163 
L 158.366617 271.52558 
L 158.525217 277.408569 
L 158.683818 265.355616 
L 158.842418 263.203302 
L 159.001018 257.176826 
L 159.159618 256.172413 
L 159.318218 282.574121 
L 159.476818 217.000313 
L 159.635419 266.790491 
L 159.794019 275.399744 
L 160.269819 244.980384 
L 160.428419 267.220954 
L 160.58702 248.854548 
L 160.74562 285.300384 
L 160.90422 280.85227 
L 161.06282 273.103943 
L 161.22142 283.291559 
L 161.38002 270.090705 
L 161.538621 282.574121 
L 161.697221 253.302662 
L 162.014421 272.386505 
L 162.173021 263.34679 
L 162.648822 287.88316 
L 162.807422 256.602875 
L 162.966022 269.947217 
L 163.124622 269.373267 
L 163.283222 243.545509 
L 163.600423 286.448285 
L 163.759023 254.881025 
L 163.917623 284.439459 
L 164.076223 262.19889 
L 164.234823 266.216541 
L 164.393424 254.59405 
L 164.552024 263.92074 
L 164.710624 253.733125 
L 164.869224 272.67348 
L 165.027824 269.80373 
L 165.186424 208.821523 
L 165.345025 251.580811 
L 165.503625 263.059815 
L 165.662225 265.642591 
L 165.820825 257.750776 
L 165.979425 274.825794 
L 166.138025 253.446149 
L 166.296626 265.786078 
L 166.455226 249.858961 
L 166.613826 271.956043 
L 166.772426 275.112769 
L 166.931026 241.393196 
L 167.089627 267.794904 
L 167.248227 267.651416 
L 167.406827 234.936256 
L 167.565427 266.073053 
L 167.724027 199.207858 
L 168.041228 277.552057 
L 168.199828 255.885438 
L 168.358428 270.95163 
L 168.517028 269.086292 
L 168.675628 283.291559 
L 168.834228 279.273907 
L 168.992829 266.933979 
L 169.151429 267.364441 
L 169.310029 262.629352 
L 169.468629 233.357893 
L 169.627229 262.77284 
L 169.785829 241.967146 
L 169.94443 272.816968 
L 170.26163 262.342377 
L 170.42023 274.682306 
L 170.57883 249.141523 
L 170.73743 272.67348 
L 170.896031 265.499103 
L 171.054631 251.006861 
L 171.213231 266.933979 
L 171.371831 243.975972 
L 171.689031 276.260669 
L 171.847632 265.642591 
L 172.006232 245.123872 
L 172.164832 251.867786 
L 172.323432 266.933979 
L 172.482032 242.541096 
L 172.640632 252.728712 
L 172.799233 279.273907 
L 173.116433 250.002448 
L 173.433633 267.938391 
L 173.592233 283.435046 
L 173.750834 262.916327 
L 173.909434 260.764014 
L 174.068034 249.571986 
L 174.226634 257.033338 
L 174.385234 255.74195 
L 174.543834 246.558747 
L 174.861035 277.408569 
L 175.336835 262.342377 
L 175.495435 265.212128 
L 175.654036 264.781665 
L 175.812636 266.073053 
L 175.971236 259.616114 
L 176.129836 280.995758 
L 176.288436 265.355616 
L 176.447036 289.461523 
L 176.605637 278.269495 
L 176.764237 249.858961 
L 176.922837 260.764014 
L 177.081437 222.45284 
L 177.240037 249.858961 
L 177.874438 252.011274 
L 178.033038 263.34679 
L 178.191638 263.34679 
L 178.350238 269.80373 
L 178.508839 267.077466 
L 178.667439 253.159174 
L 178.826039 258.755189 
L 178.984639 254.163587 
L 179.143239 256.889851 
L 179.301839 282.430633 
L 179.46044 265.929566 
L 179.61904 269.229779 
L 179.77764 285.300384 
L 179.93624 288.600598 
L 180.09484 261.768427 
L 180.253441 258.755189 
L 180.412041 257.894263 
L 180.570641 248.854548 
L 180.729241 246.702235 
L 180.887841 278.126007 
L 181.046441 257.750776 
L 181.205042 268.942804 
L 181.363642 241.967146 
L 181.522242 272.243018 
L 181.680842 258.324726 
L 181.839442 260.620527 
L 181.998042 261.194477 
L 182.156643 256.028925 
L 182.315243 256.459388 
L 182.632443 221.735402 
L 182.791043 276.691132 
L 182.949643 249.858961 
L 183.108244 268.225367 
L 183.266844 249.571986 
L 183.425444 274.825794 
L 183.584044 280.27832 
L 183.742644 273.247431 
L 183.901244 285.156897 
L 184.059845 248.280598 
L 184.218445 261.050989 
L 184.377045 263.059815 
L 184.535645 266.790491 
L 184.852845 246.128285 
L 185.170046 281.139246 
L 185.487246 256.746363 
L 185.645846 270.808142 
L 185.804446 236.084157 
L 186.121647 275.973694 
L 186.280247 270.234192 
L 186.438847 277.121594 
L 186.597447 252.872199 
L 186.914648 259.472626 
L 187.073248 271.382093 
L 187.231848 232.783943 
L 187.549048 275.112769 
L 187.707648 286.448285 
L 187.866249 264.49469 
L 188.024849 274.395331 
L 188.183449 246.41526 
L 188.342049 286.16131 
L 188.500649 262.055402 
L 188.659249 269.516754 
L 188.81785 241.680171 
L 188.97645 262.342377 
L 189.13505 267.220954 
L 189.45225 244.406434 
L 189.61085 287.596185 
L 189.769451 247.850135 
L 190.086651 274.251843 
L 190.245251 248.13711 
L 190.403851 260.907502 
L 190.562451 264.49469 
L 190.721052 251.293836 
L 190.879652 277.98252 
L 191.196852 258.181238 
L 191.355452 245.267359 
L 191.514052 246.128285 
L 191.831253 261.62494 
L 191.989853 252.728712 
L 192.307053 269.373267 
L 192.624254 255.454975 
L 192.782854 219.870064 
L 192.941454 267.794904 
L 193.100054 276.117181 
L 193.258654 263.92074 
L 193.417255 263.777253 
L 193.575855 277.121594 
L 193.734455 277.265082 
L 193.893055 252.298249 
L 194.051655 263.633765 
L 194.210255 247.993623 
L 194.368856 274.108356 
L 194.527456 265.068641 
L 194.686056 265.786078 
L 194.844656 263.777253 
L 195.003256 245.554335 
L 195.161856 265.355616 
L 195.479057 242.971559 
L 195.796257 262.916327 
L 195.954857 260.907502 
L 196.113457 266.790491 
L 196.272058 284.295972 
L 196.430658 236.801594 
L 196.747858 277.408569 
L 196.906458 253.159174 
L 197.065058 271.812555 
L 197.382259 244.693409 
L 197.540859 260.477039 
L 197.699459 255.598463 
L 197.858059 268.081879 
L 198.016659 248.998036 
L 198.17526 281.426221 
L 198.33386 186.437466 
L 198.49246 275.973694 
L 198.65106 249.428498 
L 198.80966 251.437324 
L 199.126861 275.112769 
L 199.285461 266.503516 
L 199.444061 251.006861 
L 199.602661 246.98921 
L 199.761261 252.872199 
L 199.919861 279.273907 
L 200.078462 268.225367 
L 200.237062 267.794904 
L 200.395662 256.028925 
L 200.554262 253.159174 
L 200.712862 270.664655 
L 200.871462 243.545509 
L 201.030063 242.110633 
L 201.188663 267.651416 
L 201.347263 220.013552 
L 201.505863 265.068641 
L 201.664463 271.956043 
L 201.823063 272.67348 
L 201.981664 272.67348 
L 202.140264 283.148071 
L 202.298864 255.024512 
L 202.616064 264.064228 
L 202.774664 263.059815 
L 202.933265 263.34679 
L 203.250465 208.965011 
L 203.409065 252.154762 
L 203.567665 246.128285 
L 203.726265 279.560883 
L 203.884866 279.560883 
L 204.202066 255.168 
L 204.360666 260.620527 
L 204.519266 280.134833 
L 204.677867 261.050989 
L 204.836467 272.529993 
L 204.995067 259.616114 
L 205.153667 273.390918 
L 205.470867 276.117181 
L 205.629468 274.969281 
L 205.788068 270.37768 
L 205.946668 231.77953 
L 206.263868 291.613836 
L 206.422468 244.693409 
L 206.898269 282.861096 
L 207.056869 255.311488 
L 207.374069 253.302662 
L 207.53267 285.587359 
L 207.69127 228.766292 
L 207.84987 263.92074 
L 208.00847 243.115046 
L 208.32567 274.395331 
L 208.484271 253.446149 
L 208.642871 264.064228 
L 208.801471 263.490278 
L 208.960071 256.459388 
L 209.118671 269.516754 
L 209.277271 253.733125 
L 209.435872 275.543231 
L 209.594472 263.633765 
L 209.753072 273.677893 
L 209.911672 256.172413 
L 210.070272 258.037751 
L 210.228872 283.291559 
L 210.387473 272.816968 
L 210.546073 254.0201 
L 210.704673 251.580811 
L 210.863273 264.925153 
L 211.021873 252.585224 
L 211.180473 248.998036 
L 211.656274 283.578534 
L 211.814874 249.285011 
L 211.973474 269.086292 
L 212.132074 268.081879 
L 212.290675 262.629352 
L 212.449275 271.812555 
L 212.607875 266.790491 
L 212.766475 254.59405 
L 212.925075 270.521167 
L 213.083675 258.324726 
L 213.242276 264.925153 
L 213.559476 249.141523 
L 213.718076 279.560883 
L 213.876676 273.247431 
L 214.035276 252.011274 
L 214.352477 259.042164 
L 214.511077 260.764014 
L 214.669677 282.287146 
L 214.828277 264.638178 
L 214.986877 279.273907 
L 215.145478 276.404157 
L 215.621278 244.549922 
L 215.938478 268.655829 
L 216.097079 259.185651 
L 216.572879 288.600598 
L 216.731479 248.854548 
L 216.890079 285.587359 
L 217.04868 252.154762 
L 217.36588 263.059815 
L 217.52448 269.229779 
L 217.68308 261.62494 
L 217.841681 242.828071 
L 218.000281 270.664655 
L 218.158881 276.547644 
L 218.317481 255.454975 
L 218.476081 271.095117 
L 218.793282 273.390918 
L 218.951882 269.086292 
L 219.110482 268.368854 
L 219.269082 285.300384 
L 219.427682 244.980384 
L 219.586282 277.265082 
L 219.744883 250.432911 
L 219.903483 262.342377 
L 220.062083 288.600598 
L 220.379283 244.980384 
L 220.537883 246.41526 
L 220.696484 271.095117 
L 220.855084 277.265082 
L 221.013684 254.307075 
L 221.172284 266.933979 
L 221.330884 241.106221 
L 221.648085 263.059815 
L 221.806685 263.490278 
L 221.965285 275.399744 
L 222.123885 253.589637 
L 222.282485 260.907502 
L 222.441085 200.068783 
L 222.599686 268.799317 
L 222.758286 279.70437 
L 222.916886 222.739815 
L 223.075486 257.463801 
L 223.234086 259.042164 
L 223.392686 246.41526 
L 223.551287 260.764014 
L 223.709887 254.450562 
L 223.868487 253.589637 
L 224.027087 270.808142 
L 224.185687 245.697822 
L 224.502888 255.311488 
L 224.661488 272.67348 
L 224.820088 262.916327 
L 224.978688 282.717609 
L 225.137288 248.71106 
L 225.295888 278.269495 
L 225.613089 257.033338 
L 225.930289 270.664655 
L 226.088889 270.521167 
L 226.40609 286.304797 
L 226.56469 232.35348 
L 226.72329 269.373267 
L 226.88189 279.560883 
L 227.04049 282.574121 
L 227.19909 272.67348 
L 227.357691 255.168 
L 227.674891 268.081879 
L 227.833491 243.975972 
L 227.992091 261.050989 
L 228.150691 258.037751 
L 228.309292 233.788356 
L 228.626492 280.565295 
L 228.943692 247.993623 
L 229.102292 253.302662 
L 229.260893 280.85227 
L 229.578093 246.98921 
L 229.736693 276.978107 
L 229.895293 273.390918 
L 230.053894 232.640456 
L 230.212494 265.929566 
L 230.371094 247.419673 
L 230.529694 247.993623 
L 230.846894 290.035473 
L 231.005495 261.050989 
L 231.164095 287.30921 
L 231.322695 269.80373 
L 231.639895 266.933979 
L 231.798495 273.103943 
L 231.957096 264.064228 
L 232.115696 238.523445 
L 232.432896 289.174548 
L 232.591496 281.426221 
L 232.750096 226.470491 
L 232.908697 269.373267 
L 233.067297 241.967146 
L 233.384497 277.552057 
L 233.543097 295.488 
L 233.701697 244.549922 
L 233.860298 283.578534 
L 234.018898 278.55647 
L 234.177498 269.947217 
L 234.336098 234.505794 
L 234.653298 279.560883 
L 234.811899 270.808142 
L 234.970499 277.552057 
L 235.129099 261.911915 
L 235.287699 277.695544 
L 235.446299 268.799317 
L 235.604899 284.295972 
L 235.7635 257.607288 
L 235.9221 270.95163 
L 236.0807 263.34679 
L 236.2393 225.179103 
L 236.5565 276.117181 
L 236.715101 271.095117 
L 236.873701 262.342377 
L 237.032301 277.839032 
L 237.190901 248.424085 
L 237.349501 272.09953 
L 237.666702 247.276185 
L 237.825302 258.898676 
L 237.983902 53.568 
L 238.142502 283.435046 
L 238.301102 277.98252 
L 238.459702 285.587359 
L 238.618303 257.176826 
L 238.776903 275.973694 
L 238.935503 250.432911 
L 239.094103 274.251843 
L 239.252703 268.799317 
L 239.411303 280.134833 
L 239.728504 264.49469 
L 240.045704 286.017822 
L 240.204304 237.519032 
L 240.362904 260.620527 
L 240.680105 239.95832 
L 240.838705 266.933979 
L 240.997305 258.755189 
L 241.155905 278.269495 
L 241.314505 264.351203 
L 241.473106 277.695544 
L 241.631706 249.285011 
L 241.790306 266.216541 
L 241.948906 265.642591 
L 242.107506 270.664655 
L 242.424707 229.627217 
L 242.583307 277.695544 
L 242.741907 229.770705 
L 242.900507 273.390918 
L 243.059107 248.998036 
L 243.217708 283.291559 
L 243.376308 276.117181 
L 243.534908 247.56316 
L 243.693508 278.412982 
L 243.852108 262.055402 
L 244.010708 261.050989 
L 244.169309 247.56316 
L 244.327909 272.67348 
L 244.486509 270.521167 
L 244.645109 261.050989 
L 244.803709 273.964868 
L 244.962309 271.382093 
L 245.12091 272.816968 
L 245.27951 270.234192 
L 245.59671 240.962733 
L 245.75531 265.642591 
L 245.91391 261.337964 
L 246.072511 270.521167 
L 246.231111 242.828071 
L 246.389711 277.552057 
L 246.865511 247.132698 
L 247.024112 270.234192 
L 247.182712 272.529993 
L 247.341312 264.49469 
L 247.499912 269.516754 
L 247.658512 261.194477 
L 247.817112 288.887573 
L 247.975713 253.733125 
L 248.134313 286.73526 
L 248.292913 249.571986 
L 248.451513 260.764014 
L 248.610113 260.190064 
L 248.768713 268.512342 
L 248.927314 262.77284 
L 249.085914 272.386505 
L 249.244514 267.507929 
L 249.403114 267.077466 
L 249.561714 236.227644 
L 249.878915 282.861096 
L 250.037515 279.13042 
L 250.196115 223.02679 
L 250.354715 261.481452 
L 250.513315 266.360028 
L 250.671915 286.591772 
L 250.989116 246.702235 
L 251.147716 265.499103 
L 251.306316 254.881025 
L 251.623516 259.616114 
L 251.782117 264.064228 
L 251.940717 252.011274 
L 252.099317 281.139246 
L 252.257917 267.077466 
L 252.416517 230.201167 
L 252.575117 278.269495 
L 252.733718 246.558747 
L 253.050918 269.086292 
L 253.209518 248.280598 
L 253.368118 255.598463 
L 253.526718 275.973694 
L 253.685319 250.576399 
L 254.002519 285.013409 
L 254.161119 256.602875 
L 254.319719 253.733125 
L 254.478319 271.52558 
L 254.63692 245.984797 
L 254.95412 272.816968 
L 255.11272 267.077466 
L 255.429921 276.691132 
L 255.747121 246.271772 
L 255.905721 282.430633 
L 256.064321 265.499103 
L 256.222921 263.203302 
L 256.381522 266.647004 
L 256.540122 291.613836 
L 256.698722 277.695544 
L 256.857322 241.249708 
L 257.015922 243.832484 
L 257.333123 284.869922 
L 257.808923 256.172413 
L 257.967523 277.98252 
L 258.126123 268.368854 
L 258.284724 245.267359 
L 258.601924 271.52558 
L 258.919124 267.938391 
L 259.077724 293.479174 
L 259.236325 274.538819 
L 259.394925 281.426221 
L 259.553525 254.881025 
L 259.712125 256.3159 
L 260.029325 275.830206 
L 260.346526 259.903089 
L 260.505126 261.768427 
L 260.663726 203.942947 
L 260.822326 286.878747 
L 260.980926 259.329139 
L 261.298127 268.799317 
L 261.456727 261.337964 
L 261.615327 273.964868 
L 261.773927 235.940669 
L 261.932527 276.117181 
L 262.091128 280.708783 
L 262.408328 261.768427 
L 262.725528 275.399744 
L 262.884128 279.417395 
L 263.042729 209.395473 
L 263.201329 287.596185 
L 263.518529 244.980384 
L 263.677129 263.777253 
L 263.835729 239.95832 
L 264.31153 283.865509 
L 264.47013 277.265082 
L 264.62873 288.026648 
L 264.945931 265.355616 
L 265.104531 272.386505 
L 265.263131 268.225367 
L 265.421731 232.496968 
L 265.580331 262.19889 
L 265.897532 274.251843 
L 266.056132 254.0201 
L 266.373332 276.117181 
L 266.531932 247.56316 
L 266.690532 278.55647 
L 266.849133 223.313765 
L 267.007733 282.574121 
L 267.166333 242.397609 
L 267.324933 280.85227 
L 267.483533 272.67348 
L 267.642133 277.98252 
L 267.959334 251.437324 
L 268.117934 248.854548 
L 268.276534 226.757466 
L 268.593735 278.986932 
L 268.752335 263.059815 
L 268.910935 277.695544 
L 269.069535 259.042164 
L 269.228135 271.52558 
L 269.386735 235.079744 
L 269.545336 264.207715 
L 269.703936 260.190064 
L 269.862536 242.254121 
L 270.021136 254.59405 
L 270.179736 236.514619 
L 270.338336 270.95163 
L 270.496937 270.234192 
L 270.814137 276.117181 
L 270.972737 266.216541 
L 271.131337 264.064228 
L 271.448538 281.569708 
L 271.607138 256.459388 
L 271.765738 280.708783 
L 271.924338 256.746363 
L 272.082938 249.571986 
L 272.241538 274.538819 
L 272.558739 265.355616 
L 272.717339 274.825794 
L 273.193139 266.360028 
L 273.35174 269.516754 
L 273.51034 247.56316 
L 273.66894 274.251843 
L 273.98614 246.271772 
L 274.14474 283.435046 
L 274.303341 280.565295 
L 274.461941 250.145936 
L 274.620541 269.086292 
L 274.779141 269.80373 
L 274.937741 244.836897 
L 275.254942 281.569708 
L 275.413542 249.715473 
L 275.572142 276.117181 
L 275.730742 257.176826 
L 275.889342 279.70437 
L 276.047942 256.172413 
L 276.206543 267.077466 
L 276.365143 261.337964 
L 276.523743 265.499103 
L 276.682343 277.839032 
L 276.840943 272.529993 
L 276.999543 260.046577 
L 277.158144 268.799317 
L 277.316744 265.786078 
L 277.475344 257.607288 
L 277.633944 234.218819 
L 277.792544 260.046577 
L 277.951144 265.355616 
L 278.109745 282.000171 
L 278.268345 229.914192 
L 278.585545 281.856683 
L 278.744145 268.799317 
L 278.902745 276.547644 
L 279.061346 233.931843 
L 279.219946 271.956043 
L 279.378546 277.839032 
L 279.537146 241.106221 
L 279.695746 270.090705 
L 279.854346 271.812555 
L 280.330147 242.254121 
L 280.647347 280.85227 
L 280.805948 275.973694 
L 280.964548 245.84131 
L 281.123148 265.355616 
L 281.281748 263.777253 
L 281.598948 234.362306 
L 281.916149 273.103943 
L 282.074749 252.011274 
L 282.233349 261.194477 
L 282.391949 262.77284 
L 282.550549 280.27832 
L 282.70915 252.872199 
L 282.86775 267.364441 
L 283.02635 266.073053 
L 283.18495 277.408569 
L 283.34355 259.329139 
L 283.50215 255.454975 
L 283.660751 279.13042 
L 283.819351 257.894263 
L 283.977951 256.3159 
L 284.136551 271.669068 
L 284.295151 237.806007 
L 284.453751 271.956043 
L 284.612352 277.695544 
L 284.929552 257.607288 
L 285.088152 276.547644 
L 285.246752 275.256256 
L 285.405352 284.869922 
L 285.563953 268.655829 
L 285.722553 279.560883 
L 285.881153 275.399744 
L 286.039753 287.88316 
L 286.198353 271.52558 
L 286.356953 270.234192 
L 286.515554 246.41526 
L 286.674154 270.95163 
L 286.832754 267.651416 
L 286.991354 243.975972 
L 287.149954 257.607288 
L 287.308554 234.936256 
L 287.467155 260.333552 
L 287.625755 254.59405 
L 287.784355 239.527858 
L 287.942955 249.285011 
L 288.101555 239.097395 
L 288.260155 247.132698 
L 288.418756 273.821381 
L 288.735956 259.616114 
L 288.894556 221.448427 
L 289.053156 260.046577 
L 289.211756 264.207715 
L 289.370357 264.351203 
L 289.528957 256.746363 
L 289.687557 269.80373 
L 289.846157 257.894263 
L 290.163357 272.816968 
L 290.480558 246.702235 
L 290.639158 272.816968 
L 290.797758 275.112769 
L 290.956358 250.863374 
L 291.114958 271.382093 
L 291.273559 270.664655 
L 291.432159 271.956043 
L 291.590759 277.121594 
L 291.907959 239.671345 
L 292.066559 290.752911 
L 292.22516 272.243018 
L 292.38376 278.412982 
L 292.54236 222.596327 
L 292.70096 267.077466 
L 292.85956 268.655829 
L 293.018161 261.911915 
L 293.176761 264.064228 
L 293.335361 256.459388 
L 293.493961 273.534406 
L 293.652561 273.534406 
L 293.969762 247.419673 
L 294.286962 273.247431 
L 294.445562 246.558747 
L 294.604162 265.355616 
L 294.762762 253.302662 
L 294.921363 275.686719 
L 295.079963 227.187929 
L 295.238563 231.349068 
L 295.397163 268.512342 
L 295.555763 258.181238 
L 295.714363 280.27832 
L 295.872964 261.337964 
L 296.031564 260.046577 
L 296.190164 256.172413 
L 296.348764 269.086292 
L 296.507364 258.324726 
L 296.665964 255.311488 
L 296.824565 257.894263 
L 296.983165 256.172413 
L 297.141765 248.567573 
L 297.300365 288.45711 
L 297.458965 256.028925 
L 297.776166 237.088569 
L 298.093366 272.816968 
L 298.251966 232.640456 
L 298.410566 261.481452 
L 298.569166 253.159174 
L 298.727767 259.329139 
L 298.886367 218.148214 
L 299.044967 278.986932 
L 299.203567 245.84131 
L 299.362167 242.541096 
L 299.679368 271.52558 
L 299.837968 268.942804 
L 299.996568 240.101808 
L 300.313768 285.156897 
L 300.472368 275.686719 
L 300.630969 282.717609 
L 300.789569 245.410847 
L 300.948169 239.527858 
L 301.106769 283.435046 
L 301.265369 245.554335 
L 301.423969 242.110633 
L 301.58257 265.499103 
L 301.74117 264.351203 
L 301.89977 254.450562 
L 302.05837 270.95163 
L 302.21697 256.172413 
L 302.37557 283.148071 
L 302.534171 277.839032 
L 302.851371 240.962733 
L 303.009971 248.854548 
L 303.327171 280.27832 
L 303.485772 274.825794 
L 303.644372 283.004584 
L 303.802972 229.196754 
L 304.120172 288.026648 
L 304.278772 246.271772 
L 304.437373 263.490278 
L 304.595973 267.651416 
L 304.754573 251.150349 
L 305.071773 280.995758 
L 305.230373 272.529993 
L 305.388974 257.750776 
L 305.547574 285.874335 
L 305.706174 269.660242 
L 305.864774 278.843445 
L 306.023374 261.768427 
L 306.181975 265.786078 
L 306.499175 252.585224 
L 306.657775 265.212128 
L 306.816375 246.702235 
L 306.974975 272.529993 
L 307.133576 270.090705 
L 307.292176 254.737537 
L 307.450776 255.311488 
L 307.767976 271.669068 
L 307.926576 253.876612 
L 308.085177 261.911915 
L 308.243777 254.450562 
L 308.402377 257.750776 
L 308.560977 254.307075 
L 308.719577 241.823658 
L 309.036778 262.342377 
L 309.195378 257.320313 
L 309.353978 225.322591 
L 309.512578 271.238605 
L 309.671178 254.59405 
L 309.829778 252.585224 
L 309.988379 252.728712 
L 310.146979 274.108356 
L 310.305579 258.037751 
L 310.464179 275.399744 
L 310.622779 267.507929 
L 310.781379 250.145936 
L 310.93998 188.733267 
L 311.09858 260.046577 
L 311.25718 266.216541 
L 311.41578 283.148071 
L 311.73298 231.349068 
L 311.891581 274.251843 
L 312.050181 279.70437 
L 312.208781 271.956043 
L 312.367381 246.702235 
L 312.525981 268.512342 
L 312.684581 261.337964 
L 312.843182 224.748641 
L 313.160382 269.660242 
L 313.318982 280.565295 
L 313.477582 260.333552 
L 313.636182 283.435046 
L 313.953383 266.503516 
L 314.111983 264.207715 
L 314.270583 245.554335 
L 314.429183 241.393196 
L 314.587783 262.916327 
L 314.746384 267.507929 
L 314.904984 231.492555 
L 315.380784 266.933979 
L 315.539384 243.545509 
L 315.697985 244.980384 
L 315.856585 257.320313 
L 316.015185 253.589637 
L 316.173785 241.249708 
L 316.490985 283.578534 
L 316.649586 267.364441 
L 316.808186 279.560883 
L 316.966786 233.214406 
L 317.283986 267.220954 
L 317.442586 271.669068 
L 317.601187 267.220954 
L 317.759787 267.938391 
L 318.235587 258.755189 
L 318.394188 270.808142 
L 318.552788 269.660242 
L 318.869988 242.971559 
L 319.028588 265.355616 
L 319.187188 241.393196 
L 319.504389 268.225367 
L 319.662989 233.788356 
L 319.980189 243.545509 
L 320.138789 274.395331 
L 320.45599 249.571986 
L 320.61459 250.719886 
L 320.77319 271.956043 
L 320.93179 274.825794 
L 321.09039 274.251843 
L 321.248991 283.865509 
L 321.566191 240.675758 
L 321.724791 247.56316 
L 321.883391 266.790491 
L 322.041991 252.298249 
L 322.359192 281.139246 
L 322.517792 266.647004 
L 322.676392 262.916327 
L 322.834992 274.682306 
L 322.993592 274.682306 
L 323.152193 251.724299 
L 323.310793 261.194477 
L 323.627993 263.777253 
L 323.786593 259.329139 
L 323.945193 276.978107 
L 324.103794 235.366719 
L 324.262394 258.898676 
L 324.420994 223.457253 
L 324.579594 264.638178 
L 324.738194 272.09953 
L 324.896794 263.490278 
L 325.055395 272.960456 
L 325.213995 243.402021 
L 325.372595 273.821381 
L 325.531195 272.960456 
L 325.689795 263.777253 
L 325.848395 238.23647 
L 326.006996 280.565295 
L 326.165596 261.911915 
L 326.324196 281.856683 
L 326.482796 276.834619 
L 326.641396 265.212128 
L 326.799996 273.103943 
L 326.958597 239.527858 
L 327.117197 270.234192 
L 327.275797 265.068641 
L 327.434397 238.523445 
L 327.592997 247.276185 
L 327.751597 227.474904 
L 327.910198 270.234192 
L 328.068798 248.998036 
L 328.227398 265.642591 
L 328.544598 235.079744 
L 328.703198 261.62494 
L 328.861799 260.190064 
L 329.178999 273.103943 
L 329.337599 225.753053 
L 329.496199 277.121594 
L 329.654799 242.684584 
L 329.8134 273.821381 
L 329.972 266.503516 
L 330.2892 270.808142 
L 330.4478 256.3159 
L 330.6064 278.269495 
L 330.765001 260.046577 
L 330.923601 255.885438 
L 331.082201 284.582947 
L 331.240801 240.675758 
L 331.399401 276.117181 
L 331.558002 248.280598 
L 331.716602 270.234192 
L 332.192402 260.190064 
L 332.351002 267.364441 
L 332.509603 240.962733 
L 332.826803 277.695544 
L 332.985403 262.485865 
L 333.302603 281.426221 
L 333.461204 254.163587 
L 333.619804 255.311488 
L 333.778404 249.571986 
L 334.095604 280.995758 
L 334.571405 252.154762 
L 334.730005 282.287146 
L 334.888605 235.797181 
L 335.047205 254.307075 
L 335.205805 236.371132 
L 335.364406 263.059815 
L 335.523006 251.437324 
L 335.681606 270.664655 
L 335.998806 258.755189 
L 336.157406 279.847858 
L 336.316007 262.19889 
L 336.474607 259.616114 
L 336.633207 259.042164 
L 336.791807 269.947217 
L 336.950407 267.938391 
L 337.109007 249.141523 
L 337.584808 288.887573 
L 337.902008 242.110633 
L 338.060608 254.737537 
L 338.219209 231.062093 
L 338.536409 271.095117 
L 338.695009 250.719886 
L 338.853609 282.287146 
L 339.012209 266.933979 
L 339.17081 270.37768 
L 339.32941 258.611701 
L 339.48801 256.172413 
L 339.64661 264.925153 
L 339.80521 255.024512 
L 339.96381 230.344655 
L 340.122411 248.71106 
L 340.281011 246.41526 
L 340.439611 250.002448 
L 340.598211 278.126007 
L 340.756811 254.450562 
L 340.915411 254.307075 
L 341.074012 278.126007 
L 341.232612 255.454975 
L 341.391212 275.973694 
L 341.549812 254.737537 
L 341.708412 263.777253 
L 342.025613 251.580811 
L 342.184213 253.159174 
L 342.342813 236.945082 
L 342.501413 266.933979 
L 342.818613 244.693409 
L 342.977214 251.724299 
L 343.135814 243.545509 
L 343.294414 250.863374 
L 343.453014 253.015687 
L 343.611614 228.335829 
L 343.770215 254.307075 
L 343.928815 259.185651 
L 344.087415 247.993623 
L 344.246015 267.938391 
L 344.404615 266.073053 
L 344.563215 267.220954 
L 344.721816 219.726577 
L 344.880416 268.799317 
L 345.039016 268.081879 
L 345.197616 264.49469 
L 345.514816 243.975972 
L 345.673417 282.143658 
L 346.149217 248.424085 
L 346.307817 246.702235 
L 346.783618 273.390918 
L 346.942218 267.077466 
L 347.100818 274.825794 
L 347.259418 254.737537 
L 347.418018 252.441737 
L 347.576619 280.565295 
L 347.893819 230.201167 
L 348.052419 263.633765 
L 348.211019 244.836897 
L 348.369619 241.536683 
L 348.52822 265.355616 
L 348.68682 266.790491 
L 349.00402 231.20558 
L 349.16262 242.541096 
L 349.32122 268.081879 
L 349.479821 267.507929 
L 349.638421 271.669068 
L 349.955621 253.589637 
L 350.114221 257.750776 
L 350.272821 243.258534 
L 350.590022 278.126007 
L 350.748622 267.938391 
L 350.907222 242.254121 
L 351.065822 288.744085 
L 351.224422 270.808142 
L 351.383023 279.847858 
L 351.858823 241.823658 
L 352.017423 245.697822 
L 352.334624 269.80373 
L 352.493224 236.084157 
L 352.651824 254.307075 
L 352.810424 249.141523 
L 352.969024 254.163587 
L 353.127624 272.243018 
L 353.444825 228.048854 
L 353.603425 237.519032 
L 353.920625 273.677893 
L 354.079225 268.081879 
L 354.237826 266.790491 
L 354.555026 244.980384 
L 354.713626 273.534406 
L 355.030826 218.722164 
L 355.348027 267.651416 
L 355.506627 270.090705 
L 355.665227 243.402021 
L 355.823827 266.216541 
L 355.982427 266.216541 
L 356.299628 272.09953 
L 356.458228 244.262947 
L 356.616828 269.373267 
L 356.775428 257.750776 
L 356.934029 265.355616 
L 357.092629 243.402021 
L 357.409829 280.708783 
L 357.568429 244.119459 
L 357.727029 238.81042 
L 358.20283 279.847858 
L 358.36143 266.790491 
L 358.52003 266.216541 
L 358.67863 256.746363 
L 358.837231 263.34679 
L 358.995831 262.055402 
L 359.154431 266.790491 
L 359.313031 264.351203 
L 359.471631 256.028925 
L 359.788832 266.790491 
L 359.947432 268.081879 
L 360.106032 273.390918 
L 360.264632 251.437324 
L 360.423232 265.929566 
L 360.581832 254.881025 
L 360.740433 261.62494 
L 360.899033 222.165865 
L 361.057633 285.730847 
L 361.216233 219.583089 
L 361.374833 248.567573 
L 361.533433 248.998036 
L 361.692034 261.050989 
L 361.850634 247.850135 
L 362.009234 225.035616 
L 362.326434 263.490278 
L 362.485034 257.894263 
L 362.643635 260.477039 
L 362.802235 270.234192 
L 362.960835 264.351203 
L 363.119435 248.71106 
L 363.278035 215.9959 
L 363.595236 254.59405 
L 363.753836 234.936256 
L 364.071036 271.956043 
L 364.229636 250.145936 
L 364.388236 244.262947 
L 364.546837 268.225367 
L 364.705437 253.733125 
L 365.022637 267.364441 
L 365.339837 238.092982 
L 365.498438 252.298249 
L 365.815638 243.258534 
L 365.974238 247.419673 
L 366.132838 260.190064 
L 366.291438 218.435189 
L 366.450039 244.980384 
L 366.608639 243.115046 
L 366.767239 246.41526 
L 366.925839 268.799317 
L 367.40164 230.488142 
L 367.56024 261.050989 
L 367.71884 261.911915 
L 368.03604 236.801594 
L 368.19464 253.302662 
L 368.353241 255.454975 
L 368.511841 274.251843 
L 368.670441 266.216541 
L 368.829041 268.225367 
L 368.987641 237.088569 
L 369.146242 240.388783 
L 369.304842 268.081879 
L 369.463442 235.653694 
L 369.780642 268.799317 
L 369.939242 266.073053 
L 370.097843 228.766292 
L 370.256443 253.302662 
L 370.415043 256.172413 
L 370.573643 262.77284 
L 370.732243 246.128285 
L 371.049444 267.651416 
L 371.208044 242.828071 
L 371.366644 255.598463 
L 371.683844 238.092982 
L 371.842444 268.081879 
L 372.001045 238.092982 
L 372.318245 257.607288 
L 372.476845 257.320313 
L 372.635445 248.424085 
L 372.794045 251.724299 
L 372.952646 262.77284 
L 373.111246 231.062093 
L 373.269846 272.960456 
L 373.428446 267.364441 
L 373.587046 275.256256 
L 373.745646 249.571986 
L 373.904247 244.262947 
L 374.221447 253.733125 
L 374.380047 231.636043 
L 374.697247 256.172413 
L 374.855848 244.549922 
L 375.014448 260.333552 
L 375.173048 253.733125 
L 375.331648 241.967146 
L 375.490248 250.289423 
L 375.648848 275.973694 
L 375.807449 241.823658 
L 375.966049 265.786078 
L 376.283249 243.402021 
L 376.600449 255.598463 
L 376.75905 252.441737 
L 377.07625 228.766292 
L 377.23485 259.185651 
L 377.39345 248.424085 
L 377.55205 267.651416 
L 377.710651 242.254121 
L 377.869251 254.737537 
L 378.345051 249.285011 
L 378.503651 234.075331 
L 378.662252 260.477039 
L 378.820852 252.298249 
L 378.979452 264.064228 
L 379.138052 240.675758 
L 379.455252 263.633765 
L 379.613853 217.861238 
L 379.931053 253.589637 
L 380.089653 244.980384 
L 380.248253 262.055402 
L 380.565454 238.379957 
L 380.724054 239.527858 
L 380.882654 254.450562 
L 381.041254 235.223231 
L 381.199854 239.95832 
L 381.358455 234.362306 
L 381.517055 234.362306 
L 381.675655 245.697822 
L 381.834255 240.101808 
L 381.992855 265.642591 
L 382.151455 237.806007 
L 382.310056 233.070918 
L 382.468656 251.580811 
L 382.785856 227.474904 
L 382.944456 246.98921 
L 383.103056 208.534548 
L 383.261657 235.940669 
L 383.578857 242.971559 
L 383.737457 254.163587 
L 383.896057 250.719886 
L 384.054657 224.318178 
L 384.213258 230.775117 
L 384.371858 250.719886 
L 384.530458 246.128285 
L 384.689058 233.931843 
L 384.847658 183.711203 
L 385.006258 241.106221 
L 385.164859 208.678036 
L 385.323459 245.984797 
L 385.482059 256.602875 
L 385.799259 227.474904 
L 385.957859 227.761879 
L 386.11646 240.675758 
L 386.43366 233.788356 
L 386.75086 230.344655 
L 387.068061 232.783943 
L 387.226661 239.527858 
L 387.385261 217.574263 
L 387.543861 243.975972 
L 387.702461 238.23647 
L 387.861061 220.874477 
L 388.019662 253.876612 
L 388.178262 228.048854 
L 388.336862 240.53227 
L 388.654062 228.766292 
L 388.812662 244.119459 
L 388.971263 224.461665 
L 389.129863 222.165865 
L 389.288463 223.313765 
L 389.447063 214.704512 
L 389.605663 239.95832 
L 389.764263 215.852413 
L 389.922864 219.870064 
L 390.081464 212.552199 
L 390.240064 244.119459 
L 390.398664 201.503658 
L 390.557264 230.201167 
L 390.715864 223.313765 
L 390.874465 209.825936 
L 391.033065 213.843587 
L 391.191665 205.808285 
L 391.350265 227.331416 
L 391.508865 169.936399 
L 391.826066 229.196754 
L 392.301866 200.499246 
L 392.460466 236.371132 
L 392.619066 206.812698 
L 392.777667 210.973836 
L 392.936267 202.221096 
L 393.094867 230.344655 
L 393.253467 217.143801 
L 393.412067 186.150491 
L 393.729268 219.870064 
L 393.887868 189.020242 
L 394.046468 216.713338 
L 394.205068 207.099673 
L 394.363668 205.52131 
L 394.522269 192.03348 
L 394.680869 204.803872 
L 394.839469 203.225509 
L 394.998069 207.099673 
L 395.156669 198.777395 
L 395.315269 167.210135 
L 395.47387 185.289566 
L 395.63247 178.689139 
L 395.79107 214.417537 
L 396.10827 170.223374 
L 396.26687 168.645011 
L 396.425471 208.821523 
L 396.584071 163.622947 
L 396.742671 165.488285 
L 396.901271 193.898819 
L 397.059871 147.552342 
L 397.218471 177.541238 
L 397.377072 174.958463 
L 397.535672 142.243302 
L 397.694272 172.519174 
L 397.852872 133.490562 
L 398.170072 153.148356 
L 398.328673 115.985082 
L 398.487273 143.104228 
L 398.487273 143.104228 
" style="fill:none;stroke:#1f77b4;stroke-linecap:square;stroke-width:1.5;"/>
   </g>
   <g id="patch_3">
    <path d="M 57.6 307.584 
L 57.6 41.472 
" style="fill:none;stroke:#000000;stroke-linecap:square;stroke-linejoin:miter;stroke-width:0.8;"/>
   </g>
   <g id="patch_4">
    <path d="M 414.72 307.584 
L 414.72 41.472 
" style="fill:none;stroke:#000000;stroke-linecap:square;stroke-linejoin:miter;stroke-width:0.8;"/>
   </g>
   <g id="patch_5">
    <path d="M 57.6 307.584 
L 414.72 307.584 
" style="fill:none;stroke:#000000;stroke-linecap:square;stroke-linejoin:miter;stroke-width:0.8;"/>
   </g>
   <g id="patch_6">
    <path d="M 57.6 41.472 
L 414.72 41.472 
" style="fill:none;stroke:#000000;stroke-linecap:square;stroke-linejoin:miter;stroke-width:0.8;"/>
   </g>
   <g id="text_17">
    <!-- Background -->
    <g transform="translate(200.367188 35.472)scale(0.12 -0.12)">
     <defs>
      <path d="M 1259 2228 
L 1259 519 
L 2272 519 
Q 2781 519 3026 730 
Q 3272 941 3272 1375 
Q 3272 1813 3026 2020 
Q 2781 2228 2272 2228 
L 1259 2228 
z
M 1259 4147 
L 1259 2741 
L 2194 2741 
Q 2656 2741 2882 2914 
Q 3109 3088 3109 3444 
Q 3109 3797 2882 3972 
Q 2656 4147 2194 4147 
L 1259 4147 
z
M 628 4666 
L 2241 4666 
Q 2963 4666 3353 4366 
Q 3744 4066 3744 3513 
Q 3744 3084 3544 2831 
Q 3344 2578 2956 2516 
Q 3422 2416 3680 2098 
Q 3938 1781 3938 1306 
Q 3938 681 3513 340 
Q 3088 0 2303 0 
L 628 0 
L 628 4666 
z
" id="DejaVuSans-42" transform="scale(0.015625)"/>
      <path d="M 3122 3366 
L 3122 2828 
Q 2878 2963 2633 3030 
Q 2388 3097 2138 3097 
Q 1578 3097 1268 2742 
Q 959 2388 959 1747 
Q 959 1106 1268 751 
Q 1578 397 2138 397 
Q 2388 397 2633 464 
Q 2878 531 3122 666 
L 3122 134 
Q 2881 22 2623 -34 
Q 2366 -91 2075 -91 
Q 1284 -91 818 406 
Q 353 903 353 1747 
Q 353 2603 823 3093 
Q 1294 3584 2113 3584 
Q 2378 3584 2631 3529 
Q 2884 3475 3122 3366 
z
" id="DejaVuSans-63" transform="scale(0.015625)"/>
      <path d="M 581 4863 
L 1159 4863 
L 1159 1991 
L 2875 3500 
L 3609 3500 
L 1753 1863 
L 3688 0 
L 2938 0 
L 1159 1709 
L 1159 0 
L 581 0 
L 581 4863 
z
" id="DejaVuSans-6b" transform="scale(0.015625)"/>
      <path d="M 2631 2963 
Q 2534 3019 2420 3045 
Q 2306 3072 2169 3072 
Q 1681 3072 1420 2755 
Q 1159 2438 1159 1844 
L 1159 0 
L 581 0 
L 581 3500 
L 1159 3500 
L 1159 2956 
Q 1341 3275 1631 3429 
Q 1922 3584 2338 3584 
Q 2397 3584 2469 3576 
Q 2541 3569 2628 3553 
L 2631 2963 
z
" id="DejaVuSans-72" transform="scale(0.015625)"/>
      <path d="M 2906 2969 
L 2906 4863 
L 3481 4863 
L 3481 0 
L 2906 0 
L 2906 525 
Q 2725 213 2448 61 
Q 2172 -91 1784 -91 
Q 1150 -91 751 415 
Q 353 922 353 1747 
Q 353 2572 751 3078 
Q 1150 3584 1784 3584 
Q 2172 3584 2448 3432 
Q 2725 3281 2906 2969 
z
M 947 1747 
Q 947 1113 1208 752 
Q 1469 391 1925 391 
Q 2381 391 2643 752 
Q 2906 1113 2906 1747 
Q 2906 2381 2643 2742 
Q 2381 3103 1925 3103 
Q 1469 3103 1208 2742 
Q 947 2381 947 1747 
z
" id="DejaVuSans-64" transform="scale(0.015625)"/>
     </defs>
     <use xlink:href="#DejaVuSans-42"/>
     <use x="68.603516" xlink:href="#DejaVuSans-61"/>
     <use x="129.882812" xlink:href="#DejaVuSans-63"/>
     <use x="184.863281" xlink:href="#DejaVuSans-6b"/>
     <use x="242.773438" xlink:href="#DejaVuSans-67"/>
     <use x="306.25" xlink:href="#DejaVuSans-72"/>
     <use x="345.113281" xlink:href="#DejaVuSans-6f"/>
     <use x="406.294922" xlink:href="#DejaVuSans-75"/>
     <use x="469.673828" xlink:href="#DejaVuSans-6e"/>
     <use x="533.052734" xlink:href="#DejaVuSans-64"/>
    </g>
   </g>
  </g>
 </g>
 <defs>
  <clipPath id="p52dc5d820f">
   <rect height="266.112" width="357.12" x="57.6" y="41.472"/>
  </clipPath>
 </defs>
</svg>
