<?xml version="1.0" encoding="utf-8" standalone="no"?>
<!DOCTYPE svg PUBLIC "-//W3C//DTD SVG 1.1//EN"
  "http://www.w3.org/Graphics/SVG/1.1/DTD/svg11.dtd">
<svg height="345.6pt" version="1.1" viewBox="0 0 460.8 345.6" width="460.8pt" xmlns="http://www.w3.org/2000/svg" xmlns:xlink="http://www.w3.org/1999/xlink">
 <metadata>
  <rdf:RDF xmlns:cc="http://creativecommons.org/ns#" xmlns:dc="http://purl.org/dc/elements/1.1/" xmlns:rdf="http://www.w3.org/1999/02/22-rdf-syntax-ns#">
   <cc:Work>
    <dc:type rdf:resource="http://purl.org/dc/dcmitype/StillImage"/>
    <dc:date>2022-06-03T23:57:23.959601</dc:date>
    <dc:format>image/svg+xml</dc:format>
    <dc:creator>
     <cc:Agent>
      <dc:title>Matplotlib v3.4.1, https://matplotlib.org/</dc:title>
     </cc:Agent>
    </dc:creator>
   </cc:Work>
  </rdf:RDF>
 </metadata>
 <defs>
  <style type="text/css">*{stroke-linecap:butt;stroke-linejoin:round;}</style>
 </defs>
 <g id="figure_1">
  <g id="patch_1">
   <path d="M 0 345.6 
L 460.8 345.6 
L 460.8 0 
L 0 0 
z
" style="fill:#ffffff;"/>
  </g>
  <g id="axes_1">
   <g id="patch_2">
    <path d="M 57.6 307.584 
L 414.72 307.584 
L 414.72 41.472 
L 57.6 41.472 
z
" style="fill:#ffffff;"/>
   </g>
   <g id="matplotlib.axis_1">
    <g id="xtick_1">
     <g id="line2d_1">
      <defs>
       <path d="M 0 0 
L 0 3.5 
" id="maae9fed1fd" style="stroke:#000000;stroke-width:0.8;"/>
      </defs>
      <g>
       <use style="stroke:#000000;stroke-width:0.8;" x="102.929605" xlink:href="#maae9fed1fd" y="307.584"/>
      </g>
     </g>
     <g id="text_1">
      <!-- 400 -->
      <g transform="translate(93.385855 322.182437)scale(0.1 -0.1)">
       <defs>
        <path d="M 2419 4116 
L 825 1625 
L 2419 1625 
L 2419 4116 
z
M 2253 4666 
L 3047 4666 
L 3047 1625 
L 3713 1625 
L 3713 1100 
L 3047 1100 
L 3047 0 
L 2419 0 
L 2419 1100 
L 313 1100 
L 313 1709 
L 2253 4666 
z
" id="DejaVuSans-34" transform="scale(0.015625)"/>
        <path d="M 2034 4250 
Q 1547 4250 1301 3770 
Q 1056 3291 1056 2328 
Q 1056 1369 1301 889 
Q 1547 409 2034 409 
Q 2525 409 2770 889 
Q 3016 1369 3016 2328 
Q 3016 3291 2770 3770 
Q 2525 4250 2034 4250 
z
M 2034 4750 
Q 2819 4750 3233 4129 
Q 3647 3509 3647 2328 
Q 3647 1150 3233 529 
Q 2819 -91 2034 -91 
Q 1250 -91 836 529 
Q 422 1150 422 2328 
Q 422 3509 836 4129 
Q 1250 4750 2034 4750 
z
" id="DejaVuSans-30" transform="scale(0.015625)"/>
       </defs>
       <use xlink:href="#DejaVuSans-34"/>
       <use x="63.623047" xlink:href="#DejaVuSans-30"/>
       <use x="127.246094" xlink:href="#DejaVuSans-30"/>
      </g>
     </g>
    </g>
    <g id="xtick_2">
     <g id="line2d_2">
      <g>
       <use style="stroke:#000000;stroke-width:0.8;" x="160.931952" xlink:href="#maae9fed1fd" y="307.584"/>
      </g>
     </g>
     <g id="text_2">
      <!-- 600 -->
      <g transform="translate(151.388202 322.182437)scale(0.1 -0.1)">
       <defs>
        <path d="M 2113 2584 
Q 1688 2584 1439 2293 
Q 1191 2003 1191 1497 
Q 1191 994 1439 701 
Q 1688 409 2113 409 
Q 2538 409 2786 701 
Q 3034 994 3034 1497 
Q 3034 2003 2786 2293 
Q 2538 2584 2113 2584 
z
M 3366 4563 
L 3366 3988 
Q 3128 4100 2886 4159 
Q 2644 4219 2406 4219 
Q 1781 4219 1451 3797 
Q 1122 3375 1075 2522 
Q 1259 2794 1537 2939 
Q 1816 3084 2150 3084 
Q 2853 3084 3261 2657 
Q 3669 2231 3669 1497 
Q 3669 778 3244 343 
Q 2819 -91 2113 -91 
Q 1303 -91 875 529 
Q 447 1150 447 2328 
Q 447 3434 972 4092 
Q 1497 4750 2381 4750 
Q 2619 4750 2861 4703 
Q 3103 4656 3366 4563 
z
" id="DejaVuSans-36" transform="scale(0.015625)"/>
       </defs>
       <use xlink:href="#DejaVuSans-36"/>
       <use x="63.623047" xlink:href="#DejaVuSans-30"/>
       <use x="127.246094" xlink:href="#DejaVuSans-30"/>
      </g>
     </g>
    </g>
    <g id="xtick_3">
     <g id="line2d_3">
      <g>
       <use style="stroke:#000000;stroke-width:0.8;" x="218.9343" xlink:href="#maae9fed1fd" y="307.584"/>
      </g>
     </g>
     <g id="text_3">
      <!-- 800 -->
      <g transform="translate(209.39055 322.182437)scale(0.1 -0.1)">
       <defs>
        <path d="M 2034 2216 
Q 1584 2216 1326 1975 
Q 1069 1734 1069 1313 
Q 1069 891 1326 650 
Q 1584 409 2034 409 
Q 2484 409 2743 651 
Q 3003 894 3003 1313 
Q 3003 1734 2745 1975 
Q 2488 2216 2034 2216 
z
M 1403 2484 
Q 997 2584 770 2862 
Q 544 3141 544 3541 
Q 544 4100 942 4425 
Q 1341 4750 2034 4750 
Q 2731 4750 3128 4425 
Q 3525 4100 3525 3541 
Q 3525 3141 3298 2862 
Q 3072 2584 2669 2484 
Q 3125 2378 3379 2068 
Q 3634 1759 3634 1313 
Q 3634 634 3220 271 
Q 2806 -91 2034 -91 
Q 1263 -91 848 271 
Q 434 634 434 1313 
Q 434 1759 690 2068 
Q 947 2378 1403 2484 
z
M 1172 3481 
Q 1172 3119 1398 2916 
Q 1625 2713 2034 2713 
Q 2441 2713 2670 2916 
Q 2900 3119 2900 3481 
Q 2900 3844 2670 4047 
Q 2441 4250 2034 4250 
Q 1625 4250 1398 4047 
Q 1172 3844 1172 3481 
z
" id="DejaVuSans-38" transform="scale(0.015625)"/>
       </defs>
       <use xlink:href="#DejaVuSans-38"/>
       <use x="63.623047" xlink:href="#DejaVuSans-30"/>
       <use x="127.246094" xlink:href="#DejaVuSans-30"/>
      </g>
     </g>
    </g>
    <g id="xtick_4">
     <g id="line2d_4">
      <g>
       <use style="stroke:#000000;stroke-width:0.8;" x="276.936647" xlink:href="#maae9fed1fd" y="307.584"/>
      </g>
     </g>
     <g id="text_4">
      <!-- 1000 -->
      <g transform="translate(264.211647 322.182437)scale(0.1 -0.1)">
       <defs>
        <path d="M 794 531 
L 1825 531 
L 1825 4091 
L 703 3866 
L 703 4441 
L 1819 4666 
L 2450 4666 
L 2450 531 
L 3481 531 
L 3481 0 
L 794 0 
L 794 531 
z
" id="DejaVuSans-31" transform="scale(0.015625)"/>
       </defs>
       <use xlink:href="#DejaVuSans-31"/>
       <use x="63.623047" xlink:href="#DejaVuSans-30"/>
       <use x="127.246094" xlink:href="#DejaVuSans-30"/>
       <use x="190.869141" xlink:href="#DejaVuSans-30"/>
      </g>
     </g>
    </g>
    <g id="xtick_5">
     <g id="line2d_5">
      <g>
       <use style="stroke:#000000;stroke-width:0.8;" x="334.938995" xlink:href="#maae9fed1fd" y="307.584"/>
      </g>
     </g>
     <g id="text_5">
      <!-- 1200 -->
      <g transform="translate(322.213995 322.182437)scale(0.1 -0.1)">
       <defs>
        <path d="M 1228 531 
L 3431 531 
L 3431 0 
L 469 0 
L 469 531 
Q 828 903 1448 1529 
Q 2069 2156 2228 2338 
Q 2531 2678 2651 2914 
Q 2772 3150 2772 3378 
Q 2772 3750 2511 3984 
Q 2250 4219 1831 4219 
Q 1534 4219 1204 4116 
Q 875 4013 500 3803 
L 500 4441 
Q 881 4594 1212 4672 
Q 1544 4750 1819 4750 
Q 2544 4750 2975 4387 
Q 3406 4025 3406 3419 
Q 3406 3131 3298 2873 
Q 3191 2616 2906 2266 
Q 2828 2175 2409 1742 
Q 1991 1309 1228 531 
z
" id="DejaVuSans-32" transform="scale(0.015625)"/>
       </defs>
       <use xlink:href="#DejaVuSans-31"/>
       <use x="63.623047" xlink:href="#DejaVuSans-32"/>
       <use x="127.246094" xlink:href="#DejaVuSans-30"/>
       <use x="190.869141" xlink:href="#DejaVuSans-30"/>
      </g>
     </g>
    </g>
    <g id="xtick_6">
     <g id="line2d_6">
      <g>
       <use style="stroke:#000000;stroke-width:0.8;" x="392.941342" xlink:href="#maae9fed1fd" y="307.584"/>
      </g>
     </g>
     <g id="text_6">
      <!-- 1400 -->
      <g transform="translate(380.216342 322.182437)scale(0.1 -0.1)">
       <use xlink:href="#DejaVuSans-31"/>
       <use x="63.623047" xlink:href="#DejaVuSans-34"/>
       <use x="127.246094" xlink:href="#DejaVuSans-30"/>
       <use x="190.869141" xlink:href="#DejaVuSans-30"/>
      </g>
     </g>
    </g>
    <g id="text_7">
     <!-- Wavelength [nm] -->
     <g transform="translate(192.967812 335.860562)scale(0.1 -0.1)">
      <defs>
       <path d="M 213 4666 
L 850 4666 
L 1831 722 
L 2809 4666 
L 3519 4666 
L 4500 722 
L 5478 4666 
L 6119 4666 
L 4947 0 
L 4153 0 
L 3169 4050 
L 2175 0 
L 1381 0 
L 213 4666 
z
" id="DejaVuSans-57" transform="scale(0.015625)"/>
       <path d="M 2194 1759 
Q 1497 1759 1228 1600 
Q 959 1441 959 1056 
Q 959 750 1161 570 
Q 1363 391 1709 391 
Q 2188 391 2477 730 
Q 2766 1069 2766 1631 
L 2766 1759 
L 2194 1759 
z
M 3341 1997 
L 3341 0 
L 2766 0 
L 2766 531 
Q 2569 213 2275 61 
Q 1981 -91 1556 -91 
Q 1019 -91 701 211 
Q 384 513 384 1019 
Q 384 1609 779 1909 
Q 1175 2209 1959 2209 
L 2766 2209 
L 2766 2266 
Q 2766 2663 2505 2880 
Q 2244 3097 1772 3097 
Q 1472 3097 1187 3025 
Q 903 2953 641 2809 
L 641 3341 
Q 956 3463 1253 3523 
Q 1550 3584 1831 3584 
Q 2591 3584 2966 3190 
Q 3341 2797 3341 1997 
z
" id="DejaVuSans-61" transform="scale(0.015625)"/>
       <path d="M 191 3500 
L 800 3500 
L 1894 563 
L 2988 3500 
L 3597 3500 
L 2284 0 
L 1503 0 
L 191 3500 
z
" id="DejaVuSans-76" transform="scale(0.015625)"/>
       <path d="M 3597 1894 
L 3597 1613 
L 953 1613 
Q 991 1019 1311 708 
Q 1631 397 2203 397 
Q 2534 397 2845 478 
Q 3156 559 3463 722 
L 3463 178 
Q 3153 47 2828 -22 
Q 2503 -91 2169 -91 
Q 1331 -91 842 396 
Q 353 884 353 1716 
Q 353 2575 817 3079 
Q 1281 3584 2069 3584 
Q 2775 3584 3186 3129 
Q 3597 2675 3597 1894 
z
M 3022 2063 
Q 3016 2534 2758 2815 
Q 2500 3097 2075 3097 
Q 1594 3097 1305 2825 
Q 1016 2553 972 2059 
L 3022 2063 
z
" id="DejaVuSans-65" transform="scale(0.015625)"/>
       <path d="M 603 4863 
L 1178 4863 
L 1178 0 
L 603 0 
L 603 4863 
z
" id="DejaVuSans-6c" transform="scale(0.015625)"/>
       <path d="M 3513 2113 
L 3513 0 
L 2938 0 
L 2938 2094 
Q 2938 2591 2744 2837 
Q 2550 3084 2163 3084 
Q 1697 3084 1428 2787 
Q 1159 2491 1159 1978 
L 1159 0 
L 581 0 
L 581 3500 
L 1159 3500 
L 1159 2956 
Q 1366 3272 1645 3428 
Q 1925 3584 2291 3584 
Q 2894 3584 3203 3211 
Q 3513 2838 3513 2113 
z
" id="DejaVuSans-6e" transform="scale(0.015625)"/>
       <path d="M 2906 1791 
Q 2906 2416 2648 2759 
Q 2391 3103 1925 3103 
Q 1463 3103 1205 2759 
Q 947 2416 947 1791 
Q 947 1169 1205 825 
Q 1463 481 1925 481 
Q 2391 481 2648 825 
Q 2906 1169 2906 1791 
z
M 3481 434 
Q 3481 -459 3084 -895 
Q 2688 -1331 1869 -1331 
Q 1566 -1331 1297 -1286 
Q 1028 -1241 775 -1147 
L 775 -588 
Q 1028 -725 1275 -790 
Q 1522 -856 1778 -856 
Q 2344 -856 2625 -561 
Q 2906 -266 2906 331 
L 2906 616 
Q 2728 306 2450 153 
Q 2172 0 1784 0 
Q 1141 0 747 490 
Q 353 981 353 1791 
Q 353 2603 747 3093 
Q 1141 3584 1784 3584 
Q 2172 3584 2450 3431 
Q 2728 3278 2906 2969 
L 2906 3500 
L 3481 3500 
L 3481 434 
z
" id="DejaVuSans-67" transform="scale(0.015625)"/>
       <path d="M 1172 4494 
L 1172 3500 
L 2356 3500 
L 2356 3053 
L 1172 3053 
L 1172 1153 
Q 1172 725 1289 603 
Q 1406 481 1766 481 
L 2356 481 
L 2356 0 
L 1766 0 
Q 1100 0 847 248 
Q 594 497 594 1153 
L 594 3053 
L 172 3053 
L 172 3500 
L 594 3500 
L 594 4494 
L 1172 4494 
z
" id="DejaVuSans-74" transform="scale(0.015625)"/>
       <path d="M 3513 2113 
L 3513 0 
L 2938 0 
L 2938 2094 
Q 2938 2591 2744 2837 
Q 2550 3084 2163 3084 
Q 1697 3084 1428 2787 
Q 1159 2491 1159 1978 
L 1159 0 
L 581 0 
L 581 4863 
L 1159 4863 
L 1159 2956 
Q 1366 3272 1645 3428 
Q 1925 3584 2291 3584 
Q 2894 3584 3203 3211 
Q 3513 2838 3513 2113 
z
" id="DejaVuSans-68" transform="scale(0.015625)"/>
       <path id="DejaVuSans-20" transform="scale(0.015625)"/>
       <path d="M 550 4863 
L 1875 4863 
L 1875 4416 
L 1125 4416 
L 1125 -397 
L 1875 -397 
L 1875 -844 
L 550 -844 
L 550 4863 
z
" id="DejaVuSans-5b" transform="scale(0.015625)"/>
       <path d="M 3328 2828 
Q 3544 3216 3844 3400 
Q 4144 3584 4550 3584 
Q 5097 3584 5394 3201 
Q 5691 2819 5691 2113 
L 5691 0 
L 5113 0 
L 5113 2094 
Q 5113 2597 4934 2840 
Q 4756 3084 4391 3084 
Q 3944 3084 3684 2787 
Q 3425 2491 3425 1978 
L 3425 0 
L 2847 0 
L 2847 2094 
Q 2847 2600 2669 2842 
Q 2491 3084 2119 3084 
Q 1678 3084 1418 2786 
Q 1159 2488 1159 1978 
L 1159 0 
L 581 0 
L 581 3500 
L 1159 3500 
L 1159 2956 
Q 1356 3278 1631 3431 
Q 1906 3584 2284 3584 
Q 2666 3584 2933 3390 
Q 3200 3197 3328 2828 
z
" id="DejaVuSans-6d" transform="scale(0.015625)"/>
       <path d="M 1947 4863 
L 1947 -844 
L 622 -844 
L 622 -397 
L 1369 -397 
L 1369 4416 
L 622 4416 
L 622 4863 
L 1947 4863 
z
" id="DejaVuSans-5d" transform="scale(0.015625)"/>
      </defs>
      <use xlink:href="#DejaVuSans-57"/>
      <use x="92.501953" xlink:href="#DejaVuSans-61"/>
      <use x="153.78125" xlink:href="#DejaVuSans-76"/>
      <use x="212.960938" xlink:href="#DejaVuSans-65"/>
      <use x="274.484375" xlink:href="#DejaVuSans-6c"/>
      <use x="302.267578" xlink:href="#DejaVuSans-65"/>
      <use x="363.791016" xlink:href="#DejaVuSans-6e"/>
      <use x="427.169922" xlink:href="#DejaVuSans-67"/>
      <use x="490.646484" xlink:href="#DejaVuSans-74"/>
      <use x="529.855469" xlink:href="#DejaVuSans-68"/>
      <use x="593.234375" xlink:href="#DejaVuSans-20"/>
      <use x="625.021484" xlink:href="#DejaVuSans-5b"/>
      <use x="664.035156" xlink:href="#DejaVuSans-6e"/>
      <use x="727.414062" xlink:href="#DejaVuSans-6d"/>
      <use x="824.826172" xlink:href="#DejaVuSans-5d"/>
     </g>
    </g>
   </g>
   <g id="matplotlib.axis_2">
    <g id="ytick_1">
     <g id="line2d_7">
      <defs>
       <path d="M 0 0 
L -3.5 0 
" id="mb5fdc7e83e" style="stroke:#000000;stroke-width:0.8;"/>
      </defs>
      <g>
       <use style="stroke:#000000;stroke-width:0.8;" x="57.6" xlink:href="#mb5fdc7e83e" y="272.828068"/>
      </g>
     </g>
     <g id="text_8">
      <!-- 2000 -->
      <g transform="translate(25.15 276.627287)scale(0.1 -0.1)">
       <use xlink:href="#DejaVuSans-32"/>
       <use x="63.623047" xlink:href="#DejaVuSans-30"/>
       <use x="127.246094" xlink:href="#DejaVuSans-30"/>
       <use x="190.869141" xlink:href="#DejaVuSans-30"/>
      </g>
     </g>
    </g>
    <g id="ytick_2">
     <g id="line2d_8">
      <g>
       <use style="stroke:#000000;stroke-width:0.8;" x="57.6" xlink:href="#mb5fdc7e83e" y="226.957761"/>
      </g>
     </g>
     <g id="text_9">
      <!-- 4000 -->
      <g transform="translate(25.15 230.75698)scale(0.1 -0.1)">
       <use xlink:href="#DejaVuSans-34"/>
       <use x="63.623047" xlink:href="#DejaVuSans-30"/>
       <use x="127.246094" xlink:href="#DejaVuSans-30"/>
       <use x="190.869141" xlink:href="#DejaVuSans-30"/>
      </g>
     </g>
    </g>
    <g id="ytick_3">
     <g id="line2d_9">
      <g>
       <use style="stroke:#000000;stroke-width:0.8;" x="57.6" xlink:href="#mb5fdc7e83e" y="181.087454"/>
      </g>
     </g>
     <g id="text_10">
      <!-- 6000 -->
      <g transform="translate(25.15 184.886673)scale(0.1 -0.1)">
       <use xlink:href="#DejaVuSans-36"/>
       <use x="63.623047" xlink:href="#DejaVuSans-30"/>
       <use x="127.246094" xlink:href="#DejaVuSans-30"/>
       <use x="190.869141" xlink:href="#DejaVuSans-30"/>
      </g>
     </g>
    </g>
    <g id="ytick_4">
     <g id="line2d_10">
      <g>
       <use style="stroke:#000000;stroke-width:0.8;" x="57.6" xlink:href="#mb5fdc7e83e" y="135.217147"/>
      </g>
     </g>
     <g id="text_11">
      <!-- 8000 -->
      <g transform="translate(25.15 139.016366)scale(0.1 -0.1)">
       <use xlink:href="#DejaVuSans-38"/>
       <use x="63.623047" xlink:href="#DejaVuSans-30"/>
       <use x="127.246094" xlink:href="#DejaVuSans-30"/>
       <use x="190.869141" xlink:href="#DejaVuSans-30"/>
      </g>
     </g>
    </g>
    <g id="ytick_5">
     <g id="line2d_11">
      <g>
       <use style="stroke:#000000;stroke-width:0.8;" x="57.6" xlink:href="#mb5fdc7e83e" y="89.34684"/>
      </g>
     </g>
     <g id="text_12">
      <!-- 10000 -->
      <g transform="translate(18.7875 93.146058)scale(0.1 -0.1)">
       <use xlink:href="#DejaVuSans-31"/>
       <use x="63.623047" xlink:href="#DejaVuSans-30"/>
       <use x="127.246094" xlink:href="#DejaVuSans-30"/>
       <use x="190.869141" xlink:href="#DejaVuSans-30"/>
       <use x="254.492188" xlink:href="#DejaVuSans-30"/>
      </g>
     </g>
    </g>
    <g id="ytick_6">
     <g id="line2d_12">
      <g>
       <use style="stroke:#000000;stroke-width:0.8;" x="57.6" xlink:href="#mb5fdc7e83e" y="43.476532"/>
      </g>
     </g>
     <g id="text_13">
      <!-- 12000 -->
      <g transform="translate(18.7875 47.275751)scale(0.1 -0.1)">
       <use xlink:href="#DejaVuSans-31"/>
       <use x="63.623047" xlink:href="#DejaVuSans-32"/>
       <use x="127.246094" xlink:href="#DejaVuSans-30"/>
       <use x="190.869141" xlink:href="#DejaVuSans-30"/>
       <use x="254.492188" xlink:href="#DejaVuSans-30"/>
      </g>
     </g>
    </g>
    <g id="text_14">
     <!-- Counts -->
     <g transform="translate(12.707812 191.981125)rotate(-90)scale(0.1 -0.1)">
      <defs>
       <path d="M 4122 4306 
L 4122 3641 
Q 3803 3938 3442 4084 
Q 3081 4231 2675 4231 
Q 1875 4231 1450 3742 
Q 1025 3253 1025 2328 
Q 1025 1406 1450 917 
Q 1875 428 2675 428 
Q 3081 428 3442 575 
Q 3803 722 4122 1019 
L 4122 359 
Q 3791 134 3420 21 
Q 3050 -91 2638 -91 
Q 1578 -91 968 557 
Q 359 1206 359 2328 
Q 359 3453 968 4101 
Q 1578 4750 2638 4750 
Q 3056 4750 3426 4639 
Q 3797 4528 4122 4306 
z
" id="DejaVuSans-43" transform="scale(0.015625)"/>
       <path d="M 1959 3097 
Q 1497 3097 1228 2736 
Q 959 2375 959 1747 
Q 959 1119 1226 758 
Q 1494 397 1959 397 
Q 2419 397 2687 759 
Q 2956 1122 2956 1747 
Q 2956 2369 2687 2733 
Q 2419 3097 1959 3097 
z
M 1959 3584 
Q 2709 3584 3137 3096 
Q 3566 2609 3566 1747 
Q 3566 888 3137 398 
Q 2709 -91 1959 -91 
Q 1206 -91 779 398 
Q 353 888 353 1747 
Q 353 2609 779 3096 
Q 1206 3584 1959 3584 
z
" id="DejaVuSans-6f" transform="scale(0.015625)"/>
       <path d="M 544 1381 
L 544 3500 
L 1119 3500 
L 1119 1403 
Q 1119 906 1312 657 
Q 1506 409 1894 409 
Q 2359 409 2629 706 
Q 2900 1003 2900 1516 
L 2900 3500 
L 3475 3500 
L 3475 0 
L 2900 0 
L 2900 538 
Q 2691 219 2414 64 
Q 2138 -91 1772 -91 
Q 1169 -91 856 284 
Q 544 659 544 1381 
z
M 1991 3584 
L 1991 3584 
z
" id="DejaVuSans-75" transform="scale(0.015625)"/>
       <path d="M 2834 3397 
L 2834 2853 
Q 2591 2978 2328 3040 
Q 2066 3103 1784 3103 
Q 1356 3103 1142 2972 
Q 928 2841 928 2578 
Q 928 2378 1081 2264 
Q 1234 2150 1697 2047 
L 1894 2003 
Q 2506 1872 2764 1633 
Q 3022 1394 3022 966 
Q 3022 478 2636 193 
Q 2250 -91 1575 -91 
Q 1294 -91 989 -36 
Q 684 19 347 128 
L 347 722 
Q 666 556 975 473 
Q 1284 391 1588 391 
Q 1994 391 2212 530 
Q 2431 669 2431 922 
Q 2431 1156 2273 1281 
Q 2116 1406 1581 1522 
L 1381 1569 
Q 847 1681 609 1914 
Q 372 2147 372 2553 
Q 372 3047 722 3315 
Q 1072 3584 1716 3584 
Q 2034 3584 2315 3537 
Q 2597 3491 2834 3397 
z
" id="DejaVuSans-73" transform="scale(0.015625)"/>
      </defs>
      <use xlink:href="#DejaVuSans-43"/>
      <use x="69.824219" xlink:href="#DejaVuSans-6f"/>
      <use x="131.005859" xlink:href="#DejaVuSans-75"/>
      <use x="194.384766" xlink:href="#DejaVuSans-6e"/>
      <use x="257.763672" xlink:href="#DejaVuSans-74"/>
      <use x="296.972656" xlink:href="#DejaVuSans-73"/>
     </g>
    </g>
   </g>
   <g id="line2d_13">
    <path clip-path="url(#paacf2ce7a9)" d="M 73.832727 266.406225 
L 73.991327 271.727181 
L 74.149928 264.11271 
L 74.308528 243.838034 
L 74.467128 268.424519 
L 74.625728 258.333051 
L 74.784328 280.167317 
L 74.942928 275.213324 
L 75.101529 277.965543 
L 75.260129 272.919809 
L 75.418729 256.039536 
L 75.577329 270.351072 
L 75.894529 250.62684 
L 76.05313 252.461652 
L 76.21173 260.626567 
L 76.37033 245.672846 
L 76.52893 266.681447 
L 76.84613 277.323358 
L 77.004731 269.617147 
L 77.163331 268.516259 
L 77.321931 268.883222 
L 77.480531 266.406225 
L 77.639131 235.489638 
L 77.797731 273.928956 
L 77.956332 229.985201 
L 78.114932 274.295918 
L 78.273532 250.993802 
L 78.432132 284.754348 
L 78.590732 282.919536 
L 78.749333 258.883495 
L 78.907933 278.974689 
L 79.066533 263.103563 
L 79.225133 268.699741 
L 79.383733 268.883222 
L 79.700934 284.937829 
L 80.018134 266.406225 
L 80.176734 282.460833 
L 80.335334 266.497966 
L 80.652535 275.213324 
L 80.811135 280.809502 
L 80.969735 253.65428 
L 81.128335 266.039263 
L 81.286935 264.11271 
L 81.445535 275.672027 
L 81.762736 269.800628 
L 81.921336 241.361038 
L 82.079936 275.855509 
L 82.238536 272.461106 
L 82.397136 274.020696 
L 82.555737 277.231618 
L 82.714337 278.149024 
L 82.872937 269.708887 
L 83.031537 282.277352 
L 83.190137 278.607727 
L 83.348737 259.892642 
L 83.507338 278.791208 
L 83.665938 267.04841 
L 83.824538 279.983836 
L 83.983138 271.818922 
L 84.141738 251.819468 
L 84.300338 272.736328 
L 84.458939 266.222744 
L 84.776139 284.479126 
L 85.093339 258.516532 
L 85.251939 253.287317 
L 85.41054 284.754348 
L 85.56914 272.002403 
L 85.72774 277.873802 
L 85.88634 267.874075 
L 86.20354 286.49742 
L 86.362141 250.902061 
L 86.679341 278.882949 
L 86.996541 257.966089 
L 87.155141 272.094143 
L 87.472342 263.011823 
L 87.630942 268.332778 
L 87.789542 284.295645 
L 87.948142 240.16841 
L 88.106742 271.910662 
L 88.423943 284.937829 
L 88.582543 276.405952 
L 88.741143 276.681174 
L 88.899743 276.405952 
L 89.058343 279.892096 
L 89.216944 276.956396 
L 89.375544 260.259604 
L 89.534144 289.433119 
L 89.692744 273.286771 
L 89.851344 285.671754 
L 90.009944 264.571413 
L 90.168545 271.176737 
L 90.327145 286.130457 
L 90.485745 253.562539 
L 90.644345 285.213051 
L 90.961545 273.561993 
L 91.120146 281.451686 
L 91.278746 274.57114 
L 91.437346 277.323358 
L 91.595946 288.882676 
L 91.754546 271.451959 
L 91.913147 278.607727 
L 92.071747 260.443085 
L 92.230347 283.653461 
L 92.388947 284.020423 
L 92.547547 252.553392 
L 92.864748 280.717761 
L 93.023348 281.451686 
L 93.181948 286.772642 
L 93.340548 273.653734 
L 93.657748 286.772642 
L 93.816349 272.644587 
L 93.974949 270.259331 
L 94.133549 269.800628 
L 94.450749 279.06643 
L 94.609349 275.947249 
L 94.76795 276.956396 
L 94.92655 274.112437 
L 95.08515 239.801447 
L 95.24375 265.58056 
L 95.40235 265.397078 
L 95.56095 274.020696 
L 95.719551 261.543973 
L 95.878151 284.937829 
L 96.036751 281.359945 
L 96.195351 271.5437 
L 96.353951 250.443358 
L 96.512551 268.149297 
L 96.671152 271.176737 
L 96.829752 263.745747 
L 96.988352 284.662608 
L 97.146952 278.791208 
L 97.305552 261.910935 
L 97.464152 266.039263 
L 97.622753 279.06643 
L 97.781353 264.387932 
L 97.939953 268.424519 
L 98.098553 279.800355 
L 98.257153 262.369638 
L 98.415753 273.745474 
L 98.574354 275.029843 
L 98.732954 259.066976 
L 98.891554 263.378785 
L 99.050154 276.497693 
L 99.208754 275.763768 
L 99.367354 285.02957 
L 99.525955 276.589433 
L 99.684555 248.883768 
L 99.843155 282.277352 
L 100.001755 277.59858 
L 100.160355 276.956396 
L 100.318955 292.5523 
L 100.477556 278.057283 
L 100.636156 278.424246 
L 100.953356 246.406771 
L 101.111956 277.415099 
L 101.270556 261.910935 
L 101.429157 291.634894 
L 101.587757 278.699468 
L 101.746357 283.928683 
L 101.904957 247.599399 
L 102.063557 274.204177 
L 102.380758 281.084724 
L 102.539358 285.488273 
L 102.697958 277.50684 
L 102.856558 260.626567 
L 103.173758 285.121311 
L 103.490959 253.65428 
L 103.649559 276.772915 
L 103.808159 277.231618 
L 103.966759 271.727181 
L 104.12536 281.726908 
L 104.28396 257.690867 
L 104.91836 280.442539 
L 105.076961 271.910662 
L 105.235561 276.772915 
L 105.394161 248.608546 
L 105.552761 269.250184 
L 105.711361 269.433666 
L 105.869961 271.910662 
L 106.028562 286.864382 
L 106.187162 277.782061 
L 106.345762 282.00213 
L 106.504362 281.543427 
L 106.662962 279.708614 
L 106.980163 266.681447 
L 107.138763 279.433392 
L 107.297363 266.222744 
L 107.455963 271.5437 
L 107.614563 282.00213 
L 107.931764 261.452232 
L 108.090364 276.03899 
L 108.407564 264.020969 
L 108.566164 282.827795 
L 108.724764 265.764041 
L 108.883365 277.139877 
L 109.041965 269.617147 
L 109.200565 275.121584 
L 109.359165 255.030389 
L 109.517765 280.075577 
L 109.676365 281.543427 
L 109.834966 262.277898 
L 110.152166 280.809502 
L 110.310766 269.433666 
L 110.469366 280.259058 
L 110.627966 278.149024 
L 110.786567 270.442812 
L 110.945167 283.46998 
L 111.103767 260.534826 
L 111.262367 275.580287 
L 111.420967 275.396805 
L 111.579567 280.350799 
L 111.738168 255.305611 
L 111.896768 287.231345 
L 112.055368 249.25073 
L 112.213968 253.287317 
L 112.372568 263.287044 
L 112.531168 282.369092 
L 112.689769 279.249911 
L 113.006969 284.020423 
L 113.165569 278.882949 
L 113.324169 285.946976 
L 113.64137 267.598853 
L 113.79997 263.929229 
L 113.95857 277.048137 
L 114.11717 274.020696 
L 114.27577 284.020423 
L 114.43437 263.562266 
L 114.592971 287.231345 
L 114.910171 283.011276 
L 115.227371 260.718307 
L 115.544572 289.52486 
L 115.703172 279.983836 
L 115.861772 261.635713 
L 116.178972 286.038717 
L 116.337573 234.021788 
L 116.496173 261.08527 
L 116.654773 261.452232 
L 116.813373 211.086635 
L 116.971973 279.341652 
L 117.130573 245.214143 
L 117.289174 283.928683 
L 117.447774 280.901242 
L 117.606374 288.240491 
L 117.764974 284.112164 
L 117.923574 274.754621 
L 118.082174 280.809502 
L 118.240775 292.368819 
L 118.399375 262.186157 
L 118.557975 260.259604 
L 118.716575 266.131003 
L 119.033775 283.928683 
L 119.192376 289.616601 
L 119.350976 289.341379 
L 119.509576 276.589433 
L 119.668176 275.672027 
L 119.826776 277.048137 
L 119.985376 280.717761 
L 120.302577 255.672573 
L 120.461177 280.53428 
L 120.619777 283.378239 
L 120.778377 282.736055 
L 120.936977 219.618512 
L 121.095578 270.901515 
L 121.254178 276.222471 
L 121.412778 274.112437 
L 121.571378 280.259058 
L 121.729978 267.231891 
L 121.888578 286.313939 
L 122.047179 277.50684 
L 122.205779 280.53428 
L 122.522979 280.809502 
L 122.681579 267.04841 
L 122.840179 281.268205 
L 123.15738 283.103017 
L 123.31598 279.708614 
L 123.47458 279.892096 
L 123.63318 289.066157 
L 123.79178 268.149297 
L 123.950381 262.277898 
L 124.108981 280.075577 
L 124.267581 270.718034 
L 124.426181 269.250184 
L 124.584781 280.259058 
L 124.743381 262.094416 
L 124.901982 287.873529 
L 125.219182 267.04841 
L 125.377782 275.488546 
L 125.536382 277.415099 
L 125.694982 283.56172 
L 125.853583 236.223563 
L 126.012183 273.928956 
L 126.170783 273.286771 
L 126.487983 275.672027 
L 126.646583 266.681447 
L 126.805184 277.50684 
L 126.963784 271.910662 
L 127.122384 274.754621 
L 127.280984 280.442539 
L 127.439584 290.900969 
L 127.598184 290.99271 
L 127.915385 277.690321 
L 128.073985 287.598307 
L 128.391185 254.021242 
L 128.708386 276.956396 
L 128.866986 270.16759 
L 129.025586 283.103017 
L 129.184186 278.699468 
L 129.342786 278.791208 
L 129.501387 283.011276 
L 129.659987 281.084724 
L 129.977187 272.828068 
L 130.135787 281.818648 
L 130.294387 279.249911 
L 130.452988 288.332232 
L 130.611588 278.791208 
L 130.770188 283.928683 
L 130.928788 279.249911 
L 131.087388 268.883222 
L 131.563189 291.267932 
L 131.880389 260.351345 
L 132.038989 275.396805 
L 132.35619 256.406498 
L 132.51479 285.02957 
L 132.67339 270.901515 
L 132.83199 276.222471 
L 132.99059 272.094143 
L 133.14919 283.928683 
L 133.307791 282.644314 
L 133.466391 275.763768 
L 133.624991 275.763768 
L 133.783591 263.929229 
L 133.942191 280.53428 
L 134.100791 272.002403 
L 134.259392 290.442266 
L 134.417992 280.62602 
L 134.576592 281.084724 
L 134.893792 261.910935 
L 135.052392 286.313939 
L 135.210993 277.965543 
L 135.369593 291.634894 
L 135.528193 268.149297 
L 135.686793 288.148751 
L 135.845393 289.708341 
L 136.003993 274.387659 
L 136.162594 273.561993 
L 136.479794 281.818648 
L 136.638394 279.249911 
L 136.796994 280.075577 
L 136.955594 284.479126 
L 137.114195 274.479399 
L 137.272795 284.203904 
L 137.589995 263.378785 
L 137.748595 277.59858 
L 137.907195 271.63544 
L 138.224396 288.148751 
L 138.382996 270.16759 
L 138.541596 283.653461 
L 138.700196 276.681174 
L 138.858796 289.52486 
L 139.017397 292.277078 
L 139.175997 266.681447 
L 139.334597 268.332778 
L 139.493197 288.240491 
L 139.810397 272.277625 
L 139.968998 284.754348 
L 140.127598 285.213051 
L 140.286198 272.002403 
L 140.603398 280.167317 
L 140.761998 281.910389 
L 140.920599 282.00213 
L 141.079199 271.63544 
L 141.237799 276.314212 
L 141.396399 272.552846 
L 141.554999 280.075577 
L 141.7136 279.800355 
L 141.8722 267.04841 
L 142.1894 285.580014 
L 142.5066 262.094416 
L 142.665201 278.332505 
L 142.823801 266.131003 
L 142.982401 281.910389 
L 143.141001 281.635167 
L 143.299601 260.993529 
L 143.458201 280.442539 
L 143.775402 268.608 
L 143.934002 282.00213 
L 144.092602 269.158444 
L 144.251202 285.763495 
L 144.409802 262.186157 
L 144.568403 262.186157 
L 144.885603 285.396532 
L 145.044203 273.561993 
L 145.202803 273.745474 
L 145.361403 272.644587 
L 145.520004 264.846635 
L 145.678604 274.754621 
L 145.837204 273.011549 
L 145.995804 274.295918 
L 146.154404 270.534553 
L 146.313004 284.754348 
L 146.471605 278.149024 
L 146.630205 284.112164 
L 146.788805 258.883495 
L 146.947405 269.525406 
L 147.106005 265.764041 
L 147.264605 258.975235 
L 147.423206 283.928683 
L 147.581806 264.296191 
L 147.899006 285.671754 
L 148.057606 269.617147 
L 148.216206 265.305338 
L 148.374807 286.130457 
L 148.533407 259.158717 
L 148.692007 274.020696 
L 149.009207 282.552573 
L 149.167807 277.323358 
L 149.485008 288.515713 
L 149.643608 248.608546 
L 149.960808 271.910662 
L 150.119408 254.938648 
L 150.278009 275.855509 
L 150.436609 273.195031 
L 150.595209 282.919536 
L 150.753809 258.700014 
L 150.912409 273.470253 
L 151.071009 267.231891 
L 151.22961 290.99271 
L 151.38821 269.892369 
L 151.54681 278.149024 
L 151.70541 280.442539 
L 151.86401 285.671754 
L 152.02261 257.140423 
L 152.339811 282.277352 
L 152.498411 281.359945 
L 152.657011 273.195031 
L 152.815611 277.139877 
L 152.974211 270.626294 
L 153.132812 272.369365 
L 153.291412 286.680901 
L 153.450012 276.864655 
L 153.608612 281.084724 
L 153.767212 264.296191 
L 154.243013 283.56172 
L 154.401613 262.094416 
L 154.560213 278.424246 
L 154.718813 278.974689 
L 154.877414 290.442266 
L 155.036014 287.598307 
L 155.194614 274.57114 
L 155.511814 284.479126 
L 155.670414 273.653734 
L 155.829015 281.543427 
L 155.987615 276.956396 
L 156.146215 265.213597 
L 156.304815 279.983836 
L 156.622015 261.360491 
L 156.780616 275.488546 
L 156.939216 274.846362 
L 157.256416 260.718307 
L 157.415016 274.57114 
L 157.573616 275.855509 
L 157.732217 270.626294 
L 157.890817 285.213051 
L 158.049417 276.956396 
L 158.208017 280.992983 
L 158.366617 280.442539 
L 158.525217 287.047863 
L 158.842418 273.470253 
L 159.001018 268.791481 
L 159.159618 272.369365 
L 159.318218 287.139604 
L 159.476818 248.333324 
L 159.635419 279.06643 
L 159.794019 280.62602 
L 159.952619 279.525133 
L 160.269819 264.754894 
L 160.428419 282.919536 
L 160.58702 264.387932 
L 160.74562 288.790935 
L 161.06282 285.488273 
L 161.22142 286.405679 
L 161.38002 279.616874 
L 161.538621 284.112164 
L 161.697221 266.497966 
L 162.014421 279.708614 
L 162.173021 274.387659 
L 162.331621 278.149024 
L 162.490222 291.634894 
L 162.648822 292.185338 
L 162.807422 267.965816 
L 162.966022 281.543427 
L 163.124622 276.681174 
L 163.283222 259.066976 
L 163.600423 286.130457 
L 163.759023 267.507113 
L 163.917623 288.515713 
L 164.076223 274.57114 
L 164.234823 276.864655 
L 164.393424 267.14015 
L 164.552024 275.763768 
L 164.710624 267.874075 
L 165.027824 279.158171 
L 165.186424 239.526225 
L 165.345025 266.222744 
L 165.662225 277.782061 
L 165.820825 274.938102 
L 165.979425 284.479126 
L 166.138025 268.974962 
L 166.296626 272.277625 
L 166.455226 267.690594 
L 166.613826 281.176464 
L 166.772426 283.378239 
L 166.931026 261.17701 
L 167.089627 274.846362 
L 167.248227 276.497693 
L 167.406827 259.70916 
L 167.565427 276.405952 
L 167.724027 235.122676 
L 168.041228 283.653461 
L 168.199828 270.351072 
L 168.358428 278.515986 
L 168.517028 275.213324 
L 168.675628 287.781788 
L 168.834228 278.424246 
L 168.992829 277.50684 
L 169.151429 272.919809 
L 169.310029 273.470253 
L 169.468629 255.856055 
L 169.627229 270.809775 
L 169.785829 263.470526 
L 169.94443 280.62602 
L 170.10303 280.167317 
L 170.26163 271.451959 
L 170.42023 283.011276 
L 170.57883 263.654007 
L 170.73743 281.084724 
L 171.054631 267.598853 
L 171.213231 278.332505 
L 171.371831 263.378785 
L 171.689031 284.479126 
L 171.847632 279.892096 
L 172.006232 258.333051 
L 172.323432 277.139877 
L 172.482032 264.938375 
L 172.640632 266.864928 
L 172.799233 284.387386 
L 173.116433 267.415372 
L 173.275033 271.176737 
L 173.592233 285.671754 
L 173.750834 271.084997 
L 173.909434 270.07585 
L 174.068034 270.534553 
L 174.226634 274.387659 
L 174.543834 265.764041 
L 174.861035 283.928683 
L 175.019635 282.827795 
L 175.178235 278.424246 
L 175.336835 270.259331 
L 175.495435 278.882949 
L 175.654036 278.699468 
L 175.812636 279.892096 
L 175.971236 275.121584 
L 176.129836 285.213051 
L 176.288436 278.149024 
L 176.447036 289.341379 
L 176.605637 284.662608 
L 176.764237 264.11271 
L 176.922837 268.241038 
L 177.081437 249.067249 
L 177.240037 266.589706 
L 177.398637 265.855782 
L 177.557238 268.424519 
L 177.715838 266.039263 
L 177.874438 265.6723 
L 178.033038 276.497693 
L 178.191638 272.002403 
L 178.350238 278.974689 
L 178.508839 276.314212 
L 178.667439 271.176737 
L 178.826039 271.910662 
L 179.143239 266.956669 
L 179.301839 285.855235 
L 179.46044 272.461106 
L 179.77764 288.423973 
L 179.93624 291.818375 
L 180.09484 275.396805 
L 180.253441 274.754621 
L 180.570641 263.378785 
L 180.729241 266.956669 
L 180.887841 285.580014 
L 181.046441 271.5437 
L 181.205042 278.791208 
L 181.363642 259.433939 
L 181.522242 281.726908 
L 181.680842 272.644587 
L 181.839442 278.149024 
L 181.998042 271.5437 
L 182.156643 270.626294 
L 182.315243 270.534553 
L 182.632443 248.149843 
L 182.791043 285.580014 
L 182.949643 269.708887 
L 183.108244 277.690321 
L 183.266844 265.030116 
L 183.425444 281.635167 
L 183.584044 284.387386 
L 183.742644 282.644314 
L 183.901244 287.506567 
L 184.059845 263.745747 
L 184.218445 273.745474 
L 184.377045 273.745474 
L 184.535645 275.029843 
L 184.694245 272.277625 
L 184.852845 263.654007 
L 185.170046 288.148751 
L 185.328646 273.653734 
L 185.487246 272.185884 
L 185.645846 280.809502 
L 185.804446 252.645133 
L 186.121647 282.09387 
L 186.280247 275.855509 
L 186.438847 283.56172 
L 186.597447 266.314485 
L 187.073248 279.06643 
L 187.231848 255.489092 
L 187.549048 281.818648 
L 187.707648 288.974416 
L 187.866249 277.323358 
L 188.024849 281.910389 
L 188.183449 264.204451 
L 188.342049 286.313939 
L 188.500649 274.846362 
L 188.659249 276.314212 
L 188.81785 260.259604 
L 189.13505 276.13073 
L 189.29365 265.58056 
L 189.45225 262.920082 
L 189.61085 288.148751 
L 189.769451 266.406225 
L 190.086651 281.635167 
L 190.245251 268.424519 
L 190.403851 273.745474 
L 190.562451 273.378512 
L 190.721052 266.681447 
L 190.879652 280.62602 
L 191.196852 267.782334 
L 191.355452 263.745747 
L 191.514052 264.571413 
L 191.672653 267.14015 
L 191.831253 273.10329 
L 191.989853 270.259331 
L 192.148453 274.662881 
L 192.307053 275.672027 
L 192.465654 277.50684 
L 192.624254 273.286771 
L 192.782854 247.782881 
L 192.941454 279.616874 
L 193.100054 285.855235 
L 193.417255 271.5437 
L 193.575855 281.084724 
L 193.734455 280.442539 
L 193.893055 263.654007 
L 194.051655 273.10329 
L 194.210255 269.433666 
L 194.368856 282.277352 
L 194.686056 272.277625 
L 194.844656 273.195031 
L 195.003256 266.681447 
L 195.161856 275.947249 
L 195.479057 262.186157 
L 195.796257 275.763768 
L 195.954857 272.002403 
L 196.272058 286.58916 
L 196.430658 255.764314 
L 196.747858 282.919536 
L 196.906458 272.094143 
L 197.065058 280.62602 
L 197.382259 262.277898 
L 197.540859 274.846362 
L 197.699459 268.057556 
L 197.858059 278.515986 
L 198.016659 265.488819 
L 198.17526 285.213051 
L 198.33386 226.77428 
L 198.49246 282.460833 
L 198.65106 269.250184 
L 198.80966 267.231891 
L 198.96826 279.616874 
L 199.126861 282.09387 
L 199.285461 276.772915 
L 199.602661 260.718307 
L 199.919861 287.690048 
L 200.237062 275.396805 
L 200.395662 274.754621 
L 200.554262 269.066703 
L 200.712862 277.690321 
L 200.871462 261.452232 
L 201.030063 263.195304 
L 201.188663 279.158171 
L 201.347263 251.819468 
L 201.505863 276.497693 
L 201.823063 284.479126 
L 201.981664 279.616874 
L 202.140264 289.249638 
L 202.298864 268.149297 
L 202.457464 274.938102 
L 202.616064 276.681174 
L 202.774664 276.497693 
L 202.933265 274.020696 
L 203.091865 264.846635 
L 203.250465 243.19585 
L 203.409065 271.360218 
L 203.567665 263.287044 
L 203.726265 284.754348 
L 203.884866 282.919536 
L 204.043466 273.470253 
L 204.202066 270.718034 
L 204.360666 273.378512 
L 204.519266 282.827795 
L 204.677867 273.195031 
L 204.836467 280.075577 
L 204.995067 275.488546 
L 205.312267 283.103017 
L 205.470867 280.075577 
L 205.629468 285.763495 
L 205.788068 277.965543 
L 205.946668 254.204724 
L 206.263868 293.469706 
L 206.422468 269.892369 
L 206.581069 272.828068 
L 206.739669 288.974416 
L 206.898269 287.506567 
L 207.215469 268.974962 
L 207.374069 271.268478 
L 207.53267 291.359672 
L 207.69127 251.727727 
L 207.84987 275.672027 
L 208.00847 264.387932 
L 208.32567 281.818648 
L 208.484271 272.552846 
L 208.642871 271.727181 
L 208.801471 276.405952 
L 208.960071 270.626294 
L 209.118671 275.763768 
L 209.277271 269.617147 
L 209.435872 278.882949 
L 209.594472 276.314212 
L 209.753072 280.62602 
L 209.911672 272.644587 
L 210.070272 271.176737 
L 210.228872 287.598307 
L 210.387473 281.176464 
L 210.546073 269.341925 
L 210.704673 268.791481 
L 210.863273 277.50684 
L 211.021873 269.066703 
L 211.180473 267.231891 
L 211.339074 268.974962 
L 211.656274 289.066157 
L 211.814874 262.277898 
L 211.973474 277.231618 
L 212.132074 277.048137 
L 212.290675 271.5437 
L 212.449275 279.616874 
L 212.766475 269.800628 
L 212.925075 279.892096 
L 213.083675 266.864928 
L 213.242276 274.479399 
L 213.400876 272.002403 
L 213.559476 263.195304 
L 213.718076 282.09387 
L 214.035276 274.57114 
L 214.193877 266.314485 
L 214.352477 268.791481 
L 214.511077 269.341925 
L 214.669677 286.038717 
L 214.828277 272.094143 
L 214.986877 286.58916 
L 215.145478 283.836942 
L 215.462678 268.608 
L 215.621278 265.764041 
L 215.779878 276.772915 
L 215.938478 278.424246 
L 216.097079 272.369365 
L 216.255679 271.268478 
L 216.414279 276.681174 
L 216.572879 292.827522 
L 216.731479 263.837488 
L 216.890079 290.167044 
L 217.04868 271.268478 
L 217.20728 266.681447 
L 217.52448 280.442539 
L 217.841681 258.241311 
L 218.000281 280.167317 
L 218.158881 282.644314 
L 218.317481 269.708887 
L 218.476081 278.240765 
L 218.793282 282.736055 
L 218.951882 275.396805 
L 219.110482 277.231618 
L 219.269082 286.680901 
L 219.427682 264.571413 
L 219.586282 285.121311 
L 219.744883 266.497966 
L 220.062083 289.249638 
L 220.379283 263.103563 
L 220.537883 262.002676 
L 220.855084 285.02957 
L 221.013684 271.084997 
L 221.172284 275.029843 
L 221.330884 262.461379 
L 221.648085 278.149024 
L 221.806685 276.681174 
L 221.965285 282.369092 
L 222.123885 270.16759 
L 222.282485 274.020696 
L 222.441085 229.434758 
L 222.599686 276.405952 
L 222.758286 283.194758 
L 222.916886 249.342471 
L 223.075486 274.295918 
L 223.234086 271.5437 
L 223.392686 262.369638 
L 223.551287 271.727181 
L 223.868487 269.617147 
L 224.027087 280.259058 
L 224.185687 263.562266 
L 224.344287 266.314485 
L 224.661488 283.56172 
L 224.820088 273.745474 
L 224.978688 283.653461 
L 225.137288 266.497966 
L 225.295888 286.680901 
L 225.613089 268.608 
L 225.771689 269.984109 
L 225.930289 281.635167 
L 226.088889 278.515986 
L 226.40609 289.341379 
L 226.56469 255.672573 
L 226.72329 277.965543 
L 227.04049 286.405679 
L 227.357691 268.608 
L 227.516291 271.084997 
L 227.674891 278.607727 
L 227.833491 264.846635 
L 227.992091 276.03899 
L 228.150691 268.608 
L 228.309292 255.305611 
L 228.626492 284.203904 
L 228.785092 271.084997 
L 229.102292 264.663154 
L 229.260893 287.231345 
L 229.419493 267.231891 
L 229.578093 265.121857 
L 229.736693 284.295645 
L 229.895293 279.616874 
L 230.053894 252.094689 
L 230.212494 274.387659 
L 230.371094 261.819195 
L 230.688294 278.515986 
L 230.846894 295.488 
L 231.005495 276.772915 
L 231.164095 289.800082 
L 231.481295 273.10329 
L 231.639895 279.616874 
L 231.798495 280.992983 
L 231.957096 274.387659 
L 232.115696 258.057829 
L 232.432896 289.157898 
L 232.591496 283.011276 
L 232.750096 249.709433 
L 232.908697 277.139877 
L 233.067297 264.387932 
L 233.384497 281.359945 
L 233.543097 289.52486 
L 233.701697 264.938375 
L 233.860298 284.203904 
L 234.018898 278.057283 
L 234.177498 278.974689 
L 234.336098 249.342471 
L 234.653298 285.396532 
L 234.811899 276.956396 
L 234.970499 279.616874 
L 235.129099 272.094143 
L 235.287699 279.983836 
L 235.446299 275.029843 
L 235.604899 282.460833 
L 235.7635 273.470253 
L 235.9221 279.158171 
L 236.0807 273.011549 
L 236.2393 245.856328 
L 236.5565 280.442539 
L 236.715101 276.314212 
L 236.873701 268.699741 
L 237.032301 283.011276 
L 237.190901 265.030116 
L 237.349501 273.653734 
L 237.666702 258.516532 
L 237.825302 269.158444 
L 237.983902 127.327454 
L 238.142502 282.09387 
L 238.301102 273.653734 
L 238.459702 281.635167 
L 238.618303 262.369638 
L 238.776903 275.947249 
L 238.935503 259.800901 
L 239.094103 273.837215 
L 239.252703 270.351072 
L 239.411303 276.864655 
L 239.569904 267.231891 
L 239.728504 268.699741 
L 240.045704 280.350799 
L 240.204304 252.369911 
L 240.362904 263.378785 
L 240.680105 245.856328 
L 240.838705 267.231891 
L 240.997305 266.131003 
L 241.155905 274.57114 
L 241.314505 264.571413 
L 241.473106 274.387659 
L 241.631706 250.62684 
L 241.948906 264.479672 
L 242.107506 266.681447 
L 242.424707 239.709706 
L 242.583307 272.185884 
L 242.741907 237.416191 
L 242.900507 266.314485 
L 243.059107 250.993802 
L 243.217708 268.424519 
L 243.376308 268.424519 
L 243.534908 246.406771 
L 243.693508 264.846635 
L 243.852108 258.241311 
L 244.010708 256.498239 
L 244.169309 242.828887 
L 244.327909 259.70916 
L 244.486509 258.975235 
L 244.645109 252.736874 
L 244.803709 264.204451 
L 244.962309 258.791754 
L 245.12091 258.975235 
L 245.59671 239.893188 
L 245.75531 250.259877 
L 245.91391 246.865474 
L 246.072511 255.030389 
L 246.231111 236.407044 
L 246.389711 255.397352 
L 246.865511 225.122949 
L 247.024112 246.039809 
L 247.182712 241.269297 
L 247.341312 242.186703 
L 247.658512 234.29701 
L 247.817112 246.590253 
L 247.975713 226.682539 
L 248.134313 243.562812 
L 248.292913 221.178102 
L 248.451513 230.719126 
L 248.610113 223.563358 
L 248.768713 229.434758 
L 248.927314 225.30643 
L 249.085914 227.691686 
L 249.403114 220.994621 
L 249.561714 198.42643 
L 249.720314 206.040901 
L 249.878915 223.83858 
L 250.037515 222.27899 
L 250.196115 178.793939 
L 250.354715 203.380423 
L 250.513315 206.958307 
L 250.671915 207.967454 
L 250.989116 187.784519 
L 251.147716 192.004587 
L 251.306316 189.344109 
L 251.464916 184.298375 
L 251.623516 183.197488 
L 251.782117 185.766225 
L 251.940717 172.555577 
L 252.099317 187.050594 
L 252.257917 179.06916 
L 252.416517 151.363495 
L 252.575117 178.151754 
L 252.733718 149.987386 
L 252.892318 154.941379 
L 253.050918 171.821652 
L 253.209518 144.849911 
L 253.526718 157.968819 
L 253.843919 139.070253 
L 254.002519 153.840491 
L 254.161119 129.620969 
L 254.478319 135.125406 
L 254.63692 118.520355 
L 254.79552 121.639536 
L 254.95412 127.602676 
L 255.11272 120.538648 
L 255.429921 124.575235 
L 255.747121 97.420014 
L 255.905721 120.263427 
L 256.064321 102.190526 
L 256.222921 98.153939 
L 256.381522 101.181379 
L 256.540122 112.740696 
L 256.698722 104.30056 
L 256.857322 74.668341 
L 257.015922 77.971003 
L 257.333123 107.328 
L 257.650323 82.099331 
L 257.808923 82.191072 
L 257.967523 90.631208 
L 258.126123 89.897283 
L 258.284724 65.402539 
L 258.443324 81.365406 
L 258.601924 81.457147 
L 258.760524 91.365133 
L 258.919124 89.989024 
L 259.077724 100.172232 
L 259.236325 90.631208 
L 259.394925 92.007317 
L 259.553525 71.45742 
L 259.712125 76.594894 
L 260.029325 98.979604 
L 260.346526 83.200218 
L 260.505126 99.163085 
L 260.663726 53.568 
L 260.822326 112.373734 
L 260.980926 96.227386 
L 261.139527 100.814416 
L 261.298127 101.089638 
L 261.456727 110.171959 
L 261.615327 110.997625 
L 261.773927 86.869843 
L 262.091128 125.767863 
L 262.249728 123.107386 
L 262.408328 114.116805 
L 262.566928 128.978785 
L 262.725528 119.804724 
L 262.884128 132.281447 
L 263.042729 88.521174 
L 263.201329 144.482949 
L 263.359929 123.841311 
L 263.518529 118.979058 
L 263.677129 137.785884 
L 263.835729 125.400901 
L 263.99433 135.76759 
L 264.31153 167.234621 
L 264.47013 165.399809 
L 264.62873 172.188614 
L 264.78733 159.895372 
L 264.945931 161.088 
L 265.263131 167.785065 
L 265.421731 153.932232 
L 265.738931 172.830799 
L 265.897532 181.729638 
L 266.056132 165.950253 
L 266.373332 189.252369 
L 266.531932 177.142608 
L 266.690532 194.848546 
L 266.849133 157.143154 
L 267.007733 204.940014 
L 267.166333 176.683904 
L 267.324933 206.591345 
L 267.483533 202.554758 
L 267.642133 209.802266 
L 267.959334 190.628478 
L 268.117934 195.123768 
L 268.276534 181.087454 
L 268.593735 216.774553 
L 268.752335 215.765406 
L 268.910935 220.902881 
L 269.069535 216.224109 
L 269.228135 222.095509 
L 269.386735 200.077761 
L 269.545336 222.645952 
L 269.703936 225.214689 
L 269.862536 213.471891 
L 270.021136 220.535918 
L 270.179736 213.471891 
L 270.338336 230.076942 
L 270.496937 231.544792 
L 270.814137 241.177556 
L 271.131337 232.370457 
L 271.448538 249.984655 
L 271.607138 237.416191 
L 271.765738 247.874621 
L 272.082938 234.021788 
L 272.241538 249.525952 
L 272.400139 245.030662 
L 272.558739 252.002949 
L 272.717339 250.993802 
L 272.875939 252.553392 
L 273.034539 248.883768 
L 273.193139 249.25073 
L 273.35174 251.360765 
L 273.51034 240.810594 
L 273.66894 256.406498 
L 273.82754 244.296737 
L 273.98614 247.782881 
L 274.14474 260.810048 
L 274.303341 264.204451 
L 274.461941 244.204997 
L 274.620541 260.718307 
L 274.779141 262.094416 
L 274.937741 245.030662 
L 275.254942 268.608 
L 275.413542 248.058102 
L 275.572142 265.213597 
L 275.730742 253.195577 
L 275.889342 272.277625 
L 276.047942 259.892642 
L 276.206543 266.956669 
L 276.365143 263.378785 
L 276.523743 265.213597 
L 276.682343 273.653734 
L 276.840943 271.360218 
L 276.999543 263.287044 
L 277.158144 266.589706 
L 277.316744 266.314485 
L 277.475344 262.828341 
L 277.633944 245.030662 
L 277.792544 264.204451 
L 277.951144 266.956669 
L 278.109745 277.690321 
L 278.268345 245.948068 
L 278.426945 255.305611 
L 278.585545 278.974689 
L 278.744145 273.286771 
L 278.902745 280.442539 
L 279.061346 247.69114 
L 279.219946 272.002403 
L 279.378546 277.965543 
L 279.537146 252.278171 
L 279.695746 274.57114 
L 279.854346 276.13073 
L 280.171547 267.14015 
L 280.330147 251.360765 
L 280.647347 282.736055 
L 280.805948 278.791208 
L 280.964548 262.094416 
L 281.123148 274.662881 
L 281.598948 258.057829 
L 281.757549 261.452232 
L 281.916149 277.690321 
L 282.074749 263.654007 
L 282.233349 265.947522 
L 282.391949 272.736328 
L 282.550549 284.754348 
L 282.70915 263.470526 
L 282.86775 272.919809 
L 283.02635 271.5437 
L 283.18495 280.075577 
L 283.50215 264.754894 
L 283.660751 282.09387 
L 283.819351 267.690594 
L 283.977951 266.222744 
L 284.136551 282.827795 
L 284.295151 253.195577 
L 284.453751 279.158171 
L 284.612352 281.359945 
L 284.770952 279.06643 
L 284.929552 268.332778 
L 285.088152 282.09387 
L 285.246752 281.726908 
L 285.405352 285.855235 
L 285.563953 277.782061 
L 285.722553 286.680901 
L 285.881153 280.717761 
L 286.039753 286.864382 
L 286.198353 277.59858 
L 286.356953 276.864655 
L 286.515554 262.277898 
L 286.674154 280.62602 
L 286.832754 277.782061 
L 286.991354 262.277898 
L 287.149954 270.442812 
L 287.308554 255.764314 
L 287.467155 269.158444 
L 287.625755 270.993256 
L 287.784355 253.74602 
L 287.942955 263.562266 
L 288.101555 259.433939 
L 288.260155 260.076123 
L 288.418756 279.158171 
L 288.735956 268.699741 
L 288.894556 247.140696 
L 289.053156 274.387659 
L 289.211756 272.644587 
L 289.370357 274.846362 
L 289.528957 272.369365 
L 289.687557 279.983836 
L 289.846157 272.828068 
L 290.004757 271.818922 
L 290.163357 280.717761 
L 290.480558 262.369638 
L 290.797758 288.515713 
L 290.956358 268.974962 
L 291.114958 279.341652 
L 291.273559 280.259058 
L 291.432159 276.956396 
L 291.590759 283.194758 
L 291.907959 262.369638 
L 292.066559 290.442266 
L 292.22516 278.791208 
L 292.38376 285.02957 
L 292.54236 247.69114 
L 292.70096 280.53428 
L 292.85956 277.323358 
L 293.018161 271.084997 
L 293.176761 274.938102 
L 293.335361 272.461106 
L 293.493961 284.295645 
L 293.652561 279.983836 
L 293.811161 270.16759 
L 293.969762 269.708887 
L 294.128362 273.470253 
L 294.286962 282.827795 
L 294.445562 265.121857 
L 294.604162 274.479399 
L 294.762762 268.883222 
L 294.921363 283.103017 
L 295.079963 245.489365 
L 295.238563 255.856055 
L 295.397163 275.672027 
L 295.555763 267.782334 
L 295.714363 283.745201 
L 295.872964 275.305065 
L 296.031564 272.919809 
L 296.190164 272.644587 
L 296.348764 278.240765 
L 296.507364 272.369365 
L 296.665964 270.993256 
L 296.824565 273.653734 
L 297.141765 264.020969 
L 297.300365 289.52486 
L 297.617565 264.020969 
L 297.776166 260.076123 
L 298.093366 280.442539 
L 298.251966 254.021242 
L 298.410566 272.094143 
L 298.569166 269.800628 
L 298.727767 274.204177 
L 298.886367 249.984655 
L 299.044967 280.167317 
L 299.203567 259.70916 
L 299.362167 261.635713 
L 299.837968 280.901242 
L 299.996568 260.626567 
L 300.313768 287.506567 
L 300.472368 278.699468 
L 300.630969 284.662608 
L 300.789569 260.259604 
L 300.948169 257.874348 
L 301.106769 286.772642 
L 301.423969 256.58998 
L 301.58257 278.974689 
L 301.89977 268.883222 
L 302.05837 277.231618 
L 302.21697 266.406225 
L 302.37557 283.836942 
L 302.534171 288.05701 
L 302.692771 262.920082 
L 302.851371 259.892642 
L 303.009971 262.64486 
L 303.327171 286.405679 
L 303.485772 280.167317 
L 303.644372 289.341379 
L 303.802972 253.103836 
L 304.120172 289.249638 
L 304.278772 266.589706 
L 304.595973 279.800355 
L 304.754573 264.938375 
L 305.071773 286.680901 
L 305.388974 272.736328 
L 305.547574 287.598307 
L 305.706174 278.974689 
L 305.864774 282.185611 
L 306.023374 277.048137 
L 306.181975 276.314212 
L 306.340575 270.16759 
L 306.499175 268.974962 
L 306.657775 275.580287 
L 306.816375 265.397078 
L 306.974975 281.726908 
L 307.133576 280.259058 
L 307.292176 268.241038 
L 307.450776 268.332778 
L 307.767976 283.745201 
L 307.926576 269.525406 
L 308.085177 269.250184 
L 308.243777 267.598853 
L 308.402377 270.351072 
L 308.560977 268.883222 
L 308.719577 262.920082 
L 308.878177 272.644587 
L 309.036778 274.387659 
L 309.195378 271.268478 
L 309.353978 250.810321 
L 309.512578 279.708614 
L 309.671178 266.681447 
L 309.829778 272.919809 
L 309.988379 265.213597 
L 310.146979 285.488273 
L 310.305579 270.718034 
L 310.464179 284.662608 
L 310.622779 275.763768 
L 310.781379 273.195031 
L 310.93998 222.095509 
L 311.09858 276.13073 
L 311.25718 277.323358 
L 311.41578 288.423973 
L 311.57438 277.231618 
L 311.73298 250.62684 
L 311.891581 279.616874 
L 312.050181 286.313939 
L 312.208781 279.708614 
L 312.367381 260.167863 
L 312.525981 277.231618 
L 312.684581 277.139877 
L 312.843182 256.039536 
L 313.160382 284.020423 
L 313.318982 286.313939 
L 313.477582 267.690594 
L 313.636182 287.96527 
L 313.794783 282.644314 
L 313.953383 272.644587 
L 314.111983 275.947249 
L 314.270583 264.571413 
L 314.429183 261.543973 
L 314.746384 277.139877 
L 314.904984 252.002949 
L 315.063584 256.68172 
L 315.380784 276.956396 
L 315.539384 260.901788 
L 315.697985 264.296191 
L 315.856585 272.277625 
L 316.173785 258.975235 
L 316.332385 280.62602 
L 316.490985 284.754348 
L 316.649586 278.057283 
L 316.808186 282.827795 
L 316.966786 254.571686 
L 317.283986 278.332505 
L 317.442586 280.259058 
L 317.601187 277.965543 
L 317.759787 281.910389 
L 317.918387 273.653734 
L 318.076987 277.139877 
L 318.235587 272.094143 
L 318.394188 282.369092 
L 318.869988 264.11271 
L 319.028588 273.286771 
L 319.187188 260.259604 
L 319.504389 279.433392 
L 319.662989 256.58998 
L 319.821589 260.443085 
L 319.980189 258.883495 
L 320.138789 281.726908 
L 320.45599 264.754894 
L 320.61459 264.663154 
L 320.93179 286.956123 
L 321.09039 279.892096 
L 321.248991 291.726635 
L 321.566191 262.736601 
L 321.724791 262.920082 
L 321.883391 277.50684 
L 322.041991 267.598853 
L 322.200592 272.736328 
L 322.359192 287.96527 
L 322.676392 270.351072 
L 322.834992 283.836942 
L 322.993592 285.121311 
L 323.152193 268.241038 
L 323.469393 275.029843 
L 323.627993 277.231618 
L 323.786593 273.837215 
L 323.945193 281.176464 
L 324.103794 254.938648 
L 324.262394 276.03899 
L 324.420994 250.62684 
L 324.579594 276.956396 
L 324.738194 277.782061 
L 324.896794 273.378512 
L 325.055395 280.62602 
L 325.213995 259.066976 
L 325.372595 281.268205 
L 325.689795 275.488546 
L 325.848395 254.755167 
L 326.006996 283.103017 
L 326.165596 274.204177 
L 326.324196 282.644314 
L 326.482796 283.745201 
L 326.641396 279.249911 
L 326.799996 283.653461 
L 326.958597 265.6723 
L 327.117197 279.433392 
L 327.275797 281.176464 
L 327.434397 256.773461 
L 327.592997 264.663154 
L 327.751597 255.856055 
L 327.910198 277.690321 
L 328.068798 260.718307 
L 328.227398 276.03899 
L 328.544598 258.791754 
L 328.703198 276.222471 
L 328.861799 274.020696 
L 329.020399 280.53428 
L 329.178999 280.167317 
L 329.337599 252.920355 
L 329.496199 286.038717 
L 329.654799 263.103563 
L 329.8134 284.112164 
L 329.972 275.672027 
L 330.1306 281.084724 
L 330.4478 268.883222 
L 330.6064 285.213051 
L 330.923601 269.158444 
L 331.082201 285.671754 
L 331.240801 265.764041 
L 331.399401 282.00213 
L 331.558002 261.910935 
L 331.716602 278.240765 
L 331.875202 276.03899 
L 332.033802 276.222471 
L 332.192402 270.718034 
L 332.351002 279.708614 
L 332.509603 259.066976 
L 332.826803 281.910389 
L 332.985403 270.351072 
L 333.302603 288.515713 
L 333.461204 270.809775 
L 333.619804 272.828068 
L 333.778404 268.149297 
L 334.095604 282.460833 
L 334.254204 283.286498 
L 334.412805 281.635167 
L 334.571405 266.497966 
L 334.730005 286.49742 
L 334.888605 260.443085 
L 335.047205 266.039263 
L 335.205805 259.892642 
L 335.364406 272.277625 
L 335.523006 268.608 
L 335.681606 279.158171 
L 335.998806 273.928956 
L 336.157406 282.552573 
L 336.316007 273.837215 
L 336.633207 273.561993 
L 336.791807 281.176464 
L 336.950407 277.231618 
L 337.109007 265.397078 
L 337.584808 289.433119 
L 337.902008 257.966089 
L 338.060608 269.892369 
L 338.219209 254.021242 
L 338.536409 280.992983 
L 338.695009 270.809775 
L 338.853609 287.139604 
L 339.012209 274.754621 
L 339.17081 283.745201 
L 339.32941 267.04841 
L 339.48801 269.708887 
L 339.64661 275.396805 
L 339.96381 259.066976 
L 340.122411 267.874075 
L 340.281011 265.213597 
L 340.439611 264.663154 
L 340.598211 283.103017 
L 340.915411 267.231891 
L 341.074012 282.552573 
L 341.232612 267.598853 
L 341.391212 279.433392 
L 341.549812 270.901515 
L 341.708412 275.029843 
L 341.867012 267.782334 
L 342.025613 270.626294 
L 342.184213 269.617147 
L 342.342813 258.057829 
L 342.501413 277.50684 
L 342.818613 260.626567 
L 342.977214 268.516259 
L 343.135814 263.837488 
L 343.294414 268.149297 
L 343.453014 265.947522 
L 343.611614 254.204724 
L 343.928815 273.928956 
L 344.087415 259.984382 
L 344.246015 278.607727 
L 344.404615 274.020696 
L 344.563215 278.424246 
L 344.721816 246.406771 
L 344.880416 276.589433 
L 345.039016 278.791208 
L 345.356216 271.268478 
L 345.514816 260.076123 
L 345.673417 285.304792 
L 346.149217 268.974962 
L 346.307817 263.103563 
L 346.625018 278.607727 
L 346.783618 282.09387 
L 346.942218 273.10329 
L 347.100818 283.56172 
L 347.259418 264.663154 
L 347.418018 266.681447 
L 347.576619 285.304792 
L 347.735219 274.754621 
L 347.893819 252.369911 
L 348.052419 273.10329 
L 348.211019 263.378785 
L 348.369619 264.204451 
L 348.68682 279.249911 
L 348.84542 261.819195 
L 349.00402 257.966089 
L 349.16262 260.718307 
L 349.32122 273.378512 
L 349.638421 281.359945 
L 349.797021 276.13073 
L 349.955621 263.195304 
L 350.114221 273.928956 
L 350.272821 260.167863 
L 350.590022 282.460833 
L 350.907222 263.470526 
L 351.065822 289.433119 
L 351.224422 279.616874 
L 351.383023 285.304792 
L 351.541623 279.158171 
L 351.858823 256.498239 
L 352.334624 277.50684 
L 352.493224 259.250457 
L 352.651824 269.433666 
L 352.969024 265.58056 
L 353.127624 280.901242 
L 353.444825 247.69114 
L 353.603425 256.039536 
L 353.920625 281.818648 
L 354.079225 279.983836 
L 354.237826 274.387659 
L 354.396426 273.378512 
L 354.555026 261.268751 
L 354.713626 279.158171 
L 355.030826 246.039809 
L 355.348027 277.690321 
L 355.506627 279.983836 
L 355.665227 261.910935 
L 355.823827 274.020696 
L 355.982427 274.57114 
L 356.299628 278.149024 
L 356.458228 267.965816 
L 356.616828 279.983836 
L 356.775428 275.305065 
L 356.934029 277.782061 
L 357.092629 261.910935 
L 357.251229 264.938375 
L 357.409829 286.130457 
L 357.568429 262.277898 
L 357.727029 259.984382 
L 357.88563 268.791481 
L 358.04423 269.800628 
L 358.20283 282.185611 
L 358.36143 277.873802 
L 358.52003 279.708614 
L 358.67863 271.360218 
L 358.837231 278.149024 
L 358.995831 271.727181 
L 359.154431 274.57114 
L 359.471631 266.131003 
L 359.630231 274.57114 
L 359.788832 274.754621 
L 359.947432 276.405952 
L 360.106032 280.442539 
L 360.264632 266.039263 
L 360.423232 275.947249 
L 360.581832 273.286771 
L 360.740433 272.828068 
L 360.899033 245.856328 
L 361.057633 288.974416 
L 361.216233 243.379331 
L 361.374833 264.296191 
L 361.533433 264.020969 
L 361.692034 271.910662 
L 361.850634 265.213597 
L 362.009234 250.259877 
L 362.326434 273.561993 
L 362.485034 269.341925 
L 362.802235 278.240765 
L 362.960835 274.57114 
L 363.278035 249.617693 
L 363.595236 268.791481 
L 363.753836 257.966089 
L 364.071036 280.442539 
L 364.388236 257.140423 
L 364.546837 276.956396 
L 364.705437 270.442812 
L 364.864037 271.818922 
L 365.022637 276.772915 
L 365.339837 259.250457 
L 365.498438 265.305338 
L 365.657038 264.204451 
L 365.815638 259.61742 
L 365.974238 262.64486 
L 366.132838 275.672027 
L 366.291438 246.773734 
L 366.450039 265.397078 
L 366.608639 260.626567 
L 366.767239 263.562266 
L 366.925839 276.956396 
L 367.084439 274.204177 
L 367.40164 252.002949 
L 367.56024 271.360218 
L 367.71884 274.662881 
L 367.87744 261.08527 
L 368.03604 259.158717 
L 368.511841 282.919536 
L 368.670441 274.295918 
L 368.829041 280.167317 
L 368.987641 258.516532 
L 369.146242 261.452232 
L 369.304842 274.754621 
L 369.463442 258.241311 
L 369.780642 275.672027 
L 369.939242 273.928956 
L 370.097843 254.296464 
L 370.256443 268.699741 
L 370.573643 276.497693 
L 370.732243 268.791481 
L 371.049444 278.057283 
L 371.208044 265.6723 
L 371.366644 272.185884 
L 371.525244 269.250184 
L 371.683844 259.250457 
L 371.842444 276.497693 
L 372.001045 257.323904 
L 372.159645 267.874075 
L 372.318245 269.250184 
L 372.476845 271.727181 
L 372.635445 266.589706 
L 372.794045 268.516259 
L 372.952646 275.121584 
L 373.111246 255.580833 
L 373.269846 283.653461 
L 373.428446 277.59858 
L 373.587046 280.53428 
L 373.745646 264.020969 
L 373.904247 259.800901 
L 374.221447 269.617147 
L 374.380047 254.388205 
L 374.697247 274.387659 
L 374.855848 266.314485 
L 375.173048 274.754621 
L 375.331648 263.195304 
L 375.490248 269.984109 
L 375.648848 282.919536 
L 375.807449 258.700014 
L 375.966049 275.580287 
L 376.441849 260.901788 
L 376.600449 268.149297 
L 376.75905 267.965816 
L 377.07625 256.039536 
L 377.23485 270.534553 
L 377.39345 265.397078 
L 377.55205 271.451959 
L 377.710651 262.277898 
L 377.869251 268.791481 
L 378.027851 268.974962 
L 378.186451 266.039263 
L 378.345051 268.241038 
L 378.503651 254.846908 
L 378.662252 270.259331 
L 378.820852 266.864928 
L 378.979452 272.552846 
L 379.138052 260.167863 
L 379.296652 268.608 
L 379.455252 270.626294 
L 379.613853 241.085816 
L 379.931053 269.892369 
L 380.089653 263.011823 
L 380.248253 276.681174 
L 380.406853 259.800901 
L 380.565454 260.810048 
L 380.724054 259.066976 
L 380.882654 272.919809 
L 381.041254 252.002949 
L 381.199854 264.387932 
L 381.358455 260.076123 
L 381.517055 250.535099 
L 381.675655 264.296191 
L 381.834255 260.167863 
L 381.992855 272.919809 
L 382.310056 249.25073 
L 382.468656 267.231891 
L 382.627256 263.837488 
L 382.785856 248.241584 
L 382.944456 264.846635 
L 383.103056 236.865747 
L 383.261657 258.700014 
L 383.420257 255.12213 
L 383.578857 265.305338 
L 383.737457 266.864928 
L 383.896057 266.497966 
L 384.054657 247.599399 
L 384.371858 267.231891 
L 384.689058 256.039536 
L 384.847658 221.453324 
L 385.006258 261.635713 
L 385.164859 240.443631 
L 385.323459 264.846635 
L 385.482059 266.956669 
L 385.799259 245.489365 
L 386.11646 257.140423 
L 386.43366 255.856055 
L 386.59226 251.911208 
L 386.90946 257.874348 
L 387.068061 254.388205 
L 387.226661 256.58998 
L 387.385261 247.599399 
L 387.543861 263.378785 
L 387.702461 258.608273 
L 387.861061 245.122403 
L 388.019662 270.442812 
L 388.178262 253.562539 
L 388.336862 259.892642 
L 388.495462 253.562539 
L 388.654062 252.736874 
L 388.812662 260.076123 
L 388.971263 251.269024 
L 389.129863 249.892915 
L 389.447063 242.920628 
L 389.605663 259.61742 
L 389.764263 248.883768 
L 389.922864 250.168137 
L 390.081464 242.920628 
L 390.240064 256.314758 
L 390.398664 228.792573 
L 390.557264 249.342471 
L 390.715864 239.342744 
L 390.874465 240.535372 
L 391.033065 240.535372 
L 391.191665 232.553939 
L 391.350265 251.177283 
L 391.508865 211.637078 
L 391.826066 254.663427 
L 392.301866 237.966635 
L 392.460466 254.112983 
L 392.619066 235.030935 
L 392.777667 242.094962 
L 392.936267 235.76486 
L 393.094867 253.74602 
L 393.412067 229.067795 
L 393.570667 241.085816 
L 393.729268 243.929775 
L 393.887868 224.755986 
L 394.046468 242.186703 
L 394.363668 231.820014 
L 394.680869 235.489638 
L 394.839469 235.948341 
L 394.998069 238.975782 
L 395.156669 233.379604 
L 395.315269 211.453597 
L 395.47387 227.783427 
L 395.63247 218.517625 
L 395.79107 242.737147 
L 396.10827 217.049775 
L 396.26687 214.756259 
L 396.425471 237.416191 
L 396.584071 214.205816 
L 396.742671 210.444451 
L 396.901271 228.150389 
L 397.059871 199.89428 
L 397.218471 219.618512 
L 397.377072 222.829433 
L 397.535672 200.352983 
L 397.694272 212.737966 
L 397.852872 189.068887 
L 398.011472 191.362403 
L 398.170072 200.628205 
L 398.328673 186.591891 
L 398.487273 199.068614 
L 398.487273 199.068614 
" style="fill:none;stroke:#1f77b4;stroke-linecap:square;stroke-width:1.5;"/>
   </g>
   <g id="patch_3">
    <path d="M 57.6 307.584 
L 57.6 41.472 
" style="fill:none;stroke:#000000;stroke-linecap:square;stroke-linejoin:miter;stroke-width:0.8;"/>
   </g>
   <g id="patch_4">
    <path d="M 414.72 307.584 
L 414.72 41.472 
" style="fill:none;stroke:#000000;stroke-linecap:square;stroke-linejoin:miter;stroke-width:0.8;"/>
   </g>
   <g id="patch_5">
    <path d="M 57.6 307.584 
L 414.72 307.584 
" style="fill:none;stroke:#000000;stroke-linecap:square;stroke-linejoin:miter;stroke-width:0.8;"/>
   </g>
   <g id="patch_6">
    <path d="M 57.6 41.472 
L 414.72 41.472 
" style="fill:none;stroke:#000000;stroke-linecap:square;stroke-linejoin:miter;stroke-width:0.8;"/>
   </g>
   <g id="text_15">
    <!-- Raw signal -->
    <g transform="translate(203.8875 35.472)scale(0.12 -0.12)">
     <defs>
      <path d="M 2841 2188 
Q 3044 2119 3236 1894 
Q 3428 1669 3622 1275 
L 4263 0 
L 3584 0 
L 2988 1197 
Q 2756 1666 2539 1819 
Q 2322 1972 1947 1972 
L 1259 1972 
L 1259 0 
L 628 0 
L 628 4666 
L 2053 4666 
Q 2853 4666 3247 4331 
Q 3641 3997 3641 3322 
Q 3641 2881 3436 2590 
Q 3231 2300 2841 2188 
z
M 1259 4147 
L 1259 2491 
L 2053 2491 
Q 2509 2491 2742 2702 
Q 2975 2913 2975 3322 
Q 2975 3731 2742 3939 
Q 2509 4147 2053 4147 
L 1259 4147 
z
" id="DejaVuSans-52" transform="scale(0.015625)"/>
      <path d="M 269 3500 
L 844 3500 
L 1563 769 
L 2278 3500 
L 2956 3500 
L 3675 769 
L 4391 3500 
L 4966 3500 
L 4050 0 
L 3372 0 
L 2619 2869 
L 1863 0 
L 1184 0 
L 269 3500 
z
" id="DejaVuSans-77" transform="scale(0.015625)"/>
      <path d="M 603 3500 
L 1178 3500 
L 1178 0 
L 603 0 
L 603 3500 
z
M 603 4863 
L 1178 4863 
L 1178 4134 
L 603 4134 
L 603 4863 
z
" id="DejaVuSans-69" transform="scale(0.015625)"/>
     </defs>
     <use xlink:href="#DejaVuSans-52"/>
     <use x="67.232422" xlink:href="#DejaVuSans-61"/>
     <use x="128.511719" xlink:href="#DejaVuSans-77"/>
     <use x="210.298828" xlink:href="#DejaVuSans-20"/>
     <use x="242.085938" xlink:href="#DejaVuSans-73"/>
     <use x="294.185547" xlink:href="#DejaVuSans-69"/>
     <use x="321.96875" xlink:href="#DejaVuSans-67"/>
     <use x="385.445312" xlink:href="#DejaVuSans-6e"/>
     <use x="448.824219" xlink:href="#DejaVuSans-61"/>
     <use x="510.103516" xlink:href="#DejaVuSans-6c"/>
    </g>
   </g>
  </g>
 </g>
 <defs>
  <clipPath id="paacf2ce7a9">
   <rect height="266.112" width="357.12" x="57.6" y="41.472"/>
  </clipPath>
 </defs>
</svg>
