<?xml version="1.0" encoding="utf-8" standalone="no"?>
<!DOCTYPE svg PUBLIC "-//W3C//DTD SVG 1.1//EN"
  "http://www.w3.org/Graphics/SVG/1.1/DTD/svg11.dtd">
<svg height="345.6pt" version="1.1" viewBox="0 0 460.8 345.6" width="460.8pt" xmlns="http://www.w3.org/2000/svg" xmlns:xlink="http://www.w3.org/1999/xlink">
 <metadata>
  <rdf:RDF xmlns:cc="http://creativecommons.org/ns#" xmlns:dc="http://purl.org/dc/elements/1.1/" xmlns:rdf="http://www.w3.org/1999/02/22-rdf-syntax-ns#">
   <cc:Work>
    <dc:type rdf:resource="http://purl.org/dc/dcmitype/StillImage"/>
    <dc:date>2022-06-03T23:57:24.450802</dc:date>
    <dc:format>image/svg+xml</dc:format>
    <dc:creator>
     <cc:Agent>
      <dc:title>Matplotlib v3.4.1, https://matplotlib.org/</dc:title>
     </cc:Agent>
    </dc:creator>
   </cc:Work>
  </rdf:RDF>
 </metadata>
 <defs>
  <style type="text/css">*{stroke-linecap:butt;stroke-linejoin:round;}</style>
 </defs>
 <g id="figure_1">
  <g id="patch_1">
   <path d="M 0 345.6 
L 460.8 345.6 
L 460.8 0 
L 0 0 
z
" style="fill:#ffffff;"/>
  </g>
  <g id="axes_1">
   <g id="patch_2">
    <path d="M 57.6 307.584 
L 414.72 307.584 
L 414.72 41.472 
L 57.6 41.472 
z
" style="fill:#ffffff;"/>
   </g>
   <g id="matplotlib.axis_1">
    <g id="xtick_1">
     <g id="line2d_1">
      <defs>
       <path d="M 0 0 
L 0 3.5 
" id="m94f148a822" style="stroke:#000000;stroke-width:0.8;"/>
      </defs>
      <g>
       <use style="stroke:#000000;stroke-width:0.8;" x="102.929605" xlink:href="#m94f148a822" y="307.584"/>
      </g>
     </g>
     <g id="text_1">
      <!-- 400 -->
      <g transform="translate(93.385855 322.182437)scale(0.1 -0.1)">
       <defs>
        <path d="M 2419 4116 
L 825 1625 
L 2419 1625 
L 2419 4116 
z
M 2253 4666 
L 3047 4666 
L 3047 1625 
L 3713 1625 
L 3713 1100 
L 3047 1100 
L 3047 0 
L 2419 0 
L 2419 1100 
L 313 1100 
L 313 1709 
L 2253 4666 
z
" id="DejaVuSans-34" transform="scale(0.015625)"/>
        <path d="M 2034 4250 
Q 1547 4250 1301 3770 
Q 1056 3291 1056 2328 
Q 1056 1369 1301 889 
Q 1547 409 2034 409 
Q 2525 409 2770 889 
Q 3016 1369 3016 2328 
Q 3016 3291 2770 3770 
Q 2525 4250 2034 4250 
z
M 2034 4750 
Q 2819 4750 3233 4129 
Q 3647 3509 3647 2328 
Q 3647 1150 3233 529 
Q 2819 -91 2034 -91 
Q 1250 -91 836 529 
Q 422 1150 422 2328 
Q 422 3509 836 4129 
Q 1250 4750 2034 4750 
z
" id="DejaVuSans-30" transform="scale(0.015625)"/>
       </defs>
       <use xlink:href="#DejaVuSans-34"/>
       <use x="63.623047" xlink:href="#DejaVuSans-30"/>
       <use x="127.246094" xlink:href="#DejaVuSans-30"/>
      </g>
     </g>
    </g>
    <g id="xtick_2">
     <g id="line2d_2">
      <g>
       <use style="stroke:#000000;stroke-width:0.8;" x="160.931952" xlink:href="#m94f148a822" y="307.584"/>
      </g>
     </g>
     <g id="text_2">
      <!-- 600 -->
      <g transform="translate(151.388202 322.182437)scale(0.1 -0.1)">
       <defs>
        <path d="M 2113 2584 
Q 1688 2584 1439 2293 
Q 1191 2003 1191 1497 
Q 1191 994 1439 701 
Q 1688 409 2113 409 
Q 2538 409 2786 701 
Q 3034 994 3034 1497 
Q 3034 2003 2786 2293 
Q 2538 2584 2113 2584 
z
M 3366 4563 
L 3366 3988 
Q 3128 4100 2886 4159 
Q 2644 4219 2406 4219 
Q 1781 4219 1451 3797 
Q 1122 3375 1075 2522 
Q 1259 2794 1537 2939 
Q 1816 3084 2150 3084 
Q 2853 3084 3261 2657 
Q 3669 2231 3669 1497 
Q 3669 778 3244 343 
Q 2819 -91 2113 -91 
Q 1303 -91 875 529 
Q 447 1150 447 2328 
Q 447 3434 972 4092 
Q 1497 4750 2381 4750 
Q 2619 4750 2861 4703 
Q 3103 4656 3366 4563 
z
" id="DejaVuSans-36" transform="scale(0.015625)"/>
       </defs>
       <use xlink:href="#DejaVuSans-36"/>
       <use x="63.623047" xlink:href="#DejaVuSans-30"/>
       <use x="127.246094" xlink:href="#DejaVuSans-30"/>
      </g>
     </g>
    </g>
    <g id="xtick_3">
     <g id="line2d_3">
      <g>
       <use style="stroke:#000000;stroke-width:0.8;" x="218.9343" xlink:href="#m94f148a822" y="307.584"/>
      </g>
     </g>
     <g id="text_3">
      <!-- 800 -->
      <g transform="translate(209.39055 322.182437)scale(0.1 -0.1)">
       <defs>
        <path d="M 2034 2216 
Q 1584 2216 1326 1975 
Q 1069 1734 1069 1313 
Q 1069 891 1326 650 
Q 1584 409 2034 409 
Q 2484 409 2743 651 
Q 3003 894 3003 1313 
Q 3003 1734 2745 1975 
Q 2488 2216 2034 2216 
z
M 1403 2484 
Q 997 2584 770 2862 
Q 544 3141 544 3541 
Q 544 4100 942 4425 
Q 1341 4750 2034 4750 
Q 2731 4750 3128 4425 
Q 3525 4100 3525 3541 
Q 3525 3141 3298 2862 
Q 3072 2584 2669 2484 
Q 3125 2378 3379 2068 
Q 3634 1759 3634 1313 
Q 3634 634 3220 271 
Q 2806 -91 2034 -91 
Q 1263 -91 848 271 
Q 434 634 434 1313 
Q 434 1759 690 2068 
Q 947 2378 1403 2484 
z
M 1172 3481 
Q 1172 3119 1398 2916 
Q 1625 2713 2034 2713 
Q 2441 2713 2670 2916 
Q 2900 3119 2900 3481 
Q 2900 3844 2670 4047 
Q 2441 4250 2034 4250 
Q 1625 4250 1398 4047 
Q 1172 3844 1172 3481 
z
" id="DejaVuSans-38" transform="scale(0.015625)"/>
       </defs>
       <use xlink:href="#DejaVuSans-38"/>
       <use x="63.623047" xlink:href="#DejaVuSans-30"/>
       <use x="127.246094" xlink:href="#DejaVuSans-30"/>
      </g>
     </g>
    </g>
    <g id="xtick_4">
     <g id="line2d_4">
      <g>
       <use style="stroke:#000000;stroke-width:0.8;" x="276.936647" xlink:href="#m94f148a822" y="307.584"/>
      </g>
     </g>
     <g id="text_4">
      <!-- 1000 -->
      <g transform="translate(264.211647 322.182437)scale(0.1 -0.1)">
       <defs>
        <path d="M 794 531 
L 1825 531 
L 1825 4091 
L 703 3866 
L 703 4441 
L 1819 4666 
L 2450 4666 
L 2450 531 
L 3481 531 
L 3481 0 
L 794 0 
L 794 531 
z
" id="DejaVuSans-31" transform="scale(0.015625)"/>
       </defs>
       <use xlink:href="#DejaVuSans-31"/>
       <use x="63.623047" xlink:href="#DejaVuSans-30"/>
       <use x="127.246094" xlink:href="#DejaVuSans-30"/>
       <use x="190.869141" xlink:href="#DejaVuSans-30"/>
      </g>
     </g>
    </g>
    <g id="xtick_5">
     <g id="line2d_5">
      <g>
       <use style="stroke:#000000;stroke-width:0.8;" x="334.938995" xlink:href="#m94f148a822" y="307.584"/>
      </g>
     </g>
     <g id="text_5">
      <!-- 1200 -->
      <g transform="translate(322.213995 322.182437)scale(0.1 -0.1)">
       <defs>
        <path d="M 1228 531 
L 3431 531 
L 3431 0 
L 469 0 
L 469 531 
Q 828 903 1448 1529 
Q 2069 2156 2228 2338 
Q 2531 2678 2651 2914 
Q 2772 3150 2772 3378 
Q 2772 3750 2511 3984 
Q 2250 4219 1831 4219 
Q 1534 4219 1204 4116 
Q 875 4013 500 3803 
L 500 4441 
Q 881 4594 1212 4672 
Q 1544 4750 1819 4750 
Q 2544 4750 2975 4387 
Q 3406 4025 3406 3419 
Q 3406 3131 3298 2873 
Q 3191 2616 2906 2266 
Q 2828 2175 2409 1742 
Q 1991 1309 1228 531 
z
" id="DejaVuSans-32" transform="scale(0.015625)"/>
       </defs>
       <use xlink:href="#DejaVuSans-31"/>
       <use x="63.623047" xlink:href="#DejaVuSans-32"/>
       <use x="127.246094" xlink:href="#DejaVuSans-30"/>
       <use x="190.869141" xlink:href="#DejaVuSans-30"/>
      </g>
     </g>
    </g>
    <g id="xtick_6">
     <g id="line2d_6">
      <g>
       <use style="stroke:#000000;stroke-width:0.8;" x="392.941342" xlink:href="#m94f148a822" y="307.584"/>
      </g>
     </g>
     <g id="text_6">
      <!-- 1400 -->
      <g transform="translate(380.216342 322.182437)scale(0.1 -0.1)">
       <use xlink:href="#DejaVuSans-31"/>
       <use x="63.623047" xlink:href="#DejaVuSans-34"/>
       <use x="127.246094" xlink:href="#DejaVuSans-30"/>
       <use x="190.869141" xlink:href="#DejaVuSans-30"/>
      </g>
     </g>
    </g>
    <g id="text_7">
     <!-- Wavelength [nm] -->
     <g transform="translate(192.967812 335.860562)scale(0.1 -0.1)">
      <defs>
       <path d="M 213 4666 
L 850 4666 
L 1831 722 
L 2809 4666 
L 3519 4666 
L 4500 722 
L 5478 4666 
L 6119 4666 
L 4947 0 
L 4153 0 
L 3169 4050 
L 2175 0 
L 1381 0 
L 213 4666 
z
" id="DejaVuSans-57" transform="scale(0.015625)"/>
       <path d="M 2194 1759 
Q 1497 1759 1228 1600 
Q 959 1441 959 1056 
Q 959 750 1161 570 
Q 1363 391 1709 391 
Q 2188 391 2477 730 
Q 2766 1069 2766 1631 
L 2766 1759 
L 2194 1759 
z
M 3341 1997 
L 3341 0 
L 2766 0 
L 2766 531 
Q 2569 213 2275 61 
Q 1981 -91 1556 -91 
Q 1019 -91 701 211 
Q 384 513 384 1019 
Q 384 1609 779 1909 
Q 1175 2209 1959 2209 
L 2766 2209 
L 2766 2266 
Q 2766 2663 2505 2880 
Q 2244 3097 1772 3097 
Q 1472 3097 1187 3025 
Q 903 2953 641 2809 
L 641 3341 
Q 956 3463 1253 3523 
Q 1550 3584 1831 3584 
Q 2591 3584 2966 3190 
Q 3341 2797 3341 1997 
z
" id="DejaVuSans-61" transform="scale(0.015625)"/>
       <path d="M 191 3500 
L 800 3500 
L 1894 563 
L 2988 3500 
L 3597 3500 
L 2284 0 
L 1503 0 
L 191 3500 
z
" id="DejaVuSans-76" transform="scale(0.015625)"/>
       <path d="M 3597 1894 
L 3597 1613 
L 953 1613 
Q 991 1019 1311 708 
Q 1631 397 2203 397 
Q 2534 397 2845 478 
Q 3156 559 3463 722 
L 3463 178 
Q 3153 47 2828 -22 
Q 2503 -91 2169 -91 
Q 1331 -91 842 396 
Q 353 884 353 1716 
Q 353 2575 817 3079 
Q 1281 3584 2069 3584 
Q 2775 3584 3186 3129 
Q 3597 2675 3597 1894 
z
M 3022 2063 
Q 3016 2534 2758 2815 
Q 2500 3097 2075 3097 
Q 1594 3097 1305 2825 
Q 1016 2553 972 2059 
L 3022 2063 
z
" id="DejaVuSans-65" transform="scale(0.015625)"/>
       <path d="M 603 4863 
L 1178 4863 
L 1178 0 
L 603 0 
L 603 4863 
z
" id="DejaVuSans-6c" transform="scale(0.015625)"/>
       <path d="M 3513 2113 
L 3513 0 
L 2938 0 
L 2938 2094 
Q 2938 2591 2744 2837 
Q 2550 3084 2163 3084 
Q 1697 3084 1428 2787 
Q 1159 2491 1159 1978 
L 1159 0 
L 581 0 
L 581 3500 
L 1159 3500 
L 1159 2956 
Q 1366 3272 1645 3428 
Q 1925 3584 2291 3584 
Q 2894 3584 3203 3211 
Q 3513 2838 3513 2113 
z
" id="DejaVuSans-6e" transform="scale(0.015625)"/>
       <path d="M 2906 1791 
Q 2906 2416 2648 2759 
Q 2391 3103 1925 3103 
Q 1463 3103 1205 2759 
Q 947 2416 947 1791 
Q 947 1169 1205 825 
Q 1463 481 1925 481 
Q 2391 481 2648 825 
Q 2906 1169 2906 1791 
z
M 3481 434 
Q 3481 -459 3084 -895 
Q 2688 -1331 1869 -1331 
Q 1566 -1331 1297 -1286 
Q 1028 -1241 775 -1147 
L 775 -588 
Q 1028 -725 1275 -790 
Q 1522 -856 1778 -856 
Q 2344 -856 2625 -561 
Q 2906 -266 2906 331 
L 2906 616 
Q 2728 306 2450 153 
Q 2172 0 1784 0 
Q 1141 0 747 490 
Q 353 981 353 1791 
Q 353 2603 747 3093 
Q 1141 3584 1784 3584 
Q 2172 3584 2450 3431 
Q 2728 3278 2906 2969 
L 2906 3500 
L 3481 3500 
L 3481 434 
z
" id="DejaVuSans-67" transform="scale(0.015625)"/>
       <path d="M 1172 4494 
L 1172 3500 
L 2356 3500 
L 2356 3053 
L 1172 3053 
L 1172 1153 
Q 1172 725 1289 603 
Q 1406 481 1766 481 
L 2356 481 
L 2356 0 
L 1766 0 
Q 1100 0 847 248 
Q 594 497 594 1153 
L 594 3053 
L 172 3053 
L 172 3500 
L 594 3500 
L 594 4494 
L 1172 4494 
z
" id="DejaVuSans-74" transform="scale(0.015625)"/>
       <path d="M 3513 2113 
L 3513 0 
L 2938 0 
L 2938 2094 
Q 2938 2591 2744 2837 
Q 2550 3084 2163 3084 
Q 1697 3084 1428 2787 
Q 1159 2491 1159 1978 
L 1159 0 
L 581 0 
L 581 4863 
L 1159 4863 
L 1159 2956 
Q 1366 3272 1645 3428 
Q 1925 3584 2291 3584 
Q 2894 3584 3203 3211 
Q 3513 2838 3513 2113 
z
" id="DejaVuSans-68" transform="scale(0.015625)"/>
       <path id="DejaVuSans-20" transform="scale(0.015625)"/>
       <path d="M 550 4863 
L 1875 4863 
L 1875 4416 
L 1125 4416 
L 1125 -397 
L 1875 -397 
L 1875 -844 
L 550 -844 
L 550 4863 
z
" id="DejaVuSans-5b" transform="scale(0.015625)"/>
       <path d="M 3328 2828 
Q 3544 3216 3844 3400 
Q 4144 3584 4550 3584 
Q 5097 3584 5394 3201 
Q 5691 2819 5691 2113 
L 5691 0 
L 5113 0 
L 5113 2094 
Q 5113 2597 4934 2840 
Q 4756 3084 4391 3084 
Q 3944 3084 3684 2787 
Q 3425 2491 3425 1978 
L 3425 0 
L 2847 0 
L 2847 2094 
Q 2847 2600 2669 2842 
Q 2491 3084 2119 3084 
Q 1678 3084 1418 2786 
Q 1159 2488 1159 1978 
L 1159 0 
L 581 0 
L 581 3500 
L 1159 3500 
L 1159 2956 
Q 1356 3278 1631 3431 
Q 1906 3584 2284 3584 
Q 2666 3584 2933 3390 
Q 3200 3197 3328 2828 
z
" id="DejaVuSans-6d" transform="scale(0.015625)"/>
       <path d="M 1947 4863 
L 1947 -844 
L 622 -844 
L 622 -397 
L 1369 -397 
L 1369 4416 
L 622 4416 
L 622 4863 
L 1947 4863 
z
" id="DejaVuSans-5d" transform="scale(0.015625)"/>
      </defs>
      <use xlink:href="#DejaVuSans-57"/>
      <use x="92.501953" xlink:href="#DejaVuSans-61"/>
      <use x="153.78125" xlink:href="#DejaVuSans-76"/>
      <use x="212.960938" xlink:href="#DejaVuSans-65"/>
      <use x="274.484375" xlink:href="#DejaVuSans-6c"/>
      <use x="302.267578" xlink:href="#DejaVuSans-65"/>
      <use x="363.791016" xlink:href="#DejaVuSans-6e"/>
      <use x="427.169922" xlink:href="#DejaVuSans-67"/>
      <use x="490.646484" xlink:href="#DejaVuSans-74"/>
      <use x="529.855469" xlink:href="#DejaVuSans-68"/>
      <use x="593.234375" xlink:href="#DejaVuSans-20"/>
      <use x="625.021484" xlink:href="#DejaVuSans-5b"/>
      <use x="664.035156" xlink:href="#DejaVuSans-6e"/>
      <use x="727.414062" xlink:href="#DejaVuSans-6d"/>
      <use x="824.826172" xlink:href="#DejaVuSans-5d"/>
     </g>
    </g>
   </g>
   <g id="matplotlib.axis_2">
    <g id="ytick_1">
     <g id="line2d_7">
      <defs>
       <path d="M 0 0 
L -3.5 0 
" id="mea692785de" style="stroke:#000000;stroke-width:0.8;"/>
      </defs>
      <g>
       <use style="stroke:#000000;stroke-width:0.8;" x="57.6" xlink:href="#mea692785de" y="286.655658"/>
      </g>
     </g>
     <g id="text_8">
      <!-- 0 -->
      <g transform="translate(44.2375 290.454877)scale(0.1 -0.1)">
       <use xlink:href="#DejaVuSans-30"/>
      </g>
     </g>
    </g>
    <g id="ytick_2">
     <g id="line2d_8">
      <g>
       <use style="stroke:#000000;stroke-width:0.8;" x="57.6" xlink:href="#mea692785de" y="232.799915"/>
      </g>
     </g>
     <g id="text_9">
      <!-- 2000 -->
      <g transform="translate(25.15 236.599133)scale(0.1 -0.1)">
       <use xlink:href="#DejaVuSans-32"/>
       <use x="63.623047" xlink:href="#DejaVuSans-30"/>
       <use x="127.246094" xlink:href="#DejaVuSans-30"/>
       <use x="190.869141" xlink:href="#DejaVuSans-30"/>
      </g>
     </g>
    </g>
    <g id="ytick_3">
     <g id="line2d_9">
      <g>
       <use style="stroke:#000000;stroke-width:0.8;" x="57.6" xlink:href="#mea692785de" y="178.944171"/>
      </g>
     </g>
     <g id="text_10">
      <!-- 4000 -->
      <g transform="translate(25.15 182.74339)scale(0.1 -0.1)">
       <use xlink:href="#DejaVuSans-34"/>
       <use x="63.623047" xlink:href="#DejaVuSans-30"/>
       <use x="127.246094" xlink:href="#DejaVuSans-30"/>
       <use x="190.869141" xlink:href="#DejaVuSans-30"/>
      </g>
     </g>
    </g>
    <g id="ytick_4">
     <g id="line2d_10">
      <g>
       <use style="stroke:#000000;stroke-width:0.8;" x="57.6" xlink:href="#mea692785de" y="125.088427"/>
      </g>
     </g>
     <g id="text_11">
      <!-- 6000 -->
      <g transform="translate(25.15 128.887646)scale(0.1 -0.1)">
       <use xlink:href="#DejaVuSans-36"/>
       <use x="63.623047" xlink:href="#DejaVuSans-30"/>
       <use x="127.246094" xlink:href="#DejaVuSans-30"/>
       <use x="190.869141" xlink:href="#DejaVuSans-30"/>
      </g>
     </g>
    </g>
    <g id="ytick_5">
     <g id="line2d_11">
      <g>
       <use style="stroke:#000000;stroke-width:0.8;" x="57.6" xlink:href="#mea692785de" y="71.232684"/>
      </g>
     </g>
     <g id="text_12">
      <!-- 8000 -->
      <g transform="translate(25.15 75.031903)scale(0.1 -0.1)">
       <use xlink:href="#DejaVuSans-38"/>
       <use x="63.623047" xlink:href="#DejaVuSans-30"/>
       <use x="127.246094" xlink:href="#DejaVuSans-30"/>
       <use x="190.869141" xlink:href="#DejaVuSans-30"/>
      </g>
     </g>
    </g>
    <g id="text_13">
     <!-- Counts -->
     <g transform="translate(19.070312 191.981125)rotate(-90)scale(0.1 -0.1)">
      <defs>
       <path d="M 4122 4306 
L 4122 3641 
Q 3803 3938 3442 4084 
Q 3081 4231 2675 4231 
Q 1875 4231 1450 3742 
Q 1025 3253 1025 2328 
Q 1025 1406 1450 917 
Q 1875 428 2675 428 
Q 3081 428 3442 575 
Q 3803 722 4122 1019 
L 4122 359 
Q 3791 134 3420 21 
Q 3050 -91 2638 -91 
Q 1578 -91 968 557 
Q 359 1206 359 2328 
Q 359 3453 968 4101 
Q 1578 4750 2638 4750 
Q 3056 4750 3426 4639 
Q 3797 4528 4122 4306 
z
" id="DejaVuSans-43" transform="scale(0.015625)"/>
       <path d="M 1959 3097 
Q 1497 3097 1228 2736 
Q 959 2375 959 1747 
Q 959 1119 1226 758 
Q 1494 397 1959 397 
Q 2419 397 2687 759 
Q 2956 1122 2956 1747 
Q 2956 2369 2687 2733 
Q 2419 3097 1959 3097 
z
M 1959 3584 
Q 2709 3584 3137 3096 
Q 3566 2609 3566 1747 
Q 3566 888 3137 398 
Q 2709 -91 1959 -91 
Q 1206 -91 779 398 
Q 353 888 353 1747 
Q 353 2609 779 3096 
Q 1206 3584 1959 3584 
z
" id="DejaVuSans-6f" transform="scale(0.015625)"/>
       <path d="M 544 1381 
L 544 3500 
L 1119 3500 
L 1119 1403 
Q 1119 906 1312 657 
Q 1506 409 1894 409 
Q 2359 409 2629 706 
Q 2900 1003 2900 1516 
L 2900 3500 
L 3475 3500 
L 3475 0 
L 2900 0 
L 2900 538 
Q 2691 219 2414 64 
Q 2138 -91 1772 -91 
Q 1169 -91 856 284 
Q 544 659 544 1381 
z
M 1991 3584 
L 1991 3584 
z
" id="DejaVuSans-75" transform="scale(0.015625)"/>
       <path d="M 2834 3397 
L 2834 2853 
Q 2591 2978 2328 3040 
Q 2066 3103 1784 3103 
Q 1356 3103 1142 2972 
Q 928 2841 928 2578 
Q 928 2378 1081 2264 
Q 1234 2150 1697 2047 
L 1894 2003 
Q 2506 1872 2764 1633 
Q 3022 1394 3022 966 
Q 3022 478 2636 193 
Q 2250 -91 1575 -91 
Q 1294 -91 989 -36 
Q 684 19 347 128 
L 347 722 
Q 666 556 975 473 
Q 1284 391 1588 391 
Q 1994 391 2212 530 
Q 2431 669 2431 922 
Q 2431 1156 2273 1281 
Q 2116 1406 1581 1522 
L 1381 1569 
Q 847 1681 609 1914 
Q 372 2147 372 2553 
Q 372 3047 722 3315 
Q 1072 3584 1716 3584 
Q 2034 3584 2315 3537 
Q 2597 3491 2834 3397 
z
" id="DejaVuSans-73" transform="scale(0.015625)"/>
      </defs>
      <use xlink:href="#DejaVuSans-43"/>
      <use x="69.824219" xlink:href="#DejaVuSans-6f"/>
      <use x="131.005859" xlink:href="#DejaVuSans-75"/>
      <use x="194.384766" xlink:href="#DejaVuSans-6e"/>
      <use x="257.763672" xlink:href="#DejaVuSans-74"/>
      <use x="296.972656" xlink:href="#DejaVuSans-73"/>
     </g>
    </g>
   </g>
   <g id="line2d_12">
    <path clip-path="url(#p86839a3755)" d="M 73.832727 286.009389 
L 73.991327 285.578543 
L 74.149928 282.670333 
L 74.467128 288.594465 
L 74.625728 283.101179 
L 74.942928 289.240734 
L 75.101529 281.054661 
L 75.260129 291.718098 
L 75.418729 282.347199 
L 75.577329 289.348445 
L 75.735929 280.085257 
L 75.894529 289.240734 
L 76.05313 286.655658 
L 76.21173 292.57979 
L 76.37033 285.039986 
L 76.52893 285.255409 
L 76.68753 289.133022 
L 76.84613 284.178294 
L 77.004731 285.578543 
L 77.163331 288.486753 
L 77.321931 285.578543 
L 77.480531 287.194215 
L 77.639131 286.440235 
L 77.797731 282.778045 
L 77.956332 282.131776 
L 78.114932 287.194215 
L 78.273532 282.670333 
L 78.432132 283.424313 
L 78.590732 286.76337 
L 78.749333 286.978793 
L 79.066533 283.20889 
L 79.225133 289.240734 
L 79.383733 284.286005 
L 79.542333 287.840484 
L 79.700934 286.224812 
L 79.859534 282.562622 
L 80.018134 285.470832 
L 80.176734 285.255409 
L 80.335334 283.101179 
L 80.493934 287.086504 
L 80.652535 283.639736 
L 80.811135 284.393717 
L 80.969735 286.655658 
L 81.128335 284.501428 
L 81.286935 284.070582 
L 81.604136 289.025311 
L 81.921336 283.639736 
L 82.238536 291.610386 
L 82.555737 285.793966 
L 82.714337 285.901678 
L 82.872937 285.470832 
L 83.031537 285.36312 
L 83.190137 284.070582 
L 83.348737 286.871081 
L 83.507338 285.36312 
L 83.665938 289.025311 
L 83.824538 287.301927 
L 83.983138 289.240734 
L 84.141738 287.840484 
L 84.458939 283.424313 
L 84.617539 286.009389 
L 84.776139 285.686255 
L 84.934739 282.885756 
L 85.251939 288.486753 
L 85.41054 289.779291 
L 85.72774 285.039986 
L 85.88634 289.779291 
L 86.20354 283.639736 
L 86.362141 287.51735 
L 86.520741 285.147697 
L 86.679341 286.224812 
L 86.837941 289.994714 
L 87.155141 286.978793 
L 87.313742 283.639736 
L 87.789542 288.917599 
L 87.948142 284.393717 
L 88.265343 295.488 
L 88.423943 286.76337 
L 88.582543 284.393717 
L 88.741143 289.025311 
L 89.058343 285.039986 
L 89.216944 286.009389 
L 89.375544 288.809888 
L 89.534144 288.163619 
L 89.692744 285.578543 
L 89.851344 287.51735 
L 90.168545 283.747448 
L 90.327145 287.840484 
L 90.485745 285.686255 
L 90.802945 289.779291 
L 91.120146 286.117101 
L 91.595946 287.732773 
L 91.754546 285.147697 
L 91.913147 293.549193 
L 92.071747 282.239487 
L 92.230347 290.533272 
L 92.547547 281.270084 
L 92.864748 289.67158 
L 93.181948 284.824563 
L 93.499148 289.348445 
L 93.657748 288.055907 
L 93.816349 291.071829 
L 93.974949 284.932274 
L 94.133549 284.932274 
L 94.292149 287.409638 
L 94.450749 292.472078 
L 94.609349 286.978793 
L 94.76795 288.809888 
L 95.08515 283.855159 
L 95.24375 288.27133 
L 95.40235 285.147697 
L 95.56095 286.978793 
L 95.719551 283.747448 
L 95.878151 287.840484 
L 96.036751 287.301927 
L 96.195351 284.501428 
L 96.512551 289.240734 
L 96.671152 286.224812 
L 96.829752 291.179541 
L 96.988352 286.224812 
L 97.146952 288.486753 
L 97.305552 284.178294 
L 97.464152 285.578543 
L 97.781353 289.456157 
L 97.939953 289.348445 
L 98.098553 287.948196 
L 98.257153 283.855159 
L 98.415753 286.117101 
L 98.574354 286.76337 
L 98.732954 286.76337 
L 98.891554 286.978793 
L 99.050154 289.348445 
L 99.208754 285.901678 
L 99.367354 291.179541 
L 99.525955 288.379042 
L 99.684555 283.20889 
L 99.843155 283.424313 
L 100.001755 287.086504 
L 100.160355 284.178294 
L 100.318955 286.76337 
L 100.477556 287.409638 
L 100.794756 283.532025 
L 100.953356 283.962871 
L 101.270556 288.809888 
L 101.429157 287.086504 
L 101.587757 287.51735 
L 101.746357 286.332524 
L 101.904957 284.178294 
L 102.063557 289.025311 
L 102.380758 285.793966 
L 102.539358 284.501428 
L 102.697958 286.655658 
L 102.856558 294.626308 
L 103.015158 291.502675 
L 103.173758 284.60914 
L 103.332359 293.118347 
L 103.649559 287.948196 
L 103.808159 282.993467 
L 104.12536 291.394963 
L 104.28396 289.456157 
L 104.44256 290.748695 
L 104.60116 290.210137 
L 104.75976 282.993467 
L 104.91836 289.025311 
L 105.076961 287.948196 
L 105.235561 284.824563 
L 105.552761 290.42556 
L 105.711361 283.316602 
L 105.869961 292.364367 
L 106.028562 289.456157 
L 106.187162 288.917599 
L 106.345762 289.025311 
L 106.504362 285.147697 
L 106.662962 284.393717 
L 106.821562 285.901678 
L 106.980163 290.42556 
L 107.138763 284.60914 
L 107.455963 287.194215 
L 107.614563 283.20889 
L 107.773163 284.286005 
L 107.931764 283.855159 
L 108.090364 285.147697 
L 108.248964 283.101179 
L 108.407564 287.301927 
L 108.566164 281.270084 
L 108.724764 288.379042 
L 108.883365 288.27133 
L 109.041965 286.76337 
L 109.200565 282.778045 
L 109.359165 284.501428 
L 109.517765 290.102426 
L 109.676365 285.470832 
L 109.834966 291.718098 
L 109.993566 289.456157 
L 110.152166 285.147697 
L 110.310766 284.070582 
L 110.469366 289.887003 
L 110.627966 285.147697 
L 110.786567 285.686255 
L 110.945167 289.456157 
L 111.103767 279.977546 
L 111.262367 290.748695 
L 111.738168 281.485507 
L 111.896768 289.456157 
L 112.213968 285.901678 
L 112.372568 289.67158 
L 112.531168 285.793966 
L 112.689769 290.856406 
L 113.006969 283.316602 
L 113.165569 289.348445 
L 113.324169 287.194215 
L 113.482769 281.808641 
L 113.64137 286.76337 
L 113.79997 287.409638 
L 113.95857 284.60914 
L 114.11717 288.055907 
L 114.43437 283.424313 
L 114.592971 287.840484 
L 114.751571 287.840484 
L 114.910171 285.36312 
L 115.227371 287.625061 
L 115.385971 287.732773 
L 115.544572 287.51735 
L 115.703172 281.808641 
L 115.861772 284.070582 
L 116.020372 281.808641 
L 116.178972 283.639736 
L 116.337573 278.79272 
L 116.496173 284.178294 
L 116.654773 282.993467 
L 116.813373 283.639736 
L 116.971973 288.163619 
L 117.130573 286.440235 
L 117.289174 286.871081 
L 117.447774 288.163619 
L 117.606374 285.039986 
L 117.764974 286.117101 
L 117.923574 286.009389 
L 118.240775 287.625061 
L 118.399375 289.025311 
L 118.557975 281.054661 
L 118.716575 283.855159 
L 118.875175 289.133022 
L 119.033775 288.917599 
L 119.192376 289.67158 
L 119.350976 288.702176 
L 119.509576 284.501428 
L 119.668176 285.470832 
L 119.826776 283.532025 
L 119.985376 287.625061 
L 120.143977 287.51735 
L 120.461177 285.36312 
L 120.619777 282.131776 
L 120.778377 286.332524 
L 120.936977 285.578543 
L 121.095578 289.025311 
L 121.254178 288.594465 
L 121.412778 286.332524 
L 121.571378 289.025311 
L 121.729978 286.224812 
L 122.047179 290.856406 
L 122.205779 285.793966 
L 122.364379 285.255409 
L 122.522979 283.855159 
L 122.681579 285.578543 
L 122.840179 285.793966 
L 122.99878 287.51735 
L 123.15738 286.440235 
L 123.31598 288.486753 
L 123.63318 286.009389 
L 123.79178 286.655658 
L 123.950381 285.039986 
L 124.108981 286.332524 
L 124.267581 286.547947 
L 124.426181 284.070582 
L 124.584781 285.901678 
L 124.743381 289.348445 
L 124.901982 287.732773 
L 125.060582 291.825809 
L 125.219182 291.610386 
L 125.536382 283.962871 
L 125.694982 283.962871 
L 125.853583 292.472078 
L 126.012183 282.45491 
L 126.170783 291.825809 
L 126.329383 290.102426 
L 126.646583 281.485507 
L 126.805184 284.932274 
L 126.963784 284.932274 
L 127.280984 290.210137 
L 127.439584 284.824563 
L 127.598184 290.964118 
L 127.756785 291.394963 
L 128.073985 283.855159 
L 128.232585 282.993467 
L 128.391185 291.179541 
L 128.708386 282.670333 
L 128.866986 290.964118 
L 129.184186 285.793966 
L 129.501387 287.732773 
L 129.818587 281.70093 
L 129.977187 290.102426 
L 130.135787 285.793966 
L 130.294387 286.440235 
L 130.452988 288.055907 
L 130.611588 285.793966 
L 130.770188 286.655658 
L 130.928788 292.148944 
L 131.087388 284.178294 
L 131.245988 283.532025 
L 131.404589 286.117101 
L 131.880389 281.593218 
L 132.038989 285.36312 
L 132.197589 285.901678 
L 132.35619 291.610386 
L 132.51479 283.639736 
L 132.67339 288.702176 
L 132.83199 286.76337 
L 132.99059 282.670333 
L 133.307791 287.301927 
L 133.466391 288.594465 
L 133.624991 286.009389 
L 133.783591 289.994714 
L 133.942191 285.36312 
L 134.100791 288.917599 
L 134.417992 284.178294 
L 134.576592 291.071829 
L 134.735192 286.009389 
L 134.893792 289.133022 
L 135.052392 286.332524 
L 135.210993 285.578543 
L 135.369593 285.578543 
L 135.528193 287.086504 
L 135.686793 287.409638 
L 136.003993 283.639736 
L 136.321194 290.533272 
L 136.479794 290.102426 
L 136.796994 281.808641 
L 136.955594 284.932274 
L 137.114195 282.670333 
L 137.272795 286.009389 
L 137.589995 283.532025 
L 137.748595 289.563868 
L 137.907195 289.67158 
L 138.224396 286.871081 
L 138.382996 287.086504 
L 138.541596 287.840484 
L 138.700196 283.639736 
L 139.017397 287.840484 
L 139.334597 281.808641 
L 139.493197 288.27133 
L 139.651797 287.732773 
L 139.810397 286.440235 
L 139.968998 290.748695 
L 140.127598 287.948196 
L 140.286198 288.702176 
L 140.603398 283.855159 
L 140.761998 285.901678 
L 140.920599 284.501428 
L 141.079199 287.625061 
L 141.237799 287.409638 
L 141.396399 289.779291 
L 141.554999 286.547947 
L 141.7136 289.240734 
L 141.8722 282.562622 
L 142.0308 288.702176 
L 142.1894 288.917599 
L 142.348 285.578543 
L 142.5066 285.901678 
L 142.665201 287.625061 
L 142.823801 287.086504 
L 142.982401 293.549193 
L 143.141001 284.60914 
L 143.299601 289.133022 
L 143.458201 284.932274 
L 143.616802 287.948196 
L 143.775402 285.686255 
L 144.092602 287.194215 
L 144.251202 286.871081 
L 144.409802 282.670333 
L 144.727003 288.702176 
L 144.885603 282.45491 
L 145.044203 288.163619 
L 145.202803 287.409638 
L 145.361403 288.594465 
L 145.520004 288.917599 
L 145.678604 288.809888 
L 145.837204 284.60914 
L 145.995804 284.178294 
L 146.154404 288.594465 
L 146.313004 286.332524 
L 146.471605 287.732773 
L 146.630205 287.51735 
L 146.788805 288.594465 
L 146.947405 283.101179 
L 147.106005 285.470832 
L 147.264605 284.932274 
L 147.423206 287.51735 
L 147.581806 284.60914 
L 147.740406 289.348445 
L 147.899006 288.594465 
L 148.057606 284.60914 
L 148.216206 286.76337 
L 148.533407 283.962871 
L 148.692007 288.809888 
L 148.850607 284.60914 
L 149.009207 283.639736 
L 149.167807 288.809888 
L 149.326408 285.36312 
L 149.643608 287.948196 
L 149.802208 289.779291 
L 150.119408 287.51735 
L 150.278009 282.562622 
L 150.436609 292.364367 
L 150.595209 288.379042 
L 150.753809 289.348445 
L 151.071009 283.855159 
L 151.22961 288.163619 
L 151.38821 289.025311 
L 151.54681 282.562622 
L 151.86401 288.917599 
L 152.02261 285.470832 
L 152.181211 288.27133 
L 152.498411 284.824563 
L 152.657011 282.347199 
L 152.815611 287.086504 
L 152.974211 287.625061 
L 153.132812 287.625061 
L 153.291412 286.224812 
L 153.450012 283.424313 
L 153.608612 287.301927 
L 153.767212 287.301927 
L 153.925812 286.440235 
L 154.084413 283.424313 
L 154.243013 282.670333 
L 154.401613 286.871081 
L 154.560213 285.901678 
L 154.718813 288.917599 
L 154.877414 288.809888 
L 155.036014 287.732773 
L 155.194614 289.994714 
L 155.353214 284.60914 
L 155.511814 286.978793 
L 155.670414 292.472078 
L 155.829015 285.901678 
L 155.987615 288.702176 
L 156.146215 288.055907 
L 156.463415 291.071829 
L 156.622015 283.532025 
L 156.780616 283.20889 
L 156.939216 287.625061 
L 157.097816 280.408392 
L 157.256416 288.055907 
L 157.573616 283.639736 
L 157.732217 288.163619 
L 157.890817 284.070582 
L 158.208017 288.27133 
L 158.366617 287.194215 
L 158.525217 290.533272 
L 158.683818 288.594465 
L 158.842418 285.255409 
L 159.001018 284.286005 
L 159.159618 289.240734 
L 159.318218 286.76337 
L 159.476818 290.42556 
L 159.635419 289.133022 
L 159.794019 284.501428 
L 159.952619 289.456157 
L 160.111219 287.625061 
L 160.269819 288.702176 
L 160.428419 293.33377 
L 160.58702 285.36312 
L 160.90422 288.27133 
L 161.06282 291.933521 
L 161.22142 285.36312 
L 161.38002 287.301927 
L 161.538621 283.20889 
L 161.697221 284.501428 
L 161.855821 290.748695 
L 162.014421 285.686255 
L 162.173021 286.224812 
L 162.331621 282.993467 
L 162.490222 288.27133 
L 162.648822 288.702176 
L 162.807422 283.747448 
L 162.966022 289.67158 
L 163.124622 284.393717 
L 163.283222 283.101179 
L 163.441823 287.840484 
L 163.600423 282.670333 
L 164.076223 287.301927 
L 164.234823 286.978793 
L 164.393424 284.286005 
L 164.552024 287.409638 
L 164.710624 285.793966 
L 164.869224 279.977546 
L 165.027824 286.978793 
L 165.345025 285.470832 
L 165.503625 285.36312 
L 165.820825 291.071829 
L 166.138025 287.301927 
L 166.296626 281.916353 
L 166.455226 288.486753 
L 166.613826 287.732773 
L 166.772426 287.948196 
L 166.931026 287.194215 
L 167.089627 283.424313 
L 167.248227 285.470832 
L 167.406827 290.317849 
L 167.565427 286.547947 
L 167.724027 288.27133 
L 167.882627 283.424313 
L 168.041228 286.440235 
L 168.199828 287.086504 
L 168.517028 282.885756 
L 168.675628 286.978793 
L 168.834228 279.008142 
L 168.992829 287.194215 
L 169.151429 281.485507 
L 169.468629 286.978793 
L 169.627229 282.45491 
L 169.785829 289.456157 
L 169.94443 286.440235 
L 170.10303 289.563868 
L 170.26163 283.532025 
L 170.42023 287.840484 
L 170.57883 284.286005 
L 170.73743 287.086504 
L 170.896031 285.36312 
L 171.213231 288.163619 
L 171.530431 287.625061 
L 171.689031 288.379042 
L 171.847632 290.964118 
L 172.006232 281.054661 
L 172.164832 287.301927 
L 172.323432 286.76337 
L 172.482032 290.748695 
L 172.640632 285.36312 
L 172.799233 286.009389 
L 172.957833 288.163619 
L 173.116433 288.055907 
L 173.275033 286.655658 
L 173.433633 289.025311 
L 173.750834 282.670333 
L 173.909434 283.101179 
L 174.068034 292.041232 
L 174.226634 290.964118 
L 174.385234 286.009389 
L 174.543834 288.702176 
L 174.702435 281.916353 
L 175.019635 288.702176 
L 175.178235 288.486753 
L 175.336835 282.131776 
L 175.495435 290.102426 
L 175.654036 290.210137 
L 175.812636 290.640983 
L 175.971236 289.887003 
L 176.129836 285.686255 
L 176.288436 289.133022 
L 176.447036 284.178294 
L 176.605637 287.086504 
L 176.922837 280.946949 
L 177.081437 287.194215 
L 177.240037 287.194215 
L 177.398637 285.901678 
L 177.557238 288.486753 
L 177.715838 285.36312 
L 177.874438 284.501428 
L 178.033038 288.702176 
L 178.191638 283.424313 
L 178.350238 286.76337 
L 178.508839 285.686255 
L 178.667439 290.102426 
L 178.826039 286.76337 
L 178.984639 287.301927 
L 179.143239 282.347199 
L 179.301839 285.36312 
L 179.46044 282.024064 
L 179.61904 291.394963 
L 179.77764 286.224812 
L 180.253441 290.102426 
L 180.412041 282.347199 
L 180.570641 284.178294 
L 180.729241 289.994714 
L 181.046441 287.086504 
L 181.205042 287.194215 
L 181.363642 284.716851 
L 181.522242 288.163619 
L 181.680842 287.948196 
L 181.839442 292.687501 
L 181.998042 284.501428 
L 182.156643 287.301927 
L 182.315243 286.871081 
L 182.473843 284.501428 
L 182.949643 290.856406 
L 183.108244 286.440235 
L 183.266844 285.578543 
L 183.425444 286.117101 
L 183.584044 285.255409 
L 183.742644 288.486753 
L 183.901244 285.255409 
L 184.059845 285.039986 
L 184.218445 287.194215 
L 184.535645 284.393717 
L 184.694245 288.486753 
L 184.852845 286.547947 
L 185.011446 286.547947 
L 185.170046 289.025311 
L 185.328646 283.532025 
L 185.487246 288.594465 
L 185.645846 288.163619 
L 185.804446 281.162372 
L 185.963047 287.194215 
L 186.121647 285.793966 
L 186.280247 282.778045 
L 186.438847 286.655658 
L 186.597447 284.60914 
L 186.756047 285.255409 
L 186.914648 288.379042 
L 187.073248 285.686255 
L 187.390448 288.163619 
L 187.549048 286.117101 
L 187.707648 286.009389 
L 187.866249 288.809888 
L 188.024849 286.76337 
L 188.183449 286.978793 
L 188.342049 283.101179 
L 188.500649 287.732773 
L 188.659249 283.855159 
L 188.81785 285.901678 
L 188.97645 283.316602 
L 189.13505 285.36312 
L 189.29365 281.485507 
L 189.45225 286.978793 
L 189.61085 284.178294 
L 189.928051 291.071829 
L 190.086651 286.547947 
L 190.245251 290.640983 
L 190.562451 284.178294 
L 190.721052 286.224812 
L 190.879652 282.562622 
L 191.038252 282.562622 
L 191.196852 282.347199 
L 191.355452 287.301927 
L 191.514052 287.625061 
L 191.672653 286.332524 
L 191.831253 286.009389 
L 191.989853 289.348445 
L 192.307053 283.20889 
L 192.465654 290.102426 
L 192.624254 290.856406 
L 192.782854 287.625061 
L 193.100054 290.102426 
L 193.258654 290.317849 
L 193.417255 282.562622 
L 193.575855 283.747448 
L 193.893055 281.916353 
L 194.051655 284.501428 
L 194.210255 291.933521 
L 194.527456 285.901678 
L 194.686056 281.916353 
L 194.844656 284.501428 
L 195.003256 290.533272 
L 195.161856 286.547947 
L 195.479057 287.194215 
L 195.637657 289.779291 
L 195.796257 288.163619 
L 195.954857 285.255409 
L 196.113457 289.779291 
L 196.272058 284.824563 
L 196.430658 284.286005 
L 196.589258 289.240734 
L 196.747858 285.686255 
L 196.906458 291.179541 
L 197.065058 287.194215 
L 197.223659 288.809888 
L 197.382259 286.009389 
L 197.540859 288.917599 
L 197.699459 284.60914 
L 197.858059 287.51735 
L 198.17526 285.36312 
L 198.33386 288.055907 
L 198.49246 286.224812 
L 198.65106 290.640983 
L 198.80966 286.76337 
L 198.96826 289.240734 
L 199.126861 286.440235 
L 199.285461 286.655658 
L 199.444061 285.793966 
L 199.602661 282.45491 
L 199.761261 291.825809 
L 199.919861 289.887003 
L 200.078462 290.317849 
L 200.237062 284.070582 
L 200.395662 292.148944 
L 200.712862 284.60914 
L 200.871462 285.901678 
L 201.030063 289.025311 
L 201.188663 288.594465 
L 201.347263 292.256655 
L 201.505863 287.409638 
L 201.664463 287.948196 
L 201.823063 291.071829 
L 201.981664 285.36312 
L 202.140264 288.809888 
L 202.298864 285.147697 
L 202.457464 288.594465 
L 202.616064 288.379042 
L 202.774664 288.917599 
L 202.933265 285.793966 
L 203.091865 290.42556 
L 203.250465 290.42556 
L 203.409065 291.071829 
L 203.567665 286.117101 
L 203.726265 286.224812 
L 203.884866 284.070582 
L 204.043466 283.639736 
L 204.202066 288.055907 
L 204.360666 287.086504 
L 204.519266 283.532025 
L 204.677867 286.547947 
L 204.836467 286.009389 
L 204.995067 290.317849 
L 205.153667 285.793966 
L 205.312267 287.948196 
L 205.470867 283.316602 
L 205.629468 290.856406 
L 205.788068 285.147697 
L 205.946668 286.224812 
L 206.105268 286.117101 
L 206.263868 287.409638 
L 206.422468 294.949443 
L 206.581069 287.625061 
L 206.739669 289.67158 
L 206.898269 286.978793 
L 207.056869 291.933521 
L 207.215469 286.76337 
L 207.374069 290.102426 
L 207.53267 289.456157 
L 207.69127 285.578543 
L 208.16707 291.825809 
L 208.32567 286.655658 
L 208.484271 291.502675 
L 208.642871 282.562622 
L 208.801471 288.486753 
L 208.960071 286.978793 
L 209.118671 283.20889 
L 209.277271 287.840484 
L 209.435872 282.347199 
L 209.594472 288.27133 
L 209.753072 285.793966 
L 209.911672 289.563868 
L 210.070272 286.440235 
L 210.546073 287.301927 
L 210.704673 288.486753 
L 210.863273 288.702176 
L 211.021873 288.055907 
L 211.180473 288.594465 
L 211.339074 281.485507 
L 211.656274 288.27133 
L 211.814874 282.562622 
L 211.973474 285.255409 
L 212.132074 285.793966 
L 212.290675 283.424313 
L 212.449275 286.009389 
L 212.607875 283.855159 
L 212.766475 287.409638 
L 212.925075 287.301927 
L 213.083675 281.162372 
L 213.400876 290.856406 
L 213.559476 283.747448 
L 213.718076 283.101179 
L 213.876676 284.286005 
L 214.035276 294.949443 
L 214.193877 282.131776 
L 214.352477 282.885756 
L 214.511077 282.239487 
L 214.669677 285.686255 
L 214.828277 282.562622 
L 214.986877 288.594465 
L 215.462678 284.824563 
L 215.621278 290.210137 
L 215.779878 289.456157 
L 215.938478 286.978793 
L 216.097079 286.978793 
L 216.255679 278.685008 
L 216.414279 282.347199 
L 216.572879 288.917599 
L 216.731479 284.716851 
L 217.04868 290.964118 
L 217.20728 279.869834 
L 217.36588 286.978793 
L 217.52448 288.917599 
L 217.841681 282.670333 
L 218.000281 287.51735 
L 218.158881 286.009389 
L 218.317481 286.655658 
L 218.476081 284.932274 
L 218.793282 288.486753 
L 218.951882 283.101179 
L 219.110482 285.793966 
L 219.269082 284.178294 
L 219.427682 288.486753 
L 219.586282 288.379042 
L 219.744883 286.655658 
L 219.903483 290.640983 
L 220.062083 284.716851 
L 220.220683 283.424313 
L 220.379283 286.76337 
L 220.537883 284.393717 
L 220.696484 279.008142 
L 220.855084 288.27133 
L 221.013684 289.133022 
L 221.172284 284.286005 
L 221.330884 288.917599 
L 221.489484 288.163619 
L 221.648085 290.856406 
L 221.965285 286.547947 
L 222.123885 288.594465 
L 222.282485 287.625061 
L 222.441085 280.946949 
L 222.599686 284.501428 
L 222.758286 284.286005 
L 223.075486 290.533272 
L 223.234086 286.117101 
L 223.392686 284.824563 
L 223.551287 285.039986 
L 223.709887 288.486753 
L 224.185687 286.76337 
L 224.344287 285.578543 
L 224.502888 291.287252 
L 224.661488 289.994714 
L 224.978688 282.562622 
L 225.137288 287.948196 
L 225.454489 290.102426 
L 225.771689 279.331277 
L 225.930289 289.240734 
L 226.088889 285.686255 
L 226.247489 287.086504 
L 226.40609 286.547947 
L 226.56469 287.51735 
L 226.88189 284.070582 
L 227.04049 285.901678 
L 227.19909 285.578543 
L 227.357691 285.578543 
L 227.516291 283.532025 
L 227.833491 289.563868 
L 227.992091 289.887003 
L 228.150691 283.424313 
L 228.467892 288.055907 
L 228.785092 283.424313 
L 228.943692 289.563868 
L 229.102292 282.347199 
L 229.260893 288.163619 
L 229.419493 283.532025 
L 229.578093 287.625061 
L 229.736693 287.625061 
L 230.053894 283.101179 
L 230.212494 284.286005 
L 230.371094 283.424313 
L 230.529694 291.394963 
L 230.688294 286.224812 
L 230.846894 290.964118 
L 231.005495 290.748695 
L 231.164095 286.332524 
L 231.322695 285.36312 
L 231.481295 281.270084 
L 231.639895 289.67158 
L 231.957096 285.686255 
L 232.115696 285.686255 
L 232.274296 285.147697 
L 232.591496 282.778045 
L 232.750096 284.932274 
L 232.908697 284.932274 
L 233.067297 290.533272 
L 233.225897 285.255409 
L 233.384497 283.747448 
L 233.543097 279.869834 
L 233.701697 289.240734 
L 234.018898 279.115854 
L 234.177498 286.655658 
L 234.336098 278.469585 
L 234.653298 286.978793 
L 234.970499 281.70093 
L 235.129099 284.60914 
L 235.287699 282.024064 
L 235.446299 282.885756 
L 235.604899 279.977546 
L 235.7635 289.456157 
L 236.2393 281.377795 
L 236.3979 279.008142 
L 236.5565 283.747448 
L 236.715101 282.670333 
L 236.873701 280.30068 
L 237.032301 285.470832 
L 237.190901 286.440235 
L 237.349501 278.79272 
L 237.508101 278.254162 
L 237.666702 279.654411 
L 237.825302 283.424313 
L 237.983902 271.037492 
L 238.142502 280.192969 
L 238.301102 274.376549 
L 238.459702 278.038739 
L 238.618303 276.746201 
L 238.776903 278.577297 
L 238.935503 278.79272 
L 239.094103 277.39247 
L 239.252703 277.39247 
L 239.411303 276.530778 
L 239.569904 271.360627 
L 239.728504 278.685008 
L 239.887104 275.453663 
L 240.045704 276.207644 
L 240.204304 279.762123 
L 240.362904 275.345952 
L 240.521505 275.130529 
L 240.680105 270.283512 
L 240.997305 279.977546 
L 241.155905 275.23824 
L 241.314505 273.945703 
L 241.473106 275.453663 
L 241.631706 268.883263 
L 241.790306 268.66784 
L 241.948906 272.868588 
L 242.107506 271.683761 
L 242.266106 272.222319 
L 242.424707 270.822069 
L 242.583307 272.868588 
L 242.741907 268.021571 
L 242.900507 269.206397 
L 243.059107 269.529532 
L 243.217708 264.251669 
L 243.376308 269.637243 
L 243.693508 263.713111 
L 243.852108 268.236994 
L 244.010708 266.944456 
L 244.169309 261.020324 
L 244.486509 262.743708 
L 244.645109 262.528285 
L 244.803709 266.298187 
L 244.962309 261.882016 
L 245.12091 261.020324 
L 245.27951 256.604153 
L 245.43811 257.034999 
L 245.59671 262.528285 
L 245.75531 256.173307 
L 245.91391 255.419327 
L 246.072511 258.112114 
L 246.231111 257.034999 
L 246.865511 240.555142 
L 247.024112 247.771811 
L 247.182712 240.44743 
L 247.341312 247.556388 
L 247.499912 240.232007 
L 247.658512 240.770565 
L 247.817112 234.415587 
L 247.975713 237.431508 
L 248.134313 232.47678 
L 248.292913 234.092452 
L 248.451513 236.892951 
L 248.610113 228.922301 
L 248.768713 229.56857 
L 248.927314 229.030012 
L 249.085914 224.613841 
L 249.244514 224.075284 
L 249.561714 217.397172 
L 249.720314 210.503637 
L 250.037515 213.196424 
L 250.196115 204.25637 
L 250.354715 204.25637 
L 250.513315 204.794928 
L 250.671915 190.792435 
L 250.830516 197.039701 
L 250.989116 197.039701 
L 251.147716 187.884224 
L 251.306316 192.731241 
L 251.623516 181.960093 
L 251.782117 181.636958 
L 252.099317 170.327252 
L 252.257917 171.512078 
L 252.575117 162.033467 
L 252.733718 152.77028 
L 252.892318 150.077492 
L 253.050918 161.49491 
L 253.209518 145.445898 
L 253.368118 146.738436 
L 253.526718 140.060324 
L 253.685319 142.106842 
L 253.843919 122.072506 
L 254.002519 128.427484 
L 254.161119 121.318525 
L 254.319719 127.350369 
L 254.478319 116.57922 
L 254.63692 116.256085 
L 254.79552 105.484937 
L 254.95412 106.777475 
L 255.11272 102.79215 
L 255.27132 103.330707 
L 255.588521 98.914536 
L 255.747121 91.26702 
L 255.905721 90.943886 
L 256.222921 79.418757 
L 256.381522 80.38816 
L 256.540122 75.218009 
L 256.698722 75.756566 
L 256.857322 68.324474 
L 257.333123 73.925471 
L 257.650323 58.415017 
L 257.808923 65.954821 
L 257.967523 59.492132 
L 258.126123 65.84711 
L 258.284724 54.429692 
L 258.443324 58.415017 
L 258.601924 53.568 
L 258.760524 66.385667 
L 258.919124 66.277955 
L 259.077724 59.061286 
L 259.236325 62.077207 
L 259.553525 54.32198 
L 260.029325 70.909549 
L 260.346526 64.339149 
L 260.505126 81.680698 
L 260.663726 71.555818 
L 260.822326 78.341642 
L 261.139527 82.219256 
L 261.298127 78.664776 
L 261.456727 94.929211 
L 261.615327 86.420004 
L 261.773927 86.635427 
L 261.932527 90.728463 
L 262.091128 98.699113 
L 262.249728 100.853343 
L 262.408328 99.237671 
L 262.566928 109.039416 
L 262.725528 95.683191 
L 262.884128 107.316032 
L 263.042729 108.500858 
L 263.201329 115.502105 
L 263.359929 113.67101 
L 263.518529 117.548623 
L 263.835729 128.858329 
L 263.99433 128.427484 
L 264.15293 142.968534 
L 264.47013 147.815551 
L 264.62873 147.70784 
L 264.78733 143.937938 
L 264.945931 151.693165 
L 265.104531 151.477742 
L 265.263131 157.401874 
L 265.421731 167.957599 
L 265.580331 161.710333 
L 265.738931 163.64914 
L 265.897532 169.250137 
L 266.056132 165.911081 
L 266.214732 165.80337 
L 266.531932 183.898899 
L 266.849133 178.621037 
L 267.007733 190.253877 
L 267.166333 187.237955 
L 267.324933 193.485222 
L 267.483533 194.885471 
L 267.642133 199.409354 
L 267.800734 199.840199 
L 267.959334 196.824278 
L 268.117934 204.040947 
L 268.276534 204.148659 
L 268.435134 209.749656 
L 268.593735 206.841446 
L 268.752335 217.612595 
L 268.910935 212.657866 
L 269.069535 221.167074 
L 269.228135 218.68971 
L 269.386735 220.197671 
L 269.703936 230.861108 
L 269.862536 230.537973 
L 270.021136 229.56857 
L 270.179736 234.846433 
L 270.338336 228.491455 
L 270.655537 233.984741 
L 270.972737 238.831758 
L 271.131337 236.354394 
L 271.448538 243.894198 
L 271.607138 247.987234 
L 271.765738 242.063102 
L 271.924338 249.602907 
L 272.241538 248.633503 
L 272.400139 247.987234 
L 272.558739 258.435248 
L 272.717339 250.141464 
L 272.875939 253.911366 
L 273.034539 252.511117 
L 273.193139 254.449923 
L 273.35174 254.557635 
L 273.51034 258.650671 
L 273.66894 256.927288 
L 273.82754 257.358134 
L 273.98614 267.806148 
L 274.14474 255.203904 
L 274.303341 261.343459 
L 274.461941 260.69719 
L 274.620541 265.867341 
L 274.779141 266.944456 
L 275.096341 264.574803 
L 275.254942 265.75963 
L 275.413542 265.544207 
L 275.730742 265.975053 
L 276.047942 274.591972 
L 276.365143 274.807394 
L 276.523743 273.837991 
L 276.682343 274.48426 
L 276.840943 275.776798 
L 276.999543 275.669086 
L 277.158144 272.976299 
L 277.475344 276.961624 
L 277.633944 273.622568 
L 277.792544 276.746201 
L 277.951144 275.992221 
L 278.109745 276.099932 
L 278.268345 277.931028 
L 278.426945 274.268837 
L 278.902745 283.424313 
L 279.061346 276.961624 
L 279.219946 276.961624 
L 279.378546 279.5467 
L 279.537146 276.961624 
L 279.695746 281.377795 
L 279.854346 281.916353 
L 280.012947 283.855159 
L 280.330147 275.022817 
L 280.647347 282.885756 
L 280.805948 281.916353 
L 280.964548 284.932274 
L 281.123148 285.039986 
L 281.281748 279.438988 
L 281.598948 288.809888 
L 281.757549 278.254162 
L 281.916149 282.778045 
L 282.074749 282.131776 
L 282.233349 277.931028 
L 282.391949 284.716851 
L 282.550549 285.686255 
L 282.70915 281.270084 
L 282.86775 281.485507 
L 283.02635 280.839238 
L 283.34355 284.070582 
L 283.50215 280.839238 
L 283.660751 283.424313 
L 283.977951 281.916353 
L 284.136551 289.887003 
L 284.295151 280.516103 
L 284.453751 285.36312 
L 284.612352 283.639736 
L 284.770952 287.086504 
L 284.929552 283.424313 
L 285.088152 285.36312 
L 285.246752 285.901678 
L 285.405352 283.532025 
L 285.722553 288.486753 
L 286.039753 282.45491 
L 286.198353 283.855159 
L 286.356953 283.962871 
L 286.515554 284.716851 
L 286.674154 287.840484 
L 286.991354 286.547947 
L 287.308554 285.686255 
L 287.467155 282.347199 
L 287.625755 288.809888 
L 287.784355 279.869834 
L 288.101555 286.871081 
L 288.260155 281.593218 
L 288.418756 283.962871 
L 288.735956 282.347199 
L 289.053156 288.702176 
L 289.211756 283.532025 
L 289.528957 288.809888 
L 289.687557 287.948196 
L 289.846157 288.486753 
L 290.004757 282.347199 
L 290.163357 286.547947 
L 290.480558 284.60914 
L 290.639158 281.485507 
L 290.797758 293.980039 
L 291.114958 286.009389 
L 291.273559 287.625061 
L 291.432159 282.778045 
L 291.590759 286.224812 
L 291.749359 283.855159 
L 291.907959 289.887003 
L 292.066559 284.501428 
L 292.22516 284.716851 
L 292.38376 287.409638 
L 292.54236 285.470832 
L 292.70096 290.640983 
L 293.018161 283.424313 
L 293.493961 290.210137 
L 293.652561 285.147697 
L 293.811161 284.932274 
L 293.969762 292.687501 
L 294.128362 285.039986 
L 294.286962 288.702176 
L 294.445562 287.948196 
L 294.604162 284.824563 
L 294.762762 287.301927 
L 294.921363 287.194215 
L 295.079963 279.438988 
L 295.238563 288.486753 
L 295.555763 282.347199 
L 295.714363 284.501428 
L 295.872964 288.809888 
L 296.031564 286.978793 
L 296.190164 289.563868 
L 296.348764 286.440235 
L 296.824565 289.456157 
L 296.983165 285.686255 
L 297.141765 285.147697 
L 297.300365 285.147697 
L 297.458965 288.055907 
L 297.617565 285.147697 
L 297.776166 289.133022 
L 297.934766 285.470832 
L 298.093366 286.224812 
L 298.410566 284.932274 
L 298.569166 288.486753 
L 298.727767 289.025311 
L 298.886367 291.502675 
L 299.044967 281.270084 
L 299.203567 282.131776 
L 299.362167 286.871081 
L 299.679368 285.039986 
L 299.837968 289.67158 
L 299.996568 287.51735 
L 300.155168 287.086504 
L 300.313768 285.255409 
L 300.472368 282.024064 
L 300.630969 283.747448 
L 300.789569 283.101179 
L 301.265369 287.732773 
L 301.423969 281.270084 
L 301.58257 289.994714 
L 301.74117 284.824563 
L 301.89977 286.440235 
L 302.21697 282.239487 
L 302.37557 282.45491 
L 302.534171 291.394963 
L 302.692771 282.239487 
L 302.851371 286.009389 
L 303.009971 283.316602 
L 303.327171 287.625061 
L 303.485772 284.393717 
L 303.644372 289.025311 
L 303.802972 286.871081 
L 303.961572 288.809888 
L 304.120172 285.147697 
L 304.278772 289.887003 
L 304.437373 288.379042 
L 304.595973 289.348445 
L 304.754573 284.286005 
L 304.913173 290.640983 
L 305.230373 285.039986 
L 305.388974 288.486753 
L 305.547574 284.824563 
L 305.706174 286.871081 
L 305.864774 283.747448 
L 306.023374 290.533272 
L 306.340575 285.470832 
L 306.499175 287.948196 
L 306.657775 286.224812 
L 306.816375 288.163619 
L 306.974975 287.948196 
L 307.133576 288.055907 
L 307.292176 285.470832 
L 307.609376 285.039986 
L 307.767976 290.964118 
L 307.926576 287.625061 
L 308.085177 281.270084 
L 308.243777 284.932274 
L 308.560977 286.547947 
L 308.719577 288.917599 
L 308.878177 289.133022 
L 309.036778 286.978793 
L 309.353978 287.086504 
L 309.512578 286.547947 
L 309.671178 283.747448 
L 309.829778 292.57979 
L 309.988379 283.424313 
L 310.146979 291.179541 
L 310.305579 285.901678 
L 310.464179 289.240734 
L 310.622779 284.716851 
L 310.781379 294.73402 
L 310.93998 280.839238 
L 311.09858 290.748695 
L 311.25718 287.51735 
L 311.41578 287.840484 
L 311.57438 290.317849 
L 311.73298 282.347199 
L 311.891581 284.178294 
L 312.050181 287.948196 
L 312.208781 286.009389 
L 312.367381 282.024064 
L 312.843182 293.656905 
L 313.001782 289.025311 
L 313.160382 292.795213 
L 313.477582 280.623815 
L 313.636182 287.086504 
L 313.794783 288.486753 
L 313.953383 281.808641 
L 314.111983 287.409638 
L 314.270583 288.055907 
L 314.429183 287.625061 
L 314.587783 284.393717 
L 314.746384 286.332524 
L 315.063584 281.485507 
L 315.222184 282.131776 
L 315.380784 286.547947 
L 315.539384 285.255409 
L 315.697985 288.163619 
L 315.856585 288.27133 
L 316.015185 284.178294 
L 316.173785 284.716851 
L 316.332385 287.086504 
L 316.490985 283.20889 
L 316.649586 287.51735 
L 316.808186 283.962871 
L 316.966786 285.578543 
L 317.125386 290.317849 
L 317.442586 286.871081 
L 317.601187 287.51735 
L 317.759787 291.610386 
L 317.918387 284.501428 
L 318.076987 291.610386 
L 318.235587 286.978793 
L 318.394188 289.994714 
L 318.552788 283.20889 
L 318.869988 289.456157 
L 319.028588 283.424313 
L 319.345789 287.301927 
L 319.504389 288.486753 
L 319.821589 286.440235 
L 319.980189 282.885756 
L 320.138789 286.547947 
L 320.29739 286.76337 
L 320.61459 284.286005 
L 320.77319 284.60914 
L 320.93179 292.364367 
L 321.09039 284.501428 
L 321.248991 291.179541 
L 321.407591 288.702176 
L 321.566191 289.563868 
L 321.724791 284.60914 
L 321.883391 287.301927 
L 322.041991 286.547947 
L 322.200592 283.747448 
L 322.359192 288.809888 
L 322.517792 289.887003 
L 322.676392 281.808641 
L 322.834992 288.809888 
L 322.993592 290.317849 
L 323.310793 285.36312 
L 323.627993 289.240734 
L 323.786593 288.594465 
L 323.945193 283.962871 
L 324.103794 284.393717 
L 324.262394 291.502675 
L 324.420994 288.27133 
L 324.579594 288.27133 
L 324.738194 283.639736 
L 325.055395 286.332524 
L 325.213995 283.20889 
L 325.372595 286.440235 
L 325.531195 282.131776 
L 325.689795 287.194215 
L 325.848395 282.024064 
L 326.006996 283.532025 
L 326.165596 287.086504 
L 326.324196 282.024064 
L 326.641396 290.533272 
L 326.799996 289.779291 
L 326.958597 293.872328 
L 327.117197 286.978793 
L 327.275797 292.902924 
L 327.434397 284.178294 
L 327.751597 291.394963 
L 328.068798 280.946949 
L 328.227398 286.440235 
L 328.385998 286.871081 
L 328.544598 289.133022 
L 328.703198 289.67158 
L 328.861799 288.163619 
L 329.020399 288.702176 
L 329.178999 285.686255 
L 329.337599 289.240734 
L 329.496199 289.563868 
L 329.654799 288.486753 
L 329.8134 289.779291 
L 329.972 285.36312 
L 330.1306 289.779291 
L 330.2892 283.101179 
L 330.6064 287.732773 
L 330.765001 287.51735 
L 331.082201 283.532025 
L 331.240801 293.118347 
L 331.558002 282.885756 
L 331.716602 285.578543 
L 331.875202 285.793966 
L 332.033802 288.163619 
L 332.192402 284.286005 
L 332.351002 289.456157 
L 332.509603 285.039986 
L 332.668203 284.393717 
L 332.826803 284.286005 
L 332.985403 282.131776 
L 333.144003 284.286005 
L 333.302603 289.240734 
L 333.461204 288.917599 
L 333.619804 290.42556 
L 333.778404 289.240734 
L 333.937004 286.978793 
L 334.095604 282.45491 
L 334.412805 293.118347 
L 334.571405 285.36312 
L 334.730005 286.224812 
L 334.888605 290.533272 
L 335.047205 283.20889 
L 335.205805 289.456157 
L 335.364406 283.962871 
L 335.523006 288.379042 
L 335.681606 286.332524 
L 335.840206 289.240734 
L 335.998806 289.133022 
L 336.157406 283.424313 
L 336.474607 288.163619 
L 336.633207 288.486753 
L 336.791807 289.240734 
L 336.950407 286.117101 
L 337.109007 286.332524 
L 337.267608 289.456157 
L 337.426208 283.639736 
L 337.584808 284.716851 
L 337.743408 287.086504 
L 337.902008 282.885756 
L 338.060608 287.409638 
L 338.219209 286.547947 
L 338.377809 291.718098 
L 338.536409 288.163619 
L 338.695009 291.502675 
L 339.012209 283.962871 
L 339.17081 291.933521 
L 339.32941 281.162372 
L 339.48801 286.117101 
L 339.64661 286.224812 
L 339.80521 286.547947 
L 339.96381 293.010636 
L 340.439611 284.824563 
L 340.598211 285.36312 
L 340.756811 292.472078 
L 340.915411 284.60914 
L 341.074012 284.716851 
L 341.232612 284.178294 
L 341.391212 282.670333 
L 341.549812 288.594465 
L 341.708412 286.655658 
L 341.867012 283.101179 
L 342.025613 290.640983 
L 342.342813 286.871081 
L 342.501413 287.194215 
L 342.660013 291.502675 
L 342.818613 284.070582 
L 342.977214 288.055907 
L 343.135814 288.702176 
L 343.294414 288.27133 
L 343.453014 284.070582 
L 343.611614 288.809888 
L 343.770215 286.009389 
L 343.928815 288.809888 
L 344.087415 280.839238 
L 344.246015 287.732773 
L 344.404615 283.747448 
L 344.563215 288.055907 
L 344.880416 284.716851 
L 345.039016 287.840484 
L 345.197616 285.686255 
L 345.356216 289.779291 
L 345.514816 283.962871 
L 345.832017 285.36312 
L 346.149217 291.071829 
L 346.307817 285.470832 
L 346.466417 287.948196 
L 346.625018 283.747448 
L 346.783618 287.732773 
L 346.942218 281.916353 
L 347.100818 288.379042 
L 347.259418 281.270084 
L 347.418018 285.36312 
L 347.576619 286.117101 
L 347.735219 289.348445 
L 347.893819 285.255409 
L 348.052419 284.501428 
L 348.369619 290.640983 
L 348.52822 283.101179 
L 348.68682 289.348445 
L 348.84542 284.178294 
L 349.00402 291.071829 
L 349.32122 281.485507 
L 349.638421 288.163619 
L 349.797021 290.640983 
L 349.955621 280.408392 
L 350.114221 289.887003 
L 350.272821 284.60914 
L 350.431422 287.625061 
L 350.748622 281.377795 
L 350.907222 289.240734 
L 351.065822 284.824563 
L 351.224422 286.76337 
L 351.383023 286.655658 
L 351.541623 290.102426 
L 351.700223 280.516103 
L 351.858823 281.377795 
L 352.017423 287.948196 
L 352.176023 289.67158 
L 352.334624 285.039986 
L 352.493224 288.917599 
L 352.651824 287.194215 
L 352.810424 287.948196 
L 352.969024 282.778045 
L 353.127624 287.194215 
L 353.444825 281.377795 
L 353.762025 286.547947 
L 353.920625 287.194215 
L 354.079225 289.240734 
L 354.237826 283.639736 
L 354.396426 292.57979 
L 354.555026 284.60914 
L 354.713626 284.178294 
L 354.872226 287.948196 
L 355.030826 286.440235 
L 355.189427 287.301927 
L 355.348027 286.871081 
L 355.506627 287.732773 
L 355.665227 286.547947 
L 355.823827 283.639736 
L 356.141028 284.60914 
L 356.299628 284.070582 
L 356.458228 293.010636 
L 356.616828 288.27133 
L 356.775428 291.502675 
L 357.092629 286.547947 
L 357.251229 279.654411 
L 357.409829 286.978793 
L 357.568429 286.440235 
L 357.727029 287.732773 
L 357.88563 285.578543 
L 358.04423 280.839238 
L 358.20283 282.993467 
L 358.52003 290.317849 
L 358.67863 287.625061 
L 358.837231 290.640983 
L 358.995831 284.070582 
L 359.154431 283.855159 
L 359.313031 281.485507 
L 359.471631 282.024064 
L 359.630231 285.793966 
L 359.788832 284.070582 
L 360.106032 285.793966 
L 360.264632 285.36312 
L 360.423232 286.117101 
L 360.581832 291.287252 
L 360.899033 283.639736 
L 361.057633 286.547947 
L 361.216233 282.670333 
L 361.374833 285.470832 
L 361.533433 284.824563 
L 361.692034 285.039986 
L 361.850634 287.086504 
L 362.009234 286.655658 
L 362.167834 288.594465 
L 362.326434 285.147697 
L 362.485034 284.393717 
L 362.643635 289.67158 
L 362.802235 285.578543 
L 362.960835 285.686255 
L 363.119435 286.224812 
L 363.278035 292.687501 
L 363.595236 286.224812 
L 363.753836 288.27133 
L 363.912436 286.76337 
L 364.229636 286.871081 
L 364.388236 280.30068 
L 364.705437 288.809888 
L 364.864037 286.224812 
L 365.022637 286.009389 
L 365.181237 283.855159 
L 365.339837 287.409638 
L 365.498438 283.855159 
L 365.657038 287.086504 
L 365.815638 283.962871 
L 365.974238 284.393717 
L 366.132838 290.102426 
L 366.291438 287.51735 
L 366.450039 289.456157 
L 366.608639 285.255409 
L 366.767239 286.224812 
L 366.925839 285.147697 
L 367.084439 291.502675 
L 367.243039 285.039986 
L 367.56024 284.393717 
L 367.71884 287.625061 
L 367.87744 285.255409 
L 368.03604 288.27133 
L 368.19464 285.36312 
L 368.353241 288.594465 
L 368.511841 288.055907 
L 368.670441 283.962871 
L 368.829041 289.348445 
L 368.987641 287.301927 
L 369.146242 288.27133 
L 369.304842 283.101179 
L 369.463442 288.055907 
L 369.622042 279.869834 
L 369.780642 283.639736 
L 369.939242 283.639736 
L 370.097843 288.594465 
L 370.256443 287.086504 
L 370.415043 289.025311 
L 370.573643 289.133022 
L 370.732243 292.57979 
L 371.049444 287.301927 
L 371.208044 291.394963 
L 371.366644 289.456157 
L 371.525244 294.195462 
L 371.842444 285.147697 
L 372.001045 285.147697 
L 372.159645 289.456157 
L 372.318245 284.501428 
L 372.476845 287.625061 
L 372.635445 288.27133 
L 372.794045 288.055907 
L 372.952646 287.51735 
L 373.111246 288.379042 
L 373.269846 289.887003 
L 373.587046 284.501428 
L 373.745646 284.393717 
L 373.904247 283.424313 
L 374.221447 287.840484 
L 374.380047 286.547947 
L 374.697247 291.610386 
L 374.855848 290.856406 
L 375.014448 284.824563 
L 375.173048 293.872328 
L 375.331648 289.133022 
L 375.490248 290.856406 
L 375.807449 283.962871 
L 376.283249 290.42556 
L 376.441849 279.654411 
L 376.75905 286.871081 
L 376.91765 287.948196 
L 377.07625 290.640983 
L 377.23485 284.824563 
L 377.39345 286.871081 
L 377.55205 279.5467 
L 377.710651 287.840484 
L 377.869251 286.117101 
L 378.027851 287.625061 
L 378.186451 286.009389 
L 378.345051 289.563868 
L 378.662252 283.532025 
L 378.820852 285.686255 
L 378.979452 283.532025 
L 379.138052 286.547947 
L 379.296652 285.039986 
L 379.455252 281.593218 
L 379.613853 281.270084 
L 379.772453 286.76337 
L 379.931053 288.27133 
L 380.089653 286.655658 
L 380.248253 289.887003 
L 380.406853 279.762123 
L 380.565454 289.025311 
L 380.724054 286.117101 
L 380.882654 291.179541 
L 381.041254 281.054661 
L 381.199854 292.041232 
L 381.358455 291.179541 
L 381.517055 279.977546 
L 381.675655 287.625061 
L 381.834255 286.978793 
L 381.992855 282.778045 
L 382.151455 283.747448 
L 382.310056 279.438988 
L 382.627256 290.640983 
L 382.785856 282.45491 
L 382.944456 287.301927 
L 383.103056 283.316602 
L 383.261657 288.379042 
L 383.420257 281.593218 
L 383.578857 290.856406 
L 383.737457 284.286005 
L 383.896057 286.440235 
L 384.054657 284.070582 
L 384.213258 288.917599 
L 384.530458 285.793966 
L 384.689058 286.76337 
L 384.847658 283.855159 
L 385.006258 287.948196 
L 385.164859 287.409638 
L 385.323459 288.055907 
L 385.482059 282.562622 
L 385.640659 284.286005 
L 385.799259 279.223565 
L 385.957859 287.948196 
L 386.11646 282.993467 
L 386.27506 285.901678 
L 386.43366 286.655658 
L 386.59226 283.424313 
L 386.90946 290.640983 
L 387.226661 283.20889 
L 387.385261 289.133022 
L 387.702461 286.547947 
L 387.861061 283.747448 
L 388.019662 288.702176 
L 388.178262 288.27133 
L 388.495462 285.36312 
L 388.654062 286.76337 
L 388.812662 283.855159 
L 388.971263 288.27133 
L 389.129863 288.379042 
L 389.288463 283.424313 
L 389.447063 285.793966 
L 389.605663 286.440235 
L 389.764263 291.933521 
L 389.922864 290.42556 
L 390.081464 287.409638 
L 390.240064 279.438988 
L 390.398664 279.115854 
L 390.557264 281.70093 
L 390.715864 275.130529 
L 390.874465 286.655658 
L 391.191665 280.30068 
L 391.350265 286.009389 
L 391.508865 282.670333 
L 391.667465 288.27133 
L 391.826066 288.702176 
L 392.143266 287.51735 
L 392.301866 290.640983 
L 392.460466 282.670333 
L 392.619066 282.45491 
L 392.777667 287.625061 
L 392.936267 286.76337 
L 393.094867 286.76337 
L 393.253467 278.577297 
L 393.412067 290.964118 
L 393.729268 283.101179 
L 393.887868 283.747448 
L 394.046468 283.424313 
L 394.205068 282.45491 
L 394.363668 279.654411 
L 394.522269 292.902924 
L 394.680869 284.501428 
L 394.998069 286.871081 
L 395.156669 286.547947 
L 395.315269 284.501428 
L 395.47387 290.102426 
L 395.63247 284.178294 
L 395.79107 285.793966 
L 395.94967 286.224812 
L 396.10827 288.809888 
L 396.26687 287.301927 
L 396.425471 283.747448 
L 396.584071 290.42556 
L 396.742671 284.60914 
L 396.901271 284.070582 
L 397.218471 286.332524 
L 397.377072 292.041232 
L 397.535672 290.210137 
L 397.694272 282.024064 
L 397.852872 283.532025 
L 398.011472 278.361874 
L 398.170072 282.347199 
L 398.328673 293.764616 
L 398.487273 288.055907 
L 398.487273 288.055907 
" style="fill:none;stroke:#1f77b4;stroke-linecap:square;stroke-width:1.5;"/>
   </g>
   <g id="patch_3">
    <path d="M 57.6 307.584 
L 57.6 41.472 
" style="fill:none;stroke:#000000;stroke-linecap:square;stroke-linejoin:miter;stroke-width:0.8;"/>
   </g>
   <g id="patch_4">
    <path d="M 414.72 307.584 
L 414.72 41.472 
" style="fill:none;stroke:#000000;stroke-linecap:square;stroke-linejoin:miter;stroke-width:0.8;"/>
   </g>
   <g id="patch_5">
    <path d="M 57.6 307.584 
L 414.72 307.584 
" style="fill:none;stroke:#000000;stroke-linecap:square;stroke-linejoin:miter;stroke-width:0.8;"/>
   </g>
   <g id="patch_6">
    <path d="M 57.6 41.472 
L 414.72 41.472 
" style="fill:none;stroke:#000000;stroke-linecap:square;stroke-linejoin:miter;stroke-width:0.8;"/>
   </g>
   <g id="text_14">
    <!-- Background subtracted -->
    <g transform="translate(166.075312 35.472)scale(0.12 -0.12)">
     <defs>
      <path d="M 1259 2228 
L 1259 519 
L 2272 519 
Q 2781 519 3026 730 
Q 3272 941 3272 1375 
Q 3272 1813 3026 2020 
Q 2781 2228 2272 2228 
L 1259 2228 
z
M 1259 4147 
L 1259 2741 
L 2194 2741 
Q 2656 2741 2882 2914 
Q 3109 3088 3109 3444 
Q 3109 3797 2882 3972 
Q 2656 4147 2194 4147 
L 1259 4147 
z
M 628 4666 
L 2241 4666 
Q 2963 4666 3353 4366 
Q 3744 4066 3744 3513 
Q 3744 3084 3544 2831 
Q 3344 2578 2956 2516 
Q 3422 2416 3680 2098 
Q 3938 1781 3938 1306 
Q 3938 681 3513 340 
Q 3088 0 2303 0 
L 628 0 
L 628 4666 
z
" id="DejaVuSans-42" transform="scale(0.015625)"/>
      <path d="M 3122 3366 
L 3122 2828 
Q 2878 2963 2633 3030 
Q 2388 3097 2138 3097 
Q 1578 3097 1268 2742 
Q 959 2388 959 1747 
Q 959 1106 1268 751 
Q 1578 397 2138 397 
Q 2388 397 2633 464 
Q 2878 531 3122 666 
L 3122 134 
Q 2881 22 2623 -34 
Q 2366 -91 2075 -91 
Q 1284 -91 818 406 
Q 353 903 353 1747 
Q 353 2603 823 3093 
Q 1294 3584 2113 3584 
Q 2378 3584 2631 3529 
Q 2884 3475 3122 3366 
z
" id="DejaVuSans-63" transform="scale(0.015625)"/>
      <path d="M 581 4863 
L 1159 4863 
L 1159 1991 
L 2875 3500 
L 3609 3500 
L 1753 1863 
L 3688 0 
L 2938 0 
L 1159 1709 
L 1159 0 
L 581 0 
L 581 4863 
z
" id="DejaVuSans-6b" transform="scale(0.015625)"/>
      <path d="M 2631 2963 
Q 2534 3019 2420 3045 
Q 2306 3072 2169 3072 
Q 1681 3072 1420 2755 
Q 1159 2438 1159 1844 
L 1159 0 
L 581 0 
L 581 3500 
L 1159 3500 
L 1159 2956 
Q 1341 3275 1631 3429 
Q 1922 3584 2338 3584 
Q 2397 3584 2469 3576 
Q 2541 3569 2628 3553 
L 2631 2963 
z
" id="DejaVuSans-72" transform="scale(0.015625)"/>
      <path d="M 2906 2969 
L 2906 4863 
L 3481 4863 
L 3481 0 
L 2906 0 
L 2906 525 
Q 2725 213 2448 61 
Q 2172 -91 1784 -91 
Q 1150 -91 751 415 
Q 353 922 353 1747 
Q 353 2572 751 3078 
Q 1150 3584 1784 3584 
Q 2172 3584 2448 3432 
Q 2725 3281 2906 2969 
z
M 947 1747 
Q 947 1113 1208 752 
Q 1469 391 1925 391 
Q 2381 391 2643 752 
Q 2906 1113 2906 1747 
Q 2906 2381 2643 2742 
Q 2381 3103 1925 3103 
Q 1469 3103 1208 2742 
Q 947 2381 947 1747 
z
" id="DejaVuSans-64" transform="scale(0.015625)"/>
      <path d="M 3116 1747 
Q 3116 2381 2855 2742 
Q 2594 3103 2138 3103 
Q 1681 3103 1420 2742 
Q 1159 2381 1159 1747 
Q 1159 1113 1420 752 
Q 1681 391 2138 391 
Q 2594 391 2855 752 
Q 3116 1113 3116 1747 
z
M 1159 2969 
Q 1341 3281 1617 3432 
Q 1894 3584 2278 3584 
Q 2916 3584 3314 3078 
Q 3713 2572 3713 1747 
Q 3713 922 3314 415 
Q 2916 -91 2278 -91 
Q 1894 -91 1617 61 
Q 1341 213 1159 525 
L 1159 0 
L 581 0 
L 581 4863 
L 1159 4863 
L 1159 2969 
z
" id="DejaVuSans-62" transform="scale(0.015625)"/>
     </defs>
     <use xlink:href="#DejaVuSans-42"/>
     <use x="68.603516" xlink:href="#DejaVuSans-61"/>
     <use x="129.882812" xlink:href="#DejaVuSans-63"/>
     <use x="184.863281" xlink:href="#DejaVuSans-6b"/>
     <use x="242.773438" xlink:href="#DejaVuSans-67"/>
     <use x="306.25" xlink:href="#DejaVuSans-72"/>
     <use x="345.113281" xlink:href="#DejaVuSans-6f"/>
     <use x="406.294922" xlink:href="#DejaVuSans-75"/>
     <use x="469.673828" xlink:href="#DejaVuSans-6e"/>
     <use x="533.052734" xlink:href="#DejaVuSans-64"/>
     <use x="596.529297" xlink:href="#DejaVuSans-20"/>
     <use x="628.316406" xlink:href="#DejaVuSans-73"/>
     <use x="680.416016" xlink:href="#DejaVuSans-75"/>
     <use x="743.794922" xlink:href="#DejaVuSans-62"/>
     <use x="807.271484" xlink:href="#DejaVuSans-74"/>
     <use x="846.480469" xlink:href="#DejaVuSans-72"/>
     <use x="887.59375" xlink:href="#DejaVuSans-61"/>
     <use x="948.873047" xlink:href="#DejaVuSans-63"/>
     <use x="1003.853516" xlink:href="#DejaVuSans-74"/>
     <use x="1043.0625" xlink:href="#DejaVuSans-65"/>
     <use x="1104.585938" xlink:href="#DejaVuSans-64"/>
    </g>
   </g>
  </g>
 </g>
 <defs>
  <clipPath id="p86839a3755">
   <rect height="266.112" width="357.12" x="57.6" y="41.472"/>
  </clipPath>
 </defs>
</svg>
