<?xml version="1.0" encoding="utf-8" standalone="no"?>
<!DOCTYPE svg PUBLIC "-//W3C//DTD SVG 1.1//EN"
  "http://www.w3.org/Graphics/SVG/1.1/DTD/svg11.dtd">
<svg height="345.6pt" version="1.1" viewBox="0 0 460.8 345.6" width="460.8pt" xmlns="http://www.w3.org/2000/svg" xmlns:xlink="http://www.w3.org/1999/xlink">
 <metadata>
  <rdf:RDF xmlns:cc="http://creativecommons.org/ns#" xmlns:dc="http://purl.org/dc/elements/1.1/" xmlns:rdf="http://www.w3.org/1999/02/22-rdf-syntax-ns#">
   <cc:Work>
    <dc:type rdf:resource="http://purl.org/dc/dcmitype/StillImage"/>
    <dc:date>2022-06-03T23:57:25.441143</dc:date>
    <dc:format>image/svg+xml</dc:format>
    <dc:creator>
     <cc:Agent>
      <dc:title>Matplotlib v3.4.1, https://matplotlib.org/</dc:title>
     </cc:Agent>
    </dc:creator>
   </cc:Work>
  </rdf:RDF>
 </metadata>
 <defs>
  <style type="text/css">*{stroke-linecap:butt;stroke-linejoin:round;}</style>
 </defs>
 <g id="figure_1">
  <g id="patch_1">
   <path d="M 0 345.6 
L 460.8 345.6 
L 460.8 0 
L 0 0 
z
" style="fill:#ffffff;"/>
  </g>
  <g id="axes_1">
   <g id="patch_2">
    <path d="M 57.6 307.584 
L 414.72 307.584 
L 414.72 41.472 
L 57.6 41.472 
z
" style="fill:#ffffff;"/>
   </g>
   <g id="matplotlib.axis_1">
    <g id="xtick_1">
     <g id="line2d_1">
      <defs>
       <path d="M 0 0 
L 0 3.5 
" id="mf9c84f38e3" style="stroke:#000000;stroke-width:0.8;"/>
      </defs>
      <g>
       <use style="stroke:#000000;stroke-width:0.8;" x="103.072447" xlink:href="#mf9c84f38e3" y="307.584"/>
      </g>
     </g>
     <g id="text_1">
      <!-- 400 -->
      <g transform="translate(93.528697 322.182437)scale(0.1 -0.1)">
       <defs>
        <path d="M 2419 4116 
L 825 1625 
L 2419 1625 
L 2419 4116 
z
M 2253 4666 
L 3047 4666 
L 3047 1625 
L 3713 1625 
L 3713 1100 
L 3047 1100 
L 3047 0 
L 2419 0 
L 2419 1100 
L 313 1100 
L 313 1709 
L 2253 4666 
z
" id="DejaVuSans-34" transform="scale(0.015625)"/>
        <path d="M 2034 4250 
Q 1547 4250 1301 3770 
Q 1056 3291 1056 2328 
Q 1056 1369 1301 889 
Q 1547 409 2034 409 
Q 2525 409 2770 889 
Q 3016 1369 3016 2328 
Q 3016 3291 2770 3770 
Q 2525 4250 2034 4250 
z
M 2034 4750 
Q 2819 4750 3233 4129 
Q 3647 3509 3647 2328 
Q 3647 1150 3233 529 
Q 2819 -91 2034 -91 
Q 1250 -91 836 529 
Q 422 1150 422 2328 
Q 422 3509 836 4129 
Q 1250 4750 2034 4750 
z
" id="DejaVuSans-30" transform="scale(0.015625)"/>
       </defs>
       <use xlink:href="#DejaVuSans-34"/>
       <use x="63.623047" xlink:href="#DejaVuSans-30"/>
       <use x="127.246094" xlink:href="#DejaVuSans-30"/>
      </g>
     </g>
    </g>
    <g id="xtick_2">
     <g id="line2d_2">
      <g>
       <use style="stroke:#000000;stroke-width:0.8;" x="161.359538" xlink:href="#mf9c84f38e3" y="307.584"/>
      </g>
     </g>
     <g id="text_2">
      <!-- 600 -->
      <g transform="translate(151.815788 322.182437)scale(0.1 -0.1)">
       <defs>
        <path d="M 2113 2584 
Q 1688 2584 1439 2293 
Q 1191 2003 1191 1497 
Q 1191 994 1439 701 
Q 1688 409 2113 409 
Q 2538 409 2786 701 
Q 3034 994 3034 1497 
Q 3034 2003 2786 2293 
Q 2538 2584 2113 2584 
z
M 3366 4563 
L 3366 3988 
Q 3128 4100 2886 4159 
Q 2644 4219 2406 4219 
Q 1781 4219 1451 3797 
Q 1122 3375 1075 2522 
Q 1259 2794 1537 2939 
Q 1816 3084 2150 3084 
Q 2853 3084 3261 2657 
Q 3669 2231 3669 1497 
Q 3669 778 3244 343 
Q 2819 -91 2113 -91 
Q 1303 -91 875 529 
Q 447 1150 447 2328 
Q 447 3434 972 4092 
Q 1497 4750 2381 4750 
Q 2619 4750 2861 4703 
Q 3103 4656 3366 4563 
z
" id="DejaVuSans-36" transform="scale(0.015625)"/>
       </defs>
       <use xlink:href="#DejaVuSans-36"/>
       <use x="63.623047" xlink:href="#DejaVuSans-30"/>
       <use x="127.246094" xlink:href="#DejaVuSans-30"/>
      </g>
     </g>
    </g>
    <g id="xtick_3">
     <g id="line2d_3">
      <g>
       <use style="stroke:#000000;stroke-width:0.8;" x="219.646629" xlink:href="#mf9c84f38e3" y="307.584"/>
      </g>
     </g>
     <g id="text_3">
      <!-- 800 -->
      <g transform="translate(210.102879 322.182437)scale(0.1 -0.1)">
       <defs>
        <path d="M 2034 2216 
Q 1584 2216 1326 1975 
Q 1069 1734 1069 1313 
Q 1069 891 1326 650 
Q 1584 409 2034 409 
Q 2484 409 2743 651 
Q 3003 894 3003 1313 
Q 3003 1734 2745 1975 
Q 2488 2216 2034 2216 
z
M 1403 2484 
Q 997 2584 770 2862 
Q 544 3141 544 3541 
Q 544 4100 942 4425 
Q 1341 4750 2034 4750 
Q 2731 4750 3128 4425 
Q 3525 4100 3525 3541 
Q 3525 3141 3298 2862 
Q 3072 2584 2669 2484 
Q 3125 2378 3379 2068 
Q 3634 1759 3634 1313 
Q 3634 634 3220 271 
Q 2806 -91 2034 -91 
Q 1263 -91 848 271 
Q 434 634 434 1313 
Q 434 1759 690 2068 
Q 947 2378 1403 2484 
z
M 1172 3481 
Q 1172 3119 1398 2916 
Q 1625 2713 2034 2713 
Q 2441 2713 2670 2916 
Q 2900 3119 2900 3481 
Q 2900 3844 2670 4047 
Q 2441 4250 2034 4250 
Q 1625 4250 1398 4047 
Q 1172 3844 1172 3481 
z
" id="DejaVuSans-38" transform="scale(0.015625)"/>
       </defs>
       <use xlink:href="#DejaVuSans-38"/>
       <use x="63.623047" xlink:href="#DejaVuSans-30"/>
       <use x="127.246094" xlink:href="#DejaVuSans-30"/>
      </g>
     </g>
    </g>
    <g id="xtick_4">
     <g id="line2d_4">
      <g>
       <use style="stroke:#000000;stroke-width:0.8;" x="277.933721" xlink:href="#mf9c84f38e3" y="307.584"/>
      </g>
     </g>
     <g id="text_4">
      <!-- 1000 -->
      <g transform="translate(265.208721 322.182437)scale(0.1 -0.1)">
       <defs>
        <path d="M 794 531 
L 1825 531 
L 1825 4091 
L 703 3866 
L 703 4441 
L 1819 4666 
L 2450 4666 
L 2450 531 
L 3481 531 
L 3481 0 
L 794 0 
L 794 531 
z
" id="DejaVuSans-31" transform="scale(0.015625)"/>
       </defs>
       <use xlink:href="#DejaVuSans-31"/>
       <use x="63.623047" xlink:href="#DejaVuSans-30"/>
       <use x="127.246094" xlink:href="#DejaVuSans-30"/>
       <use x="190.869141" xlink:href="#DejaVuSans-30"/>
      </g>
     </g>
    </g>
    <g id="xtick_5">
     <g id="line2d_5">
      <g>
       <use style="stroke:#000000;stroke-width:0.8;" x="336.220812" xlink:href="#mf9c84f38e3" y="307.584"/>
      </g>
     </g>
     <g id="text_5">
      <!-- 1200 -->
      <g transform="translate(323.495812 322.182437)scale(0.1 -0.1)">
       <defs>
        <path d="M 1228 531 
L 3431 531 
L 3431 0 
L 469 0 
L 469 531 
Q 828 903 1448 1529 
Q 2069 2156 2228 2338 
Q 2531 2678 2651 2914 
Q 2772 3150 2772 3378 
Q 2772 3750 2511 3984 
Q 2250 4219 1831 4219 
Q 1534 4219 1204 4116 
Q 875 4013 500 3803 
L 500 4441 
Q 881 4594 1212 4672 
Q 1544 4750 1819 4750 
Q 2544 4750 2975 4387 
Q 3406 4025 3406 3419 
Q 3406 3131 3298 2873 
Q 3191 2616 2906 2266 
Q 2828 2175 2409 1742 
Q 1991 1309 1228 531 
z
" id="DejaVuSans-32" transform="scale(0.015625)"/>
       </defs>
       <use xlink:href="#DejaVuSans-31"/>
       <use x="63.623047" xlink:href="#DejaVuSans-32"/>
       <use x="127.246094" xlink:href="#DejaVuSans-30"/>
       <use x="190.869141" xlink:href="#DejaVuSans-30"/>
      </g>
     </g>
    </g>
    <g id="xtick_6">
     <g id="line2d_6">
      <g>
       <use style="stroke:#000000;stroke-width:0.8;" x="394.507904" xlink:href="#mf9c84f38e3" y="307.584"/>
      </g>
     </g>
     <g id="text_6">
      <!-- 1400 -->
      <g transform="translate(381.782904 322.182437)scale(0.1 -0.1)">
       <use xlink:href="#DejaVuSans-31"/>
       <use x="63.623047" xlink:href="#DejaVuSans-34"/>
       <use x="127.246094" xlink:href="#DejaVuSans-30"/>
       <use x="190.869141" xlink:href="#DejaVuSans-30"/>
      </g>
     </g>
    </g>
    <g id="text_7">
     <!-- Wavelength [nm] -->
     <g transform="translate(192.967812 335.860562)scale(0.1 -0.1)">
      <defs>
       <path d="M 213 4666 
L 850 4666 
L 1831 722 
L 2809 4666 
L 3519 4666 
L 4500 722 
L 5478 4666 
L 6119 4666 
L 4947 0 
L 4153 0 
L 3169 4050 
L 2175 0 
L 1381 0 
L 213 4666 
z
" id="DejaVuSans-57" transform="scale(0.015625)"/>
       <path d="M 2194 1759 
Q 1497 1759 1228 1600 
Q 959 1441 959 1056 
Q 959 750 1161 570 
Q 1363 391 1709 391 
Q 2188 391 2477 730 
Q 2766 1069 2766 1631 
L 2766 1759 
L 2194 1759 
z
M 3341 1997 
L 3341 0 
L 2766 0 
L 2766 531 
Q 2569 213 2275 61 
Q 1981 -91 1556 -91 
Q 1019 -91 701 211 
Q 384 513 384 1019 
Q 384 1609 779 1909 
Q 1175 2209 1959 2209 
L 2766 2209 
L 2766 2266 
Q 2766 2663 2505 2880 
Q 2244 3097 1772 3097 
Q 1472 3097 1187 3025 
Q 903 2953 641 2809 
L 641 3341 
Q 956 3463 1253 3523 
Q 1550 3584 1831 3584 
Q 2591 3584 2966 3190 
Q 3341 2797 3341 1997 
z
" id="DejaVuSans-61" transform="scale(0.015625)"/>
       <path d="M 191 3500 
L 800 3500 
L 1894 563 
L 2988 3500 
L 3597 3500 
L 2284 0 
L 1503 0 
L 191 3500 
z
" id="DejaVuSans-76" transform="scale(0.015625)"/>
       <path d="M 3597 1894 
L 3597 1613 
L 953 1613 
Q 991 1019 1311 708 
Q 1631 397 2203 397 
Q 2534 397 2845 478 
Q 3156 559 3463 722 
L 3463 178 
Q 3153 47 2828 -22 
Q 2503 -91 2169 -91 
Q 1331 -91 842 396 
Q 353 884 353 1716 
Q 353 2575 817 3079 
Q 1281 3584 2069 3584 
Q 2775 3584 3186 3129 
Q 3597 2675 3597 1894 
z
M 3022 2063 
Q 3016 2534 2758 2815 
Q 2500 3097 2075 3097 
Q 1594 3097 1305 2825 
Q 1016 2553 972 2059 
L 3022 2063 
z
" id="DejaVuSans-65" transform="scale(0.015625)"/>
       <path d="M 603 4863 
L 1178 4863 
L 1178 0 
L 603 0 
L 603 4863 
z
" id="DejaVuSans-6c" transform="scale(0.015625)"/>
       <path d="M 3513 2113 
L 3513 0 
L 2938 0 
L 2938 2094 
Q 2938 2591 2744 2837 
Q 2550 3084 2163 3084 
Q 1697 3084 1428 2787 
Q 1159 2491 1159 1978 
L 1159 0 
L 581 0 
L 581 3500 
L 1159 3500 
L 1159 2956 
Q 1366 3272 1645 3428 
Q 1925 3584 2291 3584 
Q 2894 3584 3203 3211 
Q 3513 2838 3513 2113 
z
" id="DejaVuSans-6e" transform="scale(0.015625)"/>
       <path d="M 2906 1791 
Q 2906 2416 2648 2759 
Q 2391 3103 1925 3103 
Q 1463 3103 1205 2759 
Q 947 2416 947 1791 
Q 947 1169 1205 825 
Q 1463 481 1925 481 
Q 2391 481 2648 825 
Q 2906 1169 2906 1791 
z
M 3481 434 
Q 3481 -459 3084 -895 
Q 2688 -1331 1869 -1331 
Q 1566 -1331 1297 -1286 
Q 1028 -1241 775 -1147 
L 775 -588 
Q 1028 -725 1275 -790 
Q 1522 -856 1778 -856 
Q 2344 -856 2625 -561 
Q 2906 -266 2906 331 
L 2906 616 
Q 2728 306 2450 153 
Q 2172 0 1784 0 
Q 1141 0 747 490 
Q 353 981 353 1791 
Q 353 2603 747 3093 
Q 1141 3584 1784 3584 
Q 2172 3584 2450 3431 
Q 2728 3278 2906 2969 
L 2906 3500 
L 3481 3500 
L 3481 434 
z
" id="DejaVuSans-67" transform="scale(0.015625)"/>
       <path d="M 1172 4494 
L 1172 3500 
L 2356 3500 
L 2356 3053 
L 1172 3053 
L 1172 1153 
Q 1172 725 1289 603 
Q 1406 481 1766 481 
L 2356 481 
L 2356 0 
L 1766 0 
Q 1100 0 847 248 
Q 594 497 594 1153 
L 594 3053 
L 172 3053 
L 172 3500 
L 594 3500 
L 594 4494 
L 1172 4494 
z
" id="DejaVuSans-74" transform="scale(0.015625)"/>
       <path d="M 3513 2113 
L 3513 0 
L 2938 0 
L 2938 2094 
Q 2938 2591 2744 2837 
Q 2550 3084 2163 3084 
Q 1697 3084 1428 2787 
Q 1159 2491 1159 1978 
L 1159 0 
L 581 0 
L 581 4863 
L 1159 4863 
L 1159 2956 
Q 1366 3272 1645 3428 
Q 1925 3584 2291 3584 
Q 2894 3584 3203 3211 
Q 3513 2838 3513 2113 
z
" id="DejaVuSans-68" transform="scale(0.015625)"/>
       <path id="DejaVuSans-20" transform="scale(0.015625)"/>
       <path d="M 550 4863 
L 1875 4863 
L 1875 4416 
L 1125 4416 
L 1125 -397 
L 1875 -397 
L 1875 -844 
L 550 -844 
L 550 4863 
z
" id="DejaVuSans-5b" transform="scale(0.015625)"/>
       <path d="M 3328 2828 
Q 3544 3216 3844 3400 
Q 4144 3584 4550 3584 
Q 5097 3584 5394 3201 
Q 5691 2819 5691 2113 
L 5691 0 
L 5113 0 
L 5113 2094 
Q 5113 2597 4934 2840 
Q 4756 3084 4391 3084 
Q 3944 3084 3684 2787 
Q 3425 2491 3425 1978 
L 3425 0 
L 2847 0 
L 2847 2094 
Q 2847 2600 2669 2842 
Q 2491 3084 2119 3084 
Q 1678 3084 1418 2786 
Q 1159 2488 1159 1978 
L 1159 0 
L 581 0 
L 581 3500 
L 1159 3500 
L 1159 2956 
Q 1356 3278 1631 3431 
Q 1906 3584 2284 3584 
Q 2666 3584 2933 3390 
Q 3200 3197 3328 2828 
z
" id="DejaVuSans-6d" transform="scale(0.015625)"/>
       <path d="M 1947 4863 
L 1947 -844 
L 622 -844 
L 622 -397 
L 1369 -397 
L 1369 4416 
L 622 4416 
L 622 4863 
L 1947 4863 
z
" id="DejaVuSans-5d" transform="scale(0.015625)"/>
      </defs>
      <use xlink:href="#DejaVuSans-57"/>
      <use x="92.501953" xlink:href="#DejaVuSans-61"/>
      <use x="153.78125" xlink:href="#DejaVuSans-76"/>
      <use x="212.960938" xlink:href="#DejaVuSans-65"/>
      <use x="274.484375" xlink:href="#DejaVuSans-6c"/>
      <use x="302.267578" xlink:href="#DejaVuSans-65"/>
      <use x="363.791016" xlink:href="#DejaVuSans-6e"/>
      <use x="427.169922" xlink:href="#DejaVuSans-67"/>
      <use x="490.646484" xlink:href="#DejaVuSans-74"/>
      <use x="529.855469" xlink:href="#DejaVuSans-68"/>
      <use x="593.234375" xlink:href="#DejaVuSans-20"/>
      <use x="625.021484" xlink:href="#DejaVuSans-5b"/>
      <use x="664.035156" xlink:href="#DejaVuSans-6e"/>
      <use x="727.414062" xlink:href="#DejaVuSans-6d"/>
      <use x="824.826172" xlink:href="#DejaVuSans-5d"/>
     </g>
    </g>
   </g>
   <g id="matplotlib.axis_2">
    <g id="ytick_1">
     <g id="line2d_7">
      <defs>
       <path d="M 0 0 
L -3.5 0 
" id="mc0198d815b" style="stroke:#000000;stroke-width:0.8;"/>
      </defs>
      <g>
       <use style="stroke:#000000;stroke-width:0.8;" x="57.6" xlink:href="#mc0198d815b" y="292.154523"/>
      </g>
     </g>
     <g id="text_8">
      <!-- 0 -->
      <g transform="translate(44.2375 295.953742)scale(0.1 -0.1)">
       <use xlink:href="#DejaVuSans-30"/>
      </g>
     </g>
    </g>
    <g id="ytick_2">
     <g id="line2d_8">
      <g>
       <use style="stroke:#000000;stroke-width:0.8;" x="57.6" xlink:href="#mc0198d815b" y="235.65492"/>
      </g>
     </g>
     <g id="text_9">
      <!-- 2000 -->
      <g transform="translate(25.15 239.454139)scale(0.1 -0.1)">
       <use xlink:href="#DejaVuSans-32"/>
       <use x="63.623047" xlink:href="#DejaVuSans-30"/>
       <use x="127.246094" xlink:href="#DejaVuSans-30"/>
       <use x="190.869141" xlink:href="#DejaVuSans-30"/>
      </g>
     </g>
    </g>
    <g id="ytick_3">
     <g id="line2d_9">
      <g>
       <use style="stroke:#000000;stroke-width:0.8;" x="57.6" xlink:href="#mc0198d815b" y="179.155317"/>
      </g>
     </g>
     <g id="text_10">
      <!-- 4000 -->
      <g transform="translate(25.15 182.954536)scale(0.1 -0.1)">
       <use xlink:href="#DejaVuSans-34"/>
       <use x="63.623047" xlink:href="#DejaVuSans-30"/>
       <use x="127.246094" xlink:href="#DejaVuSans-30"/>
       <use x="190.869141" xlink:href="#DejaVuSans-30"/>
      </g>
     </g>
    </g>
    <g id="ytick_4">
     <g id="line2d_10">
      <g>
       <use style="stroke:#000000;stroke-width:0.8;" x="57.6" xlink:href="#mc0198d815b" y="122.655715"/>
      </g>
     </g>
     <g id="text_11">
      <!-- 6000 -->
      <g transform="translate(25.15 126.454933)scale(0.1 -0.1)">
       <use xlink:href="#DejaVuSans-36"/>
       <use x="63.623047" xlink:href="#DejaVuSans-30"/>
       <use x="127.246094" xlink:href="#DejaVuSans-30"/>
       <use x="190.869141" xlink:href="#DejaVuSans-30"/>
      </g>
     </g>
    </g>
    <g id="ytick_5">
     <g id="line2d_11">
      <g>
       <use style="stroke:#000000;stroke-width:0.8;" x="57.6" xlink:href="#mc0198d815b" y="66.156112"/>
      </g>
     </g>
     <g id="text_12">
      <!-- 8000 -->
      <g transform="translate(25.15 69.95533)scale(0.1 -0.1)">
       <use xlink:href="#DejaVuSans-38"/>
       <use x="63.623047" xlink:href="#DejaVuSans-30"/>
       <use x="127.246094" xlink:href="#DejaVuSans-30"/>
       <use x="190.869141" xlink:href="#DejaVuSans-30"/>
      </g>
     </g>
    </g>
    <g id="text_13">
     <!-- Counts -->
     <g transform="translate(19.070312 191.981125)rotate(-90)scale(0.1 -0.1)">
      <defs>
       <path d="M 4122 4306 
L 4122 3641 
Q 3803 3938 3442 4084 
Q 3081 4231 2675 4231 
Q 1875 4231 1450 3742 
Q 1025 3253 1025 2328 
Q 1025 1406 1450 917 
Q 1875 428 2675 428 
Q 3081 428 3442 575 
Q 3803 722 4122 1019 
L 4122 359 
Q 3791 134 3420 21 
Q 3050 -91 2638 -91 
Q 1578 -91 968 557 
Q 359 1206 359 2328 
Q 359 3453 968 4101 
Q 1578 4750 2638 4750 
Q 3056 4750 3426 4639 
Q 3797 4528 4122 4306 
z
" id="DejaVuSans-43" transform="scale(0.015625)"/>
       <path d="M 1959 3097 
Q 1497 3097 1228 2736 
Q 959 2375 959 1747 
Q 959 1119 1226 758 
Q 1494 397 1959 397 
Q 2419 397 2687 759 
Q 2956 1122 2956 1747 
Q 2956 2369 2687 2733 
Q 2419 3097 1959 3097 
z
M 1959 3584 
Q 2709 3584 3137 3096 
Q 3566 2609 3566 1747 
Q 3566 888 3137 398 
Q 2709 -91 1959 -91 
Q 1206 -91 779 398 
Q 353 888 353 1747 
Q 353 2609 779 3096 
Q 1206 3584 1959 3584 
z
" id="DejaVuSans-6f" transform="scale(0.015625)"/>
       <path d="M 544 1381 
L 544 3500 
L 1119 3500 
L 1119 1403 
Q 1119 906 1312 657 
Q 1506 409 1894 409 
Q 2359 409 2629 706 
Q 2900 1003 2900 1516 
L 2900 3500 
L 3475 3500 
L 3475 0 
L 2900 0 
L 2900 538 
Q 2691 219 2414 64 
Q 2138 -91 1772 -91 
Q 1169 -91 856 284 
Q 544 659 544 1381 
z
M 1991 3584 
L 1991 3584 
z
" id="DejaVuSans-75" transform="scale(0.015625)"/>
       <path d="M 2834 3397 
L 2834 2853 
Q 2591 2978 2328 3040 
Q 2066 3103 1784 3103 
Q 1356 3103 1142 2972 
Q 928 2841 928 2578 
Q 928 2378 1081 2264 
Q 1234 2150 1697 2047 
L 1894 2003 
Q 2506 1872 2764 1633 
Q 3022 1394 3022 966 
Q 3022 478 2636 193 
Q 2250 -91 1575 -91 
Q 1294 -91 989 -36 
Q 684 19 347 128 
L 347 722 
Q 666 556 975 473 
Q 1284 391 1588 391 
Q 1994 391 2212 530 
Q 2431 669 2431 922 
Q 2431 1156 2273 1281 
Q 2116 1406 1581 1522 
L 1381 1569 
Q 847 1681 609 1914 
Q 372 2147 372 2553 
Q 372 3047 722 3315 
Q 1072 3584 1716 3584 
Q 2034 3584 2315 3537 
Q 2597 3491 2834 3397 
z
" id="DejaVuSans-73" transform="scale(0.015625)"/>
      </defs>
      <use xlink:href="#DejaVuSans-43"/>
      <use x="69.824219" xlink:href="#DejaVuSans-6f"/>
      <use x="131.005859" xlink:href="#DejaVuSans-75"/>
      <use x="194.384766" xlink:href="#DejaVuSans-6e"/>
      <use x="257.763672" xlink:href="#DejaVuSans-74"/>
      <use x="296.972656" xlink:href="#DejaVuSans-73"/>
     </g>
    </g>
   </g>
   <g id="line2d_12">
    <path clip-path="url(#pb2eefea3ef)" d="M 73.832727 291.340929 
L 73.992106 290.956732 
L 74.151485 291.352229 
L 74.310864 291.081031 
L 74.470242 291.499128 
L 74.629621 291.295729 
L 74.789 292.290122 
L 74.948379 292.233623 
L 75.107757 291.815526 
L 75.267136 292.66302 
L 75.426515 291.872025 
L 75.585894 292.211023 
L 75.745272 292.120624 
L 75.904651 292.69692 
L 76.06403 292.482221 
L 76.223409 292.459621 
L 76.542166 291.126231 
L 76.701545 291.329629 
L 76.860924 290.651634 
L 77.020303 290.572535 
L 77.179681 290.696834 
L 77.33906 290.538635 
L 77.498439 290.538635 
L 77.657818 290.120538 
L 78.135954 291.17143 
L 78.295333 291.069731 
L 78.454711 291.058431 
L 78.61409 291.27313 
L 78.773469 291.114931 
L 78.932848 290.708134 
L 79.251605 290.911532 
L 79.410984 290.403036 
L 79.570363 290.651634 
L 79.88912 290.075338 
L 80.207878 290.956732 
L 80.686014 291.295729 
L 81.004772 292.482221 
L 81.16415 292.391822 
L 81.482908 292.68562 
L 81.642287 292.470921 
L 81.801666 291.951125 
L 81.961044 291.973725 
L 82.279802 292.222323 
L 82.439181 291.770326 
L 82.757938 292.143224 
L 83.236074 291.872025 
L 83.395453 292.041524 
L 83.554832 291.623427 
L 83.714211 291.781626 
L 83.87359 291.725126 
L 84.032968 291.985025 
L 84.351726 291.408729 
L 84.670483 292.278823 
L 84.829862 292.030224 
L 85.14862 292.459621 
L 85.307998 292.391822 
L 85.467377 292.550021 
L 85.626756 292.437021 
L 85.786135 292.482221 
L 85.945513 292.335322 
L 86.104892 291.894625 
L 86.264271 291.962425 
L 86.42365 292.516121 
L 86.583029 292.188423 
L 86.901786 293.770412 
L 87.220544 292.979418 
L 87.69868 293.465314 
L 88.017437 293.318415 
L 88.176816 293.713912 
L 88.654952 292.154523 
L 89.133089 291.849426 
L 89.451846 292.64042 
L 89.611225 292.57262 
L 89.770604 292.357922 
L 90.408119 292.911618 
L 90.567498 293.510514 
L 90.726876 293.148916 
L 90.886255 293.329715 
L 91.045634 292.990718 
L 91.205013 292.267523 
L 91.364391 292.391822 
L 91.52377 292.69692 
L 91.683149 292.62912 
L 91.842528 292.324022 
L 92.001907 292.62912 
L 92.161285 292.188423 
L 92.320664 292.798619 
L 92.480043 292.855119 
L 92.639422 292.68562 
L 92.7988 293.069817 
L 92.958179 293.081117 
L 93.117558 293.374915 
L 93.276937 293.363615 
L 93.436315 293.781712 
L 93.595694 293.646113 
L 93.755073 293.069817 
L 93.914452 293.092417 
L 94.07383 292.470921 
L 94.233209 292.68562 
L 94.392588 292.561321 
L 94.551967 292.60652 
L 94.870724 291.804226 
L 95.030103 291.612127 
L 95.667618 292.538721 
L 95.986376 292.742119 
L 96.145754 292.504821 
L 96.305133 292.62912 
L 96.623891 293.397515 
L 96.942648 293.013317 
L 97.102027 292.482221 
L 97.261406 292.538721 
L 97.420785 292.357922 
L 97.739542 293.047217 
L 97.898921 292.776019 
L 98.0583 292.956818 
L 98.217678 292.855119 
L 98.377057 292.357922 
L 98.536436 292.312722 
L 98.695815 292.414422 
L 98.855193 292.143224 
L 99.173951 292.188423 
L 99.811466 290.651634 
L 100.130224 291.623427 
L 100.289602 291.668627 
L 100.448981 291.894625 
L 100.60836 291.623427 
L 101.245875 292.165823 
L 101.405254 292.143224 
L 101.724011 293.216716 
L 101.88339 292.911618 
L 102.202148 294.346708 
L 102.361526 294.233709 
L 102.520905 293.860811 
L 102.680284 293.906011 
L 102.999041 294.923004 
L 103.317799 294.380608 
L 103.477178 294.211109 
L 103.955314 293.126317 
L 104.274071 293.985111 
L 104.43345 293.137617 
L 104.592829 293.442714 
L 104.911587 293.171516 
L 105.070965 293.804312 
L 105.389723 293.024617 
L 105.549102 293.137617 
L 105.70848 293.499214 
L 105.867859 292.889018 
L 106.027238 293.194116 
L 106.664753 290.968032 
L 106.824132 290.968032 
L 106.983511 290.832433 
L 107.142889 290.979332 
L 107.302268 290.018838 
L 107.621026 290.629034 
L 108.099162 290.561235 
L 108.258541 291.21663 
L 108.417919 291.25053 
L 108.577298 292.154523 
L 108.896056 292.787319 
L 109.055434 292.335322 
L 109.214813 292.504821 
L 109.374192 292.335322 
L 109.69295 293.160216 
L 109.852328 292.098024 
L 110.011707 292.65172 
L 110.489843 291.25053 
L 110.649222 291.815526 
L 110.808601 291.499128 
L 110.96798 291.578227 
L 111.127358 291.996325 
L 111.286737 291.612127 
L 111.446116 292.753419 
L 111.764873 291.996325 
L 112.083631 293.081117 
L 112.24301 292.278823 
L 112.402389 292.267523 
L 112.561767 292.425722 
L 112.721146 291.894625 
L 112.880525 292.131924 
L 113.199282 291.27313 
L 113.358661 291.747726 
L 113.677419 291.397429 
L 113.836797 291.939825 
L 114.155555 292.064124 
L 114.314934 292.369222 
L 114.633691 291.487828 
L 114.79307 291.318329 
L 114.952449 290.877632 
L 115.111828 289.928439 
L 115.271206 289.80414 
L 115.589964 288.967946 
L 115.749343 289.013145 
L 115.908721 288.900146 
L 116.386858 290.199637 
L 116.546236 290.459535 
L 116.864994 291.487828 
L 117.183752 292.538721 
L 117.502509 291.521728 
L 118.140024 292.59522 
L 118.458782 292.301422 
L 118.777539 291.725126 
L 119.096297 292.69692 
L 119.255675 292.301422 
L 119.574433 291.23923 
L 119.733812 290.911532 
L 120.211948 292.007624 
L 120.371327 292.154523 
L 120.530706 292.018924 
L 120.690084 292.312722 
L 121.008842 293.273216 
L 121.327599 292.979418 
L 121.646357 292.324022 
L 121.805736 292.448321 
L 121.965114 292.177123 
L 122.124493 292.414422 
L 122.283872 292.177123 
L 122.443251 291.668627 
L 123.080766 292.098024 
L 123.399523 291.747726 
L 123.558902 292.052824 
L 123.718281 291.973725 
L 124.196417 293.137617 
L 124.515175 292.776019 
L 124.674553 293.397515 
L 124.833932 293.228016 
L 124.993311 293.849512 
L 125.15269 293.928611 
L 125.312069 293.702613 
L 125.630826 291.917225 
L 125.790205 291.646027 
L 126.108962 292.742119 
L 126.268341 291.939825 
L 126.42772 292.832519 
L 126.587099 292.787319 
L 126.905856 292.188423 
L 127.065235 292.346622 
L 127.383993 293.295815 
L 127.543371 292.719519 
L 127.70275 292.798619 
L 127.862129 293.239316 
L 128.180886 292.244923 
L 128.499644 292.516121 
L 128.97778 292.064124 
L 129.137159 292.459621 
L 129.455916 291.815526 
L 129.615295 291.905925 
L 129.774674 292.437021 
L 130.093432 291.928525 
L 130.25281 292.391822 
L 130.730947 291.001932 
L 130.890325 290.719434 
L 131.049704 290.730733 
L 131.209083 291.25053 
L 131.368462 290.357836 
L 131.687219 291.17143 
L 131.846598 290.809833 
L 132.005977 290.922832 
L 132.643492 292.64042 
L 132.802871 291.985025 
L 132.962249 292.538721 
L 133.281007 292.086724 
L 133.440386 292.968118 
L 133.599764 292.979418 
L 133.759143 293.171516 
L 134.237279 292.425722 
L 134.396658 292.60652 
L 134.874794 292.177123 
L 135.034173 291.815526 
L 135.193552 292.290122 
L 135.51231 292.448321 
L 135.671688 292.052824 
L 135.831067 291.985025 
L 136.149825 291.374829 
L 136.468582 291.340929 
L 136.627961 291.544328 
L 136.78734 291.453928 
L 136.946718 291.22793 
L 137.106097 291.22793 
L 137.424855 292.086724 
L 137.743612 292.233623 
L 138.06237 292.753419 
L 138.221749 291.939825 
L 138.540506 291.770326 
L 138.699885 291.725126 
L 138.859264 292.109324 
L 139.018642 292.120624 
L 139.178021 292.65172 
L 139.3374 292.57262 
L 139.496779 292.154523 
L 139.656157 292.211023 
L 139.815536 292.493521 
L 140.134294 292.391822 
L 140.293673 292.742119 
L 140.453051 292.301422 
L 140.61243 292.437021 
L 140.771809 291.792926 
L 141.249945 292.60652 
L 141.568703 292.753419 
L 141.728081 292.719519 
L 141.88746 293.115017 
L 142.046839 292.911618 
L 142.206218 292.900318 
L 142.365596 293.148916 
L 142.524975 293.069817 
L 142.684354 292.730819 
L 143.003112 292.968118 
L 143.16249 292.889018 
L 143.481248 291.736426 
L 143.640627 292.165823 
L 143.800005 291.465228 
L 143.959384 291.804226 
L 144.118763 291.747726 
L 144.596899 292.470921 
L 144.756278 292.233623 
L 145.075035 292.561321 
L 145.234414 292.312722 
L 145.393793 292.866418 
L 145.553172 292.798619 
L 145.712551 292.922918 
L 146.190687 291.578227 
L 146.350066 291.883325 
L 146.668823 292.007624 
L 146.828202 292.244923 
L 147.146959 291.838126 
L 147.306338 291.521728 
L 147.465717 291.612127 
L 147.625096 291.962425 
L 147.784474 291.928525 
L 147.943853 291.521728 
L 148.103232 291.962425 
L 148.42199 291.329629 
L 149.059505 292.65172 
L 149.218883 291.996325 
L 149.537641 293.307115 
L 149.856398 293.374915 
L 150.015777 293.092417 
L 150.334535 293.035917 
L 150.493914 292.437021 
L 150.653292 292.391822 
L 150.812671 293.058517 
L 150.97205 292.335322 
L 151.131429 292.324022 
L 151.450186 291.985025 
L 151.928322 291.566928 
L 152.087701 292.098024 
L 152.24708 292.007624 
L 152.406459 291.431329 
L 152.565837 291.623427 
L 153.043974 291.340929 
L 153.362731 291.352229 
L 153.52211 291.17143 
L 153.840868 291.578227 
L 154.159625 292.312722 
L 154.319004 292.030224 
L 154.478383 292.086724 
L 154.79714 293.374915 
L 155.434655 294.10941 
L 155.753413 292.956818 
L 155.912792 293.273216 
L 156.231549 292.120624 
L 156.390928 292.052824 
L 156.550307 291.521728 
L 156.709685 291.533028 
L 157.028443 290.549935 
L 157.665958 292.62912 
L 157.984715 292.233623 
L 158.144094 292.821219 
L 158.303473 292.67432 
L 158.622231 293.533114 
L 158.781609 293.137617 
L 158.940988 293.374915 
L 159.100367 293.069817 
L 159.259746 293.081117 
L 159.419124 293.928611 
L 159.578503 294.04161 
L 159.737882 293.770412 
L 160.056639 294.08681 
L 160.216018 293.691313 
L 160.375397 293.985111 
L 160.694155 293.002017 
L 160.853533 293.216716 
L 161.012912 292.414422 
L 161.172291 292.504821 
L 161.33167 292.120624 
L 161.491048 292.120624 
L 161.809806 291.612127 
L 162.128563 291.985025 
L 162.287942 291.838126 
L 162.766078 291.035831 
L 162.925457 291.453928 
L 163.562972 290.990632 
L 163.722351 291.137531 
L 164.041109 290.719434 
L 164.359866 291.19403 
L 164.519245 291.024531 
L 164.678624 291.14883 
L 164.997381 292.120624 
L 165.15676 292.109324 
L 165.316139 291.702527 
L 165.475517 292.59522 
L 165.794275 292.855119 
L 165.953654 293.035917 
L 166.591169 292.131924 
L 166.909926 292.391822 
L 167.547441 291.386129 
L 167.70682 291.759026 
L 168.025578 290.753333 
L 168.344335 289.951039 
L 168.503714 290.323936 
L 168.663093 289.905839 
L 168.98185 290.267437 
L 169.141229 290.968032 
L 169.300608 290.606434 
L 169.459987 291.533028 
L 169.619365 291.22793 
L 169.778744 291.815526 
L 170.097502 291.838126 
L 170.25688 292.437021 
L 170.416259 292.267523 
L 170.575638 292.391822 
L 170.735017 292.267523 
L 170.894396 293.047217 
L 171.053774 292.335322 
L 171.213153 292.65172 
L 171.372532 292.61782 
L 171.531911 293.182816 
L 171.850668 292.730819 
L 172.169426 292.809919 
L 172.488183 292.425722 
L 172.647562 292.776019 
L 172.966319 291.905925 
L 173.125698 292.041524 
L 173.285077 292.62912 
L 173.603835 292.68562 
L 173.763213 292.041524 
L 174.081971 292.030224 
L 174.24135 292.459621 
L 174.400728 292.403122 
L 174.560107 293.137617 
L 174.878865 292.911618 
L 175.038243 293.318415 
L 175.197622 293.002017 
L 175.357001 293.759112 
L 176.950789 290.956732 
L 177.110167 291.431329 
L 177.269546 291.047131 
L 177.428925 291.307029 
L 177.747682 292.109324 
L 177.907061 292.064124 
L 178.06644 292.211023 
L 178.225819 291.566928 
L 178.385197 291.566928 
L 178.544576 291.307029 
L 179.182091 292.290122 
L 179.34147 292.290122 
L 179.660228 291.499128 
L 179.978985 292.60652 
L 180.138364 293.137617 
L 180.457121 292.538721 
L 180.935258 292.787319 
L 181.254015 293.341015 
L 181.732152 292.57262 
L 181.89153 292.798619 
L 182.050909 293.442714 
L 182.369667 293.013317 
L 182.529045 292.324022 
L 182.847803 292.527421 
L 183.007182 292.357922 
L 183.325939 292.470921 
L 183.485318 292.086724 
L 183.644697 291.408729 
L 183.963454 291.725126 
L 184.122833 291.770326 
L 184.282212 292.165823 
L 184.441591 291.646027 
L 184.760348 292.324022 
L 184.919727 291.691227 
L 185.238484 291.996325 
L 185.397863 291.397429 
L 185.557242 291.408729 
L 185.716621 291.20533 
L 185.875999 290.809833 
L 186.035378 291.318329 
L 186.354136 290.888932 
L 186.513515 291.623427 
L 186.832272 291.533028 
L 186.991651 292.165823 
L 187.15103 292.177123 
L 187.310408 292.425722 
L 187.788545 291.939825 
L 187.947923 291.826826 
L 188.107302 291.318329 
L 188.266681 291.23923 
L 188.585438 290.572535 
L 188.744817 290.301336 
L 188.904196 290.459535 
L 189.063575 291.295729 
L 189.222954 291.17143 
L 189.382332 291.883325 
L 190.019847 292.324022 
L 190.338605 291.668627 
L 190.497984 291.544328 
L 190.657362 291.18273 
L 190.816741 291.16013 
L 190.97612 290.674234 
L 191.294877 291.16013 
L 191.454256 290.843733 
L 191.932393 293.058517 
L 192.25115 293.499214 
L 192.410529 293.917311 
L 193.207423 291.838126 
L 193.366801 291.951125 
L 193.52618 291.928525 
L 193.685559 291.600827 
L 194.004317 290.131838 
L 194.323074 291.26183 
L 194.80121 292.787319 
L 195.119968 292.165823 
L 195.438725 292.877718 
L 195.598104 292.855119 
L 195.916862 292.62912 
L 196.07624 293.081117 
L 196.394998 292.979418 
L 196.554377 292.753419 
L 196.713756 293.137617 
L 196.873134 292.59522 
L 197.191892 293.115017 
L 197.351271 292.70822 
L 197.510649 292.956818 
L 197.670028 292.437021 
L 197.829407 292.798619 
L 197.988786 292.58392 
L 198.148164 292.922918 
L 198.307543 292.66302 
L 198.466922 292.877718 
L 198.626301 292.69692 
L 198.785679 292.267523 
L 198.945058 292.945518 
L 199.104437 293.137617 
L 199.263816 293.567013 
L 199.423195 292.877718 
L 199.582573 293.442714 
L 200.06071 293.002017 
L 200.220088 293.341015 
L 200.379467 293.985111 
L 200.538846 294.03031 
L 200.857603 293.521814 
L 201.016982 294.256309 
L 201.176361 293.544414 
L 201.813876 293.939911 
L 201.973255 293.973811 
L 202.132634 293.295815 
L 202.451391 293.872111 
L 202.770149 293.951211 
L 203.407664 293.013317 
L 203.726421 292.58392 
L 204.204558 291.634727 
L 204.363936 291.600827 
L 204.523315 291.781626 
L 204.682694 291.702527 
L 204.842073 292.459621 
L 205.16083 292.064124 
L 205.479588 292.425722 
L 205.638966 293.363615 
L 205.798345 293.081117 
L 205.957724 293.487914 
L 206.117103 293.386215 
L 206.276481 294.290208 
L 206.43586 293.860811 
L 206.754618 294.719605 
L 207.073375 294.651806 
L 207.232754 294.09811 
L 207.392133 294.538807 
L 207.551512 294.222409 
L 207.71089 294.697006 
L 207.870269 293.713912 
L 208.029648 293.894711 
L 208.189027 293.567013 
L 208.348405 292.911618 
L 208.507784 293.148916 
L 208.98592 291.849426 
L 209.145299 292.154523 
L 209.304678 291.623427 
L 209.464057 292.064124 
L 209.623436 291.917225 
L 209.782814 291.951125 
L 209.942193 292.504821 
L 210.101572 292.59522 
L 210.260951 293.194116 
L 210.420329 293.228016 
L 210.739087 292.256223 
L 210.898466 292.448321 
L 211.217223 291.815526 
L 211.376602 291.657327 
L 211.854738 290.403036 
L 212.014117 290.278737 
L 212.173496 290.888932 
L 212.492253 290.199637 
L 212.651632 291.069731 
L 213.129768 290.719434 
L 213.289147 291.657327 
L 213.448526 291.476528 
L 213.767283 290.470835 
L 213.926662 290.945432 
L 214.24542 290.436935 
L 214.564177 291.23923 
L 214.723556 291.295729 
L 214.882935 290.798533 
L 215.201692 291.996325 
L 215.361071 292.493521 
L 215.52045 291.759026 
L 215.839207 291.770326 
L 215.998586 291.476528 
L 216.157965 291.589527 
L 216.317344 292.233623 
L 216.476722 291.14883 
L 216.636101 290.888932 
L 216.79548 291.092331 
L 216.954859 290.877632 
L 217.273616 291.838126 
L 217.432995 291.533028 
L 217.592374 291.736426 
L 217.911131 290.922832 
L 218.07051 291.826826 
L 218.389268 291.092331 
L 218.548646 291.013231 
L 218.708025 291.623427 
L 219.026783 291.781626 
L 219.186161 292.199723 
L 219.34554 292.177123 
L 219.664298 291.691227 
L 219.823677 291.826826 
L 219.983055 291.114931 
L 220.142434 291.544328 
L 220.301813 291.612127 
L 220.461192 291.18273 
L 220.62057 291.420029 
L 220.779949 291.16013 
L 221.098707 292.369222 
L 221.258085 292.346622 
L 221.417464 292.787319 
L 221.576843 293.691313 
L 221.8956 292.437021 
L 222.054979 292.437021 
L 222.214358 292.267523 
L 222.373737 292.516121 
L 222.692494 291.600827 
L 223.011252 291.431329 
L 223.170631 291.465228 
L 223.489388 292.391822 
L 223.648767 292.527421 
L 223.808146 292.945518 
L 224.126903 292.855119 
L 224.286282 292.61782 
L 224.605039 293.024617 
L 224.764418 293.250616 
L 224.923797 292.900318 
L 225.083176 292.120624 
L 225.242555 292.504821 
L 225.561312 291.612127 
L 225.720691 291.691227 
L 225.88007 292.211023 
L 226.039448 291.996325 
L 226.358206 290.990632 
L 226.517585 291.137531 
L 226.676963 291.792926 
L 226.836342 291.19403 
L 227.1551 291.657327 
L 227.314479 292.007624 
L 227.473857 291.578227 
L 227.633236 291.589527 
L 227.792615 292.007624 
L 228.111372 291.668627 
L 228.270751 292.086724 
L 228.43013 291.962425 
L 228.589509 292.018924 
L 228.908266 291.14883 
L 229.067645 291.589527 
L 229.227024 291.465228 
L 229.386402 290.945432 
L 229.70516 290.888932 
L 229.864539 291.081031 
L 230.342675 292.538721 
L 230.661433 292.165823 
L 230.820811 291.792926 
L 231.139569 292.730819 
L 231.298948 292.968118 
L 231.458326 292.369222 
L 231.617705 292.256223 
L 232.095841 290.561235 
L 232.25522 290.516035 
L 232.414599 291.487828 
L 232.892735 290.109238 
L 233.052114 290.482135 
L 233.211493 290.210937 
L 233.370872 289.679841 
L 233.53025 290.086638 
L 233.689629 289.408643 
L 233.849008 289.273044 
L 234.167765 288.730647 
L 234.327144 288.515949 
L 234.486523 289.013145 
L 234.645902 288.256051 
L 234.964659 288.38035 
L 235.124038 288.674148 
L 235.283417 289.476442 
L 235.442796 289.578142 
L 235.761553 288.504649 
L 235.920932 288.719348 
L 236.239689 288.33515 
L 236.399068 288.606348 
L 236.558447 289.284344 
L 236.877204 287.340757 
L 237.036583 286.820961 
L 237.195962 287.035659 
L 237.674098 284.956474 
L 237.833477 284.719176 
L 238.152235 282.978988 
L 238.470992 282.888589 
L 238.630371 282.65129 
L 238.78975 281.928095 
L 238.949128 281.961995 
L 239.108507 281.803796 
L 239.267886 281.916795 
L 239.427265 281.724697 
L 239.586643 282.041094 
L 239.905401 281.3179 
L 240.224159 280.334806 
L 240.542916 281.103201 
L 240.702295 280.606005 
L 240.861674 280.606005 
L 241.499189 278.052223 
L 241.658567 278.255621 
L 241.977325 277.05783 
L 242.455461 275.182043 
L 242.61484 274.696146 
L 242.774219 274.797845 
L 243.252355 272.74126 
L 243.411734 272.334463 
L 243.730491 270.458676 
L 244.049249 269.046186 
L 244.208628 269.260884 
L 245.005521 265.62231 
L 245.643037 263.362326 
L 246.918067 251.904206 
L 247.714961 242.762571 
L 247.874339 242.378373 
L 248.511854 235.67752 
L 249.308748 225.79009 
L 250.105642 211.970287 
L 252.177566 173.968654 
L 252.655702 163.17723 
L 254.24949 124.282903 
L 254.887005 109.830305 
L 257.118308 67.060105 
L 257.596444 62.472337 
L 257.915201 59.19536 
L 258.233959 56.788477 
L 258.552717 55.195189 
L 258.712095 55.579386 
L 259.190232 53.568 
L 260.305883 61.986441 
L 261.899671 85.682374 
L 262.377807 93.140322 
L 262.537186 94.564112 
L 263.812216 120.813827 
L 264.60911 139.707295 
L 265.406003 155.357685 
L 265.724761 159.154458 
L 266.362276 171.335772 
L 266.999791 182.172396 
L 267.477927 191.370532 
L 268.115442 200.873765 
L 268.593579 208.828909 
L 269.071715 215.925259 
L 269.70923 226.524585 
L 270.027988 229.564263 
L 270.346745 232.89774 
L 270.665503 236.061718 
L 270.98426 238.6155 
L 271.781154 246.988741 
L 271.940533 248.073533 
L 272.418669 252.8421 
L 273.374942 258.412961 
L 273.534321 260.492146 
L 273.693699 260.153148 
L 274.649972 266.537603 
L 274.968729 268.322991 
L 275.128108 268.119592 
L 276.562517 277.532426 
L 277.040653 279.79241 
L 277.200032 279.690711 
L 277.837547 280.628604 
L 277.996926 280.470406 
L 278.156305 280.685104 
L 278.475062 282.402692 
L 278.634441 282.402692 
L 278.953199 283.046787 
L 279.112577 283.148487 
L 279.750092 285.374571 
L 280.06885 284.289779 
L 280.706365 286.843561 
L 280.865744 286.640162 
L 281.184501 287.611955 
L 281.34388 287.419857 
L 281.662638 288.572449 
L 281.822016 288.052652 
L 282.140774 288.42555 
L 282.300153 288.030052 
L 282.459531 288.244751 
L 282.778289 287.00176 
L 282.937668 287.611955 
L 283.097046 287.408557 
L 283.256425 287.544156 
L 283.415804 288.018752 
L 283.575183 287.724955 
L 283.734562 288.165651 
L 283.89394 288.086552 
L 284.372077 289.284344 
L 284.531455 289.216544 
L 284.850213 289.951039 
L 285.009592 290.064038 
L 285.16897 290.516035 
L 285.328349 290.369136 
L 285.487728 290.798533 
L 285.647107 290.493435 
L 285.806485 290.516035 
L 285.965864 290.188337 
L 286.444001 290.696834 
L 286.603379 291.013231 
L 286.762758 290.979332 
L 287.081516 290.448235 
L 287.240894 291.114931 
L 287.400273 290.696834 
L 287.559652 290.708134 
L 287.719031 290.934132 
L 288.037788 289.962339 
L 288.356546 289.216544 
L 288.515924 289.216544 
L 288.675303 289.883239 
L 288.834682 289.329543 
L 289.15344 290.470835 
L 289.312818 290.583834 
L 289.472197 291.307029 
L 289.631576 291.137531 
L 289.950333 291.826826 
L 290.109712 291.713827 
L 290.269091 290.956732 
L 290.587848 292.391822 
L 290.747227 292.098024 
L 290.906606 292.064124 
L 291.065985 291.465228 
L 291.225364 291.872025 
L 291.384742 291.589527 
L 291.544121 292.064124 
L 291.7035 292.052824 
L 291.862879 292.391822 
L 292.181636 291.307029 
L 292.341015 291.792926 
L 292.500394 291.589527 
L 292.819151 291.668627 
L 292.97853 292.222323 
L 293.456666 292.346622 
L 293.616045 292.900318 
L 293.775424 292.855119 
L 293.934803 292.65172 
L 294.25356 293.035917 
L 294.412939 293.137617 
L 294.572318 292.934218 
L 294.731696 291.804226 
L 294.891075 292.154523 
L 295.050454 292.041524 
L 295.209833 290.956732 
L 295.687969 290.809833 
L 295.847348 291.307029 
L 296.006726 291.21663 
L 296.166105 291.26183 
L 296.325484 292.188423 
L 296.644242 292.482221 
L 296.962999 292.843819 
L 297.600514 292.425722 
L 297.759893 292.278823 
L 298.07865 291.499128 
L 298.397408 292.199723 
L 298.556787 292.866418 
L 298.875544 291.838126 
L 299.034923 291.600827 
L 299.194302 291.634727 
L 299.353681 291.510428 
L 299.672438 292.233623 
L 299.831817 292.086724 
L 299.991196 291.691227 
L 300.150574 290.696834 
L 300.469332 291.058431 
L 300.628711 290.832433 
L 300.788089 290.821133 
L 300.947468 291.103631 
L 301.106847 290.222237 
L 301.266226 290.482135 
L 301.425604 290.244837 
L 301.744362 290.561235 
L 302.06312 290.335236 
L 302.222498 291.035831 
L 302.541256 290.493435 
L 302.700635 290.708134 
L 302.860013 290.290037 
L 303.019392 290.583834 
L 303.178771 290.369136 
L 303.656907 292.064124 
L 303.816286 291.408729 
L 304.135044 292.459621 
L 304.294422 293.092417 
L 304.453801 292.911618 
L 304.772559 293.544414 
L 304.931937 293.126317 
L 305.091316 293.295815 
L 305.250695 292.877718 
L 305.410074 293.058517 
L 305.569452 292.414422 
L 305.728831 292.64042 
L 305.88821 292.357922 
L 306.047589 292.482221 
L 306.366346 292.075424 
L 306.525725 292.403122 
L 306.685104 292.346622 
L 306.844483 292.68562 
L 307.003861 292.538721 
L 307.16324 292.68562 
L 307.322619 292.109324 
L 307.641376 292.787319 
L 307.800755 292.086724 
L 308.43827 291.634727 
L 308.757028 292.211023 
L 308.916406 292.425722 
L 309.235164 291.905925 
L 309.394543 292.165823 
L 309.553922 292.968118 
L 309.7133 292.730819 
L 309.872679 293.216716 
L 310.032058 292.900318 
L 310.191437 292.911618 
L 310.350815 292.67432 
L 310.510194 293.476614 
L 310.669573 292.821219 
L 310.98833 293.657413 
L 311.147709 293.160216 
L 311.307088 293.883411 
L 311.466467 292.956818 
L 311.785224 292.64042 
L 311.944603 292.776019 
L 312.103982 291.442628 
L 312.263361 291.951125 
L 312.422739 291.973725 
L 312.582118 292.61782 
L 312.900876 293.002017 
L 313.060254 293.521814 
L 313.379012 293.058517 
L 313.538391 293.318415 
L 313.697769 293.295815 
L 313.857148 293.476614 
L 314.016527 293.171516 
L 314.654042 291.013231 
L 314.813421 291.103631 
L 315.132178 290.380436 
L 315.291557 290.742033 
L 315.610315 290.843733 
L 315.769693 290.482135 
L 316.24783 290.527335 
L 316.566587 291.352229 
L 316.725966 291.25053 
L 316.885345 291.781626 
L 317.044724 291.759026 
L 317.204102 291.612127 
L 317.363481 291.962425 
L 317.52286 292.68562 
L 317.682239 292.414422 
L 317.841617 293.295815 
L 318.000996 293.239316 
L 318.160375 293.872111 
L 318.479132 293.295815 
L 318.638511 293.454014 
L 319.116647 292.493521 
L 319.276026 292.911618 
L 319.435405 292.482221 
L 319.594784 292.425722 
L 319.754163 291.679927 
L 319.913541 292.030224 
L 320.07292 291.985025 
L 320.232299 291.544328 
L 320.391678 291.634727 
L 320.551056 291.476528 
L 320.710435 292.007624 
L 320.869814 291.589527 
L 321.34795 292.911618 
L 321.507329 292.70822 
L 321.985465 292.843819 
L 322.144844 293.284515 
L 322.62298 292.493521 
L 322.782359 292.66302 
L 322.941738 292.470921 
L 323.260495 292.60652 
L 323.579253 293.397515 
L 323.89801 292.312722 
L 324.057389 293.329715 
L 324.216768 293.273216 
L 324.376147 293.058517 
L 324.535526 292.62912 
L 324.854283 292.425722 
L 325.173041 291.566928 
L 325.332419 291.374829 
L 325.491798 291.668627 
L 325.810556 290.177037 
L 326.129313 289.883239 
L 326.288692 290.109238 
L 326.607449 291.23923 
L 327.085586 293.126317 
L 327.404343 293.702613 
L 327.723101 294.459707 
L 328.041858 293.386215 
L 328.360616 292.58392 
L 328.519995 292.866418 
L 328.679373 292.369222 
L 328.838752 292.843819 
L 329.15751 292.493521 
L 329.635646 294.12071 
L 329.795025 293.962511 
L 329.954404 294.03031 
L 330.273161 293.013317 
L 330.43254 292.911618 
L 330.591919 293.103717 
L 330.910676 292.098024 
L 331.070055 292.58392 
L 331.548191 291.442628 
L 331.866949 292.052824 
L 332.026327 291.691227 
L 332.185706 291.894625 
L 332.345085 291.826826 
L 332.504464 291.917225 
L 332.823221 290.629034 
L 332.9826 290.775933 
L 333.620115 292.244923 
L 333.938873 291.713827 
L 334.576388 293.736512 
L 334.735767 293.872111 
L 334.895145 293.273216 
L 335.054524 293.171516 
L 335.213903 292.61782 
L 335.373282 292.764719 
L 335.53266 293.171516 
L 335.692039 293.126317 
L 336.010797 292.504821 
L 336.170175 292.527421 
L 336.329554 292.278823 
L 336.488933 292.832519 
L 336.648312 292.809919 
L 336.80769 293.035917 
L 336.967069 292.821219 
L 337.126448 293.148916 
L 337.445206 292.098024 
L 337.604584 292.482221 
L 337.763963 292.109324 
L 337.923342 292.030224 
L 338.082721 291.826826 
L 338.401478 292.301422 
L 338.560857 292.843819 
L 338.720236 292.58392 
L 338.879614 292.61782 
L 339.038993 293.374915 
L 339.198372 292.753419 
L 339.357751 293.092417 
L 339.676508 292.968118 
L 339.995266 293.250616 
L 340.314023 292.67432 
L 340.79216 293.239316 
L 341.110917 292.877718 
L 341.748432 291.17143 
L 342.06719 292.086724 
L 342.226568 291.499128 
L 342.385947 291.770326 
L 342.545326 292.482221 
L 342.704705 292.470921 
L 342.864084 293.035917 
L 343.023462 293.047217 
L 343.34222 293.318415 
L 343.660977 292.889018 
L 343.820356 293.092417 
L 344.139114 292.030224 
L 344.457871 291.996325 
L 344.776629 291.352229 
L 344.936007 291.747726 
L 345.095386 291.420029 
L 345.254765 291.815526 
L 345.414144 291.307029 
L 345.573523 291.736426 
L 345.732901 291.487828 
L 346.051659 292.357922 
L 346.211038 292.290122 
L 346.370416 292.62912 
L 346.529795 292.199723 
L 346.689174 292.414422 
L 346.848553 291.589527 
L 347.007931 292.052824 
L 347.16731 291.668627 
L 347.326689 291.668627 
L 347.645447 291.18273 
L 347.804825 291.16013 
L 347.964204 290.798533 
L 348.282962 291.465228 
L 348.601719 291.691227 
L 348.761098 291.996325 
L 348.920477 292.59522 
L 349.079855 292.561321 
L 349.239234 291.736426 
L 349.398613 291.770326 
L 349.71737 292.516121 
L 349.876749 291.442628 
L 350.036128 292.154523 
L 350.195507 291.657327 
L 350.354886 292.018924 
L 350.673643 290.877632 
L 350.833022 291.691227 
L 351.151779 291.465228 
L 351.311158 291.047131 
L 351.470537 292.064124 
L 351.789294 290.742033 
L 351.948673 290.775933 
L 352.267431 291.691227 
L 352.426809 291.657327 
L 352.745567 292.030224 
L 353.064325 291.318329 
L 353.223703 291.646027 
L 353.383082 291.646027 
L 353.70184 290.911532 
L 354.020597 291.17143 
L 354.179976 290.798533 
L 354.498733 291.476528 
L 354.658112 291.16013 
L 355.136248 292.482221 
L 355.455006 292.57262 
L 355.614385 292.290122 
L 355.773764 292.290122 
L 355.933142 291.420029 
L 356.2519 291.408729 
L 356.570657 292.131924 
L 356.889415 292.764719 
L 357.048794 292.64042 
L 357.208172 291.917225 
L 357.686309 292.821219 
L 357.845688 292.979418 
L 358.164445 291.14883 
L 358.323824 290.753333 
L 358.642581 291.035831 
L 358.80196 292.188423 
L 359.120718 291.612127 
L 359.439475 290.583834 
L 359.598854 291.103631 
L 359.758233 291.21663 
L 360.236369 290.222237 
L 360.395748 289.74764 
L 360.555127 290.504735 
L 360.873884 290.922832 
L 361.033263 291.397429 
L 361.192642 291.069731 
L 361.35202 291.21663 
L 361.670778 291.114931 
L 361.989535 291.352229 
L 362.308293 291.013231 
L 362.467672 291.092331 
L 362.786429 291.725126 
L 362.945808 291.747726 
L 363.105187 291.894625 
L 363.264566 292.69692 
L 363.423944 292.900318 
L 363.742702 292.821219 
L 364.061459 293.250616 
L 364.220838 292.956818 
L 364.380217 292.403122 
L 364.539596 292.391822 
L 364.698974 292.66302 
L 365.017732 291.668627 
L 365.495868 291.024531 
L 365.655247 291.047131 
L 365.814626 290.742033 
L 366.133383 291.646027 
L 366.292762 291.510428 
L 366.452141 291.849426 
L 366.61152 291.770326 
L 366.770898 292.018924 
L 366.930277 291.781626 
L 367.089656 292.58392 
L 367.249035 292.369222 
L 367.567792 292.437021 
L 368.045929 291.815526 
L 368.205307 291.826826 
L 368.524065 292.380522 
L 368.683444 291.589527 
L 369.16158 292.730819 
L 369.320959 292.256223 
L 369.480337 292.550021 
L 369.639716 291.668627 
L 369.799095 291.487828 
L 369.958474 290.968032 
L 370.117852 291.024531 
L 370.277231 291.352229 
L 370.43661 291.318329 
L 370.595989 291.510428 
L 370.914746 292.64042 
L 371.074125 292.561321 
L 371.552261 295.488 
L 371.871019 295.160302 
L 372.030398 294.753505 
L 372.189776 294.787405 
L 372.349155 293.939911 
L 372.508534 293.736512 
L 372.667913 293.838212 
L 373.146049 292.67432 
L 373.464807 293.126317 
L 373.624185 293.058517 
L 373.783564 292.527421 
L 374.421079 292.018924 
L 374.899215 292.65172 
L 375.058594 292.425722 
L 375.53673 294.685706 
L 375.696109 294.787405 
L 375.855488 294.380608 
L 376.014867 294.301508 
L 376.333624 293.872111 
L 376.493003 292.69692 
L 376.652382 292.68562 
L 376.811761 291.951125 
L 377.289897 291.600827 
L 377.449276 291.905925 
L 377.608654 291.25053 
L 377.768033 291.397429 
L 377.927412 290.945432 
L 378.086791 291.781626 
L 378.24617 291.917225 
L 378.405548 292.199723 
L 378.564927 291.917225 
L 378.724306 291.17143 
L 378.883685 291.26183 
L 379.043063 290.911532 
L 379.202442 291.646027 
L 379.5212 290.877632 
L 379.680578 290.210937 
L 379.839957 290.290037 
L 379.999336 290.154437 
L 380.158715 290.301336 
L 380.318093 290.968032 
L 380.477472 290.346536 
L 380.636851 290.922832 
L 380.79623 290.877632 
L 380.955609 291.521728 
L 381.114987 291.465228 
L 381.433745 293.058517 
L 381.593124 292.188423 
L 381.752502 292.290122 
L 381.911881 291.985025 
L 382.07126 292.301422 
L 382.549396 290.572535 
L 382.708775 291.578227 
L 383.027532 290.165737 
L 383.186911 290.516035 
L 383.34629 290.595134 
L 383.505669 290.030138 
L 383.665048 290.877632 
L 383.824426 290.934132 
L 383.983805 291.668627 
L 384.302563 291.21663 
L 384.461941 291.725126 
L 384.62132 291.566928 
L 384.780699 291.928525 
L 384.940078 291.453928 
L 385.099456 292.120624 
L 385.258835 291.759026 
L 385.418214 292.154523 
L 385.577593 291.747726 
L 385.736971 291.770326 
L 385.89635 290.753333 
L 386.055729 290.821133 
L 386.374487 290.436935 
L 386.533865 290.730733 
L 386.693244 290.256137 
L 386.852623 290.380436 
L 387.17138 290.979332 
L 387.330759 290.866332 
L 387.490138 291.905925 
L 387.649517 291.894625 
L 387.808895 292.267523 
L 387.968274 292.041524 
L 388.127653 292.256223 
L 388.287032 292.764719 
L 388.44641 292.527421 
L 388.605789 291.973725 
L 388.924547 292.154523 
L 389.083926 292.064124 
L 389.243304 292.120624 
L 389.402683 291.792926 
L 389.562062 292.007624 
L 389.721441 291.770326 
L 390.199577 292.798619 
L 390.837092 289.453842 
L 390.996471 289.79284 
L 391.15585 289.566842 
L 391.633986 287.487656 
L 391.793365 287.578056 
L 392.43088 291.702527 
L 392.749637 291.16013 
L 392.909016 291.928525 
L 393.068395 292.007624 
L 393.227773 292.437021 
L 393.387152 291.420029 
L 393.546531 291.657327 
L 393.70591 291.431329 
L 394.024667 290.244837 
L 394.184046 290.323936 
L 394.343425 290.323936 
L 394.502804 289.487742 
L 394.662182 290.131838 
L 394.821561 289.894539 
L 394.98094 290.696834 
L 395.140319 290.267437 
L 395.459076 290.504735 
L 395.618455 291.17143 
L 395.777834 291.25053 
L 395.937212 291.600827 
L 396.096591 292.290122 
L 396.25597 291.860725 
L 396.415349 292.154523 
L 396.574728 291.894625 
L 396.734106 292.267523 
L 397.212243 291.555628 
L 397.371621 291.781626 
L 397.690379 292.855119 
L 398.327894 290.335236 
L 398.487273 291.295729 
L 398.487273 291.295729 
" style="fill:none;stroke:#1f77b4;stroke-linecap:square;stroke-width:1.5;"/>
   </g>
   <g id="line2d_13">
    <path clip-path="url(#pb2eefea3ef)" d="M 259.190232 53.568 
" style="fill:none;stroke:#ff7f0e;stroke-linecap:square;stroke-width:1.5;"/>
    <defs>
     <path d="M -1.5 -2.598076 
L -3 -0 
L -1.5 2.598076 
L 1.5 2.598076 
L 3 0 
L 1.5 -2.598076 
z
" id="mdfb5edce4c" style="stroke:#ff7f0e;stroke-linejoin:miter;"/>
    </defs>
    <g clip-path="url(#pb2eefea3ef)">
     <use style="fill:#ff7f0e;stroke:#ff7f0e;stroke-linejoin:miter;" x="259.190232" xlink:href="#mdfb5edce4c" y="53.568"/>
    </g>
   </g>
   <g id="patch_3">
    <path d="M 57.6 307.584 
L 57.6 41.472 
" style="fill:none;stroke:#000000;stroke-linecap:square;stroke-linejoin:miter;stroke-width:0.8;"/>
   </g>
   <g id="patch_4">
    <path d="M 414.72 307.584 
L 414.72 41.472 
" style="fill:none;stroke:#000000;stroke-linecap:square;stroke-linejoin:miter;stroke-width:0.8;"/>
   </g>
   <g id="patch_5">
    <path d="M 57.6 307.584 
L 414.72 307.584 
" style="fill:none;stroke:#000000;stroke-linecap:square;stroke-linejoin:miter;stroke-width:0.8;"/>
   </g>
   <g id="patch_6">
    <path d="M 57.6 41.472 
L 414.72 41.472 
" style="fill:none;stroke:#000000;stroke-linecap:square;stroke-linejoin:miter;stroke-width:0.8;"/>
   </g>
   <g id="text_14">
    <!-- Peaks -->
    <g transform="translate(218.790937 35.472)scale(0.12 -0.12)">
     <defs>
      <path d="M 1259 4147 
L 1259 2394 
L 2053 2394 
Q 2494 2394 2734 2622 
Q 2975 2850 2975 3272 
Q 2975 3691 2734 3919 
Q 2494 4147 2053 4147 
L 1259 4147 
z
M 628 4666 
L 2053 4666 
Q 2838 4666 3239 4311 
Q 3641 3956 3641 3272 
Q 3641 2581 3239 2228 
Q 2838 1875 2053 1875 
L 1259 1875 
L 1259 0 
L 628 0 
L 628 4666 
z
" id="DejaVuSans-50" transform="scale(0.015625)"/>
      <path d="M 581 4863 
L 1159 4863 
L 1159 1991 
L 2875 3500 
L 3609 3500 
L 1753 1863 
L 3688 0 
L 2938 0 
L 1159 1709 
L 1159 0 
L 581 0 
L 581 4863 
z
" id="DejaVuSans-6b" transform="scale(0.015625)"/>
     </defs>
     <use xlink:href="#DejaVuSans-50"/>
     <use x="56.677734" xlink:href="#DejaVuSans-65"/>
     <use x="118.201172" xlink:href="#DejaVuSans-61"/>
     <use x="179.480469" xlink:href="#DejaVuSans-6b"/>
     <use x="237.390625" xlink:href="#DejaVuSans-73"/>
    </g>
   </g>
  </g>
 </g>
 <defs>
  <clipPath id="pb2eefea3ef">
   <rect height="266.112" width="357.12" x="57.6" y="41.472"/>
  </clipPath>
 </defs>
</svg>
